<svg version="1.1" xmlns="http://www.w3.org/2000/svg" xmlns:xlink="http://www.w3.org/1999/xlink" stroke-linecap="round" stroke-linejoin="round" stroke-width="0" fill-rule="evenodd" width="72.2032mm" height="38.101mm" viewBox="-127 -127 72203.2 38101" id="DqYYi4CXQrArWHvPTpmv"><defs><circle cx="0" cy="0" r="250" id="DqYYi4CXQrArWHvPTpmv_pad-15"/></defs><g transform="translate(0,37847) scale(1,-1)" fill="currentColor" stroke="currentColor"><path d="M 62371.6 13201.6 62727.2 13201.6 62736.7 13201.8 62746.3 13202.4 62755.8 13203.3 62765.2 13204.7 62774.6 13206.4 62783.9 13208.5 62793.2 13211 62802.3 13213.8 62811.3 13217 62820.1 13220.6 62828.8 13224.5 62837.4 13228.8 62845.8 13233.4 62853.9 13238.3 62861.9 13243.6 62869.6 13249.2 62877.2 13255 62884.4 13261.2 62891.4 13267.7 62898.2 13274.5 62904.7 13281.5 62910.9 13288.7 62916.7 13296.3 62922.3 13304 62927.6 13312 62932.5 13320.2 62937.1 13328.5 62941.4 13337.1 62945.3 13345.8 62948.9 13354.6 62952.1 13363.6 62954.9 13372.7 62957.4 13382 62959.5 13391.3 62961.2 13400.7 62962.6 13410.1 62963.5 13419.6 62964.1 13429.2 62964.3 13438.7 62964.3 13557.2 62964.1 13566.7 62963.5 13576.3 62962.6 13585.8 62961.2 13595.2 62959.5 13604.6 62957.4 13613.9 62954.9 13623.2 62952.1 13632.3 62948.9 13641.3 62945.3 13650.1 62941.4 13658.8 62937.1 13667.4 62932.5 13675.8 62927.6 13683.9 62922.3 13691.9 62916.7 13699.6 62910.9 13707.2 62904.7 13714.4 62898.2 13721.4 62891.4 13728.2 62884.4 13734.7 62877.2 13740.9 62869.6 13746.7 62861.9 13752.3 62853.9 13757.6 62845.8 13762.5 62837.4 13767.1 62828.8 13771.4 62820.1 13775.3 62811.3 13778.9 62802.3 13782.1 62793.2 13784.9 62783.9 13787.4 62774.6 13789.5 62765.2 13791.2 62755.8 13792.6 62746.3 13793.5 62736.7 13794.1 62727.2 13794.3 62371.6 13794.3 62371.6 14268.4 62964.3 14268.4 M 63455.3 14268.4 63810.9 13201.6 64166.5 14268.4 M 7467.6 18516.6 7467.6 19583.4 7763.9 19583.4 7774.6 19583.2 7785.3 19582.6 7795.9 19581.7 7806.5 19580.3 7817.1 19578.6 7827.6 19576.5 7838 19574 7848.3 19571.1 7858.5 19567.9 7868.6 19564.3 7878.5 19560.3 7888.3 19556 7897.9 19551.3 7907.4 19546.3 7916.7 19541 7925.7 19535.3 7934.6 19529.3 7943.2 19523 7951.6 19516.4 7959.8 19509.4 7967.7 19502.2 7975.3 19494.7 7982.7 19486.9 7989.7 19478.9 7996.5 19470.6 8003 19462.1 8009.1 19453.4 8015 19444.4 8020.5 19435.2 8025.7 19425.9 8030.5 19416.3 8035 19406.6 8039.2 19396.8 8042.9 19386.8 8046.4 19376.6 8049.4 19366.4 8052.1 19356 8054.4 19345.6 8056.3 19335 8057.8 19324.4 8059 19313.8 8059.8 19303.1 8060.2 19292.4 8060.2 19281.8 8059.8 19271.1 8059 19260.4 8057.8 19249.8 8056.3 19239.2 8054.4 19228.6 8052.1 19218.2 8049.4 19207.8 8046.4 19197.6 8042.9 19187.4 8039.2 19177.4 8035 19167.6 8030.5 19157.9 8025.7 19148.3 8020.5 19139 8015 19129.8 8009.1 19120.8 8003 19112.1 7996.5 19103.6 7989.7 19095.3 7982.7 19087.3 7975.3 19079.5 7967.7 19072 7959.8 19064.8 7951.6 19057.8 7943.2 19051.2 7934.6 19044.9 7925.7 19038.9 7916.7 19033.2 7907.4 19027.9 7897.9 19022.9 7888.3 19018.2 7878.5 19013.9 7868.6 19009.9 7858.5 19006.3 7848.3 19003.1 7838 19000.2 7827.6 18997.7 7817.1 18995.6 7806.5 18993.9 7795.9 18992.5 7785.3 18991.6 7774.6 18991 7763.9 18990.8 M 7763.9 18990.7 7467.6 18990.7 M 8728.8 18931.5 8995.5 18931.5 M 8728.8 18931.4 8719.9 18931.2 8711 18930.6 8702.1 18929.7 8693.3 18928.3 8684.5 18926.6 8675.8 18924.5 8667.3 18922.1 8658.8 18919.2 8650.5 18916 8642.3 18912.5 8634.2 18908.6 8626.4 18904.4 8618.7 18899.8 8611.3 18894.9 8604 18889.7 8597 18884.1 8590.2 18878.3 8583.7 18872.2 8577.5 18865.8 8571.5 18859.2 8565.9 18852.3 8560.5 18845.2 8555.4 18837.8 8550.7 18830.3 8546.3 18822.5 8542.2 18814.6 8538.5 18806.5 8535.1 18798.2 8532.1 18789.8 8529.5 18781.3 8527.2 18772.6 8525.3 18763.9 8523.7 18755.1 8522.6 18746.3 8521.8 18737.4 8521.4 18728.5 8521.4 18719.5 8521.8 18710.6 8522.6 18701.7 8523.7 18692.9 8525.3 18684.1 8527.2 18675.4 8529.5 18666.7 8532.1 18658.2 8535.1 18649.8 8538.5 18641.5 8542.2 18633.4 8546.3 18625.5 8550.7 18617.7 8555.4 18610.2 8560.5 18602.8 8565.9 18595.7 8571.5 18588.8 8577.5 18582.2 8583.7 18575.8 8590.2 18569.7 8597 18563.9 8604 18558.3 8611.3 18553.1 8618.7 18548.2 8626.4 18543.6 8634.2 18539.4 8642.3 18535.5 8650.5 18532 8658.8 18528.8 8667.3 18525.9 8675.8 18523.5 8684.5 18521.4 8693.3 18519.7 8702.1 18518.3 8711 18517.4 8719.9 18516.8 8728.8 18516.6 8995.5 18516.6 8995.5 19050 8995.3 19058.2 8994.7 19066.4 8993.8 19074.6 8992.5 19082.7 8990.8 19090.7 8988.7 19098.7 8986.3 19106.5 8983.5 19114.2 8980.4 19121.8 8976.9 19129.3 8973 19136.5 8968.9 19143.6 8964.4 19150.5 8959.6 19157.1 8954.5 19163.6 8949.1 19169.8 8943.4 19175.7 8937.5 19181.4 8931.3 19186.8 8924.8 19191.9 8918.2 19196.7 8911.3 19201.2 8904.2 19205.3 8897 19209.2 8889.5 19212.7 8881.9 19215.8 8874.2 19218.6 8866.4 19221 8858.4 19223.1 8850.4 19224.8 8842.3 19226.1 8834.1 19227 8825.9 19227.6 8817.7 19227.8 8580.6 19227.8 M 9529.2 19227.8 9529.2 18516.6 M 9499.6 19524.1 9499.6 19583.4 9558.9 19583.4 9558.9 19524.1 9499.6 19524.1 M 10064.1 19227.8 10064.1 18516.6 M 10064.1 19227.8 10419.7 19227.8 10419.7 19109.3 M 10786.5 19227.8 10786.5 18516.6 M 10756.9 19524.1 10756.9 19583.4 10816.2 19583.4 10816.2 19524.1 10756.9 19524.1 M 11311.5 19227.8 11311.5 18516.6 M 11311.5 19227.8 11607.8 19227.8 11616 19227.6 11624.2 19227 11632.4 19226.1 11640.5 19224.8 11648.5 19223.1 11656.5 19221 11664.3 19218.6 11672 19215.8 11679.6 19212.7 11687.1 19209.2 11694.3 19205.3 11701.4 19201.2 11708.3 19196.7 11714.9 19191.9 11721.4 19186.8 11727.6 19181.4 11733.5 19175.7 11739.2 19169.8 11744.6 19163.6 11749.7 19157.1 11754.5 19150.5 11759 19143.6 11763.1 19136.5 11767 19129.3 11770.5 19121.8 11773.6 19114.2 11776.4 19106.5 11778.8 19098.7 11780.9 19090.7 11782.6 19082.7 11783.9 19074.6 11784.8 19066.4 11785.4 19058.2 11785.6 19050 11785.6 18516.6 M 12509.1 18516.6 12805.4 18516.6 M 12509.1 18516.6 12500.9 18516.8 12492.7 18517.4 12484.5 18518.3 12476.4 18519.6 12468.4 18521.3 12460.4 18523.4 12452.6 18525.8 12444.9 18528.6 12437.3 18531.7 12429.8 18535.2 12422.6 18539.1 12415.5 18543.2 12408.6 18547.7 12402 18552.5 12395.5 18557.6 12389.3 18563 12383.4 18568.7 12377.7 18574.6 12372.3 18580.8 12367.2 18587.3 12362.4 18593.9 12357.9 18600.8 12353.8 18607.9 12349.9 18615.1 12346.4 18622.6 12343.3 18630.2 12340.5 18637.9 12338.1 18645.7 12336 18653.7 12334.3 18661.7 12333 18669.8 12332.1 18678 12331.5 18686.2 12331.3 18694.4 12331.3 19050 12331.5 19058.2 12332.1 19066.4 12333 19074.6 12334.3 19082.7 12336 19090.7 12338.1 19098.7 12340.5 19106.5 12343.3 19114.2 12346.4 19121.8 12349.9 19129.3 12353.8 19136.5 12357.9 19143.6 12362.4 19150.5 12367.2 19157.1 12372.3 19163.6 12377.7 19169.8 12383.4 19175.7 12389.3 19181.4 12395.5 19186.8 12402 19191.9 12408.6 19196.7 12415.5 19201.2 12422.6 19205.3 12429.8 19209.2 12437.3 19212.7 12444.9 19215.8 12452.6 19218.6 12460.4 19221 12468.4 19223.1 12476.4 19224.8 12484.5 19226.1 12492.7 19227 12500.9 19227.6 12509.1 19227.8 12805.4 19227.8 12805.4 18338.8 12805.2 18330.6 12804.6 18322.4 12803.7 18314.2 12802.4 18306.1 12800.7 18298.1 12798.6 18290.1 12796.2 18282.3 12793.4 18274.6 12790.3 18267 12786.8 18259.5 12782.9 18252.3 12778.8 18245.2 12774.3 18238.3 12769.5 18231.7 12764.4 18225.2 12759 18219 12753.3 18213.1 12747.4 18207.4 12741.2 18202 12734.7 18196.9 12728.1 18192.1 12721.2 18187.6 12714.1 18183.5 12706.9 18179.6 12699.4 18176.1 12691.8 18173 12684.1 18170.2 12676.3 18167.8 12668.3 18165.7 12660.3 18164 12652.2 18162.7 12644 18161.8 12635.8 18161.2 12627.6 18161 12390.6 18161 M 27787.6 12868.4 28024.7 11801.6 28261.7 12512.8 28498.8 11801.6 28735.9 12868.4 M 29214.2 12512.8 29214.2 11801.6 M 29184.6 12809.1 29184.6 12868.4 29243.9 12868.4 29243.9 12809.1 29184.6 12809.1 M 29759.5 12868.4 29759.5 11801.6 M 29759.5 12868.4 30233.6 12868.4 M 30233.6 12394.3 29759.5 12394.3 M 30662 12512.8 30662 11801.6 M 30632.4 12809.1 30632.4 12868.4 30691.7 12868.4 30691.7 12809.1 30632.4 12809.1 M 12547.6 13233.4 12547.6 12166.6 M 12547.6 13233.4 12843.9 13233.4 12854.5 13233.2 12865 13232.6 12875.6 13231.7 12886.1 13230.4 12896.5 13228.7 12906.9 13226.6 12917.2 13224.2 12927.4 13221.4 12937.5 13218.2 12947.4 13214.7 12957.3 13210.8 12967 13206.6 12976.5 13202.1 12985.9 13197.2 12995.1 13191.9 13004.1 13186.4 13012.9 13180.5 13021.5 13174.3 13029.8 13167.8 13037.9 13161 13045.8 13154 13053.4 13146.6 13060.8 13139 13067.8 13131.1 13074.6 13123 13081.1 13114.7 13087.3 13106.1 13093.2 13097.3 13098.7 13088.3 13104 13079.1 13108.9 13069.7 13113.4 13060.2 13117.6 13050.5 13121.5 13040.6 13125 13030.7 13128.2 13020.6 13131 13010.4 13133.4 13000.1 13135.5 12989.7 13137.2 12979.3 13138.5 12968.8 13139.4 12958.2 13140 12947.7 13140.2 12937.1 M 13140.3 12937.1 13140.3 12462.9 M 13140.2 12462.9 13140 12452.3 13139.4 12441.8 13138.5 12431.2 13137.2 12420.7 13135.5 12410.3 13133.4 12399.9 13131 12389.6 13128.2 12379.4 13125 12369.3 13121.5 12359.4 13117.6 12349.5 13113.4 12339.8 13108.9 12330.3 13104 12320.9 13098.7 12311.7 13093.2 12302.7 13087.3 12293.9 13081.1 12285.3 13074.6 12277 13067.8 12268.9 13060.8 12261 13053.4 12253.4 13045.8 12246 13037.9 12239 13029.8 12232.2 13021.5 12225.7 13012.9 12219.5 13004.1 12213.6 12995.1 12208.1 12985.9 12202.8 12976.5 12197.9 12967 12193.4 12957.3 12189.2 12947.4 12185.3 12937.5 12181.8 12927.4 12178.6 12917.2 12175.8 12906.9 12173.4 12896.5 12171.3 12886.1 12169.6 12875.6 12168.3 12865 12167.4 12854.5 12166.8 12843.9 12166.6 12547.6 12166.6 M 13711.8 12403.7 13711.8 12640.7 M 13711.7 12640.7 13711.9 12650.4 13712.5 12660 13713.5 12669.6 13714.9 12679.2 13716.6 12688.7 13718.8 12698.2 13721.3 12707.5 13724.2 12716.7 13727.5 12725.8 13731.2 12734.8 13735.2 12743.6 13739.6 12752.2 13744.3 12760.6 13749.3 12768.9 13754.7 12776.9 13760.5 12784.7 13766.5 12792.3 13772.8 12799.6 13779.4 12806.6 13786.4 12813.4 13793.5 12819.9 13801 12826.1 13808.7 12831.9 13816.6 12837.5 13824.7 12842.7 13833.1 12847.6 13841.6 12852.2 13850.3 12856.4 13859.2 12860.2 13868.2 12863.7 13877.4 12866.8 13886.7 12869.5 13896 12871.9 13905.5 12873.8 13915.1 12875.4 13924.7 12876.6 13934.3 12877.4 13944 12877.8 13953.6 12877.8 13963.3 12877.4 13972.9 12876.6 13982.5 12875.4 13992.1 12873.8 14001.6 12871.9 14010.9 12869.5 14020.2 12866.8 14029.4 12863.7 14038.4 12860.2 14047.3 12856.4 14056 12852.2 14064.5 12847.6 14072.9 12842.7 14081 12837.5 14088.9 12831.9 14096.6 12826.1 14104.1 12819.9 14111.2 12813.4 14118.2 12806.6 14124.8 12799.6 14131.1 12792.3 14137.1 12784.7 14142.9 12776.9 14148.3 12768.9 14153.3 12760.6 14158 12752.2 14162.4 12743.6 14166.4 12734.8 14170.1 12725.8 14173.4 12716.7 14176.3 12707.5 14178.8 12698.2 14181 12688.7 14182.7 12679.2 14184.1 12669.6 14185.1 12660 14185.7 12650.4 14185.9 12640.7 14185.9 12403.7 14185.7 12394 14185.1 12384.4 14184.1 12374.8 14182.7 12365.2 14181 12355.7 14178.8 12346.2 14176.3 12336.9 14173.4 12327.7 14170.1 12318.6 14166.4 12309.6 14162.4 12300.8 14158 12292.2 14153.3 12283.8 14148.3 12275.5 14142.9 12267.5 14137.1 12259.7 14131.1 12252.1 14124.8 12244.8 14118.2 12237.8 14111.2 12231 14104.1 12224.5 14096.6 12218.3 14088.9 12212.5 14081 12206.9 14072.9 12201.7 14064.5 12196.8 14056 12192.2 14047.3 12188 14038.4 12184.2 14029.4 12180.7 14020.2 12177.6 14010.9 12174.9 14001.6 12172.5 13992.1 12170.6 13982.5 12169 13972.9 12167.8 13963.3 12167 13953.6 12166.6 13944 12166.6 13934.3 12167 13924.7 12167.8 13915.1 12169 13905.5 12170.6 13896 12172.5 13886.7 12174.9 13877.4 12177.6 13868.2 12180.7 13859.2 12184.2 13850.3 12188 13841.6 12192.2 13833.1 12196.8 13824.7 12201.7 13816.6 12206.9 13808.7 12212.5 13801 12218.3 13793.5 12224.5 13786.4 12231 13779.4 12237.8 13772.8 12244.8 13766.5 12252.1 13760.5 12259.7 13754.7 12267.5 13749.3 12275.5 13744.3 12283.8 13739.6 12292.2 13735.2 12300.8 13731.2 12309.6 13727.5 12318.6 13724.2 12327.7 13721.3 12336.9 13718.8 12346.2 13716.6 12355.7 13714.9 12365.2 13713.5 12374.8 13712.5 12384.4 13711.9 12394 13711.7 12403.7 M 14702.4 12403.7 14702.4 12640.7 M 14702.3 12640.7 14702.5 12650.4 14703.1 12660 14704.1 12669.6 14705.5 12679.2 14707.2 12688.7 14709.4 12698.2 14711.9 12707.5 14714.8 12716.7 14718.1 12725.8 14721.8 12734.8 14725.8 12743.6 14730.2 12752.2 14734.9 12760.6 14739.9 12768.9 14745.3 12776.9 14751.1 12784.7 14757.1 12792.3 14763.4 12799.6 14770 12806.6 14777 12813.4 14784.1 12819.9 14791.6 12826.1 14799.3 12831.9 14807.2 12837.5 14815.3 12842.7 14823.7 12847.6 14832.2 12852.2 14840.9 12856.4 14849.8 12860.2 14858.8 12863.7 14868 12866.8 14877.3 12869.5 14886.6 12871.9 14896.1 12873.8 14905.7 12875.4 14915.3 12876.6 14924.9 12877.4 14934.6 12877.8 14944.2 12877.8 14953.9 12877.4 14963.5 12876.6 14973.1 12875.4 14982.7 12873.8 14992.2 12871.9 15001.5 12869.5 15010.8 12866.8 15020 12863.7 15029 12860.2 15037.9 12856.4 15046.6 12852.2 15055.1 12847.6 15063.5 12842.7 15071.6 12837.5 15079.5 12831.9 15087.2 12826.1 15094.7 12819.9 15101.8 12813.4 15108.8 12806.6 15115.4 12799.6 15121.7 12792.3 15127.7 12784.7 15133.5 12776.9 15138.9 12768.9 15143.9 12760.6 15148.6 12752.2 15153 12743.6 15157 12734.8 15160.7 12725.8 15164 12716.7 15166.9 12707.5 15169.4 12698.2 15171.6 12688.7 15173.3 12679.2 15174.7 12669.6 15175.7 12660 15176.3 12650.4 15176.5 12640.7 15176.5 12403.7 15176.3 12394 15175.7 12384.4 15174.7 12374.8 15173.3 12365.2 15171.6 12355.7 15169.4 12346.2 15166.9 12336.9 15164 12327.7 15160.7 12318.6 15157 12309.6 15153 12300.8 15148.6 12292.2 15143.9 12283.8 15138.9 12275.5 15133.5 12267.5 15127.7 12259.7 15121.7 12252.1 15115.4 12244.8 15108.8 12237.8 15101.8 12231 15094.7 12224.5 15087.2 12218.3 15079.5 12212.5 15071.6 12206.9 15063.5 12201.7 15055.1 12196.8 15046.6 12192.2 15037.9 12188 15029 12184.2 15020 12180.7 15010.8 12177.6 15001.5 12174.9 14992.2 12172.5 14982.7 12170.6 14973.1 12169 14963.5 12167.8 14953.9 12167 14944.2 12166.6 14934.6 12166.6 14924.9 12167 14915.3 12167.8 14905.7 12169 14896.1 12170.6 14886.6 12172.5 14877.3 12174.9 14868 12177.6 14858.8 12180.7 14849.8 12184.2 14840.9 12188 14832.2 12192.2 14823.7 12196.8 14815.3 12201.7 14807.2 12206.9 14799.3 12212.5 14791.6 12218.3 14784.1 12224.5 14777 12231 14770 12237.8 14763.4 12244.8 14757.1 12252.1 14751.1 12259.7 14745.3 12267.5 14739.9 12275.5 14734.9 12283.8 14730.2 12292.2 14725.8 12300.8 14721.8 12309.6 14718.1 12318.6 14714.8 12327.7 14711.9 12336.9 14709.4 12346.2 14707.2 12355.7 14705.5 12365.2 14704.1 12374.8 14703.1 12384.4 14702.5 12394 14702.3 12403.7 M 15741 12166.6 15741 12877.8 16096.6 12877.8 16096.6 12759.3 M 17098.4 12522.2 17809.6 12522.2 M 17809.6 12877.8 17098.4 12877.8 M 17276.2 13233.4 17276.2 12166.6 M 17631.8 12166.6 17631.8 13233.4 M 18664.8 13233.4 18675 13233.2 18685.2 13232.6 18695.4 13231.6 18705.5 13230.3 18715.6 13228.5 18725.6 13226.4 18735.5 13223.9 18745.3 13221 18754.9 13217.7 18764.5 13214.1 18773.9 13210.1 18783.1 13205.7 18792.2 13201 18801.1 13195.9 18809.8 13190.6 18818.2 13184.8 18826.5 13178.8 18834.5 13172.5 18842.2 13165.8 18849.7 13158.9 18857 13151.6 18863.9 13144.1 18870.6 13136.4 18876.9 13128.4 18882.9 13120.1 18888.7 13111.7 18894 13103 18899.1 13094.1 18903.8 13085 18908.2 13075.8 18912.2 13066.4 18915.8 13056.8 18919.1 13047.2 18922 13037.4 18924.5 13027.5 18926.6 13017.5 18928.4 13007.4 18929.7 12997.3 18930.7 12987.1 18931.3 12976.9 18931.5 12966.7 M 18664.8 13233.4 18653.2 13233.2 18641.5 13232.6 18629.9 13231.6 18618.4 13230.2 18606.9 13228.5 18595.4 13226.3 18584.1 13223.7 18572.8 13220.8 18561.6 13217.5 18550.6 13213.8 18539.7 13209.7 18528.9 13205.3 18518.3 13200.5 18507.9 13195.3 18497.6 13189.8 18487.5 13184 18477.7 13177.8 18468 13171.3 18458.6 13164.4 18449.4 13157.2 18440.5 13149.8 18431.8 13142 18423.4 13133.9 18415.3 13125.6 18407.5 13117 18399.9 13108.1 18392.7 13099 18385.8 13089.6 18379.2 13080 18372.9 13070.2 18367 13060.2 18361.4 13050 18356.2 13039.6 18351.3 13029 18346.8 13018.3 18342.6 13007.4 18338.9 12996.4 M 18842.6 12759.2 18850.1 12766.6 18857.3 12774.3 18864.2 12782.3 18870.9 12790.5 18877.2 12798.9 18883.2 12807.6 18888.9 12816.4 18894.3 12825.5 18899.3 12834.8 18904 12844.2 18908.3 12853.8 18912.3 12863.6 18915.9 12873.5 18919.2 12883.5 18922 12893.7 18924.5 12903.9 18926.7 12914.3 18928.4 12924.7 18929.8 12935.1 18930.7 12945.6 18931.3 12956.2 18931.5 12966.7 M 18842.6 12759.3 18338.8 12166.6 18931.5 12166.6 M 2387.6 12166.6 2387.6 13233.4 2683.9 13233.4 2694.5 13233.2 2705 13232.6 2715.6 13231.7 2726.1 13230.4 2736.5 13228.7 2746.9 13226.6 2757.2 13224.2 2767.4 13221.4 2777.5 13218.2 2787.4 13214.7 2797.3 13210.8 2807 13206.6 2816.5 13202.1 2825.9 13197.2 2835.1 13191.9 2844.1 13186.4 2852.9 13180.5 2861.5 13174.3 2869.8 13167.8 2877.9 13161 2885.8 13154 2893.4 13146.6 2900.8 13139 2907.8 13131.1 2914.6 13123 2921.1 13114.7 2927.3 13106.1 2933.2 13097.3 2938.7 13088.3 2944 13079.1 2948.9 13069.7 2953.4 13060.2 2957.6 13050.5 2961.5 13040.6 2965 13030.7 2968.2 13020.6 2971 13010.4 2973.4 13000.1 2975.5 12989.7 2977.2 12979.3 2978.5 12968.8 2979.4 12958.2 2980 12947.7 2980.2 12937.1 M 2980.3 12937.1 2980.3 12462.9 M 2980.2 12462.9 2980 12452.3 2979.4 12441.8 2978.5 12431.2 2977.2 12420.7 2975.5 12410.3 2973.4 12399.9 2971 12389.6 2968.2 12379.4 2965 12369.3 2961.5 12359.4 2957.6 12349.5 2953.4 12339.8 2948.9 12330.3 2944 12320.9 2938.7 12311.7 2933.2 12302.7 2927.3 12293.9 2921.1 12285.3 2914.6 12277 2907.8 12268.9 2900.8 12261 2893.4 12253.4 2885.8 12246 2877.9 12239 2869.8 12232.2 2861.5 12225.7 2852.9 12219.5 2844.1 12213.6 2835.1 12208.1 2825.9 12202.8 2816.5 12197.9 2807 12193.4 2797.3 12189.2 2787.4 12185.3 2777.5 12181.8 2767.4 12178.6 2757.2 12175.8 2746.9 12173.4 2736.5 12171.3 2726.1 12169.6 2715.6 12168.3 2705 12167.4 2694.5 12166.8 2683.9 12166.6 2387.6 12166.6 M 3551.8 12403.7 3551.8 12640.7 M 3551.7 12640.7 3551.9 12650.4 3552.5 12660 3553.5 12669.6 3554.9 12679.2 3556.6 12688.7 3558.8 12698.2 3561.3 12707.5 3564.2 12716.7 3567.5 12725.8 3571.2 12734.8 3575.2 12743.6 3579.6 12752.2 3584.3 12760.6 3589.3 12768.9 3594.7 12776.9 3600.5 12784.7 3606.5 12792.3 3612.8 12799.6 3619.4 12806.6 3626.4 12813.4 3633.5 12819.9 3641 12826.1 3648.7 12831.9 3656.6 12837.5 3664.7 12842.7 3673.1 12847.6 3681.6 12852.2 3690.3 12856.4 3699.2 12860.2 3708.2 12863.7 3717.4 12866.8 3726.7 12869.5 3736 12871.9 3745.5 12873.8 3755.1 12875.4 3764.7 12876.6 3774.3 12877.4 3784 12877.8 3793.6 12877.8 3803.3 12877.4 3812.9 12876.6 3822.5 12875.4 3832.1 12873.8 3841.6 12871.9 3850.9 12869.5 3860.2 12866.8 3869.4 12863.7 3878.4 12860.2 3887.3 12856.4 3896 12852.2 3904.5 12847.6 3912.9 12842.7 3921 12837.5 3928.9 12831.9 3936.6 12826.1 3944.1 12819.9 3951.2 12813.4 3958.2 12806.6 3964.8 12799.6 3971.1 12792.3 3977.1 12784.7 3982.9 12776.9 3988.3 12768.9 3993.3 12760.6 3998 12752.2 4002.4 12743.6 4006.4 12734.8 4010.1 12725.8 4013.4 12716.7 4016.3 12707.5 4018.8 12698.2 4021 12688.7 4022.7 12679.2 4024.1 12669.6 4025.1 12660 4025.7 12650.4 4025.9 12640.7 4025.9 12403.7 4025.7 12394 4025.1 12384.4 4024.1 12374.8 4022.7 12365.2 4021 12355.7 4018.8 12346.2 4016.3 12336.9 4013.4 12327.7 4010.1 12318.6 4006.4 12309.6 4002.4 12300.8 3998 12292.2 3993.3 12283.8 3988.3 12275.5 3982.9 12267.5 3977.1 12259.7 3971.1 12252.1 3964.8 12244.8 3958.2 12237.8 3951.2 12231 3944.1 12224.5 3936.6 12218.3 3928.9 12212.5 3921 12206.9 3912.9 12201.7 3904.5 12196.8 3896 12192.2 3887.3 12188 3878.4 12184.2 3869.4 12180.7 3860.2 12177.6 3850.9 12174.9 3841.6 12172.5 3832.1 12170.6 3822.5 12169 3812.9 12167.8 3803.3 12167 3793.6 12166.6 3784 12166.6 3774.3 12167 3764.7 12167.8 3755.1 12169 3745.5 12170.6 3736 12172.5 3726.7 12174.9 3717.4 12177.6 3708.2 12180.7 3699.2 12184.2 3690.3 12188 3681.6 12192.2 3673.1 12196.8 3664.7 12201.7 3656.6 12206.9 3648.7 12212.5 3641 12218.3 3633.5 12224.5 3626.4 12231 3619.4 12237.8 3612.8 12244.8 3606.5 12252.1 3600.5 12259.7 3594.7 12267.5 3589.3 12275.5 3584.3 12283.8 3579.6 12292.2 3575.2 12300.8 3571.2 12309.6 3567.5 12318.6 3564.2 12327.7 3561.3 12336.9 3558.8 12346.2 3556.6 12355.7 3554.9 12365.2 3553.5 12374.8 3552.5 12384.4 3551.9 12394 3551.7 12403.7 M 4542.4 12403.7 4542.4 12640.7 M 4542.3 12640.7 4542.5 12650.4 4543.1 12660 4544.1 12669.6 4545.5 12679.2 4547.2 12688.7 4549.4 12698.2 4551.9 12707.5 4554.8 12716.7 4558.1 12725.8 4561.8 12734.8 4565.8 12743.6 4570.2 12752.2 4574.9 12760.6 4579.9 12768.9 4585.3 12776.9 4591.1 12784.7 4597.1 12792.3 4603.4 12799.6 4610 12806.6 4617 12813.4 4624.1 12819.9 4631.6 12826.1 4639.3 12831.9 4647.2 12837.5 4655.3 12842.7 4663.7 12847.6 4672.2 12852.2 4680.9 12856.4 4689.8 12860.2 4698.8 12863.7 4708 12866.8 4717.3 12869.5 4726.6 12871.9 4736.1 12873.8 4745.7 12875.4 4755.3 12876.6 4764.9 12877.4 4774.6 12877.8 4784.2 12877.8 4793.9 12877.4 4803.5 12876.6 4813.1 12875.4 4822.7 12873.8 4832.2 12871.9 4841.5 12869.5 4850.8 12866.8 4860 12863.7 4869 12860.2 4877.9 12856.4 4886.6 12852.2 4895.1 12847.6 4903.5 12842.7 4911.6 12837.5 4919.5 12831.9 4927.2 12826.1 4934.7 12819.9 4941.8 12813.4 4948.8 12806.6 4955.4 12799.6 4961.7 12792.3 4967.7 12784.7 4973.5 12776.9 4978.9 12768.9 4983.9 12760.6 4988.6 12752.2 4993 12743.6 4997 12734.8 5000.7 12725.8 5004 12716.7 5006.9 12707.5 5009.4 12698.2 5011.6 12688.7 5013.3 12679.2 5014.7 12669.6 5015.7 12660 5016.3 12650.4 5016.5 12640.7 5016.5 12403.7 5016.3 12394 5015.7 12384.4 5014.7 12374.8 5013.3 12365.2 5011.6 12355.7 5009.4 12346.2 5006.9 12336.9 5004 12327.7 5000.7 12318.6 4997 12309.6 4993 12300.8 4988.6 12292.2 4983.9 12283.8 4978.9 12275.5 4973.5 12267.5 4967.7 12259.7 4961.7 12252.1 4955.4 12244.8 4948.8 12237.8 4941.8 12231 4934.7 12224.5 4927.2 12218.3 4919.5 12212.5 4911.6 12206.9 4903.5 12201.7 4895.1 12196.8 4886.6 12192.2 4877.9 12188 4869 12184.2 4860 12180.7 4850.8 12177.6 4841.5 12174.9 4832.2 12172.5 4822.7 12170.6 4813.1 12169 4803.5 12167.8 4793.9 12167 4784.2 12166.6 4774.6 12166.6 4764.9 12167 4755.3 12167.8 4745.7 12169 4736.1 12170.6 4726.6 12172.5 4717.3 12174.9 4708 12177.6 4698.8 12180.7 4689.8 12184.2 4680.9 12188 4672.2 12192.2 4663.7 12196.8 4655.3 12201.7 4647.2 12206.9 4639.3 12212.5 4631.6 12218.3 4624.1 12224.5 4617 12231 4610 12237.8 4603.4 12244.8 4597.1 12252.1 4591.1 12259.7 4585.3 12267.5 4579.9 12275.5 4574.9 12283.8 4570.2 12292.2 4565.8 12300.8 4561.8 12309.6 4558.1 12318.6 4554.8 12327.7 4551.9 12336.9 4549.4 12346.2 4547.2 12355.7 4545.5 12365.2 4544.1 12374.8 4543.1 12384.4 4542.5 12394 4542.3 12403.7 M 5581 12166.6 5581 12877.8 5936.6 12877.8 5936.6 12759.3 M 6938.4 12522.2 7649.6 12522.2 M 7649.6 12877.8 6938.4 12877.8 M 7116.2 13233.4 7116.2 12166.6 M 7471.8 12166.6 7471.8 13233.4 M 8178.8 12996.3 8475.1 13233.4 8475.1 12166.6 M 8178.8 12166.6 8771.5 12166.6" fill="none" stroke-width="203.2"/><path d="M 5000 11350 2600 9000 M 12760 9000 15160 11350 M 26730 9000 29130 11350 M 4500 29000 1500 29000 M 3000 30500 3000 27500 M 60500 29000 63500 29000 M 62000 30500 62000 27500 M 60500 3000 63500 3000 M 62000 4500 62000 1500 M 4500 3000 1500 3000 M 3000 4500 3000 1500" fill="none" stroke-width="152.4"/><path d="M 35950 37874 52950 37874 M 35950 13874 35950 12874 38450 12874 M 50450 12874 52950 12874 52950 13874 M 35950 29874 35950 37874 M 52950 37874 52950 29874" fill="none" stroke-width="200"/><path d="M 54071.1 30225.8 54071.1 30996.3 M 54071.1 30225.8 54071.3 30215.1 54071.9 30204.4 54072.8 30193.8 54074.2 30183.2 54075.9 30172.6 54078 30162.1 54080.5 30151.7 54083.4 30141.4 54086.6 30131.2 54090.2 30121.1 54094.2 30111.2 54098.5 30101.4 54103.2 30091.8 54108.2 30082.3 54113.5 30073 54119.2 30064 54125.2 30055.1 54131.5 30046.5 54138.1 30038.1 54145.1 30029.9 54152.3 30022 54159.8 30014.4 54167.6 30007 54175.6 30000 54183.9 29993.2 54192.4 29986.7 54201.1 29980.6 54210.1 29974.7 54219.3 29969.2 54228.6 29964 54238.2 29959.2 54247.9 29954.7 54257.7 29950.5 54267.7 29946.8 54277.9 29943.3 54288.1 29940.3 54298.5 29937.6 54308.9 29935.3 54319.5 29933.4 54330.1 29931.9 54340.7 29930.7 54351.4 29929.9 54362.1 29929.5 54372.7 29929.5 54383.4 29929.9 54394.1 29930.7 54404.7 29931.9 54415.3 29933.4 54425.9 29935.3 54436.3 29937.6 54446.7 29940.3 54456.9 29943.3 54467.1 29946.8 54477.1 29950.5 54486.9 29954.7 54496.6 29959.2 54506.2 29964 54515.6 29969.2 54524.7 29974.7 54533.7 29980.6 54542.4 29986.7 54550.9 29993.2 54559.2 30000 54567.2 30007 54575 30014.4 54582.5 30022 54589.7 30029.9 54596.7 30038.1 54603.3 30046.5 54609.6 30055.1 54615.6 30064 54621.3 30073 54626.6 30082.3 54631.6 30091.8 54636.3 30101.4 54640.6 30111.2 54644.6 30121.1 54648.2 30131.2 54651.4 30141.4 54654.3 30151.7 54656.8 30162.1 54658.9 30172.6 54660.6 30183.2 54662 30193.8 54662.9 30204.4 54663.5 30215.1 54663.7 30225.8 54663.7 30996.3 M 55252.2 30759.2 55548.5 30996.3 55548.5 29929.5 M 55252.2 29929.5 55844.8 29929.5" fill="none" stroke-width="203.2"/><path d="M 13160 25960 7160 25960 M 13160 25960 13160 19760 7160 19760 7160 25960" fill="none" stroke-width="127"/><path d="M 8382 22860 8382.5 22903.6 8384.1 22947.2 8386.8 22990.8 8390.6 23034.3 8395.4 23077.6 8401.2 23120.9 8408.2 23164 8416.2 23206.9 8425.2 23249.6 8435.3 23292 8446.4 23334.2 8458.6 23376.1 8471.7 23417.7 8485.9 23459 8501.1 23499.9 8517.3 23540.4 8534.5 23580.5 8552.7 23620.2 8571.8 23659.4 8591.9 23698.1 8613 23736.4 8635 23774.1 8657.9 23811.2 8681.6 23847.8 8706.3 23883.8 8731.9 23919.2 8758.3 23953.9 8785.6 23988 8813.7 24021.3 8842.6 24054 8872.3 24086 8902.8 24117.2 8934 24147.7 8966 24177.4 8998.7 24206.3 9032 24234.4 9066.1 24261.7 9100.8 24288.1 9136.2 24313.7 9172.2 24338.4 9208.8 24362.1 9245.9 24385 9283.6 24407 9321.9 24428.1 9360.6 24448.2 9399.8 24467.3 9439.5 24485.5 9479.6 24502.7 9520.1 24518.9 9561 24534.1 9602.3 24548.3 9643.9 24561.4 9685.8 24573.6 9728 24584.7 9770.4 24594.8 9813.1 24603.8 9856 24611.8 9899.1 24618.8 9942.4 24624.6 9985.7 24629.4 10029.2 24633.2 10072.8 24635.9 10116.4 24637.5 10160 24638 10203.6 24637.5 10247.2 24635.9 10290.8 24633.2 10334.3 24629.4 10377.6 24624.6 10420.9 24618.8 10464 24611.8 10506.9 24603.8 10549.6 24594.8 10592 24584.7 10634.2 24573.6 10676.1 24561.4 10717.7 24548.3 10759 24534.1 10799.9 24518.9 10840.4 24502.7 10880.5 24485.5 10920.2 24467.3 10959.4 24448.2 10998.1 24428.1 11036.4 24407 11074.1 24385 11111.2 24362.1 11147.8 24338.4 11183.8 24313.7 11219.2 24288.1 11253.9 24261.7 11288 24234.4 11321.3 24206.3 11354 24177.4 11386 24147.7 11417.2 24117.2 11447.7 24086 11477.4 24054 11506.3 24021.3 11534.4 23988 11561.7 23953.9 11588.1 23919.2 11613.7 23883.8 11638.4 23847.8 11662.1 23811.2 11685 23774.1 11707 23736.4 11728.1 23698.1 11748.2 23659.4 11767.3 23620.2 11785.5 23580.5 11802.7 23540.4 11818.9 23499.9 11834.1 23459 11848.3 23417.7 11861.4 23376.1 11873.6 23334.2 11884.7 23292 11894.8 23249.6 11903.8 23206.9 11911.8 23164 11918.8 23120.9 11924.6 23077.6 11929.4 23034.3 11933.2 22990.8 11935.9 22947.2 11937.5 22903.6 11938 22860 11937.5 22816.4 11935.9 22772.8 11933.2 22729.2 11929.4 22685.7 11924.6 22642.4 11918.8 22599.1 11911.8 22556 11903.8 22513.1 11894.8 22470.4 11884.7 22428 11873.6 22385.8 11861.4 22343.9 11848.3 22302.3 11834.1 22261 11818.9 22220.1 11802.7 22179.6 11785.5 22139.5 11767.3 22099.8 11748.2 22060.6 11728.1 22021.9 11707 21983.6 11685 21945.9 11662.1 21908.8 11638.4 21872.2 11613.7 21836.2 11588.1 21800.8 11561.7 21766.1 11534.4 21732 11506.3 21698.7 11477.4 21666 11447.7 21634 11417.2 21602.8 11386 21572.3 11354 21542.6 11321.3 21513.7 11288 21485.6 11253.9 21458.3 11219.2 21431.9 11183.8 21406.3 11147.8 21381.6 11111.2 21357.9 11074.1 21335 11036.4 21313 10998.1 21291.9 10959.4 21271.8 10920.2 21252.7 10880.5 21234.5 10840.4 21217.3 10799.9 21201.1 10759 21185.9 10717.7 21171.7 10676.1 21158.6 10634.2 21146.4 10592 21135.3 10549.6 21125.2 10506.9 21116.2 10464 21108.2 10420.9 21101.2 10377.6 21095.4 10334.3 21090.6 10290.8 21086.8 10247.2 21084.1 10203.6 21082.5 10160 21082 10116.4 21082.5 10072.8 21084.1 10029.2 21086.8 9985.7 21090.6 9942.4 21095.4 9899.1 21101.2 9856 21108.2 9813.1 21116.2 9770.4 21125.2 9728 21135.3 9685.8 21146.4 9643.9 21158.6 9602.3 21171.7 9561 21185.9 9520.1 21201.1 9479.6 21217.3 9439.5 21234.5 9399.8 21252.7 9360.6 21271.8 9321.9 21291.9 9283.6 21313 9245.9 21335 9208.8 21357.9 9172.2 21381.6 9136.2 21406.3 9100.8 21431.9 9066.1 21458.3 9032 21485.6 8998.7 21513.7 8966 21542.6 8934 21572.3 8902.8 21602.8 8872.3 21634 8842.6 21666 8813.7 21698.7 8785.6 21732 8758.3 21766.1 8731.9 21800.8 8706.3 21836.2 8681.6 21872.2 8657.9 21908.8 8635 21945.9 8613 21983.6 8591.9 22021.9 8571.8 22060.6 8552.7 22099.8 8534.5 22139.5 8517.3 22179.6 8501.1 22220.1 8485.9 22261 8471.7 22302.3 8458.6 22343.9 8446.4 22385.8 8435.3 22428 8425.2 22470.4 8416.2 22513.1 8408.2 22556 8401.2 22599.1 8395.4 22642.4 8390.6 22685.7 8386.8 22729.2 8384.1 22772.8 8382.5 22816.4 8382 22860 M 9906 22860 9906.2 22870 9906.8 22880.1 9907.8 22890 9909.2 22900 9910.9 22909.9 9913.1 22919.7 9915.7 22929.4 9918.6 22939 9921.9 22948.4 9925.6 22957.8 9929.6 22967 9934 22976 9938.8 22984.8 9943.9 22993.5 9949.3 23001.9 9955.1 23010.1 9961.2 23018.1 9967.6 23025.8 9974.3 23033.3 9981.3 23040.5 9988.6 23047.4 9996.1 23054 10003.9 23060.4 10011.9 23066.4 10020.2 23072.1 10028.7 23077.4 10037.4 23082.4 10046.3 23087.1 10055.3 23091.4 10064.5 23095.4 10073.9 23099 10083.4 23102.2 10093 23105 10102.8 23107.5 10112.6 23109.5 10122.5 23111.2 10132.5 23112.5 10142.4 23113.4 10152.5 23113.9 10162.5 23114 10172.5 23113.7 10182.6 23113 10192.5 23111.9 10202.5 23110.4 10212.3 23108.6 10222.1 23106.3 10231.8 23103.6 10241.3 23100.6 10250.8 23097.2 10260.1 23093.4 10269.2 23089.3 10278.2 23084.8 10287 23080 10295.6 23074.8 10304 23069.3 10312.1 23063.4 10320 23057.2 10327.7 23050.8 10335.1 23044 10342.2 23036.9 10349.1 23029.6 10355.6 23022 10361.9 23014.1 10367.8 23006 10373.4 22997.7 10378.7 22989.2 10383.6 22980.4 10388.2 22971.5 10392.4 22962.4 10396.3 22953.1 10399.8 22943.7 10402.9 22934.2 10405.7 22924.5 10408 22914.8 10410 22904.9 10411.6 22895 10412.8 22885.1 10413.6 22875 10414 22865 10414 22855 10413.6 22845 10412.8 22834.9 10411.6 22825 10410 22815.1 10408 22805.2 10405.7 22795.5 10402.9 22785.8 10399.8 22776.3 10396.3 22766.9 10392.4 22757.6 10388.2 22748.5 10383.6 22739.6 10378.7 22730.8 10373.4 22722.3 10367.8 22714 10361.9 22705.9 10355.6 22698 10349.1 22690.4 10342.2 22683.1 10335.1 22676 10327.7 22669.2 10320 22662.8 10312.1 22656.6 10304 22650.7 10295.6 22645.2 10287 22640 10278.2 22635.2 10269.2 22630.7 10260.1 22626.6 10250.8 22622.8 10241.3 22619.4 10231.8 22616.4 10222.1 22613.7 10212.3 22611.4 10202.5 22609.6 10192.5 22608.1 10182.6 22607 10172.5 22606.3 10162.5 22606 10152.5 22606.1 10142.4 22606.6 10132.5 22607.5 10122.5 22608.8 10112.6 22610.5 10102.8 22612.5 10093 22615 10083.4 22617.8 10073.9 22621 10064.5 22624.6 10055.3 22628.6 10046.3 22632.9 10037.4 22637.6 10028.7 22642.6 10020.2 22647.9 10011.9 22653.6 10003.9 22659.6 9996.1 22666 9988.6 22672.6 9981.3 22679.5 9974.3 22686.7 9967.6 22694.2 9961.2 22701.9 9955.1 22709.9 9949.3 22718.1 9943.9 22726.5 9938.8 22735.2 9934 22744 9929.6 22753 9925.6 22762.2 9921.9 22771.6 9918.6 22781 9915.7 22790.6 9913.1 22800.3 9910.9 22810.1 9909.2 22820 9907.8 22830 9906.8 22839.9 9906.2 22850 9906 22860" fill="none" stroke-width="152.4"/><path d="M 10109.2 26644.6 10118.8 26644.8 10128.3 26645.4 10137.8 26646.3 10147.2 26647.7 10156.6 26649.4 10165.9 26651.5 10175.2 26654 10184.3 26656.8 10193.3 26660 10202.1 26663.6 10210.8 26667.5 10219.4 26671.8 10227.8 26676.4 10235.9 26681.3 10243.9 26686.6 10251.6 26692.2 10259.2 26698 10266.4 26704.2 10273.4 26710.7 10280.2 26717.5 10286.7 26724.5 10292.9 26731.7 10298.7 26739.3 10304.3 26747 10309.6 26755 10314.5 26763.2 10319.1 26771.5 10323.4 26780.1 10327.3 26788.8 10330.9 26797.6 10334.1 26806.6 10336.9 26815.7 10339.4 26825 10341.5 26834.3 10343.2 26843.7 10344.6 26853.1 10345.5 26862.6 10346.1 26872.2 10346.3 26881.7 M 10109.2 26644.6 10095.6 26644.8 10081.9 26645.3 10068.3 26646.3 10054.8 26647.6 10041.2 26649.2 10027.8 26651.3 10014.3 26653.7 10001 26656.4 9987.7 26659.6 9974.5 26663 9961.4 26666.9 9948.5 26671.1 9935.6 26675.6 9922.9 26680.5 9910.3 26685.8 9897.9 26691.4 9885.6 26697.3 9873.5 26703.5 9861.5 26710.1 9849.8 26717 9838.2 26724.3 9826.8 26731.8 9815.7 26739.6 9804.7 26747.8 9794 26756.2 9783.6 26764.9 9773.3 26773.9 9763.3 26783.2 9753.6 26792.8 M 9783.2 27474.3 9783.4 27483.8 9784 27493.4 9784.9 27502.9 9786.3 27512.3 9788 27521.7 9790.1 27531 9792.6 27540.3 9795.4 27549.4 9798.6 27558.4 9802.2 27567.2 9806.1 27575.9 9810.4 27584.5 9815 27592.9 9819.9 27601 9825.2 27609 9830.8 27616.7 9836.6 27624.3 9842.8 27631.5 9849.3 27638.5 9856.1 27645.3 9863.1 27651.8 9870.3 27658 9877.9 27663.8 9885.6 27669.4 9893.6 27674.7 9901.8 27679.6 9910.1 27684.2 9918.7 27688.5 9927.4 27692.4 9936.2 27696 9945.2 27699.2 9954.3 27702 9963.6 27704.5 9972.9 27706.6 9982.3 27708.3 9991.7 27709.7 10001.2 27710.6 10010.8 27711.2 10020.3 27711.4 10033.3 27711.2 10046.3 27710.6 10059.3 27709.7 10072.2 27708.4 10085.1 27706.7 10097.9 27704.6 10110.7 27702.1 10123.4 27699.3 10136 27696.1 10148.5 27692.5 10160.9 27688.6 10173.1 27684.3 10185.3 27679.7 10197.3 27674.6 10209.1 27669.3 10220.8 27663.6 10232.3 27657.6 10243.7 27651.2 10254.8 27644.5 10265.8 27637.5 10276.5 27630.1 10287 27622.5 M 9901.8 27266.8 9893.6 27271.9 9885.6 27277.3 9877.8 27282.9 9870.3 27288.9 9863 27295.2 9856 27301.8 9849.3 27308.6 9842.8 27315.7 9836.6 27323.1 9830.7 27330.7 9825.1 27338.5 9819.9 27346.6 9814.9 27354.8 9810.3 27363.3 9806.1 27371.9 9802.1 27380.7 9798.6 27389.6 9795.4 27398.7 9792.5 27407.9 9790.1 27417.2 9788 27426.5 9786.3 27436 9784.9 27445.5 9784 27455.1 9783.4 27464.7 9783.2 27474.3 M 10227.8 27089.2 10235.9 27084.1 10243.9 27078.7 10251.7 27073.1 10259.2 27067.1 10266.5 27060.8 10273.5 27054.2 10280.2 27047.4 10286.7 27040.3 10292.9 27032.9 10298.8 27025.3 10304.4 27017.5 10309.6 27009.4 10314.6 27001.2 10319.2 26992.7 10323.4 26984.1 10327.4 26975.3 10330.9 26966.4 10334.1 26957.3 10337 26948.1 10339.4 26938.8 10341.5 26929.5 10343.2 26920 10344.6 26910.5 10345.5 26900.9 10346.1 26891.3 10346.3 26881.7 M 10227.7 27089.1 9901.8 27266.9 M 10858.5 27474.3 11154.8 27711.4 11154.8 26644.6 M 10858.5 26644.6 11451.2 26644.6" fill="none" stroke-width="203.2"/><path d="M 7580 11390 2580 11390 M 7580 11390 7580 11277.6 M 7580 6390 2580 6390 M 7580 8178.8 7580 9601.2 M 2580 9601.2 2580 8178.8 M 2580 11277.6 2580 11390 M 7580 6513.2 7580 6400.8 M 2576.2 6400.8 2576.2 6513.2 M 3380 8890 3380.5 8931.7 3382 8973.4 3384.6 9015.1 3388.2 9056.6 3392.8 9098.1 3398.4 9139.4 3405 9180.6 3412.7 9221.7 3421.3 9262.5 3430.9 9303.1 3441.6 9343.4 3453.2 9383.5 3465.8 9423.3 3479.4 9462.7 3493.9 9501.8 3509.4 9540.6 3525.8 9578.9 3543.2 9616.8 3561.5 9654.3 3580.7 9691.4 3600.9 9727.9 3621.9 9764 3643.7 9799.5 3666.5 9834.5 3690.1 9868.9 3714.5 9902.7 3739.8 9935.9 3765.9 9968.5 3792.7 10000.4 3820.4 10031.7 3848.8 10062.2 3877.9 10092.1 3907.8 10121.2 3938.3 10149.6 3969.6 10177.3 4001.5 10204.1 4034.1 10230.2 4067.3 10255.5 4101.1 10279.9 4135.5 10303.5 4170.5 10326.3 4206 10348.1 4242.1 10369.1 4278.6 10389.3 4315.7 10408.5 4353.2 10426.8 4391.1 10444.2 4429.4 10460.6 4468.2 10476.1 4507.3 10490.6 4546.7 10504.2 4586.5 10516.8 4626.6 10528.4 4666.9 10539.1 4707.5 10548.7 4748.3 10557.3 4789.4 10565 4830.6 10571.6 4871.9 10577.2 4913.4 10581.8 4954.9 10585.4 4996.6 10588 5038.3 10589.5 5080 10590 5121.7 10589.5 5163.4 10588 5205.1 10585.4 5246.6 10581.8 5288.1 10577.2 5329.4 10571.6 5370.6 10565 5411.7 10557.3 5452.5 10548.7 5493.1 10539.1 5533.4 10528.4 5573.5 10516.8 5613.3 10504.2 5652.7 10490.6 5691.8 10476.1 5730.6 10460.6 5768.9 10444.2 5806.8 10426.8 5844.3 10408.5 5881.4 10389.3 5917.9 10369.1 5954 10348.1 5989.5 10326.3 6024.5 10303.5 6058.9 10279.9 6092.7 10255.5 6125.9 10230.2 6158.5 10204.1 6190.4 10177.3 6221.7 10149.6 6252.2 10121.2 6282.1 10092.1 6311.2 10062.2 6339.6 10031.7 6367.3 10000.4 6394.1 9968.5 6420.2 9935.9 6445.5 9902.7 6469.9 9868.9 6493.5 9834.5 6516.3 9799.5 6538.1 9764 6559.1 9727.9 6579.3 9691.4 6598.5 9654.3 6616.8 9616.8 6634.2 9578.9 6650.6 9540.6 6666.1 9501.8 6680.6 9462.7 6694.2 9423.3 6706.8 9383.5 6718.4 9343.4 6729.1 9303.1 6738.7 9262.5 6747.3 9221.7 6755 9180.6 6761.6 9139.4 6767.2 9098.1 6771.8 9056.6 6775.4 9015.1 6778 8973.4 6779.5 8931.7 6780 8890 6779.5 8848.3 6778 8806.6 6775.4 8764.9 6771.8 8723.4 6767.2 8681.9 6761.6 8640.6 6755 8599.4 6747.3 8558.3 6738.7 8517.5 6729.1 8476.9 6718.4 8436.6 6706.8 8396.5 6694.2 8356.7 6680.6 8317.3 6666.1 8278.2 6650.6 8239.4 6634.2 8201.1 6616.8 8163.2 6598.5 8125.7 6579.3 8088.6 6559.1 8052.1 6538.1 8016 6516.3 7980.5 6493.5 7945.5 6469.9 7911.1 6445.5 7877.3 6420.2 7844.1 6394.1 7811.5 6367.3 7779.6 6339.6 7748.3 6311.2 7717.8 6282.1 7687.9 6252.2 7658.8 6221.7 7630.4 6190.4 7602.7 6158.5 7575.9 6125.9 7549.8 6092.7 7524.5 6058.9 7500.1 6024.5 7476.5 5989.5 7453.7 5954 7431.9 5917.9 7410.9 5881.4 7390.7 5844.3 7371.5 5806.8 7353.2 5768.9 7335.8 5730.6 7319.4 5691.8 7303.9 5652.7 7289.4 5613.3 7275.8 5573.5 7263.2 5533.4 7251.6 5493.1 7240.9 5452.5 7231.3 5411.7 7222.7 5370.6 7215 5329.4 7208.4 5288.1 7202.8 5246.6 7198.2 5205.1 7194.6 5163.4 7192 5121.7 7190.5 5080 7190 5038.3 7190.5 4996.6 7192 4954.9 7194.6 4913.4 7198.2 4871.9 7202.8 4830.6 7208.4 4789.4 7215 4748.3 7222.7 4707.5 7231.3 4666.9 7240.9 4626.6 7251.6 4586.5 7263.2 4546.7 7275.8 4507.3 7289.4 4468.2 7303.9 4429.4 7319.4 4391.1 7335.8 4353.2 7353.2 4315.7 7371.5 4278.6 7390.7 4242.1 7410.9 4206 7431.9 4170.5 7453.7 4135.5 7476.5 4101.1 7500.1 4067.3 7524.5 4034.1 7549.8 4001.5 7575.9 3969.6 7602.7 3938.3 7630.4 3907.8 7658.8 3877.9 7687.9 3848.8 7717.8 3820.4 7748.3 3792.7 7779.6 3765.9 7811.5 3739.8 7844.1 3714.5 7877.3 3690.1 7911.1 3666.5 7945.5 3643.7 7980.5 3621.9 8016 3600.9 8052.1 3580.7 8088.6 3561.5 8125.7 3543.2 8163.2 3525.8 8201.1 3509.4 8239.4 3493.9 8278.2 3479.4 8317.3 3465.8 8356.7 3453.2 8396.5 3441.6 8436.6 3430.9 8476.9 3421.3 8517.5 3412.7 8558.3 3405 8599.4 3398.4 8640.6 3392.8 8681.9 3388.2 8723.4 3384.6 8764.9 3382 8806.6 3380.5 8848.3 3380 8890" fill="none" stroke-width="120"/><use xlink:href="#DqYYi4CXQrArWHvPTpmv_pad-15" x="8800.6" y="7240"/><path d="M 4453.1 5703.4 4453.1 4636.6 M 4453.1 5703.4 4749.5 5703.4 4760.1 5703.2 4770.6 5702.6 4781.2 5701.7 4791.7 5700.4 4802.1 5698.7 4812.5 5696.6 4822.8 5694.2 4833 5691.4 4843.1 5688.2 4853 5684.7 4862.9 5680.8 4872.6 5676.6 4882.1 5672.1 4891.5 5667.2 4900.7 5661.9 4909.7 5656.4 4918.5 5650.5 4927.1 5644.3 4935.4 5637.8 4943.5 5631 4951.4 5624 4959 5616.6 4966.4 5609 4973.4 5601.1 4980.2 5593 4986.7 5584.7 4992.9 5576.1 4998.8 5567.3 5004.3 5558.3 5009.6 5549.1 5014.5 5539.7 5019 5530.2 5023.2 5520.5 5027.1 5510.6 5030.6 5500.7 5033.8 5490.6 5036.6 5480.4 5039 5470.1 5041.1 5459.7 5042.8 5449.3 5044.1 5438.8 5045 5428.2 5045.6 5417.7 5045.8 5407.1 5045.8 4932.9 5045.6 4922.3 5045 4911.8 5044.1 4901.2 5042.8 4890.7 5041.1 4880.3 5039 4869.9 5036.6 4859.6 5033.8 4849.4 5030.6 4839.3 5027.1 4829.4 5023.2 4819.5 5019 4809.8 5014.5 4800.3 5009.6 4790.9 5004.3 4781.7 4998.8 4772.7 4992.9 4763.9 4986.7 4755.3 4980.2 4747 4973.4 4738.9 4966.4 4731 4959 4723.4 4951.4 4716 4943.5 4709 4935.4 4702.2 4927.1 4695.7 4918.5 4689.5 4909.7 4683.6 4900.7 4678.1 4891.5 4672.8 4882.1 4667.9 4872.6 4663.4 4862.9 4659.2 4853 4655.3 4843.1 4651.8 4833 4648.6 4822.8 4645.8 4812.5 4643.4 4802.1 4641.3 4791.7 4639.6 4781.2 4638.3 4770.6 4637.4 4760.1 4636.8 4749.5 4636.6 4453.1 4636.6 M 5634.2 5466.3 5930.5 5703.4 5930.5 4636.6 M 5634.2 4636.6 6226.9 4636.6" fill="none" stroke-width="203.2"/><path d="M 12740 11390 17740 11390 17740 11277.6 M 17740 6390 12740 6390 M 17740 8178.8 17740 9601.2 M 12740 9601.2 12740 8178.8 M 12740 11277.6 12740 11390 M 17740 6513.2 17740 6400.8 M 12736.2 6400.8 12736.2 6513.2 M 13540 8890 13540.5 8931.7 13542 8973.4 13544.6 9015.1 13548.2 9056.6 13552.8 9098.1 13558.4 9139.4 13565 9180.6 13572.7 9221.7 13581.3 9262.5 13590.9 9303.1 13601.6 9343.4 13613.2 9383.5 13625.8 9423.3 13639.4 9462.7 13653.9 9501.8 13669.4 9540.6 13685.8 9578.9 13703.2 9616.8 13721.5 9654.3 13740.7 9691.4 13760.9 9727.9 13781.9 9764 13803.7 9799.5 13826.5 9834.5 13850.1 9868.9 13874.5 9902.7 13899.8 9935.9 13925.9 9968.5 13952.7 10000.4 13980.4 10031.7 14008.8 10062.2 14037.9 10092.1 14067.8 10121.2 14098.3 10149.6 14129.6 10177.3 14161.5 10204.1 14194.1 10230.2 14227.3 10255.5 14261.1 10279.9 14295.5 10303.5 14330.5 10326.3 14366 10348.1 14402.1 10369.1 14438.6 10389.3 14475.7 10408.5 14513.2 10426.8 14551.1 10444.2 14589.4 10460.6 14628.2 10476.1 14667.3 10490.6 14706.7 10504.2 14746.5 10516.8 14786.6 10528.4 14826.9 10539.1 14867.5 10548.7 14908.3 10557.3 14949.4 10565 14990.6 10571.6 15031.9 10577.2 15073.4 10581.8 15114.9 10585.4 15156.6 10588 15198.3 10589.5 15240 10590 15281.7 10589.5 15323.4 10588 15365.1 10585.4 15406.6 10581.8 15448.1 10577.2 15489.4 10571.6 15530.6 10565 15571.7 10557.3 15612.5 10548.7 15653.1 10539.1 15693.4 10528.4 15733.5 10516.8 15773.3 10504.2 15812.7 10490.6 15851.8 10476.1 15890.6 10460.6 15928.9 10444.2 15966.8 10426.8 16004.3 10408.5 16041.4 10389.3 16077.9 10369.1 16114 10348.1 16149.5 10326.3 16184.5 10303.5 16218.9 10279.9 16252.7 10255.5 16285.9 10230.2 16318.5 10204.1 16350.4 10177.3 16381.7 10149.6 16412.2 10121.2 16442.1 10092.1 16471.2 10062.2 16499.6 10031.7 16527.3 10000.4 16554.1 9968.5 16580.2 9935.9 16605.5 9902.7 16629.9 9868.9 16653.5 9834.5 16676.3 9799.5 16698.1 9764 16719.1 9727.9 16739.3 9691.4 16758.5 9654.3 16776.8 9616.8 16794.2 9578.9 16810.6 9540.6 16826.1 9501.8 16840.6 9462.7 16854.2 9423.3 16866.8 9383.5 16878.4 9343.4 16889.1 9303.1 16898.7 9262.5 16907.3 9221.7 16915 9180.6 16921.6 9139.4 16927.2 9098.1 16931.8 9056.6 16935.4 9015.1 16938 8973.4 16939.5 8931.7 16940 8890 16939.5 8848.3 16938 8806.6 16935.4 8764.9 16931.8 8723.4 16927.2 8681.9 16921.6 8640.6 16915 8599.4 16907.3 8558.3 16898.7 8517.5 16889.1 8476.9 16878.4 8436.6 16866.8 8396.5 16854.2 8356.7 16840.6 8317.3 16826.1 8278.2 16810.6 8239.4 16794.2 8201.1 16776.8 8163.2 16758.5 8125.7 16739.3 8088.6 16719.1 8052.1 16698.1 8016 16676.3 7980.5 16653.5 7945.5 16629.9 7911.1 16605.5 7877.3 16580.2 7844.1 16554.1 7811.5 16527.3 7779.6 16499.6 7748.3 16471.2 7717.8 16442.1 7687.9 16412.2 7658.8 16381.7 7630.4 16350.4 7602.7 16318.5 7575.9 16285.9 7549.8 16252.7 7524.5 16218.9 7500.1 16184.5 7476.5 16149.5 7453.7 16114 7431.9 16077.9 7410.9 16041.4 7390.7 16004.3 7371.5 15966.8 7353.2 15928.9 7335.8 15890.6 7319.4 15851.8 7303.9 15812.7 7289.4 15773.3 7275.8 15733.5 7263.2 15693.4 7251.6 15653.1 7240.9 15612.5 7231.3 15571.7 7222.7 15530.6 7215 15489.4 7208.4 15448.1 7202.8 15406.6 7198.2 15365.1 7194.6 15323.4 7192 15281.7 7190.5 15240 7190 15198.3 7190.5 15156.6 7192 15114.9 7194.6 15073.4 7198.2 15031.9 7202.8 14990.6 7208.4 14949.4 7215 14908.3 7222.7 14867.5 7231.3 14826.9 7240.9 14786.6 7251.6 14746.5 7263.2 14706.7 7275.8 14667.3 7289.4 14628.2 7303.9 14589.4 7319.4 14551.1 7335.8 14513.2 7353.2 14475.7 7371.5 14438.6 7390.7 14402.1 7410.9 14366 7431.9 14330.5 7453.7 14295.5 7476.5 14261.1 7500.1 14227.3 7524.5 14194.1 7549.8 14161.5 7575.9 14129.6 7602.7 14098.3 7630.4 14067.8 7658.8 14037.9 7687.9 14008.8 7717.8 13980.4 7748.3 13952.7 7779.6 13925.9 7811.5 13899.8 7844.1 13874.5 7877.3 13850.1 7911.1 13826.5 7945.5 13803.7 7980.5 13781.9 8016 13760.9 8052.1 13740.7 8088.6 13721.5 8125.7 13703.2 8163.2 13685.8 8201.1 13669.4 8239.4 13653.9 8278.2 13639.4 8317.3 13625.8 8356.7 13613.2 8396.5 13601.6 8436.6 13590.9 8476.9 13581.3 8517.5 13572.7 8558.3 13565 8599.4 13558.4 8640.6 13552.8 8681.9 13548.2 8723.4 13544.6 8764.9 13542 8806.6 13540.5 8848.3 13540 8890" fill="none" stroke-width="120"/><use xlink:href="#DqYYi4CXQrArWHvPTpmv_pad-15" x="18960.6" y="7240"/><path d="M 14613.1 5703.4 14613.1 4636.6 M 14613.1 5703.4 14909.5 5703.4 14920.1 5703.2 14930.6 5702.6 14941.2 5701.7 14951.7 5700.4 14962.1 5698.7 14972.5 5696.6 14982.8 5694.2 14993 5691.4 15003.1 5688.2 15013 5684.7 15022.9 5680.8 15032.6 5676.6 15042.1 5672.1 15051.5 5667.2 15060.7 5661.9 15069.7 5656.4 15078.5 5650.5 15087.1 5644.3 15095.4 5637.8 15103.5 5631 15111.4 5624 15119 5616.6 15126.4 5609 15133.4 5601.1 15140.2 5593 15146.7 5584.7 15152.9 5576.1 15158.8 5567.3 15164.3 5558.3 15169.6 5549.1 15174.5 5539.7 15179 5530.2 15183.2 5520.5 15187.1 5510.6 15190.6 5500.7 15193.8 5490.6 15196.6 5480.4 15199 5470.1 15201.1 5459.7 15202.8 5449.3 15204.1 5438.8 15205 5428.2 15205.6 5417.7 15205.8 5407.1 15205.8 4932.9 15205.6 4922.3 15205 4911.8 15204.1 4901.2 15202.8 4890.7 15201.1 4880.3 15199 4869.9 15196.6 4859.6 15193.8 4849.4 15190.6 4839.3 15187.1 4829.4 15183.2 4819.5 15179 4809.8 15174.5 4800.3 15169.6 4790.9 15164.3 4781.7 15158.8 4772.7 15152.9 4763.9 15146.7 4755.3 15140.2 4747 15133.4 4738.9 15126.4 4731 15119 4723.4 15111.4 4716 15103.5 4709 15095.4 4702.2 15087.1 4695.7 15078.5 4689.5 15069.7 4683.6 15060.7 4678.1 15051.5 4672.8 15042.1 4667.9 15032.6 4663.4 15022.9 4659.2 15013 4655.3 15003.1 4651.8 14993 4648.6 14982.8 4645.8 14972.5 4643.4 14962.1 4641.3 14951.7 4639.6 14941.2 4638.3 14930.6 4637.4 14920.1 4636.8 14909.5 4636.6 14613.1 4636.6 M 16120.2 5703.4 16130.4 5703.2 16140.6 5702.6 16150.8 5701.6 16160.9 5700.3 16171 5698.5 16181 5696.4 16190.9 5693.9 16200.7 5691 16210.3 5687.7 16219.9 5684.1 16229.3 5680.1 16238.5 5675.7 16247.6 5671 16256.5 5665.9 16265.2 5660.6 16273.6 5654.8 16281.9 5648.8 16289.9 5642.5 16297.6 5635.8 16305.1 5628.9 16312.4 5621.6 16319.3 5614.1 16326 5606.4 16332.3 5598.4 16338.3 5590.1 16344.1 5581.7 16349.4 5573 16354.5 5564.1 16359.2 5555 16363.6 5545.8 16367.6 5536.4 16371.2 5526.8 16374.5 5517.2 16377.4 5507.4 16379.9 5497.5 16382 5487.5 16383.8 5477.4 16385.1 5467.3 16386.1 5457.1 16386.7 5446.9 16386.9 5436.7 M 16120.2 5703.4 16108.6 5703.2 16096.9 5702.6 16085.3 5701.6 16073.8 5700.2 16062.3 5698.5 16050.8 5696.3 16039.5 5693.7 16028.2 5690.8 16017 5687.5 16006 5683.8 15995.1 5679.7 15984.3 5675.3 15973.7 5670.5 15963.3 5665.3 15953 5659.8 15942.9 5654 15933.1 5647.8 15923.4 5641.3 15914 5634.4 15904.8 5627.2 15895.9 5619.8 15887.2 5612 15878.8 5603.9 15870.7 5595.6 15862.9 5587 15855.3 5578.1 15848.1 5569 15841.2 5559.6 15834.6 5550 15828.3 5540.2 15822.4 5530.2 15816.8 5520 15811.6 5509.6 15806.7 5499 15802.2 5488.3 15798 5477.4 15794.3 5466.4 M 16298 5229.2 16305.5 5236.6 16312.7 5244.3 16319.6 5252.3 16326.3 5260.5 16332.6 5268.9 16338.6 5277.6 16344.3 5286.4 16349.7 5295.5 16354.7 5304.8 16359.4 5314.2 16363.7 5323.8 16367.7 5333.6 16371.3 5343.5 16374.6 5353.5 16377.4 5363.7 16379.9 5373.9 16382.1 5384.3 16383.8 5394.7 16385.2 5405.1 16386.1 5415.6 16386.7 5426.2 16386.9 5436.7 M 16298 5229.3 15794.2 4636.6 16386.9 4636.6" fill="none" stroke-width="203.2"/><path d="M 26710 11390 31710 11390 31710 11277.6 M 31710 6390 26710 6390 M 31710 8178.8 31710 9601.2 M 26710 9601.2 26710 8178.8 M 26710 11277.6 26710 11390 M 31710 6513.2 31710 6400.8 M 26706.2 6400.8 26706.2 6513.2 M 27510 8890 27510.5 8931.7 27512 8973.4 27514.6 9015.1 27518.2 9056.6 27522.8 9098.1 27528.4 9139.4 27535 9180.6 27542.7 9221.7 27551.3 9262.5 27560.9 9303.1 27571.6 9343.4 27583.2 9383.5 27595.8 9423.3 27609.4 9462.7 27623.9 9501.8 27639.4 9540.6 27655.8 9578.9 27673.2 9616.8 27691.5 9654.3 27710.7 9691.4 27730.9 9727.9 27751.9 9764 27773.7 9799.5 27796.5 9834.5 27820.1 9868.9 27844.5 9902.7 27869.8 9935.9 27895.9 9968.5 27922.7 10000.4 27950.4 10031.7 27978.8 10062.2 28007.9 10092.1 28037.8 10121.2 28068.3 10149.6 28099.6 10177.3 28131.5 10204.1 28164.1 10230.2 28197.3 10255.5 28231.1 10279.9 28265.5 10303.5 28300.5 10326.3 28336 10348.1 28372.1 10369.1 28408.6 10389.3 28445.7 10408.5 28483.2 10426.8 28521.1 10444.2 28559.4 10460.6 28598.2 10476.1 28637.3 10490.6 28676.7 10504.2 28716.5 10516.8 28756.6 10528.4 28796.9 10539.1 28837.5 10548.7 28878.3 10557.3 28919.4 10565 28960.6 10571.6 29001.9 10577.2 29043.4 10581.8 29084.9 10585.4 29126.6 10588 29168.3 10589.5 29210 10590 29251.7 10589.5 29293.4 10588 29335.1 10585.4 29376.6 10581.8 29418.1 10577.2 29459.4 10571.6 29500.6 10565 29541.7 10557.3 29582.5 10548.7 29623.1 10539.1 29663.4 10528.4 29703.5 10516.8 29743.3 10504.2 29782.7 10490.6 29821.8 10476.1 29860.6 10460.6 29898.9 10444.2 29936.8 10426.8 29974.3 10408.5 30011.4 10389.3 30047.9 10369.1 30084 10348.1 30119.5 10326.3 30154.5 10303.5 30188.9 10279.9 30222.7 10255.5 30255.9 10230.2 30288.5 10204.1 30320.4 10177.3 30351.7 10149.6 30382.2 10121.2 30412.1 10092.1 30441.2 10062.2 30469.6 10031.7 30497.3 10000.4 30524.1 9968.5 30550.2 9935.9 30575.5 9902.7 30599.9 9868.9 30623.5 9834.5 30646.3 9799.5 30668.1 9764 30689.1 9727.9 30709.3 9691.4 30728.5 9654.3 30746.8 9616.8 30764.2 9578.9 30780.6 9540.6 30796.1 9501.8 30810.6 9462.7 30824.2 9423.3 30836.8 9383.5 30848.4 9343.4 30859.1 9303.1 30868.7 9262.5 30877.3 9221.7 30885 9180.6 30891.6 9139.4 30897.2 9098.1 30901.8 9056.6 30905.4 9015.1 30908 8973.4 30909.5 8931.7 30910 8890 30909.5 8848.3 30908 8806.6 30905.4 8764.9 30901.8 8723.4 30897.2 8681.9 30891.6 8640.6 30885 8599.4 30877.3 8558.3 30868.7 8517.5 30859.1 8476.9 30848.4 8436.6 30836.8 8396.5 30824.2 8356.7 30810.6 8317.3 30796.1 8278.2 30780.6 8239.4 30764.2 8201.1 30746.8 8163.2 30728.5 8125.7 30709.3 8088.6 30689.1 8052.1 30668.1 8016 30646.3 7980.5 30623.5 7945.5 30599.9 7911.1 30575.5 7877.3 30550.2 7844.1 30524.1 7811.5 30497.3 7779.6 30469.6 7748.3 30441.2 7717.8 30412.1 7687.9 30382.2 7658.8 30351.7 7630.4 30320.4 7602.7 30288.5 7575.9 30255.9 7549.8 30222.7 7524.5 30188.9 7500.1 30154.5 7476.5 30119.5 7453.7 30084 7431.9 30047.9 7410.9 30011.4 7390.7 29974.3 7371.5 29936.8 7353.2 29898.9 7335.8 29860.6 7319.4 29821.8 7303.9 29782.7 7289.4 29743.3 7275.8 29703.5 7263.2 29663.4 7251.6 29623.1 7240.9 29582.5 7231.3 29541.7 7222.7 29500.6 7215 29459.4 7208.4 29418.1 7202.8 29376.6 7198.2 29335.1 7194.6 29293.4 7192 29251.7 7190.5 29210 7190 29168.3 7190.5 29126.6 7192 29084.9 7194.6 29043.4 7198.2 29001.9 7202.8 28960.6 7208.4 28919.4 7215 28878.3 7222.7 28837.5 7231.3 28796.9 7240.9 28756.6 7251.6 28716.5 7263.2 28676.7 7275.8 28637.3 7289.4 28598.2 7303.9 28559.4 7319.4 28521.1 7335.8 28483.2 7353.2 28445.7 7371.5 28408.6 7390.7 28372.1 7410.9 28336 7431.9 28300.5 7453.7 28265.5 7476.5 28231.1 7500.1 28197.3 7524.5 28164.1 7549.8 28131.5 7575.9 28099.6 7602.7 28068.3 7630.4 28037.8 7658.8 28007.9 7687.9 27978.8 7717.8 27950.4 7748.3 27922.7 7779.6 27895.9 7811.5 27869.8 7844.1 27844.5 7877.3 27820.1 7911.1 27796.5 7945.5 27773.7 7980.5 27751.9 8016 27730.9 8052.1 27710.7 8088.6 27691.5 8125.7 27673.2 8163.2 27655.8 8201.1 27639.4 8239.4 27623.9 8278.2 27609.4 8317.3 27595.8 8356.7 27583.2 8396.5 27571.6 8436.6 27560.9 8476.9 27551.3 8517.5 27542.7 8558.3 27535 8599.4 27528.4 8640.6 27522.8 8681.9 27518.2 8723.4 27514.6 8764.9 27512 8806.6 27510.5 8848.3 27510 8890" fill="none" stroke-width="120"/><use xlink:href="#DqYYi4CXQrArWHvPTpmv_pad-15" x="32930.6" y="7240"/><path d="M 28583.1 5703.4 28583.1 4636.6 M 28583.1 5703.4 28879.5 5703.4 28890.1 5703.2 28900.6 5702.6 28911.2 5701.7 28921.7 5700.4 28932.1 5698.7 28942.5 5696.6 28952.8 5694.2 28963 5691.4 28973.1 5688.2 28983 5684.7 28992.9 5680.8 29002.6 5676.6 29012.1 5672.1 29021.5 5667.2 29030.7 5661.9 29039.7 5656.4 29048.5 5650.5 29057.1 5644.3 29065.4 5637.8 29073.5 5631 29081.4 5624 29089 5616.6 29096.4 5609 29103.4 5601.1 29110.2 5593 29116.7 5584.7 29122.9 5576.1 29128.8 5567.3 29134.3 5558.3 29139.6 5549.1 29144.5 5539.7 29149 5530.2 29153.2 5520.5 29157.1 5510.6 29160.6 5500.7 29163.8 5490.6 29166.6 5480.4 29169 5470.1 29171.1 5459.7 29172.8 5449.3 29174.1 5438.8 29175 5428.2 29175.6 5417.7 29175.8 5407.1 29175.8 4932.9 29175.6 4922.3 29175 4911.8 29174.1 4901.2 29172.8 4890.7 29171.1 4880.3 29169 4869.9 29166.6 4859.6 29163.8 4849.4 29160.6 4839.3 29157.1 4829.4 29153.2 4819.5 29149 4809.8 29144.5 4800.3 29139.6 4790.9 29134.3 4781.7 29128.8 4772.7 29122.9 4763.9 29116.7 4755.3 29110.2 4747 29103.4 4738.9 29096.4 4731 29089 4723.4 29081.4 4716 29073.5 4709 29065.4 4702.2 29057.1 4695.7 29048.5 4689.5 29039.7 4683.6 29030.7 4678.1 29021.5 4672.8 29012.1 4667.9 29002.6 4663.4 28992.9 4659.2 28983 4655.3 28973.1 4651.8 28963 4648.6 28952.8 4645.8 28942.5 4643.4 28932.1 4641.3 28921.7 4639.6 28911.2 4638.3 28900.6 4637.4 28890.1 4636.8 28879.5 4636.6 28583.1 4636.6 M 29764.2 4636.6 30060.5 4636.6 30071.2 4636.8 30081.9 4637.4 30092.5 4638.3 30103.1 4639.7 30113.7 4641.4 30124.2 4643.5 30134.6 4646 30144.9 4648.9 30155.1 4652.1 30165.2 4655.7 30175.1 4659.7 30184.9 4664 30194.5 4668.7 30204 4673.7 30213.3 4679 30222.3 4684.7 30231.2 4690.7 30239.8 4697 30248.2 4703.6 30256.4 4710.6 30264.3 4717.8 30271.9 4725.3 30279.3 4733.1 30286.3 4741.1 30293.1 4749.4 30299.6 4757.9 30305.7 4766.6 30311.6 4775.6 30317.1 4784.7 30322.3 4794.1 30327.1 4803.7 30331.6 4813.4 30335.8 4823.2 30339.5 4833.2 30343 4843.4 30346 4853.6 30348.7 4864 30351 4874.4 30352.9 4885 30354.4 4895.6 30355.6 4906.2 30356.4 4916.9 30356.8 4927.6 30356.8 4938.2 30356.4 4948.9 30355.6 4959.6 30354.4 4970.2 30352.9 4980.8 30351 4991.4 30348.7 5001.8 30346 5012.2 30343 5022.4 30339.5 5032.6 30335.8 5042.6 30331.6 5052.4 30327.1 5062.1 30322.3 5071.7 30317.1 5081 30311.6 5090.2 30305.7 5099.2 30299.6 5107.9 30293.1 5116.4 30286.3 5124.7 30279.3 5132.7 30271.9 5140.5 30264.3 5148 30256.4 5155.2 30248.2 5162.2 30239.8 5168.8 30231.2 5175.1 30222.3 5181.1 30213.3 5186.8 30204 5192.1 30194.5 5197.1 30184.9 5201.8 30175.1 5206.1 30165.2 5210.1 30155.1 5213.7 30144.9 5216.9 30134.6 5219.8 30124.2 5222.3 30113.7 5224.4 30103.1 5226.1 30092.5 5227.5 30081.9 5228.4 30071.2 5229 30060.5 5229.2 M 30119.8 5703.4 29764.2 5703.4 M 30119.8 5703.4 30129.5 5703.2 30139.1 5702.6 30148.7 5701.6 30158.3 5700.2 30167.8 5698.5 30177.3 5696.3 30186.6 5693.8 30195.8 5690.9 30204.9 5687.6 30213.9 5683.9 30222.7 5679.9 30231.3 5675.5 30239.7 5670.8 30248 5665.8 30256 5660.4 30263.8 5654.6 30271.4 5648.6 30278.7 5642.3 30285.7 5635.7 30292.5 5628.7 30299 5621.6 30305.2 5614.1 30311 5606.4 30316.6 5598.5 30321.8 5590.4 30326.7 5582 30331.3 5573.5 30335.5 5564.8 30339.3 5555.9 30342.8 5546.9 30345.9 5537.7 30348.6 5528.4 30351 5519.1 30352.9 5509.6 30354.5 5500 30355.7 5490.4 30356.5 5480.8 30356.9 5471.1 30356.9 5461.5 30356.5 5451.8 30355.7 5442.2 30354.5 5432.6 30352.9 5423 30351 5413.5 30348.6 5404.2 30345.9 5394.9 30342.8 5385.7 30339.3 5376.7 30335.5 5367.8 30331.3 5359.1 30326.7 5350.6 30321.8 5342.2 30316.6 5334.1 30311 5326.2 30305.2 5318.5 30299 5311 30292.5 5303.9 30285.7 5296.9 30278.7 5290.3 30271.4 5284 30263.8 5278 30256 5272.2 30248 5266.8 30239.7 5261.8 30231.3 5257.1 30222.7 5252.7 30213.9 5248.7 30204.9 5245 30195.8 5241.7 30186.6 5238.8 30177.3 5236.3 30167.8 5234.1 30158.3 5232.4 30148.7 5231 30139.1 5230 30129.5 5229.4 30119.8 5229.2 M 30119.8 5229.3 29882.7 5229.3" fill="none" stroke-width="203.2"/><path d="M 65000 6500 65000 13900 72000 13900 M 72000 6500 65000 6500 M 72000 12200 72000 13900 M 72000 12200 72000 8200 72000 6500 M 72000 12200 68000 12200 68000 8200 72000 8200" fill="none" stroke-width="152.4"/><path d="M 63124.7 7573.4 62413.5 6506.6 M 63124.7 6506.6 62413.5 7573.4 M 63615.7 7336.3 63912.1 7573.4 63912.1 6506.6 M 64208.4 6506.6 63615.7 6506.6 M 27656.6 28835.6 27656.6 29902.4 27952.9 29902.4 27963.6 29902.2 27974.3 29901.6 27984.9 29900.7 27995.5 29899.3 28006.1 29897.6 28016.6 29895.5 28027 29893 28037.3 29890.1 28047.5 29886.9 28057.6 29883.3 28067.5 29879.3 28077.3 29875 28086.9 29870.3 28096.4 29865.3 28105.7 29860 28114.7 29854.3 28123.6 29848.3 28132.2 29842 28140.6 29835.4 28148.8 29828.4 28156.7 29821.2 28164.3 29813.7 28171.7 29805.9 28178.7 29797.9 28185.5 29789.6 28192 29781.1 28198.1 29772.4 28204 29763.4 28209.5 29754.3 28214.7 29744.9 28219.5 29735.3 28224 29725.6 28228.2 29715.8 28231.9 29705.8 28235.4 29695.6 28238.4 29685.4 28241.1 29675 28243.4 29664.6 28245.3 29654 28246.8 29643.4 28248 29632.8 28248.8 29622.1 28249.2 29611.4 28249.2 29600.8 28248.8 29590.1 28248 29579.4 28246.8 29568.8 28245.3 29558.2 28243.4 29547.6 28241.1 29537.2 28238.4 29526.8 28235.4 29516.6 28231.9 29506.4 28228.2 29496.4 28224 29486.6 28219.5 29476.9 28214.7 29467.3 28209.5 29458 28204 29448.8 28198.1 29439.8 28192 29431.1 28185.5 29422.6 28178.7 29414.3 28171.7 29406.3 28164.3 29398.5 28156.7 29391 28148.8 29383.8 28140.6 29376.8 28132.2 29370.2 28123.6 29363.9 28114.7 29357.9 28105.7 29352.2 28096.4 29346.9 28086.9 29341.9 28077.3 29337.2 28067.5 29332.9 28057.6 29328.9 28047.5 29325.3 28037.3 29322.1 28027 29319.2 28016.6 29316.7 28006.1 29314.6 27995.5 29312.9 27984.9 29311.5 27974.3 29310.6 27963.6 29310 27952.9 29309.8 M 27952.9 29309.7 27656.6 29309.7 M 28012.2 29309.7 28249.3 28835.6 M 28788.6 29665.3 29084.9 29902.4 29084.9 28835.6 M 28788.6 28835.6 29381.2 28835.6" fill="none" stroke-width="203.2"/><path d="M 37220 11100 54220 11100 54220 100 37220 100 37220 11100" fill="none" stroke-width="152.4"/><path d="M 33121.6 2958.4 33121.6 2187.9 33121.8 2177.2 33122.4 2166.5 33123.3 2155.9 33124.7 2145.3 33126.4 2134.7 33128.5 2124.2 33131 2113.8 33133.9 2103.5 33137.1 2093.3 33140.7 2083.2 33144.7 2073.3 33149 2063.5 33153.7 2053.9 33158.7 2044.4 33164 2035.1 33169.7 2026.1 33175.7 2017.2 33182 2008.6 33188.6 2000.2 33195.6 1992 33202.8 1984.1 33210.3 1976.5 33218.1 1969.1 33226.1 1962.1 33234.4 1955.3 33242.9 1948.8 33251.6 1942.7 33260.6 1936.8 33269.8 1931.3 33279.1 1926.1 33288.7 1921.3 33298.4 1916.8 33308.2 1912.6 33318.2 1908.9 33328.4 1905.4 33338.6 1902.4 33349 1899.7 33359.4 1897.4 33370 1895.5 33380.6 1894 33391.2 1892.8 33401.9 1892 33412.6 1891.6 33423.2 1891.6 33433.9 1892 33444.6 1892.8 33455.2 1894 33465.8 1895.5 33476.4 1897.4 33486.8 1899.7 33497.2 1902.4 33507.4 1905.4 33517.6 1908.9 33527.6 1912.6 33537.4 1916.8 33547.1 1921.3 33556.7 1926.1 33566.1 1931.3 33575.2 1936.8 33584.2 1942.7 33592.9 1948.8 33601.4 1955.3 33609.7 1962.1 33617.7 1969.1 33625.5 1976.5 33633 1984.1 33640.2 1992 33647.2 2000.2 33653.8 2008.6 33660.1 2017.2 33666.1 2026.1 33671.8 2035.1 33677.1 2044.4 33682.1 2053.9 33686.8 2063.5 33691.1 2073.3 33695.1 2083.2 33698.7 2093.3 33701.9 2103.5 33704.8 2113.8 33707.3 2124.2 33709.4 2134.7 33711.1 2145.3 33712.5 2155.9 33713.4 2166.5 33714 2177.2 33714.2 2187.9 M 33714.3 2187.9 33714.3 2958.4 M 34522.8 2958.4 34522.8 1891.6 M 34522.8 2425 34374.7 2513.9 34367.8 2518.3 34361 2523 34354.5 2528.1 34348.2 2533.4 34342.2 2539 34336.4 2544.9 34330.9 2551.1 34325.8 2557.5 34320.9 2564.1 34316.3 2570.9 34312.1 2578 34308.1 2585.3 34304.6 2592.7 34301.3 2600.3 34298.5 2608 34296 2615.8 34293.8 2623.8 34292.1 2631.8 34290.7 2640 34289.7 2648.1 34289 2656.3 34288.8 2664.6 34288.9 2672.8 34289.5 2681 34290.4 2689.2 34291.7 2697.4 34293.3 2705.4 34295.4 2713.4 34297.8 2721.3 34300.5 2729.1 34303.7 2736.7 34307.1 2744.1 34311 2751.4 34315.1 2758.6 34319.6 2765.5 34324.4 2772.2 34329.5 2778.6 34334.9 2784.8 34340.6 2790.8 34346.5 2796.5 34352.8 2801.9 34359.2 2807 34365.9 2811.8 34372.8 2816.3 34379.9 2820.5 34387.2 2824.3 34394.7 2827.8 34402.3 2830.9 34410.1 2833.7 34417.9 2836.1 34425.9 2838.1 34434 2839.8 M 34433.9 2839.9 34447.3 2842.1 34460.7 2844 34474.1 2845.4 34487.6 2846.5 34501.2 2847.2 34514.7 2847.5 34528.3 2847.4 34541.8 2846.9 34555.3 2846 34568.8 2844.8 34582.2 2843.1 34595.6 2841.1 34608.9 2838.7 34622.2 2835.9 34635.3 2832.7 34648.4 2829.1 34661.4 2825.2 34674.2 2820.9 34686.9 2816.2 34699.5 2811.1 34711.9 2805.7 34724.2 2800 34736.2 2793.9 34748.1 2787.4 34759.9 2780.6 M 34522.8 2425 34671 2336.1 34677.9 2331.7 34684.7 2327 34691.2 2321.9 34697.5 2316.6 34703.5 2311 34709.3 2305.1 34714.8 2298.9 34719.9 2292.5 34724.8 2285.9 34729.4 2279.1 34733.6 2272 34737.6 2264.7 34741.1 2257.3 34744.4 2249.7 34747.2 2242 34749.7 2234.2 34751.9 2226.2 34753.6 2218.2 34755 2210 34756 2201.9 34756.7 2193.7 34756.9 2185.4 34756.8 2177.2 34756.2 2169 34755.3 2160.8 34754 2152.6 34752.4 2144.6 34750.3 2136.6 34747.9 2128.7 34745.2 2120.9 34742 2113.3 34738.6 2105.9 34734.7 2098.6 34730.6 2091.4 34726.1 2084.5 34721.3 2077.8 34716.2 2071.4 34710.8 2065.2 34705.1 2059.2 34699.2 2053.5 34692.9 2048.1 34686.5 2043 34679.8 2038.2 34672.9 2033.7 34665.8 2029.5 34658.5 2025.7 34651 2022.2 34643.4 2019.1 34635.6 2016.3 34627.8 2013.9 34619.8 2011.9 34611.7 2010.2 M 34611.7 2010.1 34598.3 2007.9 34584.9 2006 34571.5 2004.6 34558 2003.5 34544.4 2002.8 34530.9 2002.5 34517.3 2002.6 34503.8 2003.1 34490.3 2004 34476.8 2005.2 34463.4 2006.9 34450 2008.9 34436.7 2011.3 34423.4 2014.1 34410.2 2017.3 34397.2 2020.9 34384.2 2024.8 34371.4 2029.1 34358.7 2033.8 34346.1 2038.9 34333.7 2044.3 34321.4 2050 34309.4 2056.2 34297.4 2062.6 34285.7 2069.4 M 35293.3 2721.3 35589.6 2958.4 35589.6 1891.6 M 35293.3 1891.6 35886 1891.6" fill="none" stroke-width="203.2"/><path d="M 0 0 65000 0 65000 32000 0 32000 0 0" fill="none" stroke-width="254"/></g></svg>