M48
;GenerationSoftware,Autodesk,EAGLE,9.7.0*%
;CreationDate,2024-05-06T16:57:48Z*%
FMAT,2
ICI,OFF
METRIC,TZ,000.000
T4C0.500
T3C0.600
T2C1.016
T1C3.000
%
G90
M71
T1
X3000Y3000
X37000Y37000
X37000Y3000
X3000Y37000
T2
X30480Y26670
X33020Y26670
X30480Y29210
X33020Y29210
X30480Y31750
X33020Y31750
X20320Y16000
X22860Y16000
X12700Y16000
X15240Y16000
X25960Y3500
X31040Y3500
T3
X23540Y11000
X21000Y11000
X18460Y11000
T4
X8890Y7620
X6350Y36830
M30