G04 EAGLE Gerber RS-274X export*
G75*
%MOMM*%
%FSLAX34Y34*%
%LPD*%
%INSilkscreen Top*%
%IPPOS*%
%AMOC8*
5,1,8,0,0,1.08239X$1,22.5*%
G01*
G04 Define Apertures*
%ADD10C,0.152400*%
%ADD11C,0.200000*%
%ADD12C,0.203200*%
%ADD13C,0.500000*%
%ADD14C,0.120000*%
%ADD15C,0.127000*%
%ADD16C,0.254000*%
D10*
X15000Y370000D02*
X45000Y370000D01*
X30000Y355000D02*
X30000Y385000D01*
X355000Y370000D02*
X385000Y370000D01*
X370000Y355000D02*
X370000Y385000D01*
X355000Y30000D02*
X385000Y30000D01*
X370000Y15000D02*
X370000Y45000D01*
X45000Y30000D02*
X15000Y30000D01*
X30000Y15000D02*
X30000Y45000D01*
D11*
X92800Y467640D02*
X262800Y467640D01*
X92800Y227640D02*
X92800Y217640D01*
X117800Y217640D01*
X237800Y217640D02*
X262800Y217640D01*
X262800Y227640D01*
X92800Y387640D02*
X92800Y467640D01*
X262800Y467640D02*
X262800Y387640D01*
D12*
X274011Y233763D02*
X274011Y226058D01*
X274013Y225951D01*
X274019Y225844D01*
X274028Y225738D01*
X274042Y225632D01*
X274059Y225526D01*
X274080Y225421D01*
X274105Y225317D01*
X274134Y225214D01*
X274166Y225112D01*
X274202Y225011D01*
X274242Y224912D01*
X274285Y224814D01*
X274332Y224718D01*
X274382Y224623D01*
X274435Y224530D01*
X274492Y224440D01*
X274552Y224351D01*
X274615Y224265D01*
X274681Y224181D01*
X274751Y224099D01*
X274823Y224020D01*
X274898Y223944D01*
X274976Y223870D01*
X275056Y223800D01*
X275139Y223732D01*
X275224Y223667D01*
X275311Y223606D01*
X275401Y223547D01*
X275493Y223492D01*
X275586Y223440D01*
X275682Y223392D01*
X275779Y223347D01*
X275877Y223305D01*
X275977Y223268D01*
X276079Y223233D01*
X276181Y223203D01*
X276285Y223176D01*
X276389Y223153D01*
X276495Y223134D01*
X276601Y223119D01*
X276707Y223107D01*
X276814Y223099D01*
X276921Y223095D01*
X277027Y223095D01*
X277134Y223099D01*
X277241Y223107D01*
X277347Y223119D01*
X277453Y223134D01*
X277559Y223153D01*
X277663Y223176D01*
X277767Y223203D01*
X277869Y223233D01*
X277971Y223268D01*
X278071Y223305D01*
X278169Y223347D01*
X278266Y223392D01*
X278362Y223440D01*
X278456Y223492D01*
X278547Y223547D01*
X278637Y223606D01*
X278724Y223667D01*
X278809Y223732D01*
X278892Y223800D01*
X278972Y223870D01*
X279050Y223944D01*
X279125Y224020D01*
X279197Y224099D01*
X279267Y224181D01*
X279333Y224265D01*
X279396Y224351D01*
X279456Y224440D01*
X279513Y224530D01*
X279566Y224623D01*
X279616Y224718D01*
X279663Y224814D01*
X279706Y224912D01*
X279746Y225011D01*
X279782Y225112D01*
X279814Y225214D01*
X279843Y225317D01*
X279868Y225421D01*
X279889Y225526D01*
X279906Y225632D01*
X279920Y225738D01*
X279929Y225844D01*
X279935Y225951D01*
X279937Y226058D01*
X279937Y233763D01*
X285822Y231392D02*
X288785Y233763D01*
X288785Y223095D01*
X285822Y223095D02*
X291748Y223095D01*
D13*
X360564Y126340D03*
D14*
X358664Y121300D02*
X358664Y107300D01*
X348564Y107300D01*
X327136Y107300D02*
X327136Y121300D01*
X327136Y107300D02*
X337236Y107300D01*
D12*
X361632Y106693D02*
X361632Y111435D01*
X361634Y111542D01*
X361640Y111649D01*
X361649Y111755D01*
X361663Y111861D01*
X361680Y111967D01*
X361701Y112072D01*
X361726Y112176D01*
X361755Y112279D01*
X361787Y112381D01*
X361823Y112482D01*
X361863Y112581D01*
X361906Y112679D01*
X361953Y112775D01*
X362003Y112870D01*
X362056Y112963D01*
X362113Y113053D01*
X362173Y113142D01*
X362236Y113228D01*
X362302Y113312D01*
X362372Y113394D01*
X362444Y113473D01*
X362519Y113549D01*
X362597Y113623D01*
X362677Y113693D01*
X362760Y113761D01*
X362845Y113826D01*
X362932Y113887D01*
X363022Y113946D01*
X363114Y114001D01*
X363207Y114053D01*
X363303Y114101D01*
X363400Y114146D01*
X363498Y114188D01*
X363598Y114225D01*
X363700Y114260D01*
X363802Y114290D01*
X363906Y114317D01*
X364010Y114340D01*
X364116Y114359D01*
X364222Y114374D01*
X364328Y114386D01*
X364435Y114394D01*
X364542Y114398D01*
X364648Y114398D01*
X364755Y114394D01*
X364862Y114386D01*
X364968Y114374D01*
X365074Y114359D01*
X365180Y114340D01*
X365284Y114317D01*
X365388Y114290D01*
X365490Y114260D01*
X365592Y114225D01*
X365692Y114188D01*
X365790Y114146D01*
X365887Y114101D01*
X365983Y114053D01*
X366077Y114001D01*
X366168Y113946D01*
X366258Y113887D01*
X366345Y113826D01*
X366430Y113761D01*
X366513Y113693D01*
X366593Y113623D01*
X366671Y113549D01*
X366746Y113473D01*
X366818Y113394D01*
X366888Y113312D01*
X366954Y113228D01*
X367017Y113142D01*
X367077Y113053D01*
X367134Y112963D01*
X367187Y112870D01*
X367237Y112775D01*
X367284Y112679D01*
X367327Y112581D01*
X367367Y112482D01*
X367403Y112381D01*
X367435Y112279D01*
X367464Y112176D01*
X367489Y112072D01*
X367510Y111967D01*
X367527Y111861D01*
X367541Y111755D01*
X367550Y111649D01*
X367556Y111542D01*
X367558Y111435D01*
X367558Y106693D01*
X367556Y106586D01*
X367550Y106479D01*
X367541Y106373D01*
X367527Y106267D01*
X367510Y106161D01*
X367489Y106056D01*
X367464Y105952D01*
X367435Y105849D01*
X367403Y105747D01*
X367367Y105646D01*
X367327Y105547D01*
X367284Y105449D01*
X367237Y105353D01*
X367187Y105258D01*
X367134Y105165D01*
X367077Y105075D01*
X367017Y104986D01*
X366954Y104900D01*
X366888Y104816D01*
X366818Y104734D01*
X366746Y104655D01*
X366671Y104579D01*
X366593Y104505D01*
X366513Y104435D01*
X366430Y104367D01*
X366345Y104302D01*
X366258Y104241D01*
X366168Y104182D01*
X366077Y104127D01*
X365983Y104075D01*
X365887Y104027D01*
X365790Y103982D01*
X365692Y103940D01*
X365592Y103903D01*
X365490Y103868D01*
X365388Y103838D01*
X365284Y103811D01*
X365180Y103788D01*
X365074Y103769D01*
X364968Y103754D01*
X364862Y103742D01*
X364755Y103734D01*
X364648Y103730D01*
X364542Y103730D01*
X364435Y103734D01*
X364328Y103742D01*
X364222Y103754D01*
X364116Y103769D01*
X364010Y103788D01*
X363906Y103811D01*
X363802Y103838D01*
X363700Y103868D01*
X363598Y103903D01*
X363498Y103940D01*
X363400Y103982D01*
X363303Y104027D01*
X363207Y104075D01*
X363114Y104127D01*
X363022Y104182D01*
X362932Y104241D01*
X362845Y104302D01*
X362760Y104367D01*
X362677Y104435D01*
X362597Y104505D01*
X362519Y104579D01*
X362444Y104655D01*
X362372Y104734D01*
X362302Y104816D01*
X362236Y104900D01*
X362173Y104986D01*
X362113Y105075D01*
X362056Y105165D01*
X362003Y105258D01*
X361953Y105353D01*
X361906Y105449D01*
X361863Y105547D01*
X361823Y105646D01*
X361787Y105747D01*
X361755Y105849D01*
X361726Y105952D01*
X361701Y106056D01*
X361680Y106161D01*
X361663Y106267D01*
X361649Y106373D01*
X361640Y106479D01*
X361634Y106586D01*
X361632Y106693D01*
X366373Y106101D02*
X368744Y103730D01*
X372442Y112027D02*
X375405Y114398D01*
X375405Y103730D01*
X372442Y103730D02*
X378369Y103730D01*
X121666Y33884D02*
X121666Y23216D01*
X121666Y33884D02*
X124629Y33884D01*
X124736Y33882D01*
X124843Y33876D01*
X124949Y33867D01*
X125055Y33853D01*
X125161Y33836D01*
X125266Y33815D01*
X125370Y33790D01*
X125473Y33761D01*
X125575Y33729D01*
X125676Y33693D01*
X125775Y33653D01*
X125873Y33610D01*
X125969Y33563D01*
X126064Y33513D01*
X126157Y33460D01*
X126247Y33403D01*
X126336Y33343D01*
X126422Y33280D01*
X126506Y33214D01*
X126588Y33144D01*
X126667Y33072D01*
X126743Y32997D01*
X126817Y32919D01*
X126887Y32839D01*
X126955Y32756D01*
X127020Y32671D01*
X127081Y32584D01*
X127140Y32494D01*
X127195Y32402D01*
X127247Y32309D01*
X127295Y32213D01*
X127340Y32116D01*
X127382Y32018D01*
X127419Y31918D01*
X127454Y31816D01*
X127484Y31714D01*
X127511Y31610D01*
X127534Y31506D01*
X127553Y31400D01*
X127568Y31294D01*
X127580Y31188D01*
X127588Y31081D01*
X127592Y30974D01*
X127592Y30868D01*
X127588Y30761D01*
X127580Y30654D01*
X127568Y30548D01*
X127553Y30442D01*
X127534Y30336D01*
X127511Y30232D01*
X127484Y30128D01*
X127454Y30026D01*
X127419Y29924D01*
X127382Y29824D01*
X127340Y29726D01*
X127295Y29629D01*
X127247Y29533D01*
X127195Y29439D01*
X127140Y29348D01*
X127081Y29258D01*
X127020Y29171D01*
X126955Y29086D01*
X126887Y29003D01*
X126817Y28923D01*
X126743Y28845D01*
X126667Y28770D01*
X126588Y28698D01*
X126506Y28628D01*
X126422Y28562D01*
X126336Y28499D01*
X126247Y28439D01*
X126157Y28382D01*
X126064Y28329D01*
X125969Y28279D01*
X125873Y28232D01*
X125775Y28189D01*
X125676Y28149D01*
X125575Y28113D01*
X125473Y28081D01*
X125370Y28052D01*
X125266Y28027D01*
X125161Y28006D01*
X125055Y27989D01*
X124949Y27975D01*
X124843Y27966D01*
X124736Y27960D01*
X124629Y27958D01*
X124629Y27957D02*
X121666Y27957D01*
X125222Y27957D02*
X127593Y23216D01*
X132986Y31513D02*
X135949Y33884D01*
X135949Y23216D01*
X132986Y23216D02*
X138912Y23216D01*
D15*
X188267Y39800D02*
X188267Y61800D01*
X167333Y61800D02*
X167333Y39800D01*
D12*
X172420Y74016D02*
X174791Y74016D01*
X172420Y74016D02*
X172325Y74018D01*
X172229Y74024D01*
X172134Y74033D01*
X172040Y74047D01*
X171946Y74064D01*
X171853Y74085D01*
X171760Y74110D01*
X171669Y74138D01*
X171579Y74170D01*
X171491Y74206D01*
X171404Y74245D01*
X171318Y74288D01*
X171235Y74334D01*
X171153Y74383D01*
X171073Y74436D01*
X170996Y74492D01*
X170920Y74550D01*
X170848Y74612D01*
X170778Y74677D01*
X170710Y74745D01*
X170645Y74815D01*
X170583Y74887D01*
X170525Y74963D01*
X170469Y75040D01*
X170416Y75120D01*
X170367Y75202D01*
X170321Y75285D01*
X170278Y75371D01*
X170239Y75458D01*
X170203Y75546D01*
X170171Y75636D01*
X170143Y75727D01*
X170118Y75820D01*
X170097Y75913D01*
X170080Y76007D01*
X170066Y76101D01*
X170057Y76196D01*
X170051Y76292D01*
X170049Y76387D01*
X170049Y82313D01*
X170051Y82408D01*
X170057Y82504D01*
X170066Y82599D01*
X170080Y82693D01*
X170097Y82787D01*
X170118Y82880D01*
X170143Y82973D01*
X170171Y83064D01*
X170203Y83154D01*
X170239Y83242D01*
X170278Y83329D01*
X170321Y83415D01*
X170367Y83498D01*
X170416Y83580D01*
X170469Y83660D01*
X170525Y83737D01*
X170583Y83813D01*
X170645Y83885D01*
X170710Y83955D01*
X170778Y84023D01*
X170848Y84088D01*
X170920Y84150D01*
X170996Y84208D01*
X171073Y84264D01*
X171153Y84317D01*
X171234Y84366D01*
X171318Y84412D01*
X171404Y84455D01*
X171491Y84494D01*
X171579Y84530D01*
X171669Y84562D01*
X171760Y84590D01*
X171853Y84615D01*
X171946Y84636D01*
X172040Y84653D01*
X172134Y84667D01*
X172229Y84676D01*
X172324Y84682D01*
X172420Y84684D01*
X174791Y84684D01*
X179624Y82313D02*
X182587Y84684D01*
X182587Y74016D01*
X179624Y74016D02*
X185551Y74016D01*
X362966Y65871D02*
X362966Y61129D01*
X362966Y65871D02*
X362968Y65978D01*
X362974Y66085D01*
X362983Y66191D01*
X362997Y66297D01*
X363014Y66403D01*
X363035Y66508D01*
X363060Y66612D01*
X363089Y66715D01*
X363121Y66817D01*
X363157Y66918D01*
X363197Y67017D01*
X363240Y67115D01*
X363287Y67211D01*
X363337Y67306D01*
X363390Y67399D01*
X363447Y67489D01*
X363507Y67578D01*
X363570Y67664D01*
X363636Y67748D01*
X363706Y67830D01*
X363778Y67909D01*
X363853Y67985D01*
X363931Y68059D01*
X364011Y68129D01*
X364094Y68197D01*
X364179Y68262D01*
X364266Y68323D01*
X364356Y68382D01*
X364448Y68437D01*
X364541Y68489D01*
X364637Y68537D01*
X364734Y68582D01*
X364832Y68624D01*
X364932Y68661D01*
X365034Y68696D01*
X365136Y68726D01*
X365240Y68753D01*
X365344Y68776D01*
X365450Y68795D01*
X365556Y68810D01*
X365662Y68822D01*
X365769Y68830D01*
X365876Y68834D01*
X365982Y68834D01*
X366089Y68830D01*
X366196Y68822D01*
X366302Y68810D01*
X366408Y68795D01*
X366514Y68776D01*
X366618Y68753D01*
X366722Y68726D01*
X366824Y68696D01*
X366926Y68661D01*
X367026Y68624D01*
X367124Y68582D01*
X367221Y68537D01*
X367317Y68489D01*
X367411Y68437D01*
X367502Y68382D01*
X367592Y68323D01*
X367679Y68262D01*
X367764Y68197D01*
X367847Y68129D01*
X367927Y68059D01*
X368005Y67985D01*
X368080Y67909D01*
X368152Y67830D01*
X368222Y67748D01*
X368288Y67664D01*
X368351Y67578D01*
X368411Y67489D01*
X368468Y67399D01*
X368521Y67306D01*
X368571Y67211D01*
X368618Y67115D01*
X368661Y67017D01*
X368701Y66918D01*
X368737Y66817D01*
X368769Y66715D01*
X368798Y66612D01*
X368823Y66508D01*
X368844Y66403D01*
X368861Y66297D01*
X368875Y66191D01*
X368884Y66085D01*
X368890Y65978D01*
X368892Y65871D01*
X368893Y65871D02*
X368893Y61129D01*
X368892Y61129D02*
X368890Y61022D01*
X368884Y60915D01*
X368875Y60809D01*
X368861Y60703D01*
X368844Y60597D01*
X368823Y60492D01*
X368798Y60388D01*
X368769Y60285D01*
X368737Y60183D01*
X368701Y60082D01*
X368661Y59983D01*
X368618Y59885D01*
X368571Y59789D01*
X368521Y59694D01*
X368468Y59601D01*
X368411Y59511D01*
X368351Y59422D01*
X368288Y59336D01*
X368222Y59252D01*
X368152Y59170D01*
X368080Y59091D01*
X368005Y59015D01*
X367927Y58941D01*
X367847Y58871D01*
X367764Y58803D01*
X367679Y58738D01*
X367592Y58677D01*
X367502Y58618D01*
X367411Y58563D01*
X367317Y58511D01*
X367221Y58463D01*
X367124Y58418D01*
X367026Y58376D01*
X366926Y58339D01*
X366824Y58304D01*
X366722Y58274D01*
X366618Y58247D01*
X366514Y58224D01*
X366408Y58205D01*
X366302Y58190D01*
X366196Y58178D01*
X366089Y58170D01*
X365982Y58166D01*
X365876Y58166D01*
X365769Y58170D01*
X365662Y58178D01*
X365556Y58190D01*
X365450Y58205D01*
X365344Y58224D01*
X365240Y58247D01*
X365136Y58274D01*
X365034Y58304D01*
X364932Y58339D01*
X364832Y58376D01*
X364734Y58418D01*
X364637Y58463D01*
X364541Y58511D01*
X364448Y58563D01*
X364356Y58618D01*
X364266Y58677D01*
X364179Y58738D01*
X364094Y58803D01*
X364011Y58871D01*
X363931Y58941D01*
X363853Y59015D01*
X363778Y59091D01*
X363706Y59170D01*
X363636Y59252D01*
X363570Y59336D01*
X363507Y59422D01*
X363447Y59511D01*
X363390Y59601D01*
X363337Y59694D01*
X363287Y59789D01*
X363240Y59885D01*
X363197Y59983D01*
X363157Y60082D01*
X363121Y60183D01*
X363089Y60285D01*
X363060Y60388D01*
X363035Y60492D01*
X363014Y60597D01*
X362997Y60703D01*
X362983Y60809D01*
X362974Y60915D01*
X362968Y61022D01*
X362966Y61129D01*
X367707Y60537D02*
X370078Y58166D01*
X379703Y66167D02*
X379701Y66269D01*
X379695Y66371D01*
X379685Y66473D01*
X379672Y66574D01*
X379654Y66675D01*
X379633Y66775D01*
X379608Y66874D01*
X379579Y66972D01*
X379546Y67068D01*
X379510Y67164D01*
X379470Y67258D01*
X379426Y67350D01*
X379379Y67441D01*
X379328Y67530D01*
X379275Y67617D01*
X379217Y67701D01*
X379157Y67784D01*
X379094Y67864D01*
X379027Y67941D01*
X378958Y68016D01*
X378885Y68089D01*
X378810Y68158D01*
X378733Y68225D01*
X378653Y68288D01*
X378570Y68348D01*
X378486Y68406D01*
X378399Y68459D01*
X378310Y68510D01*
X378219Y68557D01*
X378127Y68601D01*
X378033Y68641D01*
X377937Y68677D01*
X377841Y68710D01*
X377743Y68739D01*
X377644Y68764D01*
X377544Y68785D01*
X377443Y68803D01*
X377342Y68816D01*
X377240Y68826D01*
X377138Y68832D01*
X377036Y68834D01*
X376920Y68832D01*
X376803Y68826D01*
X376687Y68816D01*
X376572Y68802D01*
X376457Y68785D01*
X376342Y68763D01*
X376229Y68737D01*
X376116Y68708D01*
X376004Y68675D01*
X375894Y68638D01*
X375785Y68597D01*
X375677Y68553D01*
X375571Y68505D01*
X375467Y68453D01*
X375364Y68398D01*
X375263Y68340D01*
X375165Y68278D01*
X375068Y68213D01*
X374974Y68144D01*
X374882Y68072D01*
X374793Y67998D01*
X374706Y67920D01*
X374622Y67839D01*
X374541Y67756D01*
X374463Y67670D01*
X374387Y67581D01*
X374315Y67490D01*
X374246Y67396D01*
X374180Y67300D01*
X374117Y67202D01*
X374058Y67102D01*
X374002Y67000D01*
X373950Y66896D01*
X373901Y66790D01*
X373856Y66683D01*
X373814Y66574D01*
X373777Y66464D01*
X378815Y64092D02*
X378890Y64166D01*
X378962Y64243D01*
X379031Y64323D01*
X379098Y64405D01*
X379161Y64489D01*
X379221Y64576D01*
X379278Y64664D01*
X379332Y64755D01*
X379382Y64848D01*
X379429Y64942D01*
X379472Y65038D01*
X379512Y65136D01*
X379548Y65235D01*
X379581Y65335D01*
X379609Y65437D01*
X379634Y65539D01*
X379656Y65643D01*
X379673Y65747D01*
X379687Y65851D01*
X379696Y65956D01*
X379702Y66062D01*
X379704Y66167D01*
X378814Y64093D02*
X373776Y58166D01*
X379703Y58166D01*
D11*
X190800Y74000D02*
X190802Y74063D01*
X190808Y74125D01*
X190818Y74187D01*
X190831Y74249D01*
X190849Y74309D01*
X190870Y74368D01*
X190895Y74426D01*
X190924Y74482D01*
X190956Y74536D01*
X190991Y74588D01*
X191029Y74637D01*
X191071Y74685D01*
X191115Y74729D01*
X191163Y74771D01*
X191212Y74809D01*
X191264Y74844D01*
X191318Y74876D01*
X191374Y74905D01*
X191432Y74930D01*
X191491Y74951D01*
X191551Y74969D01*
X191613Y74982D01*
X191675Y74992D01*
X191737Y74998D01*
X191800Y75000D01*
X191863Y74998D01*
X191925Y74992D01*
X191987Y74982D01*
X192049Y74969D01*
X192109Y74951D01*
X192168Y74930D01*
X192226Y74905D01*
X192282Y74876D01*
X192336Y74844D01*
X192388Y74809D01*
X192437Y74771D01*
X192485Y74729D01*
X192529Y74685D01*
X192571Y74637D01*
X192609Y74588D01*
X192644Y74536D01*
X192676Y74482D01*
X192705Y74426D01*
X192730Y74368D01*
X192751Y74309D01*
X192769Y74249D01*
X192782Y74187D01*
X192792Y74125D01*
X192798Y74063D01*
X192800Y74000D01*
X192798Y73937D01*
X192792Y73875D01*
X192782Y73813D01*
X192769Y73751D01*
X192751Y73691D01*
X192730Y73632D01*
X192705Y73574D01*
X192676Y73518D01*
X192644Y73464D01*
X192609Y73412D01*
X192571Y73363D01*
X192529Y73315D01*
X192485Y73271D01*
X192437Y73229D01*
X192388Y73191D01*
X192336Y73156D01*
X192282Y73124D01*
X192226Y73095D01*
X192168Y73070D01*
X192109Y73049D01*
X192049Y73031D01*
X191987Y73018D01*
X191925Y73008D01*
X191863Y73002D01*
X191800Y73000D01*
X191737Y73002D01*
X191675Y73008D01*
X191613Y73018D01*
X191551Y73031D01*
X191491Y73049D01*
X191432Y73070D01*
X191374Y73095D01*
X191318Y73124D01*
X191264Y73156D01*
X191212Y73191D01*
X191163Y73229D01*
X191115Y73271D01*
X191071Y73315D01*
X191029Y73363D01*
X190991Y73412D01*
X190956Y73464D01*
X190924Y73518D01*
X190895Y73574D01*
X190870Y73632D01*
X190849Y73691D01*
X190831Y73751D01*
X190818Y73813D01*
X190808Y73875D01*
X190802Y73937D01*
X190800Y74000D01*
D15*
X212600Y78000D02*
X219200Y78000D01*
X223900Y66850D02*
X223900Y60150D01*
X219200Y49000D02*
X212600Y49000D01*
D12*
X203616Y44384D02*
X203616Y36679D01*
X203618Y36572D01*
X203624Y36465D01*
X203633Y36359D01*
X203647Y36253D01*
X203664Y36147D01*
X203685Y36042D01*
X203710Y35938D01*
X203739Y35835D01*
X203771Y35733D01*
X203807Y35632D01*
X203847Y35533D01*
X203890Y35435D01*
X203937Y35339D01*
X203987Y35244D01*
X204040Y35151D01*
X204097Y35061D01*
X204157Y34972D01*
X204220Y34886D01*
X204286Y34802D01*
X204356Y34720D01*
X204428Y34641D01*
X204503Y34565D01*
X204581Y34491D01*
X204661Y34421D01*
X204744Y34353D01*
X204829Y34288D01*
X204916Y34227D01*
X205006Y34168D01*
X205098Y34113D01*
X205191Y34061D01*
X205287Y34013D01*
X205384Y33968D01*
X205482Y33926D01*
X205582Y33889D01*
X205684Y33854D01*
X205786Y33824D01*
X205890Y33797D01*
X205994Y33774D01*
X206100Y33755D01*
X206206Y33740D01*
X206312Y33728D01*
X206419Y33720D01*
X206526Y33716D01*
X206632Y33716D01*
X206739Y33720D01*
X206846Y33728D01*
X206952Y33740D01*
X207058Y33755D01*
X207164Y33774D01*
X207268Y33797D01*
X207372Y33824D01*
X207474Y33854D01*
X207576Y33889D01*
X207676Y33926D01*
X207774Y33968D01*
X207871Y34013D01*
X207967Y34061D01*
X208060Y34113D01*
X208152Y34168D01*
X208242Y34227D01*
X208329Y34288D01*
X208414Y34353D01*
X208497Y34421D01*
X208577Y34491D01*
X208655Y34565D01*
X208730Y34641D01*
X208802Y34720D01*
X208872Y34802D01*
X208938Y34886D01*
X209001Y34972D01*
X209061Y35061D01*
X209118Y35151D01*
X209171Y35244D01*
X209221Y35339D01*
X209268Y35435D01*
X209311Y35533D01*
X209351Y35632D01*
X209387Y35733D01*
X209419Y35835D01*
X209448Y35938D01*
X209473Y36042D01*
X209494Y36147D01*
X209511Y36253D01*
X209525Y36359D01*
X209534Y36465D01*
X209540Y36572D01*
X209542Y36679D01*
X209543Y36679D02*
X209543Y44384D01*
X218687Y44384D02*
X218789Y44382D01*
X218891Y44376D01*
X218993Y44366D01*
X219094Y44353D01*
X219195Y44335D01*
X219295Y44314D01*
X219394Y44289D01*
X219492Y44260D01*
X219588Y44227D01*
X219684Y44191D01*
X219778Y44151D01*
X219870Y44107D01*
X219961Y44060D01*
X220050Y44009D01*
X220137Y43956D01*
X220221Y43898D01*
X220304Y43838D01*
X220384Y43775D01*
X220461Y43708D01*
X220536Y43639D01*
X220609Y43566D01*
X220678Y43491D01*
X220745Y43414D01*
X220808Y43334D01*
X220868Y43251D01*
X220926Y43167D01*
X220979Y43080D01*
X221030Y42991D01*
X221077Y42900D01*
X221121Y42808D01*
X221161Y42714D01*
X221197Y42618D01*
X221230Y42522D01*
X221259Y42424D01*
X221284Y42325D01*
X221305Y42225D01*
X221323Y42124D01*
X221336Y42023D01*
X221346Y41921D01*
X221352Y41819D01*
X221354Y41717D01*
X218687Y44384D02*
X218571Y44382D01*
X218454Y44376D01*
X218338Y44366D01*
X218223Y44352D01*
X218108Y44335D01*
X217993Y44313D01*
X217880Y44287D01*
X217767Y44258D01*
X217655Y44225D01*
X217545Y44188D01*
X217436Y44147D01*
X217328Y44103D01*
X217222Y44055D01*
X217118Y44003D01*
X217015Y43948D01*
X216914Y43890D01*
X216816Y43828D01*
X216719Y43763D01*
X216625Y43694D01*
X216533Y43622D01*
X216444Y43548D01*
X216357Y43470D01*
X216273Y43389D01*
X216192Y43306D01*
X216114Y43220D01*
X216038Y43131D01*
X215966Y43040D01*
X215897Y42946D01*
X215831Y42850D01*
X215768Y42752D01*
X215709Y42652D01*
X215653Y42550D01*
X215601Y42446D01*
X215552Y42340D01*
X215507Y42233D01*
X215465Y42124D01*
X215428Y42014D01*
X220465Y39642D02*
X220540Y39716D01*
X220612Y39793D01*
X220681Y39873D01*
X220748Y39955D01*
X220811Y40039D01*
X220871Y40126D01*
X220928Y40214D01*
X220982Y40305D01*
X221032Y40398D01*
X221079Y40492D01*
X221122Y40588D01*
X221162Y40686D01*
X221198Y40785D01*
X221231Y40885D01*
X221259Y40987D01*
X221284Y41089D01*
X221306Y41193D01*
X221323Y41297D01*
X221337Y41401D01*
X221346Y41506D01*
X221352Y41612D01*
X221354Y41717D01*
X220465Y39643D02*
X215427Y33716D01*
X221354Y33716D01*
X147066Y74016D02*
X147066Y84684D01*
X150029Y84684D01*
X150136Y84682D01*
X150243Y84676D01*
X150349Y84667D01*
X150455Y84653D01*
X150561Y84636D01*
X150666Y84615D01*
X150770Y84590D01*
X150873Y84561D01*
X150975Y84529D01*
X151076Y84493D01*
X151175Y84453D01*
X151273Y84410D01*
X151369Y84363D01*
X151464Y84313D01*
X151557Y84260D01*
X151647Y84203D01*
X151736Y84143D01*
X151822Y84080D01*
X151906Y84014D01*
X151988Y83944D01*
X152067Y83872D01*
X152143Y83797D01*
X152217Y83719D01*
X152287Y83639D01*
X152355Y83556D01*
X152420Y83471D01*
X152481Y83384D01*
X152540Y83294D01*
X152595Y83202D01*
X152647Y83109D01*
X152695Y83013D01*
X152740Y82916D01*
X152782Y82818D01*
X152819Y82718D01*
X152854Y82616D01*
X152884Y82514D01*
X152911Y82410D01*
X152934Y82306D01*
X152953Y82200D01*
X152968Y82094D01*
X152980Y81988D01*
X152988Y81881D01*
X152992Y81774D01*
X152992Y81668D01*
X152988Y81561D01*
X152980Y81454D01*
X152968Y81348D01*
X152953Y81242D01*
X152934Y81136D01*
X152911Y81032D01*
X152884Y80928D01*
X152854Y80826D01*
X152819Y80724D01*
X152782Y80624D01*
X152740Y80526D01*
X152695Y80429D01*
X152647Y80333D01*
X152595Y80239D01*
X152540Y80148D01*
X152481Y80058D01*
X152420Y79971D01*
X152355Y79886D01*
X152287Y79803D01*
X152217Y79723D01*
X152143Y79645D01*
X152067Y79570D01*
X151988Y79498D01*
X151906Y79428D01*
X151822Y79362D01*
X151736Y79299D01*
X151647Y79239D01*
X151557Y79182D01*
X151464Y79129D01*
X151369Y79079D01*
X151273Y79032D01*
X151175Y78989D01*
X151076Y78949D01*
X150975Y78913D01*
X150873Y78881D01*
X150770Y78852D01*
X150666Y78827D01*
X150561Y78806D01*
X150455Y78789D01*
X150349Y78775D01*
X150243Y78766D01*
X150136Y78760D01*
X150029Y78758D01*
X150029Y78757D02*
X147066Y78757D01*
X150622Y78757D02*
X152993Y74016D01*
X161645Y84684D02*
X161747Y84682D01*
X161849Y84676D01*
X161951Y84666D01*
X162052Y84653D01*
X162153Y84635D01*
X162253Y84614D01*
X162352Y84589D01*
X162450Y84560D01*
X162546Y84527D01*
X162642Y84491D01*
X162736Y84451D01*
X162828Y84407D01*
X162919Y84360D01*
X163008Y84309D01*
X163095Y84256D01*
X163179Y84198D01*
X163262Y84138D01*
X163342Y84075D01*
X163419Y84008D01*
X163494Y83939D01*
X163567Y83866D01*
X163636Y83791D01*
X163703Y83714D01*
X163766Y83634D01*
X163826Y83551D01*
X163884Y83467D01*
X163937Y83380D01*
X163988Y83291D01*
X164035Y83200D01*
X164079Y83108D01*
X164119Y83014D01*
X164155Y82918D01*
X164188Y82822D01*
X164217Y82724D01*
X164242Y82625D01*
X164263Y82525D01*
X164281Y82424D01*
X164294Y82323D01*
X164304Y82221D01*
X164310Y82119D01*
X164312Y82017D01*
X161645Y84684D02*
X161529Y84682D01*
X161412Y84676D01*
X161296Y84666D01*
X161181Y84652D01*
X161066Y84635D01*
X160951Y84613D01*
X160838Y84587D01*
X160725Y84558D01*
X160613Y84525D01*
X160503Y84488D01*
X160394Y84447D01*
X160286Y84403D01*
X160180Y84355D01*
X160076Y84303D01*
X159973Y84248D01*
X159872Y84190D01*
X159774Y84128D01*
X159677Y84063D01*
X159583Y83994D01*
X159491Y83922D01*
X159402Y83848D01*
X159315Y83770D01*
X159231Y83689D01*
X159150Y83606D01*
X159072Y83520D01*
X158996Y83431D01*
X158924Y83340D01*
X158855Y83246D01*
X158789Y83150D01*
X158726Y83052D01*
X158667Y82952D01*
X158611Y82850D01*
X158559Y82746D01*
X158510Y82640D01*
X158465Y82533D01*
X158423Y82424D01*
X158386Y82314D01*
X163424Y79942D02*
X163499Y80016D01*
X163571Y80093D01*
X163640Y80173D01*
X163707Y80255D01*
X163770Y80339D01*
X163830Y80426D01*
X163887Y80514D01*
X163941Y80605D01*
X163991Y80698D01*
X164038Y80792D01*
X164081Y80888D01*
X164121Y80986D01*
X164157Y81085D01*
X164190Y81185D01*
X164218Y81287D01*
X164243Y81389D01*
X164265Y81493D01*
X164282Y81597D01*
X164296Y81701D01*
X164305Y81806D01*
X164311Y81912D01*
X164313Y82017D01*
X163423Y79943D02*
X158386Y74016D01*
X164312Y74016D01*
X356388Y148316D02*
X356388Y158984D01*
X359351Y158984D01*
X359458Y158982D01*
X359565Y158976D01*
X359671Y158967D01*
X359777Y158953D01*
X359883Y158936D01*
X359988Y158915D01*
X360092Y158890D01*
X360195Y158861D01*
X360297Y158829D01*
X360398Y158793D01*
X360497Y158753D01*
X360595Y158710D01*
X360691Y158663D01*
X360786Y158613D01*
X360879Y158560D01*
X360969Y158503D01*
X361058Y158443D01*
X361144Y158380D01*
X361228Y158314D01*
X361310Y158244D01*
X361389Y158172D01*
X361465Y158097D01*
X361539Y158019D01*
X361609Y157939D01*
X361677Y157856D01*
X361742Y157771D01*
X361803Y157684D01*
X361862Y157594D01*
X361917Y157502D01*
X361969Y157409D01*
X362017Y157313D01*
X362062Y157216D01*
X362104Y157118D01*
X362141Y157018D01*
X362176Y156916D01*
X362206Y156814D01*
X362233Y156710D01*
X362256Y156606D01*
X362275Y156500D01*
X362290Y156394D01*
X362302Y156288D01*
X362310Y156181D01*
X362314Y156074D01*
X362314Y155968D01*
X362310Y155861D01*
X362302Y155754D01*
X362290Y155648D01*
X362275Y155542D01*
X362256Y155436D01*
X362233Y155332D01*
X362206Y155228D01*
X362176Y155126D01*
X362141Y155024D01*
X362104Y154924D01*
X362062Y154826D01*
X362017Y154729D01*
X361969Y154633D01*
X361917Y154540D01*
X361862Y154448D01*
X361803Y154358D01*
X361742Y154271D01*
X361677Y154186D01*
X361609Y154103D01*
X361539Y154023D01*
X361465Y153945D01*
X361389Y153870D01*
X361310Y153798D01*
X361228Y153728D01*
X361144Y153662D01*
X361058Y153599D01*
X360969Y153539D01*
X360879Y153482D01*
X360786Y153429D01*
X360691Y153379D01*
X360595Y153332D01*
X360497Y153289D01*
X360398Y153249D01*
X360297Y153213D01*
X360195Y153181D01*
X360092Y153152D01*
X359988Y153127D01*
X359883Y153106D01*
X359777Y153089D01*
X359671Y153075D01*
X359565Y153066D01*
X359458Y153060D01*
X359351Y153058D01*
X359351Y153057D02*
X356388Y153057D01*
X359944Y153057D02*
X362314Y148316D01*
X367707Y148316D02*
X370671Y148316D01*
X370778Y148318D01*
X370885Y148324D01*
X370991Y148333D01*
X371097Y148347D01*
X371203Y148364D01*
X371308Y148385D01*
X371412Y148410D01*
X371515Y148439D01*
X371617Y148471D01*
X371718Y148507D01*
X371817Y148547D01*
X371915Y148590D01*
X372011Y148637D01*
X372106Y148687D01*
X372199Y148740D01*
X372289Y148797D01*
X372378Y148857D01*
X372464Y148920D01*
X372548Y148986D01*
X372630Y149056D01*
X372709Y149128D01*
X372785Y149203D01*
X372859Y149281D01*
X372929Y149361D01*
X372997Y149444D01*
X373062Y149529D01*
X373123Y149616D01*
X373182Y149706D01*
X373237Y149798D01*
X373289Y149891D01*
X373337Y149987D01*
X373382Y150084D01*
X373424Y150182D01*
X373461Y150282D01*
X373496Y150384D01*
X373526Y150486D01*
X373553Y150590D01*
X373576Y150694D01*
X373595Y150800D01*
X373610Y150906D01*
X373622Y151012D01*
X373630Y151119D01*
X373634Y151226D01*
X373634Y151332D01*
X373630Y151439D01*
X373622Y151546D01*
X373610Y151652D01*
X373595Y151758D01*
X373576Y151864D01*
X373553Y151968D01*
X373526Y152072D01*
X373496Y152174D01*
X373461Y152276D01*
X373424Y152376D01*
X373382Y152474D01*
X373337Y152571D01*
X373289Y152667D01*
X373237Y152760D01*
X373182Y152852D01*
X373123Y152942D01*
X373062Y153029D01*
X372997Y153114D01*
X372929Y153197D01*
X372859Y153277D01*
X372785Y153355D01*
X372709Y153430D01*
X372630Y153502D01*
X372548Y153572D01*
X372464Y153638D01*
X372378Y153701D01*
X372289Y153761D01*
X372199Y153818D01*
X372106Y153871D01*
X372011Y153921D01*
X371915Y153968D01*
X371817Y154011D01*
X371718Y154051D01*
X371617Y154087D01*
X371515Y154119D01*
X371412Y154148D01*
X371308Y154173D01*
X371203Y154194D01*
X371097Y154211D01*
X370991Y154225D01*
X370885Y154234D01*
X370778Y154240D01*
X370671Y154242D01*
X371263Y158984D02*
X367707Y158984D01*
X371263Y158984D02*
X371360Y158982D01*
X371456Y158976D01*
X371552Y158966D01*
X371648Y158952D01*
X371743Y158935D01*
X371838Y158913D01*
X371931Y158888D01*
X372023Y158859D01*
X372114Y158826D01*
X372204Y158789D01*
X372292Y158749D01*
X372378Y158705D01*
X372462Y158658D01*
X372545Y158608D01*
X372625Y158554D01*
X372703Y158496D01*
X372779Y158436D01*
X372852Y158373D01*
X372922Y158307D01*
X372990Y158237D01*
X373055Y158166D01*
X373117Y158091D01*
X373175Y158014D01*
X373231Y157935D01*
X373283Y157854D01*
X373332Y157770D01*
X373378Y157685D01*
X373420Y157598D01*
X373458Y157509D01*
X373493Y157419D01*
X373524Y157327D01*
X373551Y157234D01*
X373575Y157141D01*
X373594Y157046D01*
X373610Y156950D01*
X373622Y156854D01*
X373630Y156758D01*
X373634Y156661D01*
X373634Y156565D01*
X373630Y156468D01*
X373622Y156372D01*
X373610Y156276D01*
X373594Y156180D01*
X373575Y156085D01*
X373551Y155992D01*
X373524Y155899D01*
X373493Y155807D01*
X373458Y155717D01*
X373420Y155628D01*
X373378Y155541D01*
X373332Y155456D01*
X373283Y155372D01*
X373231Y155291D01*
X373175Y155212D01*
X373117Y155135D01*
X373055Y155060D01*
X372990Y154989D01*
X372922Y154919D01*
X372852Y154853D01*
X372779Y154790D01*
X372703Y154730D01*
X372625Y154672D01*
X372545Y154618D01*
X372462Y154568D01*
X372378Y154521D01*
X372292Y154477D01*
X372204Y154437D01*
X372114Y154400D01*
X372023Y154367D01*
X371931Y154338D01*
X371838Y154313D01*
X371743Y154291D01*
X371648Y154274D01*
X371552Y154260D01*
X371456Y154250D01*
X371360Y154244D01*
X371263Y154242D01*
X371263Y154243D02*
X368893Y154243D01*
X312166Y175016D02*
X312166Y185684D01*
X315129Y185684D01*
X315236Y185682D01*
X315343Y185676D01*
X315449Y185667D01*
X315555Y185653D01*
X315661Y185636D01*
X315766Y185615D01*
X315870Y185590D01*
X315973Y185561D01*
X316075Y185529D01*
X316176Y185493D01*
X316275Y185453D01*
X316373Y185410D01*
X316469Y185363D01*
X316564Y185313D01*
X316657Y185260D01*
X316747Y185203D01*
X316836Y185143D01*
X316922Y185080D01*
X317006Y185014D01*
X317088Y184944D01*
X317167Y184872D01*
X317243Y184797D01*
X317317Y184719D01*
X317387Y184639D01*
X317455Y184556D01*
X317520Y184471D01*
X317581Y184384D01*
X317640Y184294D01*
X317695Y184202D01*
X317747Y184109D01*
X317795Y184013D01*
X317840Y183916D01*
X317882Y183818D01*
X317919Y183718D01*
X317954Y183616D01*
X317984Y183514D01*
X318011Y183410D01*
X318034Y183306D01*
X318053Y183200D01*
X318068Y183094D01*
X318080Y182988D01*
X318088Y182881D01*
X318092Y182774D01*
X318092Y182668D01*
X318088Y182561D01*
X318080Y182454D01*
X318068Y182348D01*
X318053Y182242D01*
X318034Y182136D01*
X318011Y182032D01*
X317984Y181928D01*
X317954Y181826D01*
X317919Y181724D01*
X317882Y181624D01*
X317840Y181526D01*
X317795Y181429D01*
X317747Y181333D01*
X317695Y181240D01*
X317640Y181148D01*
X317581Y181058D01*
X317520Y180971D01*
X317455Y180886D01*
X317387Y180803D01*
X317317Y180723D01*
X317243Y180645D01*
X317167Y180570D01*
X317088Y180498D01*
X317006Y180428D01*
X316922Y180362D01*
X316836Y180299D01*
X316747Y180239D01*
X316657Y180182D01*
X316564Y180129D01*
X316469Y180079D01*
X316373Y180032D01*
X316275Y179989D01*
X316176Y179949D01*
X316075Y179913D01*
X315973Y179881D01*
X315870Y179852D01*
X315766Y179827D01*
X315661Y179806D01*
X315555Y179789D01*
X315449Y179775D01*
X315343Y179766D01*
X315236Y179760D01*
X315129Y179758D01*
X315129Y179757D02*
X312166Y179757D01*
X315722Y179757D02*
X318093Y175016D01*
X323486Y177387D02*
X325856Y185684D01*
X323486Y177387D02*
X329412Y177387D01*
X327634Y179757D02*
X327634Y175016D01*
X274066Y87884D02*
X274066Y77216D01*
X274066Y87884D02*
X277029Y87884D01*
X277136Y87882D01*
X277243Y87876D01*
X277349Y87867D01*
X277455Y87853D01*
X277561Y87836D01*
X277666Y87815D01*
X277770Y87790D01*
X277873Y87761D01*
X277975Y87729D01*
X278076Y87693D01*
X278175Y87653D01*
X278273Y87610D01*
X278369Y87563D01*
X278464Y87513D01*
X278557Y87460D01*
X278647Y87403D01*
X278736Y87343D01*
X278822Y87280D01*
X278906Y87214D01*
X278988Y87144D01*
X279067Y87072D01*
X279143Y86997D01*
X279217Y86919D01*
X279287Y86839D01*
X279355Y86756D01*
X279420Y86671D01*
X279481Y86584D01*
X279540Y86494D01*
X279595Y86402D01*
X279647Y86309D01*
X279695Y86213D01*
X279740Y86116D01*
X279782Y86018D01*
X279819Y85918D01*
X279854Y85816D01*
X279884Y85714D01*
X279911Y85610D01*
X279934Y85506D01*
X279953Y85400D01*
X279968Y85294D01*
X279980Y85188D01*
X279988Y85081D01*
X279992Y84974D01*
X279992Y84868D01*
X279988Y84761D01*
X279980Y84654D01*
X279968Y84548D01*
X279953Y84442D01*
X279934Y84336D01*
X279911Y84232D01*
X279884Y84128D01*
X279854Y84026D01*
X279819Y83924D01*
X279782Y83824D01*
X279740Y83726D01*
X279695Y83629D01*
X279647Y83533D01*
X279595Y83439D01*
X279540Y83348D01*
X279481Y83258D01*
X279420Y83171D01*
X279355Y83086D01*
X279287Y83003D01*
X279217Y82923D01*
X279143Y82845D01*
X279067Y82770D01*
X278988Y82698D01*
X278906Y82628D01*
X278822Y82562D01*
X278736Y82499D01*
X278647Y82439D01*
X278557Y82382D01*
X278464Y82329D01*
X278369Y82279D01*
X278273Y82232D01*
X278175Y82189D01*
X278076Y82149D01*
X277975Y82113D01*
X277873Y82081D01*
X277770Y82052D01*
X277666Y82027D01*
X277561Y82006D01*
X277455Y81989D01*
X277349Y81975D01*
X277243Y81966D01*
X277136Y81960D01*
X277029Y81958D01*
X277029Y81957D02*
X274066Y81957D01*
X277622Y81957D02*
X279993Y77216D01*
X285386Y77216D02*
X288942Y77216D01*
X289037Y77218D01*
X289133Y77224D01*
X289228Y77233D01*
X289322Y77247D01*
X289416Y77264D01*
X289509Y77285D01*
X289602Y77310D01*
X289693Y77338D01*
X289783Y77370D01*
X289871Y77406D01*
X289958Y77445D01*
X290044Y77488D01*
X290128Y77534D01*
X290209Y77583D01*
X290289Y77636D01*
X290366Y77692D01*
X290442Y77750D01*
X290514Y77812D01*
X290584Y77877D01*
X290652Y77945D01*
X290717Y78015D01*
X290779Y78087D01*
X290837Y78163D01*
X290893Y78240D01*
X290946Y78320D01*
X290995Y78402D01*
X291041Y78485D01*
X291084Y78571D01*
X291123Y78658D01*
X291159Y78746D01*
X291191Y78836D01*
X291219Y78927D01*
X291244Y79020D01*
X291265Y79113D01*
X291282Y79207D01*
X291296Y79301D01*
X291305Y79396D01*
X291311Y79492D01*
X291313Y79587D01*
X291312Y79587D02*
X291312Y80772D01*
X291313Y80772D02*
X291311Y80867D01*
X291305Y80963D01*
X291296Y81058D01*
X291282Y81152D01*
X291265Y81246D01*
X291244Y81339D01*
X291219Y81432D01*
X291191Y81523D01*
X291159Y81613D01*
X291123Y81701D01*
X291084Y81788D01*
X291041Y81874D01*
X290995Y81958D01*
X290946Y82039D01*
X290893Y82119D01*
X290837Y82196D01*
X290779Y82272D01*
X290717Y82344D01*
X290652Y82414D01*
X290584Y82482D01*
X290514Y82547D01*
X290442Y82609D01*
X290366Y82667D01*
X290289Y82723D01*
X290209Y82776D01*
X290128Y82825D01*
X290044Y82871D01*
X289958Y82914D01*
X289871Y82953D01*
X289783Y82989D01*
X289693Y83021D01*
X289602Y83049D01*
X289509Y83074D01*
X289416Y83095D01*
X289322Y83112D01*
X289228Y83126D01*
X289133Y83135D01*
X289037Y83141D01*
X288942Y83143D01*
X285386Y83143D01*
X285386Y87884D01*
X291312Y87884D01*
D15*
X294333Y103300D02*
X294333Y125300D01*
X315267Y125300D02*
X315267Y103300D01*
D12*
X276391Y106733D02*
X274020Y106733D01*
X273925Y106735D01*
X273829Y106741D01*
X273734Y106750D01*
X273640Y106764D01*
X273546Y106781D01*
X273453Y106802D01*
X273360Y106827D01*
X273269Y106855D01*
X273179Y106887D01*
X273091Y106923D01*
X273004Y106962D01*
X272918Y107005D01*
X272835Y107051D01*
X272753Y107100D01*
X272673Y107153D01*
X272596Y107209D01*
X272520Y107267D01*
X272448Y107329D01*
X272378Y107394D01*
X272310Y107462D01*
X272245Y107532D01*
X272183Y107604D01*
X272125Y107680D01*
X272069Y107757D01*
X272016Y107837D01*
X271967Y107919D01*
X271921Y108002D01*
X271878Y108088D01*
X271839Y108175D01*
X271803Y108263D01*
X271771Y108353D01*
X271743Y108444D01*
X271718Y108537D01*
X271697Y108630D01*
X271680Y108724D01*
X271666Y108818D01*
X271657Y108913D01*
X271651Y109009D01*
X271649Y109104D01*
X271649Y115030D01*
X271651Y115125D01*
X271657Y115221D01*
X271666Y115316D01*
X271680Y115410D01*
X271697Y115504D01*
X271718Y115597D01*
X271743Y115690D01*
X271771Y115781D01*
X271803Y115871D01*
X271839Y115959D01*
X271878Y116046D01*
X271921Y116132D01*
X271967Y116215D01*
X272016Y116297D01*
X272069Y116377D01*
X272125Y116454D01*
X272183Y116530D01*
X272245Y116602D01*
X272310Y116672D01*
X272378Y116740D01*
X272448Y116805D01*
X272520Y116867D01*
X272596Y116925D01*
X272673Y116981D01*
X272753Y117034D01*
X272834Y117083D01*
X272918Y117129D01*
X273004Y117172D01*
X273091Y117211D01*
X273179Y117247D01*
X273269Y117279D01*
X273360Y117307D01*
X273453Y117332D01*
X273546Y117353D01*
X273640Y117370D01*
X273734Y117384D01*
X273829Y117393D01*
X273924Y117399D01*
X274020Y117401D01*
X276391Y117401D01*
X284484Y117401D02*
X284586Y117399D01*
X284688Y117393D01*
X284790Y117383D01*
X284891Y117370D01*
X284992Y117352D01*
X285092Y117331D01*
X285191Y117306D01*
X285289Y117277D01*
X285385Y117244D01*
X285481Y117208D01*
X285575Y117168D01*
X285667Y117124D01*
X285758Y117077D01*
X285847Y117026D01*
X285934Y116973D01*
X286018Y116915D01*
X286101Y116855D01*
X286181Y116792D01*
X286258Y116725D01*
X286333Y116656D01*
X286406Y116583D01*
X286475Y116508D01*
X286542Y116431D01*
X286605Y116351D01*
X286665Y116268D01*
X286723Y116184D01*
X286776Y116097D01*
X286827Y116008D01*
X286874Y115917D01*
X286918Y115825D01*
X286958Y115731D01*
X286994Y115635D01*
X287027Y115539D01*
X287056Y115441D01*
X287081Y115342D01*
X287102Y115242D01*
X287120Y115141D01*
X287133Y115040D01*
X287143Y114938D01*
X287149Y114836D01*
X287151Y114734D01*
X284484Y117401D02*
X284368Y117399D01*
X284251Y117393D01*
X284135Y117383D01*
X284020Y117369D01*
X283905Y117352D01*
X283790Y117330D01*
X283677Y117304D01*
X283564Y117275D01*
X283452Y117242D01*
X283342Y117205D01*
X283233Y117164D01*
X283125Y117120D01*
X283019Y117072D01*
X282915Y117020D01*
X282812Y116965D01*
X282711Y116907D01*
X282613Y116845D01*
X282516Y116780D01*
X282422Y116711D01*
X282330Y116639D01*
X282241Y116565D01*
X282154Y116487D01*
X282070Y116406D01*
X281989Y116323D01*
X281911Y116237D01*
X281835Y116148D01*
X281763Y116057D01*
X281694Y115963D01*
X281628Y115867D01*
X281565Y115769D01*
X281506Y115669D01*
X281450Y115567D01*
X281398Y115463D01*
X281349Y115357D01*
X281304Y115250D01*
X281262Y115141D01*
X281225Y115031D01*
X286262Y112659D02*
X286337Y112733D01*
X286409Y112810D01*
X286478Y112890D01*
X286545Y112972D01*
X286608Y113056D01*
X286668Y113143D01*
X286725Y113231D01*
X286779Y113322D01*
X286829Y113415D01*
X286876Y113509D01*
X286919Y113605D01*
X286959Y113703D01*
X286995Y113802D01*
X287028Y113902D01*
X287056Y114004D01*
X287081Y114106D01*
X287103Y114210D01*
X287120Y114314D01*
X287134Y114418D01*
X287143Y114523D01*
X287149Y114629D01*
X287151Y114734D01*
X286262Y112660D02*
X281224Y106733D01*
X287151Y106733D01*
D14*
X269570Y152710D02*
X305117Y152710D01*
X305117Y177490D01*
X269570Y177490D01*
D12*
X270531Y185476D02*
X270531Y196144D01*
X273495Y196144D01*
X273601Y196142D01*
X273706Y196136D01*
X273812Y196127D01*
X273917Y196114D01*
X274021Y196097D01*
X274125Y196076D01*
X274228Y196052D01*
X274330Y196024D01*
X274431Y195992D01*
X274530Y195957D01*
X274629Y195918D01*
X274726Y195876D01*
X274821Y195831D01*
X274915Y195782D01*
X275007Y195729D01*
X275097Y195674D01*
X275185Y195615D01*
X275271Y195553D01*
X275354Y195488D01*
X275435Y195420D01*
X275514Y195350D01*
X275590Y195276D01*
X275664Y195200D01*
X275734Y195121D01*
X275802Y195040D01*
X275867Y194957D01*
X275929Y194871D01*
X275988Y194783D01*
X276043Y194693D01*
X276096Y194601D01*
X276145Y194507D01*
X276190Y194412D01*
X276232Y194315D01*
X276271Y194216D01*
X276306Y194117D01*
X276338Y194016D01*
X276366Y193914D01*
X276390Y193811D01*
X276411Y193707D01*
X276428Y193603D01*
X276441Y193498D01*
X276450Y193392D01*
X276456Y193287D01*
X276458Y193181D01*
X276458Y188439D01*
X276456Y188333D01*
X276450Y188228D01*
X276441Y188122D01*
X276428Y188017D01*
X276411Y187913D01*
X276390Y187809D01*
X276366Y187706D01*
X276338Y187604D01*
X276306Y187503D01*
X276271Y187404D01*
X276232Y187305D01*
X276190Y187208D01*
X276145Y187113D01*
X276096Y187019D01*
X276043Y186927D01*
X275988Y186837D01*
X275929Y186749D01*
X275867Y186663D01*
X275802Y186580D01*
X275734Y186499D01*
X275664Y186420D01*
X275590Y186344D01*
X275514Y186270D01*
X275435Y186200D01*
X275354Y186132D01*
X275271Y186067D01*
X275185Y186005D01*
X275097Y185946D01*
X275007Y185891D01*
X274915Y185838D01*
X274821Y185789D01*
X274726Y185744D01*
X274629Y185702D01*
X274530Y185663D01*
X274431Y185628D01*
X274330Y185596D01*
X274228Y185568D01*
X274125Y185544D01*
X274021Y185523D01*
X273917Y185506D01*
X273812Y185493D01*
X273706Y185484D01*
X273601Y185478D01*
X273495Y185476D01*
X270531Y185476D01*
X282342Y193773D02*
X285305Y196144D01*
X285305Y185476D01*
X282342Y185476D02*
X288269Y185476D01*
D14*
X320370Y190810D02*
X355917Y190810D01*
X355917Y215590D01*
X320370Y215590D01*
D12*
X321331Y223576D02*
X321331Y234244D01*
X324295Y234244D01*
X324401Y234242D01*
X324506Y234236D01*
X324612Y234227D01*
X324717Y234214D01*
X324821Y234197D01*
X324925Y234176D01*
X325028Y234152D01*
X325130Y234124D01*
X325231Y234092D01*
X325330Y234057D01*
X325429Y234018D01*
X325526Y233976D01*
X325621Y233931D01*
X325715Y233882D01*
X325807Y233829D01*
X325897Y233774D01*
X325985Y233715D01*
X326071Y233653D01*
X326154Y233588D01*
X326235Y233520D01*
X326314Y233450D01*
X326390Y233376D01*
X326464Y233300D01*
X326534Y233221D01*
X326602Y233140D01*
X326667Y233057D01*
X326729Y232971D01*
X326788Y232883D01*
X326843Y232793D01*
X326896Y232701D01*
X326945Y232607D01*
X326990Y232512D01*
X327032Y232415D01*
X327071Y232316D01*
X327106Y232217D01*
X327138Y232116D01*
X327166Y232014D01*
X327190Y231911D01*
X327211Y231807D01*
X327228Y231703D01*
X327241Y231598D01*
X327250Y231492D01*
X327256Y231387D01*
X327258Y231281D01*
X327258Y226539D01*
X327256Y226433D01*
X327250Y226328D01*
X327241Y226222D01*
X327228Y226117D01*
X327211Y226013D01*
X327190Y225909D01*
X327166Y225806D01*
X327138Y225704D01*
X327106Y225603D01*
X327071Y225504D01*
X327032Y225405D01*
X326990Y225308D01*
X326945Y225213D01*
X326896Y225119D01*
X326843Y225027D01*
X326788Y224937D01*
X326729Y224849D01*
X326667Y224763D01*
X326602Y224680D01*
X326534Y224599D01*
X326464Y224520D01*
X326390Y224444D01*
X326314Y224370D01*
X326235Y224300D01*
X326154Y224232D01*
X326071Y224167D01*
X325985Y224105D01*
X325897Y224046D01*
X325807Y223991D01*
X325715Y223938D01*
X325621Y223889D01*
X325526Y223844D01*
X325429Y223802D01*
X325330Y223763D01*
X325231Y223728D01*
X325130Y223696D01*
X325028Y223668D01*
X324925Y223644D01*
X324821Y223623D01*
X324717Y223606D01*
X324612Y223593D01*
X324506Y223584D01*
X324401Y223578D01*
X324295Y223576D01*
X321331Y223576D01*
X336402Y234244D02*
X336504Y234242D01*
X336606Y234236D01*
X336708Y234226D01*
X336809Y234213D01*
X336910Y234195D01*
X337010Y234174D01*
X337109Y234149D01*
X337207Y234120D01*
X337303Y234087D01*
X337399Y234051D01*
X337493Y234011D01*
X337585Y233967D01*
X337676Y233920D01*
X337765Y233869D01*
X337852Y233816D01*
X337936Y233758D01*
X338019Y233698D01*
X338099Y233635D01*
X338176Y233568D01*
X338251Y233499D01*
X338324Y233426D01*
X338393Y233351D01*
X338460Y233274D01*
X338523Y233194D01*
X338583Y233111D01*
X338641Y233027D01*
X338694Y232940D01*
X338745Y232851D01*
X338792Y232760D01*
X338836Y232668D01*
X338876Y232574D01*
X338912Y232478D01*
X338945Y232382D01*
X338974Y232284D01*
X338999Y232185D01*
X339020Y232085D01*
X339038Y231984D01*
X339051Y231883D01*
X339061Y231781D01*
X339067Y231679D01*
X339069Y231577D01*
X336402Y234244D02*
X336286Y234242D01*
X336169Y234236D01*
X336053Y234226D01*
X335938Y234212D01*
X335823Y234195D01*
X335708Y234173D01*
X335595Y234147D01*
X335482Y234118D01*
X335370Y234085D01*
X335260Y234048D01*
X335151Y234007D01*
X335043Y233963D01*
X334937Y233915D01*
X334833Y233863D01*
X334730Y233808D01*
X334629Y233750D01*
X334531Y233688D01*
X334434Y233623D01*
X334340Y233554D01*
X334248Y233482D01*
X334159Y233408D01*
X334072Y233330D01*
X333988Y233249D01*
X333907Y233166D01*
X333829Y233080D01*
X333753Y232991D01*
X333681Y232900D01*
X333612Y232806D01*
X333546Y232710D01*
X333483Y232612D01*
X333424Y232512D01*
X333368Y232410D01*
X333316Y232306D01*
X333267Y232200D01*
X333222Y232093D01*
X333180Y231984D01*
X333143Y231874D01*
X338180Y229502D02*
X338255Y229576D01*
X338327Y229653D01*
X338396Y229733D01*
X338463Y229815D01*
X338526Y229899D01*
X338586Y229986D01*
X338643Y230074D01*
X338697Y230165D01*
X338747Y230258D01*
X338794Y230352D01*
X338837Y230448D01*
X338877Y230546D01*
X338913Y230645D01*
X338946Y230745D01*
X338974Y230847D01*
X338999Y230949D01*
X339021Y231053D01*
X339038Y231157D01*
X339052Y231261D01*
X339061Y231366D01*
X339067Y231472D01*
X339069Y231577D01*
X338180Y229503D02*
X333142Y223576D01*
X339069Y223576D01*
D14*
X60390Y228917D02*
X60390Y193370D01*
X60390Y228917D02*
X35610Y228917D01*
X35610Y193370D01*
D12*
X64531Y197556D02*
X64531Y208224D01*
X67495Y208224D01*
X67601Y208222D01*
X67706Y208216D01*
X67812Y208207D01*
X67917Y208194D01*
X68021Y208177D01*
X68125Y208156D01*
X68228Y208132D01*
X68330Y208104D01*
X68431Y208072D01*
X68530Y208037D01*
X68629Y207998D01*
X68726Y207956D01*
X68821Y207911D01*
X68915Y207862D01*
X69007Y207809D01*
X69097Y207754D01*
X69185Y207695D01*
X69271Y207633D01*
X69354Y207568D01*
X69435Y207500D01*
X69514Y207430D01*
X69590Y207356D01*
X69664Y207280D01*
X69734Y207201D01*
X69802Y207120D01*
X69867Y207037D01*
X69929Y206951D01*
X69988Y206863D01*
X70043Y206773D01*
X70096Y206681D01*
X70145Y206587D01*
X70190Y206492D01*
X70232Y206395D01*
X70271Y206296D01*
X70306Y206197D01*
X70338Y206096D01*
X70366Y205994D01*
X70390Y205891D01*
X70411Y205787D01*
X70428Y205683D01*
X70441Y205578D01*
X70450Y205472D01*
X70456Y205367D01*
X70458Y205261D01*
X70458Y200519D01*
X70456Y200413D01*
X70450Y200308D01*
X70441Y200202D01*
X70428Y200097D01*
X70411Y199993D01*
X70390Y199889D01*
X70366Y199786D01*
X70338Y199684D01*
X70306Y199583D01*
X70271Y199484D01*
X70232Y199385D01*
X70190Y199288D01*
X70145Y199193D01*
X70096Y199099D01*
X70043Y199007D01*
X69988Y198917D01*
X69929Y198829D01*
X69867Y198743D01*
X69802Y198660D01*
X69734Y198579D01*
X69664Y198500D01*
X69590Y198424D01*
X69514Y198350D01*
X69435Y198280D01*
X69354Y198212D01*
X69271Y198147D01*
X69185Y198085D01*
X69097Y198026D01*
X69007Y197971D01*
X68915Y197918D01*
X68821Y197869D01*
X68726Y197824D01*
X68629Y197782D01*
X68530Y197743D01*
X68431Y197708D01*
X68330Y197676D01*
X68228Y197648D01*
X68125Y197624D01*
X68021Y197603D01*
X67917Y197586D01*
X67812Y197573D01*
X67706Y197564D01*
X67601Y197558D01*
X67495Y197556D01*
X64531Y197556D01*
X76342Y197556D02*
X79305Y197556D01*
X79412Y197558D01*
X79519Y197564D01*
X79625Y197573D01*
X79731Y197587D01*
X79837Y197604D01*
X79942Y197625D01*
X80046Y197650D01*
X80149Y197679D01*
X80251Y197711D01*
X80352Y197747D01*
X80451Y197787D01*
X80549Y197830D01*
X80645Y197877D01*
X80740Y197927D01*
X80833Y197980D01*
X80923Y198037D01*
X81012Y198097D01*
X81098Y198160D01*
X81182Y198226D01*
X81264Y198296D01*
X81343Y198368D01*
X81419Y198443D01*
X81493Y198521D01*
X81563Y198601D01*
X81631Y198684D01*
X81696Y198769D01*
X81757Y198856D01*
X81816Y198946D01*
X81871Y199038D01*
X81923Y199131D01*
X81971Y199227D01*
X82016Y199324D01*
X82058Y199422D01*
X82095Y199522D01*
X82130Y199624D01*
X82160Y199726D01*
X82187Y199830D01*
X82210Y199934D01*
X82229Y200040D01*
X82244Y200146D01*
X82256Y200252D01*
X82264Y200359D01*
X82268Y200466D01*
X82268Y200572D01*
X82264Y200679D01*
X82256Y200786D01*
X82244Y200892D01*
X82229Y200998D01*
X82210Y201104D01*
X82187Y201208D01*
X82160Y201312D01*
X82130Y201414D01*
X82095Y201516D01*
X82058Y201616D01*
X82016Y201714D01*
X81971Y201811D01*
X81923Y201907D01*
X81871Y202000D01*
X81816Y202092D01*
X81757Y202182D01*
X81696Y202269D01*
X81631Y202354D01*
X81563Y202437D01*
X81493Y202517D01*
X81419Y202595D01*
X81343Y202670D01*
X81264Y202742D01*
X81182Y202812D01*
X81098Y202878D01*
X81012Y202941D01*
X80923Y203001D01*
X80833Y203058D01*
X80740Y203111D01*
X80645Y203161D01*
X80549Y203208D01*
X80451Y203251D01*
X80352Y203291D01*
X80251Y203327D01*
X80149Y203359D01*
X80046Y203388D01*
X79942Y203413D01*
X79837Y203434D01*
X79731Y203451D01*
X79625Y203465D01*
X79519Y203474D01*
X79412Y203480D01*
X79305Y203482D01*
X79898Y208224D02*
X76342Y208224D01*
X79898Y208224D02*
X79995Y208222D01*
X80091Y208216D01*
X80187Y208206D01*
X80283Y208192D01*
X80378Y208175D01*
X80473Y208153D01*
X80566Y208128D01*
X80658Y208099D01*
X80749Y208066D01*
X80839Y208029D01*
X80927Y207989D01*
X81013Y207945D01*
X81097Y207898D01*
X81180Y207848D01*
X81260Y207794D01*
X81338Y207736D01*
X81414Y207676D01*
X81487Y207613D01*
X81557Y207547D01*
X81625Y207477D01*
X81690Y207406D01*
X81752Y207331D01*
X81810Y207254D01*
X81866Y207175D01*
X81918Y207094D01*
X81967Y207010D01*
X82013Y206925D01*
X82055Y206838D01*
X82093Y206749D01*
X82128Y206659D01*
X82159Y206567D01*
X82186Y206474D01*
X82210Y206381D01*
X82229Y206286D01*
X82245Y206190D01*
X82257Y206094D01*
X82265Y205998D01*
X82269Y205901D01*
X82269Y205805D01*
X82265Y205708D01*
X82257Y205612D01*
X82245Y205516D01*
X82229Y205420D01*
X82210Y205325D01*
X82186Y205232D01*
X82159Y205139D01*
X82128Y205047D01*
X82093Y204957D01*
X82055Y204868D01*
X82013Y204781D01*
X81967Y204696D01*
X81918Y204612D01*
X81866Y204531D01*
X81810Y204452D01*
X81752Y204375D01*
X81690Y204300D01*
X81625Y204229D01*
X81557Y204159D01*
X81487Y204093D01*
X81414Y204030D01*
X81338Y203970D01*
X81260Y203912D01*
X81180Y203858D01*
X81097Y203808D01*
X81013Y203761D01*
X80927Y203717D01*
X80839Y203677D01*
X80749Y203640D01*
X80658Y203607D01*
X80566Y203578D01*
X80473Y203553D01*
X80378Y203531D01*
X80283Y203514D01*
X80187Y203500D01*
X80091Y203490D01*
X79995Y203484D01*
X79898Y203482D01*
X79898Y203483D02*
X77527Y203483D01*
X64288Y318516D02*
X64288Y329184D01*
X67251Y329184D01*
X67358Y329182D01*
X67465Y329176D01*
X67571Y329167D01*
X67677Y329153D01*
X67783Y329136D01*
X67888Y329115D01*
X67992Y329090D01*
X68095Y329061D01*
X68197Y329029D01*
X68298Y328993D01*
X68397Y328953D01*
X68495Y328910D01*
X68591Y328863D01*
X68686Y328813D01*
X68779Y328760D01*
X68869Y328703D01*
X68958Y328643D01*
X69044Y328580D01*
X69128Y328514D01*
X69210Y328444D01*
X69289Y328372D01*
X69365Y328297D01*
X69439Y328219D01*
X69509Y328139D01*
X69577Y328056D01*
X69642Y327971D01*
X69703Y327884D01*
X69762Y327794D01*
X69817Y327703D01*
X69869Y327609D01*
X69917Y327513D01*
X69962Y327416D01*
X70004Y327318D01*
X70041Y327218D01*
X70076Y327116D01*
X70106Y327014D01*
X70133Y326910D01*
X70156Y326806D01*
X70175Y326700D01*
X70190Y326594D01*
X70202Y326488D01*
X70210Y326381D01*
X70214Y326274D01*
X70214Y326168D01*
X70210Y326061D01*
X70202Y325954D01*
X70190Y325848D01*
X70175Y325742D01*
X70156Y325636D01*
X70133Y325532D01*
X70106Y325428D01*
X70076Y325326D01*
X70041Y325224D01*
X70004Y325124D01*
X69962Y325026D01*
X69917Y324929D01*
X69869Y324833D01*
X69817Y324740D01*
X69762Y324648D01*
X69703Y324558D01*
X69642Y324471D01*
X69577Y324386D01*
X69509Y324303D01*
X69439Y324223D01*
X69365Y324145D01*
X69289Y324070D01*
X69210Y323998D01*
X69128Y323928D01*
X69044Y323862D01*
X68958Y323799D01*
X68869Y323739D01*
X68779Y323682D01*
X68686Y323629D01*
X68591Y323579D01*
X68495Y323532D01*
X68397Y323489D01*
X68298Y323449D01*
X68197Y323413D01*
X68095Y323381D01*
X67992Y323352D01*
X67888Y323327D01*
X67783Y323306D01*
X67677Y323289D01*
X67571Y323275D01*
X67465Y323266D01*
X67358Y323260D01*
X67251Y323258D01*
X67251Y323257D02*
X64288Y323257D01*
X67844Y323257D02*
X70214Y318516D01*
X75607Y324443D02*
X79163Y324443D01*
X79258Y324441D01*
X79354Y324435D01*
X79449Y324426D01*
X79543Y324412D01*
X79637Y324395D01*
X79730Y324374D01*
X79823Y324349D01*
X79914Y324321D01*
X80004Y324289D01*
X80092Y324253D01*
X80179Y324214D01*
X80265Y324171D01*
X80349Y324125D01*
X80430Y324076D01*
X80510Y324023D01*
X80587Y323967D01*
X80663Y323909D01*
X80735Y323847D01*
X80805Y323782D01*
X80873Y323714D01*
X80938Y323644D01*
X81000Y323572D01*
X81058Y323496D01*
X81114Y323419D01*
X81167Y323339D01*
X81216Y323258D01*
X81262Y323174D01*
X81305Y323088D01*
X81344Y323001D01*
X81380Y322913D01*
X81412Y322823D01*
X81440Y322732D01*
X81465Y322639D01*
X81486Y322546D01*
X81503Y322452D01*
X81517Y322358D01*
X81526Y322263D01*
X81532Y322167D01*
X81534Y322072D01*
X81534Y321479D01*
X81532Y321372D01*
X81526Y321265D01*
X81517Y321159D01*
X81503Y321053D01*
X81486Y320947D01*
X81465Y320842D01*
X81440Y320738D01*
X81411Y320635D01*
X81379Y320533D01*
X81343Y320432D01*
X81303Y320333D01*
X81260Y320235D01*
X81213Y320139D01*
X81163Y320044D01*
X81110Y319951D01*
X81053Y319861D01*
X80993Y319772D01*
X80930Y319686D01*
X80864Y319602D01*
X80794Y319520D01*
X80722Y319441D01*
X80647Y319365D01*
X80569Y319291D01*
X80489Y319221D01*
X80406Y319153D01*
X80321Y319088D01*
X80234Y319027D01*
X80144Y318968D01*
X80052Y318913D01*
X79959Y318861D01*
X79863Y318813D01*
X79766Y318768D01*
X79668Y318726D01*
X79568Y318689D01*
X79466Y318654D01*
X79364Y318624D01*
X79260Y318597D01*
X79156Y318574D01*
X79050Y318555D01*
X78944Y318540D01*
X78838Y318528D01*
X78731Y318520D01*
X78624Y318516D01*
X78518Y318516D01*
X78411Y318520D01*
X78304Y318528D01*
X78198Y318540D01*
X78092Y318555D01*
X77986Y318574D01*
X77882Y318597D01*
X77778Y318624D01*
X77676Y318654D01*
X77574Y318689D01*
X77474Y318726D01*
X77376Y318768D01*
X77279Y318813D01*
X77183Y318861D01*
X77089Y318913D01*
X76998Y318968D01*
X76908Y319027D01*
X76821Y319088D01*
X76736Y319153D01*
X76653Y319221D01*
X76573Y319291D01*
X76495Y319365D01*
X76420Y319441D01*
X76348Y319520D01*
X76278Y319602D01*
X76212Y319686D01*
X76149Y319772D01*
X76089Y319861D01*
X76032Y319951D01*
X75979Y320044D01*
X75929Y320139D01*
X75882Y320235D01*
X75839Y320333D01*
X75799Y320432D01*
X75763Y320533D01*
X75731Y320635D01*
X75702Y320738D01*
X75677Y320842D01*
X75656Y320947D01*
X75639Y321053D01*
X75625Y321159D01*
X75616Y321265D01*
X75610Y321372D01*
X75608Y321479D01*
X75607Y321479D02*
X75607Y324443D01*
X75608Y324443D02*
X75610Y324578D01*
X75616Y324714D01*
X75625Y324849D01*
X75639Y324983D01*
X75656Y325118D01*
X75677Y325251D01*
X75702Y325385D01*
X75731Y325517D01*
X75764Y325648D01*
X75800Y325779D01*
X75840Y325908D01*
X75884Y326036D01*
X75931Y326163D01*
X75982Y326289D01*
X76036Y326412D01*
X76094Y326535D01*
X76156Y326655D01*
X76221Y326774D01*
X76289Y326891D01*
X76361Y327006D01*
X76435Y327119D01*
X76513Y327230D01*
X76595Y327338D01*
X76679Y327444D01*
X76766Y327548D01*
X76856Y327649D01*
X76949Y327747D01*
X77045Y327843D01*
X77143Y327936D01*
X77244Y328026D01*
X77348Y328113D01*
X77454Y328197D01*
X77562Y328279D01*
X77673Y328357D01*
X77786Y328431D01*
X77901Y328503D01*
X78018Y328571D01*
X78137Y328636D01*
X78257Y328698D01*
X78379Y328756D01*
X78503Y328810D01*
X78629Y328861D01*
X78756Y328908D01*
X78884Y328952D01*
X79013Y328992D01*
X79144Y329028D01*
X79275Y329061D01*
X79407Y329090D01*
X79541Y329115D01*
X79674Y329136D01*
X79809Y329153D01*
X79943Y329167D01*
X80078Y329176D01*
X80214Y329182D01*
X80349Y329184D01*
X64288Y278384D02*
X64288Y267716D01*
X64288Y278384D02*
X67251Y278384D01*
X67358Y278382D01*
X67465Y278376D01*
X67571Y278367D01*
X67677Y278353D01*
X67783Y278336D01*
X67888Y278315D01*
X67992Y278290D01*
X68095Y278261D01*
X68197Y278229D01*
X68298Y278193D01*
X68397Y278153D01*
X68495Y278110D01*
X68591Y278063D01*
X68686Y278013D01*
X68779Y277960D01*
X68869Y277903D01*
X68958Y277843D01*
X69044Y277780D01*
X69128Y277714D01*
X69210Y277644D01*
X69289Y277572D01*
X69365Y277497D01*
X69439Y277419D01*
X69509Y277339D01*
X69577Y277256D01*
X69642Y277171D01*
X69703Y277084D01*
X69762Y276994D01*
X69817Y276903D01*
X69869Y276809D01*
X69917Y276713D01*
X69962Y276616D01*
X70004Y276518D01*
X70041Y276418D01*
X70076Y276316D01*
X70106Y276214D01*
X70133Y276110D01*
X70156Y276006D01*
X70175Y275900D01*
X70190Y275794D01*
X70202Y275688D01*
X70210Y275581D01*
X70214Y275474D01*
X70214Y275368D01*
X70210Y275261D01*
X70202Y275154D01*
X70190Y275048D01*
X70175Y274942D01*
X70156Y274836D01*
X70133Y274732D01*
X70106Y274628D01*
X70076Y274526D01*
X70041Y274424D01*
X70004Y274324D01*
X69962Y274226D01*
X69917Y274129D01*
X69869Y274033D01*
X69817Y273940D01*
X69762Y273848D01*
X69703Y273758D01*
X69642Y273671D01*
X69577Y273586D01*
X69509Y273503D01*
X69439Y273423D01*
X69365Y273345D01*
X69289Y273270D01*
X69210Y273198D01*
X69128Y273128D01*
X69044Y273062D01*
X68958Y272999D01*
X68869Y272939D01*
X68779Y272882D01*
X68686Y272829D01*
X68591Y272779D01*
X68495Y272732D01*
X68397Y272689D01*
X68298Y272649D01*
X68197Y272613D01*
X68095Y272581D01*
X67992Y272552D01*
X67888Y272527D01*
X67783Y272506D01*
X67677Y272489D01*
X67571Y272475D01*
X67465Y272466D01*
X67358Y272460D01*
X67251Y272458D01*
X67251Y272457D02*
X64288Y272457D01*
X67844Y272457D02*
X70214Y267716D01*
X75607Y277199D02*
X75607Y278384D01*
X81534Y278384D01*
X78571Y267716D01*
D15*
X53033Y74500D02*
X53033Y52500D01*
X73967Y52500D02*
X73967Y74500D01*
D12*
X60491Y31916D02*
X58120Y31916D01*
X58025Y31918D01*
X57929Y31924D01*
X57834Y31933D01*
X57740Y31947D01*
X57646Y31964D01*
X57553Y31985D01*
X57460Y32010D01*
X57369Y32038D01*
X57279Y32070D01*
X57191Y32106D01*
X57104Y32145D01*
X57018Y32188D01*
X56934Y32234D01*
X56853Y32283D01*
X56773Y32336D01*
X56696Y32392D01*
X56620Y32450D01*
X56548Y32512D01*
X56478Y32577D01*
X56410Y32645D01*
X56345Y32715D01*
X56283Y32787D01*
X56225Y32863D01*
X56169Y32940D01*
X56116Y33020D01*
X56067Y33102D01*
X56021Y33185D01*
X55978Y33271D01*
X55939Y33358D01*
X55903Y33446D01*
X55871Y33536D01*
X55843Y33627D01*
X55818Y33720D01*
X55797Y33813D01*
X55780Y33907D01*
X55766Y34001D01*
X55757Y34096D01*
X55751Y34192D01*
X55749Y34287D01*
X55749Y40213D01*
X55751Y40308D01*
X55757Y40404D01*
X55766Y40499D01*
X55780Y40593D01*
X55797Y40687D01*
X55818Y40780D01*
X55843Y40873D01*
X55871Y40964D01*
X55903Y41054D01*
X55939Y41142D01*
X55978Y41229D01*
X56021Y41315D01*
X56067Y41398D01*
X56116Y41480D01*
X56169Y41560D01*
X56225Y41637D01*
X56283Y41713D01*
X56345Y41785D01*
X56410Y41855D01*
X56478Y41923D01*
X56548Y41988D01*
X56620Y42050D01*
X56696Y42108D01*
X56773Y42164D01*
X56853Y42217D01*
X56934Y42266D01*
X57018Y42312D01*
X57104Y42355D01*
X57191Y42394D01*
X57279Y42430D01*
X57369Y42462D01*
X57460Y42490D01*
X57553Y42515D01*
X57646Y42536D01*
X57740Y42553D01*
X57834Y42567D01*
X57929Y42576D01*
X58024Y42582D01*
X58120Y42584D01*
X60491Y42584D01*
X65324Y31916D02*
X68287Y31916D01*
X68394Y31918D01*
X68501Y31924D01*
X68607Y31933D01*
X68713Y31947D01*
X68819Y31964D01*
X68924Y31985D01*
X69028Y32010D01*
X69131Y32039D01*
X69233Y32071D01*
X69334Y32107D01*
X69433Y32147D01*
X69531Y32190D01*
X69627Y32237D01*
X69722Y32287D01*
X69815Y32340D01*
X69905Y32397D01*
X69994Y32457D01*
X70080Y32520D01*
X70164Y32586D01*
X70246Y32656D01*
X70325Y32728D01*
X70401Y32803D01*
X70475Y32881D01*
X70545Y32961D01*
X70613Y33044D01*
X70678Y33129D01*
X70739Y33216D01*
X70798Y33306D01*
X70853Y33397D01*
X70905Y33491D01*
X70953Y33587D01*
X70998Y33684D01*
X71040Y33782D01*
X71077Y33882D01*
X71112Y33984D01*
X71142Y34086D01*
X71169Y34190D01*
X71192Y34294D01*
X71211Y34400D01*
X71226Y34506D01*
X71238Y34612D01*
X71246Y34719D01*
X71250Y34826D01*
X71250Y34932D01*
X71246Y35039D01*
X71238Y35146D01*
X71226Y35252D01*
X71211Y35358D01*
X71192Y35464D01*
X71169Y35568D01*
X71142Y35672D01*
X71112Y35774D01*
X71077Y35876D01*
X71040Y35976D01*
X70998Y36074D01*
X70953Y36171D01*
X70905Y36267D01*
X70853Y36360D01*
X70798Y36452D01*
X70739Y36542D01*
X70678Y36629D01*
X70613Y36714D01*
X70545Y36797D01*
X70475Y36877D01*
X70401Y36955D01*
X70325Y37030D01*
X70246Y37102D01*
X70164Y37172D01*
X70080Y37238D01*
X69994Y37301D01*
X69905Y37361D01*
X69815Y37418D01*
X69722Y37471D01*
X69627Y37521D01*
X69531Y37568D01*
X69433Y37611D01*
X69334Y37651D01*
X69233Y37687D01*
X69131Y37719D01*
X69028Y37748D01*
X68924Y37773D01*
X68819Y37794D01*
X68713Y37811D01*
X68607Y37825D01*
X68501Y37834D01*
X68394Y37840D01*
X68287Y37842D01*
X68880Y42584D02*
X65324Y42584D01*
X68880Y42584D02*
X68977Y42582D01*
X69073Y42576D01*
X69169Y42566D01*
X69265Y42552D01*
X69360Y42535D01*
X69455Y42513D01*
X69548Y42488D01*
X69640Y42459D01*
X69731Y42426D01*
X69821Y42389D01*
X69909Y42349D01*
X69995Y42305D01*
X70079Y42258D01*
X70162Y42208D01*
X70242Y42154D01*
X70320Y42096D01*
X70396Y42036D01*
X70469Y41973D01*
X70539Y41907D01*
X70607Y41837D01*
X70672Y41766D01*
X70734Y41691D01*
X70792Y41614D01*
X70848Y41535D01*
X70900Y41454D01*
X70949Y41370D01*
X70995Y41285D01*
X71037Y41198D01*
X71075Y41109D01*
X71110Y41019D01*
X71141Y40927D01*
X71168Y40834D01*
X71192Y40741D01*
X71211Y40646D01*
X71227Y40550D01*
X71239Y40454D01*
X71247Y40358D01*
X71251Y40261D01*
X71251Y40165D01*
X71247Y40068D01*
X71239Y39972D01*
X71227Y39876D01*
X71211Y39780D01*
X71192Y39685D01*
X71168Y39592D01*
X71141Y39499D01*
X71110Y39407D01*
X71075Y39317D01*
X71037Y39228D01*
X70995Y39141D01*
X70949Y39056D01*
X70900Y38972D01*
X70848Y38891D01*
X70792Y38812D01*
X70734Y38735D01*
X70672Y38660D01*
X70607Y38589D01*
X70539Y38519D01*
X70469Y38453D01*
X70396Y38390D01*
X70320Y38330D01*
X70242Y38272D01*
X70162Y38218D01*
X70079Y38168D01*
X69995Y38121D01*
X69909Y38077D01*
X69821Y38037D01*
X69731Y38000D01*
X69640Y37967D01*
X69548Y37938D01*
X69455Y37913D01*
X69360Y37891D01*
X69265Y37874D01*
X69169Y37860D01*
X69073Y37850D01*
X68977Y37844D01*
X68880Y37842D01*
X68880Y37843D02*
X66509Y37843D01*
D15*
X36400Y167320D02*
X14400Y167320D01*
X14400Y146386D02*
X36400Y146386D01*
D12*
X47620Y149286D02*
X49991Y149286D01*
X47620Y149286D02*
X47525Y149288D01*
X47429Y149294D01*
X47334Y149303D01*
X47240Y149317D01*
X47146Y149334D01*
X47053Y149355D01*
X46960Y149380D01*
X46869Y149408D01*
X46779Y149440D01*
X46691Y149476D01*
X46604Y149515D01*
X46518Y149558D01*
X46434Y149604D01*
X46353Y149653D01*
X46273Y149706D01*
X46196Y149762D01*
X46120Y149820D01*
X46048Y149882D01*
X45978Y149947D01*
X45910Y150015D01*
X45845Y150085D01*
X45783Y150157D01*
X45725Y150233D01*
X45669Y150310D01*
X45616Y150390D01*
X45567Y150472D01*
X45521Y150555D01*
X45478Y150641D01*
X45439Y150728D01*
X45403Y150816D01*
X45371Y150906D01*
X45343Y150997D01*
X45318Y151090D01*
X45297Y151183D01*
X45280Y151277D01*
X45266Y151371D01*
X45257Y151466D01*
X45251Y151562D01*
X45249Y151657D01*
X45249Y157583D01*
X45251Y157678D01*
X45257Y157774D01*
X45266Y157869D01*
X45280Y157963D01*
X45297Y158057D01*
X45318Y158150D01*
X45343Y158243D01*
X45371Y158334D01*
X45403Y158424D01*
X45439Y158512D01*
X45478Y158599D01*
X45521Y158685D01*
X45567Y158768D01*
X45616Y158850D01*
X45669Y158930D01*
X45725Y159007D01*
X45783Y159083D01*
X45845Y159155D01*
X45910Y159225D01*
X45978Y159293D01*
X46048Y159358D01*
X46120Y159420D01*
X46196Y159478D01*
X46273Y159534D01*
X46353Y159587D01*
X46434Y159636D01*
X46518Y159682D01*
X46604Y159725D01*
X46691Y159764D01*
X46779Y159800D01*
X46869Y159832D01*
X46960Y159860D01*
X47053Y159885D01*
X47146Y159906D01*
X47240Y159923D01*
X47334Y159937D01*
X47429Y159946D01*
X47524Y159952D01*
X47620Y159954D01*
X49991Y159954D01*
X57195Y159954D02*
X54824Y151657D01*
X60751Y151657D01*
X58973Y154027D02*
X58973Y149286D01*
X6540Y68834D02*
X6540Y61129D01*
X6541Y61129D02*
X6543Y61022D01*
X6549Y60915D01*
X6558Y60809D01*
X6572Y60703D01*
X6589Y60597D01*
X6610Y60492D01*
X6635Y60388D01*
X6664Y60285D01*
X6696Y60183D01*
X6732Y60082D01*
X6772Y59983D01*
X6815Y59885D01*
X6862Y59789D01*
X6912Y59694D01*
X6965Y59601D01*
X7022Y59511D01*
X7082Y59422D01*
X7145Y59336D01*
X7211Y59252D01*
X7281Y59170D01*
X7353Y59091D01*
X7428Y59015D01*
X7506Y58941D01*
X7586Y58871D01*
X7669Y58803D01*
X7754Y58738D01*
X7841Y58677D01*
X7931Y58618D01*
X8022Y58563D01*
X8116Y58511D01*
X8212Y58463D01*
X8309Y58418D01*
X8407Y58376D01*
X8507Y58339D01*
X8609Y58304D01*
X8711Y58274D01*
X8815Y58247D01*
X8919Y58224D01*
X9025Y58205D01*
X9131Y58190D01*
X9237Y58178D01*
X9344Y58170D01*
X9451Y58166D01*
X9557Y58166D01*
X9664Y58170D01*
X9771Y58178D01*
X9877Y58190D01*
X9983Y58205D01*
X10089Y58224D01*
X10193Y58247D01*
X10297Y58274D01*
X10399Y58304D01*
X10501Y58339D01*
X10601Y58376D01*
X10699Y58418D01*
X10796Y58463D01*
X10892Y58511D01*
X10985Y58563D01*
X11077Y58618D01*
X11167Y58677D01*
X11254Y58738D01*
X11339Y58803D01*
X11422Y58871D01*
X11502Y58941D01*
X11580Y59015D01*
X11655Y59091D01*
X11727Y59170D01*
X11797Y59252D01*
X11863Y59336D01*
X11926Y59422D01*
X11986Y59511D01*
X12043Y59601D01*
X12096Y59694D01*
X12146Y59789D01*
X12193Y59885D01*
X12236Y59983D01*
X12276Y60082D01*
X12312Y60183D01*
X12344Y60285D01*
X12373Y60388D01*
X12398Y60492D01*
X12419Y60597D01*
X12436Y60703D01*
X12450Y60809D01*
X12459Y60915D01*
X12465Y61022D01*
X12467Y61129D01*
X12467Y68834D01*
X20553Y68834D02*
X20553Y58166D01*
X20553Y63500D02*
X19071Y64389D01*
X19002Y64433D01*
X18934Y64480D01*
X18869Y64531D01*
X18806Y64584D01*
X18746Y64640D01*
X18688Y64699D01*
X18633Y64761D01*
X18582Y64825D01*
X18533Y64891D01*
X18487Y64959D01*
X18445Y65030D01*
X18405Y65103D01*
X18370Y65177D01*
X18337Y65253D01*
X18309Y65330D01*
X18284Y65408D01*
X18262Y65488D01*
X18245Y65568D01*
X18231Y65650D01*
X18221Y65731D01*
X18214Y65813D01*
X18212Y65896D01*
X18213Y65978D01*
X18219Y66060D01*
X18228Y66142D01*
X18241Y66224D01*
X18257Y66304D01*
X18278Y66384D01*
X18302Y66463D01*
X18329Y66541D01*
X18361Y66617D01*
X18395Y66691D01*
X18434Y66764D01*
X18475Y66836D01*
X18520Y66905D01*
X18568Y66972D01*
X18619Y67036D01*
X18673Y67098D01*
X18730Y67158D01*
X18789Y67215D01*
X18852Y67269D01*
X18916Y67320D01*
X18983Y67368D01*
X19052Y67413D01*
X19123Y67455D01*
X19196Y67493D01*
X19271Y67528D01*
X19347Y67559D01*
X19425Y67587D01*
X19503Y67611D01*
X19583Y67631D01*
X19664Y67648D01*
X19664Y67649D02*
X19798Y67671D01*
X19932Y67690D01*
X20066Y67704D01*
X20201Y67715D01*
X20337Y67722D01*
X20472Y67725D01*
X20608Y67724D01*
X20743Y67719D01*
X20878Y67710D01*
X21013Y67698D01*
X21147Y67681D01*
X21281Y67661D01*
X21414Y67637D01*
X21547Y67609D01*
X21678Y67577D01*
X21809Y67541D01*
X21939Y67502D01*
X22067Y67459D01*
X22194Y67412D01*
X22320Y67361D01*
X22444Y67307D01*
X22567Y67250D01*
X22687Y67189D01*
X22806Y67124D01*
X22924Y67056D01*
X20553Y63500D02*
X22034Y62611D01*
X22103Y62567D01*
X22171Y62520D01*
X22236Y62469D01*
X22299Y62416D01*
X22359Y62360D01*
X22417Y62301D01*
X22472Y62239D01*
X22523Y62175D01*
X22572Y62109D01*
X22618Y62041D01*
X22660Y61970D01*
X22700Y61897D01*
X22735Y61823D01*
X22768Y61747D01*
X22796Y61670D01*
X22821Y61592D01*
X22843Y61512D01*
X22860Y61432D01*
X22874Y61350D01*
X22884Y61269D01*
X22891Y61187D01*
X22893Y61104D01*
X22892Y61022D01*
X22886Y60940D01*
X22877Y60858D01*
X22864Y60776D01*
X22848Y60696D01*
X22827Y60616D01*
X22803Y60537D01*
X22776Y60459D01*
X22744Y60383D01*
X22710Y60309D01*
X22671Y60236D01*
X22630Y60164D01*
X22585Y60095D01*
X22537Y60028D01*
X22486Y59964D01*
X22432Y59902D01*
X22375Y59842D01*
X22316Y59785D01*
X22253Y59731D01*
X22189Y59680D01*
X22122Y59632D01*
X22053Y59587D01*
X21982Y59545D01*
X21909Y59507D01*
X21834Y59472D01*
X21758Y59441D01*
X21680Y59413D01*
X21602Y59389D01*
X21522Y59369D01*
X21441Y59352D01*
X21442Y59351D02*
X21308Y59329D01*
X21174Y59310D01*
X21040Y59296D01*
X20905Y59285D01*
X20769Y59278D01*
X20634Y59275D01*
X20498Y59276D01*
X20363Y59281D01*
X20228Y59290D01*
X20093Y59302D01*
X19959Y59319D01*
X19825Y59339D01*
X19692Y59363D01*
X19559Y59391D01*
X19427Y59423D01*
X19297Y59459D01*
X19167Y59498D01*
X19039Y59541D01*
X18912Y59588D01*
X18786Y59639D01*
X18662Y59693D01*
X18539Y59750D01*
X18419Y59812D01*
X18299Y59876D01*
X18182Y59944D01*
X28257Y66463D02*
X31221Y68834D01*
X31221Y58166D01*
X34184Y58166D02*
X28257Y58166D01*
D15*
X36400Y140467D02*
X14400Y140467D01*
X14400Y119533D02*
X36400Y119533D01*
D12*
X47620Y126416D02*
X49991Y126416D01*
X47620Y126416D02*
X47525Y126418D01*
X47429Y126424D01*
X47334Y126433D01*
X47240Y126447D01*
X47146Y126464D01*
X47053Y126485D01*
X46960Y126510D01*
X46869Y126538D01*
X46779Y126570D01*
X46691Y126606D01*
X46604Y126645D01*
X46518Y126688D01*
X46434Y126734D01*
X46353Y126783D01*
X46273Y126836D01*
X46196Y126892D01*
X46120Y126950D01*
X46048Y127012D01*
X45978Y127077D01*
X45910Y127145D01*
X45845Y127215D01*
X45783Y127287D01*
X45725Y127363D01*
X45669Y127440D01*
X45616Y127520D01*
X45567Y127602D01*
X45521Y127685D01*
X45478Y127771D01*
X45439Y127858D01*
X45403Y127946D01*
X45371Y128036D01*
X45343Y128127D01*
X45318Y128220D01*
X45297Y128313D01*
X45280Y128407D01*
X45266Y128501D01*
X45257Y128596D01*
X45251Y128692D01*
X45249Y128787D01*
X45249Y134713D01*
X45251Y134808D01*
X45257Y134904D01*
X45266Y134999D01*
X45280Y135093D01*
X45297Y135187D01*
X45318Y135280D01*
X45343Y135373D01*
X45371Y135464D01*
X45403Y135554D01*
X45439Y135642D01*
X45478Y135729D01*
X45521Y135815D01*
X45567Y135898D01*
X45616Y135980D01*
X45669Y136060D01*
X45725Y136137D01*
X45783Y136213D01*
X45845Y136285D01*
X45910Y136355D01*
X45978Y136423D01*
X46048Y136488D01*
X46120Y136550D01*
X46196Y136608D01*
X46273Y136664D01*
X46353Y136717D01*
X46434Y136766D01*
X46518Y136812D01*
X46604Y136855D01*
X46691Y136894D01*
X46779Y136930D01*
X46869Y136962D01*
X46960Y136990D01*
X47053Y137015D01*
X47146Y137036D01*
X47240Y137053D01*
X47334Y137067D01*
X47429Y137076D01*
X47524Y137082D01*
X47620Y137084D01*
X49991Y137084D01*
X54824Y126416D02*
X58380Y126416D01*
X58475Y126418D01*
X58571Y126424D01*
X58666Y126433D01*
X58760Y126447D01*
X58854Y126464D01*
X58947Y126485D01*
X59040Y126510D01*
X59131Y126538D01*
X59221Y126570D01*
X59309Y126606D01*
X59396Y126645D01*
X59482Y126688D01*
X59566Y126734D01*
X59647Y126783D01*
X59727Y126836D01*
X59804Y126892D01*
X59880Y126950D01*
X59952Y127012D01*
X60022Y127077D01*
X60090Y127145D01*
X60155Y127215D01*
X60217Y127287D01*
X60275Y127363D01*
X60331Y127440D01*
X60384Y127520D01*
X60433Y127602D01*
X60479Y127685D01*
X60522Y127771D01*
X60561Y127858D01*
X60597Y127946D01*
X60629Y128036D01*
X60657Y128127D01*
X60682Y128220D01*
X60703Y128313D01*
X60720Y128407D01*
X60734Y128501D01*
X60743Y128596D01*
X60749Y128692D01*
X60751Y128787D01*
X60751Y129972D01*
X60749Y130067D01*
X60743Y130163D01*
X60734Y130258D01*
X60720Y130352D01*
X60703Y130446D01*
X60682Y130539D01*
X60657Y130632D01*
X60629Y130723D01*
X60597Y130813D01*
X60561Y130901D01*
X60522Y130988D01*
X60479Y131074D01*
X60433Y131158D01*
X60384Y131239D01*
X60331Y131319D01*
X60275Y131396D01*
X60217Y131472D01*
X60155Y131544D01*
X60090Y131614D01*
X60022Y131682D01*
X59952Y131747D01*
X59880Y131809D01*
X59804Y131867D01*
X59727Y131923D01*
X59647Y131976D01*
X59566Y132025D01*
X59482Y132071D01*
X59396Y132114D01*
X59309Y132153D01*
X59221Y132189D01*
X59131Y132221D01*
X59040Y132249D01*
X58947Y132274D01*
X58854Y132295D01*
X58760Y132312D01*
X58666Y132326D01*
X58571Y132335D01*
X58475Y132341D01*
X58380Y132343D01*
X54824Y132343D01*
X54824Y137084D01*
X60751Y137084D01*
X76988Y11684D02*
X76988Y1016D01*
X76988Y11684D02*
X79951Y11684D01*
X80058Y11682D01*
X80165Y11676D01*
X80271Y11667D01*
X80377Y11653D01*
X80483Y11636D01*
X80588Y11615D01*
X80692Y11590D01*
X80795Y11561D01*
X80897Y11529D01*
X80998Y11493D01*
X81097Y11453D01*
X81195Y11410D01*
X81291Y11363D01*
X81386Y11313D01*
X81479Y11260D01*
X81569Y11203D01*
X81658Y11143D01*
X81744Y11080D01*
X81828Y11014D01*
X81910Y10944D01*
X81989Y10872D01*
X82065Y10797D01*
X82139Y10719D01*
X82209Y10639D01*
X82277Y10556D01*
X82342Y10471D01*
X82403Y10384D01*
X82462Y10294D01*
X82517Y10202D01*
X82569Y10109D01*
X82617Y10013D01*
X82662Y9916D01*
X82704Y9818D01*
X82741Y9718D01*
X82776Y9616D01*
X82806Y9514D01*
X82833Y9410D01*
X82856Y9306D01*
X82875Y9200D01*
X82890Y9094D01*
X82902Y8988D01*
X82910Y8881D01*
X82914Y8774D01*
X82914Y8668D01*
X82910Y8561D01*
X82902Y8454D01*
X82890Y8348D01*
X82875Y8242D01*
X82856Y8136D01*
X82833Y8032D01*
X82806Y7928D01*
X82776Y7826D01*
X82741Y7724D01*
X82704Y7624D01*
X82662Y7526D01*
X82617Y7429D01*
X82569Y7333D01*
X82517Y7239D01*
X82462Y7148D01*
X82403Y7058D01*
X82342Y6971D01*
X82277Y6886D01*
X82209Y6803D01*
X82139Y6723D01*
X82065Y6645D01*
X81989Y6570D01*
X81910Y6498D01*
X81828Y6428D01*
X81744Y6362D01*
X81658Y6299D01*
X81569Y6239D01*
X81479Y6182D01*
X81386Y6129D01*
X81291Y6079D01*
X81195Y6032D01*
X81097Y5989D01*
X80998Y5949D01*
X80897Y5913D01*
X80795Y5881D01*
X80692Y5852D01*
X80588Y5827D01*
X80483Y5806D01*
X80377Y5789D01*
X80271Y5775D01*
X80165Y5766D01*
X80058Y5760D01*
X79951Y5758D01*
X79951Y5757D02*
X76988Y5757D01*
X80544Y5757D02*
X82914Y1016D01*
X88308Y3979D02*
X88310Y4086D01*
X88316Y4193D01*
X88325Y4299D01*
X88339Y4405D01*
X88356Y4511D01*
X88377Y4616D01*
X88402Y4720D01*
X88431Y4823D01*
X88463Y4925D01*
X88499Y5026D01*
X88539Y5125D01*
X88582Y5223D01*
X88629Y5319D01*
X88679Y5414D01*
X88732Y5507D01*
X88789Y5597D01*
X88849Y5686D01*
X88912Y5772D01*
X88978Y5856D01*
X89048Y5938D01*
X89120Y6017D01*
X89195Y6093D01*
X89273Y6167D01*
X89353Y6237D01*
X89436Y6305D01*
X89521Y6370D01*
X89608Y6431D01*
X89698Y6490D01*
X89790Y6545D01*
X89883Y6597D01*
X89979Y6645D01*
X90076Y6690D01*
X90174Y6732D01*
X90274Y6769D01*
X90376Y6804D01*
X90478Y6834D01*
X90582Y6861D01*
X90686Y6884D01*
X90792Y6903D01*
X90898Y6918D01*
X91004Y6930D01*
X91111Y6938D01*
X91218Y6942D01*
X91324Y6942D01*
X91431Y6938D01*
X91538Y6930D01*
X91644Y6918D01*
X91750Y6903D01*
X91856Y6884D01*
X91960Y6861D01*
X92064Y6834D01*
X92166Y6804D01*
X92268Y6769D01*
X92368Y6732D01*
X92466Y6690D01*
X92563Y6645D01*
X92659Y6597D01*
X92753Y6545D01*
X92844Y6490D01*
X92934Y6431D01*
X93021Y6370D01*
X93106Y6305D01*
X93189Y6237D01*
X93269Y6167D01*
X93347Y6093D01*
X93422Y6017D01*
X93494Y5938D01*
X93564Y5856D01*
X93630Y5772D01*
X93693Y5686D01*
X93753Y5597D01*
X93810Y5507D01*
X93863Y5414D01*
X93913Y5319D01*
X93960Y5223D01*
X94003Y5125D01*
X94043Y5026D01*
X94079Y4925D01*
X94111Y4823D01*
X94140Y4720D01*
X94165Y4616D01*
X94186Y4511D01*
X94203Y4405D01*
X94217Y4299D01*
X94226Y4193D01*
X94232Y4086D01*
X94234Y3979D01*
X94232Y3872D01*
X94226Y3765D01*
X94217Y3659D01*
X94203Y3553D01*
X94186Y3447D01*
X94165Y3342D01*
X94140Y3238D01*
X94111Y3135D01*
X94079Y3033D01*
X94043Y2932D01*
X94003Y2833D01*
X93960Y2735D01*
X93913Y2639D01*
X93863Y2544D01*
X93810Y2451D01*
X93753Y2361D01*
X93693Y2272D01*
X93630Y2186D01*
X93564Y2102D01*
X93494Y2020D01*
X93422Y1941D01*
X93347Y1865D01*
X93269Y1791D01*
X93189Y1721D01*
X93106Y1653D01*
X93021Y1588D01*
X92934Y1527D01*
X92844Y1468D01*
X92752Y1413D01*
X92659Y1361D01*
X92563Y1313D01*
X92466Y1268D01*
X92368Y1226D01*
X92268Y1189D01*
X92166Y1154D01*
X92064Y1124D01*
X91960Y1097D01*
X91856Y1074D01*
X91750Y1055D01*
X91644Y1040D01*
X91538Y1028D01*
X91431Y1020D01*
X91324Y1016D01*
X91218Y1016D01*
X91111Y1020D01*
X91004Y1028D01*
X90898Y1040D01*
X90792Y1055D01*
X90686Y1074D01*
X90582Y1097D01*
X90478Y1124D01*
X90376Y1154D01*
X90274Y1189D01*
X90174Y1226D01*
X90076Y1268D01*
X89979Y1313D01*
X89883Y1361D01*
X89789Y1413D01*
X89698Y1468D01*
X89608Y1527D01*
X89521Y1588D01*
X89436Y1653D01*
X89353Y1721D01*
X89273Y1791D01*
X89195Y1865D01*
X89120Y1941D01*
X89048Y2020D01*
X88978Y2102D01*
X88912Y2186D01*
X88849Y2272D01*
X88789Y2361D01*
X88732Y2451D01*
X88679Y2544D01*
X88629Y2639D01*
X88582Y2735D01*
X88539Y2833D01*
X88499Y2932D01*
X88463Y3033D01*
X88431Y3135D01*
X88402Y3238D01*
X88377Y3342D01*
X88356Y3447D01*
X88339Y3553D01*
X88325Y3659D01*
X88316Y3765D01*
X88310Y3872D01*
X88308Y3979D01*
X88900Y9313D02*
X88902Y9410D01*
X88908Y9506D01*
X88918Y9602D01*
X88932Y9698D01*
X88949Y9793D01*
X88971Y9888D01*
X88996Y9981D01*
X89025Y10073D01*
X89058Y10164D01*
X89095Y10254D01*
X89135Y10342D01*
X89179Y10428D01*
X89226Y10512D01*
X89276Y10595D01*
X89330Y10675D01*
X89388Y10753D01*
X89448Y10829D01*
X89511Y10902D01*
X89577Y10972D01*
X89647Y11040D01*
X89718Y11105D01*
X89793Y11167D01*
X89870Y11225D01*
X89949Y11281D01*
X90030Y11333D01*
X90114Y11382D01*
X90199Y11428D01*
X90286Y11470D01*
X90375Y11508D01*
X90465Y11543D01*
X90557Y11574D01*
X90650Y11601D01*
X90743Y11625D01*
X90838Y11644D01*
X90934Y11660D01*
X91030Y11672D01*
X91126Y11680D01*
X91223Y11684D01*
X91319Y11684D01*
X91416Y11680D01*
X91512Y11672D01*
X91608Y11660D01*
X91704Y11644D01*
X91799Y11625D01*
X91892Y11601D01*
X91985Y11574D01*
X92077Y11543D01*
X92167Y11508D01*
X92256Y11470D01*
X92343Y11428D01*
X92428Y11382D01*
X92512Y11333D01*
X92593Y11281D01*
X92672Y11225D01*
X92749Y11167D01*
X92824Y11105D01*
X92895Y11040D01*
X92965Y10972D01*
X93031Y10902D01*
X93094Y10829D01*
X93154Y10753D01*
X93212Y10675D01*
X93266Y10595D01*
X93316Y10512D01*
X93363Y10428D01*
X93407Y10342D01*
X93447Y10254D01*
X93484Y10164D01*
X93517Y10073D01*
X93546Y9981D01*
X93571Y9888D01*
X93593Y9793D01*
X93610Y9698D01*
X93624Y9602D01*
X93634Y9506D01*
X93640Y9410D01*
X93642Y9313D01*
X93640Y9216D01*
X93634Y9120D01*
X93624Y9024D01*
X93610Y8928D01*
X93593Y8833D01*
X93571Y8738D01*
X93546Y8645D01*
X93517Y8553D01*
X93484Y8462D01*
X93447Y8372D01*
X93407Y8284D01*
X93363Y8198D01*
X93316Y8114D01*
X93266Y8031D01*
X93212Y7951D01*
X93154Y7873D01*
X93094Y7797D01*
X93031Y7724D01*
X92965Y7654D01*
X92895Y7586D01*
X92824Y7521D01*
X92749Y7459D01*
X92672Y7401D01*
X92593Y7345D01*
X92512Y7293D01*
X92428Y7244D01*
X92343Y7198D01*
X92256Y7156D01*
X92167Y7118D01*
X92077Y7083D01*
X91985Y7052D01*
X91892Y7025D01*
X91799Y7001D01*
X91704Y6982D01*
X91608Y6966D01*
X91512Y6954D01*
X91416Y6946D01*
X91319Y6942D01*
X91223Y6942D01*
X91126Y6946D01*
X91030Y6954D01*
X90934Y6966D01*
X90838Y6982D01*
X90743Y7001D01*
X90650Y7025D01*
X90557Y7052D01*
X90465Y7083D01*
X90375Y7118D01*
X90286Y7156D01*
X90199Y7198D01*
X90114Y7244D01*
X90030Y7293D01*
X89949Y7345D01*
X89870Y7401D01*
X89793Y7459D01*
X89718Y7521D01*
X89647Y7586D01*
X89577Y7654D01*
X89511Y7724D01*
X89448Y7797D01*
X89388Y7873D01*
X89330Y7951D01*
X89276Y8031D01*
X89226Y8114D01*
X89179Y8198D01*
X89135Y8284D01*
X89095Y8372D01*
X89058Y8462D01*
X89025Y8553D01*
X88996Y8645D01*
X88971Y8738D01*
X88949Y8833D01*
X88932Y8928D01*
X88918Y9024D01*
X88908Y9120D01*
X88902Y9216D01*
X88900Y9313D01*
X89688Y140716D02*
X89688Y151384D01*
X92651Y151384D01*
X92758Y151382D01*
X92865Y151376D01*
X92971Y151367D01*
X93077Y151353D01*
X93183Y151336D01*
X93288Y151315D01*
X93392Y151290D01*
X93495Y151261D01*
X93597Y151229D01*
X93698Y151193D01*
X93797Y151153D01*
X93895Y151110D01*
X93991Y151063D01*
X94086Y151013D01*
X94179Y150960D01*
X94269Y150903D01*
X94358Y150843D01*
X94444Y150780D01*
X94528Y150714D01*
X94610Y150644D01*
X94689Y150572D01*
X94765Y150497D01*
X94839Y150419D01*
X94909Y150339D01*
X94977Y150256D01*
X95042Y150171D01*
X95103Y150084D01*
X95162Y149994D01*
X95217Y149902D01*
X95269Y149809D01*
X95317Y149713D01*
X95362Y149616D01*
X95404Y149518D01*
X95441Y149418D01*
X95476Y149316D01*
X95506Y149214D01*
X95533Y149110D01*
X95556Y149006D01*
X95575Y148900D01*
X95590Y148794D01*
X95602Y148688D01*
X95610Y148581D01*
X95614Y148474D01*
X95614Y148368D01*
X95610Y148261D01*
X95602Y148154D01*
X95590Y148048D01*
X95575Y147942D01*
X95556Y147836D01*
X95533Y147732D01*
X95506Y147628D01*
X95476Y147526D01*
X95441Y147424D01*
X95404Y147324D01*
X95362Y147226D01*
X95317Y147129D01*
X95269Y147033D01*
X95217Y146940D01*
X95162Y146848D01*
X95103Y146758D01*
X95042Y146671D01*
X94977Y146586D01*
X94909Y146503D01*
X94839Y146423D01*
X94765Y146345D01*
X94689Y146270D01*
X94610Y146198D01*
X94528Y146128D01*
X94444Y146062D01*
X94358Y145999D01*
X94269Y145939D01*
X94179Y145882D01*
X94086Y145829D01*
X93991Y145779D01*
X93895Y145732D01*
X93797Y145689D01*
X93698Y145649D01*
X93597Y145613D01*
X93495Y145581D01*
X93392Y145552D01*
X93288Y145527D01*
X93183Y145506D01*
X93077Y145489D01*
X92971Y145475D01*
X92865Y145466D01*
X92758Y145460D01*
X92651Y145458D01*
X92651Y145457D02*
X89688Y145457D01*
X93244Y145457D02*
X95614Y140716D01*
X103378Y145457D02*
X106934Y145457D01*
X103378Y145457D02*
X103283Y145459D01*
X103187Y145465D01*
X103092Y145474D01*
X102998Y145488D01*
X102904Y145505D01*
X102811Y145526D01*
X102718Y145551D01*
X102627Y145579D01*
X102537Y145611D01*
X102449Y145647D01*
X102362Y145686D01*
X102276Y145729D01*
X102192Y145775D01*
X102111Y145824D01*
X102031Y145877D01*
X101954Y145933D01*
X101878Y145991D01*
X101806Y146053D01*
X101736Y146118D01*
X101668Y146186D01*
X101603Y146256D01*
X101541Y146328D01*
X101483Y146404D01*
X101427Y146481D01*
X101374Y146561D01*
X101325Y146643D01*
X101279Y146726D01*
X101236Y146812D01*
X101197Y146899D01*
X101161Y146987D01*
X101129Y147077D01*
X101101Y147168D01*
X101076Y147261D01*
X101055Y147354D01*
X101038Y147448D01*
X101024Y147542D01*
X101015Y147637D01*
X101009Y147733D01*
X101007Y147828D01*
X101007Y148421D01*
X101008Y148421D02*
X101010Y148528D01*
X101016Y148635D01*
X101025Y148741D01*
X101039Y148847D01*
X101056Y148953D01*
X101077Y149058D01*
X101102Y149162D01*
X101131Y149265D01*
X101163Y149367D01*
X101199Y149468D01*
X101239Y149567D01*
X101282Y149665D01*
X101329Y149761D01*
X101379Y149856D01*
X101432Y149949D01*
X101489Y150039D01*
X101549Y150128D01*
X101612Y150214D01*
X101678Y150298D01*
X101748Y150380D01*
X101820Y150459D01*
X101895Y150535D01*
X101973Y150609D01*
X102053Y150679D01*
X102136Y150747D01*
X102221Y150812D01*
X102308Y150873D01*
X102398Y150932D01*
X102490Y150987D01*
X102583Y151039D01*
X102679Y151087D01*
X102776Y151132D01*
X102874Y151174D01*
X102974Y151211D01*
X103076Y151246D01*
X103178Y151276D01*
X103282Y151303D01*
X103386Y151326D01*
X103492Y151345D01*
X103598Y151360D01*
X103704Y151372D01*
X103811Y151380D01*
X103918Y151384D01*
X104024Y151384D01*
X104131Y151380D01*
X104238Y151372D01*
X104344Y151360D01*
X104450Y151345D01*
X104556Y151326D01*
X104660Y151303D01*
X104764Y151276D01*
X104866Y151246D01*
X104968Y151211D01*
X105068Y151174D01*
X105166Y151132D01*
X105263Y151087D01*
X105359Y151039D01*
X105453Y150987D01*
X105544Y150932D01*
X105634Y150873D01*
X105721Y150812D01*
X105806Y150747D01*
X105889Y150679D01*
X105969Y150609D01*
X106047Y150535D01*
X106122Y150459D01*
X106194Y150380D01*
X106264Y150298D01*
X106330Y150214D01*
X106393Y150128D01*
X106453Y150039D01*
X106510Y149949D01*
X106563Y149856D01*
X106613Y149761D01*
X106660Y149665D01*
X106703Y149567D01*
X106743Y149468D01*
X106779Y149367D01*
X106811Y149265D01*
X106840Y149162D01*
X106865Y149058D01*
X106886Y148953D01*
X106903Y148847D01*
X106917Y148741D01*
X106926Y148635D01*
X106932Y148528D01*
X106934Y148421D01*
X106934Y145457D01*
X106932Y145322D01*
X106926Y145186D01*
X106917Y145051D01*
X106903Y144917D01*
X106886Y144782D01*
X106865Y144649D01*
X106840Y144515D01*
X106811Y144383D01*
X106778Y144252D01*
X106742Y144121D01*
X106702Y143992D01*
X106658Y143864D01*
X106611Y143737D01*
X106560Y143611D01*
X106506Y143488D01*
X106448Y143365D01*
X106386Y143245D01*
X106321Y143126D01*
X106253Y143009D01*
X106181Y142894D01*
X106107Y142781D01*
X106029Y142670D01*
X105947Y142562D01*
X105863Y142456D01*
X105776Y142352D01*
X105686Y142251D01*
X105593Y142153D01*
X105497Y142057D01*
X105399Y141964D01*
X105298Y141874D01*
X105194Y141787D01*
X105088Y141703D01*
X104980Y141621D01*
X104869Y141543D01*
X104756Y141469D01*
X104641Y141397D01*
X104524Y141329D01*
X104405Y141264D01*
X104285Y141202D01*
X104162Y141144D01*
X104039Y141090D01*
X103913Y141039D01*
X103786Y140992D01*
X103658Y140948D01*
X103529Y140908D01*
X103398Y140872D01*
X103267Y140839D01*
X103135Y140810D01*
X103001Y140785D01*
X102868Y140764D01*
X102733Y140747D01*
X102599Y140733D01*
X102464Y140724D01*
X102328Y140718D01*
X102193Y140716D01*
D14*
X114610Y124130D02*
X114610Y88583D01*
X139390Y88583D01*
X139390Y124130D01*
D12*
X143531Y119944D02*
X143531Y109276D01*
X143531Y119944D02*
X146495Y119944D01*
X146601Y119942D01*
X146706Y119936D01*
X146812Y119927D01*
X146917Y119914D01*
X147021Y119897D01*
X147125Y119876D01*
X147228Y119852D01*
X147330Y119824D01*
X147431Y119792D01*
X147530Y119757D01*
X147629Y119718D01*
X147726Y119676D01*
X147821Y119631D01*
X147915Y119582D01*
X148007Y119529D01*
X148097Y119474D01*
X148185Y119415D01*
X148271Y119353D01*
X148354Y119288D01*
X148435Y119220D01*
X148514Y119150D01*
X148590Y119076D01*
X148664Y119000D01*
X148734Y118921D01*
X148802Y118840D01*
X148867Y118757D01*
X148929Y118671D01*
X148988Y118583D01*
X149043Y118493D01*
X149096Y118401D01*
X149145Y118307D01*
X149190Y118212D01*
X149232Y118115D01*
X149271Y118016D01*
X149306Y117917D01*
X149338Y117816D01*
X149366Y117714D01*
X149390Y117611D01*
X149411Y117507D01*
X149428Y117403D01*
X149441Y117298D01*
X149450Y117192D01*
X149456Y117087D01*
X149458Y116981D01*
X149458Y112239D01*
X149456Y112133D01*
X149450Y112028D01*
X149441Y111922D01*
X149428Y111817D01*
X149411Y111713D01*
X149390Y111609D01*
X149366Y111506D01*
X149338Y111404D01*
X149306Y111303D01*
X149271Y111204D01*
X149232Y111105D01*
X149190Y111008D01*
X149145Y110913D01*
X149096Y110819D01*
X149043Y110727D01*
X148988Y110637D01*
X148929Y110549D01*
X148867Y110463D01*
X148802Y110380D01*
X148734Y110299D01*
X148664Y110220D01*
X148590Y110144D01*
X148514Y110070D01*
X148435Y110000D01*
X148354Y109932D01*
X148271Y109867D01*
X148185Y109805D01*
X148097Y109746D01*
X148007Y109691D01*
X147915Y109638D01*
X147821Y109589D01*
X147726Y109544D01*
X147629Y109502D01*
X147530Y109463D01*
X147431Y109428D01*
X147330Y109396D01*
X147228Y109368D01*
X147125Y109344D01*
X147021Y109323D01*
X146917Y109306D01*
X146812Y109293D01*
X146706Y109284D01*
X146601Y109278D01*
X146495Y109276D01*
X143531Y109276D01*
X155342Y111647D02*
X157713Y119944D01*
X155342Y111647D02*
X161269Y111647D01*
X159491Y114017D02*
X159491Y109276D01*
X90958Y178816D02*
X90958Y189484D01*
X93921Y189484D01*
X94028Y189482D01*
X94135Y189476D01*
X94241Y189467D01*
X94347Y189453D01*
X94453Y189436D01*
X94558Y189415D01*
X94662Y189390D01*
X94765Y189361D01*
X94867Y189329D01*
X94968Y189293D01*
X95067Y189253D01*
X95165Y189210D01*
X95261Y189163D01*
X95356Y189113D01*
X95449Y189060D01*
X95539Y189003D01*
X95628Y188943D01*
X95714Y188880D01*
X95798Y188814D01*
X95880Y188744D01*
X95959Y188672D01*
X96035Y188597D01*
X96109Y188519D01*
X96179Y188439D01*
X96247Y188356D01*
X96312Y188271D01*
X96373Y188184D01*
X96432Y188094D01*
X96487Y188002D01*
X96539Y187909D01*
X96587Y187813D01*
X96632Y187716D01*
X96674Y187618D01*
X96711Y187518D01*
X96746Y187416D01*
X96776Y187314D01*
X96803Y187210D01*
X96826Y187106D01*
X96845Y187000D01*
X96860Y186894D01*
X96872Y186788D01*
X96880Y186681D01*
X96884Y186574D01*
X96884Y186468D01*
X96880Y186361D01*
X96872Y186254D01*
X96860Y186148D01*
X96845Y186042D01*
X96826Y185936D01*
X96803Y185832D01*
X96776Y185728D01*
X96746Y185626D01*
X96711Y185524D01*
X96674Y185424D01*
X96632Y185326D01*
X96587Y185229D01*
X96539Y185133D01*
X96487Y185040D01*
X96432Y184948D01*
X96373Y184858D01*
X96312Y184771D01*
X96247Y184686D01*
X96179Y184603D01*
X96109Y184523D01*
X96035Y184445D01*
X95959Y184370D01*
X95880Y184298D01*
X95798Y184228D01*
X95714Y184162D01*
X95628Y184099D01*
X95539Y184039D01*
X95449Y183982D01*
X95356Y183929D01*
X95261Y183879D01*
X95165Y183832D01*
X95067Y183789D01*
X94968Y183749D01*
X94867Y183713D01*
X94765Y183681D01*
X94662Y183652D01*
X94558Y183627D01*
X94453Y183606D01*
X94347Y183589D01*
X94241Y183575D01*
X94135Y183566D01*
X94028Y183560D01*
X93921Y183558D01*
X93921Y183557D02*
X90958Y183557D01*
X94514Y183557D02*
X96885Y178816D01*
X102277Y187113D02*
X105241Y189484D01*
X105241Y178816D01*
X108204Y178816D02*
X102277Y178816D01*
X113707Y184150D02*
X113710Y184360D01*
X113717Y184570D01*
X113730Y184779D01*
X113747Y184988D01*
X113770Y185197D01*
X113797Y185405D01*
X113829Y185612D01*
X113867Y185819D01*
X113909Y186024D01*
X113956Y186229D01*
X114008Y186432D01*
X114065Y186634D01*
X114127Y186835D01*
X114193Y187034D01*
X114265Y187231D01*
X114341Y187427D01*
X114421Y187621D01*
X114506Y187813D01*
X114596Y188002D01*
X114597Y188002D02*
X114628Y188087D01*
X114662Y188171D01*
X114700Y188253D01*
X114742Y188334D01*
X114787Y188413D01*
X114835Y188490D01*
X114886Y188565D01*
X114940Y188637D01*
X114997Y188708D01*
X115057Y188776D01*
X115120Y188841D01*
X115185Y188904D01*
X115253Y188964D01*
X115324Y189021D01*
X115396Y189075D01*
X115471Y189127D01*
X115548Y189175D01*
X115627Y189220D01*
X115708Y189261D01*
X115790Y189299D01*
X115874Y189334D01*
X115959Y189365D01*
X116045Y189393D01*
X116132Y189417D01*
X116221Y189437D01*
X116310Y189454D01*
X116400Y189467D01*
X116490Y189477D01*
X116580Y189482D01*
X116671Y189484D01*
X116762Y189482D01*
X116852Y189477D01*
X116942Y189467D01*
X117032Y189454D01*
X117121Y189437D01*
X117210Y189417D01*
X117297Y189393D01*
X117383Y189365D01*
X117468Y189334D01*
X117552Y189299D01*
X117634Y189261D01*
X117715Y189220D01*
X117794Y189175D01*
X117871Y189127D01*
X117946Y189076D01*
X118018Y189021D01*
X118089Y188964D01*
X118157Y188904D01*
X118222Y188841D01*
X118285Y188776D01*
X118345Y188708D01*
X118402Y188637D01*
X118456Y188565D01*
X118507Y188490D01*
X118555Y188413D01*
X118600Y188334D01*
X118642Y188253D01*
X118680Y188171D01*
X118714Y188087D01*
X118745Y188002D01*
X118835Y187813D01*
X118920Y187621D01*
X119000Y187427D01*
X119076Y187231D01*
X119148Y187034D01*
X119214Y186835D01*
X119276Y186634D01*
X119333Y186432D01*
X119385Y186229D01*
X119432Y186024D01*
X119474Y185819D01*
X119512Y185612D01*
X119544Y185405D01*
X119571Y185197D01*
X119594Y184988D01*
X119611Y184779D01*
X119624Y184570D01*
X119631Y184360D01*
X119634Y184150D01*
X113708Y184150D02*
X113711Y183940D01*
X113718Y183730D01*
X113731Y183521D01*
X113748Y183312D01*
X113771Y183103D01*
X113798Y182895D01*
X113830Y182688D01*
X113868Y182481D01*
X113910Y182276D01*
X113957Y182071D01*
X114009Y181868D01*
X114066Y181666D01*
X114128Y181465D01*
X114194Y181266D01*
X114266Y181069D01*
X114342Y180873D01*
X114422Y180679D01*
X114507Y180488D01*
X114597Y180298D01*
X114628Y180213D01*
X114662Y180129D01*
X114700Y180047D01*
X114742Y179966D01*
X114787Y179887D01*
X114835Y179810D01*
X114886Y179735D01*
X114940Y179663D01*
X114997Y179592D01*
X115057Y179524D01*
X115120Y179459D01*
X115185Y179396D01*
X115253Y179336D01*
X115324Y179279D01*
X115396Y179224D01*
X115471Y179173D01*
X115548Y179125D01*
X115627Y179080D01*
X115708Y179039D01*
X115790Y179001D01*
X115874Y178966D01*
X115959Y178935D01*
X116045Y178907D01*
X116132Y178883D01*
X116221Y178863D01*
X116310Y178846D01*
X116400Y178833D01*
X116490Y178823D01*
X116580Y178818D01*
X116671Y178816D01*
X118745Y180298D02*
X118835Y180488D01*
X118920Y180679D01*
X119000Y180873D01*
X119076Y181069D01*
X119148Y181266D01*
X119214Y181465D01*
X119276Y181666D01*
X119333Y181868D01*
X119385Y182071D01*
X119432Y182276D01*
X119474Y182481D01*
X119512Y182688D01*
X119544Y182895D01*
X119571Y183103D01*
X119594Y183312D01*
X119611Y183521D01*
X119624Y183730D01*
X119631Y183940D01*
X119634Y184150D01*
X118745Y180298D02*
X118714Y180213D01*
X118680Y180129D01*
X118642Y180047D01*
X118600Y179966D01*
X118555Y179887D01*
X118507Y179810D01*
X118456Y179735D01*
X118402Y179663D01*
X118345Y179592D01*
X118285Y179524D01*
X118222Y179459D01*
X118157Y179396D01*
X118089Y179336D01*
X118018Y179279D01*
X117946Y179224D01*
X117871Y179173D01*
X117794Y179125D01*
X117715Y179080D01*
X117634Y179039D01*
X117552Y179001D01*
X117468Y178966D01*
X117383Y178935D01*
X117297Y178907D01*
X117210Y178883D01*
X117121Y178863D01*
X117032Y178846D01*
X116942Y178833D01*
X116852Y178823D01*
X116762Y178818D01*
X116671Y178816D01*
X114300Y181187D02*
X119041Y187113D01*
D16*
X0Y0D02*
X400000Y0D01*
X400000Y400000D01*
X0Y400000D01*
X0Y0D01*
M02*
