M48
;GenerationSoftware,Autodesk,EAGLE,9.7.0*%
;CreationDate,2024-03-26T19:34:26Z*%
FMAT,2
ICI,OFF
METRIC,TZ,000.000
T5C0.500
T4C0.600
T3C1.000
T2C1.016
T1C3.000
%
G90
M71
T1
X62000Y29000
X62000Y3000
X3000Y3000
X3000Y29000
T2
X57150Y17780
X59690Y17780
X57150Y20320
X59690Y20320
X57150Y22860
X59690Y22860
X7620Y22860
X12700Y22860
X26670Y16510
X31750Y16510
X26670Y25400
X31750Y25400
T3
X38220Y10100
X38220Y1100
X53220Y10100
X53220Y1100
T4
X56500Y7460
X56500Y10000
X56500Y12540
T5
X12700Y22860
X31750Y16510
M30