<svg version="1.1" xmlns="http://www.w3.org/2000/svg" xmlns:xlink="http://www.w3.org/1999/xlink" stroke-linecap="round" stroke-linejoin="round" stroke-width="0" fill-rule="evenodd" width="65.254mm" height="32.254mm" viewBox="-127 -127 65254 32254" id="moexFPa617YFk5_0vTrm"><defs><mask id="moexFPa617YFk5_0vTrm_clear-1" fill="#000" stroke="#000"><g><rect x="0" y="0" width="65000" height="27000" fill="#fff"/><path d="M 26746.2 25476.2 28940 25476.2 28940 25651 28747.9 26114.9 28392.9 26469.9 27929 26662 26746.2 26662 26746.2 25476.2"/><path d="M 24400 25476.2 26593.8 25476.2 26593.8 26662 25411 26662 24947.1 26469.9 24592.1 26114.9 24400 25651 24400 25476.2"/><path d="M 35346.4 22004 37553.6 22004 37700 22150.4 37700 23557.6 37553.6 23704 35346.4 23704 35275.2 23632.7 35251 23616.4 35221.3 23610.4 33370.9 23610.4 33342.3 23616 33317 23632.7 32937.8 24011.9 32922.5 24033.9 32915.5 24063.4 32920.6 24093.3 32936.9 24118.8 32962 24136 32991.7 24142 33008.2 24142 33470.6 24333.5 33824.5 24687.4 34016 25149.8 34016 25650.2 33824.5 26112.6 33470.6 26466.5 33008.2 26658 30491.8 26658 30029.4 26466.5 29675.5 26112.6 29484 25650.2 29484 25149.8 29675.5 24687.4 30029.4 24333.5 30491.8 24142 30917.4 24142 30944.9 24136.9 30970.4 24120.5 30987.6 24095.5 30993.6 24065.8 30993.6 23979.5 31108.8 23701.5 32597.5 22212.8 32875.5 22097.6 35221.3 22097.6 35249.9 22092 35275.2 22075.3 35346.4 22004"/><path d="M 51346.4 24004 53553.6 24004 53700 24150.4 53700 25557.6 53553.6 25704 51346.4 25704 51200 25557.6 51200 24150.4 51346.4 24004"/><path d="M 25411 24138 26593.8 24138 26593.8 25323.8 24400 25323.8 24400 25149 24592.1 24685.1 24947.1 24330.1 25411 24138"/><path d="M 26746.2 24138 27929 24138 28392.9 24330.1 28747.9 24685.1 28940 25149 28940 25323.8 26746.2 25323.8 26746.2 24138"/><path d="M 7696.2 22936.2 9890 22936.2 9890 23111 9697.9 23574.9 9342.9 23929.9 8879 24122 7696.2 24122 7696.2 22936.2"/><path d="M 5350 22936.2 7543.8 22936.2 7543.8 24122 6361 24122 5897.1 23929.9 5542.1 23574.9 5350 23111 5350 22936.2"/><path d="M 35346.4 18004 37553.6 18004 37700 18150.4 37700 19557.6 37553.6 19704 35346.4 19704 35275.2 19632.7 35251 19616.4 35221.3 19610.4 20120.8 19610.4 20092.2 19616 20066.9 19632.7 16198.4 23501.2 15920.4 23616.4 14762.2 23616.4 14733.6 23622 14708.4 23638.7 14420.6 23926.5 13958.2 24118 11441.8 24118 10979.4 23926.5 10625.5 23572.6 10434 23110.2 10434 22609.8 10625.5 22147.4 10979.4 21793.5 11441.8 21602 13958.2 21602 14420.6 21793.5 14708.4 22081.3 14732.5 22097.6 14762.2 22103.6 15425.1 22103.6 15453.6 22098 15478.9 22081.3 19347.5 18212.8 19625.5 18097.6 35221.3 18097.6 35249.9 18092 35275.2 18075.3 35346.4 18004"/><path d="M 51346.4 22004 53553.6 22004 53700 22150.4 53700 23557.6 53553.6 23704 51346.4 23704 51200 23557.6 51200 22150.4 51346.4 22004"/><path d="M 7696.2 21598 8879 21598 9342.9 21790.1 9697.9 22145.1 9890 22609 9890 22783.8 7696.2 22783.8 7696.2 21598"/><path d="M 6361 21598 7543.8 21598 7543.8 22783.8 5350 22783.8 5350 22609 5542.1 22145.1 5897.1 21790.1 6361 21598"/><path d="M 51346.4 18004 53553.6 18004 53700 18150.4 53700 19557.6 53553.6 19704 51346.4 19704 51200 19557.6 51200 18150.4 51346.4 18004"/><path d="M 24400 16586.2 26593.8 16586.2 26593.8 17772 25411 17772 24947.1 17579.9 24592.1 17224.9 24400 16761 24400 16586.2"/><path d="M 26746.2 16586.2 28940 16586.2 28940 16761 28747.9 17224.9 28392.9 17579.9 27929 17772 26746.2 17772 26746.2 16586.2"/><path d="M 30491.8 15252 33008.2 15252 33470.6 15443.5 33758.4 15731.3 33782.5 15747.6 33812.2 15753.6 34986.5 15753.6 35264.5 15868.8 35377.4 15981.7 35401.6 15998 35431.3 16004 37553.6 16004 37700 16150.4 37700 17557.6 37553.6 17704 35346.4 17704 35275.2 17632.7 35251 17616.4 35221.3 17610.4 35029.5 17610.4 34751.5 17495.2 34545 17288.7 34520.8 17272.4 34491.1 17266.4 33812.2 17266.4 33783.6 17272 33758.4 17288.7 33470.6 17576.5 33008.2 17768 30491.8 17768 30029.4 17576.5 29675.5 17222.6 29484 16760.2 29484 16259.8 29675.5 15797.4 30029.4 15443.5 30491.8 15252"/><path d="M 52526.2 16930.2 53704 16930.2 53704 17559.2 53555.2 17708 52526.2 17708 52526.2 16930.2"/><path d="M 51196 16930.2 52373.8 16930.2 52373.8 17708 51344.8 17708 51196 17559.2 51196 16930.2"/><path d="M 56627.3 16518 57073.8 16518 57073.8 17703.8 55888 17703.8 55888 17257.3 56627.3 16518"/><path d="M 51344.8 16000 52373.8 16000 52373.8 16777.8 51196 16777.8 51196 16148.8 51344.8 16000"/><path d="M 52526.2 16000 53555.2 16000 53704 16148.8 53704 16777.8 52526.2 16777.8 52526.2 16000"/><path d="M 25411 15248 26593.8 15248 26593.8 16433.8 24400 16433.8 24400 16259 24592.1 15795.1 24947.1 15440.1 25411 15248"/><path d="M 26746.2 15248 27929 15248 28392.9 15440.1 28747.9 15795.1 28940 16259 28940 16433.8 26746.2 16433.8 26746.2 15248"/><path d="M 51196 14930.2 52373.8 14930.2 52373.8 15708 51344.8 15708 51196 15559.2 51196 14930.2"/><path d="M 52526.2 14930.2 53704 14930.2 53704 15559.2 53555.2 15708 52526.2 15708 52526.2 14930.2"/><path d="M 51344.8 14000 52373.8 14000 52373.8 14777.8 51196 14777.8 51196 14148.8 51344.8 14000"/><path d="M 48746.4 12124 50153.6 12124 50300 12270.4 50300 14477.6 50153.6 14624 48746.4 14624 48600 14477.6 48600 12270.4 48746.4 12124"/><path d="M 46746.4 12124 48153.6 12124 48300 12270.4 48300 14477.6 48153.6 14624 46746.4 14624 46600 14477.6 46600 12270.4 46746.4 12124"/><path d="M 44746.4 12124 46153.6 12124 46300 12270.4 46300 14477.6 46153.6 14624 44746.4 14624 44600 14477.6 44600 12270.4 44746.4 12124"/><path d="M 42746.4 12124 44153.6 12124 44300 12270.4 44300 14477.6 44153.6 14624 42746.4 14624 42600 14477.6 42600 12270.4 42746.4 12124"/><path d="M 40746.4 12124 42153.6 12124 42300 12270.4 42300 14477.6 42153.6 14624 40746.4 14624 40600 14477.6 40600 12270.4 40746.4 12124"/><path d="M 45291.9 9514.9 48688.1 9514.9 48834.6 9661.3 48834.6 11728.7 48688.1 11875.2 45291.9 11875.2 45145.5 11728.7 45145.5 9661.3 45291.9 9514.9"/><path d="M 24069.5 6483.6 26910.5 6483.6 27032.6 6534.2 27061.8 6540 27613.6 6540 27760 6686.4 27760 7793.6 27613.6 7940 27061.8 7940 27032.6 7945.8 26910.5 7996.4 24564.9 7996.4 24536.3 8002 24511 8018.7 21348.5 11181.2 21070.5 11296.4 17539.5 11296.4 17417.4 11245.8 17388.2 11240 16836.4 11240 16690 11093.6 16690 9986.4 16836.4 9840 17388.2 9840 17417.4 9834.2 17539.5 9783.6 20575.1 9783.6 20603.7 9778 20629 9761.3 23791.5 6598.8 24069.5 6483.6"/><path d="M 11369.5 6483.6 12940.5 6483.6 13062.6 6534.2 13091.8 6540 13643.6 6540 13790 6686.4 13790 7793.6 13643.6 7940 13091.8 7940 13062.6 7945.8 12940.5 7996.4 11864.9 7996.4 11836.3 8002 11811 8018.7 8648.5 11181.2 8370.5 11296.4 7379.5 11296.4 7257.4 11245.8 7228.2 11240 6676.4 11240 6530 11093.6 6530 9986.4 6676.4 9840 7228.2 9840 7257.4 9834.2 7379.5 9783.6 7875.1 9783.6 7903.7 9778 7929 9761.3 11091.5 6598.8 11369.5 6483.6"/><path d="M 25756 10616.2 26683.8 10616.2 26683.8 11244 25904.8 11244 25756 11095.2 25756 10616.2"/><path d="M 11786 10616.2 12713.8 10616.2 12713.8 11244 11934.8 11244 11786 11095.2 11786 10616.2"/><path d="M 1626 10616.2 2553.8 10616.2 2553.8 11244 1774.8 11244 1626 11095.2 1626 10616.2"/><path d="M 2706.2 10616.2 3634 10616.2 3634 11095.2 3485.2 11244 2706.2 11244 2706.2 10616.2"/><path d="M 12866.2 10616.2 13794 10616.2 13794 11095.2 13645.2 11244 12866.2 11244 12866.2 10616.2"/><path d="M 26836.2 10616.2 27764 10616.2 27764 11095.2 27615.2 11244 26836.2 11244 26836.2 10616.2"/><path d="M 30806.4 9840 32513.6 9840 32660 9986.4 32660 11093.6 32513.6 11240 30806.4 11240 30660 11093.6 30660 9986.4 30806.4 9840"/><path d="M 51083.4 3010.8 53056.7 3010.8 53056.7 3622.1 52919.8 3758.9 52904 3782 52897.5 3811.6 52903.1 3841.4 52919.8 3866.7 53052.7 3999.5 53052.7 5371.3 52906.2 5517.7 51233.8 5517.7 51180.2 5464.1 51156.1 5447.8 51126.3 5441.8 50122.6 5441.8 50095.1 5446.9 50069.6 5463.3 50052.4 5488.3 50046.4 5518 50046.4 5765.1 50052 5793.7 50068.7 5819 53471 9221.3 53495.2 9237.6 53524.9 9243.6 54939.9 9243.6 54968.5 9238 54993.8 9221.3 55105.2 9109.9 55491.1 8950 57508.9 8950 57894.8 9109.9 58190.1 9405.2 58350 9791.1 58350 10208.9 58190.1 10594.8 57894.8 10890.1 57508.9 11050 55491.1 11050 55105.2 10890.1 54993.8 10778.7 54969.6 10762.4 54939.9 10756.4 53029.5 10756.4 52751.5 10641.2 48648.8 6538.5 48533.6 6260.5 48533.6 4394.5 48585.3 4269.8 48591.1 4240.7 48591.1 3511.3 48737.5 3364.9 49842.5 3364.9 49989 3511.3 49989 3852.8 49994.1 3880.3 50010.4 3905.8 50035.4 3923 50065.2 3929 51126.3 3929 51154.9 3923.4 51180.2 3906.7 51220.2 3866.7 51236 3843.7 51242.5 3814 51236.9 3784.2 51220.2 3758.9 51083.4 3622.1 51083.4 3010.8"/><path d="M 1774.8 9836 2553.8 9836 2553.8 10463.8 1626 10463.8 1626 9984.8 1774.8 9836"/><path d="M 11934.8 9836 12713.8 9836 12713.8 10463.8 11786 10463.8 11786 9984.8 11934.8 9836"/><path d="M 2706.2 9836 3485.2 9836 3634 9984.8 3634 10463.8 2706.2 10463.8 2706.2 9836"/><path d="M 12866.2 9836 13645.2 9836 13794 9984.8 13794 10463.8 12866.2 10463.8 12866.2 9836"/><path d="M 25904.8 9836 26683.8 9836 26683.8 10463.8 25756 10463.8 25756 9984.8 25904.8 9836"/><path d="M 26836.2 9836 27615.2 9836 27764 9984.8 27764 10463.8 26836.2 10463.8 26836.2 9836"/><path d="M 60746 9006.2 62923.8 9006.2 62923.8 9819 60894.8 9819 60746 9670.2 60746 9006.2"/><path d="M 60894.8 8041 62923.8 8041 62923.8 8853.8 60746 8853.8 60746 8189.8 60894.8 8041"/><path d="M 43987.1 4621.2 44613.8 4621.2 44613.8 5729.2 44135.8 5729.2 43987.1 5580.4 43987.1 4621.2"/><path d="M 44766.2 4621.2 45393 4621.2 45393 5580.4 45244.2 5729.2 44766.2 5729.2 44766.2 4621.2"/><path d="M 41986.2 4638.3 42747.9 4638.3 42896.7 4787.1 42896.7 5398.4 41986.2 5398.4 41986.2 4638.3"/><path d="M 41072.1 4638.3 41833.8 4638.3 41833.8 5398.4 40923.4 5398.4 40923.4 4787.1 41072.1 4638.3"/><path d="M 38176.2 4638.3 38937.9 4638.3 39086.7 4787.1 39086.7 5398.4 38176.2 5398.4 38176.2 4638.3"/><path d="M 37262.1 4638.3 38023.8 4638.3 38023.8 5398.4 37113.4 5398.4 37113.4 4787.1 37262.1 4638.3"/><path d="M 61701.6 1500 62298.4 1500 62849.7 1728.4 63271.6 2150.3 63500 2701.6 63500 3298.4 63271.6 3849.7 62849.7 4271.6 62298.4 4500 61701.6 4500 61150.3 4271.6 60728.4 3849.7 60500 3298.4 60500 2701.6 60728.4 2150.3 61150.3 1728.4 61701.6 1500"/><path d="M 2701.6 1500 3298.4 1500 3849.7 1728.4 4271.6 2150.3 4500 2701.6 4500 3298.4 4271.6 3849.7 3849.7 4271.6 3298.4 4500 2701.6 4500 2150.3 4271.6 1728.4 3849.7 1500 3298.4 1500 2701.6 1728.4 2150.3 2150.3 1728.4 2701.6 1500"/><path d="M 44766.2 3360.9 45244.2 3360.9 45393 3509.6 45393 4468.8 44766.2 4468.8 44766.2 3360.9"/><path d="M 44135.8 3360.9 44613.8 3360.9 44613.8 4468.8 43987.1 4468.8 43987.1 3509.6 44135.8 3360.9"/><path d="M 52146.2 2098.3 52907.9 2098.3 53056.7 2247.1 53056.7 2858.4 52146.2 2858.4 52146.2 2098.3"/><path d="M 51232.1 2098.3 51993.8 2098.3 51993.8 2858.4 51083.4 2858.4 51083.4 2247.1 51232.1 2098.3"/></g></mask><polygon points="-417.52676,1007.99876 -1007.99876,417.52676 -1007.99876,-417.52676 -417.52676,-1007.99876 417.52676,-1007.99876 1007.99876,-417.52676 1007.99876,417.52676 417.52676,1007.99876" id="moexFPa617YFk5_0vTrm_pad-10"/><rect x="-1000" y="-600" width="2000" height="1200" id="moexFPa617YFk5_0vTrm_pad-11"/><rect x="-600" y="-1000" width="1200" height="2000" id="moexFPa617YFk5_0vTrm_pad-12"/><rect x="-448.95" y="-930.15" width="897.9" height="1860.3" id="moexFPa617YFk5_0vTrm_pad-13"/><rect x="-1594.55" y="-930.15" width="3189.1" height="1860.3" id="moexFPa617YFk5_0vTrm_pad-14"/><rect x="-750" y="-450" width="1500" height="900" id="moexFPa617YFk5_0vTrm_pad-16"/><rect x="-732.65" y="-582.3" width="1465.3" height="1164.6" id="moexFPa617YFk5_0vTrm_pad-17"/><rect x="-2000" y="-635" width="4000" height="1270" id="moexFPa617YFk5_0vTrm_pad-19"/></defs><g transform="translate(0,32000) scale(1,-1)" fill="currentColor" stroke="currentColor"><g mask="url(#moexFPa617YFk5_0vTrm_clear-1)"><path d="M 64953.5 6 64923.8 0 76.2 0 48.7 5.1 23.2 21.5 6 46.5 0 76.2 0 26923.8 5.1 26951.3 21.5 26976.8 46.5 26994 76.2 27000 4604.5 27000 4630.8 26995.3 4656.6 26979.4 4674.2 26954.6 4680.7 26925 4675.1 26895.2 4658.4 26869.9 3036.4 25247.9 2921.2 24969.9 2921.2 14400.1 3036.4 14122.1 4321.3 12837.2 4337.6 12813 4343.6 12783.3 4343.6 8784.9 4338 8756.3 4321.3 8731 3609 8018.7 3584.8 8002.4 3555.1 7996.4 2479.5 7996.4 2357.4 7945.8 2328.2 7940 1776.4 7940 1630 7793.6 1630 6686.4 1776.4 6540 2328.2 6540 2357.4 6534.2 2479.5 6483.6 4050.5 6483.6 4328.5 6598.8 5741.2 8011.5 5856.4 8289.5 5856.4 13278.6 5741.2 13556.7 4456.3 14841.6 4440 14865.7 4434 14895.5 4434 24474.5 4439.6 24503.1 4456.3 24528.4 6905.6 26977.7 6929.7 26994 6959.5 27000 13683.7 27000 13712.3 26994.4 13737.6 26977.7 20502.5 20212.8 20780.5 20097.6 35221.3 20097.6 35249.9 20092 35275.2 20075.3 35346.4 20004 37553.6 20004 37700 20150.4 37700 21557.6 37553.6 21704 35346.4 21704 35275.2 21632.7 35251 21616.4 35221.3 21610.4 21275.9 21610.4 21247.3 21616 21222 21632.7 15984.8 26869.9 15969.5 26891.9 15962.5 26921.4 15967.6 26951.3 15983.9 26976.8 16009 26994 16038.7 27000 35123.8 27000 35151.3 26994.9 35176.8 26978.5 35194 26953.5 35200 26923.8 35200 26150.4 35346.4 26004 37553.6 26004 37700 26150.4 37700 26923.8 37705.1 26951.3 37721.5 26976.8 37746.5 26994 37776.2 27000 51123.8 27000 51151.3 26994.9 51176.8 26978.5 51194 26953.5 51200 26923.8 51200 26150.4 51346.4 26004 53553.6 26004 53624.8 26075.3 53649 26091.6 53678.7 26097.6 54951.1 26097.6 54979.7 26092 55005 26075.3 56371.3 24709 56387.6 24684.8 56393.6 24655.1 56393.6 23914.2 56388 23885.6 56371.3 23860.4 55892 23381.1 55892 22338.9 56587 21643.9 56602.8 21620.8 56609.4 21591.2 56603.8 21561.4 56587 21536.1 56149.6 21098.7 56125.5 21082.4 56095.8 21076.4 54954.9 21076.4 54926.3 21082 54901 21098.7 54504.5 21495.2 54226.5 21610.4 53678.7 21610.4 53650.1 21616 53624.8 21632.7 53553.6 21704 51346.4 21704 51200 21557.6 51200 20150.4 51346.4 20004 53553.6 20004 53624.8 20075.3 53649 20091.6 53678.7 20097.6 53731.1 20097.6 53759.7 20092 53785 20075.3 54181.5 19678.8 54459.5 19563.6 56095.8 19563.6 56124.4 19558 56149.6 19541.3 56584.2 19106.7 56600 19083.7 56606.5 19054 56601 19024.2 56584.2 18999 55888 18302.7 55888 17856.2 57226.2 17856.2 57226.2 16518 57672.7 16518 58369 17214.2 58392 17230 58421.6 17236.5 58451.4 17231 58476.7 17214.2 58846.7 16844.2 58862.5 16821.2 58869 16791.5 58863.5 16761.7 58846.7 16736.4 58129 16018.7 58104.8 16002.4 58075.1 15996.4 55729.5 15996.4 55451.5 15881.2 53834.1 14263.8 53812.1 14248.5 53782.6 14241.5 53752.7 14246.6 53727.2 14262.9 53710 14288 53704 14317.7 53704 14777.8 52526.2 14777.8 52526.2 14000 53386.3 14000 53412.7 13995.3 53438.5 13979.4 53456 13954.6 53462.5 13925 53457 13895.2 53440.2 13869.9 47043.9 7473.6 47020.8 7457.8 46991.2 7451.3 46961.4 7456.8 46936.1 7473.6 46543.1 7866.6 46265.1 7981.8 42853.7 7981.8 42825.1 7987.4 42799.8 8004.1 42746.2 8057.7 41073.8 8057.7 41020.2 8004.1 40996.1 7987.8 40966.3 7981.8 39043.7 7981.8 39015.1 7987.4 38989.8 8004.1 38936.2 8057.7 38369 8057.7 38340.4 8063.3 38315.1 8080 37228.7 9166.4 37212.4 9190.6 37206.4 9220.3 37206.4 13927.8 37211.5 13955.3 37227.9 13980.8 37252.9 13998 37282.6 14004 37553.6 14004 37565.8 14016.3 37590 14032.6 37619.7 14038.6 38110.5 14038.6 38388.5 14153.8 38469.9 14235.2 38491.9 14250.5 38521.4 14257.5 38551.3 14252.4 38576.8 14236.1 38594 14211 38600 14181.3 38600 12270.4 38746.4 12124 40153.6 12124 40300 12270.4 40300 14477.6 40153.6 14624 39042.7 14624 39016.3 14628.7 38990.5 14644.6 38973 14669.4 38966.5 14699 38972 14728.8 38988.8 14754.1 40246.2 16011.5 40361.4 16289.5 40361.4 24695.5 40246.2 24973.5 39658.5 25561.2 39380.5 25676.4 37612.7 25676.4 37584.1 25682 37558.8 25698.7 37553.6 25704 35346.4 25704 35200 25557.6 35200 24150.4 35346.4 24004 37553.6 24004 37690.8 24141.3 37715 24157.6 37744.7 24163.6 38772.4 24163.6 38799.9 24158.5 38825.4 24142.1 38842.6 24117.1 38848.6 24087.4 38848.6 16784.9 38843 16756.3 38826.3 16731 37730.3 15635 37707.3 15619.2 37677.6 15612.7 37647.8 15618.3 37622.5 15635 37553.6 15704 35346.4 15704 35200 15557.6 35200 14150.4 35346.4 14004 35617.4 14004 35644.9 13998.9 35670.4 13982.5 35687.6 13957.5 35693.6 13927.8 35693.6 8724.9 35808.8 8446.9 36129.2 8126.5 36144.5 8104.5 36151.5 8075 36146.4 8045.1 36130.1 8019.6 36105 8002.4 36075.3 7996.4 31509.5 7996.4 31387.4 7945.8 31358.2 7940 30806.4 7940 30660 7793.6 30660 6686.4 30806.4 6540 30917.4 6540 30944.9 6534.9 30970.4 6518.5 30987.6 6493.5 30993.6 6463.8 30993.6 5424.9 30988 5396.3 30971.3 5371 30189 4588.7 30164.8 4572.4 30135.1 4566.4 18500 4566.4 18473.1 4571.3 18447.4 4587.4 18430.1 4612.3 18423.8 4642 18429.6 4671.8 18536.4 4929.5 18536.4 6501.3 18542 6529.9 18558.7 6555.2 18690 6686.4 18690 7793.6 18543.6 7940 17991.8 7940 17962.6 7945.8 17840.5 7996.4 17539.5 7996.4 17417.4 7945.8 17388.2 7940 16836.4 7940 16690 7793.6 16690 6686.4 16836.4 6540 16947.4 6540 16974.9 6534.9 17000.4 6518.5 17017.6 6493.5 17023.6 6463.8 17023.6 5424.9 17018 5396.3 17001.3 5371 16219 4588.7 16194.8 4572.4 16165.1 4566.4 9234.9 4566.4 9206.3 4572 9181 4588.7 8398.7 5371 8382.4 5395.2 8376.4 5424.9 8376.4 6501.3 8382 6529.9 8398.7 6555.2 8530 6686.4 8530 7793.6 8383.6 7940 6676.4 7940 6530 7793.6 6530 6686.4 6676.4 6540 6787.4 6540 6814.9 6534.9 6840.4 6518.5 6857.6 6493.5 6863.6 6463.8 6863.6 4929.5 6978.8 4651.5 8461.5 3168.8 8739.5 3053.6 30630.5 3053.6 30908.5 3168.8 32391.2 4651.5 32506.4 4929.5 32506.4 6407.4 32511.5 6434.9 32527.9 6460.4 32552.9 6477.6 32582.6 6483.6 37141.7 6483.6 37170.3 6478 37195.6 6461.3 37250.2 6406.7 37266 6383.7 37272.5 6354 37266.9 6324.2 37250.2 6298.9 37113.4 6162.1 37113.4 5550.8 39086.7 5550.8 39086.7 6162.1 38949.8 6298.9 38934 6322 38927.5 6351.6 38933.1 6381.4 38949.8 6406.7 38989.8 6446.7 39013.9 6463 39043.7 6469 40966.3 6469 40994.9 6463.4 41020.2 6446.7 41060.2 6406.7 41076 6383.7 41082.5 6354 41076.9 6324.2 41060.2 6298.9 40923.4 6162.1 40923.4 5550.8 42896.7 5550.8 42896.7 6162.1 42759.8 6298.9 42744 6322 42737.5 6351.6 42743.1 6381.4 42759.8 6406.7 42799.8 6446.7 42823.9 6463 42853.7 6469 45769.7 6469 45798.3 6463.4 45823.6 6446.7 46211.3 6059 46227.6 6034.8 46233.6 6005.1 46233.6 4394.5 46285.3 4269.8 46291.1 4240.7 46291.1 3511.3 46437.5 3364.9 47542.5 3364.9 47689 3511.3 47689 4240.7 47694.8 4269.8 47746.4 4394.5 47746.4 6005.1 47752 6033.7 47768.7 6059 54519.9 12810.2 54541.9 12825.5 54571.4 12832.5 54601.3 12827.4 54626.8 12811.1 54644 12786 54650 12756.3 54650 12331.1 54809.9 11945.2 55105.2 11649.9 55491.1 11490 57508.9 11490 57894.8 11649.9 58190.1 11945.2 58350 12331.1 58350 12748.9 58190.1 13134.8 57894.8 13430.1 57508.9 13590 55483.7 13590 55457.3 13594.7 55431.5 13610.6 55414 13635.4 55407.5 13665 55413 13694.8 55429.8 13720.1 56171 14461.3 56195.2 14477.6 56224.9 14483.6 58570.5 14483.6 58848.5 14598.8 60331.2 16081.5 60446.4 16359.5 60446.4 16725.8 60452 16754.4 60468.7 16779.6 60948 17258.9 60948 18301.1 60253 18996.1 60237.2 19019.2 60230.7 19048.8 60236.2 19078.6 60253 19103.9 60690.4 19541.3 60714.5 19557.6 60744.2 19563.6 61902.4 19563.6 62180.4 19678.8 63059.2 20557.6 63174.4 20835.6 63174.4 24438.3 63059.2 24716.3 60905.6 26869.9 60890.3 26891.9 60883.3 26921.4 60888.4 26951.3 60904.8 26976.8 60929.8 26994 60959.5 27000 64923.8 27000 64951.3 26994.9 64976.8 26978.5 64994 26953.5 65000 26923.8 65000 12431.2 64994.9 12403.7 64978.5 12378.2 64953.5 12361 64923.8 12355 60896.4 12355 60790.2 12248.7 60766 12232.4 60736.3 12226.4 59539.5 12226.4 59261.5 12111.2 59048.8 11898.5 58933.6 11620.5 58933.6 9234.9 58928 9206.3 58911.3 9181 58041.5 8311.2 58018.4 8295.4 57988.8 8288.9 57959 8294.5 57933.7 8311.2 57894.8 8350.1 57508.9 8510 55491.1 8510 55105.2 8350.1 54809.9 8054.8 54650 7668.9 54650 7251.1 54809.9 6865.2 55105.2 6569.9 55491.1 6410 57508.9 6410 57894.8 6569.9 58006.2 6681.3 58030.4 6697.6 58060.1 6703.6 58410.5 6703.6 58688.5 6818.8 60331.2 8461.5 60446.4 8739.5 60446.4 10637.4 60451.5 10664.9 60467.9 10690.4 60492.9 10707.6 60522.6 10713.6 60736.3 10713.6 60764.9 10708 60790.2 10691.3 60896.4 10585 64923.8 10585 64951.3 10579.9 64976.8 10563.5 64994 10538.5 65000 10508.8 65000 9895.2 64994.9 9867.7 64978.5 9842.2 64953.5 9825 64923.8 9819 63076.2 9819 63076.2 8041 64923.8 8041 64951.3 8035.9 64976.8 8019.5 64994 7994.5 65000 7964.8 65000 76.2 64994.9 48.7 64978.5 23.2 64953.5 6"/></g><use xlink:href="#moexFPa617YFk5_0vTrm_pad-10" x="57150" y="17780"/><use xlink:href="#moexFPa617YFk5_0vTrm_pad-10" x="59690" y="17780"/><use xlink:href="#moexFPa617YFk5_0vTrm_pad-10" x="57150" y="20320"/><use xlink:href="#moexFPa617YFk5_0vTrm_pad-10" x="59690" y="20320"/><use xlink:href="#moexFPa617YFk5_0vTrm_pad-10" x="57150" y="22860"/><use xlink:href="#moexFPa617YFk5_0vTrm_pad-10" x="59690" y="22860"/><use xlink:href="#moexFPa617YFk5_0vTrm_pad-11" x="52450" y="14854"/><use xlink:href="#moexFPa617YFk5_0vTrm_pad-11" x="52450" y="16854"/><use xlink:href="#moexFPa617YFk5_0vTrm_pad-11" x="52450" y="18854"/><use xlink:href="#moexFPa617YFk5_0vTrm_pad-11" x="52450" y="20854"/><use xlink:href="#moexFPa617YFk5_0vTrm_pad-11" x="52450" y="22854"/><use xlink:href="#moexFPa617YFk5_0vTrm_pad-11" x="52450" y="24854"/><use xlink:href="#moexFPa617YFk5_0vTrm_pad-11" x="52450" y="26854"/><use xlink:href="#moexFPa617YFk5_0vTrm_pad-11" x="52450" y="28854"/><use xlink:href="#moexFPa617YFk5_0vTrm_pad-11" x="36450" y="28854"/><use xlink:href="#moexFPa617YFk5_0vTrm_pad-11" x="36450" y="24854"/><use xlink:href="#moexFPa617YFk5_0vTrm_pad-11" x="36450" y="26854"/><use xlink:href="#moexFPa617YFk5_0vTrm_pad-11" x="36450" y="22854"/><use xlink:href="#moexFPa617YFk5_0vTrm_pad-11" x="36450" y="20854"/><use xlink:href="#moexFPa617YFk5_0vTrm_pad-11" x="36450" y="18854"/><use xlink:href="#moexFPa617YFk5_0vTrm_pad-11" x="36450" y="16854"/><use xlink:href="#moexFPa617YFk5_0vTrm_pad-11" x="36450" y="14854"/><use xlink:href="#moexFPa617YFk5_0vTrm_pad-12" x="49450" y="13374"/><use xlink:href="#moexFPa617YFk5_0vTrm_pad-12" x="47450" y="13374"/><use xlink:href="#moexFPa617YFk5_0vTrm_pad-12" x="45450" y="13374"/><use xlink:href="#moexFPa617YFk5_0vTrm_pad-12" x="43450" y="13374"/><use xlink:href="#moexFPa617YFk5_0vTrm_pad-12" x="41450" y="13374"/><use xlink:href="#moexFPa617YFk5_0vTrm_pad-12" x="39450" y="13374"/><use xlink:href="#moexFPa617YFk5_0vTrm_pad-13" x="44690" y="4545"/><use xlink:href="#moexFPa617YFk5_0vTrm_pad-13" x="46990" y="4545"/><use xlink:href="#moexFPa617YFk5_0vTrm_pad-13" x="49290" y="4545"/><use xlink:href="#moexFPa617YFk5_0vTrm_pad-14" x="46990" y="10695"/><path d="M 8628 22860 6612 22860 M 11692 22860 13708 22860 M 25662 16510 27678 16510 M 30742 16510 32758 16510" fill="none" stroke-width="2016"/><use xlink:href="#moexFPa617YFk5_0vTrm_pad-16" x="2630" y="10540"/><use xlink:href="#moexFPa617YFk5_0vTrm_pad-16" x="2630" y="7240"/><use xlink:href="#moexFPa617YFk5_0vTrm_pad-16" x="7530" y="10540"/><use xlink:href="#moexFPa617YFk5_0vTrm_pad-16" x="7530" y="7240"/><use xlink:href="#moexFPa617YFk5_0vTrm_pad-16" x="12790" y="10540"/><use xlink:href="#moexFPa617YFk5_0vTrm_pad-16" x="12790" y="7240"/><use xlink:href="#moexFPa617YFk5_0vTrm_pad-16" x="17690" y="10540"/><use xlink:href="#moexFPa617YFk5_0vTrm_pad-16" x="17690" y="7240"/><use xlink:href="#moexFPa617YFk5_0vTrm_pad-16" x="26760" y="10540"/><use xlink:href="#moexFPa617YFk5_0vTrm_pad-16" x="26760" y="7240"/><use xlink:href="#moexFPa617YFk5_0vTrm_pad-16" x="31660" y="10540"/><use xlink:href="#moexFPa617YFk5_0vTrm_pad-16" x="31660" y="7240"/><use xlink:href="#moexFPa617YFk5_0vTrm_pad-17" x="52070" y="4685.4"/><use xlink:href="#moexFPa617YFk5_0vTrm_pad-17" x="52070" y="2934.6"/><use xlink:href="#moexFPa617YFk5_0vTrm_pad-17" x="41910" y="7225.4"/><use xlink:href="#moexFPa617YFk5_0vTrm_pad-17" x="41910" y="5474.6"/><path d="M 55700 7460 57300 7460 M 57300 10000 55700 10000 M 55700 12540 57300 12540" fill="none" stroke-width="1600"/><path d="M 27678 25400 25662 25400 M 30742 25400 32758 25400" fill="none" stroke-width="2016"/><use xlink:href="#moexFPa617YFk5_0vTrm_pad-17" x="38100" y="7225.4"/><use xlink:href="#moexFPa617YFk5_0vTrm_pad-17" x="38100" y="5474.6"/><use xlink:href="#moexFPa617YFk5_0vTrm_pad-19" x="63000" y="11470"/><use xlink:href="#moexFPa617YFk5_0vTrm_pad-19" x="63000" y="8930"/><path d="M 55171 28854 52450 28854 M 55171 28854 59690 24335 59690 22860 M 55296 26854 52450 26854 M 55296 26854 57150 25000 57150 22860 M 46854 28854 36450 28854 M 46854 28854 48545 30545 M 61751.9 20320 62418 20986.1 M 56160.8 30545 48545 30545 M 62418 24287.8 62418 20986.1 M 62418 24287.8 56160.8 30545 M 59690 20320 61751.9 20320 M 54610 20320 54076 20854 52450 20854 M 54610 20320 57150 20320" fill="none" stroke-width="812.8"/><path d="M 36450 14854 36460 14795" fill="none" stroke-width="400"/><path d="M 36460 24920 39230 24920 39605 24545 39605 16440 37960 14795 36460 14795 M 36450 24854 36460 24920" fill="none" stroke-width="812.8"/><path d="M 36450 14854 36460 14795" fill="none" stroke-width="400"/><path d="M 46990 6350 46990 4545" fill="none" stroke-width="812.8"/><path d="M 7620 7150 7530 7240" fill="none" stroke-width="400"/><path d="M 7620 7150 7620 5080 8890 3810 M 13970 3810 15240 3810 M 13970 3810 8890 3810 M 16510 3810 17780 5080 17780 7150 17690 7240" fill="none" stroke-width="812.8"/><path d="M 31660 7240 31750 7150" fill="none" stroke-width="400"/><path d="M 31750 7150 31750 5080 30480 3810 16510 3810 15240 3810 M 59690 16510 59690 17780 M 59690 16510 58420 15240 55880 15240 46990 6350 M 38085.4 7240 31660 7240 M 38085.4 7240 38100 7225.4 41910 7225.4 46114.6 7225.4 46990 6350 M 36450 8875.4 36450 14854 M 36450 8875.4 38100 7225.4 M 36450 18854 19775.9 18854 15769.9 22860 12700 22860 M 35180 16854 36450 16854 M 35180 16854 34836 16510 31750 16510 M 8220 10540 7530 10540 M 11520 7240 12790 7240 M 11520 7240 10250 8510 8220 10540 M 24220 7240 26760 7240 M 24220 7240 20920 10540 17690 10540 M 20931 20854 13200 28585 M 20931 20854 36450 20854 M 5100 8440 3900 7240 2630 7240 M 3677.6 14550.6 3677.6 24819.4 M 3677.6 14550.6 5100 13128.2 5100 8440 M 7443.2 28585 13200 28585 M 7443.2 28585 3677.6 24819.4 M 49290 6110 49290 4545 M 49430.4 4685.4 52070 4685.4 M 49430.4 4685.4 49290 4545 M 53180 10000 56500 10000 M 53180 10000 49290 6110 M 56500 7460 58260 7460 58420 7620 59690 8890 59690 11470 63000 11470 M 36450 22854 33026 22854 33020 22860 31750 24130 31750 25400" fill="none" stroke-width="812.8"/><path d="M 0 0 65000 0 65000 32000 0 32000 0 0" fill="none" stroke-width="254"/></g></svg>