G04 EAGLE Gerber RS-274X export*
G75*
%MOMM*%
%FSLAX34Y34*%
%LPD*%
%INSilkscreen Top*%
%IPPOS*%
%AMOC8*
5,1,8,0,0,1.08239X$1,22.5*%
G01*
G04 Define Apertures*
%ADD10C,0.203200*%
%ADD11C,0.152400*%
%ADD12C,0.200000*%
%ADD13C,0.127000*%
%ADD14C,0.120000*%
%ADD15C,0.500000*%
%ADD16C,0.254000*%
D10*
X623716Y132016D02*
X627272Y132016D01*
X627367Y132018D01*
X627463Y132024D01*
X627558Y132033D01*
X627652Y132047D01*
X627746Y132064D01*
X627839Y132085D01*
X627932Y132110D01*
X628023Y132138D01*
X628113Y132170D01*
X628201Y132206D01*
X628288Y132245D01*
X628374Y132288D01*
X628458Y132334D01*
X628539Y132383D01*
X628619Y132436D01*
X628696Y132492D01*
X628772Y132550D01*
X628844Y132612D01*
X628914Y132677D01*
X628982Y132745D01*
X629047Y132815D01*
X629109Y132887D01*
X629167Y132963D01*
X629223Y133040D01*
X629276Y133120D01*
X629325Y133202D01*
X629371Y133285D01*
X629414Y133371D01*
X629453Y133458D01*
X629489Y133546D01*
X629521Y133636D01*
X629549Y133727D01*
X629574Y133820D01*
X629595Y133913D01*
X629612Y134007D01*
X629626Y134101D01*
X629635Y134196D01*
X629641Y134292D01*
X629643Y134387D01*
X629643Y135572D01*
X629641Y135667D01*
X629635Y135763D01*
X629626Y135858D01*
X629612Y135952D01*
X629595Y136046D01*
X629574Y136139D01*
X629549Y136232D01*
X629521Y136323D01*
X629489Y136413D01*
X629453Y136501D01*
X629414Y136588D01*
X629371Y136674D01*
X629325Y136758D01*
X629276Y136839D01*
X629223Y136919D01*
X629167Y136996D01*
X629109Y137072D01*
X629047Y137144D01*
X628982Y137214D01*
X628914Y137282D01*
X628844Y137347D01*
X628772Y137409D01*
X628696Y137467D01*
X628619Y137523D01*
X628539Y137576D01*
X628458Y137625D01*
X628374Y137671D01*
X628288Y137714D01*
X628201Y137753D01*
X628113Y137789D01*
X628023Y137821D01*
X627932Y137849D01*
X627839Y137874D01*
X627746Y137895D01*
X627652Y137912D01*
X627558Y137926D01*
X627463Y137935D01*
X627367Y137941D01*
X627272Y137943D01*
X623716Y137943D01*
X623716Y142684D01*
X629643Y142684D01*
X634553Y142684D02*
X638109Y132016D01*
X641665Y142684D01*
X74676Y185166D02*
X74676Y195834D01*
X77639Y195834D01*
X77746Y195832D01*
X77853Y195826D01*
X77959Y195817D01*
X78065Y195803D01*
X78171Y195786D01*
X78276Y195765D01*
X78380Y195740D01*
X78483Y195711D01*
X78585Y195679D01*
X78686Y195643D01*
X78785Y195603D01*
X78883Y195560D01*
X78979Y195513D01*
X79074Y195463D01*
X79167Y195410D01*
X79257Y195353D01*
X79346Y195293D01*
X79432Y195230D01*
X79516Y195164D01*
X79598Y195094D01*
X79677Y195022D01*
X79753Y194947D01*
X79827Y194869D01*
X79897Y194789D01*
X79965Y194706D01*
X80030Y194621D01*
X80091Y194534D01*
X80150Y194444D01*
X80205Y194352D01*
X80257Y194259D01*
X80305Y194163D01*
X80350Y194066D01*
X80392Y193968D01*
X80429Y193868D01*
X80464Y193766D01*
X80494Y193664D01*
X80521Y193560D01*
X80544Y193456D01*
X80563Y193350D01*
X80578Y193244D01*
X80590Y193138D01*
X80598Y193031D01*
X80602Y192924D01*
X80602Y192818D01*
X80598Y192711D01*
X80590Y192604D01*
X80578Y192498D01*
X80563Y192392D01*
X80544Y192286D01*
X80521Y192182D01*
X80494Y192078D01*
X80464Y191976D01*
X80429Y191874D01*
X80392Y191774D01*
X80350Y191676D01*
X80305Y191579D01*
X80257Y191483D01*
X80205Y191390D01*
X80150Y191298D01*
X80091Y191208D01*
X80030Y191121D01*
X79965Y191036D01*
X79897Y190953D01*
X79827Y190873D01*
X79753Y190795D01*
X79677Y190720D01*
X79598Y190648D01*
X79516Y190578D01*
X79432Y190512D01*
X79346Y190449D01*
X79257Y190389D01*
X79167Y190332D01*
X79074Y190279D01*
X78979Y190229D01*
X78883Y190182D01*
X78785Y190139D01*
X78686Y190099D01*
X78585Y190063D01*
X78483Y190031D01*
X78380Y190002D01*
X78276Y189977D01*
X78171Y189956D01*
X78065Y189939D01*
X77959Y189925D01*
X77853Y189916D01*
X77746Y189910D01*
X77639Y189908D01*
X77639Y189907D02*
X74676Y189907D01*
X87288Y189315D02*
X89955Y189315D01*
X87288Y189314D02*
X87199Y189312D01*
X87110Y189306D01*
X87021Y189297D01*
X86933Y189283D01*
X86845Y189266D01*
X86758Y189245D01*
X86673Y189221D01*
X86588Y189192D01*
X86505Y189160D01*
X86423Y189125D01*
X86342Y189086D01*
X86264Y189044D01*
X86187Y188998D01*
X86113Y188949D01*
X86040Y188897D01*
X85970Y188841D01*
X85902Y188783D01*
X85837Y188722D01*
X85775Y188658D01*
X85715Y188592D01*
X85659Y188523D01*
X85605Y188452D01*
X85554Y188378D01*
X85507Y188303D01*
X85463Y188225D01*
X85422Y188146D01*
X85385Y188065D01*
X85351Y187982D01*
X85321Y187898D01*
X85295Y187813D01*
X85272Y187726D01*
X85253Y187639D01*
X85237Y187551D01*
X85226Y187463D01*
X85218Y187374D01*
X85214Y187285D01*
X85214Y187195D01*
X85218Y187106D01*
X85226Y187017D01*
X85237Y186929D01*
X85253Y186841D01*
X85272Y186754D01*
X85295Y186667D01*
X85321Y186582D01*
X85351Y186498D01*
X85385Y186415D01*
X85422Y186334D01*
X85463Y186255D01*
X85507Y186177D01*
X85554Y186102D01*
X85605Y186028D01*
X85659Y185957D01*
X85715Y185888D01*
X85775Y185822D01*
X85837Y185758D01*
X85902Y185697D01*
X85970Y185639D01*
X86040Y185583D01*
X86113Y185531D01*
X86187Y185482D01*
X86264Y185436D01*
X86342Y185394D01*
X86423Y185355D01*
X86505Y185320D01*
X86588Y185288D01*
X86673Y185259D01*
X86758Y185235D01*
X86845Y185214D01*
X86933Y185197D01*
X87021Y185183D01*
X87110Y185174D01*
X87199Y185168D01*
X87288Y185166D01*
X89955Y185166D01*
X89955Y190500D01*
X89953Y190582D01*
X89947Y190664D01*
X89938Y190746D01*
X89925Y190827D01*
X89908Y190907D01*
X89887Y190987D01*
X89863Y191065D01*
X89835Y191142D01*
X89804Y191218D01*
X89769Y191293D01*
X89730Y191365D01*
X89689Y191436D01*
X89644Y191505D01*
X89596Y191571D01*
X89545Y191636D01*
X89491Y191698D01*
X89434Y191757D01*
X89375Y191814D01*
X89313Y191868D01*
X89248Y191919D01*
X89182Y191967D01*
X89113Y192012D01*
X89042Y192053D01*
X88970Y192092D01*
X88895Y192127D01*
X88819Y192158D01*
X88742Y192186D01*
X88664Y192210D01*
X88584Y192231D01*
X88504Y192248D01*
X88423Y192261D01*
X88341Y192270D01*
X88259Y192276D01*
X88177Y192278D01*
X85806Y192278D01*
X95292Y192278D02*
X95292Y185166D01*
X94996Y195241D02*
X94996Y195834D01*
X95589Y195834D01*
X95589Y195241D01*
X94996Y195241D01*
X100641Y192278D02*
X100641Y185166D01*
X100641Y192278D02*
X104197Y192278D01*
X104197Y191093D01*
X107865Y192278D02*
X107865Y185166D01*
X107569Y195241D02*
X107569Y195834D01*
X108162Y195834D01*
X108162Y195241D01*
X107569Y195241D01*
X113115Y192278D02*
X113115Y185166D01*
X113115Y192278D02*
X116078Y192278D01*
X116160Y192276D01*
X116242Y192270D01*
X116324Y192261D01*
X116405Y192248D01*
X116485Y192231D01*
X116565Y192210D01*
X116643Y192186D01*
X116720Y192158D01*
X116796Y192127D01*
X116871Y192092D01*
X116943Y192053D01*
X117014Y192012D01*
X117083Y191967D01*
X117149Y191919D01*
X117214Y191868D01*
X117276Y191814D01*
X117335Y191757D01*
X117392Y191698D01*
X117446Y191636D01*
X117497Y191571D01*
X117545Y191505D01*
X117590Y191436D01*
X117631Y191365D01*
X117670Y191293D01*
X117705Y191218D01*
X117736Y191142D01*
X117764Y191065D01*
X117788Y190987D01*
X117809Y190907D01*
X117826Y190827D01*
X117839Y190746D01*
X117848Y190664D01*
X117854Y190582D01*
X117856Y190500D01*
X117856Y185166D01*
X125091Y185166D02*
X128054Y185166D01*
X125091Y185166D02*
X125009Y185168D01*
X124927Y185174D01*
X124845Y185183D01*
X124764Y185196D01*
X124684Y185213D01*
X124604Y185234D01*
X124526Y185258D01*
X124449Y185286D01*
X124373Y185317D01*
X124298Y185352D01*
X124226Y185391D01*
X124155Y185432D01*
X124086Y185477D01*
X124020Y185525D01*
X123955Y185576D01*
X123893Y185630D01*
X123834Y185687D01*
X123777Y185746D01*
X123723Y185808D01*
X123672Y185873D01*
X123624Y185939D01*
X123579Y186008D01*
X123538Y186079D01*
X123499Y186151D01*
X123464Y186226D01*
X123433Y186302D01*
X123405Y186379D01*
X123381Y186457D01*
X123360Y186537D01*
X123343Y186617D01*
X123330Y186698D01*
X123321Y186780D01*
X123315Y186862D01*
X123313Y186944D01*
X123313Y190500D01*
X123315Y190582D01*
X123321Y190664D01*
X123330Y190746D01*
X123343Y190827D01*
X123360Y190907D01*
X123381Y190987D01*
X123405Y191065D01*
X123433Y191142D01*
X123464Y191218D01*
X123499Y191293D01*
X123538Y191365D01*
X123579Y191436D01*
X123624Y191505D01*
X123672Y191571D01*
X123723Y191636D01*
X123777Y191698D01*
X123834Y191757D01*
X123893Y191814D01*
X123955Y191868D01*
X124020Y191919D01*
X124086Y191967D01*
X124155Y192012D01*
X124226Y192053D01*
X124298Y192092D01*
X124373Y192127D01*
X124449Y192158D01*
X124526Y192186D01*
X124604Y192210D01*
X124684Y192231D01*
X124764Y192248D01*
X124845Y192261D01*
X124927Y192270D01*
X125009Y192276D01*
X125091Y192278D01*
X128054Y192278D01*
X128054Y183388D01*
X128052Y183306D01*
X128046Y183224D01*
X128037Y183142D01*
X128024Y183061D01*
X128007Y182981D01*
X127986Y182901D01*
X127962Y182823D01*
X127934Y182746D01*
X127903Y182670D01*
X127868Y182595D01*
X127829Y182523D01*
X127788Y182452D01*
X127743Y182383D01*
X127695Y182317D01*
X127644Y182252D01*
X127590Y182190D01*
X127533Y182131D01*
X127474Y182074D01*
X127412Y182020D01*
X127347Y181969D01*
X127281Y181921D01*
X127212Y181876D01*
X127141Y181835D01*
X127069Y181796D01*
X126994Y181761D01*
X126918Y181730D01*
X126841Y181702D01*
X126763Y181678D01*
X126683Y181657D01*
X126603Y181640D01*
X126522Y181627D01*
X126440Y181618D01*
X126358Y181612D01*
X126276Y181610D01*
X123906Y181610D01*
X277876Y128684D02*
X280247Y118016D01*
X282617Y125128D01*
X284988Y118016D01*
X287359Y128684D01*
X292142Y125128D02*
X292142Y118016D01*
X291846Y128091D02*
X291846Y128684D01*
X292439Y128684D01*
X292439Y128091D01*
X291846Y128091D01*
X297595Y128684D02*
X297595Y118016D01*
X297595Y128684D02*
X302336Y128684D01*
X302336Y123943D02*
X297595Y123943D01*
X306620Y125128D02*
X306620Y118016D01*
X306324Y128091D02*
X306324Y128684D01*
X306917Y128684D01*
X306917Y128091D01*
X306324Y128091D01*
X125476Y132334D02*
X125476Y121666D01*
X125476Y132334D02*
X128439Y132334D01*
X128545Y132332D01*
X128650Y132326D01*
X128756Y132317D01*
X128861Y132304D01*
X128965Y132287D01*
X129069Y132266D01*
X129172Y132242D01*
X129274Y132214D01*
X129375Y132182D01*
X129474Y132147D01*
X129573Y132108D01*
X129670Y132066D01*
X129765Y132021D01*
X129859Y131972D01*
X129951Y131919D01*
X130041Y131864D01*
X130129Y131805D01*
X130215Y131743D01*
X130298Y131678D01*
X130379Y131610D01*
X130458Y131540D01*
X130534Y131466D01*
X130608Y131390D01*
X130678Y131311D01*
X130746Y131230D01*
X130811Y131147D01*
X130873Y131061D01*
X130932Y130973D01*
X130987Y130883D01*
X131040Y130791D01*
X131089Y130697D01*
X131134Y130602D01*
X131176Y130505D01*
X131215Y130406D01*
X131250Y130307D01*
X131282Y130206D01*
X131310Y130104D01*
X131334Y130001D01*
X131355Y129897D01*
X131372Y129793D01*
X131385Y129688D01*
X131394Y129582D01*
X131400Y129477D01*
X131402Y129371D01*
X131403Y129371D02*
X131403Y124629D01*
X131402Y124629D02*
X131400Y124523D01*
X131394Y124418D01*
X131385Y124312D01*
X131372Y124207D01*
X131355Y124103D01*
X131334Y123999D01*
X131310Y123896D01*
X131282Y123794D01*
X131250Y123693D01*
X131215Y123594D01*
X131176Y123495D01*
X131134Y123398D01*
X131089Y123303D01*
X131040Y123209D01*
X130987Y123117D01*
X130932Y123027D01*
X130873Y122939D01*
X130811Y122853D01*
X130746Y122770D01*
X130678Y122689D01*
X130608Y122610D01*
X130534Y122534D01*
X130458Y122460D01*
X130379Y122390D01*
X130298Y122322D01*
X130215Y122257D01*
X130129Y122195D01*
X130041Y122136D01*
X129951Y122081D01*
X129859Y122028D01*
X129765Y121979D01*
X129670Y121934D01*
X129573Y121892D01*
X129474Y121853D01*
X129375Y121818D01*
X129274Y121786D01*
X129172Y121758D01*
X129069Y121734D01*
X128965Y121713D01*
X128861Y121696D01*
X128756Y121683D01*
X128650Y121674D01*
X128545Y121668D01*
X128439Y121666D01*
X125476Y121666D01*
X137118Y124037D02*
X137118Y126407D01*
X137117Y126407D02*
X137119Y126504D01*
X137125Y126600D01*
X137135Y126696D01*
X137149Y126792D01*
X137166Y126887D01*
X137188Y126982D01*
X137213Y127075D01*
X137242Y127167D01*
X137275Y127258D01*
X137312Y127348D01*
X137352Y127436D01*
X137396Y127522D01*
X137443Y127606D01*
X137493Y127689D01*
X137547Y127769D01*
X137605Y127847D01*
X137665Y127923D01*
X137728Y127996D01*
X137794Y128066D01*
X137864Y128134D01*
X137935Y128199D01*
X138010Y128261D01*
X138087Y128319D01*
X138166Y128375D01*
X138247Y128427D01*
X138331Y128476D01*
X138416Y128522D01*
X138503Y128564D01*
X138592Y128602D01*
X138682Y128637D01*
X138774Y128668D01*
X138867Y128695D01*
X138960Y128719D01*
X139055Y128738D01*
X139151Y128754D01*
X139247Y128766D01*
X139343Y128774D01*
X139440Y128778D01*
X139536Y128778D01*
X139633Y128774D01*
X139729Y128766D01*
X139825Y128754D01*
X139921Y128738D01*
X140016Y128719D01*
X140109Y128695D01*
X140202Y128668D01*
X140294Y128637D01*
X140384Y128602D01*
X140473Y128564D01*
X140560Y128522D01*
X140645Y128476D01*
X140729Y128427D01*
X140810Y128375D01*
X140889Y128319D01*
X140966Y128261D01*
X141041Y128199D01*
X141112Y128134D01*
X141182Y128066D01*
X141248Y127996D01*
X141311Y127923D01*
X141371Y127847D01*
X141429Y127769D01*
X141483Y127689D01*
X141533Y127606D01*
X141580Y127522D01*
X141624Y127436D01*
X141664Y127348D01*
X141701Y127258D01*
X141734Y127167D01*
X141763Y127075D01*
X141788Y126982D01*
X141810Y126887D01*
X141827Y126792D01*
X141841Y126696D01*
X141851Y126600D01*
X141857Y126504D01*
X141859Y126407D01*
X141859Y124037D01*
X141857Y123940D01*
X141851Y123844D01*
X141841Y123748D01*
X141827Y123652D01*
X141810Y123557D01*
X141788Y123462D01*
X141763Y123369D01*
X141734Y123277D01*
X141701Y123186D01*
X141664Y123096D01*
X141624Y123008D01*
X141580Y122922D01*
X141533Y122838D01*
X141483Y122755D01*
X141429Y122675D01*
X141371Y122597D01*
X141311Y122521D01*
X141248Y122448D01*
X141182Y122378D01*
X141112Y122310D01*
X141041Y122245D01*
X140966Y122183D01*
X140889Y122125D01*
X140810Y122069D01*
X140729Y122017D01*
X140645Y121968D01*
X140560Y121922D01*
X140473Y121880D01*
X140384Y121842D01*
X140294Y121807D01*
X140202Y121776D01*
X140109Y121749D01*
X140016Y121725D01*
X139921Y121706D01*
X139825Y121690D01*
X139729Y121678D01*
X139633Y121670D01*
X139536Y121666D01*
X139440Y121666D01*
X139343Y121670D01*
X139247Y121678D01*
X139151Y121690D01*
X139055Y121706D01*
X138960Y121725D01*
X138867Y121749D01*
X138774Y121776D01*
X138682Y121807D01*
X138592Y121842D01*
X138503Y121880D01*
X138416Y121922D01*
X138331Y121968D01*
X138247Y122017D01*
X138166Y122069D01*
X138087Y122125D01*
X138010Y122183D01*
X137935Y122245D01*
X137864Y122310D01*
X137794Y122378D01*
X137728Y122448D01*
X137665Y122521D01*
X137605Y122597D01*
X137547Y122675D01*
X137493Y122755D01*
X137443Y122838D01*
X137396Y122922D01*
X137352Y123008D01*
X137312Y123096D01*
X137275Y123186D01*
X137242Y123277D01*
X137213Y123369D01*
X137188Y123462D01*
X137166Y123557D01*
X137149Y123652D01*
X137135Y123748D01*
X137125Y123844D01*
X137119Y123940D01*
X137117Y124037D01*
X147024Y124037D02*
X147024Y126407D01*
X147023Y126407D02*
X147025Y126504D01*
X147031Y126600D01*
X147041Y126696D01*
X147055Y126792D01*
X147072Y126887D01*
X147094Y126982D01*
X147119Y127075D01*
X147148Y127167D01*
X147181Y127258D01*
X147218Y127348D01*
X147258Y127436D01*
X147302Y127522D01*
X147349Y127606D01*
X147399Y127689D01*
X147453Y127769D01*
X147511Y127847D01*
X147571Y127923D01*
X147634Y127996D01*
X147700Y128066D01*
X147770Y128134D01*
X147841Y128199D01*
X147916Y128261D01*
X147993Y128319D01*
X148072Y128375D01*
X148153Y128427D01*
X148237Y128476D01*
X148322Y128522D01*
X148409Y128564D01*
X148498Y128602D01*
X148588Y128637D01*
X148680Y128668D01*
X148773Y128695D01*
X148866Y128719D01*
X148961Y128738D01*
X149057Y128754D01*
X149153Y128766D01*
X149249Y128774D01*
X149346Y128778D01*
X149442Y128778D01*
X149539Y128774D01*
X149635Y128766D01*
X149731Y128754D01*
X149827Y128738D01*
X149922Y128719D01*
X150015Y128695D01*
X150108Y128668D01*
X150200Y128637D01*
X150290Y128602D01*
X150379Y128564D01*
X150466Y128522D01*
X150551Y128476D01*
X150635Y128427D01*
X150716Y128375D01*
X150795Y128319D01*
X150872Y128261D01*
X150947Y128199D01*
X151018Y128134D01*
X151088Y128066D01*
X151154Y127996D01*
X151217Y127923D01*
X151277Y127847D01*
X151335Y127769D01*
X151389Y127689D01*
X151439Y127606D01*
X151486Y127522D01*
X151530Y127436D01*
X151570Y127348D01*
X151607Y127258D01*
X151640Y127167D01*
X151669Y127075D01*
X151694Y126982D01*
X151716Y126887D01*
X151733Y126792D01*
X151747Y126696D01*
X151757Y126600D01*
X151763Y126504D01*
X151765Y126407D01*
X151765Y124037D01*
X151763Y123940D01*
X151757Y123844D01*
X151747Y123748D01*
X151733Y123652D01*
X151716Y123557D01*
X151694Y123462D01*
X151669Y123369D01*
X151640Y123277D01*
X151607Y123186D01*
X151570Y123096D01*
X151530Y123008D01*
X151486Y122922D01*
X151439Y122838D01*
X151389Y122755D01*
X151335Y122675D01*
X151277Y122597D01*
X151217Y122521D01*
X151154Y122448D01*
X151088Y122378D01*
X151018Y122310D01*
X150947Y122245D01*
X150872Y122183D01*
X150795Y122125D01*
X150716Y122069D01*
X150635Y122017D01*
X150551Y121968D01*
X150466Y121922D01*
X150379Y121880D01*
X150290Y121842D01*
X150200Y121807D01*
X150108Y121776D01*
X150015Y121749D01*
X149922Y121725D01*
X149827Y121706D01*
X149731Y121690D01*
X149635Y121678D01*
X149539Y121670D01*
X149442Y121666D01*
X149346Y121666D01*
X149249Y121670D01*
X149153Y121678D01*
X149057Y121690D01*
X148961Y121706D01*
X148866Y121725D01*
X148773Y121749D01*
X148680Y121776D01*
X148588Y121807D01*
X148498Y121842D01*
X148409Y121880D01*
X148322Y121922D01*
X148237Y121968D01*
X148153Y122017D01*
X148072Y122069D01*
X147993Y122125D01*
X147916Y122183D01*
X147841Y122245D01*
X147770Y122310D01*
X147700Y122378D01*
X147634Y122448D01*
X147571Y122521D01*
X147511Y122597D01*
X147453Y122675D01*
X147399Y122755D01*
X147349Y122838D01*
X147302Y122922D01*
X147258Y123008D01*
X147218Y123096D01*
X147181Y123186D01*
X147148Y123277D01*
X147119Y123369D01*
X147094Y123462D01*
X147072Y123557D01*
X147055Y123652D01*
X147041Y123748D01*
X147031Y123844D01*
X147025Y123940D01*
X147023Y124037D01*
X157410Y121666D02*
X157410Y128778D01*
X160966Y128778D01*
X160966Y127593D01*
X170984Y125222D02*
X178096Y125222D01*
X178096Y128778D02*
X170984Y128778D01*
X172762Y132334D02*
X172762Y121666D01*
X176318Y121666D02*
X176318Y132334D01*
X186648Y132334D02*
X186750Y132332D01*
X186852Y132326D01*
X186954Y132316D01*
X187055Y132303D01*
X187156Y132285D01*
X187256Y132264D01*
X187355Y132239D01*
X187453Y132210D01*
X187549Y132177D01*
X187645Y132141D01*
X187739Y132101D01*
X187831Y132057D01*
X187922Y132010D01*
X188011Y131959D01*
X188098Y131906D01*
X188182Y131848D01*
X188265Y131788D01*
X188345Y131725D01*
X188422Y131658D01*
X188497Y131589D01*
X188570Y131516D01*
X188639Y131441D01*
X188706Y131364D01*
X188769Y131284D01*
X188829Y131201D01*
X188887Y131117D01*
X188940Y131030D01*
X188991Y130941D01*
X189038Y130850D01*
X189082Y130758D01*
X189122Y130664D01*
X189158Y130568D01*
X189191Y130472D01*
X189220Y130374D01*
X189245Y130275D01*
X189266Y130175D01*
X189284Y130074D01*
X189297Y129973D01*
X189307Y129871D01*
X189313Y129769D01*
X189315Y129667D01*
X186648Y132334D02*
X186532Y132332D01*
X186415Y132326D01*
X186299Y132316D01*
X186184Y132302D01*
X186069Y132285D01*
X185954Y132263D01*
X185841Y132237D01*
X185728Y132208D01*
X185616Y132175D01*
X185506Y132138D01*
X185397Y132097D01*
X185289Y132053D01*
X185183Y132005D01*
X185079Y131953D01*
X184976Y131898D01*
X184875Y131840D01*
X184777Y131778D01*
X184680Y131713D01*
X184586Y131644D01*
X184494Y131572D01*
X184405Y131498D01*
X184318Y131420D01*
X184234Y131339D01*
X184153Y131256D01*
X184075Y131170D01*
X183999Y131081D01*
X183927Y130990D01*
X183858Y130896D01*
X183792Y130800D01*
X183729Y130702D01*
X183670Y130602D01*
X183614Y130500D01*
X183562Y130396D01*
X183513Y130290D01*
X183468Y130183D01*
X183426Y130074D01*
X183389Y129964D01*
X188426Y127592D02*
X188501Y127666D01*
X188573Y127743D01*
X188642Y127823D01*
X188709Y127905D01*
X188772Y127989D01*
X188832Y128076D01*
X188889Y128164D01*
X188943Y128255D01*
X188993Y128348D01*
X189040Y128442D01*
X189083Y128538D01*
X189123Y128636D01*
X189159Y128735D01*
X189192Y128835D01*
X189220Y128937D01*
X189245Y129039D01*
X189267Y129143D01*
X189284Y129247D01*
X189298Y129351D01*
X189307Y129456D01*
X189313Y129562D01*
X189315Y129667D01*
X188426Y127593D02*
X183388Y121666D01*
X189315Y121666D01*
X23876Y121666D02*
X23876Y132334D01*
X26839Y132334D01*
X26945Y132332D01*
X27050Y132326D01*
X27156Y132317D01*
X27261Y132304D01*
X27365Y132287D01*
X27469Y132266D01*
X27572Y132242D01*
X27674Y132214D01*
X27775Y132182D01*
X27874Y132147D01*
X27973Y132108D01*
X28070Y132066D01*
X28165Y132021D01*
X28259Y131972D01*
X28351Y131919D01*
X28441Y131864D01*
X28529Y131805D01*
X28615Y131743D01*
X28698Y131678D01*
X28779Y131610D01*
X28858Y131540D01*
X28934Y131466D01*
X29008Y131390D01*
X29078Y131311D01*
X29146Y131230D01*
X29211Y131147D01*
X29273Y131061D01*
X29332Y130973D01*
X29387Y130883D01*
X29440Y130791D01*
X29489Y130697D01*
X29534Y130602D01*
X29576Y130505D01*
X29615Y130406D01*
X29650Y130307D01*
X29682Y130206D01*
X29710Y130104D01*
X29734Y130001D01*
X29755Y129897D01*
X29772Y129793D01*
X29785Y129688D01*
X29794Y129582D01*
X29800Y129477D01*
X29802Y129371D01*
X29803Y129371D02*
X29803Y124629D01*
X29802Y124629D02*
X29800Y124523D01*
X29794Y124418D01*
X29785Y124312D01*
X29772Y124207D01*
X29755Y124103D01*
X29734Y123999D01*
X29710Y123896D01*
X29682Y123794D01*
X29650Y123693D01*
X29615Y123594D01*
X29576Y123495D01*
X29534Y123398D01*
X29489Y123303D01*
X29440Y123209D01*
X29387Y123117D01*
X29332Y123027D01*
X29273Y122939D01*
X29211Y122853D01*
X29146Y122770D01*
X29078Y122689D01*
X29008Y122610D01*
X28934Y122534D01*
X28858Y122460D01*
X28779Y122390D01*
X28698Y122322D01*
X28615Y122257D01*
X28529Y122195D01*
X28441Y122136D01*
X28351Y122081D01*
X28259Y122028D01*
X28165Y121979D01*
X28070Y121934D01*
X27973Y121892D01*
X27874Y121853D01*
X27775Y121818D01*
X27674Y121786D01*
X27572Y121758D01*
X27469Y121734D01*
X27365Y121713D01*
X27261Y121696D01*
X27156Y121683D01*
X27050Y121674D01*
X26945Y121668D01*
X26839Y121666D01*
X23876Y121666D01*
X35518Y124037D02*
X35518Y126407D01*
X35517Y126407D02*
X35519Y126504D01*
X35525Y126600D01*
X35535Y126696D01*
X35549Y126792D01*
X35566Y126887D01*
X35588Y126982D01*
X35613Y127075D01*
X35642Y127167D01*
X35675Y127258D01*
X35712Y127348D01*
X35752Y127436D01*
X35796Y127522D01*
X35843Y127606D01*
X35893Y127689D01*
X35947Y127769D01*
X36005Y127847D01*
X36065Y127923D01*
X36128Y127996D01*
X36194Y128066D01*
X36264Y128134D01*
X36335Y128199D01*
X36410Y128261D01*
X36487Y128319D01*
X36566Y128375D01*
X36647Y128427D01*
X36731Y128476D01*
X36816Y128522D01*
X36903Y128564D01*
X36992Y128602D01*
X37082Y128637D01*
X37174Y128668D01*
X37267Y128695D01*
X37360Y128719D01*
X37455Y128738D01*
X37551Y128754D01*
X37647Y128766D01*
X37743Y128774D01*
X37840Y128778D01*
X37936Y128778D01*
X38033Y128774D01*
X38129Y128766D01*
X38225Y128754D01*
X38321Y128738D01*
X38416Y128719D01*
X38509Y128695D01*
X38602Y128668D01*
X38694Y128637D01*
X38784Y128602D01*
X38873Y128564D01*
X38960Y128522D01*
X39045Y128476D01*
X39129Y128427D01*
X39210Y128375D01*
X39289Y128319D01*
X39366Y128261D01*
X39441Y128199D01*
X39512Y128134D01*
X39582Y128066D01*
X39648Y127996D01*
X39711Y127923D01*
X39771Y127847D01*
X39829Y127769D01*
X39883Y127689D01*
X39933Y127606D01*
X39980Y127522D01*
X40024Y127436D01*
X40064Y127348D01*
X40101Y127258D01*
X40134Y127167D01*
X40163Y127075D01*
X40188Y126982D01*
X40210Y126887D01*
X40227Y126792D01*
X40241Y126696D01*
X40251Y126600D01*
X40257Y126504D01*
X40259Y126407D01*
X40259Y124037D01*
X40257Y123940D01*
X40251Y123844D01*
X40241Y123748D01*
X40227Y123652D01*
X40210Y123557D01*
X40188Y123462D01*
X40163Y123369D01*
X40134Y123277D01*
X40101Y123186D01*
X40064Y123096D01*
X40024Y123008D01*
X39980Y122922D01*
X39933Y122838D01*
X39883Y122755D01*
X39829Y122675D01*
X39771Y122597D01*
X39711Y122521D01*
X39648Y122448D01*
X39582Y122378D01*
X39512Y122310D01*
X39441Y122245D01*
X39366Y122183D01*
X39289Y122125D01*
X39210Y122069D01*
X39129Y122017D01*
X39045Y121968D01*
X38960Y121922D01*
X38873Y121880D01*
X38784Y121842D01*
X38694Y121807D01*
X38602Y121776D01*
X38509Y121749D01*
X38416Y121725D01*
X38321Y121706D01*
X38225Y121690D01*
X38129Y121678D01*
X38033Y121670D01*
X37936Y121666D01*
X37840Y121666D01*
X37743Y121670D01*
X37647Y121678D01*
X37551Y121690D01*
X37455Y121706D01*
X37360Y121725D01*
X37267Y121749D01*
X37174Y121776D01*
X37082Y121807D01*
X36992Y121842D01*
X36903Y121880D01*
X36816Y121922D01*
X36731Y121968D01*
X36647Y122017D01*
X36566Y122069D01*
X36487Y122125D01*
X36410Y122183D01*
X36335Y122245D01*
X36264Y122310D01*
X36194Y122378D01*
X36128Y122448D01*
X36065Y122521D01*
X36005Y122597D01*
X35947Y122675D01*
X35893Y122755D01*
X35843Y122838D01*
X35796Y122922D01*
X35752Y123008D01*
X35712Y123096D01*
X35675Y123186D01*
X35642Y123277D01*
X35613Y123369D01*
X35588Y123462D01*
X35566Y123557D01*
X35549Y123652D01*
X35535Y123748D01*
X35525Y123844D01*
X35519Y123940D01*
X35517Y124037D01*
X45424Y124037D02*
X45424Y126407D01*
X45423Y126407D02*
X45425Y126504D01*
X45431Y126600D01*
X45441Y126696D01*
X45455Y126792D01*
X45472Y126887D01*
X45494Y126982D01*
X45519Y127075D01*
X45548Y127167D01*
X45581Y127258D01*
X45618Y127348D01*
X45658Y127436D01*
X45702Y127522D01*
X45749Y127606D01*
X45799Y127689D01*
X45853Y127769D01*
X45911Y127847D01*
X45971Y127923D01*
X46034Y127996D01*
X46100Y128066D01*
X46170Y128134D01*
X46241Y128199D01*
X46316Y128261D01*
X46393Y128319D01*
X46472Y128375D01*
X46553Y128427D01*
X46637Y128476D01*
X46722Y128522D01*
X46809Y128564D01*
X46898Y128602D01*
X46988Y128637D01*
X47080Y128668D01*
X47173Y128695D01*
X47266Y128719D01*
X47361Y128738D01*
X47457Y128754D01*
X47553Y128766D01*
X47649Y128774D01*
X47746Y128778D01*
X47842Y128778D01*
X47939Y128774D01*
X48035Y128766D01*
X48131Y128754D01*
X48227Y128738D01*
X48322Y128719D01*
X48415Y128695D01*
X48508Y128668D01*
X48600Y128637D01*
X48690Y128602D01*
X48779Y128564D01*
X48866Y128522D01*
X48951Y128476D01*
X49035Y128427D01*
X49116Y128375D01*
X49195Y128319D01*
X49272Y128261D01*
X49347Y128199D01*
X49418Y128134D01*
X49488Y128066D01*
X49554Y127996D01*
X49617Y127923D01*
X49677Y127847D01*
X49735Y127769D01*
X49789Y127689D01*
X49839Y127606D01*
X49886Y127522D01*
X49930Y127436D01*
X49970Y127348D01*
X50007Y127258D01*
X50040Y127167D01*
X50069Y127075D01*
X50094Y126982D01*
X50116Y126887D01*
X50133Y126792D01*
X50147Y126696D01*
X50157Y126600D01*
X50163Y126504D01*
X50165Y126407D01*
X50165Y124037D01*
X50163Y123940D01*
X50157Y123844D01*
X50147Y123748D01*
X50133Y123652D01*
X50116Y123557D01*
X50094Y123462D01*
X50069Y123369D01*
X50040Y123277D01*
X50007Y123186D01*
X49970Y123096D01*
X49930Y123008D01*
X49886Y122922D01*
X49839Y122838D01*
X49789Y122755D01*
X49735Y122675D01*
X49677Y122597D01*
X49617Y122521D01*
X49554Y122448D01*
X49488Y122378D01*
X49418Y122310D01*
X49347Y122245D01*
X49272Y122183D01*
X49195Y122125D01*
X49116Y122069D01*
X49035Y122017D01*
X48951Y121968D01*
X48866Y121922D01*
X48779Y121880D01*
X48690Y121842D01*
X48600Y121807D01*
X48508Y121776D01*
X48415Y121749D01*
X48322Y121725D01*
X48227Y121706D01*
X48131Y121690D01*
X48035Y121678D01*
X47939Y121670D01*
X47842Y121666D01*
X47746Y121666D01*
X47649Y121670D01*
X47553Y121678D01*
X47457Y121690D01*
X47361Y121706D01*
X47266Y121725D01*
X47173Y121749D01*
X47080Y121776D01*
X46988Y121807D01*
X46898Y121842D01*
X46809Y121880D01*
X46722Y121922D01*
X46637Y121968D01*
X46553Y122017D01*
X46472Y122069D01*
X46393Y122125D01*
X46316Y122183D01*
X46241Y122245D01*
X46170Y122310D01*
X46100Y122378D01*
X46034Y122448D01*
X45971Y122521D01*
X45911Y122597D01*
X45853Y122675D01*
X45799Y122755D01*
X45749Y122838D01*
X45702Y122922D01*
X45658Y123008D01*
X45618Y123096D01*
X45581Y123186D01*
X45548Y123277D01*
X45519Y123369D01*
X45494Y123462D01*
X45472Y123557D01*
X45455Y123652D01*
X45441Y123748D01*
X45431Y123844D01*
X45425Y123940D01*
X45423Y124037D01*
X55810Y121666D02*
X55810Y128778D01*
X59366Y128778D01*
X59366Y127593D01*
X69384Y125222D02*
X76496Y125222D01*
X76496Y128778D02*
X69384Y128778D01*
X71162Y132334D02*
X71162Y121666D01*
X74718Y121666D02*
X74718Y132334D01*
X81788Y129963D02*
X84751Y132334D01*
X84751Y121666D01*
X81788Y121666D02*
X87715Y121666D01*
D11*
X50000Y113500D02*
X26000Y90000D01*
X127600Y90000D02*
X151600Y113500D01*
X267300Y90000D02*
X291300Y113500D01*
X45000Y290000D02*
X15000Y290000D01*
X30000Y305000D02*
X30000Y275000D01*
X605000Y290000D02*
X635000Y290000D01*
X620000Y305000D02*
X620000Y275000D01*
X605000Y30000D02*
X635000Y30000D01*
X620000Y45000D02*
X620000Y15000D01*
X45000Y30000D02*
X15000Y30000D01*
X30000Y45000D02*
X30000Y15000D01*
D12*
X359500Y378740D02*
X529500Y378740D01*
X359500Y138740D02*
X359500Y128740D01*
X384500Y128740D01*
X504500Y128740D02*
X529500Y128740D01*
X529500Y138740D01*
X359500Y298740D02*
X359500Y378740D01*
X529500Y378740D02*
X529500Y298740D01*
D10*
X540711Y302258D02*
X540711Y309963D01*
X540711Y302258D02*
X540713Y302151D01*
X540719Y302044D01*
X540728Y301938D01*
X540742Y301832D01*
X540759Y301726D01*
X540780Y301621D01*
X540805Y301517D01*
X540834Y301414D01*
X540866Y301312D01*
X540902Y301211D01*
X540942Y301112D01*
X540985Y301014D01*
X541032Y300918D01*
X541082Y300823D01*
X541135Y300730D01*
X541192Y300640D01*
X541252Y300551D01*
X541315Y300465D01*
X541381Y300381D01*
X541451Y300299D01*
X541523Y300220D01*
X541598Y300144D01*
X541676Y300070D01*
X541756Y300000D01*
X541839Y299932D01*
X541924Y299867D01*
X542011Y299806D01*
X542101Y299747D01*
X542193Y299692D01*
X542286Y299640D01*
X542382Y299592D01*
X542479Y299547D01*
X542577Y299505D01*
X542677Y299468D01*
X542779Y299433D01*
X542881Y299403D01*
X542985Y299376D01*
X543089Y299353D01*
X543195Y299334D01*
X543301Y299319D01*
X543407Y299307D01*
X543514Y299299D01*
X543621Y299295D01*
X543727Y299295D01*
X543834Y299299D01*
X543941Y299307D01*
X544047Y299319D01*
X544153Y299334D01*
X544259Y299353D01*
X544363Y299376D01*
X544467Y299403D01*
X544569Y299433D01*
X544671Y299468D01*
X544771Y299505D01*
X544869Y299547D01*
X544966Y299592D01*
X545062Y299640D01*
X545156Y299692D01*
X545247Y299747D01*
X545337Y299806D01*
X545424Y299867D01*
X545509Y299932D01*
X545592Y300000D01*
X545672Y300070D01*
X545750Y300144D01*
X545825Y300220D01*
X545897Y300299D01*
X545967Y300381D01*
X546033Y300465D01*
X546096Y300551D01*
X546156Y300640D01*
X546213Y300730D01*
X546266Y300823D01*
X546316Y300918D01*
X546363Y301014D01*
X546406Y301112D01*
X546446Y301211D01*
X546482Y301312D01*
X546514Y301414D01*
X546543Y301517D01*
X546568Y301621D01*
X546589Y301726D01*
X546606Y301832D01*
X546620Y301938D01*
X546629Y302044D01*
X546635Y302151D01*
X546637Y302258D01*
X546637Y309963D01*
X552522Y307592D02*
X555485Y309963D01*
X555485Y299295D01*
X552522Y299295D02*
X558448Y299295D01*
D13*
X131600Y259600D02*
X71600Y259600D01*
X131600Y259600D02*
X131600Y197600D01*
X71600Y197600D01*
X71600Y259600D01*
D11*
X83820Y228600D02*
X83825Y229036D01*
X83841Y229472D01*
X83868Y229908D01*
X83906Y230343D01*
X83954Y230776D01*
X84012Y231209D01*
X84082Y231640D01*
X84162Y232069D01*
X84252Y232496D01*
X84353Y232920D01*
X84464Y233342D01*
X84586Y233761D01*
X84717Y234177D01*
X84859Y234590D01*
X85011Y234999D01*
X85173Y235404D01*
X85345Y235805D01*
X85527Y236202D01*
X85718Y236594D01*
X85919Y236981D01*
X86130Y237364D01*
X86350Y237741D01*
X86579Y238112D01*
X86816Y238478D01*
X87063Y238838D01*
X87319Y239192D01*
X87583Y239539D01*
X87856Y239880D01*
X88137Y240213D01*
X88426Y240540D01*
X88723Y240860D01*
X89028Y241172D01*
X89340Y241477D01*
X89660Y241774D01*
X89987Y242063D01*
X90320Y242344D01*
X90661Y242617D01*
X91008Y242881D01*
X91362Y243137D01*
X91722Y243384D01*
X92088Y243621D01*
X92459Y243850D01*
X92836Y244070D01*
X93219Y244281D01*
X93606Y244482D01*
X93998Y244673D01*
X94395Y244855D01*
X94796Y245027D01*
X95201Y245189D01*
X95610Y245341D01*
X96023Y245483D01*
X96439Y245614D01*
X96858Y245736D01*
X97280Y245847D01*
X97704Y245948D01*
X98131Y246038D01*
X98560Y246118D01*
X98991Y246188D01*
X99424Y246246D01*
X99857Y246294D01*
X100292Y246332D01*
X100728Y246359D01*
X101164Y246375D01*
X101600Y246380D01*
X102036Y246375D01*
X102472Y246359D01*
X102908Y246332D01*
X103343Y246294D01*
X103776Y246246D01*
X104209Y246188D01*
X104640Y246118D01*
X105069Y246038D01*
X105496Y245948D01*
X105920Y245847D01*
X106342Y245736D01*
X106761Y245614D01*
X107177Y245483D01*
X107590Y245341D01*
X107999Y245189D01*
X108404Y245027D01*
X108805Y244855D01*
X109202Y244673D01*
X109594Y244482D01*
X109981Y244281D01*
X110364Y244070D01*
X110741Y243850D01*
X111112Y243621D01*
X111478Y243384D01*
X111838Y243137D01*
X112192Y242881D01*
X112539Y242617D01*
X112880Y242344D01*
X113213Y242063D01*
X113540Y241774D01*
X113860Y241477D01*
X114172Y241172D01*
X114477Y240860D01*
X114774Y240540D01*
X115063Y240213D01*
X115344Y239880D01*
X115617Y239539D01*
X115881Y239192D01*
X116137Y238838D01*
X116384Y238478D01*
X116621Y238112D01*
X116850Y237741D01*
X117070Y237364D01*
X117281Y236981D01*
X117482Y236594D01*
X117673Y236202D01*
X117855Y235805D01*
X118027Y235404D01*
X118189Y234999D01*
X118341Y234590D01*
X118483Y234177D01*
X118614Y233761D01*
X118736Y233342D01*
X118847Y232920D01*
X118948Y232496D01*
X119038Y232069D01*
X119118Y231640D01*
X119188Y231209D01*
X119246Y230776D01*
X119294Y230343D01*
X119332Y229908D01*
X119359Y229472D01*
X119375Y229036D01*
X119380Y228600D01*
X119375Y228164D01*
X119359Y227728D01*
X119332Y227292D01*
X119294Y226857D01*
X119246Y226424D01*
X119188Y225991D01*
X119118Y225560D01*
X119038Y225131D01*
X118948Y224704D01*
X118847Y224280D01*
X118736Y223858D01*
X118614Y223439D01*
X118483Y223023D01*
X118341Y222610D01*
X118189Y222201D01*
X118027Y221796D01*
X117855Y221395D01*
X117673Y220998D01*
X117482Y220606D01*
X117281Y220219D01*
X117070Y219836D01*
X116850Y219459D01*
X116621Y219088D01*
X116384Y218722D01*
X116137Y218362D01*
X115881Y218008D01*
X115617Y217661D01*
X115344Y217320D01*
X115063Y216987D01*
X114774Y216660D01*
X114477Y216340D01*
X114172Y216028D01*
X113860Y215723D01*
X113540Y215426D01*
X113213Y215137D01*
X112880Y214856D01*
X112539Y214583D01*
X112192Y214319D01*
X111838Y214063D01*
X111478Y213816D01*
X111112Y213579D01*
X110741Y213350D01*
X110364Y213130D01*
X109981Y212919D01*
X109594Y212718D01*
X109202Y212527D01*
X108805Y212345D01*
X108404Y212173D01*
X107999Y212011D01*
X107590Y211859D01*
X107177Y211717D01*
X106761Y211586D01*
X106342Y211464D01*
X105920Y211353D01*
X105496Y211252D01*
X105069Y211162D01*
X104640Y211082D01*
X104209Y211012D01*
X103776Y210954D01*
X103343Y210906D01*
X102908Y210868D01*
X102472Y210841D01*
X102036Y210825D01*
X101600Y210820D01*
X101164Y210825D01*
X100728Y210841D01*
X100292Y210868D01*
X99857Y210906D01*
X99424Y210954D01*
X98991Y211012D01*
X98560Y211082D01*
X98131Y211162D01*
X97704Y211252D01*
X97280Y211353D01*
X96858Y211464D01*
X96439Y211586D01*
X96023Y211717D01*
X95610Y211859D01*
X95201Y212011D01*
X94796Y212173D01*
X94395Y212345D01*
X93998Y212527D01*
X93606Y212718D01*
X93219Y212919D01*
X92836Y213130D01*
X92459Y213350D01*
X92088Y213579D01*
X91722Y213816D01*
X91362Y214063D01*
X91008Y214319D01*
X90661Y214583D01*
X90320Y214856D01*
X89987Y215137D01*
X89660Y215426D01*
X89340Y215723D01*
X89028Y216028D01*
X88723Y216340D01*
X88426Y216660D01*
X88137Y216987D01*
X87856Y217320D01*
X87583Y217661D01*
X87319Y218008D01*
X87063Y218362D01*
X86816Y218722D01*
X86579Y219088D01*
X86350Y219459D01*
X86130Y219836D01*
X85919Y220219D01*
X85718Y220606D01*
X85527Y220998D01*
X85345Y221395D01*
X85173Y221796D01*
X85011Y222201D01*
X84859Y222610D01*
X84717Y223023D01*
X84586Y223439D01*
X84464Y223858D01*
X84353Y224280D01*
X84252Y224704D01*
X84162Y225131D01*
X84082Y225560D01*
X84012Y225991D01*
X83954Y226424D01*
X83906Y226857D01*
X83868Y227292D01*
X83841Y227728D01*
X83825Y228164D01*
X83820Y228600D01*
X99060Y228600D02*
X99062Y228700D01*
X99068Y228801D01*
X99078Y228900D01*
X99092Y229000D01*
X99109Y229099D01*
X99131Y229197D01*
X99157Y229294D01*
X99186Y229390D01*
X99219Y229484D01*
X99256Y229578D01*
X99296Y229670D01*
X99340Y229760D01*
X99388Y229848D01*
X99439Y229935D01*
X99493Y230019D01*
X99551Y230101D01*
X99612Y230181D01*
X99676Y230258D01*
X99743Y230333D01*
X99813Y230405D01*
X99886Y230474D01*
X99961Y230540D01*
X100039Y230604D01*
X100119Y230664D01*
X100202Y230721D01*
X100287Y230774D01*
X100374Y230824D01*
X100463Y230871D01*
X100553Y230914D01*
X100645Y230954D01*
X100739Y230990D01*
X100834Y231022D01*
X100930Y231050D01*
X101028Y231075D01*
X101126Y231095D01*
X101225Y231112D01*
X101325Y231125D01*
X101424Y231134D01*
X101525Y231139D01*
X101625Y231140D01*
X101725Y231137D01*
X101826Y231130D01*
X101925Y231119D01*
X102025Y231104D01*
X102123Y231086D01*
X102221Y231063D01*
X102318Y231036D01*
X102413Y231006D01*
X102508Y230972D01*
X102601Y230934D01*
X102692Y230893D01*
X102782Y230848D01*
X102870Y230800D01*
X102956Y230748D01*
X103040Y230693D01*
X103121Y230634D01*
X103200Y230572D01*
X103277Y230508D01*
X103351Y230440D01*
X103422Y230369D01*
X103491Y230296D01*
X103556Y230220D01*
X103619Y230141D01*
X103678Y230060D01*
X103734Y229977D01*
X103787Y229892D01*
X103836Y229804D01*
X103882Y229715D01*
X103924Y229624D01*
X103963Y229531D01*
X103998Y229437D01*
X104029Y229342D01*
X104057Y229245D01*
X104080Y229148D01*
X104100Y229049D01*
X104116Y228950D01*
X104128Y228851D01*
X104136Y228750D01*
X104140Y228650D01*
X104140Y228550D01*
X104136Y228450D01*
X104128Y228349D01*
X104116Y228250D01*
X104100Y228151D01*
X104080Y228052D01*
X104057Y227955D01*
X104029Y227858D01*
X103998Y227763D01*
X103963Y227669D01*
X103924Y227576D01*
X103882Y227485D01*
X103836Y227396D01*
X103787Y227308D01*
X103734Y227223D01*
X103678Y227140D01*
X103619Y227059D01*
X103556Y226980D01*
X103491Y226904D01*
X103422Y226831D01*
X103351Y226760D01*
X103277Y226692D01*
X103200Y226628D01*
X103121Y226566D01*
X103040Y226507D01*
X102956Y226452D01*
X102870Y226400D01*
X102782Y226352D01*
X102692Y226307D01*
X102601Y226266D01*
X102508Y226228D01*
X102413Y226194D01*
X102318Y226164D01*
X102221Y226137D01*
X102123Y226114D01*
X102025Y226096D01*
X101925Y226081D01*
X101826Y226070D01*
X101725Y226063D01*
X101625Y226060D01*
X101525Y226061D01*
X101424Y226066D01*
X101325Y226075D01*
X101225Y226088D01*
X101126Y226105D01*
X101028Y226125D01*
X100930Y226150D01*
X100834Y226178D01*
X100739Y226210D01*
X100645Y226246D01*
X100553Y226286D01*
X100463Y226329D01*
X100374Y226376D01*
X100287Y226426D01*
X100202Y226479D01*
X100119Y226536D01*
X100039Y226596D01*
X99961Y226660D01*
X99886Y226726D01*
X99813Y226795D01*
X99743Y226867D01*
X99676Y226942D01*
X99612Y227019D01*
X99551Y227099D01*
X99493Y227181D01*
X99439Y227265D01*
X99388Y227352D01*
X99340Y227440D01*
X99296Y227530D01*
X99256Y227622D01*
X99219Y227716D01*
X99186Y227810D01*
X99157Y227906D01*
X99131Y228003D01*
X99109Y228101D01*
X99092Y228200D01*
X99078Y228300D01*
X99068Y228399D01*
X99062Y228500D01*
X99060Y228600D01*
D10*
X101092Y266446D02*
X101188Y266448D01*
X101283Y266454D01*
X101378Y266463D01*
X101472Y266477D01*
X101566Y266494D01*
X101659Y266515D01*
X101752Y266540D01*
X101843Y266568D01*
X101933Y266600D01*
X102021Y266636D01*
X102108Y266675D01*
X102194Y266718D01*
X102278Y266764D01*
X102359Y266813D01*
X102439Y266866D01*
X102516Y266922D01*
X102592Y266980D01*
X102664Y267042D01*
X102734Y267107D01*
X102802Y267175D01*
X102867Y267245D01*
X102929Y267317D01*
X102987Y267393D01*
X103043Y267470D01*
X103096Y267550D01*
X103145Y267632D01*
X103191Y267715D01*
X103234Y267801D01*
X103273Y267888D01*
X103309Y267976D01*
X103341Y268066D01*
X103369Y268157D01*
X103394Y268250D01*
X103415Y268343D01*
X103432Y268437D01*
X103446Y268531D01*
X103455Y268626D01*
X103461Y268722D01*
X103463Y268817D01*
X101092Y266446D02*
X100956Y266448D01*
X100819Y266453D01*
X100683Y266463D01*
X100548Y266476D01*
X100412Y266492D01*
X100278Y266513D01*
X100143Y266537D01*
X100010Y266564D01*
X99877Y266596D01*
X99745Y266630D01*
X99614Y266669D01*
X99485Y266711D01*
X99356Y266756D01*
X99229Y266805D01*
X99103Y266858D01*
X98979Y266914D01*
X98856Y266973D01*
X98735Y267035D01*
X98615Y267101D01*
X98498Y267170D01*
X98382Y267243D01*
X98268Y267318D01*
X98157Y267396D01*
X98047Y267478D01*
X97940Y267562D01*
X97836Y267649D01*
X97733Y267739D01*
X97633Y267832D01*
X97536Y267928D01*
X97832Y274743D02*
X97834Y274838D01*
X97840Y274934D01*
X97849Y275029D01*
X97863Y275123D01*
X97880Y275217D01*
X97901Y275310D01*
X97926Y275403D01*
X97954Y275494D01*
X97986Y275584D01*
X98022Y275672D01*
X98061Y275759D01*
X98104Y275845D01*
X98150Y275929D01*
X98199Y276010D01*
X98252Y276090D01*
X98308Y276167D01*
X98366Y276243D01*
X98428Y276315D01*
X98493Y276385D01*
X98561Y276453D01*
X98631Y276518D01*
X98703Y276580D01*
X98779Y276638D01*
X98856Y276694D01*
X98936Y276747D01*
X99018Y276796D01*
X99101Y276842D01*
X99187Y276885D01*
X99274Y276924D01*
X99362Y276960D01*
X99452Y276992D01*
X99543Y277020D01*
X99636Y277045D01*
X99729Y277066D01*
X99823Y277083D01*
X99917Y277097D01*
X100012Y277106D01*
X100108Y277112D01*
X100203Y277114D01*
X100333Y277112D01*
X100463Y277106D01*
X100593Y277097D01*
X100722Y277084D01*
X100851Y277067D01*
X100979Y277046D01*
X101107Y277021D01*
X101234Y276993D01*
X101360Y276961D01*
X101485Y276925D01*
X101609Y276886D01*
X101731Y276843D01*
X101853Y276797D01*
X101973Y276746D01*
X102091Y276693D01*
X102208Y276636D01*
X102323Y276576D01*
X102437Y276512D01*
X102548Y276445D01*
X102658Y276375D01*
X102765Y276301D01*
X102870Y276225D01*
X99018Y272668D02*
X98936Y272719D01*
X98856Y272773D01*
X98778Y272829D01*
X98703Y272889D01*
X98630Y272952D01*
X98560Y273018D01*
X98493Y273086D01*
X98428Y273157D01*
X98366Y273231D01*
X98307Y273307D01*
X98251Y273385D01*
X98199Y273466D01*
X98149Y273548D01*
X98103Y273633D01*
X98061Y273719D01*
X98021Y273807D01*
X97986Y273896D01*
X97954Y273987D01*
X97925Y274079D01*
X97901Y274172D01*
X97880Y274265D01*
X97863Y274360D01*
X97849Y274455D01*
X97840Y274551D01*
X97834Y274647D01*
X97832Y274743D01*
X102278Y270892D02*
X102359Y270841D01*
X102439Y270787D01*
X102517Y270731D01*
X102592Y270671D01*
X102665Y270608D01*
X102735Y270542D01*
X102802Y270474D01*
X102867Y270403D01*
X102929Y270329D01*
X102988Y270253D01*
X103044Y270175D01*
X103096Y270094D01*
X103146Y270012D01*
X103192Y269927D01*
X103234Y269841D01*
X103274Y269753D01*
X103309Y269664D01*
X103341Y269573D01*
X103370Y269481D01*
X103394Y269388D01*
X103415Y269295D01*
X103432Y269200D01*
X103446Y269105D01*
X103455Y269009D01*
X103461Y268913D01*
X103463Y268817D01*
X102277Y270891D02*
X99018Y272669D01*
X108585Y274743D02*
X111548Y277114D01*
X111548Y266446D01*
X108585Y266446D02*
X114512Y266446D01*
D14*
X75800Y113900D02*
X25800Y113900D01*
X75800Y113900D02*
X75800Y112776D01*
X75800Y63900D02*
X25800Y63900D01*
X75800Y81788D02*
X75800Y96012D01*
X25800Y96012D02*
X25800Y81788D01*
X25800Y112776D02*
X25800Y113900D01*
X75800Y65132D02*
X75800Y64008D01*
X25762Y64008D02*
X25762Y65132D01*
X33800Y88900D02*
X33805Y89317D01*
X33820Y89734D01*
X33846Y90151D01*
X33882Y90566D01*
X33928Y90981D01*
X33984Y91394D01*
X34050Y91806D01*
X34127Y92217D01*
X34213Y92625D01*
X34309Y93031D01*
X34416Y93434D01*
X34532Y93835D01*
X34658Y94233D01*
X34794Y94627D01*
X34939Y95018D01*
X35094Y95406D01*
X35258Y95789D01*
X35432Y96168D01*
X35615Y96543D01*
X35807Y96914D01*
X36009Y97279D01*
X36219Y97640D01*
X36437Y97995D01*
X36665Y98345D01*
X36901Y98689D01*
X37145Y99027D01*
X37398Y99359D01*
X37659Y99685D01*
X37927Y100004D01*
X38204Y100317D01*
X38488Y100622D01*
X38779Y100921D01*
X39078Y101212D01*
X39383Y101496D01*
X39696Y101773D01*
X40015Y102041D01*
X40341Y102302D01*
X40673Y102555D01*
X41011Y102799D01*
X41355Y103035D01*
X41705Y103263D01*
X42060Y103481D01*
X42421Y103691D01*
X42786Y103893D01*
X43157Y104085D01*
X43532Y104268D01*
X43911Y104442D01*
X44294Y104606D01*
X44682Y104761D01*
X45073Y104906D01*
X45467Y105042D01*
X45865Y105168D01*
X46266Y105284D01*
X46669Y105391D01*
X47075Y105487D01*
X47483Y105573D01*
X47894Y105650D01*
X48306Y105716D01*
X48719Y105772D01*
X49134Y105818D01*
X49549Y105854D01*
X49966Y105880D01*
X50383Y105895D01*
X50800Y105900D01*
X51217Y105895D01*
X51634Y105880D01*
X52051Y105854D01*
X52466Y105818D01*
X52881Y105772D01*
X53294Y105716D01*
X53706Y105650D01*
X54117Y105573D01*
X54525Y105487D01*
X54931Y105391D01*
X55334Y105284D01*
X55735Y105168D01*
X56133Y105042D01*
X56527Y104906D01*
X56918Y104761D01*
X57306Y104606D01*
X57689Y104442D01*
X58068Y104268D01*
X58443Y104085D01*
X58814Y103893D01*
X59179Y103691D01*
X59540Y103481D01*
X59895Y103263D01*
X60245Y103035D01*
X60589Y102799D01*
X60927Y102555D01*
X61259Y102302D01*
X61585Y102041D01*
X61904Y101773D01*
X62217Y101496D01*
X62522Y101212D01*
X62821Y100921D01*
X63112Y100622D01*
X63396Y100317D01*
X63673Y100004D01*
X63941Y99685D01*
X64202Y99359D01*
X64455Y99027D01*
X64699Y98689D01*
X64935Y98345D01*
X65163Y97995D01*
X65381Y97640D01*
X65591Y97279D01*
X65793Y96914D01*
X65985Y96543D01*
X66168Y96168D01*
X66342Y95789D01*
X66506Y95406D01*
X66661Y95018D01*
X66806Y94627D01*
X66942Y94233D01*
X67068Y93835D01*
X67184Y93434D01*
X67291Y93031D01*
X67387Y92625D01*
X67473Y92217D01*
X67550Y91806D01*
X67616Y91394D01*
X67672Y90981D01*
X67718Y90566D01*
X67754Y90151D01*
X67780Y89734D01*
X67795Y89317D01*
X67800Y88900D01*
X67795Y88483D01*
X67780Y88066D01*
X67754Y87649D01*
X67718Y87234D01*
X67672Y86819D01*
X67616Y86406D01*
X67550Y85994D01*
X67473Y85583D01*
X67387Y85175D01*
X67291Y84769D01*
X67184Y84366D01*
X67068Y83965D01*
X66942Y83567D01*
X66806Y83173D01*
X66661Y82782D01*
X66506Y82394D01*
X66342Y82011D01*
X66168Y81632D01*
X65985Y81257D01*
X65793Y80886D01*
X65591Y80521D01*
X65381Y80160D01*
X65163Y79805D01*
X64935Y79455D01*
X64699Y79111D01*
X64455Y78773D01*
X64202Y78441D01*
X63941Y78115D01*
X63673Y77796D01*
X63396Y77483D01*
X63112Y77178D01*
X62821Y76879D01*
X62522Y76588D01*
X62217Y76304D01*
X61904Y76027D01*
X61585Y75759D01*
X61259Y75498D01*
X60927Y75245D01*
X60589Y75001D01*
X60245Y74765D01*
X59895Y74537D01*
X59540Y74319D01*
X59179Y74109D01*
X58814Y73907D01*
X58443Y73715D01*
X58068Y73532D01*
X57689Y73358D01*
X57306Y73194D01*
X56918Y73039D01*
X56527Y72894D01*
X56133Y72758D01*
X55735Y72632D01*
X55334Y72516D01*
X54931Y72409D01*
X54525Y72313D01*
X54117Y72227D01*
X53706Y72150D01*
X53294Y72084D01*
X52881Y72028D01*
X52466Y71982D01*
X52051Y71946D01*
X51634Y71920D01*
X51217Y71905D01*
X50800Y71900D01*
X50383Y71905D01*
X49966Y71920D01*
X49549Y71946D01*
X49134Y71982D01*
X48719Y72028D01*
X48306Y72084D01*
X47894Y72150D01*
X47483Y72227D01*
X47075Y72313D01*
X46669Y72409D01*
X46266Y72516D01*
X45865Y72632D01*
X45467Y72758D01*
X45073Y72894D01*
X44682Y73039D01*
X44294Y73194D01*
X43911Y73358D01*
X43532Y73532D01*
X43157Y73715D01*
X42786Y73907D01*
X42421Y74109D01*
X42060Y74319D01*
X41705Y74537D01*
X41355Y74765D01*
X41011Y75001D01*
X40673Y75245D01*
X40341Y75498D01*
X40015Y75759D01*
X39696Y76027D01*
X39383Y76304D01*
X39078Y76588D01*
X38779Y76879D01*
X38488Y77178D01*
X38204Y77483D01*
X37927Y77796D01*
X37659Y78115D01*
X37398Y78441D01*
X37145Y78773D01*
X36901Y79111D01*
X36665Y79455D01*
X36437Y79805D01*
X36219Y80160D01*
X36009Y80521D01*
X35807Y80886D01*
X35615Y81257D01*
X35432Y81632D01*
X35258Y82011D01*
X35094Y82394D01*
X34939Y82782D01*
X34794Y83173D01*
X34658Y83567D01*
X34532Y83965D01*
X34416Y84366D01*
X34309Y84769D01*
X34213Y85175D01*
X34127Y85583D01*
X34050Y85994D01*
X33984Y86406D01*
X33928Y86819D01*
X33882Y87234D01*
X33846Y87649D01*
X33820Y88066D01*
X33805Y88483D01*
X33800Y88900D01*
D15*
X88006Y72400D03*
D10*
X44531Y57034D02*
X44531Y46366D01*
X44531Y57034D02*
X47495Y57034D01*
X47601Y57032D01*
X47706Y57026D01*
X47812Y57017D01*
X47917Y57004D01*
X48021Y56987D01*
X48125Y56966D01*
X48228Y56942D01*
X48330Y56914D01*
X48431Y56882D01*
X48530Y56847D01*
X48629Y56808D01*
X48726Y56766D01*
X48821Y56721D01*
X48915Y56672D01*
X49007Y56619D01*
X49097Y56564D01*
X49185Y56505D01*
X49271Y56443D01*
X49354Y56378D01*
X49435Y56310D01*
X49514Y56240D01*
X49590Y56166D01*
X49664Y56090D01*
X49734Y56011D01*
X49802Y55930D01*
X49867Y55847D01*
X49929Y55761D01*
X49988Y55673D01*
X50043Y55583D01*
X50096Y55491D01*
X50145Y55397D01*
X50190Y55302D01*
X50232Y55205D01*
X50271Y55106D01*
X50306Y55007D01*
X50338Y54906D01*
X50366Y54804D01*
X50390Y54701D01*
X50411Y54597D01*
X50428Y54493D01*
X50441Y54388D01*
X50450Y54282D01*
X50456Y54177D01*
X50458Y54071D01*
X50458Y49329D01*
X50456Y49223D01*
X50450Y49118D01*
X50441Y49012D01*
X50428Y48907D01*
X50411Y48803D01*
X50390Y48699D01*
X50366Y48596D01*
X50338Y48494D01*
X50306Y48393D01*
X50271Y48294D01*
X50232Y48195D01*
X50190Y48098D01*
X50145Y48003D01*
X50096Y47909D01*
X50043Y47817D01*
X49988Y47727D01*
X49929Y47639D01*
X49867Y47553D01*
X49802Y47470D01*
X49734Y47389D01*
X49664Y47310D01*
X49590Y47234D01*
X49514Y47160D01*
X49435Y47090D01*
X49354Y47022D01*
X49271Y46957D01*
X49185Y46895D01*
X49097Y46836D01*
X49007Y46781D01*
X48915Y46728D01*
X48821Y46679D01*
X48726Y46634D01*
X48629Y46592D01*
X48530Y46553D01*
X48431Y46518D01*
X48330Y46486D01*
X48228Y46458D01*
X48125Y46434D01*
X48021Y46413D01*
X47917Y46396D01*
X47812Y46383D01*
X47706Y46374D01*
X47601Y46368D01*
X47495Y46366D01*
X44531Y46366D01*
X56342Y54663D02*
X59305Y57034D01*
X59305Y46366D01*
X56342Y46366D02*
X62269Y46366D01*
D14*
X127400Y113900D02*
X177400Y113900D01*
X177400Y112776D01*
X177400Y63900D02*
X127400Y63900D01*
X177400Y81788D02*
X177400Y96012D01*
X127400Y96012D02*
X127400Y81788D01*
X127400Y112776D02*
X127400Y113900D01*
X177400Y65132D02*
X177400Y64008D01*
X127362Y64008D02*
X127362Y65132D01*
X135400Y88900D02*
X135405Y89317D01*
X135420Y89734D01*
X135446Y90151D01*
X135482Y90566D01*
X135528Y90981D01*
X135584Y91394D01*
X135650Y91806D01*
X135727Y92217D01*
X135813Y92625D01*
X135909Y93031D01*
X136016Y93434D01*
X136132Y93835D01*
X136258Y94233D01*
X136394Y94627D01*
X136539Y95018D01*
X136694Y95406D01*
X136858Y95789D01*
X137032Y96168D01*
X137215Y96543D01*
X137407Y96914D01*
X137609Y97279D01*
X137819Y97640D01*
X138037Y97995D01*
X138265Y98345D01*
X138501Y98689D01*
X138745Y99027D01*
X138998Y99359D01*
X139259Y99685D01*
X139527Y100004D01*
X139804Y100317D01*
X140088Y100622D01*
X140379Y100921D01*
X140678Y101212D01*
X140983Y101496D01*
X141296Y101773D01*
X141615Y102041D01*
X141941Y102302D01*
X142273Y102555D01*
X142611Y102799D01*
X142955Y103035D01*
X143305Y103263D01*
X143660Y103481D01*
X144021Y103691D01*
X144386Y103893D01*
X144757Y104085D01*
X145132Y104268D01*
X145511Y104442D01*
X145894Y104606D01*
X146282Y104761D01*
X146673Y104906D01*
X147067Y105042D01*
X147465Y105168D01*
X147866Y105284D01*
X148269Y105391D01*
X148675Y105487D01*
X149083Y105573D01*
X149494Y105650D01*
X149906Y105716D01*
X150319Y105772D01*
X150734Y105818D01*
X151149Y105854D01*
X151566Y105880D01*
X151983Y105895D01*
X152400Y105900D01*
X152817Y105895D01*
X153234Y105880D01*
X153651Y105854D01*
X154066Y105818D01*
X154481Y105772D01*
X154894Y105716D01*
X155306Y105650D01*
X155717Y105573D01*
X156125Y105487D01*
X156531Y105391D01*
X156934Y105284D01*
X157335Y105168D01*
X157733Y105042D01*
X158127Y104906D01*
X158518Y104761D01*
X158906Y104606D01*
X159289Y104442D01*
X159668Y104268D01*
X160043Y104085D01*
X160414Y103893D01*
X160779Y103691D01*
X161140Y103481D01*
X161495Y103263D01*
X161845Y103035D01*
X162189Y102799D01*
X162527Y102555D01*
X162859Y102302D01*
X163185Y102041D01*
X163504Y101773D01*
X163817Y101496D01*
X164122Y101212D01*
X164421Y100921D01*
X164712Y100622D01*
X164996Y100317D01*
X165273Y100004D01*
X165541Y99685D01*
X165802Y99359D01*
X166055Y99027D01*
X166299Y98689D01*
X166535Y98345D01*
X166763Y97995D01*
X166981Y97640D01*
X167191Y97279D01*
X167393Y96914D01*
X167585Y96543D01*
X167768Y96168D01*
X167942Y95789D01*
X168106Y95406D01*
X168261Y95018D01*
X168406Y94627D01*
X168542Y94233D01*
X168668Y93835D01*
X168784Y93434D01*
X168891Y93031D01*
X168987Y92625D01*
X169073Y92217D01*
X169150Y91806D01*
X169216Y91394D01*
X169272Y90981D01*
X169318Y90566D01*
X169354Y90151D01*
X169380Y89734D01*
X169395Y89317D01*
X169400Y88900D01*
X169395Y88483D01*
X169380Y88066D01*
X169354Y87649D01*
X169318Y87234D01*
X169272Y86819D01*
X169216Y86406D01*
X169150Y85994D01*
X169073Y85583D01*
X168987Y85175D01*
X168891Y84769D01*
X168784Y84366D01*
X168668Y83965D01*
X168542Y83567D01*
X168406Y83173D01*
X168261Y82782D01*
X168106Y82394D01*
X167942Y82011D01*
X167768Y81632D01*
X167585Y81257D01*
X167393Y80886D01*
X167191Y80521D01*
X166981Y80160D01*
X166763Y79805D01*
X166535Y79455D01*
X166299Y79111D01*
X166055Y78773D01*
X165802Y78441D01*
X165541Y78115D01*
X165273Y77796D01*
X164996Y77483D01*
X164712Y77178D01*
X164421Y76879D01*
X164122Y76588D01*
X163817Y76304D01*
X163504Y76027D01*
X163185Y75759D01*
X162859Y75498D01*
X162527Y75245D01*
X162189Y75001D01*
X161845Y74765D01*
X161495Y74537D01*
X161140Y74319D01*
X160779Y74109D01*
X160414Y73907D01*
X160043Y73715D01*
X159668Y73532D01*
X159289Y73358D01*
X158906Y73194D01*
X158518Y73039D01*
X158127Y72894D01*
X157733Y72758D01*
X157335Y72632D01*
X156934Y72516D01*
X156531Y72409D01*
X156125Y72313D01*
X155717Y72227D01*
X155306Y72150D01*
X154894Y72084D01*
X154481Y72028D01*
X154066Y71982D01*
X153651Y71946D01*
X153234Y71920D01*
X152817Y71905D01*
X152400Y71900D01*
X151983Y71905D01*
X151566Y71920D01*
X151149Y71946D01*
X150734Y71982D01*
X150319Y72028D01*
X149906Y72084D01*
X149494Y72150D01*
X149083Y72227D01*
X148675Y72313D01*
X148269Y72409D01*
X147866Y72516D01*
X147465Y72632D01*
X147067Y72758D01*
X146673Y72894D01*
X146282Y73039D01*
X145894Y73194D01*
X145511Y73358D01*
X145132Y73532D01*
X144757Y73715D01*
X144386Y73907D01*
X144021Y74109D01*
X143660Y74319D01*
X143305Y74537D01*
X142955Y74765D01*
X142611Y75001D01*
X142273Y75245D01*
X141941Y75498D01*
X141615Y75759D01*
X141296Y76027D01*
X140983Y76304D01*
X140678Y76588D01*
X140379Y76879D01*
X140088Y77178D01*
X139804Y77483D01*
X139527Y77796D01*
X139259Y78115D01*
X138998Y78441D01*
X138745Y78773D01*
X138501Y79111D01*
X138265Y79455D01*
X138037Y79805D01*
X137819Y80160D01*
X137609Y80521D01*
X137407Y80886D01*
X137215Y81257D01*
X137032Y81632D01*
X136858Y82011D01*
X136694Y82394D01*
X136539Y82782D01*
X136394Y83173D01*
X136258Y83567D01*
X136132Y83965D01*
X136016Y84366D01*
X135909Y84769D01*
X135813Y85175D01*
X135727Y85583D01*
X135650Y85994D01*
X135584Y86406D01*
X135528Y86819D01*
X135482Y87234D01*
X135446Y87649D01*
X135420Y88066D01*
X135405Y88483D01*
X135400Y88900D01*
D15*
X189606Y72400D03*
D10*
X146131Y57034D02*
X146131Y46366D01*
X146131Y57034D02*
X149095Y57034D01*
X149201Y57032D01*
X149306Y57026D01*
X149412Y57017D01*
X149517Y57004D01*
X149621Y56987D01*
X149725Y56966D01*
X149828Y56942D01*
X149930Y56914D01*
X150031Y56882D01*
X150130Y56847D01*
X150229Y56808D01*
X150326Y56766D01*
X150421Y56721D01*
X150515Y56672D01*
X150607Y56619D01*
X150697Y56564D01*
X150785Y56505D01*
X150871Y56443D01*
X150954Y56378D01*
X151035Y56310D01*
X151114Y56240D01*
X151190Y56166D01*
X151264Y56090D01*
X151334Y56011D01*
X151402Y55930D01*
X151467Y55847D01*
X151529Y55761D01*
X151588Y55673D01*
X151643Y55583D01*
X151696Y55491D01*
X151745Y55397D01*
X151790Y55302D01*
X151832Y55205D01*
X151871Y55106D01*
X151906Y55007D01*
X151938Y54906D01*
X151966Y54804D01*
X151990Y54701D01*
X152011Y54597D01*
X152028Y54493D01*
X152041Y54388D01*
X152050Y54282D01*
X152056Y54177D01*
X152058Y54071D01*
X152058Y49329D01*
X152056Y49223D01*
X152050Y49118D01*
X152041Y49012D01*
X152028Y48907D01*
X152011Y48803D01*
X151990Y48699D01*
X151966Y48596D01*
X151938Y48494D01*
X151906Y48393D01*
X151871Y48294D01*
X151832Y48195D01*
X151790Y48098D01*
X151745Y48003D01*
X151696Y47909D01*
X151643Y47817D01*
X151588Y47727D01*
X151529Y47639D01*
X151467Y47553D01*
X151402Y47470D01*
X151334Y47389D01*
X151264Y47310D01*
X151190Y47234D01*
X151114Y47160D01*
X151035Y47090D01*
X150954Y47022D01*
X150871Y46957D01*
X150785Y46895D01*
X150697Y46836D01*
X150607Y46781D01*
X150515Y46728D01*
X150421Y46679D01*
X150326Y46634D01*
X150229Y46592D01*
X150130Y46553D01*
X150031Y46518D01*
X149930Y46486D01*
X149828Y46458D01*
X149725Y46434D01*
X149621Y46413D01*
X149517Y46396D01*
X149412Y46383D01*
X149306Y46374D01*
X149201Y46368D01*
X149095Y46366D01*
X146131Y46366D01*
X161202Y57034D02*
X161304Y57032D01*
X161406Y57026D01*
X161508Y57016D01*
X161609Y57003D01*
X161710Y56985D01*
X161810Y56964D01*
X161909Y56939D01*
X162007Y56910D01*
X162103Y56877D01*
X162199Y56841D01*
X162293Y56801D01*
X162385Y56757D01*
X162476Y56710D01*
X162565Y56659D01*
X162652Y56606D01*
X162736Y56548D01*
X162819Y56488D01*
X162899Y56425D01*
X162976Y56358D01*
X163051Y56289D01*
X163124Y56216D01*
X163193Y56141D01*
X163260Y56064D01*
X163323Y55984D01*
X163383Y55901D01*
X163441Y55817D01*
X163494Y55730D01*
X163545Y55641D01*
X163592Y55550D01*
X163636Y55458D01*
X163676Y55364D01*
X163712Y55268D01*
X163745Y55172D01*
X163774Y55074D01*
X163799Y54975D01*
X163820Y54875D01*
X163838Y54774D01*
X163851Y54673D01*
X163861Y54571D01*
X163867Y54469D01*
X163869Y54367D01*
X161202Y57034D02*
X161086Y57032D01*
X160969Y57026D01*
X160853Y57016D01*
X160738Y57002D01*
X160623Y56985D01*
X160508Y56963D01*
X160395Y56937D01*
X160282Y56908D01*
X160170Y56875D01*
X160060Y56838D01*
X159951Y56797D01*
X159843Y56753D01*
X159737Y56705D01*
X159633Y56653D01*
X159530Y56598D01*
X159429Y56540D01*
X159331Y56478D01*
X159234Y56413D01*
X159140Y56344D01*
X159048Y56272D01*
X158959Y56198D01*
X158872Y56120D01*
X158788Y56039D01*
X158707Y55956D01*
X158629Y55870D01*
X158553Y55781D01*
X158481Y55690D01*
X158412Y55596D01*
X158346Y55500D01*
X158283Y55402D01*
X158224Y55302D01*
X158168Y55200D01*
X158116Y55096D01*
X158067Y54990D01*
X158022Y54883D01*
X157980Y54774D01*
X157943Y54664D01*
X162980Y52292D02*
X163055Y52366D01*
X163127Y52443D01*
X163196Y52523D01*
X163263Y52605D01*
X163326Y52689D01*
X163386Y52776D01*
X163443Y52864D01*
X163497Y52955D01*
X163547Y53048D01*
X163594Y53142D01*
X163637Y53238D01*
X163677Y53336D01*
X163713Y53435D01*
X163746Y53535D01*
X163774Y53637D01*
X163799Y53739D01*
X163821Y53843D01*
X163838Y53947D01*
X163852Y54051D01*
X163861Y54156D01*
X163867Y54262D01*
X163869Y54367D01*
X162980Y52293D02*
X157942Y46366D01*
X163869Y46366D01*
D14*
X267100Y113900D02*
X317100Y113900D01*
X317100Y112776D01*
X317100Y63900D02*
X267100Y63900D01*
X317100Y81788D02*
X317100Y96012D01*
X267100Y96012D02*
X267100Y81788D01*
X267100Y112776D02*
X267100Y113900D01*
X317100Y65132D02*
X317100Y64008D01*
X267062Y64008D02*
X267062Y65132D01*
X275100Y88900D02*
X275105Y89317D01*
X275120Y89734D01*
X275146Y90151D01*
X275182Y90566D01*
X275228Y90981D01*
X275284Y91394D01*
X275350Y91806D01*
X275427Y92217D01*
X275513Y92625D01*
X275609Y93031D01*
X275716Y93434D01*
X275832Y93835D01*
X275958Y94233D01*
X276094Y94627D01*
X276239Y95018D01*
X276394Y95406D01*
X276558Y95789D01*
X276732Y96168D01*
X276915Y96543D01*
X277107Y96914D01*
X277309Y97279D01*
X277519Y97640D01*
X277737Y97995D01*
X277965Y98345D01*
X278201Y98689D01*
X278445Y99027D01*
X278698Y99359D01*
X278959Y99685D01*
X279227Y100004D01*
X279504Y100317D01*
X279788Y100622D01*
X280079Y100921D01*
X280378Y101212D01*
X280683Y101496D01*
X280996Y101773D01*
X281315Y102041D01*
X281641Y102302D01*
X281973Y102555D01*
X282311Y102799D01*
X282655Y103035D01*
X283005Y103263D01*
X283360Y103481D01*
X283721Y103691D01*
X284086Y103893D01*
X284457Y104085D01*
X284832Y104268D01*
X285211Y104442D01*
X285594Y104606D01*
X285982Y104761D01*
X286373Y104906D01*
X286767Y105042D01*
X287165Y105168D01*
X287566Y105284D01*
X287969Y105391D01*
X288375Y105487D01*
X288783Y105573D01*
X289194Y105650D01*
X289606Y105716D01*
X290019Y105772D01*
X290434Y105818D01*
X290849Y105854D01*
X291266Y105880D01*
X291683Y105895D01*
X292100Y105900D01*
X292517Y105895D01*
X292934Y105880D01*
X293351Y105854D01*
X293766Y105818D01*
X294181Y105772D01*
X294594Y105716D01*
X295006Y105650D01*
X295417Y105573D01*
X295825Y105487D01*
X296231Y105391D01*
X296634Y105284D01*
X297035Y105168D01*
X297433Y105042D01*
X297827Y104906D01*
X298218Y104761D01*
X298606Y104606D01*
X298989Y104442D01*
X299368Y104268D01*
X299743Y104085D01*
X300114Y103893D01*
X300479Y103691D01*
X300840Y103481D01*
X301195Y103263D01*
X301545Y103035D01*
X301889Y102799D01*
X302227Y102555D01*
X302559Y102302D01*
X302885Y102041D01*
X303204Y101773D01*
X303517Y101496D01*
X303822Y101212D01*
X304121Y100921D01*
X304412Y100622D01*
X304696Y100317D01*
X304973Y100004D01*
X305241Y99685D01*
X305502Y99359D01*
X305755Y99027D01*
X305999Y98689D01*
X306235Y98345D01*
X306463Y97995D01*
X306681Y97640D01*
X306891Y97279D01*
X307093Y96914D01*
X307285Y96543D01*
X307468Y96168D01*
X307642Y95789D01*
X307806Y95406D01*
X307961Y95018D01*
X308106Y94627D01*
X308242Y94233D01*
X308368Y93835D01*
X308484Y93434D01*
X308591Y93031D01*
X308687Y92625D01*
X308773Y92217D01*
X308850Y91806D01*
X308916Y91394D01*
X308972Y90981D01*
X309018Y90566D01*
X309054Y90151D01*
X309080Y89734D01*
X309095Y89317D01*
X309100Y88900D01*
X309095Y88483D01*
X309080Y88066D01*
X309054Y87649D01*
X309018Y87234D01*
X308972Y86819D01*
X308916Y86406D01*
X308850Y85994D01*
X308773Y85583D01*
X308687Y85175D01*
X308591Y84769D01*
X308484Y84366D01*
X308368Y83965D01*
X308242Y83567D01*
X308106Y83173D01*
X307961Y82782D01*
X307806Y82394D01*
X307642Y82011D01*
X307468Y81632D01*
X307285Y81257D01*
X307093Y80886D01*
X306891Y80521D01*
X306681Y80160D01*
X306463Y79805D01*
X306235Y79455D01*
X305999Y79111D01*
X305755Y78773D01*
X305502Y78441D01*
X305241Y78115D01*
X304973Y77796D01*
X304696Y77483D01*
X304412Y77178D01*
X304121Y76879D01*
X303822Y76588D01*
X303517Y76304D01*
X303204Y76027D01*
X302885Y75759D01*
X302559Y75498D01*
X302227Y75245D01*
X301889Y75001D01*
X301545Y74765D01*
X301195Y74537D01*
X300840Y74319D01*
X300479Y74109D01*
X300114Y73907D01*
X299743Y73715D01*
X299368Y73532D01*
X298989Y73358D01*
X298606Y73194D01*
X298218Y73039D01*
X297827Y72894D01*
X297433Y72758D01*
X297035Y72632D01*
X296634Y72516D01*
X296231Y72409D01*
X295825Y72313D01*
X295417Y72227D01*
X295006Y72150D01*
X294594Y72084D01*
X294181Y72028D01*
X293766Y71982D01*
X293351Y71946D01*
X292934Y71920D01*
X292517Y71905D01*
X292100Y71900D01*
X291683Y71905D01*
X291266Y71920D01*
X290849Y71946D01*
X290434Y71982D01*
X290019Y72028D01*
X289606Y72084D01*
X289194Y72150D01*
X288783Y72227D01*
X288375Y72313D01*
X287969Y72409D01*
X287566Y72516D01*
X287165Y72632D01*
X286767Y72758D01*
X286373Y72894D01*
X285982Y73039D01*
X285594Y73194D01*
X285211Y73358D01*
X284832Y73532D01*
X284457Y73715D01*
X284086Y73907D01*
X283721Y74109D01*
X283360Y74319D01*
X283005Y74537D01*
X282655Y74765D01*
X282311Y75001D01*
X281973Y75245D01*
X281641Y75498D01*
X281315Y75759D01*
X280996Y76027D01*
X280683Y76304D01*
X280378Y76588D01*
X280079Y76879D01*
X279788Y77178D01*
X279504Y77483D01*
X279227Y77796D01*
X278959Y78115D01*
X278698Y78441D01*
X278445Y78773D01*
X278201Y79111D01*
X277965Y79455D01*
X277737Y79805D01*
X277519Y80160D01*
X277309Y80521D01*
X277107Y80886D01*
X276915Y81257D01*
X276732Y81632D01*
X276558Y82011D01*
X276394Y82394D01*
X276239Y82782D01*
X276094Y83173D01*
X275958Y83567D01*
X275832Y83965D01*
X275716Y84366D01*
X275609Y84769D01*
X275513Y85175D01*
X275427Y85583D01*
X275350Y85994D01*
X275284Y86406D01*
X275228Y86819D01*
X275182Y87234D01*
X275146Y87649D01*
X275120Y88066D01*
X275105Y88483D01*
X275100Y88900D01*
D15*
X329306Y72400D03*
D10*
X285831Y57034D02*
X285831Y46366D01*
X285831Y57034D02*
X288795Y57034D01*
X288901Y57032D01*
X289006Y57026D01*
X289112Y57017D01*
X289217Y57004D01*
X289321Y56987D01*
X289425Y56966D01*
X289528Y56942D01*
X289630Y56914D01*
X289731Y56882D01*
X289830Y56847D01*
X289929Y56808D01*
X290026Y56766D01*
X290121Y56721D01*
X290215Y56672D01*
X290307Y56619D01*
X290397Y56564D01*
X290485Y56505D01*
X290571Y56443D01*
X290654Y56378D01*
X290735Y56310D01*
X290814Y56240D01*
X290890Y56166D01*
X290964Y56090D01*
X291034Y56011D01*
X291102Y55930D01*
X291167Y55847D01*
X291229Y55761D01*
X291288Y55673D01*
X291343Y55583D01*
X291396Y55491D01*
X291445Y55397D01*
X291490Y55302D01*
X291532Y55205D01*
X291571Y55106D01*
X291606Y55007D01*
X291638Y54906D01*
X291666Y54804D01*
X291690Y54701D01*
X291711Y54597D01*
X291728Y54493D01*
X291741Y54388D01*
X291750Y54282D01*
X291756Y54177D01*
X291758Y54071D01*
X291758Y49329D01*
X291756Y49223D01*
X291750Y49118D01*
X291741Y49012D01*
X291728Y48907D01*
X291711Y48803D01*
X291690Y48699D01*
X291666Y48596D01*
X291638Y48494D01*
X291606Y48393D01*
X291571Y48294D01*
X291532Y48195D01*
X291490Y48098D01*
X291445Y48003D01*
X291396Y47909D01*
X291343Y47817D01*
X291288Y47727D01*
X291229Y47639D01*
X291167Y47553D01*
X291102Y47470D01*
X291034Y47389D01*
X290964Y47310D01*
X290890Y47234D01*
X290814Y47160D01*
X290735Y47090D01*
X290654Y47022D01*
X290571Y46957D01*
X290485Y46895D01*
X290397Y46836D01*
X290307Y46781D01*
X290215Y46728D01*
X290121Y46679D01*
X290026Y46634D01*
X289929Y46592D01*
X289830Y46553D01*
X289731Y46518D01*
X289630Y46486D01*
X289528Y46458D01*
X289425Y46434D01*
X289321Y46413D01*
X289217Y46396D01*
X289112Y46383D01*
X289006Y46374D01*
X288901Y46368D01*
X288795Y46366D01*
X285831Y46366D01*
X297642Y46366D02*
X300605Y46366D01*
X300712Y46368D01*
X300819Y46374D01*
X300925Y46383D01*
X301031Y46397D01*
X301137Y46414D01*
X301242Y46435D01*
X301346Y46460D01*
X301449Y46489D01*
X301551Y46521D01*
X301652Y46557D01*
X301751Y46597D01*
X301849Y46640D01*
X301945Y46687D01*
X302040Y46737D01*
X302133Y46790D01*
X302223Y46847D01*
X302312Y46907D01*
X302398Y46970D01*
X302482Y47036D01*
X302564Y47106D01*
X302643Y47178D01*
X302719Y47253D01*
X302793Y47331D01*
X302863Y47411D01*
X302931Y47494D01*
X302996Y47579D01*
X303057Y47666D01*
X303116Y47756D01*
X303171Y47847D01*
X303223Y47941D01*
X303271Y48037D01*
X303316Y48134D01*
X303358Y48232D01*
X303395Y48332D01*
X303430Y48434D01*
X303460Y48536D01*
X303487Y48640D01*
X303510Y48744D01*
X303529Y48850D01*
X303544Y48956D01*
X303556Y49062D01*
X303564Y49169D01*
X303568Y49276D01*
X303568Y49382D01*
X303564Y49489D01*
X303556Y49596D01*
X303544Y49702D01*
X303529Y49808D01*
X303510Y49914D01*
X303487Y50018D01*
X303460Y50122D01*
X303430Y50224D01*
X303395Y50326D01*
X303358Y50426D01*
X303316Y50524D01*
X303271Y50621D01*
X303223Y50717D01*
X303171Y50810D01*
X303116Y50902D01*
X303057Y50992D01*
X302996Y51079D01*
X302931Y51164D01*
X302863Y51247D01*
X302793Y51327D01*
X302719Y51405D01*
X302643Y51480D01*
X302564Y51552D01*
X302482Y51622D01*
X302398Y51688D01*
X302312Y51751D01*
X302223Y51811D01*
X302133Y51868D01*
X302040Y51921D01*
X301945Y51971D01*
X301849Y52018D01*
X301751Y52061D01*
X301652Y52101D01*
X301551Y52137D01*
X301449Y52169D01*
X301346Y52198D01*
X301242Y52223D01*
X301137Y52244D01*
X301031Y52261D01*
X300925Y52275D01*
X300819Y52284D01*
X300712Y52290D01*
X300605Y52292D01*
X301198Y57034D02*
X297642Y57034D01*
X301198Y57034D02*
X301295Y57032D01*
X301391Y57026D01*
X301487Y57016D01*
X301583Y57002D01*
X301678Y56985D01*
X301773Y56963D01*
X301866Y56938D01*
X301958Y56909D01*
X302049Y56876D01*
X302139Y56839D01*
X302227Y56799D01*
X302313Y56755D01*
X302397Y56708D01*
X302480Y56658D01*
X302560Y56604D01*
X302638Y56546D01*
X302714Y56486D01*
X302787Y56423D01*
X302857Y56357D01*
X302925Y56287D01*
X302990Y56216D01*
X303052Y56141D01*
X303110Y56064D01*
X303166Y55985D01*
X303218Y55904D01*
X303267Y55820D01*
X303313Y55735D01*
X303355Y55648D01*
X303393Y55559D01*
X303428Y55469D01*
X303459Y55377D01*
X303486Y55284D01*
X303510Y55191D01*
X303529Y55096D01*
X303545Y55000D01*
X303557Y54904D01*
X303565Y54808D01*
X303569Y54711D01*
X303569Y54615D01*
X303565Y54518D01*
X303557Y54422D01*
X303545Y54326D01*
X303529Y54230D01*
X303510Y54135D01*
X303486Y54042D01*
X303459Y53949D01*
X303428Y53857D01*
X303393Y53767D01*
X303355Y53678D01*
X303313Y53591D01*
X303267Y53506D01*
X303218Y53422D01*
X303166Y53341D01*
X303110Y53262D01*
X303052Y53185D01*
X302990Y53110D01*
X302925Y53039D01*
X302857Y52969D01*
X302787Y52903D01*
X302714Y52840D01*
X302638Y52780D01*
X302560Y52722D01*
X302480Y52668D01*
X302397Y52618D01*
X302313Y52571D01*
X302227Y52527D01*
X302139Y52487D01*
X302049Y52450D01*
X301958Y52417D01*
X301866Y52388D01*
X301773Y52363D01*
X301678Y52341D01*
X301583Y52324D01*
X301487Y52310D01*
X301391Y52300D01*
X301295Y52294D01*
X301198Y52292D01*
X301198Y52293D02*
X298827Y52293D01*
D11*
X650000Y65000D02*
X650000Y139000D01*
X720000Y139000D01*
X720000Y65000D02*
X650000Y65000D01*
X720000Y122000D02*
X720000Y139000D01*
X720000Y122000D02*
X720000Y82000D01*
X720000Y65000D01*
X720000Y122000D02*
X680000Y122000D01*
X680000Y82000D01*
X720000Y82000D01*
D10*
X631247Y75734D02*
X624135Y65066D01*
X631247Y65066D02*
X624135Y75734D01*
X636157Y73363D02*
X639121Y75734D01*
X639121Y65066D01*
X642084Y65066D02*
X636157Y65066D01*
X276566Y288356D02*
X276566Y299024D01*
X279529Y299024D01*
X279636Y299022D01*
X279743Y299016D01*
X279849Y299007D01*
X279955Y298993D01*
X280061Y298976D01*
X280166Y298955D01*
X280270Y298930D01*
X280373Y298901D01*
X280475Y298869D01*
X280576Y298833D01*
X280675Y298793D01*
X280773Y298750D01*
X280869Y298703D01*
X280964Y298653D01*
X281057Y298600D01*
X281147Y298543D01*
X281236Y298483D01*
X281322Y298420D01*
X281406Y298354D01*
X281488Y298284D01*
X281567Y298212D01*
X281643Y298137D01*
X281717Y298059D01*
X281787Y297979D01*
X281855Y297896D01*
X281920Y297811D01*
X281981Y297724D01*
X282040Y297634D01*
X282095Y297543D01*
X282147Y297449D01*
X282195Y297353D01*
X282240Y297256D01*
X282282Y297158D01*
X282319Y297058D01*
X282354Y296956D01*
X282384Y296854D01*
X282411Y296750D01*
X282434Y296646D01*
X282453Y296540D01*
X282468Y296434D01*
X282480Y296328D01*
X282488Y296221D01*
X282492Y296114D01*
X282492Y296008D01*
X282488Y295901D01*
X282480Y295794D01*
X282468Y295688D01*
X282453Y295582D01*
X282434Y295476D01*
X282411Y295372D01*
X282384Y295268D01*
X282354Y295166D01*
X282319Y295064D01*
X282282Y294964D01*
X282240Y294866D01*
X282195Y294769D01*
X282147Y294673D01*
X282095Y294580D01*
X282040Y294488D01*
X281981Y294398D01*
X281920Y294311D01*
X281855Y294226D01*
X281787Y294143D01*
X281717Y294063D01*
X281643Y293985D01*
X281567Y293910D01*
X281488Y293838D01*
X281406Y293768D01*
X281322Y293702D01*
X281236Y293639D01*
X281147Y293579D01*
X281057Y293522D01*
X280964Y293469D01*
X280869Y293419D01*
X280773Y293372D01*
X280675Y293329D01*
X280576Y293289D01*
X280475Y293253D01*
X280373Y293221D01*
X280270Y293192D01*
X280166Y293167D01*
X280061Y293146D01*
X279955Y293129D01*
X279849Y293115D01*
X279743Y293106D01*
X279636Y293100D01*
X279529Y293098D01*
X279529Y293097D02*
X276566Y293097D01*
X280122Y293097D02*
X282493Y288356D01*
X287886Y296653D02*
X290849Y299024D01*
X290849Y288356D01*
X287886Y288356D02*
X293812Y288356D01*
D11*
X372200Y111000D02*
X542200Y111000D01*
X542200Y1000D01*
X372200Y1000D01*
X372200Y111000D01*
D10*
X331216Y29584D02*
X331216Y21879D01*
X331218Y21772D01*
X331224Y21665D01*
X331233Y21559D01*
X331247Y21453D01*
X331264Y21347D01*
X331285Y21242D01*
X331310Y21138D01*
X331339Y21035D01*
X331371Y20933D01*
X331407Y20832D01*
X331447Y20733D01*
X331490Y20635D01*
X331537Y20539D01*
X331587Y20444D01*
X331640Y20351D01*
X331697Y20261D01*
X331757Y20172D01*
X331820Y20086D01*
X331886Y20002D01*
X331956Y19920D01*
X332028Y19841D01*
X332103Y19765D01*
X332181Y19691D01*
X332261Y19621D01*
X332344Y19553D01*
X332429Y19488D01*
X332516Y19427D01*
X332606Y19368D01*
X332698Y19313D01*
X332791Y19261D01*
X332887Y19213D01*
X332984Y19168D01*
X333082Y19126D01*
X333182Y19089D01*
X333284Y19054D01*
X333386Y19024D01*
X333490Y18997D01*
X333594Y18974D01*
X333700Y18955D01*
X333806Y18940D01*
X333912Y18928D01*
X334019Y18920D01*
X334126Y18916D01*
X334232Y18916D01*
X334339Y18920D01*
X334446Y18928D01*
X334552Y18940D01*
X334658Y18955D01*
X334764Y18974D01*
X334868Y18997D01*
X334972Y19024D01*
X335074Y19054D01*
X335176Y19089D01*
X335276Y19126D01*
X335374Y19168D01*
X335471Y19213D01*
X335567Y19261D01*
X335661Y19313D01*
X335752Y19368D01*
X335842Y19427D01*
X335929Y19488D01*
X336014Y19553D01*
X336097Y19621D01*
X336177Y19691D01*
X336255Y19765D01*
X336330Y19841D01*
X336402Y19920D01*
X336472Y20002D01*
X336538Y20086D01*
X336601Y20172D01*
X336661Y20261D01*
X336718Y20351D01*
X336771Y20444D01*
X336821Y20539D01*
X336868Y20635D01*
X336911Y20733D01*
X336951Y20832D01*
X336987Y20933D01*
X337019Y21035D01*
X337048Y21138D01*
X337073Y21242D01*
X337094Y21347D01*
X337111Y21453D01*
X337125Y21559D01*
X337134Y21665D01*
X337140Y21772D01*
X337142Y21879D01*
X337143Y21879D02*
X337143Y29584D01*
X345228Y29584D02*
X345228Y18916D01*
X345228Y24250D02*
X343747Y25139D01*
X343678Y25183D01*
X343610Y25230D01*
X343545Y25281D01*
X343482Y25334D01*
X343422Y25390D01*
X343364Y25449D01*
X343309Y25511D01*
X343258Y25575D01*
X343209Y25641D01*
X343163Y25709D01*
X343121Y25780D01*
X343081Y25853D01*
X343046Y25927D01*
X343013Y26003D01*
X342985Y26080D01*
X342960Y26158D01*
X342938Y26238D01*
X342921Y26318D01*
X342907Y26400D01*
X342897Y26481D01*
X342890Y26563D01*
X342888Y26646D01*
X342889Y26728D01*
X342895Y26810D01*
X342904Y26892D01*
X342917Y26974D01*
X342933Y27054D01*
X342954Y27134D01*
X342978Y27213D01*
X343005Y27291D01*
X343037Y27367D01*
X343071Y27441D01*
X343110Y27514D01*
X343151Y27586D01*
X343196Y27655D01*
X343244Y27722D01*
X343295Y27786D01*
X343349Y27848D01*
X343406Y27908D01*
X343465Y27965D01*
X343528Y28019D01*
X343592Y28070D01*
X343659Y28118D01*
X343728Y28163D01*
X343799Y28205D01*
X343872Y28243D01*
X343947Y28278D01*
X344023Y28309D01*
X344101Y28337D01*
X344179Y28361D01*
X344259Y28381D01*
X344340Y28398D01*
X344339Y28399D02*
X344473Y28421D01*
X344607Y28440D01*
X344741Y28454D01*
X344876Y28465D01*
X345012Y28472D01*
X345147Y28475D01*
X345283Y28474D01*
X345418Y28469D01*
X345553Y28460D01*
X345688Y28448D01*
X345822Y28431D01*
X345956Y28411D01*
X346089Y28387D01*
X346222Y28359D01*
X346353Y28327D01*
X346484Y28291D01*
X346614Y28252D01*
X346742Y28209D01*
X346869Y28162D01*
X346995Y28111D01*
X347119Y28057D01*
X347242Y28000D01*
X347362Y27939D01*
X347481Y27874D01*
X347599Y27806D01*
X345228Y24250D02*
X346710Y23361D01*
X346779Y23317D01*
X346847Y23270D01*
X346912Y23219D01*
X346975Y23166D01*
X347035Y23110D01*
X347093Y23051D01*
X347148Y22989D01*
X347199Y22925D01*
X347248Y22859D01*
X347294Y22791D01*
X347336Y22720D01*
X347376Y22647D01*
X347411Y22573D01*
X347444Y22497D01*
X347472Y22420D01*
X347497Y22342D01*
X347519Y22262D01*
X347536Y22182D01*
X347550Y22100D01*
X347560Y22019D01*
X347567Y21937D01*
X347569Y21854D01*
X347568Y21772D01*
X347562Y21690D01*
X347553Y21608D01*
X347540Y21526D01*
X347524Y21446D01*
X347503Y21366D01*
X347479Y21287D01*
X347452Y21209D01*
X347420Y21133D01*
X347386Y21059D01*
X347347Y20986D01*
X347306Y20914D01*
X347261Y20845D01*
X347213Y20778D01*
X347162Y20714D01*
X347108Y20652D01*
X347051Y20592D01*
X346992Y20535D01*
X346929Y20481D01*
X346865Y20430D01*
X346798Y20382D01*
X346729Y20337D01*
X346658Y20295D01*
X346585Y20257D01*
X346510Y20222D01*
X346434Y20191D01*
X346356Y20163D01*
X346278Y20139D01*
X346198Y20119D01*
X346117Y20102D01*
X346117Y20101D02*
X345983Y20079D01*
X345849Y20060D01*
X345715Y20046D01*
X345580Y20035D01*
X345444Y20028D01*
X345309Y20025D01*
X345173Y20026D01*
X345038Y20031D01*
X344903Y20040D01*
X344768Y20052D01*
X344634Y20069D01*
X344500Y20089D01*
X344367Y20113D01*
X344234Y20141D01*
X344102Y20173D01*
X343972Y20209D01*
X343842Y20248D01*
X343714Y20291D01*
X343587Y20338D01*
X343461Y20389D01*
X343337Y20443D01*
X343214Y20500D01*
X343094Y20562D01*
X342974Y20626D01*
X342857Y20694D01*
X352933Y27213D02*
X355896Y29584D01*
X355896Y18916D01*
X352933Y18916D02*
X358860Y18916D01*
D16*
X0Y0D02*
X650000Y0D01*
X650000Y320000D01*
X0Y320000D01*
X0Y0D01*
M02*
