G04 EAGLE Gerber RS-274X export*
G75*
%MOMM*%
%FSLAX34Y34*%
%LPD*%
%INSoldermask Top*%
%IPPOS*%
%AMOC8*
5,1,8,0,0,1.08239X$1,22.5*%
G01*
G04 Define Apertures*
%ADD10C,3.203200*%
%ADD11P,2.40204X8X112.5*%
%ADD12R,2.203200X1.403200*%
%ADD13R,1.403200X2.203200*%
%ADD14C,2.219200*%
%ADD15R,1.703200X1.103200*%
%ADD16C,1.803200*%
%ADD17R,4.203200X1.473200*%
%ADD18R,1.503200X1.703200*%
%ADD19R,2.203200X2.203200*%
%ADD20C,3.703200*%
D10*
X620000Y290000D03*
X620000Y30000D03*
X30000Y30000D03*
X30000Y290000D03*
D11*
X571500Y177800D03*
X596900Y177800D03*
X571500Y203200D03*
X596900Y203200D03*
X571500Y228600D03*
X596900Y228600D03*
D12*
X524500Y148540D03*
X524500Y168540D03*
X524500Y188540D03*
X524500Y208540D03*
X524500Y228540D03*
X524500Y248540D03*
X524500Y268540D03*
X524500Y288540D03*
X364500Y288540D03*
X364500Y248540D03*
X364500Y268540D03*
X364500Y228540D03*
X364500Y208540D03*
X364500Y188540D03*
X364500Y168540D03*
X364500Y148540D03*
D13*
X494500Y133740D03*
X474500Y133740D03*
X454500Y133740D03*
X434500Y133740D03*
X414500Y133740D03*
X394500Y133740D03*
D14*
X86280Y228600D02*
X66120Y228600D01*
X116920Y228600D02*
X137080Y228600D01*
D15*
X26300Y105400D03*
X26300Y72400D03*
X75300Y105400D03*
X75300Y72400D03*
X127900Y105400D03*
X127900Y72400D03*
X176900Y105400D03*
X176900Y72400D03*
X267600Y105400D03*
X267600Y72400D03*
X316600Y105400D03*
X316600Y72400D03*
D16*
X557000Y74600D02*
X573000Y74600D01*
X573000Y100000D02*
X557000Y100000D01*
X557000Y125400D02*
X573000Y125400D01*
D14*
X276780Y254000D02*
X256620Y254000D01*
X307420Y254000D02*
X327580Y254000D01*
D17*
X630000Y114700D03*
X630000Y89300D03*
D18*
X310500Y287340D03*
X329500Y287340D03*
D19*
X382200Y101000D03*
X382200Y11000D03*
X532200Y101000D03*
X532200Y11000D03*
D20*
X127000Y228600D03*
M02*
