<svg version="1.1" xmlns="http://www.w3.org/2000/svg" xmlns:xlink="http://www.w3.org/1999/xlink" stroke-linecap="round" stroke-linejoin="round" stroke-width="0" fill-rule="evenodd" width="72.2032mm" height="38.101mm" viewBox="-127 -127 72203.2 38101" id="fnUnKoNw0kRo-Ja6VdlX"><defs><circle cx="0" cy="0" r="250" id="fnUnKoNw0kRo-Ja6VdlX_pad-15"/></defs><g transform="translate(0,37847) scale(1,-1)" fill="currentColor" stroke="currentColor"><path d="M 62371.6 13201.6 62727.2 13201.6 62736.7 13201.8 62746.3 13202.4 62755.8 13203.3 62765.2 13204.7 62774.6 13206.4 62783.9 13208.5 62793.2 13211 62802.3 13213.8 62811.3 13217 62820.1 13220.6 62828.8 13224.5 62837.4 13228.8 62845.8 13233.4 62853.9 13238.3 62861.9 13243.6 62869.6 13249.2 62877.2 13255 62884.4 13261.2 62891.4 13267.7 62898.2 13274.5 62904.7 13281.5 62910.9 13288.7 62916.7 13296.3 62922.3 13304 62927.6 13312 62932.5 13320.2 62937.1 13328.5 62941.4 13337.1 62945.3 13345.8 62948.9 13354.6 62952.1 13363.6 62954.9 13372.7 62957.4 13382 62959.5 13391.3 62961.2 13400.7 62962.6 13410.1 62963.5 13419.6 62964.1 13429.2 62964.3 13438.7 62964.3 13557.2 62964.1 13566.7 62963.5 13576.3 62962.6 13585.8 62961.2 13595.2 62959.5 13604.6 62957.4 13613.9 62954.9 13623.2 62952.1 13632.3 62948.9 13641.3 62945.3 13650.1 62941.4 13658.8 62937.1 13667.4 62932.5 13675.8 62927.6 13683.9 62922.3 13691.9 62916.7 13699.6 62910.9 13707.2 62904.7 13714.4 62898.2 13721.4 62891.4 13728.2 62884.4 13734.7 62877.2 13740.9 62869.6 13746.7 62861.9 13752.3 62853.9 13757.6 62845.8 13762.5 62837.4 13767.1 62828.8 13771.4 62820.1 13775.3 62811.3 13778.9 62802.3 13782.1 62793.2 13784.9 62783.9 13787.4 62774.6 13789.5 62765.2 13791.2 62755.8 13792.6 62746.3 13793.5 62736.7 13794.1 62727.2 13794.3 62371.6 13794.3 62371.6 14268.4 62964.3 14268.4 M 63455.3 14268.4 63810.9 13201.6 64166.5 14268.4 M 4927.6 18516.6 4927.6 19583.4 5223.9 19583.4 5234.5 19583.2 5245 19582.6 5255.6 19581.7 5266.1 19580.4 5276.5 19578.7 5286.9 19576.6 5297.2 19574.2 5307.4 19571.4 5317.5 19568.2 5327.4 19564.7 5337.3 19560.8 5347 19556.6 5356.5 19552.1 5365.9 19547.2 5375.1 19541.9 5384.1 19536.4 5392.9 19530.5 5401.5 19524.3 5409.8 19517.8 5417.9 19511 5425.8 19504 5433.4 19496.6 5440.8 19489 5447.8 19481.1 5454.6 19473 5461.1 19464.7 5467.3 19456.1 5473.2 19447.3 5478.7 19438.3 5484 19429.1 5488.9 19419.7 5493.4 19410.2 5497.6 19400.5 5501.5 19390.6 5505 19380.7 5508.2 19370.6 5511 19360.4 5513.4 19350.1 5515.5 19339.7 5517.2 19329.3 5518.5 19318.8 5519.4 19308.2 5520 19297.7 5520.2 19287.1 M 5520.3 19287.1 5520.3 18812.9 M 5520.2 18812.9 5520 18802.3 5519.4 18791.8 5518.5 18781.2 5517.2 18770.7 5515.5 18760.3 5513.4 18749.9 5511 18739.6 5508.2 18729.4 5505 18719.3 5501.5 18709.4 5497.6 18699.5 5493.4 18689.8 5488.9 18680.3 5484 18670.9 5478.7 18661.7 5473.2 18652.7 5467.3 18643.9 5461.1 18635.3 5454.6 18627 5447.8 18618.9 5440.8 18611 5433.4 18603.4 5425.8 18596 5417.9 18589 5409.8 18582.2 5401.5 18575.7 5392.9 18569.5 5384.1 18563.6 5375.1 18558.1 5365.9 18552.8 5356.5 18547.9 5347 18543.4 5337.3 18539.2 5327.4 18535.3 5317.5 18531.8 5307.4 18528.6 5297.2 18525.8 5286.9 18523.4 5276.5 18521.3 5266.1 18519.6 5255.6 18518.3 5245 18517.4 5234.5 18516.8 5223.9 18516.6 4927.6 18516.6 M 6091.8 18753.7 6091.8 18990.7 M 6091.7 18990.7 6091.9 19000.4 6092.5 19010 6093.5 19019.6 6094.9 19029.2 6096.6 19038.7 6098.8 19048.2 6101.3 19057.5 6104.2 19066.7 6107.5 19075.8 6111.2 19084.8 6115.2 19093.6 6119.6 19102.2 6124.3 19110.6 6129.3 19118.9 6134.7 19126.9 6140.5 19134.7 6146.5 19142.3 6152.8 19149.6 6159.4 19156.6 6166.4 19163.4 6173.5 19169.9 6181 19176.1 6188.7 19181.9 6196.6 19187.5 6204.7 19192.7 6213.1 19197.6 6221.6 19202.2 6230.3 19206.4 6239.2 19210.2 6248.2 19213.7 6257.4 19216.8 6266.7 19219.5 6276 19221.9 6285.5 19223.8 6295.1 19225.4 6304.7 19226.6 6314.3 19227.4 6324 19227.8 6333.6 19227.8 6343.3 19227.4 6352.9 19226.6 6362.5 19225.4 6372.1 19223.8 6381.6 19221.9 6390.9 19219.5 6400.2 19216.8 6409.4 19213.7 6418.4 19210.2 6427.3 19206.4 6436 19202.2 6444.5 19197.6 6452.9 19192.7 6461 19187.5 6468.9 19181.9 6476.6 19176.1 6484.1 19169.9 6491.2 19163.4 6498.2 19156.6 6504.8 19149.6 6511.1 19142.3 6517.1 19134.7 6522.9 19126.9 6528.3 19118.9 6533.3 19110.6 6538 19102.2 6542.4 19093.6 6546.4 19084.8 6550.1 19075.8 6553.4 19066.7 6556.3 19057.5 6558.8 19048.2 6561 19038.7 6562.7 19029.2 6564.1 19019.6 6565.1 19010 6565.7 19000.4 6565.9 18990.7 6565.9 18753.7 6565.7 18744 6565.1 18734.4 6564.1 18724.8 6562.7 18715.2 6561 18705.7 6558.8 18696.2 6556.3 18686.9 6553.4 18677.7 6550.1 18668.6 6546.4 18659.6 6542.4 18650.8 6538 18642.2 6533.3 18633.8 6528.3 18625.5 6522.9 18617.5 6517.1 18609.7 6511.1 18602.1 6504.8 18594.8 6498.2 18587.8 6491.2 18581 6484.1 18574.5 6476.6 18568.3 6468.9 18562.5 6461 18556.9 6452.9 18551.7 6444.5 18546.8 6436 18542.2 6427.3 18538 6418.4 18534.2 6409.4 18530.7 6400.2 18527.6 6390.9 18524.9 6381.6 18522.5 6372.1 18520.6 6362.5 18519 6352.9 18517.8 6343.3 18517 6333.6 18516.6 6324 18516.6 6314.3 18517 6304.7 18517.8 6295.1 18519 6285.5 18520.6 6276 18522.5 6266.7 18524.9 6257.4 18527.6 6248.2 18530.7 6239.2 18534.2 6230.3 18538 6221.6 18542.2 6213.1 18546.8 6204.7 18551.7 6196.6 18556.9 6188.7 18562.5 6181 18568.3 6173.5 18574.5 6166.4 18581 6159.4 18587.8 6152.8 18594.8 6146.5 18602.1 6140.5 18609.7 6134.7 18617.5 6129.3 18625.5 6124.3 18633.8 6119.6 18642.2 6115.2 18650.8 6111.2 18659.6 6107.5 18668.6 6104.2 18677.7 6101.3 18686.9 6098.8 18696.2 6096.6 18705.7 6094.9 18715.2 6093.5 18724.8 6092.5 18734.4 6091.9 18744 6091.7 18753.7 M 7082.4 18753.7 7082.4 18990.7 M 7082.3 18990.7 7082.5 19000.4 7083.1 19010 7084.1 19019.6 7085.5 19029.2 7087.2 19038.7 7089.4 19048.2 7091.9 19057.5 7094.8 19066.7 7098.1 19075.8 7101.8 19084.8 7105.8 19093.6 7110.2 19102.2 7114.9 19110.6 7119.9 19118.9 7125.3 19126.9 7131.1 19134.7 7137.1 19142.3 7143.4 19149.6 7150 19156.6 7157 19163.4 7164.1 19169.9 7171.6 19176.1 7179.3 19181.9 7187.2 19187.5 7195.3 19192.7 7203.7 19197.6 7212.2 19202.2 7220.9 19206.4 7229.8 19210.2 7238.8 19213.7 7248 19216.8 7257.3 19219.5 7266.6 19221.9 7276.1 19223.8 7285.7 19225.4 7295.3 19226.6 7304.9 19227.4 7314.6 19227.8 7324.2 19227.8 7333.9 19227.4 7343.5 19226.6 7353.1 19225.4 7362.7 19223.8 7372.2 19221.9 7381.5 19219.5 7390.8 19216.8 7400 19213.7 7409 19210.2 7417.9 19206.4 7426.6 19202.2 7435.1 19197.6 7443.5 19192.7 7451.6 19187.5 7459.5 19181.9 7467.2 19176.1 7474.7 19169.9 7481.8 19163.4 7488.8 19156.6 7495.4 19149.6 7501.7 19142.3 7507.7 19134.7 7513.5 19126.9 7518.9 19118.9 7523.9 19110.6 7528.6 19102.2 7533 19093.6 7537 19084.8 7540.7 19075.8 7544 19066.7 7546.9 19057.5 7549.4 19048.2 7551.6 19038.7 7553.3 19029.2 7554.7 19019.6 7555.7 19010 7556.3 19000.4 7556.5 18990.7 7556.5 18753.7 7556.3 18744 7555.7 18734.4 7554.7 18724.8 7553.3 18715.2 7551.6 18705.7 7549.4 18696.2 7546.9 18686.9 7544 18677.7 7540.7 18668.6 7537 18659.6 7533 18650.8 7528.6 18642.2 7523.9 18633.8 7518.9 18625.5 7513.5 18617.5 7507.7 18609.7 7501.7 18602.1 7495.4 18594.8 7488.8 18587.8 7481.8 18581 7474.7 18574.5 7467.2 18568.3 7459.5 18562.5 7451.6 18556.9 7443.5 18551.7 7435.1 18546.8 7426.6 18542.2 7417.9 18538 7409 18534.2 7400 18530.7 7390.8 18527.6 7381.5 18524.9 7372.2 18522.5 7362.7 18520.6 7353.1 18519 7343.5 18517.8 7333.9 18517 7324.2 18516.6 7314.6 18516.6 7304.9 18517 7295.3 18517.8 7285.7 18519 7276.1 18520.6 7266.6 18522.5 7257.3 18524.9 7248 18527.6 7238.8 18530.7 7229.8 18534.2 7220.9 18538 7212.2 18542.2 7203.7 18546.8 7195.3 18551.7 7187.2 18556.9 7179.3 18562.5 7171.6 18568.3 7164.1 18574.5 7157 18581 7150 18587.8 7143.4 18594.8 7137.1 18602.1 7131.1 18609.7 7125.3 18617.5 7119.9 18625.5 7114.9 18633.8 7110.2 18642.2 7105.8 18650.8 7101.8 18659.6 7098.1 18668.6 7094.8 18677.7 7091.9 18686.9 7089.4 18696.2 7087.2 18705.7 7085.5 18715.2 7084.1 18724.8 7083.1 18734.4 7082.5 18744 7082.3 18753.7 M 8121 18516.6 8121 19227.8 8476.6 19227.8 8476.6 19109.3 M 9817.1 18516.6 9826.7 18516.8 9836.2 18517.4 9845.7 18518.3 9855.1 18519.7 9864.5 18521.4 9873.8 18523.5 9883.1 18526 9892.2 18528.8 9901.2 18532 9910 18535.6 9918.7 18539.5 9927.3 18543.8 9935.7 18548.4 9943.8 18553.3 9951.8 18558.6 9959.5 18564.2 9967.1 18570 9974.3 18576.2 9981.3 18582.7 9988.1 18589.5 9994.6 18596.5 10000.8 18603.7 10006.6 18611.3 10012.2 18619 10017.5 18627 10022.4 18635.2 10027 18643.5 10031.3 18652.1 10035.2 18660.8 10038.8 18669.6 10042 18678.6 10044.8 18687.7 10047.3 18697 10049.4 18706.3 10051.1 18715.7 10052.5 18725.1 10053.4 18734.6 10054 18744.2 10054.2 18753.7 M 9817.1 18516.6 9803.5 18516.8 9789.8 18517.3 9776.2 18518.3 9762.7 18519.6 9749.1 18521.2 9735.7 18523.3 9722.2 18525.7 9708.9 18528.4 9695.6 18531.6 9682.4 18535 9669.3 18538.9 9656.4 18543.1 9643.5 18547.6 9630.8 18552.5 9618.2 18557.8 9605.8 18563.4 9593.5 18569.3 9581.4 18575.5 9569.4 18582.1 9557.7 18589 9546.1 18596.3 9534.7 18603.8 9523.6 18611.6 9512.6 18619.8 9501.9 18628.2 9491.5 18636.9 9481.2 18645.9 9471.2 18655.2 9461.5 18664.8 M 9491.1 19346.3 9491.3 19355.8 9491.9 19365.4 9492.8 19374.9 9494.2 19384.3 9495.9 19393.7 9498 19403 9500.5 19412.3 9503.3 19421.4 9506.5 19430.4 9510.1 19439.2 9514 19447.9 9518.3 19456.5 9522.9 19464.9 9527.8 19473 9533.1 19481 9538.7 19488.7 9544.5 19496.3 9550.7 19503.5 9557.2 19510.5 9564 19517.3 9571 19523.8 9578.2 19530 9585.8 19535.8 9593.5 19541.4 9601.5 19546.7 9609.7 19551.6 9618 19556.2 9626.6 19560.5 9635.3 19564.4 9644.1 19568 9653.1 19571.2 9662.2 19574 9671.5 19576.5 9680.8 19578.6 9690.2 19580.3 9699.6 19581.7 9709.1 19582.6 9718.7 19583.2 9728.2 19583.4 9741.2 19583.2 9754.2 19582.6 9767.2 19581.7 9780.1 19580.4 9793 19578.7 9805.8 19576.6 9818.6 19574.1 9831.3 19571.3 9843.9 19568.1 9856.4 19564.5 9868.8 19560.6 9881 19556.3 9893.2 19551.7 9905.2 19546.6 9917 19541.3 9928.7 19535.6 9940.2 19529.6 9951.6 19523.2 9962.7 19516.5 9973.7 19509.5 9984.4 19502.1 9994.9 19494.5 M 9609.7 19138.8 9601.5 19143.9 9593.5 19149.3 9585.7 19154.9 9578.2 19160.9 9570.9 19167.2 9563.9 19173.8 9557.2 19180.6 9550.7 19187.7 9544.5 19195.1 9538.6 19202.7 9533 19210.5 9527.8 19218.6 9522.8 19226.8 9518.2 19235.3 9514 19243.9 9510 19252.7 9506.5 19261.6 9503.3 19270.7 9500.4 19279.9 9498 19289.2 9495.9 19298.5 9494.2 19308 9492.8 19317.5 9491.9 19327.1 9491.3 19336.7 9491.1 19346.3 M 9935.7 18961.2 9943.8 18956.1 9951.8 18950.7 9959.6 18945.1 9967.1 18939.1 9974.4 18932.8 9981.4 18926.2 9988.1 18919.4 9994.6 18912.3 10000.8 18904.9 10006.7 18897.3 10012.3 18889.5 10017.5 18881.4 10022.5 18873.2 10027.1 18864.7 10031.3 18856.1 10035.3 18847.3 10038.8 18838.4 10042 18829.3 10044.9 18820.1 10047.3 18810.8 10049.4 18801.5 10051.1 18792 10052.5 18782.5 10053.4 18772.9 10054 18763.3 10054.2 18753.7 M 9935.6 18961.1 9609.7 19138.9 M 10442.5 19227.8 10798.1 19227.8 M 10561 19583.4 10561 18694.4 10561.2 18686.2 10561.8 18678 10562.7 18669.8 10564 18661.7 10565.7 18653.7 10567.8 18645.7 10570.2 18637.9 10573 18630.2 10576.1 18622.6 10579.6 18615.1 10583.5 18607.9 10587.6 18600.8 10592.1 18593.9 10596.9 18587.3 10602 18580.8 10607.4 18574.6 10613.1 18568.7 10619 18563 10625.2 18557.6 10631.7 18552.5 10638.3 18547.7 10645.2 18543.2 10652.3 18539.1 10659.5 18535.2 10667 18531.7 10674.6 18528.6 10682.3 18525.8 10690.1 18523.4 10698.1 18521.3 10706.1 18519.6 10714.2 18518.3 10722.4 18517.4 10730.6 18516.8 10738.8 18516.6 10798.1 18516.6 M 11472 18931.5 11738.7 18931.5 M 11472 18931.4 11463.1 18931.2 11454.2 18930.6 11445.3 18929.7 11436.5 18928.3 11427.7 18926.6 11419 18924.5 11410.5 18922.1 11402 18919.2 11393.7 18916 11385.5 18912.5 11377.4 18908.6 11369.6 18904.4 11361.9 18899.8 11354.5 18894.9 11347.2 18889.7 11340.2 18884.1 11333.4 18878.3 11326.9 18872.2 11320.7 18865.8 11314.7 18859.2 11309.1 18852.3 11303.7 18845.2 11298.6 18837.8 11293.9 18830.3 11289.5 18822.5 11285.4 18814.6 11281.7 18806.5 11278.3 18798.2 11275.3 18789.8 11272.7 18781.3 11270.4 18772.6 11268.5 18763.9 11266.9 18755.1 11265.8 18746.3 11265 18737.4 11264.6 18728.5 11264.6 18719.5 11265 18710.6 11265.8 18701.7 11266.9 18692.9 11268.5 18684.1 11270.4 18675.4 11272.7 18666.7 11275.3 18658.2 11278.3 18649.8 11281.7 18641.5 11285.4 18633.4 11289.5 18625.5 11293.9 18617.7 11298.6 18610.2 11303.7 18602.8 11309.1 18595.7 11314.7 18588.8 11320.7 18582.2 11326.9 18575.8 11333.4 18569.7 11340.2 18563.9 11347.2 18558.3 11354.5 18553.1 11361.9 18548.2 11369.6 18543.6 11377.4 18539.4 11385.5 18535.5 11393.7 18532 11402 18528.8 11410.5 18525.9 11419 18523.5 11427.7 18521.4 11436.5 18519.7 11445.3 18518.3 11454.2 18517.4 11463.1 18516.8 11472 18516.6 11738.7 18516.6 11738.7 19050 11738.5 19058.2 11737.9 19066.4 11737 19074.6 11735.7 19082.7 11734 19090.7 11731.9 19098.7 11729.5 19106.5 11726.7 19114.2 11723.6 19121.8 11720.1 19129.3 11716.2 19136.5 11712.1 19143.6 11707.6 19150.5 11702.8 19157.1 11697.7 19163.6 11692.3 19169.8 11686.6 19175.7 11680.7 19181.4 11674.5 19186.8 11668 19191.9 11661.4 19196.7 11654.5 19201.2 11647.4 19205.3 11640.2 19209.2 11632.7 19212.7 11625.1 19215.8 11617.4 19218.6 11609.6 19221 11601.6 19223.1 11593.6 19224.8 11585.5 19226.1 11577.3 19227 11569.1 19227.6 11560.9 19227.8 11323.8 19227.8 M 12195.1 19227.8 12550.7 19227.8 M 12313.6 19583.4 12313.6 18694.4 12313.8 18686.2 12314.4 18678 12315.3 18669.8 12316.6 18661.7 12318.3 18653.7 12320.4 18645.7 12322.8 18637.9 12325.6 18630.2 12328.7 18622.6 12332.2 18615.1 12336.1 18607.9 12340.2 18600.8 12344.7 18593.9 12349.5 18587.3 12354.6 18580.8 12360 18574.6 12365.7 18568.7 12371.6 18563 12377.8 18557.6 12384.3 18552.5 12390.9 18547.7 12397.8 18543.2 12404.9 18539.1 12412.1 18535.2 12419.6 18531.7 12427.2 18528.6 12434.9 18525.8 12442.7 18523.4 12450.7 18521.3 12458.7 18519.6 12466.8 18518.3 12475 18517.4 12483.2 18516.8 12491.4 18516.6 12550.7 18516.6 M 13064.1 18694.4 13064.1 19227.8 M 13064.1 18694.4 13064.3 18686.2 13064.9 18678 13065.8 18669.8 13067.1 18661.7 13068.8 18653.7 13070.9 18645.7 13073.3 18637.9 13076.1 18630.2 13079.2 18622.6 13082.7 18615.1 13086.6 18607.9 13090.7 18600.8 13095.2 18593.9 13100 18587.3 13105.1 18580.8 13110.5 18574.6 13116.2 18568.7 13122.1 18563 13128.3 18557.6 13134.8 18552.5 13141.4 18547.7 13148.3 18543.2 13155.4 18539.1 13162.6 18535.2 13170.1 18531.7 13177.7 18528.6 13185.4 18525.8 13193.2 18523.4 13201.2 18521.3 13209.2 18519.6 13217.3 18518.3 13225.5 18517.4 13233.7 18516.8 13241.9 18516.6 13538.2 18516.6 13538.2 19227.8 M 14181.6 18931.5 14478 18812.9 M 14181.6 18931.4 14174.5 18934.5 14167.5 18937.9 14160.7 18941.6 14154.2 18945.7 14147.8 18950.2 14141.7 18954.9 14135.8 18960 14130.1 18965.3 14124.8 18970.9 14119.7 18976.8 14115 18982.9 14110.5 18989.3 14106.4 18995.8 14102.6 19002.6 14099.2 19009.6 14096.1 19016.7 14093.4 19023.9 14091.1 19031.3 14089.1 19038.8 14087.5 19046.4 14086.3 19054.1 14085.5 19061.8 14085.1 19069.5 14085 19077.3 14085.4 19085 14086.1 19092.8 14087.3 19100.4 14088.8 19108 14090.7 19115.6 14093 19123 14095.6 19130.3 14098.6 19137.4 14102 19144.4 14105.7 19151.2 14109.8 19157.8 14114.2 19164.2 14118.9 19170.4 14123.9 19176.3 14129.2 19181.9 14134.8 19187.3 14140.6 19192.4 14146.7 19197.2 14153 19201.7 14159.6 19205.9 14166.3 19209.7 14173.3 19213.2 14180.4 19216.3 14187.6 19219.1 14195 19221.4 14202.5 19223.5 14210 19225.1 14217.7 19226.4 14225.4 19227.2 14233.1 19227.7 14240.9 19227.8 14257.1 19227.4 14273.3 19226.6 14289.4 19225.4 14305.5 19223.8 14321.6 19221.8 14337.6 19219.5 14353.5 19216.7 14369.4 19213.6 14385.2 19210.1 14400.9 19206.2 14416.5 19201.9 14432 19197.3 14447.4 19192.3 14462.7 19186.9 14477.8 19181.1 14492.8 19175 14507.6 19168.6 M 14478 18813 14485.1 18809.9 14492.1 18806.5 14498.9 18802.8 14505.4 18798.7 14511.8 18794.2 14517.9 18789.5 14523.8 18784.4 14529.5 18779.1 14534.8 18773.5 14539.9 18767.6 14544.6 18761.5 14549.1 18755.1 14553.2 18748.6 14557 18741.8 14560.4 18734.8 14563.5 18727.7 14566.2 18720.5 14568.5 18713.1 14570.5 18705.6 14572.1 18698 14573.3 18690.3 14574.1 18682.6 14574.5 18674.9 14574.6 18667.1 14574.2 18659.4 14573.5 18651.6 14572.3 18644 14570.8 18636.4 14568.9 18628.8 14566.6 18621.4 14564 18614.1 14561 18607 14557.6 18600 14553.9 18593.2 14549.8 18586.6 14545.4 18580.2 14540.7 18574 14535.7 18568.1 14530.4 18562.5 14524.8 18557.1 14519 18552 14512.9 18547.2 14506.6 18542.7 14500 18538.5 14493.3 18534.7 14486.3 18531.2 14479.3 18528.1 14472 18525.3 14464.6 18523 14457.1 18520.9 14449.6 18519.3 14441.9 18518 14434.2 18517.2 14426.5 18516.7 14418.7 18516.6 14395 18517.2 14371.2 18518.4 14347.5 18520.1 14323.9 18522.5 14300.3 18525.3 14276.7 18528.7 14253.3 18532.7 14230 18537.2 14206.7 18542.3 14183.6 18547.9 14160.7 18554.1 14137.9 18560.8 14115.2 18568.1 14092.8 18575.9 M 27787.6 12868.4 28024.7 11801.6 28261.7 12512.8 28498.8 11801.6 28735.9 12868.4 M 29214.2 12512.8 29214.2 11801.6 M 29184.6 12809.1 29184.6 12868.4 29243.9 12868.4 29243.9 12809.1 29184.6 12809.1 M 29759.5 12868.4 29759.5 11801.6 M 29759.5 12868.4 30233.6 12868.4 M 30233.6 12394.3 29759.5 12394.3 M 30662 12512.8 30662 11801.6 M 30632.4 12809.1 30632.4 12868.4 30691.7 12868.4 30691.7 12809.1 30632.4 12809.1 M 12547.6 13233.4 12547.6 12166.6 M 12547.6 13233.4 12843.9 13233.4 12854.5 13233.2 12865 13232.6 12875.6 13231.7 12886.1 13230.4 12896.5 13228.7 12906.9 13226.6 12917.2 13224.2 12927.4 13221.4 12937.5 13218.2 12947.4 13214.7 12957.3 13210.8 12967 13206.6 12976.5 13202.1 12985.9 13197.2 12995.1 13191.9 13004.1 13186.4 13012.9 13180.5 13021.5 13174.3 13029.8 13167.8 13037.9 13161 13045.8 13154 13053.4 13146.6 13060.8 13139 13067.8 13131.1 13074.6 13123 13081.1 13114.7 13087.3 13106.1 13093.2 13097.3 13098.7 13088.3 13104 13079.1 13108.9 13069.7 13113.4 13060.2 13117.6 13050.5 13121.5 13040.6 13125 13030.7 13128.2 13020.6 13131 13010.4 13133.4 13000.1 13135.5 12989.7 13137.2 12979.3 13138.5 12968.8 13139.4 12958.2 13140 12947.7 13140.2 12937.1 M 13140.3 12937.1 13140.3 12462.9 M 13140.2 12462.9 13140 12452.3 13139.4 12441.8 13138.5 12431.2 13137.2 12420.7 13135.5 12410.3 13133.4 12399.9 13131 12389.6 13128.2 12379.4 13125 12369.3 13121.5 12359.4 13117.6 12349.5 13113.4 12339.8 13108.9 12330.3 13104 12320.9 13098.7 12311.7 13093.2 12302.7 13087.3 12293.9 13081.1 12285.3 13074.6 12277 13067.8 12268.9 13060.8 12261 13053.4 12253.4 13045.8 12246 13037.9 12239 13029.8 12232.2 13021.5 12225.7 13012.9 12219.5 13004.1 12213.6 12995.1 12208.1 12985.9 12202.8 12976.5 12197.9 12967 12193.4 12957.3 12189.2 12947.4 12185.3 12937.5 12181.8 12927.4 12178.6 12917.2 12175.8 12906.9 12173.4 12896.5 12171.3 12886.1 12169.6 12875.6 12168.3 12865 12167.4 12854.5 12166.8 12843.9 12166.6 12547.6 12166.6 M 13711.8 12403.7 13711.8 12640.7 M 13711.7 12640.7 13711.9 12650.4 13712.5 12660 13713.5 12669.6 13714.9 12679.2 13716.6 12688.7 13718.8 12698.2 13721.3 12707.5 13724.2 12716.7 13727.5 12725.8 13731.2 12734.8 13735.2 12743.6 13739.6 12752.2 13744.3 12760.6 13749.3 12768.9 13754.7 12776.9 13760.5 12784.7 13766.5 12792.3 13772.8 12799.6 13779.4 12806.6 13786.4 12813.4 13793.5 12819.9 13801 12826.1 13808.7 12831.9 13816.6 12837.5 13824.7 12842.7 13833.1 12847.6 13841.6 12852.2 13850.3 12856.4 13859.2 12860.2 13868.2 12863.7 13877.4 12866.8 13886.7 12869.5 13896 12871.9 13905.5 12873.8 13915.1 12875.4 13924.7 12876.6 13934.3 12877.4 13944 12877.8 13953.6 12877.8 13963.3 12877.4 13972.9 12876.6 13982.5 12875.4 13992.1 12873.8 14001.6 12871.9 14010.9 12869.5 14020.2 12866.8 14029.4 12863.7 14038.4 12860.2 14047.3 12856.4 14056 12852.2 14064.5 12847.6 14072.9 12842.7 14081 12837.5 14088.9 12831.9 14096.6 12826.1 14104.1 12819.9 14111.2 12813.4 14118.2 12806.6 14124.8 12799.6 14131.1 12792.3 14137.1 12784.7 14142.9 12776.9 14148.3 12768.9 14153.3 12760.6 14158 12752.2 14162.4 12743.6 14166.4 12734.8 14170.1 12725.8 14173.4 12716.7 14176.3 12707.5 14178.8 12698.2 14181 12688.7 14182.7 12679.2 14184.1 12669.6 14185.1 12660 14185.7 12650.4 14185.9 12640.7 14185.9 12403.7 14185.7 12394 14185.1 12384.4 14184.1 12374.8 14182.7 12365.2 14181 12355.7 14178.8 12346.2 14176.3 12336.9 14173.4 12327.7 14170.1 12318.6 14166.4 12309.6 14162.4 12300.8 14158 12292.2 14153.3 12283.8 14148.3 12275.5 14142.9 12267.5 14137.1 12259.7 14131.1 12252.1 14124.8 12244.8 14118.2 12237.8 14111.2 12231 14104.1 12224.5 14096.6 12218.3 14088.9 12212.5 14081 12206.9 14072.9 12201.7 14064.5 12196.8 14056 12192.2 14047.3 12188 14038.4 12184.2 14029.4 12180.7 14020.2 12177.6 14010.9 12174.9 14001.6 12172.5 13992.1 12170.6 13982.5 12169 13972.9 12167.8 13963.3 12167 13953.6 12166.6 13944 12166.6 13934.3 12167 13924.7 12167.8 13915.1 12169 13905.5 12170.6 13896 12172.5 13886.7 12174.9 13877.4 12177.6 13868.2 12180.7 13859.2 12184.2 13850.3 12188 13841.6 12192.2 13833.1 12196.8 13824.7 12201.7 13816.6 12206.9 13808.7 12212.5 13801 12218.3 13793.5 12224.5 13786.4 12231 13779.4 12237.8 13772.8 12244.8 13766.5 12252.1 13760.5 12259.7 13754.7 12267.5 13749.3 12275.5 13744.3 12283.8 13739.6 12292.2 13735.2 12300.8 13731.2 12309.6 13727.5 12318.6 13724.2 12327.7 13721.3 12336.9 13718.8 12346.2 13716.6 12355.7 13714.9 12365.2 13713.5 12374.8 13712.5 12384.4 13711.9 12394 13711.7 12403.7 M 14702.4 12403.7 14702.4 12640.7 M 14702.3 12640.7 14702.5 12650.4 14703.1 12660 14704.1 12669.6 14705.5 12679.2 14707.2 12688.7 14709.4 12698.2 14711.9 12707.5 14714.8 12716.7 14718.1 12725.8 14721.8 12734.8 14725.8 12743.6 14730.2 12752.2 14734.9 12760.6 14739.9 12768.9 14745.3 12776.9 14751.1 12784.7 14757.1 12792.3 14763.4 12799.6 14770 12806.6 14777 12813.4 14784.1 12819.9 14791.6 12826.1 14799.3 12831.9 14807.2 12837.5 14815.3 12842.7 14823.7 12847.6 14832.2 12852.2 14840.9 12856.4 14849.8 12860.2 14858.8 12863.7 14868 12866.8 14877.3 12869.5 14886.6 12871.9 14896.1 12873.8 14905.7 12875.4 14915.3 12876.6 14924.9 12877.4 14934.6 12877.8 14944.2 12877.8 14953.9 12877.4 14963.5 12876.6 14973.1 12875.4 14982.7 12873.8 14992.2 12871.9 15001.5 12869.5 15010.8 12866.8 15020 12863.7 15029 12860.2 15037.9 12856.4 15046.6 12852.2 15055.1 12847.6 15063.5 12842.7 15071.6 12837.5 15079.5 12831.9 15087.2 12826.1 15094.7 12819.9 15101.8 12813.4 15108.8 12806.6 15115.4 12799.6 15121.7 12792.3 15127.7 12784.7 15133.5 12776.9 15138.9 12768.9 15143.9 12760.6 15148.6 12752.2 15153 12743.6 15157 12734.8 15160.7 12725.8 15164 12716.7 15166.9 12707.5 15169.4 12698.2 15171.6 12688.7 15173.3 12679.2 15174.7 12669.6 15175.7 12660 15176.3 12650.4 15176.5 12640.7 15176.5 12403.7 15176.3 12394 15175.7 12384.4 15174.7 12374.8 15173.3 12365.2 15171.6 12355.7 15169.4 12346.2 15166.9 12336.9 15164 12327.7 15160.7 12318.6 15157 12309.6 15153 12300.8 15148.6 12292.2 15143.9 12283.8 15138.9 12275.5 15133.5 12267.5 15127.7 12259.7 15121.7 12252.1 15115.4 12244.8 15108.8 12237.8 15101.8 12231 15094.7 12224.5 15087.2 12218.3 15079.5 12212.5 15071.6 12206.9 15063.5 12201.7 15055.1 12196.8 15046.6 12192.2 15037.9 12188 15029 12184.2 15020 12180.7 15010.8 12177.6 15001.5 12174.9 14992.2 12172.5 14982.7 12170.6 14973.1 12169 14963.5 12167.8 14953.9 12167 14944.2 12166.6 14934.6 12166.6 14924.9 12167 14915.3 12167.8 14905.7 12169 14896.1 12170.6 14886.6 12172.5 14877.3 12174.9 14868 12177.6 14858.8 12180.7 14849.8 12184.2 14840.9 12188 14832.2 12192.2 14823.7 12196.8 14815.3 12201.7 14807.2 12206.9 14799.3 12212.5 14791.6 12218.3 14784.1 12224.5 14777 12231 14770 12237.8 14763.4 12244.8 14757.1 12252.1 14751.1 12259.7 14745.3 12267.5 14739.9 12275.5 14734.9 12283.8 14730.2 12292.2 14725.8 12300.8 14721.8 12309.6 14718.1 12318.6 14714.8 12327.7 14711.9 12336.9 14709.4 12346.2 14707.2 12355.7 14705.5 12365.2 14704.1 12374.8 14703.1 12384.4 14702.5 12394 14702.3 12403.7 M 15741 12166.6 15741 12877.8 16096.6 12877.8 16096.6 12759.3 M 17098.4 12522.2 17809.6 12522.2 M 17809.6 12877.8 17098.4 12877.8 M 17276.2 13233.4 17276.2 12166.6 M 17631.8 12166.6 17631.8 13233.4 M 18664.8 13233.4 18675 13233.2 18685.2 13232.6 18695.4 13231.6 18705.5 13230.3 18715.6 13228.5 18725.6 13226.4 18735.5 13223.9 18745.3 13221 18754.9 13217.7 18764.5 13214.1 18773.9 13210.1 18783.1 13205.7 18792.2 13201 18801.1 13195.9 18809.8 13190.6 18818.2 13184.8 18826.5 13178.8 18834.5 13172.5 18842.2 13165.8 18849.7 13158.9 18857 13151.6 18863.9 13144.1 18870.6 13136.4 18876.9 13128.4 18882.9 13120.1 18888.7 13111.7 18894 13103 18899.1 13094.1 18903.8 13085 18908.2 13075.8 18912.2 13066.4 18915.8 13056.8 18919.1 13047.2 18922 13037.4 18924.5 13027.5 18926.6 13017.5 18928.4 13007.4 18929.7 12997.3 18930.7 12987.1 18931.3 12976.9 18931.5 12966.7 M 18664.8 13233.4 18653.2 13233.2 18641.5 13232.6 18629.9 13231.6 18618.4 13230.2 18606.9 13228.5 18595.4 13226.3 18584.1 13223.7 18572.8 13220.8 18561.6 13217.5 18550.6 13213.8 18539.7 13209.7 18528.9 13205.3 18518.3 13200.5 18507.9 13195.3 18497.6 13189.8 18487.5 13184 18477.7 13177.8 18468 13171.3 18458.6 13164.4 18449.4 13157.2 18440.5 13149.8 18431.8 13142 18423.4 13133.9 18415.3 13125.6 18407.5 13117 18399.9 13108.1 18392.7 13099 18385.8 13089.6 18379.2 13080 18372.9 13070.2 18367 13060.2 18361.4 13050 18356.2 13039.6 18351.3 13029 18346.8 13018.3 18342.6 13007.4 18338.9 12996.4 M 18842.6 12759.2 18850.1 12766.6 18857.3 12774.3 18864.2 12782.3 18870.9 12790.5 18877.2 12798.9 18883.2 12807.6 18888.9 12816.4 18894.3 12825.5 18899.3 12834.8 18904 12844.2 18908.3 12853.8 18912.3 12863.6 18915.9 12873.5 18919.2 12883.5 18922 12893.7 18924.5 12903.9 18926.7 12914.3 18928.4 12924.7 18929.8 12935.1 18930.7 12945.6 18931.3 12956.2 18931.5 12966.7 M 18842.6 12759.3 18338.8 12166.6 18931.5 12166.6 M 2387.6 12166.6 2387.6 13233.4 2683.9 13233.4 2694.5 13233.2 2705 13232.6 2715.6 13231.7 2726.1 13230.4 2736.5 13228.7 2746.9 13226.6 2757.2 13224.2 2767.4 13221.4 2777.5 13218.2 2787.4 13214.7 2797.3 13210.8 2807 13206.6 2816.5 13202.1 2825.9 13197.2 2835.1 13191.9 2844.1 13186.4 2852.9 13180.5 2861.5 13174.3 2869.8 13167.8 2877.9 13161 2885.8 13154 2893.4 13146.6 2900.8 13139 2907.8 13131.1 2914.6 13123 2921.1 13114.7 2927.3 13106.1 2933.2 13097.3 2938.7 13088.3 2944 13079.1 2948.9 13069.7 2953.4 13060.2 2957.6 13050.5 2961.5 13040.6 2965 13030.7 2968.2 13020.6 2971 13010.4 2973.4 13000.1 2975.5 12989.7 2977.2 12979.3 2978.5 12968.8 2979.4 12958.2 2980 12947.7 2980.2 12937.1 M 2980.3 12937.1 2980.3 12462.9 M 2980.2 12462.9 2980 12452.3 2979.4 12441.8 2978.5 12431.2 2977.2 12420.7 2975.5 12410.3 2973.4 12399.9 2971 12389.6 2968.2 12379.4 2965 12369.3 2961.5 12359.4 2957.6 12349.5 2953.4 12339.8 2948.9 12330.3 2944 12320.9 2938.7 12311.7 2933.2 12302.7 2927.3 12293.9 2921.1 12285.3 2914.6 12277 2907.8 12268.9 2900.8 12261 2893.4 12253.4 2885.8 12246 2877.9 12239 2869.8 12232.2 2861.5 12225.7 2852.9 12219.5 2844.1 12213.6 2835.1 12208.1 2825.9 12202.8 2816.5 12197.9 2807 12193.4 2797.3 12189.2 2787.4 12185.3 2777.5 12181.8 2767.4 12178.6 2757.2 12175.8 2746.9 12173.4 2736.5 12171.3 2726.1 12169.6 2715.6 12168.3 2705 12167.4 2694.5 12166.8 2683.9 12166.6 2387.6 12166.6 M 3551.8 12403.7 3551.8 12640.7 M 3551.7 12640.7 3551.9 12650.4 3552.5 12660 3553.5 12669.6 3554.9 12679.2 3556.6 12688.7 3558.8 12698.2 3561.3 12707.5 3564.2 12716.7 3567.5 12725.8 3571.2 12734.8 3575.2 12743.6 3579.6 12752.2 3584.3 12760.6 3589.3 12768.9 3594.7 12776.9 3600.5 12784.7 3606.5 12792.3 3612.8 12799.6 3619.4 12806.6 3626.4 12813.4 3633.5 12819.9 3641 12826.1 3648.7 12831.9 3656.6 12837.5 3664.7 12842.7 3673.1 12847.6 3681.6 12852.2 3690.3 12856.4 3699.2 12860.2 3708.2 12863.7 3717.4 12866.8 3726.7 12869.5 3736 12871.9 3745.5 12873.8 3755.1 12875.4 3764.7 12876.6 3774.3 12877.4 3784 12877.8 3793.6 12877.8 3803.3 12877.4 3812.9 12876.6 3822.5 12875.4 3832.1 12873.8 3841.6 12871.9 3850.9 12869.5 3860.2 12866.8 3869.4 12863.7 3878.4 12860.2 3887.3 12856.4 3896 12852.2 3904.5 12847.6 3912.9 12842.7 3921 12837.5 3928.9 12831.9 3936.6 12826.1 3944.1 12819.9 3951.2 12813.4 3958.2 12806.6 3964.8 12799.6 3971.1 12792.3 3977.1 12784.7 3982.9 12776.9 3988.3 12768.9 3993.3 12760.6 3998 12752.2 4002.4 12743.6 4006.4 12734.8 4010.1 12725.8 4013.4 12716.7 4016.3 12707.5 4018.8 12698.2 4021 12688.7 4022.7 12679.2 4024.1 12669.6 4025.1 12660 4025.7 12650.4 4025.9 12640.7 4025.9 12403.7 4025.7 12394 4025.1 12384.4 4024.1 12374.8 4022.7 12365.2 4021 12355.7 4018.8 12346.2 4016.3 12336.9 4013.4 12327.7 4010.1 12318.6 4006.4 12309.6 4002.4 12300.8 3998 12292.2 3993.3 12283.8 3988.3 12275.5 3982.9 12267.5 3977.1 12259.7 3971.1 12252.1 3964.8 12244.8 3958.2 12237.8 3951.2 12231 3944.1 12224.5 3936.6 12218.3 3928.9 12212.5 3921 12206.9 3912.9 12201.7 3904.5 12196.8 3896 12192.2 3887.3 12188 3878.4 12184.2 3869.4 12180.7 3860.2 12177.6 3850.9 12174.9 3841.6 12172.5 3832.1 12170.6 3822.5 12169 3812.9 12167.8 3803.3 12167 3793.6 12166.6 3784 12166.6 3774.3 12167 3764.7 12167.8 3755.1 12169 3745.5 12170.6 3736 12172.5 3726.7 12174.9 3717.4 12177.6 3708.2 12180.7 3699.2 12184.2 3690.3 12188 3681.6 12192.2 3673.1 12196.8 3664.7 12201.7 3656.6 12206.9 3648.7 12212.5 3641 12218.3 3633.5 12224.5 3626.4 12231 3619.4 12237.8 3612.8 12244.8 3606.5 12252.1 3600.5 12259.7 3594.7 12267.5 3589.3 12275.5 3584.3 12283.8 3579.6 12292.2 3575.2 12300.8 3571.2 12309.6 3567.5 12318.6 3564.2 12327.7 3561.3 12336.9 3558.8 12346.2 3556.6 12355.7 3554.9 12365.2 3553.5 12374.8 3552.5 12384.4 3551.9 12394 3551.7 12403.7 M 4542.4 12403.7 4542.4 12640.7 M 4542.3 12640.7 4542.5 12650.4 4543.1 12660 4544.1 12669.6 4545.5 12679.2 4547.2 12688.7 4549.4 12698.2 4551.9 12707.5 4554.8 12716.7 4558.1 12725.8 4561.8 12734.8 4565.8 12743.6 4570.2 12752.2 4574.9 12760.6 4579.9 12768.9 4585.3 12776.9 4591.1 12784.7 4597.1 12792.3 4603.4 12799.6 4610 12806.6 4617 12813.4 4624.1 12819.9 4631.6 12826.1 4639.3 12831.9 4647.2 12837.5 4655.3 12842.7 4663.7 12847.6 4672.2 12852.2 4680.9 12856.4 4689.8 12860.2 4698.8 12863.7 4708 12866.8 4717.3 12869.5 4726.6 12871.9 4736.1 12873.8 4745.7 12875.4 4755.3 12876.6 4764.9 12877.4 4774.6 12877.8 4784.2 12877.8 4793.9 12877.4 4803.5 12876.6 4813.1 12875.4 4822.7 12873.8 4832.2 12871.9 4841.5 12869.5 4850.8 12866.8 4860 12863.7 4869 12860.2 4877.9 12856.4 4886.6 12852.2 4895.1 12847.6 4903.5 12842.7 4911.6 12837.5 4919.5 12831.9 4927.2 12826.1 4934.7 12819.9 4941.8 12813.4 4948.8 12806.6 4955.4 12799.6 4961.7 12792.3 4967.7 12784.7 4973.5 12776.9 4978.9 12768.9 4983.9 12760.6 4988.6 12752.2 4993 12743.6 4997 12734.8 5000.7 12725.8 5004 12716.7 5006.9 12707.5 5009.4 12698.2 5011.6 12688.7 5013.3 12679.2 5014.7 12669.6 5015.7 12660 5016.3 12650.4 5016.5 12640.7 5016.5 12403.7 5016.3 12394 5015.7 12384.4 5014.7 12374.8 5013.3 12365.2 5011.6 12355.7 5009.4 12346.2 5006.9 12336.9 5004 12327.7 5000.7 12318.6 4997 12309.6 4993 12300.8 4988.6 12292.2 4983.9 12283.8 4978.9 12275.5 4973.5 12267.5 4967.7 12259.7 4961.7 12252.1 4955.4 12244.8 4948.8 12237.8 4941.8 12231 4934.7 12224.5 4927.2 12218.3 4919.5 12212.5 4911.6 12206.9 4903.5 12201.7 4895.1 12196.8 4886.6 12192.2 4877.9 12188 4869 12184.2 4860 12180.7 4850.8 12177.6 4841.5 12174.9 4832.2 12172.5 4822.7 12170.6 4813.1 12169 4803.5 12167.8 4793.9 12167 4784.2 12166.6 4774.6 12166.6 4764.9 12167 4755.3 12167.8 4745.7 12169 4736.1 12170.6 4726.6 12172.5 4717.3 12174.9 4708 12177.6 4698.8 12180.7 4689.8 12184.2 4680.9 12188 4672.2 12192.2 4663.7 12196.8 4655.3 12201.7 4647.2 12206.9 4639.3 12212.5 4631.6 12218.3 4624.1 12224.5 4617 12231 4610 12237.8 4603.4 12244.8 4597.1 12252.1 4591.1 12259.7 4585.3 12267.5 4579.9 12275.5 4574.9 12283.8 4570.2 12292.2 4565.8 12300.8 4561.8 12309.6 4558.1 12318.6 4554.8 12327.7 4551.9 12336.9 4549.4 12346.2 4547.2 12355.7 4545.5 12365.2 4544.1 12374.8 4543.1 12384.4 4542.5 12394 4542.3 12403.7 M 5581 12166.6 5581 12877.8 5936.6 12877.8 5936.6 12759.3 M 6938.4 12522.2 7649.6 12522.2 M 7649.6 12877.8 6938.4 12877.8 M 7116.2 13233.4 7116.2 12166.6 M 7471.8 12166.6 7471.8 13233.4 M 8178.8 12996.3 8475.1 13233.4 8475.1 12166.6 M 8178.8 12166.6 8771.5 12166.6" fill="none" stroke-width="203.2"/><path d="M 5000 11350 2600 9000 M 12760 9000 15160 11350 M 26730 9000 29130 11350 M 4500 29000 1500 29000 M 3000 30500 3000 27500 M 60500 29000 63500 29000 M 62000 30500 62000 27500 M 60500 3000 63500 3000 M 62000 4500 62000 1500 M 4500 3000 1500 3000 M 3000 4500 3000 1500" fill="none" stroke-width="152.4"/><path d="M 35950 37874 52950 37874 M 35950 13874 35950 12874 38450 12874 M 50450 12874 52950 12874 52950 13874 M 35950 29874 35950 37874 M 52950 37874 52950 29874" fill="none" stroke-width="200"/><path d="M 54071.1 30225.8 54071.1 30996.3 M 54071.1 30225.8 54071.3 30215.1 54071.9 30204.4 54072.8 30193.8 54074.2 30183.2 54075.9 30172.6 54078 30162.1 54080.5 30151.7 54083.4 30141.4 54086.6 30131.2 54090.2 30121.1 54094.2 30111.2 54098.5 30101.4 54103.2 30091.8 54108.2 30082.3 54113.5 30073 54119.2 30064 54125.2 30055.1 54131.5 30046.5 54138.1 30038.1 54145.1 30029.9 54152.3 30022 54159.8 30014.4 54167.6 30007 54175.6 30000 54183.9 29993.2 54192.4 29986.7 54201.1 29980.6 54210.1 29974.7 54219.3 29969.2 54228.6 29964 54238.2 29959.2 54247.9 29954.7 54257.7 29950.5 54267.7 29946.8 54277.9 29943.3 54288.1 29940.3 54298.5 29937.6 54308.9 29935.3 54319.5 29933.4 54330.1 29931.9 54340.7 29930.7 54351.4 29929.9 54362.1 29929.5 54372.7 29929.5 54383.4 29929.9 54394.1 29930.7 54404.7 29931.9 54415.3 29933.4 54425.9 29935.3 54436.3 29937.6 54446.7 29940.3 54456.9 29943.3 54467.1 29946.8 54477.1 29950.5 54486.9 29954.7 54496.6 29959.2 54506.2 29964 54515.6 29969.2 54524.7 29974.7 54533.7 29980.6 54542.4 29986.7 54550.9 29993.2 54559.2 30000 54567.2 30007 54575 30014.4 54582.5 30022 54589.7 30029.9 54596.7 30038.1 54603.3 30046.5 54609.6 30055.1 54615.6 30064 54621.3 30073 54626.6 30082.3 54631.6 30091.8 54636.3 30101.4 54640.6 30111.2 54644.6 30121.1 54648.2 30131.2 54651.4 30141.4 54654.3 30151.7 54656.8 30162.1 54658.9 30172.6 54660.6 30183.2 54662 30193.8 54662.9 30204.4 54663.5 30215.1 54663.7 30225.8 54663.7 30996.3 M 55252.2 30759.2 55548.5 30996.3 55548.5 29929.5 M 55252.2 29929.5 55844.8 29929.5" fill="none" stroke-width="203.2"/><path d="M 13160 25960 7160 25960 M 13160 25960 13160 19760 7160 19760 7160 25960" fill="none" stroke-width="127"/><path d="M 8382 22860 8382.5 22903.6 8384.1 22947.2 8386.8 22990.8 8390.6 23034.3 8395.4 23077.6 8401.2 23120.9 8408.2 23164 8416.2 23206.9 8425.2 23249.6 8435.3 23292 8446.4 23334.2 8458.6 23376.1 8471.7 23417.7 8485.9 23459 8501.1 23499.9 8517.3 23540.4 8534.5 23580.5 8552.7 23620.2 8571.8 23659.4 8591.9 23698.1 8613 23736.4 8635 23774.1 8657.9 23811.2 8681.6 23847.8 8706.3 23883.8 8731.9 23919.2 8758.3 23953.9 8785.6 23988 8813.7 24021.3 8842.6 24054 8872.3 24086 8902.8 24117.2 8934 24147.7 8966 24177.4 8998.7 24206.3 9032 24234.4 9066.1 24261.7 9100.8 24288.1 9136.2 24313.7 9172.2 24338.4 9208.8 24362.1 9245.9 24385 9283.6 24407 9321.9 24428.1 9360.6 24448.2 9399.8 24467.3 9439.5 24485.5 9479.6 24502.7 9520.1 24518.9 9561 24534.1 9602.3 24548.3 9643.9 24561.4 9685.8 24573.6 9728 24584.7 9770.4 24594.8 9813.1 24603.8 9856 24611.8 9899.1 24618.8 9942.4 24624.6 9985.7 24629.4 10029.2 24633.2 10072.8 24635.9 10116.4 24637.5 10160 24638 10203.6 24637.5 10247.2 24635.9 10290.8 24633.2 10334.3 24629.4 10377.6 24624.6 10420.9 24618.8 10464 24611.8 10506.9 24603.8 10549.6 24594.8 10592 24584.7 10634.2 24573.6 10676.1 24561.4 10717.7 24548.3 10759 24534.1 10799.9 24518.9 10840.4 24502.7 10880.5 24485.5 10920.2 24467.3 10959.4 24448.2 10998.1 24428.1 11036.4 24407 11074.1 24385 11111.2 24362.1 11147.8 24338.4 11183.8 24313.7 11219.2 24288.1 11253.9 24261.7 11288 24234.4 11321.3 24206.3 11354 24177.4 11386 24147.7 11417.2 24117.2 11447.7 24086 11477.4 24054 11506.3 24021.3 11534.4 23988 11561.7 23953.9 11588.1 23919.2 11613.7 23883.8 11638.4 23847.8 11662.1 23811.2 11685 23774.1 11707 23736.4 11728.1 23698.1 11748.2 23659.4 11767.3 23620.2 11785.5 23580.5 11802.7 23540.4 11818.9 23499.9 11834.1 23459 11848.3 23417.7 11861.4 23376.1 11873.6 23334.2 11884.7 23292 11894.8 23249.6 11903.8 23206.9 11911.8 23164 11918.8 23120.9 11924.6 23077.6 11929.4 23034.3 11933.2 22990.8 11935.9 22947.2 11937.5 22903.6 11938 22860 11937.5 22816.4 11935.9 22772.8 11933.2 22729.2 11929.4 22685.7 11924.6 22642.4 11918.8 22599.1 11911.8 22556 11903.8 22513.1 11894.8 22470.4 11884.7 22428 11873.6 22385.8 11861.4 22343.9 11848.3 22302.3 11834.1 22261 11818.9 22220.1 11802.7 22179.6 11785.5 22139.5 11767.3 22099.8 11748.2 22060.6 11728.1 22021.9 11707 21983.6 11685 21945.9 11662.1 21908.8 11638.4 21872.2 11613.7 21836.2 11588.1 21800.8 11561.7 21766.1 11534.4 21732 11506.3 21698.7 11477.4 21666 11447.7 21634 11417.2 21602.8 11386 21572.3 11354 21542.6 11321.3 21513.7 11288 21485.6 11253.9 21458.3 11219.2 21431.9 11183.8 21406.3 11147.8 21381.6 11111.2 21357.9 11074.1 21335 11036.4 21313 10998.1 21291.9 10959.4 21271.8 10920.2 21252.7 10880.5 21234.5 10840.4 21217.3 10799.9 21201.1 10759 21185.9 10717.7 21171.7 10676.1 21158.6 10634.2 21146.4 10592 21135.3 10549.6 21125.2 10506.9 21116.2 10464 21108.2 10420.9 21101.2 10377.6 21095.4 10334.3 21090.6 10290.8 21086.8 10247.2 21084.1 10203.6 21082.5 10160 21082 10116.4 21082.5 10072.8 21084.1 10029.2 21086.8 9985.7 21090.6 9942.4 21095.4 9899.1 21101.2 9856 21108.2 9813.1 21116.2 9770.4 21125.2 9728 21135.3 9685.8 21146.4 9643.9 21158.6 9602.3 21171.7 9561 21185.9 9520.1 21201.1 9479.6 21217.3 9439.5 21234.5 9399.8 21252.7 9360.6 21271.8 9321.9 21291.9 9283.6 21313 9245.9 21335 9208.8 21357.9 9172.2 21381.6 9136.2 21406.3 9100.8 21431.9 9066.1 21458.3 9032 21485.6 8998.7 21513.7 8966 21542.6 8934 21572.3 8902.8 21602.8 8872.3 21634 8842.6 21666 8813.7 21698.7 8785.6 21732 8758.3 21766.1 8731.9 21800.8 8706.3 21836.2 8681.6 21872.2 8657.9 21908.8 8635 21945.9 8613 21983.6 8591.9 22021.9 8571.8 22060.6 8552.7 22099.8 8534.5 22139.5 8517.3 22179.6 8501.1 22220.1 8485.9 22261 8471.7 22302.3 8458.6 22343.9 8446.4 22385.8 8435.3 22428 8425.2 22470.4 8416.2 22513.1 8408.2 22556 8401.2 22599.1 8395.4 22642.4 8390.6 22685.7 8386.8 22729.2 8384.1 22772.8 8382.5 22816.4 8382 22860 M 9906 22860 9906.2 22870 9906.8 22880.1 9907.8 22890 9909.2 22900 9910.9 22909.9 9913.1 22919.7 9915.7 22929.4 9918.6 22939 9921.9 22948.4 9925.6 22957.8 9929.6 22967 9934 22976 9938.8 22984.8 9943.9 22993.5 9949.3 23001.9 9955.1 23010.1 9961.2 23018.1 9967.6 23025.8 9974.3 23033.3 9981.3 23040.5 9988.6 23047.4 9996.1 23054 10003.9 23060.4 10011.9 23066.4 10020.2 23072.1 10028.7 23077.4 10037.4 23082.4 10046.3 23087.1 10055.3 23091.4 10064.5 23095.4 10073.9 23099 10083.4 23102.2 10093 23105 10102.8 23107.5 10112.6 23109.5 10122.5 23111.2 10132.5 23112.5 10142.4 23113.4 10152.5 23113.9 10162.5 23114 10172.5 23113.7 10182.6 23113 10192.5 23111.9 10202.5 23110.4 10212.3 23108.6 10222.1 23106.3 10231.8 23103.6 10241.3 23100.6 10250.8 23097.2 10260.1 23093.4 10269.2 23089.3 10278.2 23084.8 10287 23080 10295.6 23074.8 10304 23069.3 10312.1 23063.4 10320 23057.2 10327.7 23050.8 10335.1 23044 10342.2 23036.9 10349.1 23029.6 10355.6 23022 10361.9 23014.1 10367.8 23006 10373.4 22997.7 10378.7 22989.2 10383.6 22980.4 10388.2 22971.5 10392.4 22962.4 10396.3 22953.1 10399.8 22943.7 10402.9 22934.2 10405.7 22924.5 10408 22914.8 10410 22904.9 10411.6 22895 10412.8 22885.1 10413.6 22875 10414 22865 10414 22855 10413.6 22845 10412.8 22834.9 10411.6 22825 10410 22815.1 10408 22805.2 10405.7 22795.5 10402.9 22785.8 10399.8 22776.3 10396.3 22766.9 10392.4 22757.6 10388.2 22748.5 10383.6 22739.6 10378.7 22730.8 10373.4 22722.3 10367.8 22714 10361.9 22705.9 10355.6 22698 10349.1 22690.4 10342.2 22683.1 10335.1 22676 10327.7 22669.2 10320 22662.8 10312.1 22656.6 10304 22650.7 10295.6 22645.2 10287 22640 10278.2 22635.2 10269.2 22630.7 10260.1 22626.6 10250.8 22622.8 10241.3 22619.4 10231.8 22616.4 10222.1 22613.7 10212.3 22611.4 10202.5 22609.6 10192.5 22608.1 10182.6 22607 10172.5 22606.3 10162.5 22606 10152.5 22606.1 10142.4 22606.6 10132.5 22607.5 10122.5 22608.8 10112.6 22610.5 10102.8 22612.5 10093 22615 10083.4 22617.8 10073.9 22621 10064.5 22624.6 10055.3 22628.6 10046.3 22632.9 10037.4 22637.6 10028.7 22642.6 10020.2 22647.9 10011.9 22653.6 10003.9 22659.6 9996.1 22666 9988.6 22672.6 9981.3 22679.5 9974.3 22686.7 9967.6 22694.2 9961.2 22701.9 9955.1 22709.9 9949.3 22718.1 9943.9 22726.5 9938.8 22735.2 9934 22744 9929.6 22753 9925.6 22762.2 9921.9 22771.6 9918.6 22781 9915.7 22790.6 9913.1 22800.3 9910.9 22810.1 9909.2 22820 9907.8 22830 9906.8 22839.9 9906.2 22850 9906 22860" fill="none" stroke-width="152.4"/><path d="M 10109.2 26644.6 10118.8 26644.8 10128.3 26645.4 10137.8 26646.3 10147.2 26647.7 10156.6 26649.4 10165.9 26651.5 10175.2 26654 10184.3 26656.8 10193.3 26660 10202.1 26663.6 10210.8 26667.5 10219.4 26671.8 10227.8 26676.4 10235.9 26681.3 10243.9 26686.6 10251.6 26692.2 10259.2 26698 10266.4 26704.2 10273.4 26710.7 10280.2 26717.5 10286.7 26724.5 10292.9 26731.7 10298.7 26739.3 10304.3 26747 10309.6 26755 10314.5 26763.2 10319.1 26771.5 10323.4 26780.1 10327.3 26788.8 10330.9 26797.6 10334.1 26806.6 10336.9 26815.7 10339.4 26825 10341.5 26834.3 10343.2 26843.7 10344.6 26853.1 10345.5 26862.6 10346.1 26872.2 10346.3 26881.7 M 10109.2 26644.6 10095.6 26644.8 10081.9 26645.3 10068.3 26646.3 10054.8 26647.6 10041.2 26649.2 10027.8 26651.3 10014.3 26653.7 10001 26656.4 9987.7 26659.6 9974.5 26663 9961.4 26666.9 9948.5 26671.1 9935.6 26675.6 9922.9 26680.5 9910.3 26685.8 9897.9 26691.4 9885.6 26697.3 9873.5 26703.5 9861.5 26710.1 9849.8 26717 9838.2 26724.3 9826.8 26731.8 9815.7 26739.6 9804.7 26747.8 9794 26756.2 9783.6 26764.9 9773.3 26773.9 9763.3 26783.2 9753.6 26792.8 M 9783.2 27474.3 9783.4 27483.8 9784 27493.4 9784.9 27502.9 9786.3 27512.3 9788 27521.7 9790.1 27531 9792.6 27540.3 9795.4 27549.4 9798.6 27558.4 9802.2 27567.2 9806.1 27575.9 9810.4 27584.5 9815 27592.9 9819.9 27601 9825.2 27609 9830.8 27616.7 9836.6 27624.3 9842.8 27631.5 9849.3 27638.5 9856.1 27645.3 9863.1 27651.8 9870.3 27658 9877.9 27663.8 9885.6 27669.4 9893.6 27674.7 9901.8 27679.6 9910.1 27684.2 9918.7 27688.5 9927.4 27692.4 9936.2 27696 9945.2 27699.2 9954.3 27702 9963.6 27704.5 9972.9 27706.6 9982.3 27708.3 9991.7 27709.7 10001.2 27710.6 10010.8 27711.2 10020.3 27711.4 10033.3 27711.2 10046.3 27710.6 10059.3 27709.7 10072.2 27708.4 10085.1 27706.7 10097.9 27704.6 10110.7 27702.1 10123.4 27699.3 10136 27696.1 10148.5 27692.5 10160.9 27688.6 10173.1 27684.3 10185.3 27679.7 10197.3 27674.6 10209.1 27669.3 10220.8 27663.6 10232.3 27657.6 10243.7 27651.2 10254.8 27644.5 10265.8 27637.5 10276.5 27630.1 10287 27622.5 M 9901.8 27266.8 9893.6 27271.9 9885.6 27277.3 9877.8 27282.9 9870.3 27288.9 9863 27295.2 9856 27301.8 9849.3 27308.6 9842.8 27315.7 9836.6 27323.1 9830.7 27330.7 9825.1 27338.5 9819.9 27346.6 9814.9 27354.8 9810.3 27363.3 9806.1 27371.9 9802.1 27380.7 9798.6 27389.6 9795.4 27398.7 9792.5 27407.9 9790.1 27417.2 9788 27426.5 9786.3 27436 9784.9 27445.5 9784 27455.1 9783.4 27464.7 9783.2 27474.3 M 10227.8 27089.2 10235.9 27084.1 10243.9 27078.7 10251.7 27073.1 10259.2 27067.1 10266.5 27060.8 10273.5 27054.2 10280.2 27047.4 10286.7 27040.3 10292.9 27032.9 10298.8 27025.3 10304.4 27017.5 10309.6 27009.4 10314.6 27001.2 10319.2 26992.7 10323.4 26984.1 10327.4 26975.3 10330.9 26966.4 10334.1 26957.3 10337 26948.1 10339.4 26938.8 10341.5 26929.5 10343.2 26920 10344.6 26910.5 10345.5 26900.9 10346.1 26891.3 10346.3 26881.7 M 10227.7 27089.1 9901.8 27266.9 M 10858.5 27474.3 11154.8 27711.4 11154.8 26644.6 M 10858.5 26644.6 11451.2 26644.6" fill="none" stroke-width="203.2"/><path d="M 26210 19610 32210 19610 32210 13410 26210 13410 26210 19610" fill="none" stroke-width="127"/><path d="M 27432 16510 27432.5 16553.6 27434.1 16597.2 27436.8 16640.8 27440.6 16684.3 27445.4 16727.6 27451.2 16770.9 27458.2 16814 27466.2 16856.9 27475.2 16899.6 27485.3 16942 27496.4 16984.2 27508.6 17026.1 27521.7 17067.7 27535.9 17109 27551.1 17149.9 27567.3 17190.4 27584.5 17230.5 27602.7 17270.2 27621.8 17309.4 27641.9 17348.1 27663 17386.4 27685 17424.1 27707.9 17461.2 27731.6 17497.8 27756.3 17533.8 27781.9 17569.2 27808.3 17603.9 27835.6 17638 27863.7 17671.3 27892.6 17704 27922.3 17736 27952.8 17767.2 27984 17797.7 28016 17827.4 28048.7 17856.3 28082 17884.4 28116.1 17911.7 28150.8 17938.1 28186.2 17963.7 28222.2 17988.4 28258.8 18012.1 28295.9 18035 28333.6 18057 28371.9 18078.1 28410.6 18098.2 28449.8 18117.3 28489.5 18135.5 28529.6 18152.7 28570.1 18168.9 28611 18184.1 28652.3 18198.3 28693.9 18211.4 28735.8 18223.6 28778 18234.7 28820.4 18244.8 28863.1 18253.8 28906 18261.8 28949.1 18268.8 28992.4 18274.6 29035.7 18279.4 29079.2 18283.2 29122.8 18285.9 29166.4 18287.5 29210 18288 29253.6 18287.5 29297.2 18285.9 29340.8 18283.2 29384.3 18279.4 29427.6 18274.6 29470.9 18268.8 29514 18261.8 29556.9 18253.8 29599.6 18244.8 29642 18234.7 29684.2 18223.6 29726.1 18211.4 29767.7 18198.3 29809 18184.1 29849.9 18168.9 29890.4 18152.7 29930.5 18135.5 29970.2 18117.3 30009.4 18098.2 30048.1 18078.1 30086.4 18057 30124.1 18035 30161.2 18012.1 30197.8 17988.4 30233.8 17963.7 30269.2 17938.1 30303.9 17911.7 30338 17884.4 30371.3 17856.3 30404 17827.4 30436 17797.7 30467.2 17767.2 30497.7 17736 30527.4 17704 30556.3 17671.3 30584.4 17638 30611.7 17603.9 30638.1 17569.2 30663.7 17533.8 30688.4 17497.8 30712.1 17461.2 30735 17424.1 30757 17386.4 30778.1 17348.1 30798.2 17309.4 30817.3 17270.2 30835.5 17230.5 30852.7 17190.4 30868.9 17149.9 30884.1 17109 30898.3 17067.7 30911.4 17026.1 30923.6 16984.2 30934.7 16942 30944.8 16899.6 30953.8 16856.9 30961.8 16814 30968.8 16770.9 30974.6 16727.6 30979.4 16684.3 30983.2 16640.8 30985.9 16597.2 30987.5 16553.6 30988 16510 30987.5 16466.4 30985.9 16422.8 30983.2 16379.2 30979.4 16335.7 30974.6 16292.4 30968.8 16249.1 30961.8 16206 30953.8 16163.1 30944.8 16120.4 30934.7 16078 30923.6 16035.8 30911.4 15993.9 30898.3 15952.3 30884.1 15911 30868.9 15870.1 30852.7 15829.6 30835.5 15789.5 30817.3 15749.8 30798.2 15710.6 30778.1 15671.9 30757 15633.6 30735 15595.9 30712.1 15558.8 30688.4 15522.2 30663.7 15486.2 30638.1 15450.8 30611.7 15416.1 30584.4 15382 30556.3 15348.7 30527.4 15316 30497.7 15284 30467.2 15252.8 30436 15222.3 30404 15192.6 30371.3 15163.7 30338 15135.6 30303.9 15108.3 30269.2 15081.9 30233.8 15056.3 30197.8 15031.6 30161.2 15007.9 30124.1 14985 30086.4 14963 30048.1 14941.9 30009.4 14921.8 29970.2 14902.7 29930.5 14884.5 29890.4 14867.3 29849.9 14851.1 29809 14835.9 29767.7 14821.7 29726.1 14808.6 29684.2 14796.4 29642 14785.3 29599.6 14775.2 29556.9 14766.2 29514 14758.2 29470.9 14751.2 29427.6 14745.4 29384.3 14740.6 29340.8 14736.8 29297.2 14734.1 29253.6 14732.5 29210 14732 29166.4 14732.5 29122.8 14734.1 29079.2 14736.8 29035.7 14740.6 28992.4 14745.4 28949.1 14751.2 28906 14758.2 28863.1 14766.2 28820.4 14775.2 28778 14785.3 28735.8 14796.4 28693.9 14808.6 28652.3 14821.7 28611 14835.9 28570.1 14851.1 28529.6 14867.3 28489.5 14884.5 28449.8 14902.7 28410.6 14921.8 28371.9 14941.9 28333.6 14963 28295.9 14985 28258.8 15007.9 28222.2 15031.6 28186.2 15056.3 28150.8 15081.9 28116.1 15108.3 28082 15135.6 28048.7 15163.7 28016 15192.6 27984 15222.3 27952.8 15252.8 27922.3 15284 27892.6 15316 27863.7 15348.7 27835.6 15382 27808.3 15416.1 27781.9 15450.8 27756.3 15486.2 27731.6 15522.2 27707.9 15558.8 27685 15595.9 27663 15633.6 27641.9 15671.9 27621.8 15710.6 27602.7 15749.8 27584.5 15789.5 27567.3 15829.6 27551.1 15870.1 27535.9 15911 27521.7 15952.3 27508.6 15993.9 27496.4 16035.8 27485.3 16078 27475.2 16120.4 27466.2 16163.1 27458.2 16206 27451.2 16249.1 27445.4 16292.4 27440.6 16335.7 27436.8 16379.2 27434.1 16422.8 27432.5 16466.4 27432 16510 M 28956 16510 28956.2 16520 28956.8 16530.1 28957.8 16540 28959.2 16550 28960.9 16559.9 28963.1 16569.7 28965.7 16579.4 28968.6 16589 28971.9 16598.4 28975.6 16607.8 28979.6 16617 28984 16626 28988.8 16634.8 28993.9 16643.5 28999.3 16651.9 29005.1 16660.1 29011.2 16668.1 29017.6 16675.8 29024.3 16683.3 29031.3 16690.5 29038.6 16697.4 29046.1 16704 29053.9 16710.4 29061.9 16716.4 29070.2 16722.1 29078.7 16727.4 29087.4 16732.4 29096.3 16737.1 29105.3 16741.4 29114.5 16745.4 29123.9 16749 29133.4 16752.2 29143 16755 29152.8 16757.5 29162.6 16759.5 29172.5 16761.2 29182.5 16762.5 29192.4 16763.4 29202.5 16763.9 29212.5 16764 29222.5 16763.7 29232.6 16763 29242.5 16761.9 29252.5 16760.4 29262.3 16758.6 29272.1 16756.3 29281.8 16753.6 29291.3 16750.6 29300.8 16747.2 29310.1 16743.4 29319.2 16739.3 29328.2 16734.8 29337 16730 29345.6 16724.8 29354 16719.3 29362.1 16713.4 29370 16707.2 29377.7 16700.8 29385.1 16694 29392.2 16686.9 29399.1 16679.6 29405.6 16672 29411.9 16664.1 29417.8 16656 29423.4 16647.7 29428.7 16639.2 29433.6 16630.4 29438.2 16621.5 29442.4 16612.4 29446.3 16603.1 29449.8 16593.7 29452.9 16584.2 29455.7 16574.5 29458 16564.8 29460 16554.9 29461.6 16545 29462.8 16535.1 29463.6 16525 29464 16515 29464 16505 29463.6 16495 29462.8 16484.9 29461.6 16475 29460 16465.1 29458 16455.2 29455.7 16445.5 29452.9 16435.8 29449.8 16426.3 29446.3 16416.9 29442.4 16407.6 29438.2 16398.5 29433.6 16389.6 29428.7 16380.8 29423.4 16372.3 29417.8 16364 29411.9 16355.9 29405.6 16348 29399.1 16340.4 29392.2 16333.1 29385.1 16326 29377.7 16319.2 29370 16312.8 29362.1 16306.6 29354 16300.7 29345.6 16295.2 29337 16290 29328.2 16285.2 29319.2 16280.7 29310.1 16276.6 29300.8 16272.8 29291.3 16269.4 29281.8 16266.4 29272.1 16263.7 29262.3 16261.4 29252.5 16259.6 29242.5 16258.1 29232.6 16257 29222.5 16256.3 29212.5 16256 29202.5 16256.1 29192.4 16256.6 29182.5 16257.5 29172.5 16258.8 29162.6 16260.5 29152.8 16262.5 29143 16265 29133.4 16267.8 29123.9 16271 29114.5 16274.6 29105.3 16278.6 29096.3 16282.9 29087.4 16287.6 29078.7 16292.6 29070.2 16297.9 29061.9 16303.6 29053.9 16309.6 29046.1 16316 29038.6 16322.6 29031.3 16329.5 29024.3 16336.7 29017.6 16344.2 29011.2 16351.9 29005.1 16359.9 28999.3 16368.1 28993.9 16376.5 28988.8 16385.2 28984 16394 28979.6 16403 28975.6 16412.2 28971.9 16421.6 28968.6 16431 28965.7 16440.6 28963.1 16450.3 28960.9 16460.1 28959.2 16470 28957.8 16480 28956.8 16489.9 28956.2 16500 28956 16510" fill="none" stroke-width="152.4"/><path d="M 29159.2 20294.6 29168.8 20294.8 29178.3 20295.4 29187.8 20296.3 29197.2 20297.7 29206.6 20299.4 29215.9 20301.5 29225.2 20304 29234.3 20306.8 29243.3 20310 29252.1 20313.6 29260.8 20317.5 29269.4 20321.8 29277.8 20326.4 29285.9 20331.3 29293.9 20336.6 29301.6 20342.2 29309.2 20348 29316.4 20354.2 29323.4 20360.7 29330.2 20367.5 29336.7 20374.5 29342.9 20381.7 29348.7 20389.3 29354.3 20397 29359.6 20405 29364.5 20413.2 29369.1 20421.5 29373.4 20430.1 29377.3 20438.8 29380.9 20447.6 29384.1 20456.6 29386.9 20465.7 29389.4 20475 29391.5 20484.3 29393.2 20493.7 29394.6 20503.1 29395.5 20512.6 29396.1 20522.2 29396.3 20531.7 M 29159.2 20294.6 29145.6 20294.8 29131.9 20295.3 29118.3 20296.3 29104.8 20297.6 29091.2 20299.2 29077.8 20301.3 29064.3 20303.7 29051 20306.4 29037.7 20309.6 29024.5 20313 29011.4 20316.9 28998.5 20321.1 28985.6 20325.6 28972.9 20330.5 28960.3 20335.8 28947.9 20341.4 28935.6 20347.3 28923.5 20353.5 28911.5 20360.1 28899.8 20367 28888.2 20374.3 28876.8 20381.8 28865.7 20389.6 28854.7 20397.8 28844 20406.2 28833.6 20414.9 28823.3 20423.9 28813.3 20433.2 28803.6 20442.8 M 28833.2 21124.3 28833.4 21133.8 28834 21143.4 28834.9 21152.9 28836.3 21162.3 28838 21171.7 28840.1 21181 28842.6 21190.3 28845.4 21199.4 28848.6 21208.4 28852.2 21217.2 28856.1 21225.9 28860.4 21234.5 28865 21242.9 28869.9 21251 28875.2 21259 28880.8 21266.7 28886.6 21274.3 28892.8 21281.5 28899.3 21288.5 28906.1 21295.3 28913.1 21301.8 28920.3 21308 28927.9 21313.8 28935.6 21319.4 28943.6 21324.7 28951.8 21329.6 28960.1 21334.2 28968.7 21338.5 28977.4 21342.4 28986.2 21346 28995.2 21349.2 29004.3 21352 29013.6 21354.5 29022.9 21356.6 29032.3 21358.3 29041.7 21359.7 29051.2 21360.6 29060.8 21361.2 29070.3 21361.4 29083.3 21361.2 29096.3 21360.6 29109.3 21359.7 29122.2 21358.4 29135.1 21356.7 29147.9 21354.6 29160.7 21352.1 29173.4 21349.3 29186 21346.1 29198.5 21342.5 29210.9 21338.6 29223.1 21334.3 29235.3 21329.7 29247.3 21324.6 29259.1 21319.3 29270.8 21313.6 29282.3 21307.6 29293.7 21301.2 29304.8 21294.5 29315.8 21287.5 29326.5 21280.1 29337 21272.5 M 28951.8 20916.8 28943.6 20921.9 28935.6 20927.3 28927.8 20932.9 28920.3 20938.9 28913 20945.2 28906 20951.8 28899.3 20958.6 28892.8 20965.7 28886.6 20973.1 28880.7 20980.7 28875.1 20988.5 28869.9 20996.6 28864.9 21004.8 28860.3 21013.3 28856.1 21021.9 28852.1 21030.7 28848.6 21039.6 28845.4 21048.7 28842.5 21057.9 28840.1 21067.2 28838 21076.5 28836.3 21086 28834.9 21095.5 28834 21105.1 28833.4 21114.7 28833.2 21124.3 M 29277.8 20739.2 29285.9 20734.1 29293.9 20728.7 29301.7 20723.1 29309.2 20717.1 29316.5 20710.8 29323.5 20704.2 29330.2 20697.4 29336.7 20690.3 29342.9 20682.9 29348.8 20675.3 29354.4 20667.5 29359.6 20659.4 29364.6 20651.2 29369.2 20642.7 29373.4 20634.1 29377.4 20625.3 29380.9 20616.4 29384.1 20607.3 29387 20598.1 29389.4 20588.8 29391.5 20579.5 29393.2 20570 29394.6 20560.5 29395.5 20550.9 29396.1 20541.3 29396.3 20531.7 M 29277.7 20739.1 28951.8 20916.9 M 30234.5 21361.4 30244.7 21361.2 30254.9 21360.6 30265.1 21359.6 30275.2 21358.3 30285.3 21356.5 30295.3 21354.4 30305.2 21351.9 30315 21349 30324.6 21345.7 30334.2 21342.1 30343.6 21338.1 30352.8 21333.7 30361.9 21329 30370.8 21323.9 30379.5 21318.6 30387.9 21312.8 30396.2 21306.8 30404.2 21300.5 30411.9 21293.8 30419.4 21286.9 30426.7 21279.6 30433.6 21272.1 30440.3 21264.4 30446.6 21256.4 30452.6 21248.1 30458.4 21239.7 30463.7 21231 30468.8 21222.1 30473.5 21213 30477.9 21203.8 30481.9 21194.4 30485.5 21184.8 30488.8 21175.2 30491.7 21165.4 30494.2 21155.5 30496.3 21145.5 30498.1 21135.4 30499.4 21125.3 30500.4 21115.1 30501 21104.9 30501.2 21094.7 M 30234.5 21361.4 30222.9 21361.2 30211.2 21360.6 30199.6 21359.6 30188.1 21358.2 30176.6 21356.5 30165.1 21354.3 30153.8 21351.7 30142.5 21348.8 30131.3 21345.5 30120.3 21341.8 30109.4 21337.7 30098.6 21333.3 30088 21328.5 30077.6 21323.3 30067.3 21317.8 30057.2 21312 30047.4 21305.8 30037.7 21299.3 30028.3 21292.4 30019.1 21285.2 30010.2 21277.8 30001.5 21270 29993.1 21261.9 29985 21253.6 29977.2 21245 29969.6 21236.1 29962.4 21227 29955.5 21217.6 29948.9 21208 29942.6 21198.2 29936.7 21188.2 29931.1 21178 29925.9 21167.6 29921 21157 29916.5 21146.3 29912.3 21135.4 29908.6 21124.4 M 30412.3 20887.2 30419.8 20894.6 30427 20902.3 30433.9 20910.3 30440.6 20918.5 30446.9 20926.9 30452.9 20935.6 30458.6 20944.4 30464 20953.5 30469 20962.8 30473.7 20972.2 30478 20981.8 30482 20991.6 30485.6 21001.5 30488.9 21011.5 30491.7 21021.7 30494.2 21031.9 30496.4 21042.3 30498.1 21052.7 30499.5 21063.1 30500.4 21073.6 30501 21084.2 30501.2 21094.7 M 30412.3 20887.3 29908.5 20294.6 30501.2 20294.6" fill="none" stroke-width="203.2"/><path d="M 7580 11390 2580 11390 M 7580 11390 7580 11277.6 M 7580 6390 2580 6390 M 7580 8178.8 7580 9601.2 M 2580 9601.2 2580 8178.8 M 2580 11277.6 2580 11390 M 7580 6513.2 7580 6400.8 M 2576.2 6400.8 2576.2 6513.2 M 3380 8890 3380.5 8931.7 3382 8973.4 3384.6 9015.1 3388.2 9056.6 3392.8 9098.1 3398.4 9139.4 3405 9180.6 3412.7 9221.7 3421.3 9262.5 3430.9 9303.1 3441.6 9343.4 3453.2 9383.5 3465.8 9423.3 3479.4 9462.7 3493.9 9501.8 3509.4 9540.6 3525.8 9578.9 3543.2 9616.8 3561.5 9654.3 3580.7 9691.4 3600.9 9727.9 3621.9 9764 3643.7 9799.5 3666.5 9834.5 3690.1 9868.9 3714.5 9902.7 3739.8 9935.9 3765.9 9968.5 3792.7 10000.4 3820.4 10031.7 3848.8 10062.2 3877.9 10092.1 3907.8 10121.2 3938.3 10149.6 3969.6 10177.3 4001.5 10204.1 4034.1 10230.2 4067.3 10255.5 4101.1 10279.9 4135.5 10303.5 4170.5 10326.3 4206 10348.1 4242.1 10369.1 4278.6 10389.3 4315.7 10408.5 4353.2 10426.8 4391.1 10444.2 4429.4 10460.6 4468.2 10476.1 4507.3 10490.6 4546.7 10504.2 4586.5 10516.8 4626.6 10528.4 4666.9 10539.1 4707.5 10548.7 4748.3 10557.3 4789.4 10565 4830.6 10571.6 4871.9 10577.2 4913.4 10581.8 4954.9 10585.4 4996.6 10588 5038.3 10589.5 5080 10590 5121.7 10589.5 5163.4 10588 5205.1 10585.4 5246.6 10581.8 5288.1 10577.2 5329.4 10571.6 5370.6 10565 5411.7 10557.3 5452.5 10548.7 5493.1 10539.1 5533.4 10528.4 5573.5 10516.8 5613.3 10504.2 5652.7 10490.6 5691.8 10476.1 5730.6 10460.6 5768.9 10444.2 5806.8 10426.8 5844.3 10408.5 5881.4 10389.3 5917.9 10369.1 5954 10348.1 5989.5 10326.3 6024.5 10303.5 6058.9 10279.9 6092.7 10255.5 6125.9 10230.2 6158.5 10204.1 6190.4 10177.3 6221.7 10149.6 6252.2 10121.2 6282.1 10092.1 6311.2 10062.2 6339.6 10031.7 6367.3 10000.4 6394.1 9968.5 6420.2 9935.9 6445.5 9902.7 6469.9 9868.9 6493.5 9834.5 6516.3 9799.5 6538.1 9764 6559.1 9727.9 6579.3 9691.4 6598.5 9654.3 6616.8 9616.8 6634.2 9578.9 6650.6 9540.6 6666.1 9501.8 6680.6 9462.7 6694.2 9423.3 6706.8 9383.5 6718.4 9343.4 6729.1 9303.1 6738.7 9262.5 6747.3 9221.7 6755 9180.6 6761.6 9139.4 6767.2 9098.1 6771.8 9056.6 6775.4 9015.1 6778 8973.4 6779.5 8931.7 6780 8890 6779.5 8848.3 6778 8806.6 6775.4 8764.9 6771.8 8723.4 6767.2 8681.9 6761.6 8640.6 6755 8599.4 6747.3 8558.3 6738.7 8517.5 6729.1 8476.9 6718.4 8436.6 6706.8 8396.5 6694.2 8356.7 6680.6 8317.3 6666.1 8278.2 6650.6 8239.4 6634.2 8201.1 6616.8 8163.2 6598.5 8125.7 6579.3 8088.6 6559.1 8052.1 6538.1 8016 6516.3 7980.5 6493.5 7945.5 6469.9 7911.1 6445.5 7877.3 6420.2 7844.1 6394.1 7811.5 6367.3 7779.6 6339.6 7748.3 6311.2 7717.8 6282.1 7687.9 6252.2 7658.8 6221.7 7630.4 6190.4 7602.7 6158.5 7575.9 6125.9 7549.8 6092.7 7524.5 6058.9 7500.1 6024.5 7476.5 5989.5 7453.7 5954 7431.9 5917.9 7410.9 5881.4 7390.7 5844.3 7371.5 5806.8 7353.2 5768.9 7335.8 5730.6 7319.4 5691.8 7303.9 5652.7 7289.4 5613.3 7275.8 5573.5 7263.2 5533.4 7251.6 5493.1 7240.9 5452.5 7231.3 5411.7 7222.7 5370.6 7215 5329.4 7208.4 5288.1 7202.8 5246.6 7198.2 5205.1 7194.6 5163.4 7192 5121.7 7190.5 5080 7190 5038.3 7190.5 4996.6 7192 4954.9 7194.6 4913.4 7198.2 4871.9 7202.8 4830.6 7208.4 4789.4 7215 4748.3 7222.7 4707.5 7231.3 4666.9 7240.9 4626.6 7251.6 4586.5 7263.2 4546.7 7275.8 4507.3 7289.4 4468.2 7303.9 4429.4 7319.4 4391.1 7335.8 4353.2 7353.2 4315.7 7371.5 4278.6 7390.7 4242.1 7410.9 4206 7431.9 4170.5 7453.7 4135.5 7476.5 4101.1 7500.1 4067.3 7524.5 4034.1 7549.8 4001.5 7575.9 3969.6 7602.7 3938.3 7630.4 3907.8 7658.8 3877.9 7687.9 3848.8 7717.8 3820.4 7748.3 3792.7 7779.6 3765.9 7811.5 3739.8 7844.1 3714.5 7877.3 3690.1 7911.1 3666.5 7945.5 3643.7 7980.5 3621.9 8016 3600.9 8052.1 3580.7 8088.6 3561.5 8125.7 3543.2 8163.2 3525.8 8201.1 3509.4 8239.4 3493.9 8278.2 3479.4 8317.3 3465.8 8356.7 3453.2 8396.5 3441.6 8436.6 3430.9 8476.9 3421.3 8517.5 3412.7 8558.3 3405 8599.4 3398.4 8640.6 3392.8 8681.9 3388.2 8723.4 3384.6 8764.9 3382 8806.6 3380.5 8848.3 3380 8890" fill="none" stroke-width="120"/><use xlink:href="#fnUnKoNw0kRo-Ja6VdlX_pad-15" x="8800.6" y="7240"/><path d="M 4453.1 5703.4 4453.1 4636.6 M 4453.1 5703.4 4749.5 5703.4 4760.1 5703.2 4770.6 5702.6 4781.2 5701.7 4791.7 5700.4 4802.1 5698.7 4812.5 5696.6 4822.8 5694.2 4833 5691.4 4843.1 5688.2 4853 5684.7 4862.9 5680.8 4872.6 5676.6 4882.1 5672.1 4891.5 5667.2 4900.7 5661.9 4909.7 5656.4 4918.5 5650.5 4927.1 5644.3 4935.4 5637.8 4943.5 5631 4951.4 5624 4959 5616.6 4966.4 5609 4973.4 5601.1 4980.2 5593 4986.7 5584.7 4992.9 5576.1 4998.8 5567.3 5004.3 5558.3 5009.6 5549.1 5014.5 5539.7 5019 5530.2 5023.2 5520.5 5027.1 5510.6 5030.6 5500.7 5033.8 5490.6 5036.6 5480.4 5039 5470.1 5041.1 5459.7 5042.8 5449.3 5044.1 5438.8 5045 5428.2 5045.6 5417.7 5045.8 5407.1 5045.8 4932.9 5045.6 4922.3 5045 4911.8 5044.1 4901.2 5042.8 4890.7 5041.1 4880.3 5039 4869.9 5036.6 4859.6 5033.8 4849.4 5030.6 4839.3 5027.1 4829.4 5023.2 4819.5 5019 4809.8 5014.5 4800.3 5009.6 4790.9 5004.3 4781.7 4998.8 4772.7 4992.9 4763.9 4986.7 4755.3 4980.2 4747 4973.4 4738.9 4966.4 4731 4959 4723.4 4951.4 4716 4943.5 4709 4935.4 4702.2 4927.1 4695.7 4918.5 4689.5 4909.7 4683.6 4900.7 4678.1 4891.5 4672.8 4882.1 4667.9 4872.6 4663.4 4862.9 4659.2 4853 4655.3 4843.1 4651.8 4833 4648.6 4822.8 4645.8 4812.5 4643.4 4802.1 4641.3 4791.7 4639.6 4781.2 4638.3 4770.6 4637.4 4760.1 4636.8 4749.5 4636.6 4453.1 4636.6 M 5634.2 5466.3 5930.5 5703.4 5930.5 4636.6 M 5634.2 4636.6 6226.9 4636.6" fill="none" stroke-width="203.2"/><path d="M 12740 11390 17740 11390 17740 11277.6 M 17740 6390 12740 6390 M 17740 8178.8 17740 9601.2 M 12740 9601.2 12740 8178.8 M 12740 11277.6 12740 11390 M 17740 6513.2 17740 6400.8 M 12736.2 6400.8 12736.2 6513.2 M 13540 8890 13540.5 8931.7 13542 8973.4 13544.6 9015.1 13548.2 9056.6 13552.8 9098.1 13558.4 9139.4 13565 9180.6 13572.7 9221.7 13581.3 9262.5 13590.9 9303.1 13601.6 9343.4 13613.2 9383.5 13625.8 9423.3 13639.4 9462.7 13653.9 9501.8 13669.4 9540.6 13685.8 9578.9 13703.2 9616.8 13721.5 9654.3 13740.7 9691.4 13760.9 9727.9 13781.9 9764 13803.7 9799.5 13826.5 9834.5 13850.1 9868.9 13874.5 9902.7 13899.8 9935.9 13925.9 9968.5 13952.7 10000.4 13980.4 10031.7 14008.8 10062.2 14037.9 10092.1 14067.8 10121.2 14098.3 10149.6 14129.6 10177.3 14161.5 10204.1 14194.1 10230.2 14227.3 10255.5 14261.1 10279.9 14295.5 10303.5 14330.5 10326.3 14366 10348.1 14402.1 10369.1 14438.6 10389.3 14475.7 10408.5 14513.2 10426.8 14551.1 10444.2 14589.4 10460.6 14628.2 10476.1 14667.3 10490.6 14706.7 10504.2 14746.5 10516.8 14786.6 10528.4 14826.9 10539.1 14867.5 10548.7 14908.3 10557.3 14949.4 10565 14990.6 10571.6 15031.9 10577.2 15073.4 10581.8 15114.9 10585.4 15156.6 10588 15198.3 10589.5 15240 10590 15281.7 10589.5 15323.4 10588 15365.1 10585.4 15406.6 10581.8 15448.1 10577.2 15489.4 10571.6 15530.6 10565 15571.7 10557.3 15612.5 10548.7 15653.1 10539.1 15693.4 10528.4 15733.5 10516.8 15773.3 10504.2 15812.7 10490.6 15851.8 10476.1 15890.6 10460.6 15928.9 10444.2 15966.8 10426.8 16004.3 10408.5 16041.4 10389.3 16077.9 10369.1 16114 10348.1 16149.5 10326.3 16184.5 10303.5 16218.9 10279.9 16252.7 10255.5 16285.9 10230.2 16318.5 10204.1 16350.4 10177.3 16381.7 10149.6 16412.2 10121.2 16442.1 10092.1 16471.2 10062.2 16499.6 10031.7 16527.3 10000.4 16554.1 9968.5 16580.2 9935.9 16605.5 9902.7 16629.9 9868.9 16653.5 9834.5 16676.3 9799.5 16698.1 9764 16719.1 9727.9 16739.3 9691.4 16758.5 9654.3 16776.8 9616.8 16794.2 9578.9 16810.6 9540.6 16826.1 9501.8 16840.6 9462.7 16854.2 9423.3 16866.8 9383.5 16878.4 9343.4 16889.1 9303.1 16898.7 9262.5 16907.3 9221.7 16915 9180.6 16921.6 9139.4 16927.2 9098.1 16931.8 9056.6 16935.4 9015.1 16938 8973.4 16939.5 8931.7 16940 8890 16939.5 8848.3 16938 8806.6 16935.4 8764.9 16931.8 8723.4 16927.2 8681.9 16921.6 8640.6 16915 8599.4 16907.3 8558.3 16898.7 8517.5 16889.1 8476.9 16878.4 8436.6 16866.8 8396.5 16854.2 8356.7 16840.6 8317.3 16826.1 8278.2 16810.6 8239.4 16794.2 8201.1 16776.8 8163.2 16758.5 8125.7 16739.3 8088.6 16719.1 8052.1 16698.1 8016 16676.3 7980.5 16653.5 7945.5 16629.9 7911.1 16605.5 7877.3 16580.2 7844.1 16554.1 7811.5 16527.3 7779.6 16499.6 7748.3 16471.2 7717.8 16442.1 7687.9 16412.2 7658.8 16381.7 7630.4 16350.4 7602.7 16318.5 7575.9 16285.9 7549.8 16252.7 7524.5 16218.9 7500.1 16184.5 7476.5 16149.5 7453.7 16114 7431.9 16077.9 7410.9 16041.4 7390.7 16004.3 7371.5 15966.8 7353.2 15928.9 7335.8 15890.6 7319.4 15851.8 7303.9 15812.7 7289.4 15773.3 7275.8 15733.5 7263.2 15693.4 7251.6 15653.1 7240.9 15612.5 7231.3 15571.7 7222.7 15530.6 7215 15489.4 7208.4 15448.1 7202.8 15406.6 7198.2 15365.1 7194.6 15323.4 7192 15281.7 7190.5 15240 7190 15198.3 7190.5 15156.6 7192 15114.9 7194.6 15073.4 7198.2 15031.9 7202.8 14990.6 7208.4 14949.4 7215 14908.3 7222.7 14867.5 7231.3 14826.9 7240.9 14786.6 7251.6 14746.5 7263.2 14706.7 7275.8 14667.3 7289.4 14628.2 7303.9 14589.4 7319.4 14551.1 7335.8 14513.2 7353.2 14475.7 7371.5 14438.6 7390.7 14402.1 7410.9 14366 7431.9 14330.5 7453.7 14295.5 7476.5 14261.1 7500.1 14227.3 7524.5 14194.1 7549.8 14161.5 7575.9 14129.6 7602.7 14098.3 7630.4 14067.8 7658.8 14037.9 7687.9 14008.8 7717.8 13980.4 7748.3 13952.7 7779.6 13925.9 7811.5 13899.8 7844.1 13874.5 7877.3 13850.1 7911.1 13826.5 7945.5 13803.7 7980.5 13781.9 8016 13760.9 8052.1 13740.7 8088.6 13721.5 8125.7 13703.2 8163.2 13685.8 8201.1 13669.4 8239.4 13653.9 8278.2 13639.4 8317.3 13625.8 8356.7 13613.2 8396.5 13601.6 8436.6 13590.9 8476.9 13581.3 8517.5 13572.7 8558.3 13565 8599.4 13558.4 8640.6 13552.8 8681.9 13548.2 8723.4 13544.6 8764.9 13542 8806.6 13540.5 8848.3 13540 8890" fill="none" stroke-width="120"/><use xlink:href="#fnUnKoNw0kRo-Ja6VdlX_pad-15" x="18960.6" y="7240"/><path d="M 14613.1 5703.4 14613.1 4636.6 M 14613.1 5703.4 14909.5 5703.4 14920.1 5703.2 14930.6 5702.6 14941.2 5701.7 14951.7 5700.4 14962.1 5698.7 14972.5 5696.6 14982.8 5694.2 14993 5691.4 15003.1 5688.2 15013 5684.7 15022.9 5680.8 15032.6 5676.6 15042.1 5672.1 15051.5 5667.2 15060.7 5661.9 15069.7 5656.4 15078.5 5650.5 15087.1 5644.3 15095.4 5637.8 15103.5 5631 15111.4 5624 15119 5616.6 15126.4 5609 15133.4 5601.1 15140.2 5593 15146.7 5584.7 15152.9 5576.1 15158.8 5567.3 15164.3 5558.3 15169.6 5549.1 15174.5 5539.7 15179 5530.2 15183.2 5520.5 15187.1 5510.6 15190.6 5500.7 15193.8 5490.6 15196.6 5480.4 15199 5470.1 15201.1 5459.7 15202.8 5449.3 15204.1 5438.8 15205 5428.2 15205.6 5417.7 15205.8 5407.1 15205.8 4932.9 15205.6 4922.3 15205 4911.8 15204.1 4901.2 15202.8 4890.7 15201.1 4880.3 15199 4869.9 15196.6 4859.6 15193.8 4849.4 15190.6 4839.3 15187.1 4829.4 15183.2 4819.5 15179 4809.8 15174.5 4800.3 15169.6 4790.9 15164.3 4781.7 15158.8 4772.7 15152.9 4763.9 15146.7 4755.3 15140.2 4747 15133.4 4738.9 15126.4 4731 15119 4723.4 15111.4 4716 15103.5 4709 15095.4 4702.2 15087.1 4695.7 15078.5 4689.5 15069.7 4683.6 15060.7 4678.1 15051.5 4672.8 15042.1 4667.9 15032.6 4663.4 15022.9 4659.2 15013 4655.3 15003.1 4651.8 14993 4648.6 14982.8 4645.8 14972.5 4643.4 14962.1 4641.3 14951.7 4639.6 14941.2 4638.3 14930.6 4637.4 14920.1 4636.8 14909.5 4636.6 14613.1 4636.6 M 16120.2 5703.4 16130.4 5703.2 16140.6 5702.6 16150.8 5701.6 16160.9 5700.3 16171 5698.5 16181 5696.4 16190.9 5693.9 16200.7 5691 16210.3 5687.7 16219.9 5684.1 16229.3 5680.1 16238.5 5675.7 16247.6 5671 16256.5 5665.9 16265.2 5660.6 16273.6 5654.8 16281.9 5648.8 16289.9 5642.5 16297.6 5635.8 16305.1 5628.9 16312.4 5621.6 16319.3 5614.1 16326 5606.4 16332.3 5598.4 16338.3 5590.1 16344.1 5581.7 16349.4 5573 16354.5 5564.1 16359.2 5555 16363.6 5545.8 16367.6 5536.4 16371.2 5526.8 16374.5 5517.2 16377.4 5507.4 16379.9 5497.5 16382 5487.5 16383.8 5477.4 16385.1 5467.3 16386.1 5457.1 16386.7 5446.9 16386.9 5436.7 M 16120.2 5703.4 16108.6 5703.2 16096.9 5702.6 16085.3 5701.6 16073.8 5700.2 16062.3 5698.5 16050.8 5696.3 16039.5 5693.7 16028.2 5690.8 16017 5687.5 16006 5683.8 15995.1 5679.7 15984.3 5675.3 15973.7 5670.5 15963.3 5665.3 15953 5659.8 15942.9 5654 15933.1 5647.8 15923.4 5641.3 15914 5634.4 15904.8 5627.2 15895.9 5619.8 15887.2 5612 15878.8 5603.9 15870.7 5595.6 15862.9 5587 15855.3 5578.1 15848.1 5569 15841.2 5559.6 15834.6 5550 15828.3 5540.2 15822.4 5530.2 15816.8 5520 15811.6 5509.6 15806.7 5499 15802.2 5488.3 15798 5477.4 15794.3 5466.4 M 16298 5229.2 16305.5 5236.6 16312.7 5244.3 16319.6 5252.3 16326.3 5260.5 16332.6 5268.9 16338.6 5277.6 16344.3 5286.4 16349.7 5295.5 16354.7 5304.8 16359.4 5314.2 16363.7 5323.8 16367.7 5333.6 16371.3 5343.5 16374.6 5353.5 16377.4 5363.7 16379.9 5373.9 16382.1 5384.3 16383.8 5394.7 16385.2 5405.1 16386.1 5415.6 16386.7 5426.2 16386.9 5436.7 M 16298 5229.3 15794.2 4636.6 16386.9 4636.6" fill="none" stroke-width="203.2"/><path d="M 26710 11390 31710 11390 31710 11277.6 M 31710 6390 26710 6390 M 31710 8178.8 31710 9601.2 M 26710 9601.2 26710 8178.8 M 26710 11277.6 26710 11390 M 31710 6513.2 31710 6400.8 M 26706.2 6400.8 26706.2 6513.2 M 27510 8890 27510.5 8931.7 27512 8973.4 27514.6 9015.1 27518.2 9056.6 27522.8 9098.1 27528.4 9139.4 27535 9180.6 27542.7 9221.7 27551.3 9262.5 27560.9 9303.1 27571.6 9343.4 27583.2 9383.5 27595.8 9423.3 27609.4 9462.7 27623.9 9501.8 27639.4 9540.6 27655.8 9578.9 27673.2 9616.8 27691.5 9654.3 27710.7 9691.4 27730.9 9727.9 27751.9 9764 27773.7 9799.5 27796.5 9834.5 27820.1 9868.9 27844.5 9902.7 27869.8 9935.9 27895.9 9968.5 27922.7 10000.4 27950.4 10031.7 27978.8 10062.2 28007.9 10092.1 28037.8 10121.2 28068.3 10149.6 28099.6 10177.3 28131.5 10204.1 28164.1 10230.2 28197.3 10255.5 28231.1 10279.9 28265.5 10303.5 28300.5 10326.3 28336 10348.1 28372.1 10369.1 28408.6 10389.3 28445.7 10408.5 28483.2 10426.8 28521.1 10444.2 28559.4 10460.6 28598.2 10476.1 28637.3 10490.6 28676.7 10504.2 28716.5 10516.8 28756.6 10528.4 28796.9 10539.1 28837.5 10548.7 28878.3 10557.3 28919.4 10565 28960.6 10571.6 29001.9 10577.2 29043.4 10581.8 29084.9 10585.4 29126.6 10588 29168.3 10589.5 29210 10590 29251.7 10589.5 29293.4 10588 29335.1 10585.4 29376.6 10581.8 29418.1 10577.2 29459.4 10571.6 29500.6 10565 29541.7 10557.3 29582.5 10548.7 29623.1 10539.1 29663.4 10528.4 29703.5 10516.8 29743.3 10504.2 29782.7 10490.6 29821.8 10476.1 29860.6 10460.6 29898.9 10444.2 29936.8 10426.8 29974.3 10408.5 30011.4 10389.3 30047.9 10369.1 30084 10348.1 30119.5 10326.3 30154.5 10303.5 30188.9 10279.9 30222.7 10255.5 30255.9 10230.2 30288.5 10204.1 30320.4 10177.3 30351.7 10149.6 30382.2 10121.2 30412.1 10092.1 30441.2 10062.2 30469.6 10031.7 30497.3 10000.4 30524.1 9968.5 30550.2 9935.9 30575.5 9902.7 30599.9 9868.9 30623.5 9834.5 30646.3 9799.5 30668.1 9764 30689.1 9727.9 30709.3 9691.4 30728.5 9654.3 30746.8 9616.8 30764.2 9578.9 30780.6 9540.6 30796.1 9501.8 30810.6 9462.7 30824.2 9423.3 30836.8 9383.5 30848.4 9343.4 30859.1 9303.1 30868.7 9262.5 30877.3 9221.7 30885 9180.6 30891.6 9139.4 30897.2 9098.1 30901.8 9056.6 30905.4 9015.1 30908 8973.4 30909.5 8931.7 30910 8890 30909.5 8848.3 30908 8806.6 30905.4 8764.9 30901.8 8723.4 30897.2 8681.9 30891.6 8640.6 30885 8599.4 30877.3 8558.3 30868.7 8517.5 30859.1 8476.9 30848.4 8436.6 30836.8 8396.5 30824.2 8356.7 30810.6 8317.3 30796.1 8278.2 30780.6 8239.4 30764.2 8201.1 30746.8 8163.2 30728.5 8125.7 30709.3 8088.6 30689.1 8052.1 30668.1 8016 30646.3 7980.5 30623.5 7945.5 30599.9 7911.1 30575.5 7877.3 30550.2 7844.1 30524.1 7811.5 30497.3 7779.6 30469.6 7748.3 30441.2 7717.8 30412.1 7687.9 30382.2 7658.8 30351.7 7630.4 30320.4 7602.7 30288.5 7575.9 30255.9 7549.8 30222.7 7524.5 30188.9 7500.1 30154.5 7476.5 30119.5 7453.7 30084 7431.9 30047.9 7410.9 30011.4 7390.7 29974.3 7371.5 29936.8 7353.2 29898.9 7335.8 29860.6 7319.4 29821.8 7303.9 29782.7 7289.4 29743.3 7275.8 29703.5 7263.2 29663.4 7251.6 29623.1 7240.9 29582.5 7231.3 29541.7 7222.7 29500.6 7215 29459.4 7208.4 29418.1 7202.8 29376.6 7198.2 29335.1 7194.6 29293.4 7192 29251.7 7190.5 29210 7190 29168.3 7190.5 29126.6 7192 29084.9 7194.6 29043.4 7198.2 29001.9 7202.8 28960.6 7208.4 28919.4 7215 28878.3 7222.7 28837.5 7231.3 28796.9 7240.9 28756.6 7251.6 28716.5 7263.2 28676.7 7275.8 28637.3 7289.4 28598.2 7303.9 28559.4 7319.4 28521.1 7335.8 28483.2 7353.2 28445.7 7371.5 28408.6 7390.7 28372.1 7410.9 28336 7431.9 28300.5 7453.7 28265.5 7476.5 28231.1 7500.1 28197.3 7524.5 28164.1 7549.8 28131.5 7575.9 28099.6 7602.7 28068.3 7630.4 28037.8 7658.8 28007.9 7687.9 27978.8 7717.8 27950.4 7748.3 27922.7 7779.6 27895.9 7811.5 27869.8 7844.1 27844.5 7877.3 27820.1 7911.1 27796.5 7945.5 27773.7 7980.5 27751.9 8016 27730.9 8052.1 27710.7 8088.6 27691.5 8125.7 27673.2 8163.2 27655.8 8201.1 27639.4 8239.4 27623.9 8278.2 27609.4 8317.3 27595.8 8356.7 27583.2 8396.5 27571.6 8436.6 27560.9 8476.9 27551.3 8517.5 27542.7 8558.3 27535 8599.4 27528.4 8640.6 27522.8 8681.9 27518.2 8723.4 27514.6 8764.9 27512 8806.6 27510.5 8848.3 27510 8890" fill="none" stroke-width="120"/><use xlink:href="#fnUnKoNw0kRo-Ja6VdlX_pad-15" x="32930.6" y="7240"/><path d="M 28583.1 5703.4 28583.1 4636.6 M 28583.1 5703.4 28879.5 5703.4 28890.1 5703.2 28900.6 5702.6 28911.2 5701.7 28921.7 5700.4 28932.1 5698.7 28942.5 5696.6 28952.8 5694.2 28963 5691.4 28973.1 5688.2 28983 5684.7 28992.9 5680.8 29002.6 5676.6 29012.1 5672.1 29021.5 5667.2 29030.7 5661.9 29039.7 5656.4 29048.5 5650.5 29057.1 5644.3 29065.4 5637.8 29073.5 5631 29081.4 5624 29089 5616.6 29096.4 5609 29103.4 5601.1 29110.2 5593 29116.7 5584.7 29122.9 5576.1 29128.8 5567.3 29134.3 5558.3 29139.6 5549.1 29144.5 5539.7 29149 5530.2 29153.2 5520.5 29157.1 5510.6 29160.6 5500.7 29163.8 5490.6 29166.6 5480.4 29169 5470.1 29171.1 5459.7 29172.8 5449.3 29174.1 5438.8 29175 5428.2 29175.6 5417.7 29175.8 5407.1 29175.8 4932.9 29175.6 4922.3 29175 4911.8 29174.1 4901.2 29172.8 4890.7 29171.1 4880.3 29169 4869.9 29166.6 4859.6 29163.8 4849.4 29160.6 4839.3 29157.1 4829.4 29153.2 4819.5 29149 4809.8 29144.5 4800.3 29139.6 4790.9 29134.3 4781.7 29128.8 4772.7 29122.9 4763.9 29116.7 4755.3 29110.2 4747 29103.4 4738.9 29096.4 4731 29089 4723.4 29081.4 4716 29073.5 4709 29065.4 4702.2 29057.1 4695.7 29048.5 4689.5 29039.7 4683.6 29030.7 4678.1 29021.5 4672.8 29012.1 4667.9 29002.6 4663.4 28992.9 4659.2 28983 4655.3 28973.1 4651.8 28963 4648.6 28952.8 4645.8 28942.5 4643.4 28932.1 4641.3 28921.7 4639.6 28911.2 4638.3 28900.6 4637.4 28890.1 4636.8 28879.5 4636.6 28583.1 4636.6 M 29764.2 4636.6 30060.5 4636.6 30071.2 4636.8 30081.9 4637.4 30092.5 4638.3 30103.1 4639.7 30113.7 4641.4 30124.2 4643.5 30134.6 4646 30144.9 4648.9 30155.1 4652.1 30165.2 4655.7 30175.1 4659.7 30184.9 4664 30194.5 4668.7 30204 4673.7 30213.3 4679 30222.3 4684.7 30231.2 4690.7 30239.8 4697 30248.2 4703.6 30256.4 4710.6 30264.3 4717.8 30271.9 4725.3 30279.3 4733.1 30286.3 4741.1 30293.1 4749.4 30299.6 4757.9 30305.7 4766.6 30311.6 4775.6 30317.1 4784.7 30322.3 4794.1 30327.1 4803.7 30331.6 4813.4 30335.8 4823.2 30339.5 4833.2 30343 4843.4 30346 4853.6 30348.7 4864 30351 4874.4 30352.9 4885 30354.4 4895.6 30355.6 4906.2 30356.4 4916.9 30356.8 4927.6 30356.8 4938.2 30356.4 4948.9 30355.6 4959.6 30354.4 4970.2 30352.9 4980.8 30351 4991.4 30348.7 5001.8 30346 5012.2 30343 5022.4 30339.5 5032.6 30335.8 5042.6 30331.6 5052.4 30327.1 5062.1 30322.3 5071.7 30317.1 5081 30311.6 5090.2 30305.7 5099.2 30299.6 5107.9 30293.1 5116.4 30286.3 5124.7 30279.3 5132.7 30271.9 5140.5 30264.3 5148 30256.4 5155.2 30248.2 5162.2 30239.8 5168.8 30231.2 5175.1 30222.3 5181.1 30213.3 5186.8 30204 5192.1 30194.5 5197.1 30184.9 5201.8 30175.1 5206.1 30165.2 5210.1 30155.1 5213.7 30144.9 5216.9 30134.6 5219.8 30124.2 5222.3 30113.7 5224.4 30103.1 5226.1 30092.5 5227.5 30081.9 5228.4 30071.2 5229 30060.5 5229.2 M 30119.8 5703.4 29764.2 5703.4 M 30119.8 5703.4 30129.5 5703.2 30139.1 5702.6 30148.7 5701.6 30158.3 5700.2 30167.8 5698.5 30177.3 5696.3 30186.6 5693.8 30195.8 5690.9 30204.9 5687.6 30213.9 5683.9 30222.7 5679.9 30231.3 5675.5 30239.7 5670.8 30248 5665.8 30256 5660.4 30263.8 5654.6 30271.4 5648.6 30278.7 5642.3 30285.7 5635.7 30292.5 5628.7 30299 5621.6 30305.2 5614.1 30311 5606.4 30316.6 5598.5 30321.8 5590.4 30326.7 5582 30331.3 5573.5 30335.5 5564.8 30339.3 5555.9 30342.8 5546.9 30345.9 5537.7 30348.6 5528.4 30351 5519.1 30352.9 5509.6 30354.5 5500 30355.7 5490.4 30356.5 5480.8 30356.9 5471.1 30356.9 5461.5 30356.5 5451.8 30355.7 5442.2 30354.5 5432.6 30352.9 5423 30351 5413.5 30348.6 5404.2 30345.9 5394.9 30342.8 5385.7 30339.3 5376.7 30335.5 5367.8 30331.3 5359.1 30326.7 5350.6 30321.8 5342.2 30316.6 5334.1 30311 5326.2 30305.2 5318.5 30299 5311 30292.5 5303.9 30285.7 5296.9 30278.7 5290.3 30271.4 5284 30263.8 5278 30256 5272.2 30248 5266.8 30239.7 5261.8 30231.3 5257.1 30222.7 5252.7 30213.9 5248.7 30204.9 5245 30195.8 5241.7 30186.6 5238.8 30177.3 5236.3 30167.8 5234.1 30158.3 5232.4 30148.7 5231 30139.1 5230 30129.5 5229.4 30119.8 5229.2 M 30119.8 5229.3 29882.7 5229.3" fill="none" stroke-width="203.2"/><path d="M 65000 6500 65000 13900 72000 13900 M 72000 6500 65000 6500 M 72000 12200 72000 13900 M 72000 12200 72000 8200 72000 6500 M 72000 12200 68000 12200 68000 8200 72000 8200" fill="none" stroke-width="152.4"/><path d="M 63124.7 7573.4 62413.5 6506.6 M 63124.7 6506.6 62413.5 7573.4 M 63615.7 7336.3 63912.1 7573.4 63912.1 6506.6 M 64208.4 6506.6 63615.7 6506.6 M 27656.6 28835.6 27656.6 29902.4 27952.9 29902.4 27963.6 29902.2 27974.3 29901.6 27984.9 29900.7 27995.5 29899.3 28006.1 29897.6 28016.6 29895.5 28027 29893 28037.3 29890.1 28047.5 29886.9 28057.6 29883.3 28067.5 29879.3 28077.3 29875 28086.9 29870.3 28096.4 29865.3 28105.7 29860 28114.7 29854.3 28123.6 29848.3 28132.2 29842 28140.6 29835.4 28148.8 29828.4 28156.7 29821.2 28164.3 29813.7 28171.7 29805.9 28178.7 29797.9 28185.5 29789.6 28192 29781.1 28198.1 29772.4 28204 29763.4 28209.5 29754.3 28214.7 29744.9 28219.5 29735.3 28224 29725.6 28228.2 29715.8 28231.9 29705.8 28235.4 29695.6 28238.4 29685.4 28241.1 29675 28243.4 29664.6 28245.3 29654 28246.8 29643.4 28248 29632.8 28248.8 29622.1 28249.2 29611.4 28249.2 29600.8 28248.8 29590.1 28248 29579.4 28246.8 29568.8 28245.3 29558.2 28243.4 29547.6 28241.1 29537.2 28238.4 29526.8 28235.4 29516.6 28231.9 29506.4 28228.2 29496.4 28224 29486.6 28219.5 29476.9 28214.7 29467.3 28209.5 29458 28204 29448.8 28198.1 29439.8 28192 29431.1 28185.5 29422.6 28178.7 29414.3 28171.7 29406.3 28164.3 29398.5 28156.7 29391 28148.8 29383.8 28140.6 29376.8 28132.2 29370.2 28123.6 29363.9 28114.7 29357.9 28105.7 29352.2 28096.4 29346.9 28086.9 29341.9 28077.3 29337.2 28067.5 29332.9 28057.6 29328.9 28047.5 29325.3 28037.3 29322.1 28027 29319.2 28016.6 29316.7 28006.1 29314.6 27995.5 29312.9 27984.9 29311.5 27974.3 29310.6 27963.6 29310 27952.9 29309.8 M 27952.9 29309.7 27656.6 29309.7 M 28012.2 29309.7 28249.3 28835.6 M 28788.6 29665.3 29084.9 29902.4 29084.9 28835.6 M 28788.6 28835.6 29381.2 28835.6" fill="none" stroke-width="203.2"/><path d="M 37220 11100 54220 11100 54220 100 37220 100 37220 11100" fill="none" stroke-width="152.4"/><path d="M 33121.6 2958.4 33121.6 2187.9 33121.8 2177.2 33122.4 2166.5 33123.3 2155.9 33124.7 2145.3 33126.4 2134.7 33128.5 2124.2 33131 2113.8 33133.9 2103.5 33137.1 2093.3 33140.7 2083.2 33144.7 2073.3 33149 2063.5 33153.7 2053.9 33158.7 2044.4 33164 2035.1 33169.7 2026.1 33175.7 2017.2 33182 2008.6 33188.6 2000.2 33195.6 1992 33202.8 1984.1 33210.3 1976.5 33218.1 1969.1 33226.1 1962.1 33234.4 1955.3 33242.9 1948.8 33251.6 1942.7 33260.6 1936.8 33269.8 1931.3 33279.1 1926.1 33288.7 1921.3 33298.4 1916.8 33308.2 1912.6 33318.2 1908.9 33328.4 1905.4 33338.6 1902.4 33349 1899.7 33359.4 1897.4 33370 1895.5 33380.6 1894 33391.2 1892.8 33401.9 1892 33412.6 1891.6 33423.2 1891.6 33433.9 1892 33444.6 1892.8 33455.2 1894 33465.8 1895.5 33476.4 1897.4 33486.8 1899.7 33497.2 1902.4 33507.4 1905.4 33517.6 1908.9 33527.6 1912.6 33537.4 1916.8 33547.1 1921.3 33556.7 1926.1 33566.1 1931.3 33575.2 1936.8 33584.2 1942.7 33592.9 1948.8 33601.4 1955.3 33609.7 1962.1 33617.7 1969.1 33625.5 1976.5 33633 1984.1 33640.2 1992 33647.2 2000.2 33653.8 2008.6 33660.1 2017.2 33666.1 2026.1 33671.8 2035.1 33677.1 2044.4 33682.1 2053.9 33686.8 2063.5 33691.1 2073.3 33695.1 2083.2 33698.7 2093.3 33701.9 2103.5 33704.8 2113.8 33707.3 2124.2 33709.4 2134.7 33711.1 2145.3 33712.5 2155.9 33713.4 2166.5 33714 2177.2 33714.2 2187.9 M 33714.3 2187.9 33714.3 2958.4 M 34522.8 2958.4 34522.8 1891.6 M 34522.8 2425 34374.7 2513.9 34367.8 2518.3 34361 2523 34354.5 2528.1 34348.2 2533.4 34342.2 2539 34336.4 2544.9 34330.9 2551.1 34325.8 2557.5 34320.9 2564.1 34316.3 2570.9 34312.1 2578 34308.1 2585.3 34304.6 2592.7 34301.3 2600.3 34298.5 2608 34296 2615.8 34293.8 2623.8 34292.1 2631.8 34290.7 2640 34289.7 2648.1 34289 2656.3 34288.8 2664.6 34288.9 2672.8 34289.5 2681 34290.4 2689.2 34291.7 2697.4 34293.3 2705.4 34295.4 2713.4 34297.8 2721.3 34300.5 2729.1 34303.7 2736.7 34307.1 2744.1 34311 2751.4 34315.1 2758.6 34319.6 2765.5 34324.4 2772.2 34329.5 2778.6 34334.9 2784.8 34340.6 2790.8 34346.5 2796.5 34352.8 2801.9 34359.2 2807 34365.9 2811.8 34372.8 2816.3 34379.9 2820.5 34387.2 2824.3 34394.7 2827.8 34402.3 2830.9 34410.1 2833.7 34417.9 2836.1 34425.9 2838.1 34434 2839.8 M 34433.9 2839.9 34447.3 2842.1 34460.7 2844 34474.1 2845.4 34487.6 2846.5 34501.2 2847.2 34514.7 2847.5 34528.3 2847.4 34541.8 2846.9 34555.3 2846 34568.8 2844.8 34582.2 2843.1 34595.6 2841.1 34608.9 2838.7 34622.2 2835.9 34635.3 2832.7 34648.4 2829.1 34661.4 2825.2 34674.2 2820.9 34686.9 2816.2 34699.5 2811.1 34711.9 2805.7 34724.2 2800 34736.2 2793.9 34748.1 2787.4 34759.9 2780.6 M 34522.8 2425 34671 2336.1 34677.9 2331.7 34684.7 2327 34691.2 2321.9 34697.5 2316.6 34703.5 2311 34709.3 2305.1 34714.8 2298.9 34719.9 2292.5 34724.8 2285.9 34729.4 2279.1 34733.6 2272 34737.6 2264.7 34741.1 2257.3 34744.4 2249.7 34747.2 2242 34749.7 2234.2 34751.9 2226.2 34753.6 2218.2 34755 2210 34756 2201.9 34756.7 2193.7 34756.9 2185.4 34756.8 2177.2 34756.2 2169 34755.3 2160.8 34754 2152.6 34752.4 2144.6 34750.3 2136.6 34747.9 2128.7 34745.2 2120.9 34742 2113.3 34738.6 2105.9 34734.7 2098.6 34730.6 2091.4 34726.1 2084.5 34721.3 2077.8 34716.2 2071.4 34710.8 2065.2 34705.1 2059.2 34699.2 2053.5 34692.9 2048.1 34686.5 2043 34679.8 2038.2 34672.9 2033.7 34665.8 2029.5 34658.5 2025.7 34651 2022.2 34643.4 2019.1 34635.6 2016.3 34627.8 2013.9 34619.8 2011.9 34611.7 2010.2 M 34611.7 2010.1 34598.3 2007.9 34584.9 2006 34571.5 2004.6 34558 2003.5 34544.4 2002.8 34530.9 2002.5 34517.3 2002.6 34503.8 2003.1 34490.3 2004 34476.8 2005.2 34463.4 2006.9 34450 2008.9 34436.7 2011.3 34423.4 2014.1 34410.2 2017.3 34397.2 2020.9 34384.2 2024.8 34371.4 2029.1 34358.7 2033.8 34346.1 2038.9 34333.7 2044.3 34321.4 2050 34309.4 2056.2 34297.4 2062.6 34285.7 2069.4 M 35293.3 2721.3 35589.6 2958.4 35589.6 1891.6 M 35293.3 1891.6 35886 1891.6" fill="none" stroke-width="203.2"/><path d="M 0 0 65000 0 65000 32000 0 32000 0 0" fill="none" stroke-width="254"/></g></svg>