G04 EAGLE Gerber RS-274X export*
G75*
%MOMM*%
%FSLAX34Y34*%
%LPD*%
%INTop Copper*%
%IPPOS*%
%AMOC8*
5,1,8,0,0,1.08239X$1,22.5*%
G01*
G04 Define Apertures*
%ADD10P,2.1821X8X112.5*%
%ADD11R,2.000000X1.200000*%
%ADD12R,1.200000X2.000000*%
%ADD13C,2.016000*%
%ADD14R,1.500000X0.900000*%
%ADD15C,1.600000*%
%ADD16R,4.000000X1.270000*%
%ADD17R,1.300000X1.500000*%
%ADD18R,2.000000X2.000000*%
%ADD19C,0.812800*%
%ADD20C,0.400000*%
%ADD21C,0.406400*%
%ADD22C,3.500000*%
%ADD23C,0.254000*%
G36*
X488666Y109224D02*
X488368Y109164D01*
X395462Y109164D01*
X395187Y109215D01*
X394932Y109379D01*
X394760Y109629D01*
X394700Y109926D01*
X394700Y112036D01*
X393236Y113500D01*
X372826Y113500D01*
X372551Y113551D01*
X372296Y113715D01*
X372124Y113965D01*
X372064Y114262D01*
X372064Y139278D01*
X372115Y139553D01*
X372279Y139808D01*
X372529Y139980D01*
X372826Y140040D01*
X375536Y140040D01*
X375658Y140163D01*
X375900Y140326D01*
X376197Y140386D01*
X381105Y140386D01*
X383885Y141538D01*
X384699Y142352D01*
X384919Y142505D01*
X385214Y142575D01*
X385513Y142524D01*
X385768Y142361D01*
X385940Y142110D01*
X386000Y141813D01*
X386000Y122704D01*
X387464Y121240D01*
X401536Y121240D01*
X403000Y122704D01*
X403000Y144776D01*
X401536Y146240D01*
X390427Y146240D01*
X390163Y146287D01*
X389905Y146446D01*
X389730Y146694D01*
X389665Y146990D01*
X389720Y147288D01*
X389888Y147541D01*
X402462Y160115D01*
X403614Y162895D01*
X403614Y246955D01*
X402462Y249735D01*
X396585Y255612D01*
X393805Y256764D01*
X376127Y256764D01*
X375841Y256820D01*
X375588Y256987D01*
X375536Y257040D01*
X353464Y257040D01*
X352000Y255576D01*
X352000Y255494D01*
X351949Y255219D01*
X351785Y254964D01*
X351535Y254792D01*
X351238Y254732D01*
X350307Y254732D01*
X350021Y254788D01*
X349768Y254955D01*
X348655Y256068D01*
X348492Y256310D01*
X348432Y256607D01*
X348432Y267800D01*
X347957Y268946D01*
X347900Y269214D01*
X347951Y269513D01*
X348114Y269768D01*
X348364Y269940D01*
X348661Y270000D01*
X351238Y270000D01*
X351513Y269949D01*
X351768Y269785D01*
X351940Y269535D01*
X352000Y269238D01*
X352000Y261504D01*
X353464Y260040D01*
X375536Y260040D01*
X377000Y261504D01*
X377000Y269238D01*
X377051Y269513D01*
X377215Y269768D01*
X377465Y269940D01*
X377762Y270000D01*
X511238Y270000D01*
X511513Y269949D01*
X511768Y269785D01*
X511940Y269535D01*
X512000Y269238D01*
X512000Y261504D01*
X513464Y260040D01*
X535536Y260040D01*
X536248Y260753D01*
X536490Y260916D01*
X536787Y260976D01*
X549511Y260976D01*
X549797Y260920D01*
X550050Y260753D01*
X563713Y247090D01*
X563876Y246848D01*
X563936Y246551D01*
X563936Y239142D01*
X563880Y238856D01*
X563713Y238604D01*
X558920Y233811D01*
X558920Y223389D01*
X565870Y216439D01*
X566028Y216208D01*
X566094Y215912D01*
X566038Y215614D01*
X565870Y215361D01*
X561496Y210987D01*
X561255Y210824D01*
X560958Y210764D01*
X549549Y210764D01*
X549263Y210820D01*
X549010Y210987D01*
X545045Y214952D01*
X542265Y216104D01*
X536787Y216104D01*
X536501Y216160D01*
X536248Y216327D01*
X535536Y217040D01*
X513464Y217040D01*
X512000Y215576D01*
X512000Y201504D01*
X513464Y200040D01*
X535536Y200040D01*
X536248Y200753D01*
X536490Y200916D01*
X536787Y200976D01*
X537311Y200976D01*
X537597Y200920D01*
X537850Y200753D01*
X541815Y196788D01*
X544595Y195636D01*
X560958Y195636D01*
X561244Y195580D01*
X561496Y195413D01*
X565842Y191067D01*
X566000Y190837D01*
X566065Y190540D01*
X566010Y190242D01*
X565842Y189990D01*
X558880Y183027D01*
X558880Y178562D01*
X572262Y178562D01*
X572262Y165180D01*
X576727Y165180D01*
X583690Y172142D01*
X583920Y172300D01*
X584216Y172365D01*
X584514Y172310D01*
X584767Y172142D01*
X588467Y168442D01*
X588625Y168212D01*
X588690Y167915D01*
X588635Y167617D01*
X588467Y167364D01*
X581290Y160187D01*
X581048Y160024D01*
X580751Y159964D01*
X552813Y159964D01*
X550032Y158812D01*
X538341Y147121D01*
X538121Y146968D01*
X537826Y146898D01*
X537527Y146949D01*
X537272Y147112D01*
X537100Y147362D01*
X537040Y147660D01*
X537040Y147778D01*
X525262Y147778D01*
X525262Y140000D01*
X529380Y140000D01*
X529644Y139953D01*
X529902Y139794D01*
X530077Y139546D01*
X530142Y139250D01*
X530087Y138952D01*
X529919Y138699D01*
X529271Y138051D01*
X529030Y137888D01*
X528732Y137828D01*
X518977Y137828D01*
X516196Y136676D01*
X504301Y124781D01*
X504081Y124628D01*
X503786Y124558D01*
X503487Y124609D01*
X503232Y124772D01*
X503060Y125022D01*
X503000Y125320D01*
X503000Y144776D01*
X501536Y146240D01*
X487464Y146240D01*
X486000Y144776D01*
X486000Y122704D01*
X487464Y121240D01*
X498920Y121240D01*
X499184Y121193D01*
X499442Y121034D01*
X499617Y120786D01*
X499682Y120490D01*
X499627Y120192D01*
X499459Y119939D01*
X488907Y109387D01*
X488666Y109224D01*
G37*
%LPC*%
G36*
X513464Y240040D02*
X535536Y240040D01*
X537000Y241504D01*
X537000Y255576D01*
X535536Y257040D01*
X513464Y257040D01*
X512000Y255576D01*
X512000Y241504D01*
X513464Y240040D01*
G37*
G36*
X513464Y220040D02*
X535536Y220040D01*
X537000Y221504D01*
X537000Y235576D01*
X535536Y237040D01*
X513464Y237040D01*
X512000Y235576D01*
X512000Y221504D01*
X513464Y220040D01*
G37*
G36*
X513464Y180040D02*
X535536Y180040D01*
X537000Y181504D01*
X537000Y195576D01*
X535536Y197040D01*
X513464Y197040D01*
X512000Y195576D01*
X512000Y181504D01*
X513464Y180040D01*
G37*
G36*
X511960Y169302D02*
X523738Y169302D01*
X523738Y177080D01*
X513448Y177080D01*
X511960Y175592D01*
X511960Y169302D01*
G37*
G36*
X525262Y169302D02*
X537040Y169302D01*
X537040Y175592D01*
X535552Y177080D01*
X525262Y177080D01*
X525262Y169302D01*
G37*
G36*
X566273Y165180D02*
X570738Y165180D01*
X570738Y177038D01*
X558880Y177038D01*
X558880Y172573D01*
X566273Y165180D01*
G37*
G36*
X525262Y160000D02*
X535552Y160000D01*
X537040Y161488D01*
X537040Y167778D01*
X525262Y167778D01*
X525262Y160000D01*
G37*
G36*
X513448Y160000D02*
X523738Y160000D01*
X523738Y167778D01*
X511960Y167778D01*
X511960Y161488D01*
X513448Y160000D01*
G37*
G36*
X511960Y149302D02*
X523738Y149302D01*
X523738Y157080D01*
X513448Y157080D01*
X511960Y155592D01*
X511960Y149302D01*
G37*
G36*
X525262Y149302D02*
X537040Y149302D01*
X537040Y155592D01*
X535552Y157080D01*
X525262Y157080D01*
X525262Y149302D01*
G37*
G36*
X513448Y140000D02*
X523738Y140000D01*
X523738Y147778D01*
X511960Y147778D01*
X511960Y141488D01*
X513448Y140000D01*
G37*
G36*
X467464Y121240D02*
X481536Y121240D01*
X483000Y122704D01*
X483000Y144776D01*
X481536Y146240D01*
X467464Y146240D01*
X466000Y144776D01*
X466000Y122704D01*
X467464Y121240D01*
G37*
G36*
X447464Y121240D02*
X461536Y121240D01*
X463000Y122704D01*
X463000Y144776D01*
X461536Y146240D01*
X447464Y146240D01*
X446000Y144776D01*
X446000Y122704D01*
X447464Y121240D01*
G37*
G36*
X427464Y121240D02*
X441536Y121240D01*
X443000Y122704D01*
X443000Y144776D01*
X441536Y146240D01*
X427464Y146240D01*
X426000Y144776D01*
X426000Y122704D01*
X427464Y121240D01*
G37*
G36*
X407464Y121240D02*
X421536Y121240D01*
X423000Y122704D01*
X423000Y144776D01*
X421536Y146240D01*
X407464Y146240D01*
X406000Y144776D01*
X406000Y122704D01*
X407464Y121240D01*
G37*
%LPD*%
G36*
X369195Y60D02*
X368898Y0D01*
X762Y0D01*
X487Y51D01*
X232Y215D01*
X60Y465D01*
X0Y762D01*
X0Y269238D01*
X51Y269513D01*
X215Y269768D01*
X465Y269940D01*
X762Y270000D01*
X46045Y270000D01*
X46308Y269953D01*
X46566Y269794D01*
X46742Y269546D01*
X46807Y269250D01*
X46751Y268952D01*
X46584Y268699D01*
X30364Y252479D01*
X29212Y249699D01*
X29212Y144001D01*
X30364Y141221D01*
X43213Y128372D01*
X43376Y128130D01*
X43436Y127833D01*
X43436Y87849D01*
X43380Y87563D01*
X43213Y87310D01*
X36090Y80187D01*
X35848Y80024D01*
X35551Y79964D01*
X24795Y79964D01*
X23574Y79458D01*
X23282Y79400D01*
X17764Y79400D01*
X16300Y77936D01*
X16300Y66864D01*
X17764Y65400D01*
X23282Y65400D01*
X23574Y65342D01*
X24795Y64836D01*
X40505Y64836D01*
X43285Y65988D01*
X57412Y80115D01*
X58564Y82895D01*
X58564Y132786D01*
X57412Y135567D01*
X44563Y148416D01*
X44400Y148657D01*
X44340Y148955D01*
X44340Y244745D01*
X44396Y245031D01*
X44563Y245284D01*
X69056Y269777D01*
X69297Y269940D01*
X69595Y270000D01*
X136837Y270000D01*
X137123Y269944D01*
X137376Y269777D01*
X205025Y202128D01*
X207805Y200976D01*
X352213Y200976D01*
X352499Y200920D01*
X352752Y200753D01*
X353464Y200040D01*
X375536Y200040D01*
X377000Y201504D01*
X377000Y215576D01*
X375536Y217040D01*
X353464Y217040D01*
X352752Y216327D01*
X352510Y216164D01*
X352213Y216104D01*
X212759Y216104D01*
X212473Y216160D01*
X212220Y216327D01*
X159848Y268699D01*
X159695Y268919D01*
X159625Y269214D01*
X159676Y269513D01*
X159839Y269768D01*
X160090Y269940D01*
X160387Y270000D01*
X302174Y270000D01*
X302449Y269949D01*
X302704Y269785D01*
X302876Y269535D01*
X302936Y269238D01*
X302936Y268853D01*
X303738Y266916D01*
X303796Y266643D01*
X303743Y266344D01*
X303577Y266090D01*
X303326Y265921D01*
X300294Y264665D01*
X296755Y261126D01*
X294840Y256502D01*
X294840Y251498D01*
X296755Y246874D01*
X300294Y243335D01*
X304918Y241420D01*
X309174Y241420D01*
X309449Y241369D01*
X309704Y241205D01*
X309876Y240955D01*
X309936Y240658D01*
X309936Y239795D01*
X311088Y237015D01*
X325975Y222128D01*
X328755Y220976D01*
X352213Y220976D01*
X352499Y220920D01*
X352752Y220753D01*
X353464Y220040D01*
X375536Y220040D01*
X377000Y221504D01*
X377000Y235576D01*
X375536Y237040D01*
X353464Y237040D01*
X352752Y236327D01*
X352510Y236164D01*
X352213Y236104D01*
X333709Y236104D01*
X333423Y236160D01*
X333170Y236327D01*
X329378Y240119D01*
X329225Y240339D01*
X329155Y240634D01*
X329206Y240933D01*
X329369Y241188D01*
X329620Y241360D01*
X329917Y241420D01*
X330082Y241420D01*
X334706Y243335D01*
X338245Y246874D01*
X338968Y248619D01*
X339116Y248849D01*
X339363Y249024D01*
X339659Y249089D01*
X339958Y249034D01*
X340210Y248866D01*
X344566Y244510D01*
X346600Y243668D01*
X351238Y243668D01*
X351513Y243617D01*
X351768Y243453D01*
X351940Y243203D01*
X352000Y242906D01*
X352000Y241504D01*
X353464Y240040D01*
X375536Y240040D01*
X376908Y241413D01*
X377150Y241576D01*
X377447Y241636D01*
X387724Y241636D01*
X387999Y241585D01*
X388254Y241421D01*
X388426Y241171D01*
X388486Y240874D01*
X388486Y167849D01*
X388430Y167563D01*
X388263Y167310D01*
X377303Y156350D01*
X377073Y156192D01*
X376776Y156127D01*
X376478Y156183D01*
X376225Y156350D01*
X375536Y157040D01*
X353464Y157040D01*
X352000Y155576D01*
X352000Y141504D01*
X353464Y140040D01*
X356174Y140040D01*
X356449Y139989D01*
X356704Y139825D01*
X356876Y139575D01*
X356936Y139278D01*
X356936Y84749D01*
X356880Y84463D01*
X356713Y84210D01*
X352690Y80187D01*
X352448Y80024D01*
X352151Y79964D01*
X315095Y79964D01*
X313874Y79458D01*
X313582Y79400D01*
X308064Y79400D01*
X306600Y77936D01*
X306600Y66864D01*
X308064Y65400D01*
X309174Y65400D01*
X309449Y65349D01*
X309704Y65185D01*
X309876Y64935D01*
X309936Y64638D01*
X309936Y54249D01*
X309880Y53963D01*
X309713Y53710D01*
X301890Y45887D01*
X301648Y45724D01*
X301351Y45664D01*
X185000Y45664D01*
X184731Y45713D01*
X184474Y45874D01*
X184301Y46123D01*
X184238Y46420D01*
X184296Y46718D01*
X185364Y49295D01*
X185364Y65013D01*
X185420Y65299D01*
X185587Y65552D01*
X186900Y66864D01*
X186900Y77936D01*
X185436Y79400D01*
X179918Y79400D01*
X179626Y79458D01*
X178405Y79964D01*
X175395Y79964D01*
X174174Y79458D01*
X173882Y79400D01*
X168364Y79400D01*
X166900Y77936D01*
X166900Y66864D01*
X168364Y65400D01*
X169474Y65400D01*
X169749Y65349D01*
X170004Y65185D01*
X170176Y64935D01*
X170236Y64638D01*
X170236Y54249D01*
X170180Y53963D01*
X170013Y53710D01*
X162190Y45887D01*
X161948Y45724D01*
X161651Y45664D01*
X92349Y45664D01*
X92063Y45720D01*
X91810Y45887D01*
X83987Y53710D01*
X83824Y53952D01*
X83764Y54249D01*
X83764Y65013D01*
X83820Y65299D01*
X83987Y65552D01*
X85300Y66864D01*
X85300Y77936D01*
X83836Y79400D01*
X66764Y79400D01*
X65300Y77936D01*
X65300Y66864D01*
X66764Y65400D01*
X67874Y65400D01*
X68149Y65349D01*
X68404Y65185D01*
X68576Y64935D01*
X68636Y64638D01*
X68636Y49295D01*
X69788Y46515D01*
X84615Y31688D01*
X87395Y30536D01*
X306305Y30536D01*
X309085Y31688D01*
X323912Y46515D01*
X325064Y49295D01*
X325064Y64074D01*
X325115Y64349D01*
X325279Y64604D01*
X325529Y64776D01*
X325826Y64836D01*
X357105Y64836D01*
X359885Y65988D01*
X370912Y77015D01*
X372064Y79795D01*
X372064Y87738D01*
X372115Y88013D01*
X372279Y88268D01*
X372529Y88440D01*
X372826Y88500D01*
X393236Y88500D01*
X394700Y89964D01*
X394700Y93274D01*
X394751Y93549D01*
X394915Y93804D01*
X395165Y93976D01*
X395462Y94036D01*
X493322Y94036D01*
X496102Y95188D01*
X523391Y122477D01*
X523633Y122640D01*
X523930Y122700D01*
X533686Y122700D01*
X536466Y123852D01*
X557227Y144613D01*
X557469Y144776D01*
X557766Y144836D01*
X585705Y144836D01*
X588485Y145988D01*
X603312Y160815D01*
X604464Y163595D01*
X604464Y167258D01*
X604520Y167544D01*
X604687Y167796D01*
X609480Y172589D01*
X609480Y183011D01*
X602530Y189961D01*
X602372Y190192D01*
X602307Y190488D01*
X602362Y190786D01*
X602530Y191039D01*
X606904Y195413D01*
X607145Y195576D01*
X607442Y195636D01*
X619024Y195636D01*
X621804Y196788D01*
X630592Y205576D01*
X631744Y208356D01*
X631744Y244383D01*
X630592Y247163D01*
X609056Y268699D01*
X608903Y268919D01*
X608833Y269214D01*
X608884Y269513D01*
X609048Y269768D01*
X609298Y269940D01*
X609595Y270000D01*
X649238Y270000D01*
X649513Y269949D01*
X649768Y269785D01*
X649940Y269535D01*
X650000Y269238D01*
X650000Y124312D01*
X649949Y124037D01*
X649785Y123782D01*
X649535Y123610D01*
X649238Y123550D01*
X608964Y123550D01*
X607902Y122487D01*
X607660Y122324D01*
X607363Y122264D01*
X595395Y122264D01*
X592615Y121112D01*
X590488Y118985D01*
X589336Y116205D01*
X589336Y92349D01*
X589280Y92063D01*
X589113Y91810D01*
X580415Y83112D01*
X580184Y82954D01*
X579888Y82889D01*
X579590Y82945D01*
X579337Y83112D01*
X578948Y83501D01*
X575089Y85100D01*
X554911Y85100D01*
X551052Y83501D01*
X548099Y80548D01*
X546500Y76689D01*
X546500Y72511D01*
X548099Y68652D01*
X551052Y65699D01*
X554911Y64100D01*
X575089Y64100D01*
X578948Y65699D01*
X580062Y66813D01*
X580304Y66976D01*
X580601Y67036D01*
X584105Y67036D01*
X586885Y68188D01*
X603312Y84615D01*
X604464Y87395D01*
X604464Y106374D01*
X604515Y106649D01*
X604679Y106904D01*
X604929Y107076D01*
X605226Y107136D01*
X607363Y107136D01*
X607649Y107080D01*
X607902Y106913D01*
X608964Y105850D01*
X649238Y105850D01*
X649513Y105799D01*
X649768Y105635D01*
X649940Y105385D01*
X650000Y105088D01*
X650000Y98952D01*
X649949Y98677D01*
X649785Y98422D01*
X649535Y98250D01*
X649238Y98190D01*
X630762Y98190D01*
X630762Y80410D01*
X649238Y80410D01*
X649513Y80359D01*
X649768Y80195D01*
X649940Y79945D01*
X650000Y79648D01*
X650000Y762D01*
X649949Y487D01*
X649785Y232D01*
X649535Y60D01*
X649238Y0D01*
X545502Y0D01*
X545227Y51D01*
X544972Y215D01*
X544800Y465D01*
X544740Y762D01*
X544740Y10238D01*
X519660Y10238D01*
X519660Y762D01*
X519609Y487D01*
X519445Y232D01*
X519195Y60D01*
X518898Y0D01*
X395502Y0D01*
X395227Y51D01*
X394972Y215D01*
X394800Y465D01*
X394740Y762D01*
X394740Y10238D01*
X369660Y10238D01*
X369660Y762D01*
X369609Y487D01*
X369445Y232D01*
X369195Y60D01*
G37*
%LPC*%
G36*
X267462Y254762D02*
X289400Y254762D01*
X289400Y256510D01*
X287479Y261149D01*
X283929Y264699D01*
X279290Y266620D01*
X267462Y266620D01*
X267462Y254762D01*
G37*
G36*
X244000Y254762D02*
X265938Y254762D01*
X265938Y266620D01*
X254110Y266620D01*
X249471Y264699D01*
X245921Y261149D01*
X244000Y256510D01*
X244000Y254762D01*
G37*
G36*
X254110Y241380D02*
X265938Y241380D01*
X265938Y253238D01*
X244000Y253238D01*
X244000Y251490D01*
X245921Y246851D01*
X249471Y243301D01*
X254110Y241380D01*
G37*
G36*
X267462Y241380D02*
X279290Y241380D01*
X283929Y243301D01*
X287479Y246851D01*
X289400Y251490D01*
X289400Y253238D01*
X267462Y253238D01*
X267462Y241380D01*
G37*
G36*
X313323Y144100D02*
X321677Y144100D01*
X329396Y147297D01*
X335303Y153204D01*
X336537Y156184D01*
X336703Y156432D01*
X337584Y157313D01*
X337825Y157476D01*
X338122Y157536D01*
X349865Y157536D01*
X352645Y158688D01*
X353774Y159817D01*
X354016Y159980D01*
X354313Y160040D01*
X375536Y160040D01*
X377000Y161504D01*
X377000Y175576D01*
X375536Y177040D01*
X353464Y177040D01*
X352752Y176327D01*
X352510Y176164D01*
X352213Y176104D01*
X350295Y176104D01*
X347515Y174952D01*
X345450Y172887D01*
X345208Y172724D01*
X344911Y172664D01*
X338122Y172664D01*
X337836Y172720D01*
X337584Y172887D01*
X336703Y173768D01*
X336537Y174016D01*
X335303Y176996D01*
X330999Y181299D01*
X330846Y181519D01*
X330777Y181814D01*
X330827Y182113D01*
X330991Y182368D01*
X331241Y182540D01*
X331538Y182600D01*
X337133Y182600D01*
X337419Y182544D01*
X337672Y182377D01*
X337921Y182128D01*
X340701Y180976D01*
X352213Y180976D01*
X352499Y180920D01*
X352752Y180753D01*
X353464Y180040D01*
X375536Y180040D01*
X377000Y181504D01*
X377000Y195576D01*
X375536Y197040D01*
X353464Y197040D01*
X352752Y196327D01*
X352510Y196164D01*
X352213Y196104D01*
X345655Y196104D01*
X345369Y196160D01*
X345116Y196327D01*
X344867Y196576D01*
X342086Y197728D01*
X199584Y197728D01*
X199298Y197784D01*
X199045Y197951D01*
X161984Y235012D01*
X159204Y236164D01*
X147622Y236164D01*
X147336Y236220D01*
X147084Y236387D01*
X146203Y237268D01*
X146037Y237516D01*
X144803Y240496D01*
X138896Y246403D01*
X131177Y249600D01*
X122823Y249600D01*
X115104Y246403D01*
X109197Y240496D01*
X107963Y237516D01*
X107798Y237268D01*
X106255Y235726D01*
X104340Y231102D01*
X104340Y226098D01*
X106255Y221474D01*
X107798Y219932D01*
X107963Y219684D01*
X109197Y216704D01*
X115104Y210797D01*
X122823Y207600D01*
X131177Y207600D01*
X138896Y210797D01*
X144803Y216704D01*
X146037Y219684D01*
X146203Y219932D01*
X147084Y220813D01*
X147325Y220976D01*
X147622Y221036D01*
X154251Y221036D01*
X154536Y220980D01*
X154789Y220813D01*
X191851Y183752D01*
X194631Y182600D01*
X303462Y182600D01*
X303725Y182553D01*
X303983Y182394D01*
X304159Y182146D01*
X304224Y181850D01*
X304168Y181552D01*
X304001Y181299D01*
X299697Y176996D01*
X298463Y174016D01*
X298298Y173768D01*
X296755Y172226D01*
X294840Y167602D01*
X294840Y162598D01*
X296755Y157974D01*
X298298Y156432D01*
X298463Y156184D01*
X299697Y153204D01*
X305604Y147297D01*
X313323Y144100D01*
G37*
G36*
X76962Y229362D02*
X98900Y229362D01*
X98900Y231110D01*
X96979Y235749D01*
X93429Y239299D01*
X88790Y241220D01*
X76962Y241220D01*
X76962Y229362D01*
G37*
G36*
X53500Y229362D02*
X75438Y229362D01*
X75438Y241220D01*
X63610Y241220D01*
X58971Y239299D01*
X55421Y235749D01*
X53500Y231110D01*
X53500Y229362D01*
G37*
G36*
X63610Y215980D02*
X75438Y215980D01*
X75438Y227838D01*
X53500Y227838D01*
X53500Y226090D01*
X55421Y221451D01*
X58971Y217901D01*
X63610Y215980D01*
G37*
G36*
X76962Y215980D02*
X88790Y215980D01*
X93429Y217901D01*
X96979Y221451D01*
X98900Y226090D01*
X98900Y227838D01*
X76962Y227838D01*
X76962Y215980D01*
G37*
G36*
X244000Y165862D02*
X265938Y165862D01*
X265938Y177720D01*
X254110Y177720D01*
X249471Y175799D01*
X245921Y172249D01*
X244000Y167610D01*
X244000Y165862D01*
G37*
G36*
X267462Y165862D02*
X289400Y165862D01*
X289400Y167610D01*
X287479Y172249D01*
X283929Y175799D01*
X279290Y177720D01*
X267462Y177720D01*
X267462Y165862D01*
G37*
G36*
X267462Y152480D02*
X279290Y152480D01*
X283929Y154401D01*
X287479Y157951D01*
X289400Y162590D01*
X289400Y164338D01*
X267462Y164338D01*
X267462Y152480D01*
G37*
G36*
X254110Y152480D02*
X265938Y152480D01*
X265938Y164338D01*
X244000Y164338D01*
X244000Y162590D01*
X245921Y157951D01*
X249471Y154401D01*
X254110Y152480D01*
G37*
G36*
X554911Y114900D02*
X575089Y114900D01*
X578948Y116499D01*
X581901Y119452D01*
X583500Y123311D01*
X583500Y127489D01*
X581901Y131348D01*
X578948Y134301D01*
X575089Y135900D01*
X554911Y135900D01*
X551052Y134301D01*
X548099Y131348D01*
X546500Y127489D01*
X546500Y123311D01*
X548099Y119452D01*
X551052Y116499D01*
X554911Y114900D01*
G37*
G36*
X521164Y88500D02*
X543236Y88500D01*
X544700Y89964D01*
X544700Y91674D01*
X544751Y91949D01*
X544915Y92204D01*
X545165Y92376D01*
X545462Y92436D01*
X549399Y92436D01*
X549685Y92380D01*
X549938Y92213D01*
X551052Y91099D01*
X554911Y89500D01*
X575089Y89500D01*
X578948Y91099D01*
X581901Y94052D01*
X583500Y97911D01*
X583500Y102089D01*
X581901Y105948D01*
X578948Y108901D01*
X575089Y110500D01*
X554911Y110500D01*
X551052Y108901D01*
X549938Y107787D01*
X549696Y107624D01*
X549399Y107564D01*
X545462Y107564D01*
X545187Y107615D01*
X544932Y107779D01*
X544760Y108029D01*
X544700Y108326D01*
X544700Y112036D01*
X543236Y113500D01*
X521164Y113500D01*
X519700Y112036D01*
X519700Y89964D01*
X521164Y88500D01*
G37*
G36*
X240695Y64836D02*
X269105Y64836D01*
X270326Y65342D01*
X270618Y65400D01*
X276136Y65400D01*
X277600Y66864D01*
X277600Y77936D01*
X276136Y79400D01*
X270618Y79400D01*
X270326Y79458D01*
X269105Y79964D01*
X245649Y79964D01*
X245363Y80020D01*
X245110Y80187D01*
X213485Y111812D01*
X210705Y112964D01*
X175395Y112964D01*
X174174Y112458D01*
X173882Y112400D01*
X168364Y112400D01*
X166900Y110936D01*
X166900Y99864D01*
X168364Y98400D01*
X173882Y98400D01*
X174174Y98342D01*
X175395Y97836D01*
X205751Y97836D01*
X206037Y97780D01*
X206290Y97613D01*
X237915Y65988D01*
X240695Y64836D01*
G37*
G36*
X113695Y64836D02*
X129405Y64836D01*
X130626Y65342D01*
X130918Y65400D01*
X136436Y65400D01*
X137900Y66864D01*
X137900Y77936D01*
X136436Y79400D01*
X130918Y79400D01*
X130626Y79458D01*
X129405Y79964D01*
X118649Y79964D01*
X118363Y80020D01*
X118110Y80187D01*
X86485Y111812D01*
X83705Y112964D01*
X73795Y112964D01*
X72574Y112458D01*
X72282Y112400D01*
X66764Y112400D01*
X65300Y110936D01*
X65300Y99864D01*
X66764Y98400D01*
X72282Y98400D01*
X72574Y98342D01*
X73795Y97836D01*
X78751Y97836D01*
X79037Y97780D01*
X79290Y97613D01*
X110915Y65988D01*
X113695Y64836D01*
G37*
G36*
X27062Y106162D02*
X36340Y106162D01*
X36340Y110952D01*
X34852Y112440D01*
X27062Y112440D01*
X27062Y106162D01*
G37*
G36*
X268362Y106162D02*
X277640Y106162D01*
X277640Y110952D01*
X276152Y112440D01*
X268362Y112440D01*
X268362Y106162D01*
G37*
G36*
X257560Y106162D02*
X266838Y106162D01*
X266838Y112440D01*
X259048Y112440D01*
X257560Y110952D01*
X257560Y106162D01*
G37*
G36*
X16260Y106162D02*
X25538Y106162D01*
X25538Y112440D01*
X17748Y112440D01*
X16260Y110952D01*
X16260Y106162D01*
G37*
G36*
X117860Y106162D02*
X127138Y106162D01*
X127138Y112440D01*
X119348Y112440D01*
X117860Y110952D01*
X117860Y106162D01*
G37*
G36*
X128662Y106162D02*
X137940Y106162D01*
X137940Y110952D01*
X136452Y112440D01*
X128662Y112440D01*
X128662Y106162D01*
G37*
G36*
X308064Y98400D02*
X325136Y98400D01*
X326600Y99864D01*
X326600Y110936D01*
X325136Y112400D01*
X308064Y112400D01*
X306600Y110936D01*
X306600Y99864D01*
X308064Y98400D01*
G37*
G36*
X259048Y98360D02*
X266838Y98360D01*
X266838Y104638D01*
X257560Y104638D01*
X257560Y99848D01*
X259048Y98360D01*
G37*
G36*
X268362Y98360D02*
X276152Y98360D01*
X277640Y99848D01*
X277640Y104638D01*
X268362Y104638D01*
X268362Y98360D01*
G37*
G36*
X128662Y98360D02*
X136452Y98360D01*
X137940Y99848D01*
X137940Y104638D01*
X128662Y104638D01*
X128662Y98360D01*
G37*
G36*
X119348Y98360D02*
X127138Y98360D01*
X127138Y104638D01*
X117860Y104638D01*
X117860Y99848D01*
X119348Y98360D01*
G37*
G36*
X27062Y98360D02*
X34852Y98360D01*
X36340Y99848D01*
X36340Y104638D01*
X27062Y104638D01*
X27062Y98360D01*
G37*
G36*
X17748Y98360D02*
X25538Y98360D01*
X25538Y104638D01*
X16260Y104638D01*
X16260Y99848D01*
X17748Y98360D01*
G37*
G36*
X607460Y90062D02*
X629238Y90062D01*
X629238Y98190D01*
X608948Y98190D01*
X607460Y96702D01*
X607460Y90062D01*
G37*
G36*
X608948Y80410D02*
X629238Y80410D01*
X629238Y88538D01*
X607460Y88538D01*
X607460Y81898D01*
X608948Y80410D01*
G37*
G36*
X617016Y15000D02*
X622984Y15000D01*
X628497Y17284D01*
X632716Y21503D01*
X635000Y27016D01*
X635000Y32984D01*
X632716Y38497D01*
X628497Y42716D01*
X622984Y45000D01*
X617016Y45000D01*
X611503Y42716D01*
X607284Y38497D01*
X605000Y32984D01*
X605000Y27016D01*
X607284Y21503D01*
X611503Y17284D01*
X617016Y15000D01*
G37*
G36*
X27016Y15000D02*
X32984Y15000D01*
X38497Y17284D01*
X42716Y21503D01*
X45000Y27016D01*
X45000Y32984D01*
X42716Y38497D01*
X38497Y42716D01*
X32984Y45000D01*
X27016Y45000D01*
X21503Y42716D01*
X17284Y38497D01*
X15000Y32984D01*
X15000Y27016D01*
X17284Y21503D01*
X21503Y17284D01*
X27016Y15000D01*
G37*
G36*
X519660Y11762D02*
X531438Y11762D01*
X531438Y23540D01*
X521148Y23540D01*
X519660Y22052D01*
X519660Y11762D01*
G37*
G36*
X369660Y11762D02*
X381438Y11762D01*
X381438Y23540D01*
X371148Y23540D01*
X369660Y22052D01*
X369660Y11762D01*
G37*
G36*
X382962Y11762D02*
X394740Y11762D01*
X394740Y22052D01*
X393252Y23540D01*
X382962Y23540D01*
X382962Y11762D01*
G37*
G36*
X532962Y11762D02*
X544740Y11762D01*
X544740Y22052D01*
X543252Y23540D01*
X532962Y23540D01*
X532962Y11762D01*
G37*
%LPD*%
G36*
X336914Y263146D02*
X336618Y263081D01*
X336320Y263136D01*
X336067Y263304D01*
X334706Y264665D01*
X330082Y266580D01*
X324861Y266580D01*
X324581Y266633D01*
X324327Y266799D01*
X324157Y267050D01*
X323912Y267642D01*
X322855Y268699D01*
X322702Y268919D01*
X322632Y269214D01*
X322683Y269513D01*
X322847Y269768D01*
X323097Y269940D01*
X323394Y270000D01*
X331461Y270000D01*
X331747Y269944D01*
X332000Y269777D01*
X337145Y264632D01*
X337308Y264390D01*
X337368Y264093D01*
X337368Y263842D01*
X337321Y263579D01*
X337162Y263321D01*
X336914Y263146D01*
G37*
G36*
X294938Y258126D02*
X294164Y257943D01*
X293379Y258077D01*
X292709Y258505D01*
X292258Y259162D01*
X292100Y259942D01*
X292100Y302800D01*
X292234Y303521D01*
X292663Y304192D01*
X293320Y304642D01*
X294100Y304800D01*
X353600Y304800D01*
X354321Y304666D01*
X354992Y304237D01*
X355442Y303580D01*
X355600Y302800D01*
X355600Y299040D01*
X355466Y298319D01*
X355037Y297649D01*
X354380Y297198D01*
X353600Y297040D01*
X353464Y297040D01*
X352000Y295576D01*
X352000Y281504D01*
X353550Y279954D01*
X353965Y279349D01*
X354136Y278572D01*
X353990Y277789D01*
X353550Y277126D01*
X352000Y275576D01*
X352000Y269241D01*
X351882Y268565D01*
X351469Y267884D01*
X350824Y267419D01*
X350048Y267242D01*
X349264Y267381D01*
X348597Y267816D01*
X348152Y268476D01*
X347590Y269834D01*
X339086Y278338D01*
X338658Y278972D01*
X338500Y279752D01*
X338500Y295876D01*
X337036Y297340D01*
X321964Y297340D01*
X321414Y296790D01*
X320809Y296375D01*
X320032Y296204D01*
X319249Y296350D01*
X318586Y296790D01*
X318036Y297340D01*
X302964Y297340D01*
X301500Y295876D01*
X301500Y278804D01*
X302350Y277954D01*
X302778Y277320D01*
X302936Y276540D01*
X302936Y268853D01*
X303264Y268060D01*
X303416Y267342D01*
X303276Y266559D01*
X302842Y265892D01*
X302182Y265447D01*
X300294Y264665D01*
X296755Y261126D01*
X295948Y259177D01*
X295580Y258597D01*
X294938Y258126D01*
G37*
G36*
X331148Y266738D02*
X330368Y266580D01*
X325689Y266580D01*
X324953Y266720D01*
X324286Y267154D01*
X324050Y267504D01*
X318650Y272904D01*
X318222Y273539D01*
X318064Y274319D01*
X318064Y276412D01*
X318187Y277103D01*
X318605Y277780D01*
X319255Y278241D01*
X320032Y278412D01*
X320815Y278266D01*
X321478Y277826D01*
X321964Y277340D01*
X323608Y277340D01*
X324359Y277194D01*
X325022Y276754D01*
X331782Y269994D01*
X332184Y269418D01*
X332367Y268644D01*
X332234Y267859D01*
X331805Y267189D01*
X331148Y266738D01*
G37*
G36*
X351383Y255149D02*
X350606Y254978D01*
X349823Y255124D01*
X349160Y255564D01*
X349018Y255706D01*
X348590Y256340D01*
X348432Y257120D01*
X348432Y260244D01*
X348555Y260935D01*
X348973Y261612D01*
X349623Y262073D01*
X350400Y262244D01*
X351183Y262098D01*
X351846Y261658D01*
X353550Y259954D01*
X353965Y259349D01*
X354136Y258572D01*
X353990Y257789D01*
X353550Y257126D01*
X351988Y255564D01*
X351383Y255149D01*
G37*
D10*
X571500Y177800D03*
X596900Y177800D03*
X571500Y203200D03*
X596900Y203200D03*
X571500Y228600D03*
X596900Y228600D03*
D11*
X524500Y148540D03*
X524500Y168540D03*
X524500Y188540D03*
X524500Y208540D03*
X524500Y228540D03*
X524500Y248540D03*
X524500Y268540D03*
X524500Y288540D03*
X364500Y288540D03*
X364500Y248540D03*
X364500Y268540D03*
X364500Y228540D03*
X364500Y208540D03*
X364500Y188540D03*
X364500Y168540D03*
X364500Y148540D03*
D12*
X494500Y133740D03*
X474500Y133740D03*
X454500Y133740D03*
X434500Y133740D03*
X414500Y133740D03*
X394500Y133740D03*
D13*
X86280Y228600D02*
X66120Y228600D01*
X116920Y228600D02*
X137080Y228600D01*
X256620Y165100D02*
X276780Y165100D01*
X307420Y165100D02*
X327580Y165100D01*
D14*
X26300Y105400D03*
X26300Y72400D03*
X75300Y105400D03*
X75300Y72400D03*
X127900Y105400D03*
X127900Y72400D03*
X176900Y105400D03*
X176900Y72400D03*
X267600Y105400D03*
X267600Y72400D03*
X316600Y105400D03*
X316600Y72400D03*
D15*
X557000Y74600D02*
X573000Y74600D01*
X573000Y100000D02*
X557000Y100000D01*
X557000Y125400D02*
X573000Y125400D01*
D13*
X276780Y254000D02*
X256620Y254000D01*
X307420Y254000D02*
X327580Y254000D01*
D16*
X630000Y114700D03*
X630000Y89300D03*
D17*
X310500Y287340D03*
X329500Y287340D03*
D18*
X382200Y101000D03*
X382200Y11000D03*
X532200Y101000D03*
X532200Y11000D03*
D19*
X524500Y288540D02*
X551710Y288540D01*
X596900Y243350D01*
X596900Y228600D01*
X552960Y268540D02*
X524500Y268540D01*
X552960Y268540D02*
X571500Y250000D01*
X571500Y228600D01*
X468540Y288540D02*
X364500Y288540D01*
X468540Y288540D02*
X485450Y305450D01*
X617519Y203200D02*
X624180Y209861D01*
X561608Y305450D02*
X485450Y305450D01*
X624180Y242878D02*
X624180Y209861D01*
X624180Y242878D02*
X561608Y305450D01*
X596900Y203200D02*
X617519Y203200D01*
X546100Y203200D02*
X540760Y208540D01*
X524500Y208540D01*
X546100Y203200D02*
X571500Y203200D01*
D20*
X364500Y148540D02*
X364600Y147950D01*
D19*
X364600Y249200D02*
X392300Y249200D01*
X396050Y245450D01*
X396050Y164400D01*
X379600Y147950D01*
X364600Y147950D01*
X364500Y248540D02*
X364600Y249200D01*
D20*
X364500Y148540D02*
X364600Y147950D01*
X76200Y71500D02*
X75300Y72400D01*
D19*
X76200Y71500D02*
X76200Y50800D01*
X88900Y38100D01*
X139700Y38100D02*
X152400Y38100D01*
X139700Y38100D02*
X88900Y38100D01*
X165100Y38100D02*
X177800Y50800D01*
X177800Y71500D01*
X176900Y72400D01*
D20*
X316600Y72400D02*
X317500Y71500D01*
D19*
X317500Y50800D01*
X304800Y38100D01*
X165100Y38100D01*
X152400Y38100D01*
X596900Y165100D02*
X596900Y177800D01*
X596900Y165100D02*
X584200Y152400D01*
X355600Y72400D02*
X316600Y72400D01*
D21*
X342900Y266700D02*
X329500Y280100D01*
X329500Y287340D01*
X342900Y254000D02*
X347700Y249200D01*
X342900Y254000D02*
X342900Y266700D01*
X347700Y249200D02*
X364600Y249200D01*
D19*
X532181Y130264D02*
X554317Y152400D01*
X532181Y130264D02*
X520481Y130264D01*
X554317Y152400D02*
X584200Y152400D01*
X520481Y130264D02*
X502936Y112719D01*
X364500Y101600D02*
X364500Y148540D01*
X364500Y101600D02*
X364500Y81300D01*
X355600Y72400D01*
X365100Y101000D02*
X382200Y101000D01*
X365100Y101000D02*
X364500Y101600D01*
X382200Y101000D02*
X382800Y101600D01*
X482600Y101600D01*
X491817Y101600D01*
X502936Y112719D01*
X157699Y228600D02*
X127000Y228600D01*
X340582Y190164D02*
X342206Y188540D01*
X364500Y188540D01*
X196135Y190164D02*
X157699Y228600D01*
X196135Y190164D02*
X340582Y190164D01*
D22*
X127000Y228600D03*
D19*
X351800Y168540D02*
X364500Y168540D01*
X351800Y168540D02*
X348360Y165100D01*
X317500Y165100D01*
D22*
X317500Y165100D03*
D19*
X82200Y105400D02*
X75300Y105400D01*
X115200Y72400D02*
X127900Y72400D01*
X115200Y72400D02*
X102500Y85100D01*
X82200Y105400D01*
X242200Y72400D02*
X267600Y72400D01*
X242200Y72400D02*
X209200Y105400D01*
X176900Y105400D01*
X209310Y208540D02*
X132000Y285850D01*
X209310Y208540D02*
X364500Y208540D01*
X51000Y84400D02*
X39000Y72400D01*
X26300Y72400D01*
X36776Y145506D02*
X36776Y248194D01*
X36776Y145506D02*
X51000Y131282D01*
X51000Y84400D01*
X74432Y285850D02*
X132000Y285850D01*
X74432Y285850D02*
X36776Y248194D01*
X533200Y100000D02*
X565000Y100000D01*
X533200Y100000D02*
X532200Y101000D01*
X565000Y74600D02*
X582600Y74600D01*
X584200Y76200D01*
X596900Y88900D01*
X596900Y114700D01*
X630000Y114700D01*
X364500Y228540D02*
X330260Y228540D01*
X330200Y228600D01*
X317500Y241300D01*
X317500Y254000D01*
X310500Y270357D02*
X310500Y287340D01*
X310500Y270357D02*
X317500Y263357D01*
X317500Y254000D01*
D23*
X0Y0D02*
X650000Y0D01*
X650000Y320000D01*
X0Y320000D01*
X0Y0D01*
M02*
