<svg version="1.1" xmlns="http://www.w3.org/2000/svg" xmlns:xlink="http://www.w3.org/1999/xlink" stroke-linecap="round" stroke-linejoin="round" stroke-width="0" fill-rule="evenodd" width="40.254mm" height="40.254mm" viewBox="-127 -127 40254 40254" id="C9yDfz6Yr5EmR4qT5tVF"><defs><mask id="C9yDfz6Yr5EmR4qT5tVF_clear-1" fill="#000" stroke="#000"><g><rect x="2176.4" y="2500" width="35223.6" height="31790" fill="#fff"/><path d="M 29957.3 25408 30403.8 25408 30403.8 26593.8 29218 26593.8 29218 26147.3 29957.3 25408"/><path d="M 24526 23820.2 27034 23820.2 27034 24449.2 26882.9 24600.3 26840.8 24661.8 26823.4 24740.8 26838.2 24820.3 26882.9 24887.7 27034 25038.8 27034 25667.8 24526 25667.8 24526 25038.8 24677.1 24887.7 24719.2 24826.2 24736.6 24747.2 24721.8 24667.7 24677.1 24600.3 24526 24449.2 24526 23820.2"/><path d="M 4224.8 24816 5003.8 24816 5003.8 25643.8 4076 25643.8 4076 24964.8 4224.8 24816"/><path d="M 5156.2 24816 5935.2 24816 6084 24964.8 6084 25643.8 5156.2 25643.8 5156.2 24816"/><path d="M 24674.8 22890 25703.8 22890 25703.8 23667.8 24526 23667.8 24526 23038.8 24674.8 22890"/><path d="M 25856.2 22890 26885.2 22890 27034 23038.8 27034 23667.8 25856.2 23667.8 25856.2 22890"/><path d="M 19058 16076.2 20243.8 16076.2 20243.8 18270 20069 18270 19605.1 18077.9 19250.1 17722.9 19058 17259 19058 16076.2"/><path d="M 3491.6 15761.5 4251.7 15761.5 4251.7 16523.2 4102.9 16672 3491.6 16672 3491.6 15761.5"/><path d="M 3491.6 14698.7 4102.9 14698.7 4251.7 14847.4 4251.7 15609.1 3491.6 15609.1 3491.6 14698.7"/><path d="M 30556.2 12381.6 31466.7 12381.6 31466.7 12992.9 31420.4 13039.1 31379.6 13097.6 31361 13176.3 31374.6 13256.1 31418.2 13324.2 31484.9 13369.9 31564.1 13386 31673.8 13386 31673.8 14213.8 30746 14213.8 30746 13534.8 30792.2 13488.6 30833 13430.1 30851.6 13351.4 30838.1 13271.7 30794.5 13203.5 30727.8 13157.8 30648.5 13141.7 30556.2 13141.7 30556.2 12381.6"/><path d="M 3491.6 13076.2 4251.7 13076.2 4251.7 13837.9 4102.9 13986.7 3491.6 13986.7 3491.6 13076.2"/><path d="M 29493.4 12381.6 30403.8 12381.6 30403.8 13141.7 29642.1 13141.7 29493.4 12992.9 29493.4 12381.6"/><path d="M 3491.6 12013.4 4102.9 12013.4 4251.7 12162.1 4251.7 12923.8 3491.6 12923.8 3491.6 12013.4"/><path d="M 4836.2 10066.2 5514 10066.2 5514 10795.2 5365.2 10944 4836.2 10944 4836.2 10066.2"/><path d="M 5363.4 7301.6 6273.8 7301.6 6273.8 8061.7 5512.1 8061.7 5363.4 7912.9 5363.4 7301.6"/><path d="M 6426.2 7301.6 7336.7 7301.6 7336.7 7912.9 7187.9 8061.7 6426.2 8061.7 6426.2 7301.6"/><path d="M 19711.2 4851 20258.8 4851 20258.8 5323.8 19476 5323.8 19476 5086.2 19711.2 4851"/><path d="M 17856.2 3368.3 18617.9 3368.3 18766.7 3517.1 18766.7 4128.4 17856.2 4128.4 17856.2 3368.3"/><path d="M 16942.1 3368.3 17703.8 3368.3 17703.8 4128.4 16793.4 4128.4 16793.4 3517.1 16942.1 3368.3"/><path d="M 15316.2 3226 16095.2 3226 16244 3374.8 16244 4053.8 15316.2 4053.8 15316.2 3226"/><path d="M 14384.8 3226 15163.8 3226 15163.8 4053.8 14236 4053.8 14236 3374.8 14384.8 3226"/></g></mask><rect x="-1000" y="-600" width="2000" height="1200" id="C9yDfz6Yr5EmR4qT5tVF_pad-10"/><rect x="-600" y="-1000" width="1200" height="2000" id="C9yDfz6Yr5EmR4qT5tVF_pad-11"/><rect x="-312.4" y="-611.75" width="624.8" height="1223.5" id="C9yDfz6Yr5EmR4qT5tVF_pad-12"/><rect x="-750" y="-650" width="1500" height="1300" id="C9yDfz6Yr5EmR4qT5tVF_pad-13"/><rect x="-732.65" y="-582.3" width="1465.3" height="1164.6" id="C9yDfz6Yr5EmR4qT5tVF_pad-14"/><rect x="-700" y="-500" width="1400" height="1000" id="C9yDfz6Yr5EmR4qT5tVF_pad-15"/><rect x="-637.35" y="-925" width="1274.7" height="1850" id="C9yDfz6Yr5EmR4qT5tVF_pad-17"/><rect x="-925" y="-637.35" width="1850" height="1274.7" id="C9yDfz6Yr5EmR4qT5tVF_pad-18"/><polygon points="-417.52676,1007.99876 -1007.99876,417.52676 -1007.99876,-417.52676 -417.52676,-1007.99876 417.52676,-1007.99876 1007.99876,-417.52676 1007.99876,417.52676 417.52676,1007.99876" id="C9yDfz6Yr5EmR4qT5tVF_pad-19"/><rect x="-582.3" y="-732.65" width="1164.6" height="1465.3" id="C9yDfz6Yr5EmR4qT5tVF_pad-21"/><rect x="-500" y="-700" width="1000" height="1400" id="C9yDfz6Yr5EmR4qT5tVF_pad-22"/></defs><g transform="translate(0,40000) scale(1,-1)" fill="currentColor" stroke="currentColor"><g mask="url(#C9yDfz6Yr5EmR4qT5tVF_clear-1)"><path d="M 25300.1 2516.1 25220.8 2500 9268.6 2500 9192.4 2514.9 9125 2559.5 7434.7 4249.8 7392.5 4311.3 7375.2 4390.3 7390 4469.8 7434.7 4537.2 7506.5 4609.1 7582.7 4792.8 7582.7 6156.4 7506.5 6340.1 7396.2 6450.5 7352.7 6514.9 7336.7 6594.2 7336.7 7149.2 5363.4 7149.2 5363.4 6594.2 5348.5 6517.9 5303.8 6450.5 5185.1 6331.7 5159.3 6291.7 5093.3 6245 5014.3 6227.6 4934.8 6242.4 4867.4 6287.1 4684.5 6470 4642.3 6531.5 4625 6610.4 4639.8 6689.9 4684.5 6757.4 4733.9 6806.8 4810 6990.5 4810 8589.5 4741.4 8755 4726.1 8826.3 4739.6 8906.1 4783.2 8974.2 4849.9 9019.9 4929.1 9036 5365.2 9036 5514 9184.8 5514 9913.8 4683.8 9913.8 4683.8 10944 4154.8 10944 4116.1 10905.3 4056.1 10863.9 3977.3 10845.9 3897.7 10860.1 3829.9 10904.2 3784.7 10971.3 3783.9 10973.2 3643.2 11113.9 3459.5 11190 2379.6 11190 2306.4 11203.7 2238.2 11247.2 2192.5 11313.9 2176.4 11393.2 2176.4 11564.2 2190.1 11637.4 2233.6 11705.5 2300.3 11751.3 2314.4 11754.1 2530.1 11843.5 2640.5 11953.8 2704.9 11997.3 2784.2 12013.4 3339.2 12013.4 3339.2 13986.7 2784.2 13986.7 2707.9 14001.5 2640.5 14046.2 2527.7 14159 2473.9 14193.4 2426.6 14258.9 2408.6 14337.8 2422.8 14417.4 2467 14485.2 2527 14525.7 2640.5 14639.1 2704.9 14682.6 2784.2 14698.7 3339.2 14698.7 3339.2 16672 2784.2 16672 2707.9 16686.8 2640.5 16731.5 2530.1 16841.8 2319.1 16929.2 2306.4 16931.6 2238.2 16975.2 2192.5 17041.9 2176.4 17121.2 2176.4 22791.5 2188.9 22861.7 2231.4 22930.5 2297.4 22977.3 2376.4 22994.7 2455.9 22979.8 2523.3 22935.2 3315.5 22143 3358.9 22078.5 3375 21999.3 3375 21203.5 3451.1 21019.7 3591.8 20879.1 3775.5 20803 5824.5 20803 6008.2 20879.1 6148.9 21019.7 6225 21203.5 6225 22677.1 6148.9 22860.9 6008.2 23001.5 5824.5 23077.7 5028.7 23077.7 4952.4 23092.5 4885 23137.2 3575.9 24446.2 3532.5 24510.7 3516.4 24589.9 3516.4 26606.1 3528.4 26674.8 3570.3 26743.9 3635.9 26791.2 3714.7 26809.2 3794.4 26795 3862.1 26750.9 3903.8 26689.1 4016.5 26576.4 4059.9 26512 4076 26432.7 4076 25796.2 6084 25796.2 6084 26432.7 6098.9 26509 6143.5 26576.4 6253.9 26686.8 6320.4 26847.3 6364.4 26913.3 6446.7 26995.5 6505.2 27036.3 6583.9 27054.9 6663.7 27041.4 6731.8 26997.8 6777.5 26931.1 6793.6 26851.9 6793.6 22103.6 6788.7 22077.1 6793.5 21888.6 6793.6 21883.4 6793.6 21705.2 6866 21542.4 6868 21537.6 6936.2 21373 7065.4 21250.3 7069.1 21246.7 7202.5 21113.3 7225.1 21098.6 9063 19352.7 9066.7 19349 9192.7 19223 9359 19159.1 9363.9 19157.2 9528.5 19089 9706.6 19093.5 9711.8 19093.6 29990 19093.6 30123.8 19149 30198.3 19164.5 30277.8 19149.6 30345.3 19105 30479.1 18971.1 30662.9 18895 32136.5 18895 32320.3 18971.1 32460.9 19111.8 32537.1 19295.5 32537.1 21344.5 32460.9 21528.2 32320.3 21668.9 32136.5 21745 30662.9 21745 30479.1 21668.9 30338.5 21528.2 30265.4 21351.8 30223.6 21288.2 30156.9 21242.5 30077.7 21226.4 29949.4 21226.4 29616.3 21088.4 29493.8 20965.9 29429.3 20922.5 29350.1 20906.4 24077.2 20906.4 24005.5 20919.5 23937 20962.5 23890.7 21028.8 23874 21108 23880 21138.8 23880 23363.5 23803.9 23547.2 23663.2 23687.9 23479.5 23764 22080.5 23764 21865.6 23675 21862.2 23672.7 21783.2 23655.3 21703.7 23670.1 21699.8 23672.7 21479.5 23764 20080.5 23764 19865.6 23675 19862.2 23672.7 19783.2 23655.3 19703.7 23670.1 19699.8 23672.7 19479.5 23764 18080.5 23764 17865.6 23675 17862.2 23672.7 17783.2 23655.3 17703.7 23670.1 17699.8 23672.7 17479.5 23764 16080.5 23764 15865.6 23675 15862.2 23672.7 15783.2 23655.3 15703.7 23670.1 15699.8 23672.7 15479.5 23764 14080.5 23764 13865.6 23675 13862.2 23672.7 13783.2 23655.3 13703.7 23670.1 13699.8 23672.7 13479.5 23764 13306.4 23764 13236.2 23776.5 13167.4 23819 13120.6 23885 13103.2 23964 13118.1 24043.5 13162.7 24110.9 13538.4 24486.6 13676.4 24819.7 13676.4 32440.7 13538.4 32773.8 12369.1 33943.1 12328.3 34001.6 12309.7 34080.3 12323.3 34160.1 12366.9 34228.2 12433.6 34273.9 12512.8 34290 24076.8 34290 24150.1 34276.3 24218.2 34232.8 24263.9 34166.1 24280 34086.8 24280 33044.5 24369 32829.6 24371.3 32826.2 24388.7 32747.2 24373.9 32667.7 24371.3 32663.8 24280 32443.5 24280 31044.5 24369 30829.6 24371.3 30826.2 24388.7 30747.2 24373.9 30667.7 24371.3 30663.8 24280 30443.5 24280 29044.5 24369 28829.6 24371.3 28826.2 24388.7 28747.2 24373.9 28667.7 24371.3 28663.8 24280 28443.5 24280 27044.5 24356.1 26860.8 24503.2 26713.7 24545.3 26652.3 24562.7 26573.3 24547.8 26493.8 24526 26460.9 24526 25820.2 27034 25820.2 27034 26459.7 27014.7 26487.8 26997.4 26566.8 27012.2 26646.3 27056.8 26713.7 27203.9 26860.8 27280 27044.5 27280 28198.2 27293.1 28269.9 27336.1 28338.4 27402.5 28384.7 27481.6 28401.4 27561 28385.9 27759.7 28303.6 29169.6 28303.6 29245.9 28288.7 29313.3 28244.1 29647.6 27909.7 29689.8 27848.3 29707.1 27769.3 29692.3 27689.8 29647.6 27622.4 29218 27192.7 29218 26746.2 30556.2 26746.2 30556.2 25408 31002.7 25408 31432.4 25837.6 31493.8 25879.8 31572.8 25897.1 31652.3 25882.3 31719.7 25837.6 32395.4 25162 33644.6 25162 34393.1 25910.5 34457.5 25953.9 34536.8 25970 35185.9 25970 35262.1 25955.1 35329.6 25910.5 37340.5 23899.6 37383.9 23835.1 37400 23755.9 37400 8148.3 37385.1 8072 37340.5 8004.6 36936.9 7601 36878.4 7560.2 36799.7 7541.6 36720 7555.2 36651.8 7598.7 36606.1 7665.4 36590 7744.7 36590 8219.5 36513.9 8403.2 36373.2 8543.9 36189.5 8620 34656.4 8620 34586.2 8632.5 34517.4 8675 34470.6 8741 34453.2 8820 34468.1 8899.5 34512.7 8966.9 34841 9295.1 34869.3 9314.1 35042.6 9487.3 35056.7 9508.5 35196.4 9845.7 35196.4 10229.7 35202.4 10278.8 35213.1 10321.5 35198.6 10418.4 35196.4 10448.4 35196.4 10546.3 35191.9 10557.2 35176.4 10635 35176.4 10680.3 35159.6 10720.9 35146.3 10768.7 35139.9 10812.1 35131.4 10826.2 35102.4 10930.8 35102.4 11077.2 35092.4 11101.3 35077.1 11172.6 35090.6 11252.3 35134.2 11320.4 35200.9 11366.2 35280.2 11382.3 35651.9 11382.3 35835.6 11458.4 35976.3 11599 36052.4 11782.8 36052.4 12046.4 36067.9 12124.1 36146.4 12313.7 36146.4 13944.3 36008.4 14277.4 35599.5 14686.3 35556.1 14750.8 35540 14830 35540 15039.5 35489.1 15162.2 35473.7 15238.4 35489.1 15317.8 35540 15440.5 35540 16939.5 35463.9 17123.2 35323.2 17263.9 35321.8 17264.5 35258.2 17306.2 35212.5 17372.9 35196.4 17452.2 35196.4 18389.6 35231.4 18503.5 35331.4 18651.2 35356 18680.9 35408.7 18733.7 35434.5 18796 35454 18832.2 35510.5 18915.6 35535.1 18945.3 35701.5 19111.8 35777.7 19295.5 35777.7 21344.5 35701.5 21528.2 35560.9 21668.9 35377.1 21745 33903.5 21745 33719.7 21668.9 33579.1 21528.2 33503 21344.5 33503 19255.1 33496.9 19255.1 33501.3 19210.5 33470.2 19135.9 33438.5 19089.1 33423.4 19016 33412.1 18979.2 33383.6 18910.3 33383.6 18842.9 33379.4 18801.9 33365.9 18735.9 33379.9 18662.7 33383.6 18624.3 33383.6 17452.2 33369.4 17377.4 33325.2 17309.7 33258.2 17264.5 33256.8 17263.9 33163.7 17170.8 33102.2 17128.7 33023.2 17111.3 32943.7 17126.1 32876.3 17170.8 32783.2 17263.9 32599.5 17340 30900.9 17340 30827.6 17353.7 30759.5 17397.2 30713.7 17463.9 30701.1 17526.1 30621.5 17718.2 30480.9 17858.9 30297.1 17935 28823.5 17935 28639.7 17858.9 28499.1 17718.2 28423 17534.5 28423 15485.5 28499.1 15301.8 28639.7 15161.1 28823.5 15085 30297.1 15085 30465 15154.6 30536.3 15169.9 30616.1 15156.4 30684.2 15112.8 30729.9 15046.1 30746 14966.8 30746 14366.2 31826.2 14366.2 31826.2 13386 32570.4 13386 32643.7 13372.3 32711.8 13328.8 32757.5 13262.1 32773.6 13182.8 32773.6 12570.2 33906.4 12570.2 33906.4 12936.8 33920.1 13010.1 33963.6 13078.2 34030.3 13123.9 34109.6 13140 34130.4 13140 34203.7 13126.3 34271.8 13082.8 34317.5 13016.1 34333.6 12936.8 34333.6 12313.7 34412.1 12124.1 34427.6 12046.4 34427.6 11782.8 34437.6 11758.7 34452.9 11687.4 34439.4 11607.7 34395.8 11539.6 34329.1 11493.8 34249.8 11477.8 34097.7 11477.8 34027.5 11490.3 33958.6 11532.8 33911.9 11598.7 33894.5 11677.7 33906.4 11741.5 33906.4 12417.8 32773.6 12417.8 32773.6 11777 32797.4 11753.3 32838.2 11694.8 32856.8 11616.1 32843.2 11536.4 32799.6 11468.2 32732.9 11422.5 32653.7 11406.4 31734.4 11406.4 31658.2 11421.3 31590.7 11465.9 31526.2 11530.5 31482.7 11594.9 31466.7 11674.2 31466.7 12229.2 29493.4 12229.2 29493.4 11674.2 29478.5 11597.9 29433.8 11530.5 29323.5 11420.1 29247.4 11236.4 29247.4 9872.8 29321.1 9694.9 29336.5 9618.7 29321.1 9539.3 29230 9319.5 29230 7786.6 29230.1 7786.1 29230 7785.4 29230 7780.1 29229.1 7780.1 29216.6 7706.4 29173 7638.2 29106.3 7592.5 29027 7576.4 27759.7 7576.4 27507.1 7471.8 27435.8 7456.4 27356.1 7469.9 27287.9 7513.5 27242.2 7580.2 27226.1 7659.5 27226.1 15062.8 27241 15139 27285.6 15206.5 27380.9 15301.8 27457.1 15485.5 27457.1 17534.5 27380.9 17718.2 27240.3 17858.9 27056.5 17935 25582.9 17935 25399.1 17858.9 25258.5 17718.2 25182.4 17534.5 25182.4 15485.5 25258.5 15301.8 25353.8 15206.5 25397.2 15142 25413.3 15062.8 25413.3 8009.3 25398.4 7933.1 25353.8 7865.6 24275.1 6786.9 24218 6746.8 24139.5 6727.5 24059.6 6740.5 23991.2 6783.5 23944.9 6849.8 23928.2 6929 23943.6 7008.3 23950 7023.7 23950 7576.3 23851.4 7814.3 23810.9 7854.8 23767.5 7919.2 23751.4 7998.5 23751.4 8744.7 23765.7 8819.4 23809.8 8887.2 23876.8 8932.4 24276.4 9097.9 24642.1 9463.6 24840 9941.4 24840 12058.6 24642.1 12536.4 24505.9 12672.6 24462.5 12737 24446.4 12816.2 24446.4 15500.3 24383.5 15652.2 24368 15730 24368 17308 24138.4 17862.2 23714.2 18286.4 23160 18516 22560 18516 22005.8 18286.4 21559.7 17840.4 21498.3 17798.2 21419.3 17780.9 21339.8 17795.7 21272.4 17840.4 21034.9 18077.9 20571 18270 20396.2 18270 20396.2 15923.8 19058 15923.8 19058 14741 19250.1 14277.1 19424 14103.3 19464.8 14044.8 19483.4 13966.1 19469.8 13886.4 19426.3 13818.2 19359.6 13772.5 19280.3 13756.4 18562.2 13756.4 18486 13771.3 18418.6 13815.9 16807.5 15427 16764.1 15491.4 16748 15570.6 16748 17308 16518.4 17862.2 16094.2 18286.4 15540 18516 14940 18516 14385.8 18286.4 14113.7 18014.3 14052.2 17972.2 13973.2 17954.8 13893.7 17969.7 13826.3 18014.3 13554.2 18286.4 13000 18516 12400 18516 11845.8 18286.4 11421.6 17862.2 11192 17308 11192 17109.6 11178.3 17036.4 11134.8 16968.2 11068.1 16922.5 10988.8 16906.4 9859.6 16906.4 9783.4 16921.3 9715.9 16965.9 7213.7 19468.1 6880.6 19606.1 6247.2 19606.1 6171 19621 6103.5 19665.6 6008.2 19760.9 5824.5 19837.1 3775.5 19837.1 3591.8 19760.9 3451.1 19620.3 3375 19436.5 3375 17962.9 3451.1 17779.1 3591.8 17638.5 3775.5 17562.4 5824.5 17562.4 6008.2 17638.5 6100.3 17730.5 6161.7 17772.7 6240.7 17790 6320.2 17775.2 6387.6 17730.5 8886.6 15231.6 9219.7 15093.6 10988.8 15093.6 11062.1 15079.9 11130.2 15036.4 11175.9 14969.7 11192 14890.4 11192 14692 11421.6 14137.8 11734.1 13825.3 11777.5 13760.9 11793.6 13681.6 11793.6 8562.2 11779.4 8487.4 11735.2 8419.7 11668.2 8374.5 11666.8 8373.9 11526.1 8233.2 11450 8049.5 11450 6550.5 11500.9 6427.8 11516.3 6351.6 11500.9 6272.2 11450 6149.5 11450 4650.5 11526.1 4466.8 11666.8 4326.1 11850.5 4250 13549.5 4250 13733.2 4326.1 13889.1 4482 13947.6 4522.8 14026.3 4541.4 14106.1 4527.9 14174.2 4484.3 14219.9 4417.6 14236 4338.3 14236 4206.2 16244 4206.2 16244 4842.7 16258.9 4919 16303.5 4986.4 16371.5 5054.4 16433 5096.6 16512 5113.9 16591.5 5099.1 16658.9 5054.4 16733.8 4979.5 16777.3 4915.1 16793.4 4835.8 16793.4 4280.8 18766.7 4280.8 18766.7 4835.8 18781.5 4912.1 18826.2 4979.5 18936.5 5089.9 19012.7 5273.6 19012.7 5442.2 19028.5 5520.8 19074 5587.6 19141.9 5631.5 19148.2 5632.5 19159 5636.7 19231.4 5650 19272.8 5650 19346.1 5636.3 19414.2 5592.8 19459.9 5526.1 19470 5476.2 20411.2 5476.2 20411.2 4851 20646.8 4851 20720.1 4837.3 20788.2 4793.8 20833.9 4727.1 20850 4647.8 20850 3998 20846.8 3981.9 20846.8 3670.1 20953.9 3411.7 21151.7 3213.9 21410.1 3106.8 25230.4 3106.8 25302.2 3093.7 25370.6 3050.7 25416.9 2984.3 25433.6 2905.2 25424 2855.9 25424 2703.2 25410.3 2630 25366.8 2561.8 25300.1 2516.1"/></g><use xlink:href="#C9yDfz6Yr5EmR4qT5tVF_pad-10" x="25780" y="23744"/><use xlink:href="#C9yDfz6Yr5EmR4qT5tVF_pad-10" x="25780" y="25744"/><use xlink:href="#C9yDfz6Yr5EmR4qT5tVF_pad-10" x="25780" y="27744"/><use xlink:href="#C9yDfz6Yr5EmR4qT5tVF_pad-10" x="25780" y="29744"/><use xlink:href="#C9yDfz6Yr5EmR4qT5tVF_pad-10" x="25780" y="31744"/><use xlink:href="#C9yDfz6Yr5EmR4qT5tVF_pad-10" x="25780" y="33744"/><use xlink:href="#C9yDfz6Yr5EmR4qT5tVF_pad-10" x="25780" y="35744"/><use xlink:href="#C9yDfz6Yr5EmR4qT5tVF_pad-10" x="25780" y="37744"/><use xlink:href="#C9yDfz6Yr5EmR4qT5tVF_pad-10" x="9780" y="37744"/><use xlink:href="#C9yDfz6Yr5EmR4qT5tVF_pad-10" x="9780" y="33744"/><use xlink:href="#C9yDfz6Yr5EmR4qT5tVF_pad-10" x="9780" y="35744"/><use xlink:href="#C9yDfz6Yr5EmR4qT5tVF_pad-10" x="9780" y="31744"/><use xlink:href="#C9yDfz6Yr5EmR4qT5tVF_pad-10" x="9780" y="29744"/><use xlink:href="#C9yDfz6Yr5EmR4qT5tVF_pad-10" x="9780" y="27744"/><use xlink:href="#C9yDfz6Yr5EmR4qT5tVF_pad-10" x="9780" y="25744"/><use xlink:href="#C9yDfz6Yr5EmR4qT5tVF_pad-10" x="9780" y="23744"/><use xlink:href="#C9yDfz6Yr5EmR4qT5tVF_pad-11" x="22780" y="22264"/><use xlink:href="#C9yDfz6Yr5EmR4qT5tVF_pad-11" x="20780" y="22264"/><use xlink:href="#C9yDfz6Yr5EmR4qT5tVF_pad-11" x="18780" y="22264"/><use xlink:href="#C9yDfz6Yr5EmR4qT5tVF_pad-11" x="16780" y="22264"/><use xlink:href="#C9yDfz6Yr5EmR4qT5tVF_pad-11" x="14780" y="22264"/><use xlink:href="#C9yDfz6Yr5EmR4qT5tVF_pad-11" x="12780" y="22264"/><use xlink:href="#C9yDfz6Yr5EmR4qT5tVF_pad-12" x="35240" y="12494"/><use xlink:href="#C9yDfz6Yr5EmR4qT5tVF_pad-12" x="33340" y="12494"/><use xlink:href="#C9yDfz6Yr5EmR4qT5tVF_pad-12" x="34290" y="10366"/><use xlink:href="#C9yDfz6Yr5EmR4qT5tVF_pad-13" x="12700" y="7300"/><use xlink:href="#C9yDfz6Yr5EmR4qT5tVF_pad-13" x="12700" y="5400"/><use xlink:href="#C9yDfz6Yr5EmR4qT5tVF_pad-14" x="17780" y="5955.4"/><use xlink:href="#C9yDfz6Yr5EmR4qT5tVF_pad-14" x="17780" y="4204.6"/><use xlink:href="#C9yDfz6Yr5EmR4qT5tVF_pad-15" x="35390" y="7620"/><use xlink:href="#C9yDfz6Yr5EmR4qT5tVF_pad-15" x="33190" y="6670"/><use xlink:href="#C9yDfz6Yr5EmR4qT5tVF_pad-15" x="33190" y="8570"/><path d="M 20792.5 7152.5 19877.5 7152.5 19877.5 7447.5 20792.5 7447.5 20792.5 7152.5 M 20792.5 7432.7 19877.5 7432.7 M 19877.5 6202.5 20792.5 6202.5 M 19877.5 6202.5 19877.5 6497.5 20792.5 6497.5 20792.5 6202.5 M 20792.5 6482.7 19877.5 6482.7 M 19877.5 5252.5 20792.5 5252.5 M 19877.5 5252.5 19877.5 5547.5 20792.5 5547.5 20792.5 5252.5 M 20792.5 5532.7 19877.5 5532.7 M 22387.5 5252.5 23302.5 5252.5 M 22387.5 5252.5 22387.5 5547.5 23302.5 5547.5 23302.5 5252.5 M 23302.5 5532.7 22387.5 5532.7 M 22387.5 7152.5 23302.5 7152.5 M 22387.5 7152.5 22387.5 7447.5 23302.5 7447.5 23302.5 7152.5 M 23302.5 7432.7 22387.5 7432.7" fill="none" stroke-width="295"/><use xlink:href="#C9yDfz6Yr5EmR4qT5tVF_pad-13" x="15240" y="4130"/><use xlink:href="#C9yDfz6Yr5EmR4qT5tVF_pad-13" x="15240" y="6030"/><use xlink:href="#C9yDfz6Yr5EmR4qT5tVF_pad-13" x="34290" y="16190"/><use xlink:href="#C9yDfz6Yr5EmR4qT5tVF_pad-13" x="34290" y="14290"/><use xlink:href="#C9yDfz6Yr5EmR4qT5tVF_pad-13" x="31750" y="14290"/><use xlink:href="#C9yDfz6Yr5EmR4qT5tVF_pad-13" x="31750" y="16190"/><use xlink:href="#C9yDfz6Yr5EmR4qT5tVF_pad-13" x="30480" y="8570"/><use xlink:href="#C9yDfz6Yr5EmR4qT5tVF_pad-13" x="30480" y="6670"/><use xlink:href="#C9yDfz6Yr5EmR4qT5tVF_pad-14" x="30480" y="10554.6"/><use xlink:href="#C9yDfz6Yr5EmR4qT5tVF_pad-14" x="30480" y="12305.4"/><use xlink:href="#C9yDfz6Yr5EmR4qT5tVF_pad-17" x="29560.3" y="16510"/><use xlink:href="#C9yDfz6Yr5EmR4qT5tVF_pad-17" x="26319.7" y="16510"/><use xlink:href="#C9yDfz6Yr5EmR4qT5tVF_pad-17" x="34640.3" y="20320"/><use xlink:href="#C9yDfz6Yr5EmR4qT5tVF_pad-17" x="31399.7" y="20320"/><use xlink:href="#C9yDfz6Yr5EmR4qT5tVF_pad-18" x="4800" y="21940.3"/><use xlink:href="#C9yDfz6Yr5EmR4qT5tVF_pad-18" x="4800" y="18699.7"/><use xlink:href="#C9yDfz6Yr5EmR4qT5tVF_pad-13" x="5080" y="30800"/><use xlink:href="#C9yDfz6Yr5EmR4qT5tVF_pad-13" x="5080" y="32700"/><use xlink:href="#C9yDfz6Yr5EmR4qT5tVF_pad-13" x="5080" y="25720"/><use xlink:href="#C9yDfz6Yr5EmR4qT5tVF_pad-13" x="5080" y="27620"/><use xlink:href="#C9yDfz6Yr5EmR4qT5tVF_pad-19" x="30480" y="26670"/><use xlink:href="#C9yDfz6Yr5EmR4qT5tVF_pad-19" x="33020" y="26670"/><use xlink:href="#C9yDfz6Yr5EmR4qT5tVF_pad-19" x="30480" y="29210"/><use xlink:href="#C9yDfz6Yr5EmR4qT5tVF_pad-19" x="33020" y="29210"/><use xlink:href="#C9yDfz6Yr5EmR4qT5tVF_pad-19" x="30480" y="31750"/><use xlink:href="#C9yDfz6Yr5EmR4qT5tVF_pad-19" x="33020" y="31750"/><path d="M 20320 17008 20320 14992 M 22860 14992 22860 17008 M 12700 17008 12700 14992 M 15240 14992 15240 17008" fill="none" stroke-width="2016"/><use xlink:href="#C9yDfz6Yr5EmR4qT5tVF_pad-14" x="6350" y="5474.6"/><use xlink:href="#C9yDfz6Yr5EmR4qT5tVF_pad-14" x="6350" y="7225.4"/><use xlink:href="#C9yDfz6Yr5EmR4qT5tVF_pad-21" x="1664.6" y="15685.3"/><use xlink:href="#C9yDfz6Yr5EmR4qT5tVF_pad-21" x="3415.4" y="15685.3"/><path d="M 26932 5080 28948 5080 M 28948 2540 26932 2540" fill="none" stroke-width="2016"/><use xlink:href="#C9yDfz6Yr5EmR4qT5tVF_pad-22" x="3810" y="7790"/><use xlink:href="#C9yDfz6Yr5EmR4qT5tVF_pad-22" x="2860" y="9990"/><use xlink:href="#C9yDfz6Yr5EmR4qT5tVF_pad-22" x="4760" y="9990"/><use xlink:href="#C9yDfz6Yr5EmR4qT5tVF_pad-21" x="1664.6" y="13000"/><use xlink:href="#C9yDfz6Yr5EmR4qT5tVF_pad-21" x="3415.4" y="13000"/><path d="M 23540 11800 23540 10200 M 21000 10200 21000 11800 M 18460 11800 18460 10200" fill="none" stroke-width="1600"/><path d="M 30480 6670 33190 6670 M 29210 6670 27940 6670 M 29210 6670 30480 6670" fill="none" stroke-width="812.8"/><path d="M 22845 7300 21550 7300 21550 3810" fill="none" stroke-width="400"/><path d="M 27940 5080 27940 6670 M 21000 10415 21000 11000 M 22845 8570 22845 7300 M 22845 8570 21000 10415" fill="none" stroke-width="812.8"/><path d="M 18186.8 13053.2 15240 16000 M 18186.8 13053.2 20249.1 13053.2 M 21000 12302.3 21000 11000 M 21000 12302.3 20249.1 13053.2 M 26670 5080 27940 5080 M 26670 5080 25400 3810 21550 3810" fill="none" stroke-width="406.4"/><path d="M 33270 12500 33340 12494" fill="none" stroke-width="400"/><path d="M 17780 4204.6 17705.4 4130 M 31750 12305.4 31944.6 12500 M 31750 12305.4 30480 12305.4 M 31944.6 12500 33270 12500" fill="none" stroke-width="406.4"/><path d="M 19664.7 7970.3 12700 7970.3" fill="none" stroke-width="812.8"/><path d="M 19664.7 7970.3 20335 7300" fill="none" stroke-width="400"/><path d="M 12700 7970.3 12700 16000 M 6700.3 18699.7 4800 18699.7 M 6700.3 18699.7 9400 16000 12700 16000 M 12700 7970.3 12700 7300" fill="none" stroke-width="812.8"/><path d="M 15500 6500 18000 6500 18730 6500 M 19065 6350 20335 6350 M 19065 6350 18730 6500 M 15500 6500 15240 6030 M 18000 6000 18000 6500 M 18000 6000 17780 5955.4 M 15240 6030 14600 6030 13970 5400 12700 5400" fill="none" stroke-width="400"/><path d="M 34714 14290 35240 13764 M 34714 14290 34290 14290 M 35240 13764 35240 12494 M 34290 10366 34290 10026 33190 8926 33190 8570 M 30500 8590 30500 10500 M 30500 8590 30480 8570 M 30500 10500 34270 10500 34290 10366" fill="none" stroke-width="812.8"/><path d="M 30500 10500 30480 10554.6" fill="none" stroke-width="400"/><path d="M 12770 25000 11514 23744 9780 23744 M 12770 25000 12770 32260.4 11286.4 33744 9780 33744 M 2540 34290 1270 33020 M 2540 34290 6694 34290 M 7240 33744 9780 33744 M 7240 33744 6694 34290 M 1270 15240 1270 12700 1270 11430" fill="none" stroke-width="812.8"/><path d="M 35560 26670 38100 24130" fill="none" stroke-width="400"/><path d="M 1270 11430 1270 10160 1270 7620" fill="none" stroke-width="812.8"/><path d="M 1270 7620 8690 700 31025.8 700 38100 7774.2 38100 24130 M 35560 26670 33020 26670 M 1664.6 15634.6 1270 15240 M 1664.6 15634.6 1664.6 15685.3" fill="none" stroke-width="400"/><path d="M 1270 15240 1270 33020" fill="none" stroke-width="812.8"/><path d="M 2690 10160 2860 9990" fill="none" stroke-width="406.4"/><path d="M 2690 10160 1270 10160" fill="none" stroke-width="812.8"/><path d="M 1364.6 12700 1664.6 13000 M 1364.6 12700 1270 12700" fill="none" stroke-width="406.4"/><path d="M 29570.3 16500 30230 16500 M 30480 16190 31750 16190 M 30480 16190 30230 16500" fill="none" stroke-width="812.8"/><path d="M 29570.3 16500 29560.3 16510" fill="none" stroke-width="400"/><path d="M 31750 16190 34290 16190 M 34640.3 19247.1 34640.3 20320 M 34640.3 19247.1 34290 18730 34290 16190 M 9780 27744 7700 27744 M 30129.7 20320 31399.7 20320 M 30129.7 20320 29809.7 20000 9697.6 20000 M 7700 21897.6 7700 27744 M 7700 21897.6 9697.6 20000 M 24170 5400 26319.7 7549.7 26319.7 16510 M 24170 5400 22845 5400 M 5080 32700 2610 32700 2610 24390 M 2610 24130.3 4800 21940.3 M 2610 24130.3 2610 24390 M 5080 27620 5080 30800 M 7913.3 29744 5789.3 27620 5080 27620 M 7913.3 29744 9780 29744 M 29796 37744 33020 34520 M 29796 37744 25780 37744 M 33020 34520 33020 31750 M 30480 34290 29026 35744 25780 35744 M 30480 34290 30480 31750 M 35770 33770 35770 29210 M 11000.4 39300 9780 37780 9780 37744 M 33020 29210 35770 29210 M 35770 33770 30539.6 39300 11000.4 39300 M 25780 29744 27406 29744 27940 29210 30480 29210" fill="none" stroke-width="812.8"/><path d="M 35390 7620 35390 6610 30480 1800 M 27940 1800 8890 1800 M 27940 1800 29210 1800 30480 1800 M 27940 1800 27940 2540" fill="none" stroke-width="400"/><path d="M 8890 1800 6350 4340 6350 5474.6 M 3810 6350 3810 7790 M 3810 6350 4685.4 5474.6 6350 5474.6" fill="none" stroke-width="406.4"/><path d="M 23540 11000 23540 15320 22860 16000" fill="none" stroke-width="812.8"/><path d="M 0 0 40000 0 40000 40000 0 40000 0 0" fill="none" stroke-width="254"/></g></svg>