<svg version="1.1" xmlns="http://www.w3.org/2000/svg" xmlns:xlink="http://www.w3.org/1999/xlink" stroke-linecap="round" stroke-linejoin="round" stroke-width="0" fill-rule="evenodd" width="40.254mm" height="46.991mm" viewBox="-127 -127 40254 46991" id="RU7oudVUz-0BgUjHe83K"><defs><circle cx="0" cy="0" r="250" id="RU7oudVUz-0BgUjHe83K_pad-12"/></defs><g transform="translate(0,46737) scale(1,-1)" fill="currentColor" stroke="currentColor"><path d="M 9280 46764 26280 46764 M 9280 22764 9280 21764 11780 21764 M 23780 21764 26280 21764 26280 22764 M 9280 38764 9280 46764 M 26280 46764 26280 38764" fill="none" stroke-width="200"/><path d="M 5811.1 38616.3 5811.1 37845.8 5811.3 37835.1 5811.9 37824.4 5812.8 37813.8 5814.2 37803.2 5815.9 37792.6 5818 37782.1 5820.5 37771.7 5823.4 37761.4 5826.6 37751.2 5830.2 37741.1 5834.2 37731.2 5838.5 37721.4 5843.2 37711.8 5848.2 37702.3 5853.5 37693 5859.2 37684 5865.2 37675.1 5871.5 37666.5 5878.1 37658.1 5885.1 37649.9 5892.3 37642 5899.8 37634.4 5907.6 37627 5915.6 37620 5923.9 37613.2 5932.4 37606.7 5941.1 37600.6 5950.1 37594.7 5959.2 37589.2 5968.6 37584 5978.2 37579.2 5987.9 37574.7 5997.7 37570.5 6007.7 37566.8 6017.9 37563.3 6028.1 37560.3 6038.5 37557.6 6048.9 37555.3 6059.5 37553.4 6070.1 37551.9 6080.7 37550.7 6091.4 37549.9 6102.1 37549.5 6112.7 37549.5 6123.4 37549.9 6134.1 37550.7 6144.7 37551.9 6155.3 37553.4 6165.9 37555.3 6176.3 37557.6 6186.7 37560.3 6196.9 37563.3 6207.1 37566.8 6217.1 37570.5 6226.9 37574.7 6236.6 37579.2 6246.2 37584 6255.5 37589.2 6264.7 37594.7 6273.7 37600.6 6282.4 37606.7 6290.9 37613.2 6299.2 37620 6307.2 37627 6315 37634.4 6322.5 37642 6329.7 37649.9 6336.7 37658.1 6343.3 37666.5 6349.6 37675.1 6355.6 37684 6361.3 37693 6366.6 37702.3 6371.6 37711.8 6376.3 37721.4 6380.6 37731.2 6384.6 37741.1 6388.2 37751.2 6391.4 37761.4 6394.3 37771.7 6396.8 37782.1 6398.9 37792.6 6400.6 37803.2 6402 37813.8 6402.9 37824.4 6403.5 37835.1 6403.7 37845.8 6403.7 38616.3 M 6992.2 38379.2 7288.5 38616.3 7288.5 37549.5 M 6992.2 37549.5 7584.8 37549.5" fill="none" stroke-width="203.2"/><use xlink:href="#RU7oudVUz-0BgUjHe83K_pad-12" x="36056.4" y="12634"/><path d="M 35866.4 12130 35866.4 10730 34856.4 10730 M 32713.6 10730 32713.6 12130 M 32713.6 10730 33723.6 10730" fill="none" stroke-width="120"/><path d="M 36163.2 10669.3 36163.2 11143.5 36163.4 11154.2 36164 11164.9 36164.9 11175.5 36166.3 11186.1 36168 11196.7 36170.1 11207.2 36172.6 11217.6 36175.5 11227.9 36178.7 11238.1 36182.3 11248.2 36186.3 11258.1 36190.6 11267.9 36195.3 11277.5 36200.3 11287 36205.6 11296.3 36211.3 11305.3 36217.3 11314.2 36223.6 11322.8 36230.2 11331.2 36237.2 11339.4 36244.4 11347.3 36251.9 11354.9 36259.7 11362.3 36267.7 11369.3 36276 11376.1 36284.5 11382.6 36293.2 11388.7 36302.2 11394.6 36311.4 11400.1 36320.7 11405.3 36330.3 11410.1 36340 11414.6 36349.8 11418.8 36359.8 11422.5 36370 11426 36380.2 11429 36390.6 11431.7 36401 11434 36411.6 11435.9 36422.2 11437.4 36432.8 11438.6 36443.5 11439.4 36454.2 11439.8 36464.8 11439.8 36475.5 11439.4 36486.2 11438.6 36496.8 11437.4 36507.4 11435.9 36518 11434 36528.4 11431.7 36538.8 11429 36549 11426 36559.2 11422.5 36569.2 11418.8 36579 11414.6 36588.7 11410.1 36598.3 11405.3 36607.7 11400.1 36616.8 11394.6 36625.8 11388.7 36634.5 11382.6 36643 11376.1 36651.3 11369.3 36659.3 11362.3 36667.1 11354.9 36674.6 11347.3 36681.8 11339.4 36688.8 11331.2 36695.4 11322.8 36701.7 11314.2 36707.7 11305.3 36713.4 11296.3 36718.7 11287 36723.7 11277.5 36728.4 11267.9 36732.7 11258.1 36736.7 11248.2 36740.3 11238.1 36743.5 11227.9 36746.4 11217.6 36748.9 11207.2 36751 11196.7 36752.7 11186.1 36754.1 11175.5 36755 11164.9 36755.6 11154.2 36755.8 11143.5 36755.8 10669.3 36755.6 10658.6 36755 10647.9 36754.1 10637.3 36752.7 10626.7 36751 10616.1 36748.9 10605.6 36746.4 10595.2 36743.5 10584.9 36740.3 10574.7 36736.7 10564.6 36732.7 10554.7 36728.4 10544.9 36723.7 10535.3 36718.7 10525.8 36713.4 10516.5 36707.7 10507.5 36701.7 10498.6 36695.4 10490 36688.8 10481.6 36681.8 10473.4 36674.6 10465.5 36667.1 10457.9 36659.3 10450.5 36651.3 10443.5 36643 10436.7 36634.5 10430.2 36625.8 10424.1 36616.8 10418.2 36607.7 10412.7 36598.3 10407.5 36588.7 10402.7 36579 10398.2 36569.2 10394 36559.2 10390.3 36549 10386.8 36538.8 10383.8 36528.4 10381.1 36518 10378.8 36507.4 10376.9 36496.8 10375.4 36486.2 10374.2 36475.5 10373.4 36464.8 10373 36454.2 10373 36443.5 10373.4 36432.8 10374.2 36422.2 10375.4 36411.6 10376.9 36401 10378.8 36390.6 10381.1 36380.2 10383.8 36370 10386.8 36359.8 10390.3 36349.8 10394 36340 10398.2 36330.3 10402.7 36320.7 10407.5 36311.4 10412.7 36302.2 10418.2 36293.2 10424.1 36284.5 10430.2 36276 10436.7 36267.7 10443.5 36259.7 10450.5 36251.9 10457.9 36244.4 10465.5 36237.2 10473.4 36230.2 10481.6 36223.6 10490 36217.3 10498.6 36211.3 10507.5 36205.6 10516.5 36200.3 10525.8 36195.3 10535.3 36190.6 10544.9 36186.3 10554.7 36182.3 10564.6 36178.7 10574.7 36175.5 10584.9 36172.6 10595.2 36170.1 10605.6 36168 10616.1 36166.3 10626.7 36164.9 10637.3 36164 10647.9 36163.4 10658.6 36163.2 10669.3 M 36637.3 10610.1 36874.4 10373 M 37244.2 11202.7 37540.5 11439.8 37540.5 10373 M 37244.2 10373 37836.9 10373 M 12166.6 9738.4 12166.6 8671.6 M 12166.6 9738.4 12462.9 9738.4 12473.6 9738.2 12484.3 9737.6 12494.9 9736.7 12505.5 9735.3 12516.1 9733.6 12526.6 9731.5 12537 9729 12547.3 9726.1 12557.5 9722.9 12567.6 9719.3 12577.5 9715.3 12587.3 9711 12596.9 9706.3 12606.4 9701.3 12615.7 9696 12624.7 9690.3 12633.6 9684.3 12642.2 9678 12650.6 9671.4 12658.8 9664.4 12666.7 9657.2 12674.3 9649.7 12681.7 9641.9 12688.7 9633.9 12695.5 9625.6 12702 9617.1 12708.1 9608.4 12714 9599.4 12719.5 9590.2 12724.7 9580.9 12729.5 9571.3 12734 9561.6 12738.2 9551.8 12741.9 9541.8 12745.4 9531.6 12748.4 9521.4 12751.1 9511 12753.4 9500.6 12755.3 9490 12756.8 9479.4 12758 9468.8 12758.8 9458.1 12759.2 9447.4 12759.2 9436.8 12758.8 9426.1 12758 9415.4 12756.8 9404.8 12755.3 9394.2 12753.4 9383.6 12751.1 9373.2 12748.4 9362.8 12745.4 9352.6 12741.9 9342.4 12738.2 9332.4 12734 9322.6 12729.5 9312.9 12724.7 9303.3 12719.5 9293.9 12714 9284.8 12708.1 9275.8 12702 9267.1 12695.5 9258.6 12688.7 9250.3 12681.7 9242.3 12674.3 9234.5 12666.7 9227 12658.8 9219.8 12650.6 9212.8 12642.2 9206.2 12633.6 9199.9 12624.7 9193.9 12615.7 9188.2 12606.4 9182.9 12596.9 9177.9 12587.3 9173.2 12577.5 9168.9 12567.6 9164.9 12557.5 9161.3 12547.3 9158.1 12537 9155.2 12526.6 9152.7 12516.1 9150.6 12505.5 9148.9 12494.9 9147.5 12484.3 9146.6 12473.6 9146 12462.9 9145.8 M 12462.9 9145.7 12166.6 9145.7 M 12522.2 9145.7 12759.3 8671.6 M 13298.6 9501.3 13594.9 9738.4 13594.9 8671.6 M 13298.6 8671.6 13891.2 8671.6" fill="none" stroke-width="203.2"/><path d="M 18826.7 6180 18826.7 3980 M 16733.3 3980 16733.3 6180" fill="none" stroke-width="127"/><path d="M 17242 7401.6 17479.1 7401.6 M 17242 7401.6 17232.5 7401.8 17222.9 7402.4 17213.4 7403.3 17204 7404.7 17194.6 7406.4 17185.3 7408.5 17176 7411 17166.9 7413.8 17157.9 7417 17149.1 7420.6 17140.4 7424.5 17131.8 7428.8 17123.5 7433.4 17115.3 7438.3 17107.3 7443.6 17099.6 7449.2 17092 7455 17084.8 7461.2 17077.8 7467.7 17071 7474.5 17064.5 7481.5 17058.3 7488.7 17052.5 7496.3 17046.9 7504 17041.6 7512 17036.7 7520.2 17032.1 7528.5 17027.8 7537.1 17023.9 7545.8 17020.3 7554.6 17017.1 7563.6 17014.3 7572.7 17011.8 7582 17009.7 7591.3 17008 7600.7 17006.6 7610.1 17005.7 7619.6 17005.1 7629.2 17004.9 7638.7 17004.9 8231.3 17005.1 8240.8 17005.7 8250.4 17006.6 8259.9 17008 8269.3 17009.7 8278.7 17011.8 8288 17014.3 8297.3 17017.1 8306.4 17020.3 8315.4 17023.9 8324.2 17027.8 8332.9 17032.1 8341.5 17036.7 8349.8 17041.6 8358 17046.9 8366 17052.5 8373.7 17058.3 8381.3 17064.5 8388.5 17071 8395.5 17077.8 8402.3 17084.8 8408.8 17092 8415 17099.6 8420.8 17107.3 8426.4 17115.3 8431.7 17123.4 8436.6 17131.8 8441.2 17140.4 8445.5 17149.1 8449.4 17157.9 8453 17166.9 8456.2 17176 8459 17185.3 8461.5 17194.6 8463.6 17204 8465.3 17213.4 8466.7 17222.9 8467.6 17232.4 8468.2 17242 8468.4 17479.1 8468.4 M 17962.4 8231.3 18258.7 8468.4 18258.7 7401.6 M 17962.4 7401.6 18555.1 7401.6 M 36296.6 6587.1 36296.6 6112.9 M 36296.6 6587.1 36296.8 6597.8 36297.4 6608.5 36298.3 6619.1 36299.7 6629.7 36301.4 6640.3 36303.5 6650.8 36306 6661.2 36308.9 6671.5 36312.1 6681.7 36315.7 6691.8 36319.7 6701.7 36324 6711.5 36328.7 6721.1 36333.7 6730.6 36339 6739.9 36344.7 6748.9 36350.7 6757.8 36357 6766.4 36363.6 6774.8 36370.6 6783 36377.8 6790.9 36385.3 6798.5 36393.1 6805.9 36401.1 6812.9 36409.4 6819.7 36417.9 6826.2 36426.6 6832.3 36435.6 6838.2 36444.8 6843.7 36454.1 6848.9 36463.7 6853.7 36473.4 6858.2 36483.2 6862.4 36493.2 6866.1 36503.4 6869.6 36513.6 6872.6 36524 6875.3 36534.4 6877.6 36545 6879.5 36555.6 6881 36566.2 6882.2 36576.9 6883 36587.6 6883.4 36598.2 6883.4 36608.9 6883 36619.6 6882.2 36630.2 6881 36640.8 6879.5 36651.4 6877.6 36661.8 6875.3 36672.2 6872.6 36682.4 6869.6 36692.6 6866.1 36702.6 6862.4 36712.4 6858.2 36722.1 6853.7 36731.7 6848.9 36741.1 6843.7 36750.2 6838.2 36759.2 6832.3 36767.9 6826.2 36776.4 6819.7 36784.7 6812.9 36792.7 6805.9 36800.5 6798.5 36808 6790.9 36815.2 6783 36822.2 6774.8 36828.8 6766.4 36835.1 6757.8 36841.1 6748.9 36846.8 6739.9 36852.1 6730.6 36857.1 6721.1 36861.8 6711.5 36866.1 6701.7 36870.1 6691.8 36873.7 6681.7 36876.9 6671.5 36879.8 6661.2 36882.3 6650.8 36884.4 6640.3 36886.1 6629.7 36887.5 6619.1 36888.4 6608.5 36889 6597.8 36889.2 6587.1 M 36889.3 6587.1 36889.3 6112.9 M 36889.2 6112.9 36889 6102.2 36888.4 6091.5 36887.5 6080.9 36886.1 6070.3 36884.4 6059.7 36882.3 6049.2 36879.8 6038.8 36876.9 6028.5 36873.7 6018.3 36870.1 6008.2 36866.1 5998.3 36861.8 5988.5 36857.1 5978.9 36852.1 5969.4 36846.8 5960.1 36841.1 5951.1 36835.1 5942.2 36828.8 5933.6 36822.2 5925.2 36815.2 5917 36808 5909.1 36800.5 5901.5 36792.7 5894.1 36784.7 5887.1 36776.4 5880.3 36767.9 5873.8 36759.2 5867.7 36750.2 5861.8 36741.1 5856.3 36731.7 5851.1 36722.1 5846.3 36712.4 5841.8 36702.6 5837.6 36692.6 5833.9 36682.4 5830.4 36672.2 5827.4 36661.8 5824.7 36651.4 5822.4 36640.8 5820.5 36630.2 5819 36619.6 5817.8 36608.9 5817 36598.2 5816.6 36587.6 5816.6 36576.9 5817 36566.2 5817.8 36555.6 5819 36545 5820.5 36534.4 5822.4 36524 5824.7 36513.6 5827.4 36503.4 5830.4 36493.2 5833.9 36483.2 5837.6 36473.4 5841.8 36463.7 5846.3 36454.1 5851.1 36444.8 5856.3 36435.6 5861.8 36426.6 5867.7 36417.9 5873.8 36409.4 5880.3 36401.1 5887.1 36393.1 5894.1 36385.3 5901.5 36377.8 5909.1 36370.6 5917 36363.6 5925.2 36357 5933.6 36350.7 5942.2 36344.7 5951.1 36339 5960.1 36333.7 5969.4 36328.7 5978.9 36324 5988.5 36319.7 5998.3 36315.7 6008.2 36312.1 6018.3 36308.9 6028.5 36306 6038.8 36303.5 6049.2 36301.4 6059.7 36299.7 6070.3 36298.3 6080.9 36297.4 6091.5 36296.8 6102.2 36296.6 6112.9 M 36770.7 6053.7 37007.8 5816.6 M 37970.3 6616.7 37970.1 6626.9 37969.5 6637.1 37968.5 6647.3 37967.2 6657.4 37965.4 6667.5 37963.3 6677.5 37960.8 6687.4 37957.9 6697.2 37954.6 6706.8 37951 6716.4 37947 6725.8 37942.6 6735 37937.9 6744.1 37932.8 6753 37927.5 6761.7 37921.7 6770.1 37915.7 6778.4 37909.4 6786.4 37902.7 6794.1 37895.8 6801.6 37888.5 6808.9 37881 6815.8 37873.3 6822.5 37865.3 6828.8 37857 6834.8 37848.6 6840.6 37839.9 6845.9 37831 6851 37821.9 6855.7 37812.7 6860.1 37803.3 6864.1 37793.7 6867.7 37784.1 6871 37774.3 6873.9 37764.4 6876.4 37754.4 6878.5 37744.3 6880.3 37734.2 6881.6 37724 6882.6 37713.8 6883.2 37703.6 6883.4 37692 6883.2 37680.3 6882.6 37668.7 6881.6 37657.2 6880.2 37645.7 6878.5 37634.2 6876.3 37622.9 6873.7 37611.6 6870.8 37600.4 6867.5 37589.4 6863.8 37578.5 6859.7 37567.7 6855.3 37557.1 6850.5 37546.7 6845.3 37536.4 6839.8 37526.3 6834 37516.5 6827.8 37506.8 6821.3 37497.4 6814.4 37488.2 6807.2 37479.3 6799.8 37470.6 6792 37462.2 6783.9 37454.1 6775.6 37446.3 6767 37438.7 6758.1 37431.5 6749 37424.6 6739.6 37418 6730 37411.7 6720.2 37405.8 6710.2 37400.2 6700 37395 6689.6 37390.1 6679 37385.6 6668.3 37381.4 6657.4 37377.7 6646.4 M 37881.5 6409.2 37889 6416.6 37896.2 6424.3 37903.1 6432.3 37909.8 6440.5 37916.1 6448.9 37922.1 6457.6 37927.8 6466.4 37933.2 6475.5 37938.2 6484.8 37942.9 6494.2 37947.2 6503.8 37951.2 6513.6 37954.8 6523.5 37958.1 6533.5 37960.9 6543.7 37963.4 6553.9 37965.6 6564.3 37967.3 6574.7 37968.7 6585.1 37969.6 6595.6 37970.2 6606.2 37970.4 6616.7 M 37881.4 6409.3 37377.6 5816.6 37970.3 5816.6" fill="none" stroke-width="203.2"/><path d="M 19080 7400 19080.2 7406.3 19080.8 7412.5 19081.8 7418.7 19083.1 7424.9 19084.9 7430.9 19087 7436.8 19089.5 7442.6 19092.4 7448.2 19095.6 7453.6 19099.1 7458.8 19102.9 7463.7 19107.1 7468.5 19111.5 7472.9 19116.3 7477.1 19121.2 7480.9 19126.4 7484.4 19131.8 7487.6 19137.4 7490.5 19143.2 7493 19149.1 7495.1 19155.1 7496.9 19161.3 7498.2 19167.5 7499.2 19173.7 7499.8 19180 7500 19186.3 7499.8 19192.5 7499.2 19198.7 7498.2 19204.9 7496.9 19210.9 7495.1 19216.8 7493 19222.6 7490.5 19228.2 7487.6 19233.6 7484.4 19238.8 7480.9 19243.7 7477.1 19248.5 7472.9 19252.9 7468.5 19257.1 7463.7 19260.9 7458.8 19264.4 7453.6 19267.6 7448.2 19270.5 7442.6 19273 7436.8 19275.1 7430.9 19276.9 7424.9 19278.2 7418.7 19279.2 7412.5 19279.8 7406.3 19280 7400 19279.8 7393.7 19279.2 7387.5 19278.2 7381.3 19276.9 7375.1 19275.1 7369.1 19273 7363.2 19270.5 7357.4 19267.6 7351.8 19264.4 7346.4 19260.9 7341.2 19257.1 7336.3 19252.9 7331.5 19248.5 7327.1 19243.7 7322.9 19238.8 7319.1 19233.6 7315.6 19228.2 7312.4 19222.6 7309.5 19216.8 7307 19210.9 7304.9 19204.9 7303.1 19198.7 7301.8 19192.5 7300.8 19186.3 7300.2 19180 7300 19173.7 7300.2 19167.5 7300.8 19161.3 7301.8 19155.1 7303.1 19149.1 7304.9 19143.2 7307 19137.4 7309.5 19131.8 7312.4 19126.4 7315.6 19121.2 7319.1 19116.3 7322.9 19111.5 7327.1 19107.1 7331.5 19102.9 7336.3 19099.1 7341.2 19095.6 7346.4 19092.4 7351.8 19089.5 7357.4 19087 7363.2 19084.9 7369.1 19083.1 7375.1 19081.8 7381.3 19080.8 7387.5 19080.2 7393.7 19080 7400" fill="none" stroke-width="200"/><path d="M 21260 7800 21920 7800 M 22390 6685 22390 6015 M 21920 4900 21260 4900" fill="none" stroke-width="127"/><path d="M 20361.6 4438.4 20361.6 3667.9 20361.8 3657.2 20362.4 3646.5 20363.3 3635.9 20364.7 3625.3 20366.4 3614.7 20368.5 3604.2 20371 3593.8 20373.9 3583.5 20377.1 3573.3 20380.7 3563.2 20384.7 3553.3 20389 3543.5 20393.7 3533.9 20398.7 3524.4 20404 3515.1 20409.7 3506.1 20415.7 3497.2 20422 3488.6 20428.6 3480.2 20435.6 3472 20442.8 3464.1 20450.3 3456.5 20458.1 3449.1 20466.1 3442.1 20474.4 3435.3 20482.9 3428.8 20491.6 3422.7 20500.6 3416.8 20509.8 3411.3 20519.1 3406.1 20528.7 3401.3 20538.4 3396.8 20548.2 3392.6 20558.2 3388.9 20568.4 3385.4 20578.6 3382.4 20589 3379.7 20599.4 3377.4 20610 3375.5 20620.6 3374 20631.2 3372.8 20641.9 3372 20652.6 3371.6 20663.2 3371.6 20673.9 3372 20684.6 3372.8 20695.2 3374 20705.8 3375.5 20716.4 3377.4 20726.8 3379.7 20737.2 3382.4 20747.4 3385.4 20757.6 3388.9 20767.6 3392.6 20777.4 3396.8 20787.1 3401.3 20796.7 3406.1 20806 3411.3 20815.2 3416.8 20824.2 3422.7 20832.9 3428.8 20841.4 3435.3 20849.7 3442.1 20857.7 3449.1 20865.5 3456.5 20873 3464.1 20880.2 3472 20887.2 3480.2 20893.8 3488.6 20900.1 3497.2 20906.1 3506.1 20911.8 3515.1 20917.1 3524.4 20922.1 3533.9 20926.8 3543.5 20931.1 3553.3 20935.1 3563.2 20938.7 3573.3 20941.9 3583.5 20944.8 3593.8 20947.3 3604.2 20949.4 3614.7 20951.1 3625.3 20952.5 3635.9 20953.4 3646.5 20954 3657.2 20954.2 3667.9 M 20954.3 3667.9 20954.3 4438.4 M 21868.7 4438.4 21878.9 4438.2 21889.1 4437.6 21899.3 4436.6 21909.4 4435.3 21919.5 4433.5 21929.5 4431.4 21939.4 4428.9 21949.2 4426 21958.8 4422.7 21968.4 4419.1 21977.8 4415.1 21987 4410.7 21996.1 4406 22005 4400.9 22013.7 4395.6 22022.1 4389.8 22030.4 4383.8 22038.4 4377.5 22046.1 4370.8 22053.6 4363.9 22060.9 4356.6 22067.8 4349.1 22074.5 4341.4 22080.8 4333.4 22086.8 4325.1 22092.6 4316.7 22097.9 4308 22103 4299.1 22107.7 4290 22112.1 4280.8 22116.1 4271.4 22119.7 4261.8 22123 4252.2 22125.9 4242.4 22128.4 4232.5 22130.5 4222.5 22132.3 4212.4 22133.6 4202.3 22134.6 4192.1 22135.2 4181.9 22135.4 4171.7 M 21868.7 4438.4 21857.1 4438.2 21845.4 4437.6 21833.8 4436.6 21822.3 4435.2 21810.8 4433.5 21799.3 4431.3 21788 4428.7 21776.7 4425.8 21765.5 4422.5 21754.5 4418.8 21743.6 4414.7 21732.8 4410.3 21722.2 4405.5 21711.8 4400.3 21701.5 4394.8 21691.4 4389 21681.6 4382.8 21671.9 4376.3 21662.5 4369.4 21653.3 4362.2 21644.4 4354.8 21635.7 4347 21627.3 4338.9 21619.2 4330.6 21611.4 4322 21603.8 4313.1 21596.6 4304 21589.7 4294.6 21583.1 4285 21576.8 4275.2 21570.9 4265.2 21565.3 4255 21560.1 4244.6 21555.2 4234 21550.7 4223.3 21546.5 4212.4 21542.8 4201.4 M 22046.5 3964.2 22054 3971.6 22061.2 3979.3 22068.1 3987.3 22074.8 3995.5 22081.1 4003.9 22087.1 4012.6 22092.8 4021.4 22098.2 4030.5 22103.2 4039.8 22107.9 4049.2 22112.2 4058.8 22116.2 4068.6 22119.8 4078.5 22123.1 4088.5 22125.9 4098.7 22128.4 4108.9 22130.6 4119.3 22132.3 4129.7 22133.7 4140.1 22134.6 4150.6 22135.2 4161.2 22135.4 4171.7 M 22046.5 3964.3 21542.7 3371.6 22135.4 3371.6 M 14706.6 7401.6 14706.6 8468.4 15002.9 8468.4 15013.6 8468.2 15024.3 8467.6 15034.9 8466.7 15045.5 8465.3 15056.1 8463.6 15066.6 8461.5 15077 8459 15087.3 8456.1 15097.5 8452.9 15107.6 8449.3 15117.5 8445.3 15127.3 8441 15136.9 8436.3 15146.4 8431.3 15155.7 8426 15164.7 8420.3 15173.6 8414.3 15182.2 8408 15190.6 8401.4 15198.8 8394.4 15206.7 8387.2 15214.3 8379.7 15221.7 8371.9 15228.7 8363.9 15235.5 8355.6 15242 8347.1 15248.1 8338.4 15254 8329.4 15259.5 8320.2 15264.7 8310.9 15269.5 8301.3 15274 8291.6 15278.2 8281.8 15281.9 8271.8 15285.4 8261.6 15288.4 8251.4 15291.1 8241 15293.4 8230.6 15295.3 8220 15296.8 8209.4 15298 8198.8 15298.8 8188.1 15299.2 8177.4 15299.2 8166.8 15298.8 8156.1 15298 8145.4 15296.8 8134.8 15295.3 8124.2 15293.4 8113.6 15291.1 8103.2 15288.4 8092.8 15285.4 8082.6 15281.9 8072.4 15278.2 8062.4 15274 8052.6 15269.5 8042.9 15264.7 8033.3 15259.5 8023.9 15254 8014.8 15248.1 8005.8 15242 7997.1 15235.5 7988.6 15228.7 7980.3 15221.7 7972.3 15214.3 7964.5 15206.7 7957 15198.8 7949.8 15190.6 7942.8 15182.2 7936.2 15173.6 7929.9 15164.7 7923.9 15155.7 7918.2 15146.4 7912.9 15136.9 7907.9 15127.3 7903.2 15117.5 7898.9 15107.6 7894.9 15097.5 7891.3 15087.3 7888.1 15077 7885.2 15066.6 7882.7 15056.1 7880.6 15045.5 7878.9 15034.9 7877.5 15024.3 7876.6 15013.6 7876 15002.9 7875.8 M 15002.9 7875.7 14706.6 7875.7 M 15062.2 7875.7 15299.3 7401.6 M 16164.5 8468.4 16174.7 8468.2 16184.9 8467.6 16195.1 8466.6 16205.2 8465.3 16215.3 8463.5 16225.3 8461.4 16235.2 8458.9 16245 8456 16254.6 8452.7 16264.2 8449.1 16273.6 8445.1 16282.8 8440.7 16291.9 8436 16300.8 8430.9 16309.5 8425.6 16317.9 8419.8 16326.2 8413.8 16334.2 8407.5 16341.9 8400.8 16349.4 8393.9 16356.7 8386.6 16363.6 8379.1 16370.3 8371.4 16376.6 8363.4 16382.6 8355.1 16388.4 8346.7 16393.7 8338 16398.8 8329.1 16403.5 8320 16407.9 8310.8 16411.9 8301.4 16415.5 8291.8 16418.8 8282.2 16421.7 8272.4 16424.2 8262.5 16426.3 8252.5 16428.1 8242.4 16429.4 8232.3 16430.4 8222.1 16431 8211.9 16431.2 8201.7 M 16164.5 8468.4 16152.9 8468.2 16141.2 8467.6 16129.6 8466.6 16118.1 8465.2 16106.6 8463.5 16095.1 8461.3 16083.8 8458.7 16072.5 8455.8 16061.3 8452.5 16050.3 8448.8 16039.4 8444.7 16028.6 8440.3 16018 8435.5 16007.6 8430.3 15997.3 8424.8 15987.2 8419 15977.4 8412.8 15967.7 8406.3 15958.3 8399.4 15949.1 8392.2 15940.2 8384.8 15931.5 8377 15923.1 8368.9 15915 8360.6 15907.2 8352 15899.6 8343.1 15892.4 8334 15885.5 8324.6 15878.9 8315 15872.6 8305.2 15866.7 8295.2 15861.1 8285 15855.9 8274.6 15851 8264 15846.5 8253.3 15842.3 8242.4 15838.6 8231.4 M 16342.4 7994.2 16349.9 8001.6 16357.1 8009.3 16364 8017.3 16370.7 8025.5 16377 8033.9 16383 8042.6 16388.7 8051.4 16394.1 8060.5 16399.1 8069.8 16403.8 8079.2 16408.1 8088.8 16412.1 8098.6 16415.7 8108.5 16419 8118.5 16421.8 8128.7 16424.3 8138.9 16426.5 8149.3 16428.2 8159.7 16429.6 8170.1 16430.5 8180.6 16431.1 8191.2 16431.3 8201.7 M 16342.3 7994.3 15838.6 7401.6 16431.2 7401.6 M 35638.8 14831.6 35638.8 15898.4 35935.1 15898.4 35945.8 15898.2 35956.5 15897.6 35967.1 15896.7 35977.7 15895.3 35988.3 15893.6 35998.8 15891.5 36009.2 15889 36019.5 15886.1 36029.7 15882.9 36039.8 15879.3 36049.7 15875.3 36059.5 15871 36069.1 15866.3 36078.6 15861.3 36087.9 15856 36096.9 15850.3 36105.8 15844.3 36114.4 15838 36122.8 15831.4 36131 15824.4 36138.9 15817.2 36146.5 15809.7 36153.9 15801.9 36160.9 15793.9 36167.7 15785.6 36174.2 15777.1 36180.3 15768.4 36186.2 15759.4 36191.7 15750.2 36196.9 15740.9 36201.7 15731.3 36206.2 15721.6 36210.4 15711.8 36214.1 15701.8 36217.6 15691.6 36220.6 15681.4 36223.3 15671 36225.6 15660.6 36227.5 15650 36229 15639.4 36230.2 15628.8 36231 15618.1 36231.4 15607.4 36231.4 15596.8 36231 15586.1 36230.2 15575.4 36229 15564.8 36227.5 15554.2 36225.6 15543.6 36223.3 15533.2 36220.6 15522.8 36217.6 15512.6 36214.1 15502.4 36210.4 15492.4 36206.2 15482.6 36201.7 15472.9 36196.9 15463.3 36191.7 15454 36186.2 15444.8 36180.3 15435.8 36174.2 15427.1 36167.7 15418.6 36160.9 15410.3 36153.9 15402.3 36146.5 15394.5 36138.9 15387 36131 15379.8 36122.8 15372.8 36114.4 15366.2 36105.8 15359.9 36096.9 15353.9 36087.9 15348.2 36078.6 15342.9 36069.1 15337.9 36059.5 15333.2 36049.7 15328.9 36039.8 15324.9 36029.7 15321.3 36019.5 15318.1 36009.2 15315.2 35998.8 15312.7 35988.3 15310.6 35977.7 15308.9 35967.1 15307.5 35956.5 15306.6 35945.8 15306 35935.1 15305.8 M 35935.1 15305.7 35638.8 15305.7 M 35994.4 15305.7 36231.4 14831.6 M 36770.7 14831.6 37067.1 14831.6 37077.8 14831.8 37088.5 14832.4 37099.1 14833.3 37109.7 14834.7 37120.3 14836.4 37130.8 14838.5 37141.2 14841 37151.5 14843.9 37161.7 14847.1 37171.8 14850.7 37181.7 14854.7 37191.5 14859 37201.1 14863.7 37210.6 14868.7 37219.9 14874 37228.9 14879.7 37237.8 14885.7 37246.4 14892 37254.8 14898.6 37263 14905.6 37270.9 14912.8 37278.5 14920.3 37285.9 14928.1 37292.9 14936.1 37299.7 14944.4 37306.2 14952.9 37312.3 14961.6 37318.2 14970.6 37323.7 14979.8 37328.9 14989.1 37333.7 14998.7 37338.2 15008.4 37342.4 15018.2 37346.1 15028.2 37349.6 15038.4 37352.6 15048.6 37355.3 15059 37357.6 15069.4 37359.5 15080 37361 15090.6 37362.2 15101.2 37363 15111.9 37363.4 15122.6 37363.4 15133.2 37363 15143.9 37362.2 15154.6 37361 15165.2 37359.5 15175.8 37357.6 15186.4 37355.3 15196.8 37352.6 15207.2 37349.6 15217.4 37346.1 15227.6 37342.4 15237.6 37338.2 15247.4 37333.7 15257.1 37328.9 15266.7 37323.7 15276 37318.2 15285.2 37312.3 15294.2 37306.2 15302.9 37299.7 15311.4 37292.9 15319.7 37285.9 15327.7 37278.5 15335.5 37270.9 15343 37263 15350.2 37254.8 15357.2 37246.4 15363.8 37237.8 15370.1 37228.9 15376.1 37219.9 15381.8 37210.6 15387.1 37201.1 15392.1 37191.5 15396.8 37181.7 15401.1 37171.8 15405.1 37161.7 15408.7 37151.5 15411.9 37141.2 15414.8 37130.8 15417.3 37120.3 15419.4 37109.7 15421.1 37099.1 15422.5 37088.5 15423.4 37077.8 15424 37067.1 15424.2 M 37126.3 15898.4 36770.7 15898.4 M 37126.3 15898.4 37136 15898.2 37145.6 15897.6 37155.2 15896.6 37164.8 15895.2 37174.3 15893.5 37183.8 15891.3 37193.1 15888.8 37202.3 15885.9 37211.4 15882.6 37220.4 15878.9 37229.2 15874.9 37237.8 15870.5 37246.2 15865.8 37254.5 15860.8 37262.5 15855.4 37270.3 15849.6 37277.9 15843.6 37285.2 15837.3 37292.2 15830.7 37299 15823.7 37305.5 15816.6 37311.7 15809.1 37317.5 15801.4 37323.1 15793.5 37328.3 15785.4 37333.2 15777 37337.8 15768.5 37342 15759.8 37345.8 15750.9 37349.3 15741.9 37352.4 15732.7 37355.1 15723.4 37357.5 15714.1 37359.4 15704.6 37361 15695 37362.2 15685.4 37363 15675.8 37363.4 15666.1 37363.4 15656.5 37363 15646.8 37362.2 15637.2 37361 15627.6 37359.4 15618 37357.5 15608.5 37355.1 15599.2 37352.4 15589.9 37349.3 15580.7 37345.8 15571.7 37342 15562.8 37337.8 15554.1 37333.2 15545.6 37328.3 15537.2 37323.1 15529.1 37317.5 15521.2 37311.7 15513.5 37305.5 15506 37299 15498.9 37292.2 15491.9 37285.2 15485.3 37277.9 15479 37270.3 15473 37262.5 15467.2 37254.5 15461.8 37246.2 15456.8 37237.8 15452.1 37229.2 15447.7 37220.4 15443.7 37211.4 15440 37202.3 15436.7 37193.1 15433.8 37183.8 15431.3 37174.3 15429.1 37164.8 15427.4 37155.2 15426 37145.6 15425 37136 15424.4 37126.3 15424.2 M 37126.3 15424.3 36889.3 15424.3 M 31216.6 17501.6 31216.6 18568.4 31512.9 18568.4 31523.6 18568.2 31534.3 18567.6 31544.9 18566.7 31555.5 18565.3 31566.1 18563.6 31576.6 18561.5 31587 18559 31597.3 18556.1 31607.5 18552.9 31617.6 18549.3 31627.5 18545.3 31637.3 18541 31646.9 18536.3 31656.4 18531.3 31665.7 18526 31674.7 18520.3 31683.6 18514.3 31692.2 18508 31700.6 18501.4 31708.8 18494.4 31716.7 18487.2 31724.3 18479.7 31731.7 18471.9 31738.7 18463.9 31745.5 18455.6 31752 18447.1 31758.1 18438.4 31764 18429.4 31769.5 18420.2 31774.7 18410.9 31779.5 18401.3 31784 18391.6 31788.2 18381.8 31791.9 18371.8 31795.4 18361.6 31798.4 18351.4 31801.1 18341 31803.4 18330.6 31805.3 18320 31806.8 18309.4 31808 18298.8 31808.8 18288.1 31809.2 18277.4 31809.2 18266.8 31808.8 18256.1 31808 18245.4 31806.8 18234.8 31805.3 18224.2 31803.4 18213.6 31801.1 18203.2 31798.4 18192.8 31795.4 18182.6 31791.9 18172.4 31788.2 18162.4 31784 18152.6 31779.5 18142.9 31774.7 18133.3 31769.5 18124 31764 18114.8 31758.1 18105.8 31752 18097.1 31745.5 18088.6 31738.7 18080.3 31731.7 18072.3 31724.3 18064.5 31716.7 18057 31708.8 18049.8 31700.6 18042.8 31692.2 18036.2 31683.6 18029.9 31674.7 18023.9 31665.7 18018.2 31656.4 18012.9 31646.9 18007.9 31637.3 18003.2 31627.5 17998.9 31617.6 17994.9 31607.5 17991.3 31597.3 17988.1 31587 17985.2 31576.6 17982.7 31566.1 17980.6 31555.5 17978.9 31544.9 17977.5 31534.3 17976.6 31523.6 17976 31512.9 17975.8 M 31512.9 17975.7 31216.6 17975.7 M 31572.2 17975.7 31809.3 17501.6 M 32348.6 17738.7 32585.6 18568.4 M 32348.6 17738.7 32941.2 17738.7 M 32763.4 17975.7 32763.4 17501.6 M 27406.6 8788.4 27406.6 7721.6 M 27406.6 8788.4 27702.9 8788.4 27713.6 8788.2 27724.3 8787.6 27734.9 8786.7 27745.5 8785.3 27756.1 8783.6 27766.6 8781.5 27777 8779 27787.3 8776.1 27797.5 8772.9 27807.6 8769.3 27817.5 8765.3 27827.3 8761 27836.9 8756.3 27846.4 8751.3 27855.7 8746 27864.7 8740.3 27873.6 8734.3 27882.2 8728 27890.6 8721.4 27898.8 8714.4 27906.7 8707.2 27914.3 8699.7 27921.7 8691.9 27928.7 8683.9 27935.5 8675.6 27942 8667.1 27948.1 8658.4 27954 8649.4 27959.5 8640.2 27964.7 8630.9 27969.5 8621.3 27974 8611.6 27978.2 8601.8 27981.9 8591.8 27985.4 8581.6 27988.4 8571.4 27991.1 8561 27993.4 8550.6 27995.3 8540 27996.8 8529.4 27998 8518.8 27998.8 8508.1 27999.2 8497.4 27999.2 8486.8 27998.8 8476.1 27998 8465.4 27996.8 8454.8 27995.3 8444.2 27993.4 8433.6 27991.1 8423.2 27988.4 8412.8 27985.4 8402.6 27981.9 8392.4 27978.2 8382.4 27974 8372.6 27969.5 8362.9 27964.7 8353.3 27959.5 8343.9 27954 8334.8 27948.1 8325.8 27942 8317.1 27935.5 8308.6 27928.7 8300.3 27921.7 8292.3 27914.3 8284.5 27906.7 8277 27898.8 8269.8 27890.6 8262.8 27882.2 8256.2 27873.6 8249.9 27864.7 8243.9 27855.7 8238.2 27846.4 8232.9 27836.9 8227.9 27827.3 8223.2 27817.5 8218.9 27807.6 8214.9 27797.5 8211.3 27787.3 8208.1 27777 8205.2 27766.6 8202.7 27756.1 8200.6 27745.5 8198.9 27734.9 8197.5 27724.3 8196.6 27713.6 8196 27702.9 8195.8 M 27702.9 8195.7 27406.6 8195.7 M 27762.2 8195.7 27999.3 7721.6 M 28538.6 7721.6 28894.2 7721.6 28903.7 7721.8 28913.3 7722.4 28922.8 7723.3 28932.2 7724.7 28941.6 7726.4 28950.9 7728.5 28960.2 7731 28969.3 7733.8 28978.3 7737 28987.1 7740.6 28995.8 7744.5 29004.4 7748.8 29012.8 7753.4 29020.9 7758.3 29028.9 7763.6 29036.6 7769.2 29044.2 7775 29051.4 7781.2 29058.4 7787.7 29065.2 7794.5 29071.7 7801.5 29077.9 7808.7 29083.7 7816.3 29089.3 7824 29094.6 7832 29099.5 7840.2 29104.1 7848.5 29108.4 7857.1 29112.3 7865.8 29115.9 7874.6 29119.1 7883.6 29121.9 7892.7 29124.4 7902 29126.5 7911.3 29128.2 7920.7 29129.6 7930.1 29130.5 7939.6 29131.1 7949.2 29131.3 7958.7 M 29131.2 7958.7 29131.2 8077.2 M 29131.3 8077.2 29131.1 8086.7 29130.5 8096.3 29129.6 8105.8 29128.2 8115.2 29126.5 8124.6 29124.4 8133.9 29121.9 8143.2 29119.1 8152.3 29115.9 8161.3 29112.3 8170.1 29108.4 8178.8 29104.1 8187.4 29099.5 8195.8 29094.6 8203.9 29089.3 8211.9 29083.7 8219.6 29077.9 8227.2 29071.7 8234.4 29065.2 8241.4 29058.4 8248.2 29051.4 8254.7 29044.2 8260.9 29036.6 8266.7 29028.9 8272.3 29020.9 8277.6 29012.8 8282.5 29004.4 8287.1 28995.8 8291.4 28987.1 8295.3 28978.3 8298.9 28969.3 8302.1 28960.2 8304.9 28950.9 8307.4 28941.6 8309.5 28932.2 8311.2 28922.8 8312.6 28913.3 8313.5 28903.7 8314.1 28894.2 8314.3 28538.6 8314.3 28538.6 8788.4 29131.2 8788.4" fill="none" stroke-width="203.2"/><path d="M 29433.3 10330 29433.3 12530 M 31526.7 12530 31526.7 10330" fill="none" stroke-width="127"/><path d="M 27639.1 10673.3 27402 10673.3 27392.5 10673.5 27382.9 10674.1 27373.4 10675 27364 10676.4 27354.6 10678.1 27345.3 10680.2 27336 10682.7 27326.9 10685.5 27317.9 10688.7 27309.1 10692.3 27300.4 10696.2 27291.8 10700.5 27283.5 10705.1 27275.3 10710 27267.3 10715.3 27259.6 10720.9 27252 10726.7 27244.8 10732.9 27237.8 10739.4 27231 10746.2 27224.5 10753.2 27218.3 10760.4 27212.5 10768 27206.9 10775.7 27201.6 10783.7 27196.7 10791.9 27192.1 10800.2 27187.8 10808.8 27183.9 10817.5 27180.3 10826.3 27177.1 10835.3 27174.3 10844.4 27171.8 10853.7 27169.7 10863 27168 10872.4 27166.6 10881.8 27165.7 10891.3 27165.1 10900.9 27164.9 10910.4 27164.9 11503 27165.1 11512.5 27165.7 11522.1 27166.6 11531.6 27168 11541 27169.7 11550.4 27171.8 11559.7 27174.3 11569 27177.1 11578.1 27180.3 11587.1 27183.9 11595.9 27187.8 11604.6 27192.1 11613.2 27196.7 11621.5 27201.6 11629.7 27206.9 11637.7 27212.5 11645.4 27218.3 11653 27224.5 11660.2 27231 11667.2 27237.8 11674 27244.8 11680.5 27252 11686.7 27259.6 11692.5 27267.3 11698.1 27275.3 11703.4 27283.4 11708.3 27291.8 11712.9 27300.4 11717.2 27309.1 11721.1 27317.9 11724.7 27326.9 11727.9 27336 11730.7 27345.3 11733.2 27354.6 11735.3 27364 11737 27373.4 11738.4 27382.9 11739.3 27392.4 11739.9 27402 11740.1 27639.1 11740.1 M 28448.4 11740.1 28458.6 11739.9 28468.8 11739.3 28479 11738.3 28489.1 11737 28499.2 11735.2 28509.2 11733.1 28519.1 11730.6 28528.9 11727.7 28538.5 11724.4 28548.1 11720.8 28557.5 11716.8 28566.7 11712.4 28575.8 11707.7 28584.7 11702.6 28593.4 11697.3 28601.8 11691.5 28610.1 11685.5 28618.1 11679.2 28625.8 11672.5 28633.3 11665.6 28640.6 11658.3 28647.5 11650.8 28654.2 11643.1 28660.5 11635.1 28666.5 11626.8 28672.3 11618.4 28677.6 11609.7 28682.7 11600.8 28687.4 11591.7 28691.8 11582.5 28695.8 11573.1 28699.4 11563.5 28702.7 11553.9 28705.6 11544.1 28708.1 11534.2 28710.2 11524.2 28712 11514.1 28713.3 11504 28714.3 11493.8 28714.9 11483.6 28715.1 11473.4 M 28448.4 11740.1 28436.8 11739.9 28425.1 11739.3 28413.5 11738.3 28402 11736.9 28390.5 11735.2 28379 11733 28367.7 11730.4 28356.4 11727.5 28345.2 11724.2 28334.2 11720.5 28323.3 11716.4 28312.5 11712 28301.9 11707.2 28291.5 11702 28281.2 11696.5 28271.1 11690.7 28261.3 11684.5 28251.6 11678 28242.2 11671.1 28233 11663.9 28224.1 11656.5 28215.4 11648.7 28207 11640.6 28198.9 11632.3 28191.1 11623.7 28183.5 11614.8 28176.3 11605.7 28169.4 11596.3 28162.8 11586.7 28156.5 11576.9 28150.6 11566.9 28145 11556.7 28139.8 11546.3 28134.9 11535.7 28130.4 11525 28126.2 11514.1 28122.5 11503.1 M 28626.2 11265.9 28633.7 11273.3 28640.9 11281 28647.8 11289 28654.5 11297.2 28660.8 11305.6 28666.8 11314.3 28672.5 11323.1 28677.9 11332.2 28682.9 11341.5 28687.6 11350.9 28691.9 11360.5 28695.9 11370.3 28699.5 11380.2 28702.8 11390.2 28705.6 11400.4 28708.1 11410.6 28710.3 11421 28712 11431.4 28713.4 11441.8 28714.3 11452.3 28714.9 11462.9 28715.1 11473.4 M 28626.2 11266 28122.4 10673.3 28715.1 10673.3" fill="none" stroke-width="203.2"/><path d="M 26957 15271 30511.7 15271 30511.7 17749 26957 17749" fill="none" stroke-width="120"/><path d="M 27053.1 18547.6 27053.1 19614.4 27349.5 19614.4 27360.1 19614.2 27370.6 19613.6 27381.2 19612.7 27391.7 19611.4 27402.1 19609.7 27412.5 19607.6 27422.8 19605.2 27433 19602.4 27443.1 19599.2 27453 19595.7 27462.9 19591.8 27472.6 19587.6 27482.1 19583.1 27491.5 19578.2 27500.7 19572.9 27509.7 19567.4 27518.5 19561.5 27527.1 19555.3 27535.4 19548.8 27543.5 19542 27551.4 19535 27559 19527.6 27566.4 19520 27573.4 19512.1 27580.2 19504 27586.7 19495.7 27592.9 19487.1 27598.8 19478.3 27604.3 19469.3 27609.6 19460.1 27614.5 19450.7 27619 19441.2 27623.2 19431.5 27627.1 19421.6 27630.6 19411.7 27633.8 19401.6 27636.6 19391.4 27639 19381.1 27641.1 19370.7 27642.8 19360.3 27644.1 19349.8 27645 19339.2 27645.6 19328.7 27645.8 19318.1 27645.8 18843.9 27645.6 18833.3 27645 18822.8 27644.1 18812.2 27642.8 18801.7 27641.1 18791.3 27639 18780.9 27636.6 18770.6 27633.8 18760.4 27630.6 18750.3 27627.1 18740.4 27623.2 18730.5 27619 18720.8 27614.5 18711.3 27609.6 18701.9 27604.3 18692.7 27598.8 18683.7 27592.9 18674.9 27586.7 18666.3 27580.2 18658 27573.4 18649.9 27566.4 18642 27559 18634.4 27551.4 18627 27543.5 18620 27535.4 18613.2 27527.1 18606.7 27518.5 18600.5 27509.7 18594.6 27500.7 18589.1 27491.5 18583.8 27482.1 18578.9 27472.6 18574.4 27462.9 18570.2 27453 18566.3 27443.1 18562.8 27433 18559.6 27422.8 18556.8 27412.5 18554.4 27402.1 18552.3 27391.7 18550.6 27381.2 18549.3 27370.6 18548.4 27360.1 18547.8 27349.5 18547.6 27053.1 18547.6 M 28234.2 19377.3 28530.5 19614.4 28530.5 18547.6 M 28234.2 18547.6 28826.9 18547.6" fill="none" stroke-width="203.2"/><path d="M 32037 19081 35591.7 19081 35591.7 21559 32037 21559" fill="none" stroke-width="120"/><path d="M 32133.1 22357.6 32133.1 23424.4 32429.5 23424.4 32440.1 23424.2 32450.6 23423.6 32461.2 23422.7 32471.7 23421.4 32482.1 23419.7 32492.5 23417.6 32502.8 23415.2 32513 23412.4 32523.1 23409.2 32533 23405.7 32542.9 23401.8 32552.6 23397.6 32562.1 23393.1 32571.5 23388.2 32580.7 23382.9 32589.7 23377.4 32598.5 23371.5 32607.1 23365.3 32615.4 23358.8 32623.5 23352 32631.4 23345 32639 23337.6 32646.4 23330 32653.4 23322.1 32660.2 23314 32666.7 23305.7 32672.9 23297.1 32678.8 23288.3 32684.3 23279.3 32689.6 23270.1 32694.5 23260.7 32699 23251.2 32703.2 23241.5 32707.1 23231.6 32710.6 23221.7 32713.8 23211.6 32716.6 23201.4 32719 23191.1 32721.1 23180.7 32722.8 23170.3 32724.1 23159.8 32725 23149.2 32725.6 23138.7 32725.8 23128.1 32725.8 22653.9 32725.6 22643.3 32725 22632.8 32724.1 22622.2 32722.8 22611.7 32721.1 22601.3 32719 22590.9 32716.6 22580.6 32713.8 22570.4 32710.6 22560.3 32707.1 22550.4 32703.2 22540.5 32699 22530.8 32694.5 22521.3 32689.6 22511.9 32684.3 22502.7 32678.8 22493.7 32672.9 22484.9 32666.7 22476.3 32660.2 22468 32653.4 22459.9 32646.4 22452 32639 22444.4 32631.4 22437 32623.5 22430 32615.4 22423.2 32607.1 22416.7 32598.5 22410.5 32589.7 22404.6 32580.7 22399.1 32571.5 22393.8 32562.1 22388.9 32552.6 22384.4 32542.9 22380.2 32533 22376.3 32523.1 22372.8 32513 22369.6 32502.8 22366.8 32492.5 22364.4 32482.1 22362.3 32471.7 22360.6 32461.2 22359.3 32450.6 22358.4 32440.1 22357.8 32429.5 22357.6 32133.1 22357.6 M 33640.2 23424.4 33650.4 23424.2 33660.6 23423.6 33670.8 23422.6 33680.9 23421.3 33691 23419.5 33701 23417.4 33710.9 23414.9 33720.7 23412 33730.3 23408.7 33739.9 23405.1 33749.3 23401.1 33758.5 23396.7 33767.6 23392 33776.5 23386.9 33785.2 23381.6 33793.6 23375.8 33801.9 23369.8 33809.9 23363.5 33817.6 23356.8 33825.1 23349.9 33832.4 23342.6 33839.3 23335.1 33846 23327.4 33852.3 23319.4 33858.3 23311.1 33864.1 23302.7 33869.4 23294 33874.5 23285.1 33879.2 23276 33883.6 23266.8 33887.6 23257.4 33891.2 23247.8 33894.5 23238.2 33897.4 23228.4 33899.9 23218.5 33902 23208.5 33903.8 23198.4 33905.1 23188.3 33906.1 23178.1 33906.7 23167.9 33906.9 23157.7 M 33640.2 23424.4 33628.6 23424.2 33616.9 23423.6 33605.3 23422.6 33593.8 23421.2 33582.3 23419.5 33570.8 23417.3 33559.5 23414.7 33548.2 23411.8 33537 23408.5 33526 23404.8 33515.1 23400.7 33504.3 23396.3 33493.7 23391.5 33483.3 23386.3 33473 23380.8 33462.9 23375 33453.1 23368.8 33443.4 23362.3 33434 23355.4 33424.8 23348.2 33415.9 23340.8 33407.2 23333 33398.8 23324.9 33390.7 23316.6 33382.9 23308 33375.3 23299.1 33368.1 23290 33361.2 23280.6 33354.6 23271 33348.3 23261.2 33342.4 23251.2 33336.8 23241 33331.6 23230.6 33326.7 23220 33322.2 23209.3 33318 23198.4 33314.3 23187.4 M 33818 22950.2 33825.5 22957.6 33832.7 22965.3 33839.6 22973.3 33846.3 22981.5 33852.6 22989.9 33858.6 22998.6 33864.3 23007.4 33869.7 23016.5 33874.7 23025.8 33879.4 23035.2 33883.7 23044.8 33887.7 23054.6 33891.3 23064.5 33894.6 23074.5 33897.4 23084.7 33899.9 23094.9 33902.1 23105.3 33903.8 23115.7 33905.2 23126.1 33906.1 23136.6 33906.7 23147.2 33906.9 23157.7 M 33818 22950.3 33314.2 22357.6 33906.9 22357.6" fill="none" stroke-width="203.2"/><path d="M 6039 22891.7 6039 19337 M 6039 22891.7 3561 22891.7 3561 19337" fill="none" stroke-width="120"/><path d="M 6453.1 19755.6 6453.1 20822.4 6749.5 20822.4 6760.1 20822.2 6770.6 20821.6 6781.2 20820.7 6791.7 20819.4 6802.1 20817.7 6812.5 20815.6 6822.8 20813.2 6833 20810.4 6843.1 20807.2 6853 20803.7 6862.9 20799.8 6872.6 20795.6 6882.1 20791.1 6891.5 20786.2 6900.7 20780.9 6909.7 20775.4 6918.5 20769.5 6927.1 20763.3 6935.4 20756.8 6943.5 20750 6951.4 20743 6959 20735.6 6966.4 20728 6973.4 20720.1 6980.2 20712 6986.7 20703.7 6992.9 20695.1 6998.8 20686.3 7004.3 20677.3 7009.6 20668.1 7014.5 20658.7 7019 20649.2 7023.2 20639.5 7027.1 20629.6 7030.6 20619.7 7033.8 20609.6 7036.6 20599.4 7039 20589.1 7041.1 20578.7 7042.8 20568.3 7044.1 20557.8 7045 20547.2 7045.6 20536.7 7045.8 20526.1 7045.8 20051.9 7045.6 20041.3 7045 20030.8 7044.1 20020.2 7042.8 20009.7 7041.1 19999.3 7039 19988.9 7036.6 19978.6 7033.8 19968.4 7030.6 19958.3 7027.1 19948.4 7023.2 19938.5 7019 19928.8 7014.5 19919.3 7009.6 19909.9 7004.3 19900.7 6998.8 19891.7 6992.9 19882.9 6986.7 19874.3 6980.2 19866 6973.4 19857.9 6966.4 19850 6959 19842.4 6951.4 19835 6943.5 19828 6935.4 19821.2 6927.1 19814.7 6918.5 19808.5 6909.7 19802.6 6900.7 19797.1 6891.5 19791.8 6882.1 19786.9 6872.6 19782.4 6862.9 19778.2 6853 19774.3 6843.1 19770.8 6833 19767.6 6822.8 19764.8 6812.5 19762.4 6802.1 19760.3 6791.7 19758.6 6781.2 19757.3 6770.6 19756.4 6760.1 19755.8 6749.5 19755.6 6453.1 19755.6 M 7634.2 19755.6 7930.5 19755.6 7941.2 19755.8 7951.9 19756.4 7962.5 19757.3 7973.1 19758.7 7983.7 19760.4 7994.2 19762.5 8004.6 19765 8014.9 19767.9 8025.1 19771.1 8035.2 19774.7 8045.1 19778.7 8054.9 19783 8064.5 19787.7 8074 19792.7 8083.3 19798 8092.3 19803.7 8101.2 19809.7 8109.8 19816 8118.2 19822.6 8126.4 19829.6 8134.3 19836.8 8141.9 19844.3 8149.3 19852.1 8156.3 19860.1 8163.1 19868.4 8169.6 19876.9 8175.7 19885.6 8181.6 19894.6 8187.1 19903.8 8192.3 19913.1 8197.1 19922.7 8201.6 19932.4 8205.8 19942.2 8209.5 19952.2 8213 19962.4 8216 19972.6 8218.7 19983 8221 19993.4 8222.9 20004 8224.4 20014.6 8225.6 20025.2 8226.4 20035.9 8226.8 20046.6 8226.8 20057.2 8226.4 20067.9 8225.6 20078.6 8224.4 20089.2 8222.9 20099.8 8221 20110.4 8218.7 20120.8 8216 20131.2 8213 20141.4 8209.5 20151.6 8205.8 20161.6 8201.6 20171.4 8197.1 20181.1 8192.3 20190.7 8187.1 20200 8181.6 20209.2 8175.7 20218.2 8169.6 20226.9 8163.1 20235.4 8156.3 20243.7 8149.3 20251.7 8141.9 20259.5 8134.3 20267 8126.4 20274.2 8118.2 20281.2 8109.8 20287.8 8101.2 20294.1 8092.3 20300.1 8083.3 20305.8 8074 20311.1 8064.5 20316.1 8054.9 20320.8 8045.1 20325.1 8035.2 20329.1 8025.1 20332.7 8014.9 20335.9 8004.6 20338.8 7994.2 20341.3 7983.7 20343.4 7973.1 20345.1 7962.5 20346.5 7951.9 20347.4 7941.2 20348 7930.5 20348.2 M 7989.8 20822.4 7634.2 20822.4 M 7989.8 20822.4 7999.5 20822.2 8009.1 20821.6 8018.7 20820.6 8028.3 20819.2 8037.8 20817.5 8047.3 20815.3 8056.6 20812.8 8065.8 20809.9 8074.9 20806.6 8083.9 20802.9 8092.7 20798.9 8101.3 20794.5 8109.7 20789.8 8118 20784.8 8126 20779.4 8133.8 20773.6 8141.4 20767.6 8148.7 20761.3 8155.7 20754.7 8162.5 20747.7 8169 20740.6 8175.2 20733.1 8181 20725.4 8186.6 20717.5 8191.8 20709.4 8196.7 20701 8201.3 20692.5 8205.5 20683.8 8209.3 20674.9 8212.8 20665.9 8215.9 20656.7 8218.6 20647.4 8221 20638.1 8222.9 20628.6 8224.5 20619 8225.7 20609.4 8226.5 20599.8 8226.9 20590.1 8226.9 20580.5 8226.5 20570.8 8225.7 20561.2 8224.5 20551.6 8222.9 20542 8221 20532.5 8218.6 20523.2 8215.9 20513.9 8212.8 20504.7 8209.3 20495.7 8205.5 20486.8 8201.3 20478.1 8196.7 20469.6 8191.8 20461.2 8186.6 20453.1 8181 20445.2 8175.2 20437.5 8169 20430 8162.5 20422.9 8155.7 20415.9 8148.7 20409.3 8141.4 20403 8133.8 20397 8126 20391.2 8118 20385.8 8109.7 20380.8 8101.3 20376.1 8092.7 20371.7 8083.9 20367.7 8074.9 20364 8065.8 20360.7 8056.6 20357.8 8047.3 20355.3 8037.8 20353.1 8028.3 20351.4 8018.7 20350 8009.1 20349 7999.5 20348.4 7989.8 20348.2 M 7989.8 20348.3 7752.7 20348.3 M 6428.8 31851.6 6428.8 32918.4 6725.1 32918.4 6735.8 32918.2 6746.5 32917.6 6757.1 32916.7 6767.7 32915.3 6778.3 32913.6 6788.8 32911.5 6799.2 32909 6809.5 32906.1 6819.7 32902.9 6829.8 32899.3 6839.7 32895.3 6849.5 32891 6859.1 32886.3 6868.6 32881.3 6877.9 32876 6886.9 32870.3 6895.8 32864.3 6904.4 32858 6912.8 32851.4 6921 32844.4 6928.9 32837.2 6936.5 32829.7 6943.9 32821.9 6950.9 32813.9 6957.7 32805.6 6964.2 32797.1 6970.3 32788.4 6976.2 32779.4 6981.7 32770.3 6986.9 32760.9 6991.7 32751.3 6996.2 32741.6 7000.4 32731.8 7004.1 32721.8 7007.6 32711.6 7010.6 32701.4 7013.3 32691 7015.6 32680.6 7017.5 32670 7019 32659.4 7020.2 32648.8 7021 32638.1 7021.4 32627.4 7021.4 32616.8 7021 32606.1 7020.2 32595.4 7019 32584.8 7017.5 32574.2 7015.6 32563.6 7013.3 32553.2 7010.6 32542.8 7007.6 32532.6 7004.1 32522.4 7000.4 32512.4 6996.2 32502.6 6991.7 32492.9 6986.9 32483.3 6981.7 32474 6976.2 32464.8 6970.3 32455.8 6964.2 32447.1 6957.7 32438.6 6950.9 32430.3 6943.9 32422.3 6936.5 32414.5 6928.9 32407 6921 32399.8 6912.8 32392.8 6904.4 32386.2 6895.8 32379.9 6886.9 32373.9 6877.9 32368.2 6868.6 32362.9 6859.1 32357.9 6849.5 32353.2 6839.7 32348.9 6829.8 32344.9 6819.7 32341.3 6809.5 32338.1 6799.2 32335.2 6788.8 32332.7 6778.3 32330.6 6767.7 32328.9 6757.1 32327.5 6746.5 32326.6 6735.8 32326 6725.1 32325.8 M 6725.1 32325.7 6428.8 32325.7 M 6784.4 32325.7 7021.4 31851.6 M 7560.7 32444.3 7916.3 32444.3 7925.8 32444.1 7935.4 32443.5 7944.9 32442.6 7954.3 32441.2 7963.7 32439.5 7973 32437.4 7982.3 32434.9 7991.4 32432.1 8000.4 32428.9 8009.2 32425.3 8017.9 32421.4 8026.5 32417.1 8034.9 32412.5 8043 32407.6 8051 32402.3 8058.7 32396.7 8066.3 32390.9 8073.5 32384.7 8080.5 32378.2 8087.3 32371.4 8093.8 32364.4 8100 32357.2 8105.8 32349.6 8111.4 32341.9 8116.7 32333.9 8121.6 32325.8 8126.2 32317.4 8130.5 32308.8 8134.4 32300.1 8138 32291.3 8141.2 32282.3 8144 32273.2 8146.5 32263.9 8148.6 32254.6 8150.3 32245.2 8151.7 32235.8 8152.6 32226.3 8153.2 32216.7 8153.4 32207.2 8153.4 32147.9 8153.2 32137.2 8152.6 32126.5 8151.7 32115.9 8150.3 32105.3 8148.6 32094.7 8146.5 32084.2 8144 32073.8 8141.1 32063.5 8137.9 32053.3 8134.3 32043.2 8130.3 32033.3 8126 32023.5 8121.3 32013.9 8116.3 32004.4 8111 31995.1 8105.3 31986.1 8099.3 31977.2 8093 31968.6 8086.4 31960.2 8079.4 31952 8072.2 31944.1 8064.7 31936.5 8056.9 31929.1 8048.9 31922.1 8040.6 31915.3 8032.1 31908.8 8023.4 31902.7 8014.4 31896.8 8005.2 31891.3 7995.9 31886.1 7986.3 31881.3 7976.6 31876.8 7966.8 31872.6 7956.8 31868.9 7946.6 31865.4 7936.4 31862.4 7926 31859.7 7915.6 31857.4 7905 31855.5 7894.4 31854 7883.8 31852.8 7873.1 31852 7862.4 31851.6 7851.8 31851.6 7841.1 31852 7830.4 31852.8 7819.8 31854 7809.2 31855.5 7798.6 31857.4 7788.2 31859.7 7777.8 31862.4 7767.6 31865.4 7757.4 31868.9 7747.4 31872.6 7737.6 31876.8 7727.9 31881.3 7718.3 31886.1 7708.9 31891.3 7699.8 31896.8 7690.8 31902.7 7682.1 31908.8 7673.6 31915.3 7665.3 31922.1 7657.3 31929.1 7649.5 31936.5 7642 31944.1 7634.8 31952 7627.8 31960.2 7621.2 31968.6 7614.9 31977.2 7608.9 31986.1 7603.2 31995.1 7597.9 32004.4 7592.9 32013.9 7588.2 32023.5 7583.9 32033.3 7579.9 32043.2 7576.3 32053.3 7573.1 32063.5 7570.2 32073.8 7567.7 32084.2 7565.6 32094.7 7563.9 32105.3 7562.5 32115.9 7561.6 32126.5 7561 32137.2 7560.8 32147.9 M 7560.7 32147.9 7560.7 32444.3 M 7560.8 32444.3 7561 32457.8 7561.6 32471.4 7562.5 32484.9 7563.9 32498.3 7565.6 32511.8 7567.7 32525.1 7570.2 32538.5 7573.1 32551.7 7576.4 32564.8 7580 32577.9 7584 32590.8 7588.4 32603.6 7593.1 32616.3 7598.2 32628.9 7603.6 32641.2 7609.4 32653.5 7615.6 32665.5 7622.1 32677.4 7628.9 32689.1 7636.1 32700.6 7643.5 32711.9 7651.3 32723 7659.5 32733.8 7667.9 32744.4 7676.6 32754.8 7685.6 32764.9 7694.9 32774.7 7704.5 32784.3 7714.3 32793.6 7724.4 32802.6 7734.8 32811.3 7745.4 32819.7 7756.2 32827.9 7767.3 32835.7 7778.6 32843.1 7790.1 32850.3 7801.8 32857.1 7813.7 32863.6 7825.7 32869.8 7837.9 32875.6 7850.3 32881 7862.9 32886.1 7875.6 32890.8 7888.4 32895.2 7901.3 32899.2 7914.4 32902.8 7927.5 32906.1 7940.7 32909 7954.1 32911.5 7967.4 32913.6 7980.9 32915.3 7994.3 32916.7 8007.8 32917.6 8021.4 32918.2 8034.9 32918.4 M 6428.8 27838.4 6428.8 26771.6 M 6428.8 27838.4 6725.1 27838.4 6735.8 27838.2 6746.5 27837.6 6757.1 27836.7 6767.7 27835.3 6778.3 27833.6 6788.8 27831.5 6799.2 27829 6809.5 27826.1 6819.7 27822.9 6829.8 27819.3 6839.7 27815.3 6849.5 27811 6859.1 27806.3 6868.6 27801.3 6877.9 27796 6886.9 27790.3 6895.8 27784.3 6904.4 27778 6912.8 27771.4 6921 27764.4 6928.9 27757.2 6936.5 27749.7 6943.9 27741.9 6950.9 27733.9 6957.7 27725.6 6964.2 27717.1 6970.3 27708.4 6976.2 27699.4 6981.7 27690.3 6986.9 27680.9 6991.7 27671.3 6996.2 27661.6 7000.4 27651.8 7004.1 27641.8 7007.6 27631.6 7010.6 27621.4 7013.3 27611 7015.6 27600.6 7017.5 27590 7019 27579.4 7020.2 27568.8 7021 27558.1 7021.4 27547.4 7021.4 27536.8 7021 27526.1 7020.2 27515.4 7019 27504.8 7017.5 27494.2 7015.6 27483.6 7013.3 27473.2 7010.6 27462.8 7007.6 27452.6 7004.1 27442.4 7000.4 27432.4 6996.2 27422.6 6991.7 27412.9 6986.9 27403.3 6981.7 27394 6976.2 27384.8 6970.3 27375.8 6964.2 27367.1 6957.7 27358.6 6950.9 27350.3 6943.9 27342.3 6936.5 27334.5 6928.9 27327 6921 27319.8 6912.8 27312.8 6904.4 27306.2 6895.8 27299.9 6886.9 27293.9 6877.9 27288.2 6868.6 27282.9 6859.1 27277.9 6849.5 27273.2 6839.7 27268.9 6829.8 27264.9 6819.7 27261.3 6809.5 27258.1 6799.2 27255.2 6788.8 27252.7 6778.3 27250.6 6767.7 27248.9 6757.1 27247.5 6746.5 27246.6 6735.8 27246 6725.1 27245.8 M 6725.1 27245.7 6428.8 27245.7 M 6784.4 27245.7 7021.4 26771.6 M 7560.7 27719.9 7560.7 27838.4 8153.4 27838.4 7857.1 26771.6" fill="none" stroke-width="203.2"/><path d="M 5303.3 7450 5303.3 5250 M 7396.7 5250 7396.7 7450" fill="none" stroke-width="127"/><path d="M 8352 5731.6 8589.1 5731.6 M 8352 5731.6 8342.5 5731.8 8332.9 5732.4 8323.4 5733.3 8314 5734.7 8304.6 5736.4 8295.3 5738.5 8286 5741 8276.9 5743.8 8267.9 5747 8259.1 5750.6 8250.4 5754.5 8241.8 5758.8 8233.4 5763.4 8225.3 5768.3 8217.3 5773.6 8209.6 5779.2 8202 5785 8194.8 5791.2 8187.8 5797.7 8181 5804.5 8174.5 5811.5 8168.3 5818.7 8162.5 5826.3 8156.9 5834 8151.6 5842 8146.7 5850.2 8142.1 5858.5 8137.8 5867.1 8133.9 5875.8 8130.3 5884.6 8127.1 5893.6 8124.3 5902.7 8121.8 5912 8119.7 5921.3 8118 5930.7 8116.6 5940.1 8115.7 5949.6 8115.1 5959.2 8114.9 5968.7 8114.9 6561.3 8115.1 6570.8 8115.7 6580.4 8116.6 6589.9 8118 6599.3 8119.7 6608.7 8121.8 6618 8124.3 6627.3 8127.1 6636.4 8130.3 6645.4 8133.9 6654.2 8137.8 6662.9 8142.1 6671.5 8146.7 6679.8 8151.6 6688 8156.9 6696 8162.5 6703.7 8168.3 6711.3 8174.5 6718.5 8181 6725.5 8187.8 6732.3 8194.8 6738.8 8202 6745 8209.6 6750.8 8217.3 6756.4 8225.3 6761.7 8233.4 6766.6 8241.8 6771.2 8250.4 6775.5 8259.1 6779.4 8267.9 6783 8276.9 6786.2 8286 6789 8295.3 6791.5 8304.6 6793.6 8314 6795.3 8323.4 6796.7 8332.9 6797.6 8342.4 6798.2 8352 6798.4 8589.1 6798.4 M 9072.4 5731.6 9368.7 5731.6 9379.4 5731.8 9390.1 5732.4 9400.7 5733.3 9411.3 5734.7 9421.9 5736.4 9432.4 5738.5 9442.8 5741 9453.1 5743.9 9463.3 5747.1 9473.4 5750.7 9483.3 5754.7 9493.1 5759 9502.7 5763.7 9512.2 5768.7 9521.5 5774 9530.5 5779.7 9539.4 5785.7 9548 5792 9556.4 5798.6 9564.6 5805.6 9572.5 5812.8 9580.1 5820.3 9587.5 5828.1 9594.5 5836.1 9601.3 5844.4 9607.8 5852.9 9613.9 5861.6 9619.8 5870.6 9625.3 5879.7 9630.5 5889.1 9635.3 5898.7 9639.8 5908.4 9644 5918.2 9647.7 5928.2 9651.2 5938.4 9654.2 5948.6 9656.9 5959 9659.2 5969.4 9661.1 5980 9662.6 5990.6 9663.8 6001.2 9664.6 6011.9 9665 6022.6 9665 6033.2 9664.6 6043.9 9663.8 6054.6 9662.6 6065.2 9661.1 6075.8 9659.2 6086.4 9656.9 6096.8 9654.2 6107.2 9651.2 6117.4 9647.7 6127.6 9644 6137.6 9639.8 6147.4 9635.3 6157.1 9630.5 6166.7 9625.3 6176 9619.8 6185.2 9613.9 6194.2 9607.8 6202.9 9601.3 6211.4 9594.5 6219.7 9587.5 6227.7 9580.1 6235.5 9572.5 6243 9564.6 6250.2 9556.4 6257.2 9548 6263.8 9539.4 6270.1 9530.5 6276.1 9521.5 6281.8 9512.2 6287.1 9502.7 6292.1 9493.1 6296.8 9483.3 6301.1 9473.4 6305.1 9463.3 6308.7 9453.1 6311.9 9442.8 6314.8 9432.4 6317.3 9421.9 6319.4 9411.3 6321.1 9400.7 6322.5 9390.1 6323.4 9379.4 6324 9368.7 6324.2 M 9428 6798.4 9072.4 6798.4 M 9428 6798.4 9437.7 6798.2 9447.3 6797.6 9456.9 6796.6 9466.5 6795.2 9476 6793.5 9485.5 6791.3 9494.8 6788.8 9504 6785.9 9513.1 6782.6 9522.1 6778.9 9530.9 6774.9 9539.5 6770.5 9547.9 6765.8 9556.2 6760.8 9564.2 6755.4 9572 6749.6 9579.6 6743.6 9586.9 6737.3 9593.9 6730.7 9600.7 6723.7 9607.2 6716.6 9613.4 6709.1 9619.2 6701.4 9624.8 6693.5 9630 6685.4 9634.9 6677 9639.5 6668.5 9643.7 6659.8 9647.5 6650.9 9651 6641.9 9654.1 6632.7 9656.8 6623.4 9659.2 6614.1 9661.1 6604.6 9662.7 6595 9663.9 6585.4 9664.7 6575.8 9665.1 6566.1 9665.1 6556.5 9664.7 6546.8 9663.9 6537.2 9662.7 6527.6 9661.1 6518 9659.2 6508.5 9656.8 6499.2 9654.1 6489.9 9651 6480.7 9647.5 6471.7 9643.7 6462.8 9639.5 6454.1 9634.9 6445.6 9630 6437.2 9624.8 6429.1 9619.2 6421.2 9613.4 6413.5 9607.2 6406 9600.7 6398.9 9593.9 6391.9 9586.9 6385.3 9579.6 6379 9572 6373 9564.2 6367.2 9556.2 6361.8 9547.9 6356.8 9539.5 6352.1 9530.9 6347.7 9522.1 6343.7 9513.1 6340 9504 6336.7 9494.8 6333.8 9485.5 6331.3 9476 6329.1 9466.5 6327.4 9456.9 6326 9447.3 6325 9437.7 6324.4 9428 6324.2 M 9428 6324.3 9190.9 6324.3" fill="none" stroke-width="203.2"/><path d="M 3640 16732 1440 16732 M 1440 14638.6 3640 14638.6" fill="none" stroke-width="127"/><path d="M 4762 14928.6 4999.1 14928.6 M 4762 14928.6 4752.5 14928.8 4742.9 14929.4 4733.4 14930.3 4724 14931.7 4714.6 14933.4 4705.3 14935.5 4696 14938 4686.9 14940.8 4677.9 14944 4669.1 14947.6 4660.4 14951.5 4651.8 14955.8 4643.4 14960.4 4635.3 14965.3 4627.3 14970.6 4619.6 14976.2 4612 14982 4604.8 14988.2 4597.8 14994.7 4591 15001.5 4584.5 15008.5 4578.3 15015.7 4572.5 15023.3 4566.9 15031 4561.6 15039 4556.7 15047.2 4552.1 15055.5 4547.8 15064.1 4543.9 15072.8 4540.3 15081.6 4537.1 15090.6 4534.3 15099.7 4531.8 15109 4529.7 15118.3 4528 15127.7 4526.6 15137.1 4525.7 15146.6 4525.1 15156.2 4524.9 15165.7 4524.9 15758.3 4525.1 15767.8 4525.7 15777.4 4526.6 15786.9 4528 15796.3 4529.7 15805.7 4531.8 15815 4534.3 15824.3 4537.1 15833.4 4540.3 15842.4 4543.9 15851.2 4547.8 15859.9 4552.1 15868.5 4556.7 15876.8 4561.6 15885 4566.9 15893 4572.5 15900.7 4578.3 15908.3 4584.5 15915.5 4591 15922.5 4597.8 15929.3 4604.8 15935.8 4612 15942 4619.6 15947.8 4627.3 15953.4 4635.3 15958.7 4643.4 15963.6 4651.8 15968.2 4660.4 15972.5 4669.1 15976.4 4677.9 15980 4686.9 15983.2 4696 15986 4705.3 15988.5 4714.6 15990.6 4724 15992.3 4733.4 15993.7 4742.9 15994.6 4752.4 15995.2 4762 15995.4 4999.1 15995.4 M 5719.5 15995.4 5482.4 15165.7 6075.1 15165.7 M 5897.3 15402.7 5897.3 14928.6 M 5734 10693.4 5734 9922.9 M 5734.1 9922.9 5734.3 9912.2 5734.9 9901.5 5735.8 9890.9 5737.2 9880.3 5738.9 9869.7 5741 9859.2 5743.5 9848.8 5746.4 9838.5 5749.6 9828.3 5753.2 9818.2 5757.2 9808.3 5761.5 9798.5 5766.2 9788.9 5771.2 9779.4 5776.5 9770.1 5782.2 9761.1 5788.2 9752.2 5794.5 9743.6 5801.1 9735.2 5808.1 9727 5815.3 9719.1 5822.8 9711.5 5830.6 9704.1 5838.6 9697.1 5846.9 9690.3 5855.4 9683.8 5864.1 9677.7 5873.1 9671.8 5882.2 9666.3 5891.6 9661.1 5901.2 9656.3 5910.9 9651.8 5920.7 9647.6 5930.7 9643.9 5940.9 9640.4 5951.1 9637.4 5961.5 9634.7 5971.9 9632.4 5982.5 9630.5 5993.1 9629 6003.7 9627.8 6014.4 9627 6025.1 9626.6 6035.7 9626.6 6046.4 9627 6057.1 9627.8 6067.7 9629 6078.3 9630.5 6088.9 9632.4 6099.3 9634.7 6109.7 9637.4 6119.9 9640.4 6130.1 9643.9 6140.1 9647.6 6149.9 9651.8 6159.6 9656.3 6169.2 9661.1 6178.5 9666.3 6187.7 9671.8 6196.7 9677.7 6205.4 9683.8 6213.9 9690.3 6222.2 9697.1 6230.2 9704.1 6238 9711.5 6245.5 9719.1 6252.7 9727 6259.7 9735.2 6266.3 9743.6 6272.6 9752.2 6278.6 9761.1 6284.3 9770.1 6289.6 9779.4 6294.6 9788.9 6299.3 9798.5 6303.6 9808.3 6307.6 9818.2 6311.2 9828.3 6314.4 9838.5 6317.3 9848.8 6319.8 9859.2 6321.9 9869.7 6323.6 9880.3 6325 9890.9 6325.9 9901.5 6326.5 9912.2 6326.7 9922.9 6326.7 10693.4 M 7135.3 10693.4 7135.3 9626.6 M 7135.3 10160 6987.1 10248.9 6980.2 10253.3 6973.4 10258 6966.9 10263.1 6960.6 10268.4 6954.6 10274 6948.8 10279.9 6943.3 10286.1 6938.2 10292.5 6933.3 10299.1 6928.7 10305.9 6924.5 10313 6920.5 10320.3 6917 10327.7 6913.7 10335.3 6910.9 10343 6908.4 10350.8 6906.2 10358.8 6904.5 10366.8 6903.1 10375 6902.1 10383.1 6901.4 10391.3 6901.2 10399.6 6901.3 10407.8 6901.9 10416 6902.8 10424.2 6904.1 10432.4 6905.7 10440.4 6907.8 10448.4 6910.2 10456.3 6912.9 10464.1 6916.1 10471.7 6919.5 10479.1 6923.4 10486.4 6927.5 10493.6 6932 10500.5 6936.8 10507.2 6941.9 10513.6 6947.3 10519.8 6953 10525.8 6958.9 10531.5 6965.2 10536.9 6971.6 10542 6978.3 10546.8 6985.2 10551.3 6992.3 10555.5 6999.6 10559.3 7007.1 10562.8 7014.7 10565.9 7022.5 10568.7 7030.3 10571.1 7038.3 10573.1 7046.4 10574.8 M 7046.4 10574.9 7059.8 10577.1 7073.2 10579 7086.6 10580.4 7100.1 10581.5 7113.7 10582.2 7127.2 10582.5 7140.8 10582.4 7154.3 10581.9 7167.8 10581 7181.3 10579.8 7194.7 10578.1 7208.1 10576.1 7221.4 10573.7 7234.7 10570.9 7247.8 10567.7 7260.9 10564.1 7273.9 10560.2 7286.7 10555.9 7299.4 10551.2 7312 10546.1 7324.4 10540.7 7336.7 10535 7348.7 10528.9 7360.6 10522.4 7372.4 10515.6 M 7135.3 10160 7283.4 10071.1 7290.3 10066.7 7297.1 10062 7303.6 10056.9 7309.9 10051.6 7315.9 10046 7321.7 10040.1 7327.2 10033.9 7332.3 10027.5 7337.2 10020.9 7341.8 10014.1 7346 10007 7350 9999.7 7353.5 9992.3 7356.8 9984.7 7359.6 9977 7362.1 9969.2 7364.3 9961.2 7366 9953.2 7367.4 9945 7368.4 9936.9 7369.1 9928.7 7369.3 9920.4 7369.2 9912.2 7368.6 9904 7367.7 9895.8 7366.4 9887.6 7364.8 9879.6 7362.7 9871.6 7360.3 9863.7 7357.6 9855.9 7354.4 9848.3 7351 9840.9 7347.1 9833.6 7343 9826.4 7338.5 9819.5 7333.7 9812.8 7328.6 9806.4 7323.2 9800.2 7317.5 9794.2 7311.6 9788.5 7305.3 9783.1 7298.9 9778 7292.2 9773.2 7285.3 9768.7 7278.2 9764.5 7270.9 9760.7 7263.4 9757.2 7255.8 9754.1 7248 9751.3 7240.2 9748.9 7232.2 9746.9 7224.1 9745.2 M 7224.2 9745.1 7210.8 9742.9 7197.4 9741 7184 9739.6 7170.5 9738.5 7156.9 9737.8 7143.4 9737.5 7129.8 9737.6 7116.3 9738.1 7102.8 9739 7089.3 9740.2 7075.9 9741.9 7062.5 9743.9 7049.2 9746.3 7035.9 9749.1 7022.7 9752.3 7009.7 9755.9 6996.7 9759.8 6983.9 9764.1 6971.2 9768.8 6958.6 9773.9 6946.2 9779.3 6933.9 9785 6921.9 9791.2 6909.9 9797.6 6898.2 9804.4 M 7905.7 10456.3 8202.1 10693.4 8202.1 9626.6 M 8498.4 9626.6 7905.7 9626.6" fill="none" stroke-width="203.2"/><path d="M 3640 14046.7 1440 14046.7 M 1440 11953.3 3640 11953.3" fill="none" stroke-width="127"/><path d="M 4762 12641.6 4999.1 12641.6 M 4762 12641.6 4752.5 12641.8 4742.9 12642.4 4733.4 12643.3 4724 12644.7 4714.6 12646.4 4705.3 12648.5 4696 12651 4686.9 12653.8 4677.9 12657 4669.1 12660.6 4660.4 12664.5 4651.8 12668.8 4643.4 12673.4 4635.3 12678.3 4627.3 12683.6 4619.6 12689.2 4612 12695 4604.8 12701.2 4597.8 12707.7 4591 12714.5 4584.5 12721.5 4578.3 12728.7 4572.5 12736.3 4566.9 12744 4561.6 12752 4556.7 12760.2 4552.1 12768.5 4547.8 12777.1 4543.9 12785.8 4540.3 12794.6 4537.1 12803.6 4534.3 12812.7 4531.8 12822 4529.7 12831.3 4528 12840.7 4526.6 12850.1 4525.7 12859.6 4525.1 12869.2 4524.9 12878.7 4524.9 13471.3 4525.1 13480.8 4525.7 13490.4 4526.6 13499.9 4528 13509.3 4529.7 13518.7 4531.8 13528 4534.3 13537.3 4537.1 13546.4 4540.3 13555.4 4543.9 13564.2 4547.8 13572.9 4552.1 13581.5 4556.7 13589.8 4561.6 13598 4566.9 13606 4572.5 13613.7 4578.3 13621.3 4584.5 13628.5 4591 13635.5 4597.8 13642.3 4604.8 13648.8 4612 13655 4619.6 13660.8 4627.3 13666.4 4635.3 13671.7 4643.4 13676.6 4651.8 13681.2 4660.4 13685.5 4669.1 13689.4 4677.9 13693 4686.9 13696.2 4696 13699 4705.3 13701.5 4714.6 13703.6 4724 13705.3 4733.4 13706.7 4742.9 13707.6 4752.4 13708.2 4762 13708.4 4999.1 13708.4 M 5482.4 12641.6 5838 12641.6 5847.5 12641.8 5857.1 12642.4 5866.6 12643.3 5876 12644.7 5885.4 12646.4 5894.7 12648.5 5904 12651 5913.1 12653.8 5922.1 12657 5930.9 12660.6 5939.6 12664.5 5948.2 12668.8 5956.6 12673.4 5964.7 12678.3 5972.7 12683.6 5980.4 12689.2 5988 12695 5995.2 12701.2 6002.2 12707.7 6009 12714.5 6015.5 12721.5 6021.7 12728.7 6027.5 12736.3 6033.1 12744 6038.4 12752 6043.3 12760.2 6047.9 12768.5 6052.2 12777.1 6056.1 12785.8 6059.7 12794.6 6062.9 12803.6 6065.7 12812.7 6068.2 12822 6070.3 12831.3 6072 12840.7 6073.4 12850.1 6074.3 12859.6 6074.9 12869.2 6075.1 12878.7 6075.1 12997.2 6074.9 13006.7 6074.3 13016.3 6073.4 13025.8 6072 13035.2 6070.3 13044.6 6068.2 13053.9 6065.7 13063.2 6062.9 13072.3 6059.7 13081.3 6056.1 13090.1 6052.2 13098.8 6047.9 13107.4 6043.3 13115.8 6038.4 13123.9 6033.1 13131.9 6027.5 13139.6 6021.7 13147.2 6015.5 13154.4 6009 13161.4 6002.2 13168.2 5995.2 13174.7 5988 13180.9 5980.4 13186.7 5972.7 13192.3 5964.7 13197.6 5956.6 13202.5 5948.2 13207.1 5939.6 13211.4 5930.9 13215.3 5922.1 13218.9 5913.1 13222.1 5904 13224.9 5894.7 13227.4 5885.4 13229.5 5876 13231.2 5866.6 13232.6 5857.1 13233.5 5847.5 13234.1 5838 13234.3 5482.4 13234.3 5482.4 13708.4 6075.1 13708.4" fill="none" stroke-width="203.2"/><path d="M 0 0 40000 0 40000 40000 0 40000 0 0" fill="none" stroke-width="254"/></g></svg>