<svg version="1.1" xmlns="http://www.w3.org/2000/svg" xmlns:xlink="http://www.w3.org/1999/xlink" stroke-linecap="round" stroke-linejoin="round" stroke-width="0" fill-rule="evenodd" width="40.254mm" height="46.991mm" viewBox="-127 -127 40254 46991" id="I0zKAnkZPXerLUI8zVE1"><defs><circle cx="0" cy="0" r="250" id="I0zKAnkZPXerLUI8zVE1_pad-13"/></defs><g transform="translate(0,46737) scale(1,-1)" fill="currentColor" stroke="currentColor"><path d="M 1500 37000 4500 37000 M 3000 35500 3000 38500 M 35500 37000 38500 37000 M 37000 35500 37000 38500 M 35500 3000 38500 3000 M 37000 1500 37000 4500 M 4500 3000 1500 3000 M 3000 1500 3000 4500" fill="none" stroke-width="152.4"/><path d="M 9280 46764 26280 46764 M 9280 22764 9280 21764 11780 21764 M 23780 21764 26280 21764 26280 22764 M 9280 38764 9280 46764 M 26280 46764 26280 38764" fill="none" stroke-width="200"/><path d="M 27401.1 23376.3 27401.1 22605.8 27401.3 22595.1 27401.9 22584.4 27402.8 22573.8 27404.2 22563.2 27405.9 22552.6 27408 22542.1 27410.5 22531.7 27413.4 22521.4 27416.6 22511.2 27420.2 22501.1 27424.2 22491.2 27428.5 22481.4 27433.2 22471.8 27438.2 22462.3 27443.5 22453 27449.2 22444 27455.2 22435.1 27461.5 22426.5 27468.1 22418.1 27475.1 22409.9 27482.3 22402 27489.8 22394.4 27497.6 22387 27505.6 22380 27513.9 22373.2 27522.4 22366.7 27531.1 22360.6 27540.1 22354.7 27549.3 22349.2 27558.6 22344 27568.2 22339.2 27577.9 22334.7 27587.7 22330.5 27597.7 22326.8 27607.9 22323.3 27618.1 22320.3 27628.5 22317.6 27638.9 22315.3 27649.5 22313.4 27660.1 22311.9 27670.7 22310.7 27681.4 22309.9 27692.1 22309.5 27702.7 22309.5 27713.4 22309.9 27724.1 22310.7 27734.7 22311.9 27745.3 22313.4 27755.9 22315.3 27766.3 22317.6 27776.7 22320.3 27786.9 22323.3 27797.1 22326.8 27807.1 22330.5 27816.9 22334.7 27826.6 22339.2 27836.2 22344 27845.6 22349.2 27854.7 22354.7 27863.7 22360.6 27872.4 22366.7 27880.9 22373.2 27889.2 22380 27897.2 22387 27905 22394.4 27912.5 22402 27919.7 22409.9 27926.7 22418.1 27933.3 22426.5 27939.6 22435.1 27945.6 22444 27951.3 22453 27956.6 22462.3 27961.6 22471.8 27966.3 22481.4 27970.6 22491.2 27974.6 22501.1 27978.2 22511.2 27981.4 22521.4 27984.3 22531.7 27986.8 22542.1 27988.9 22552.6 27990.6 22563.2 27992 22573.8 27992.9 22584.4 27993.5 22595.1 27993.7 22605.8 27993.7 23376.3 M 28582.2 23139.2 28878.5 23376.3 28878.5 22309.5 M 28582.2 22309.5 29174.8 22309.5" fill="none" stroke-width="203.2"/><use xlink:href="#I0zKAnkZPXerLUI8zVE1_pad-13" x="36056.4" y="12634"/><path d="M 35866.4 12130 35866.4 10730 34856.4 10730 M 32713.6 10730 32713.6 12130 M 32713.6 10730 33723.6 10730" fill="none" stroke-width="120"/><path d="M 36163.2 10669.3 36163.2 11143.5 36163.4 11154.2 36164 11164.9 36164.9 11175.5 36166.3 11186.1 36168 11196.7 36170.1 11207.2 36172.6 11217.6 36175.5 11227.9 36178.7 11238.1 36182.3 11248.2 36186.3 11258.1 36190.6 11267.9 36195.3 11277.5 36200.3 11287 36205.6 11296.3 36211.3 11305.3 36217.3 11314.2 36223.6 11322.8 36230.2 11331.2 36237.2 11339.4 36244.4 11347.3 36251.9 11354.9 36259.7 11362.3 36267.7 11369.3 36276 11376.1 36284.5 11382.6 36293.2 11388.7 36302.2 11394.6 36311.4 11400.1 36320.7 11405.3 36330.3 11410.1 36340 11414.6 36349.8 11418.8 36359.8 11422.5 36370 11426 36380.2 11429 36390.6 11431.7 36401 11434 36411.6 11435.9 36422.2 11437.4 36432.8 11438.6 36443.5 11439.4 36454.2 11439.8 36464.8 11439.8 36475.5 11439.4 36486.2 11438.6 36496.8 11437.4 36507.4 11435.9 36518 11434 36528.4 11431.7 36538.8 11429 36549 11426 36559.2 11422.5 36569.2 11418.8 36579 11414.6 36588.7 11410.1 36598.3 11405.3 36607.7 11400.1 36616.8 11394.6 36625.8 11388.7 36634.5 11382.6 36643 11376.1 36651.3 11369.3 36659.3 11362.3 36667.1 11354.9 36674.6 11347.3 36681.8 11339.4 36688.8 11331.2 36695.4 11322.8 36701.7 11314.2 36707.7 11305.3 36713.4 11296.3 36718.7 11287 36723.7 11277.5 36728.4 11267.9 36732.7 11258.1 36736.7 11248.2 36740.3 11238.1 36743.5 11227.9 36746.4 11217.6 36748.9 11207.2 36751 11196.7 36752.7 11186.1 36754.1 11175.5 36755 11164.9 36755.6 11154.2 36755.8 11143.5 36755.8 10669.3 36755.6 10658.6 36755 10647.9 36754.1 10637.3 36752.7 10626.7 36751 10616.1 36748.9 10605.6 36746.4 10595.2 36743.5 10584.9 36740.3 10574.7 36736.7 10564.6 36732.7 10554.7 36728.4 10544.9 36723.7 10535.3 36718.7 10525.8 36713.4 10516.5 36707.7 10507.5 36701.7 10498.6 36695.4 10490 36688.8 10481.6 36681.8 10473.4 36674.6 10465.5 36667.1 10457.9 36659.3 10450.5 36651.3 10443.5 36643 10436.7 36634.5 10430.2 36625.8 10424.1 36616.8 10418.2 36607.7 10412.7 36598.3 10407.5 36588.7 10402.7 36579 10398.2 36569.2 10394 36559.2 10390.3 36549 10386.8 36538.8 10383.8 36528.4 10381.1 36518 10378.8 36507.4 10376.9 36496.8 10375.4 36486.2 10374.2 36475.5 10373.4 36464.8 10373 36454.2 10373 36443.5 10373.4 36432.8 10374.2 36422.2 10375.4 36411.6 10376.9 36401 10378.8 36390.6 10381.1 36380.2 10383.8 36370 10386.8 36359.8 10390.3 36349.8 10394 36340 10398.2 36330.3 10402.7 36320.7 10407.5 36311.4 10412.7 36302.2 10418.2 36293.2 10424.1 36284.5 10430.2 36276 10436.7 36267.7 10443.5 36259.7 10450.5 36251.9 10457.9 36244.4 10465.5 36237.2 10473.4 36230.2 10481.6 36223.6 10490 36217.3 10498.6 36211.3 10507.5 36205.6 10516.5 36200.3 10525.8 36195.3 10535.3 36190.6 10544.9 36186.3 10554.7 36182.3 10564.6 36178.7 10574.7 36175.5 10584.9 36172.6 10595.2 36170.1 10605.6 36168 10616.1 36166.3 10626.7 36164.9 10637.3 36164 10647.9 36163.4 10658.6 36163.2 10669.3 M 36637.3 10610.1 36874.4 10373 M 37244.2 11202.7 37540.5 11439.8 37540.5 10373 M 37244.2 10373 37836.9 10373 M 12166.6 3388.4 12166.6 2321.6 M 12166.6 3388.4 12462.9 3388.4 12473.6 3388.2 12484.3 3387.6 12494.9 3386.7 12505.5 3385.3 12516.1 3383.6 12526.6 3381.5 12537 3379 12547.3 3376.1 12557.5 3372.9 12567.6 3369.3 12577.5 3365.3 12587.3 3361 12596.9 3356.3 12606.4 3351.3 12615.7 3346 12624.7 3340.3 12633.6 3334.3 12642.2 3328 12650.6 3321.4 12658.8 3314.4 12666.7 3307.2 12674.3 3299.7 12681.7 3291.9 12688.7 3283.9 12695.5 3275.6 12702 3267.1 12708.1 3258.4 12714 3249.4 12719.5 3240.2 12724.7 3230.9 12729.5 3221.3 12734 3211.6 12738.2 3201.8 12741.9 3191.8 12745.4 3181.6 12748.4 3171.4 12751.1 3161 12753.4 3150.6 12755.3 3140 12756.8 3129.4 12758 3118.8 12758.8 3108.1 12759.2 3097.4 12759.2 3086.8 12758.8 3076.1 12758 3065.4 12756.8 3054.8 12755.3 3044.2 12753.4 3033.6 12751.1 3023.2 12748.4 3012.8 12745.4 3002.6 12741.9 2992.4 12738.2 2982.4 12734 2972.6 12729.5 2962.9 12724.7 2953.3 12719.5 2943.9 12714 2934.8 12708.1 2925.8 12702 2917.1 12695.5 2908.6 12688.7 2900.3 12681.7 2892.3 12674.3 2884.5 12666.7 2877 12658.8 2869.8 12650.6 2862.8 12642.2 2856.2 12633.6 2849.9 12624.7 2843.9 12615.7 2838.2 12606.4 2832.9 12596.9 2827.9 12587.3 2823.2 12577.5 2818.9 12567.6 2814.9 12557.5 2811.3 12547.3 2808.1 12537 2805.2 12526.6 2802.7 12516.1 2800.6 12505.5 2798.9 12494.9 2797.5 12484.3 2796.6 12473.6 2796 12462.9 2795.8 M 12462.9 2795.7 12166.6 2795.7 M 12522.2 2795.7 12759.3 2321.6 M 13298.6 3151.3 13594.9 3388.4 13594.9 2321.6 M 13298.6 2321.6 13891.2 2321.6" fill="none" stroke-width="203.2"/><path d="M 18826.7 3980 18826.7 6180 M 16733.3 6180 16733.3 3980" fill="none" stroke-width="127"/><path d="M 17242 7401.6 17479.1 7401.6 M 17242 7401.6 17232.5 7401.8 17222.9 7402.4 17213.4 7403.3 17204 7404.7 17194.6 7406.4 17185.3 7408.5 17176 7411 17166.9 7413.8 17157.9 7417 17149.1 7420.6 17140.4 7424.5 17131.8 7428.8 17123.5 7433.4 17115.3 7438.3 17107.3 7443.6 17099.6 7449.2 17092 7455 17084.8 7461.2 17077.8 7467.7 17071 7474.5 17064.5 7481.5 17058.3 7488.7 17052.5 7496.3 17046.9 7504 17041.6 7512 17036.7 7520.2 17032.1 7528.5 17027.8 7537.1 17023.9 7545.8 17020.3 7554.6 17017.1 7563.6 17014.3 7572.7 17011.8 7582 17009.7 7591.3 17008 7600.7 17006.6 7610.1 17005.7 7619.6 17005.1 7629.2 17004.9 7638.7 17004.9 8231.3 17005.1 8240.8 17005.7 8250.4 17006.6 8259.9 17008 8269.3 17009.7 8278.7 17011.8 8288 17014.3 8297.3 17017.1 8306.4 17020.3 8315.4 17023.9 8324.2 17027.8 8332.9 17032.1 8341.5 17036.7 8349.8 17041.6 8358 17046.9 8366 17052.5 8373.7 17058.3 8381.3 17064.5 8388.5 17071 8395.5 17077.8 8402.3 17084.8 8408.8 17092 8415 17099.6 8420.8 17107.3 8426.4 17115.3 8431.7 17123.4 8436.6 17131.8 8441.2 17140.4 8445.5 17149.1 8449.4 17157.9 8453 17166.9 8456.2 17176 8459 17185.3 8461.5 17194.6 8463.6 17204 8465.3 17213.4 8466.7 17222.9 8467.6 17232.4 8468.2 17242 8468.4 17479.1 8468.4 M 17962.4 8231.3 18258.7 8468.4 18258.7 7401.6 M 17962.4 7401.6 18555.1 7401.6 M 36296.6 6587.1 36296.6 6112.9 M 36296.6 6587.1 36296.8 6597.8 36297.4 6608.5 36298.3 6619.1 36299.7 6629.7 36301.4 6640.3 36303.5 6650.8 36306 6661.2 36308.9 6671.5 36312.1 6681.7 36315.7 6691.8 36319.7 6701.7 36324 6711.5 36328.7 6721.1 36333.7 6730.6 36339 6739.9 36344.7 6748.9 36350.7 6757.8 36357 6766.4 36363.6 6774.8 36370.6 6783 36377.8 6790.9 36385.3 6798.5 36393.1 6805.9 36401.1 6812.9 36409.4 6819.7 36417.9 6826.2 36426.6 6832.3 36435.6 6838.2 36444.8 6843.7 36454.1 6848.9 36463.7 6853.7 36473.4 6858.2 36483.2 6862.4 36493.2 6866.1 36503.4 6869.6 36513.6 6872.6 36524 6875.3 36534.4 6877.6 36545 6879.5 36555.6 6881 36566.2 6882.2 36576.9 6883 36587.6 6883.4 36598.2 6883.4 36608.9 6883 36619.6 6882.2 36630.2 6881 36640.8 6879.5 36651.4 6877.6 36661.8 6875.3 36672.2 6872.6 36682.4 6869.6 36692.6 6866.1 36702.6 6862.4 36712.4 6858.2 36722.1 6853.7 36731.7 6848.9 36741.1 6843.7 36750.2 6838.2 36759.2 6832.3 36767.9 6826.2 36776.4 6819.7 36784.7 6812.9 36792.7 6805.9 36800.5 6798.5 36808 6790.9 36815.2 6783 36822.2 6774.8 36828.8 6766.4 36835.1 6757.8 36841.1 6748.9 36846.8 6739.9 36852.1 6730.6 36857.1 6721.1 36861.8 6711.5 36866.1 6701.7 36870.1 6691.8 36873.7 6681.7 36876.9 6671.5 36879.8 6661.2 36882.3 6650.8 36884.4 6640.3 36886.1 6629.7 36887.5 6619.1 36888.4 6608.5 36889 6597.8 36889.2 6587.1 M 36889.3 6587.1 36889.3 6112.9 M 36889.2 6112.9 36889 6102.2 36888.4 6091.5 36887.5 6080.9 36886.1 6070.3 36884.4 6059.7 36882.3 6049.2 36879.8 6038.8 36876.9 6028.5 36873.7 6018.3 36870.1 6008.2 36866.1 5998.3 36861.8 5988.5 36857.1 5978.9 36852.1 5969.4 36846.8 5960.1 36841.1 5951.1 36835.1 5942.2 36828.8 5933.6 36822.2 5925.2 36815.2 5917 36808 5909.1 36800.5 5901.5 36792.7 5894.1 36784.7 5887.1 36776.4 5880.3 36767.9 5873.8 36759.2 5867.7 36750.2 5861.8 36741.1 5856.3 36731.7 5851.1 36722.1 5846.3 36712.4 5841.8 36702.6 5837.6 36692.6 5833.9 36682.4 5830.4 36672.2 5827.4 36661.8 5824.7 36651.4 5822.4 36640.8 5820.5 36630.2 5819 36619.6 5817.8 36608.9 5817 36598.2 5816.6 36587.6 5816.6 36576.9 5817 36566.2 5817.8 36555.6 5819 36545 5820.5 36534.4 5822.4 36524 5824.7 36513.6 5827.4 36503.4 5830.4 36493.2 5833.9 36483.2 5837.6 36473.4 5841.8 36463.7 5846.3 36454.1 5851.1 36444.8 5856.3 36435.6 5861.8 36426.6 5867.7 36417.9 5873.8 36409.4 5880.3 36401.1 5887.1 36393.1 5894.1 36385.3 5901.5 36377.8 5909.1 36370.6 5917 36363.6 5925.2 36357 5933.6 36350.7 5942.2 36344.7 5951.1 36339 5960.1 36333.7 5969.4 36328.7 5978.9 36324 5988.5 36319.7 5998.3 36315.7 6008.2 36312.1 6018.3 36308.9 6028.5 36306 6038.8 36303.5 6049.2 36301.4 6059.7 36299.7 6070.3 36298.3 6080.9 36297.4 6091.5 36296.8 6102.2 36296.6 6112.9 M 36770.7 6053.7 37007.8 5816.6 M 37970.3 6616.7 37970.1 6626.9 37969.5 6637.1 37968.5 6647.3 37967.2 6657.4 37965.4 6667.5 37963.3 6677.5 37960.8 6687.4 37957.9 6697.2 37954.6 6706.8 37951 6716.4 37947 6725.8 37942.6 6735 37937.9 6744.1 37932.8 6753 37927.5 6761.7 37921.7 6770.1 37915.7 6778.4 37909.4 6786.4 37902.7 6794.1 37895.8 6801.6 37888.5 6808.9 37881 6815.8 37873.3 6822.5 37865.3 6828.8 37857 6834.8 37848.6 6840.6 37839.9 6845.9 37831 6851 37821.9 6855.7 37812.7 6860.1 37803.3 6864.1 37793.7 6867.7 37784.1 6871 37774.3 6873.9 37764.4 6876.4 37754.4 6878.5 37744.3 6880.3 37734.2 6881.6 37724 6882.6 37713.8 6883.2 37703.6 6883.4 37692 6883.2 37680.3 6882.6 37668.7 6881.6 37657.2 6880.2 37645.7 6878.5 37634.2 6876.3 37622.9 6873.7 37611.6 6870.8 37600.4 6867.5 37589.4 6863.8 37578.5 6859.7 37567.7 6855.3 37557.1 6850.5 37546.7 6845.3 37536.4 6839.8 37526.3 6834 37516.5 6827.8 37506.8 6821.3 37497.4 6814.4 37488.2 6807.2 37479.3 6799.8 37470.6 6792 37462.2 6783.9 37454.1 6775.6 37446.3 6767 37438.7 6758.1 37431.5 6749 37424.6 6739.6 37418 6730 37411.7 6720.2 37405.8 6710.2 37400.2 6700 37395 6689.6 37390.1 6679 37385.6 6668.3 37381.4 6657.4 37377.7 6646.4 M 37881.5 6409.2 37889 6416.6 37896.2 6424.3 37903.1 6432.3 37909.8 6440.5 37916.1 6448.9 37922.1 6457.6 37927.8 6466.4 37933.2 6475.5 37938.2 6484.8 37942.9 6494.2 37947.2 6503.8 37951.2 6513.6 37954.8 6523.5 37958.1 6533.5 37960.9 6543.7 37963.4 6553.9 37965.6 6564.3 37967.3 6574.7 37968.7 6585.1 37969.6 6595.6 37970.2 6606.2 37970.4 6616.7 M 37881.4 6409.3 37377.6 5816.6 37970.3 5816.6" fill="none" stroke-width="203.2"/><path d="M 19080 7400 19080.2 7406.3 19080.8 7412.5 19081.8 7418.7 19083.1 7424.9 19084.9 7430.9 19087 7436.8 19089.5 7442.6 19092.4 7448.2 19095.6 7453.6 19099.1 7458.8 19102.9 7463.7 19107.1 7468.5 19111.5 7472.9 19116.3 7477.1 19121.2 7480.9 19126.4 7484.4 19131.8 7487.6 19137.4 7490.5 19143.2 7493 19149.1 7495.1 19155.1 7496.9 19161.3 7498.2 19167.5 7499.2 19173.7 7499.8 19180 7500 19186.3 7499.8 19192.5 7499.2 19198.7 7498.2 19204.9 7496.9 19210.9 7495.1 19216.8 7493 19222.6 7490.5 19228.2 7487.6 19233.6 7484.4 19238.8 7480.9 19243.7 7477.1 19248.5 7472.9 19252.9 7468.5 19257.1 7463.7 19260.9 7458.8 19264.4 7453.6 19267.6 7448.2 19270.5 7442.6 19273 7436.8 19275.1 7430.9 19276.9 7424.9 19278.2 7418.7 19279.2 7412.5 19279.8 7406.3 19280 7400 19279.8 7393.7 19279.2 7387.5 19278.2 7381.3 19276.9 7375.1 19275.1 7369.1 19273 7363.2 19270.5 7357.4 19267.6 7351.8 19264.4 7346.4 19260.9 7341.2 19257.1 7336.3 19252.9 7331.5 19248.5 7327.1 19243.7 7322.9 19238.8 7319.1 19233.6 7315.6 19228.2 7312.4 19222.6 7309.5 19216.8 7307 19210.9 7304.9 19204.9 7303.1 19198.7 7301.8 19192.5 7300.8 19186.3 7300.2 19180 7300 19173.7 7300.2 19167.5 7300.8 19161.3 7301.8 19155.1 7303.1 19149.1 7304.9 19143.2 7307 19137.4 7309.5 19131.8 7312.4 19126.4 7315.6 19121.2 7319.1 19116.3 7322.9 19111.5 7327.1 19107.1 7331.5 19102.9 7336.3 19099.1 7341.2 19095.6 7346.4 19092.4 7351.8 19089.5 7357.4 19087 7363.2 19084.9 7369.1 19083.1 7375.1 19081.8 7381.3 19080.8 7387.5 19080.2 7393.7 19080 7400" fill="none" stroke-width="200"/><path d="M 21260 7800 21920 7800 M 22390 6685 22390 6015 M 21920 4900 21260 4900" fill="none" stroke-width="127"/><path d="M 20361.6 4438.4 20361.6 3667.9 20361.8 3657.2 20362.4 3646.5 20363.3 3635.9 20364.7 3625.3 20366.4 3614.7 20368.5 3604.2 20371 3593.8 20373.9 3583.5 20377.1 3573.3 20380.7 3563.2 20384.7 3553.3 20389 3543.5 20393.7 3533.9 20398.7 3524.4 20404 3515.1 20409.7 3506.1 20415.7 3497.2 20422 3488.6 20428.6 3480.2 20435.6 3472 20442.8 3464.1 20450.3 3456.5 20458.1 3449.1 20466.1 3442.1 20474.4 3435.3 20482.9 3428.8 20491.6 3422.7 20500.6 3416.8 20509.8 3411.3 20519.1 3406.1 20528.7 3401.3 20538.4 3396.8 20548.2 3392.6 20558.2 3388.9 20568.4 3385.4 20578.6 3382.4 20589 3379.7 20599.4 3377.4 20610 3375.5 20620.6 3374 20631.2 3372.8 20641.9 3372 20652.6 3371.6 20663.2 3371.6 20673.9 3372 20684.6 3372.8 20695.2 3374 20705.8 3375.5 20716.4 3377.4 20726.8 3379.7 20737.2 3382.4 20747.4 3385.4 20757.6 3388.9 20767.6 3392.6 20777.4 3396.8 20787.1 3401.3 20796.7 3406.1 20806 3411.3 20815.2 3416.8 20824.2 3422.7 20832.9 3428.8 20841.4 3435.3 20849.7 3442.1 20857.7 3449.1 20865.5 3456.5 20873 3464.1 20880.2 3472 20887.2 3480.2 20893.8 3488.6 20900.1 3497.2 20906.1 3506.1 20911.8 3515.1 20917.1 3524.4 20922.1 3533.9 20926.8 3543.5 20931.1 3553.3 20935.1 3563.2 20938.7 3573.3 20941.9 3583.5 20944.8 3593.8 20947.3 3604.2 20949.4 3614.7 20951.1 3625.3 20952.5 3635.9 20953.4 3646.5 20954 3657.2 20954.2 3667.9 M 20954.3 3667.9 20954.3 4438.4 M 21868.7 4438.4 21878.9 4438.2 21889.1 4437.6 21899.3 4436.6 21909.4 4435.3 21919.5 4433.5 21929.5 4431.4 21939.4 4428.9 21949.2 4426 21958.8 4422.7 21968.4 4419.1 21977.8 4415.1 21987 4410.7 21996.1 4406 22005 4400.9 22013.7 4395.6 22022.1 4389.8 22030.4 4383.8 22038.4 4377.5 22046.1 4370.8 22053.6 4363.9 22060.9 4356.6 22067.8 4349.1 22074.5 4341.4 22080.8 4333.4 22086.8 4325.1 22092.6 4316.7 22097.9 4308 22103 4299.1 22107.7 4290 22112.1 4280.8 22116.1 4271.4 22119.7 4261.8 22123 4252.2 22125.9 4242.4 22128.4 4232.5 22130.5 4222.5 22132.3 4212.4 22133.6 4202.3 22134.6 4192.1 22135.2 4181.9 22135.4 4171.7 M 21868.7 4438.4 21857.1 4438.2 21845.4 4437.6 21833.8 4436.6 21822.3 4435.2 21810.8 4433.5 21799.3 4431.3 21788 4428.7 21776.7 4425.8 21765.5 4422.5 21754.5 4418.8 21743.6 4414.7 21732.8 4410.3 21722.2 4405.5 21711.8 4400.3 21701.5 4394.8 21691.4 4389 21681.6 4382.8 21671.9 4376.3 21662.5 4369.4 21653.3 4362.2 21644.4 4354.8 21635.7 4347 21627.3 4338.9 21619.2 4330.6 21611.4 4322 21603.8 4313.1 21596.6 4304 21589.7 4294.6 21583.1 4285 21576.8 4275.2 21570.9 4265.2 21565.3 4255 21560.1 4244.6 21555.2 4234 21550.7 4223.3 21546.5 4212.4 21542.8 4201.4 M 22046.5 3964.2 22054 3971.6 22061.2 3979.3 22068.1 3987.3 22074.8 3995.5 22081.1 4003.9 22087.1 4012.6 22092.8 4021.4 22098.2 4030.5 22103.2 4039.8 22107.9 4049.2 22112.2 4058.8 22116.2 4068.6 22119.8 4078.5 22123.1 4088.5 22125.9 4098.7 22128.4 4108.9 22130.6 4119.3 22132.3 4129.7 22133.7 4140.1 22134.6 4150.6 22135.2 4161.2 22135.4 4171.7 M 22046.5 3964.3 21542.7 3371.6 22135.4 3371.6 M 14706.6 7401.6 14706.6 8468.4 15002.9 8468.4 15013.6 8468.2 15024.3 8467.6 15034.9 8466.7 15045.5 8465.3 15056.1 8463.6 15066.6 8461.5 15077 8459 15087.3 8456.1 15097.5 8452.9 15107.6 8449.3 15117.5 8445.3 15127.3 8441 15136.9 8436.3 15146.4 8431.3 15155.7 8426 15164.7 8420.3 15173.6 8414.3 15182.2 8408 15190.6 8401.4 15198.8 8394.4 15206.7 8387.2 15214.3 8379.7 15221.7 8371.9 15228.7 8363.9 15235.5 8355.6 15242 8347.1 15248.1 8338.4 15254 8329.4 15259.5 8320.2 15264.7 8310.9 15269.5 8301.3 15274 8291.6 15278.2 8281.8 15281.9 8271.8 15285.4 8261.6 15288.4 8251.4 15291.1 8241 15293.4 8230.6 15295.3 8220 15296.8 8209.4 15298 8198.8 15298.8 8188.1 15299.2 8177.4 15299.2 8166.8 15298.8 8156.1 15298 8145.4 15296.8 8134.8 15295.3 8124.2 15293.4 8113.6 15291.1 8103.2 15288.4 8092.8 15285.4 8082.6 15281.9 8072.4 15278.2 8062.4 15274 8052.6 15269.5 8042.9 15264.7 8033.3 15259.5 8023.9 15254 8014.8 15248.1 8005.8 15242 7997.1 15235.5 7988.6 15228.7 7980.3 15221.7 7972.3 15214.3 7964.5 15206.7 7957 15198.8 7949.8 15190.6 7942.8 15182.2 7936.2 15173.6 7929.9 15164.7 7923.9 15155.7 7918.2 15146.4 7912.9 15136.9 7907.9 15127.3 7903.2 15117.5 7898.9 15107.6 7894.9 15097.5 7891.3 15087.3 7888.1 15077 7885.2 15066.6 7882.7 15056.1 7880.6 15045.5 7878.9 15034.9 7877.5 15024.3 7876.6 15013.6 7876 15002.9 7875.8 M 15002.9 7875.7 14706.6 7875.7 M 15062.2 7875.7 15299.3 7401.6 M 16164.5 8468.4 16174.7 8468.2 16184.9 8467.6 16195.1 8466.6 16205.2 8465.3 16215.3 8463.5 16225.3 8461.4 16235.2 8458.9 16245 8456 16254.6 8452.7 16264.2 8449.1 16273.6 8445.1 16282.8 8440.7 16291.9 8436 16300.8 8430.9 16309.5 8425.6 16317.9 8419.8 16326.2 8413.8 16334.2 8407.5 16341.9 8400.8 16349.4 8393.9 16356.7 8386.6 16363.6 8379.1 16370.3 8371.4 16376.6 8363.4 16382.6 8355.1 16388.4 8346.7 16393.7 8338 16398.8 8329.1 16403.5 8320 16407.9 8310.8 16411.9 8301.4 16415.5 8291.8 16418.8 8282.2 16421.7 8272.4 16424.2 8262.5 16426.3 8252.5 16428.1 8242.4 16429.4 8232.3 16430.4 8222.1 16431 8211.9 16431.2 8201.7 M 16164.5 8468.4 16152.9 8468.2 16141.2 8467.6 16129.6 8466.6 16118.1 8465.2 16106.6 8463.5 16095.1 8461.3 16083.8 8458.7 16072.5 8455.8 16061.3 8452.5 16050.3 8448.8 16039.4 8444.7 16028.6 8440.3 16018 8435.5 16007.6 8430.3 15997.3 8424.8 15987.2 8419 15977.4 8412.8 15967.7 8406.3 15958.3 8399.4 15949.1 8392.2 15940.2 8384.8 15931.5 8377 15923.1 8368.9 15915 8360.6 15907.2 8352 15899.6 8343.1 15892.4 8334 15885.5 8324.6 15878.9 8315 15872.6 8305.2 15866.7 8295.2 15861.1 8285 15855.9 8274.6 15851 8264 15846.5 8253.3 15842.3 8242.4 15838.6 8231.4 M 16342.4 7994.2 16349.9 8001.6 16357.1 8009.3 16364 8017.3 16370.7 8025.5 16377 8033.9 16383 8042.6 16388.7 8051.4 16394.1 8060.5 16399.1 8069.8 16403.8 8079.2 16408.1 8088.8 16412.1 8098.6 16415.7 8108.5 16419 8118.5 16421.8 8128.7 16424.3 8138.9 16426.5 8149.3 16428.2 8159.7 16429.6 8170.1 16430.5 8180.6 16431.1 8191.2 16431.3 8201.7 M 16342.3 7994.3 15838.6 7401.6 16431.2 7401.6 M 35638.8 14831.6 35638.8 15898.4 35935.1 15898.4 35945.8 15898.2 35956.5 15897.6 35967.1 15896.7 35977.7 15895.3 35988.3 15893.6 35998.8 15891.5 36009.2 15889 36019.5 15886.1 36029.7 15882.9 36039.8 15879.3 36049.7 15875.3 36059.5 15871 36069.1 15866.3 36078.6 15861.3 36087.9 15856 36096.9 15850.3 36105.8 15844.3 36114.4 15838 36122.8 15831.4 36131 15824.4 36138.9 15817.2 36146.5 15809.7 36153.9 15801.9 36160.9 15793.9 36167.7 15785.6 36174.2 15777.1 36180.3 15768.4 36186.2 15759.4 36191.7 15750.2 36196.9 15740.9 36201.7 15731.3 36206.2 15721.6 36210.4 15711.8 36214.1 15701.8 36217.6 15691.6 36220.6 15681.4 36223.3 15671 36225.6 15660.6 36227.5 15650 36229 15639.4 36230.2 15628.8 36231 15618.1 36231.4 15607.4 36231.4 15596.8 36231 15586.1 36230.2 15575.4 36229 15564.8 36227.5 15554.2 36225.6 15543.6 36223.3 15533.2 36220.6 15522.8 36217.6 15512.6 36214.1 15502.4 36210.4 15492.4 36206.2 15482.6 36201.7 15472.9 36196.9 15463.3 36191.7 15454 36186.2 15444.8 36180.3 15435.8 36174.2 15427.1 36167.7 15418.6 36160.9 15410.3 36153.9 15402.3 36146.5 15394.5 36138.9 15387 36131 15379.8 36122.8 15372.8 36114.4 15366.2 36105.8 15359.9 36096.9 15353.9 36087.9 15348.2 36078.6 15342.9 36069.1 15337.9 36059.5 15333.2 36049.7 15328.9 36039.8 15324.9 36029.7 15321.3 36019.5 15318.1 36009.2 15315.2 35998.8 15312.7 35988.3 15310.6 35977.7 15308.9 35967.1 15307.5 35956.5 15306.6 35945.8 15306 35935.1 15305.8 M 35935.1 15305.7 35638.8 15305.7 M 35994.4 15305.7 36231.4 14831.6 M 36770.7 14831.6 37067.1 14831.6 37077.8 14831.8 37088.5 14832.4 37099.1 14833.3 37109.7 14834.7 37120.3 14836.4 37130.8 14838.5 37141.2 14841 37151.5 14843.9 37161.7 14847.1 37171.8 14850.7 37181.7 14854.7 37191.5 14859 37201.1 14863.7 37210.6 14868.7 37219.9 14874 37228.9 14879.7 37237.8 14885.7 37246.4 14892 37254.8 14898.6 37263 14905.6 37270.9 14912.8 37278.5 14920.3 37285.9 14928.1 37292.9 14936.1 37299.7 14944.4 37306.2 14952.9 37312.3 14961.6 37318.2 14970.6 37323.7 14979.8 37328.9 14989.1 37333.7 14998.7 37338.2 15008.4 37342.4 15018.2 37346.1 15028.2 37349.6 15038.4 37352.6 15048.6 37355.3 15059 37357.6 15069.4 37359.5 15080 37361 15090.6 37362.2 15101.2 37363 15111.9 37363.4 15122.6 37363.4 15133.2 37363 15143.9 37362.2 15154.6 37361 15165.2 37359.5 15175.8 37357.6 15186.4 37355.3 15196.8 37352.6 15207.2 37349.6 15217.4 37346.1 15227.6 37342.4 15237.6 37338.2 15247.4 37333.7 15257.1 37328.9 15266.7 37323.7 15276 37318.2 15285.2 37312.3 15294.2 37306.2 15302.9 37299.7 15311.4 37292.9 15319.7 37285.9 15327.7 37278.5 15335.5 37270.9 15343 37263 15350.2 37254.8 15357.2 37246.4 15363.8 37237.8 15370.1 37228.9 15376.1 37219.9 15381.8 37210.6 15387.1 37201.1 15392.1 37191.5 15396.8 37181.7 15401.1 37171.8 15405.1 37161.7 15408.7 37151.5 15411.9 37141.2 15414.8 37130.8 15417.3 37120.3 15419.4 37109.7 15421.1 37099.1 15422.5 37088.5 15423.4 37077.8 15424 37067.1 15424.2 M 37126.3 15898.4 36770.7 15898.4 M 37126.3 15898.4 37136 15898.2 37145.6 15897.6 37155.2 15896.6 37164.8 15895.2 37174.3 15893.5 37183.8 15891.3 37193.1 15888.8 37202.3 15885.9 37211.4 15882.6 37220.4 15878.9 37229.2 15874.9 37237.8 15870.5 37246.2 15865.8 37254.5 15860.8 37262.5 15855.4 37270.3 15849.6 37277.9 15843.6 37285.2 15837.3 37292.2 15830.7 37299 15823.7 37305.5 15816.6 37311.7 15809.1 37317.5 15801.4 37323.1 15793.5 37328.3 15785.4 37333.2 15777 37337.8 15768.5 37342 15759.8 37345.8 15750.9 37349.3 15741.9 37352.4 15732.7 37355.1 15723.4 37357.5 15714.1 37359.4 15704.6 37361 15695 37362.2 15685.4 37363 15675.8 37363.4 15666.1 37363.4 15656.5 37363 15646.8 37362.2 15637.2 37361 15627.6 37359.4 15618 37357.5 15608.5 37355.1 15599.2 37352.4 15589.9 37349.3 15580.7 37345.8 15571.7 37342 15562.8 37337.8 15554.1 37333.2 15545.6 37328.3 15537.2 37323.1 15529.1 37317.5 15521.2 37311.7 15513.5 37305.5 15506 37299 15498.9 37292.2 15491.9 37285.2 15485.3 37277.9 15479 37270.3 15473 37262.5 15467.2 37254.5 15461.8 37246.2 15456.8 37237.8 15452.1 37229.2 15447.7 37220.4 15443.7 37211.4 15440 37202.3 15436.7 37193.1 15433.8 37183.8 15431.3 37174.3 15429.1 37164.8 15427.4 37155.2 15426 37145.6 15425 37136 15424.4 37126.3 15424.2 M 37126.3 15424.3 36889.3 15424.3 M 31216.6 17501.6 31216.6 18568.4 31512.9 18568.4 31523.6 18568.2 31534.3 18567.6 31544.9 18566.7 31555.5 18565.3 31566.1 18563.6 31576.6 18561.5 31587 18559 31597.3 18556.1 31607.5 18552.9 31617.6 18549.3 31627.5 18545.3 31637.3 18541 31646.9 18536.3 31656.4 18531.3 31665.7 18526 31674.7 18520.3 31683.6 18514.3 31692.2 18508 31700.6 18501.4 31708.8 18494.4 31716.7 18487.2 31724.3 18479.7 31731.7 18471.9 31738.7 18463.9 31745.5 18455.6 31752 18447.1 31758.1 18438.4 31764 18429.4 31769.5 18420.2 31774.7 18410.9 31779.5 18401.3 31784 18391.6 31788.2 18381.8 31791.9 18371.8 31795.4 18361.6 31798.4 18351.4 31801.1 18341 31803.4 18330.6 31805.3 18320 31806.8 18309.4 31808 18298.8 31808.8 18288.1 31809.2 18277.4 31809.2 18266.8 31808.8 18256.1 31808 18245.4 31806.8 18234.8 31805.3 18224.2 31803.4 18213.6 31801.1 18203.2 31798.4 18192.8 31795.4 18182.6 31791.9 18172.4 31788.2 18162.4 31784 18152.6 31779.5 18142.9 31774.7 18133.3 31769.5 18124 31764 18114.8 31758.1 18105.8 31752 18097.1 31745.5 18088.6 31738.7 18080.3 31731.7 18072.3 31724.3 18064.5 31716.7 18057 31708.8 18049.8 31700.6 18042.8 31692.2 18036.2 31683.6 18029.9 31674.7 18023.9 31665.7 18018.2 31656.4 18012.9 31646.9 18007.9 31637.3 18003.2 31627.5 17998.9 31617.6 17994.9 31607.5 17991.3 31597.3 17988.1 31587 17985.2 31576.6 17982.7 31566.1 17980.6 31555.5 17978.9 31544.9 17977.5 31534.3 17976.6 31523.6 17976 31512.9 17975.8 M 31512.9 17975.7 31216.6 17975.7 M 31572.2 17975.7 31809.3 17501.6 M 32348.6 17738.7 32585.6 18568.4 M 32348.6 17738.7 32941.2 17738.7 M 32763.4 17975.7 32763.4 17501.6 M 27406.6 8788.4 27406.6 7721.6 M 27406.6 8788.4 27702.9 8788.4 27713.6 8788.2 27724.3 8787.6 27734.9 8786.7 27745.5 8785.3 27756.1 8783.6 27766.6 8781.5 27777 8779 27787.3 8776.1 27797.5 8772.9 27807.6 8769.3 27817.5 8765.3 27827.3 8761 27836.9 8756.3 27846.4 8751.3 27855.7 8746 27864.7 8740.3 27873.6 8734.3 27882.2 8728 27890.6 8721.4 27898.8 8714.4 27906.7 8707.2 27914.3 8699.7 27921.7 8691.9 27928.7 8683.9 27935.5 8675.6 27942 8667.1 27948.1 8658.4 27954 8649.4 27959.5 8640.2 27964.7 8630.9 27969.5 8621.3 27974 8611.6 27978.2 8601.8 27981.9 8591.8 27985.4 8581.6 27988.4 8571.4 27991.1 8561 27993.4 8550.6 27995.3 8540 27996.8 8529.4 27998 8518.8 27998.8 8508.1 27999.2 8497.4 27999.2 8486.8 27998.8 8476.1 27998 8465.4 27996.8 8454.8 27995.3 8444.2 27993.4 8433.6 27991.1 8423.2 27988.4 8412.8 27985.4 8402.6 27981.9 8392.4 27978.2 8382.4 27974 8372.6 27969.5 8362.9 27964.7 8353.3 27959.5 8343.9 27954 8334.8 27948.1 8325.8 27942 8317.1 27935.5 8308.6 27928.7 8300.3 27921.7 8292.3 27914.3 8284.5 27906.7 8277 27898.8 8269.8 27890.6 8262.8 27882.2 8256.2 27873.6 8249.9 27864.7 8243.9 27855.7 8238.2 27846.4 8232.9 27836.9 8227.9 27827.3 8223.2 27817.5 8218.9 27807.6 8214.9 27797.5 8211.3 27787.3 8208.1 27777 8205.2 27766.6 8202.7 27756.1 8200.6 27745.5 8198.9 27734.9 8197.5 27724.3 8196.6 27713.6 8196 27702.9 8195.8 M 27702.9 8195.7 27406.6 8195.7 M 27762.2 8195.7 27999.3 7721.6 M 28538.6 7721.6 28894.2 7721.6 28903.7 7721.8 28913.3 7722.4 28922.8 7723.3 28932.2 7724.7 28941.6 7726.4 28950.9 7728.5 28960.2 7731 28969.3 7733.8 28978.3 7737 28987.1 7740.6 28995.8 7744.5 29004.4 7748.8 29012.8 7753.4 29020.9 7758.3 29028.9 7763.6 29036.6 7769.2 29044.2 7775 29051.4 7781.2 29058.4 7787.7 29065.2 7794.5 29071.7 7801.5 29077.9 7808.7 29083.7 7816.3 29089.3 7824 29094.6 7832 29099.5 7840.2 29104.1 7848.5 29108.4 7857.1 29112.3 7865.8 29115.9 7874.6 29119.1 7883.6 29121.9 7892.7 29124.4 7902 29126.5 7911.3 29128.2 7920.7 29129.6 7930.1 29130.5 7939.6 29131.1 7949.2 29131.3 7958.7 M 29131.2 7958.7 29131.2 8077.2 M 29131.3 8077.2 29131.1 8086.7 29130.5 8096.3 29129.6 8105.8 29128.2 8115.2 29126.5 8124.6 29124.4 8133.9 29121.9 8143.2 29119.1 8152.3 29115.9 8161.3 29112.3 8170.1 29108.4 8178.8 29104.1 8187.4 29099.5 8195.8 29094.6 8203.9 29089.3 8211.9 29083.7 8219.6 29077.9 8227.2 29071.7 8234.4 29065.2 8241.4 29058.4 8248.2 29051.4 8254.7 29044.2 8260.9 29036.6 8266.7 29028.9 8272.3 29020.9 8277.6 29012.8 8282.5 29004.4 8287.1 28995.8 8291.4 28987.1 8295.3 28978.3 8298.9 28969.3 8302.1 28960.2 8304.9 28950.9 8307.4 28941.6 8309.5 28932.2 8311.2 28922.8 8312.6 28913.3 8313.5 28903.7 8314.1 28894.2 8314.3 28538.6 8314.3 28538.6 8788.4 29131.2 8788.4" fill="none" stroke-width="203.2"/><path d="M 29433.3 10330 29433.3 12530 M 31526.7 12530 31526.7 10330" fill="none" stroke-width="127"/><path d="M 27639.1 10673.3 27402 10673.3 27392.5 10673.5 27382.9 10674.1 27373.4 10675 27364 10676.4 27354.6 10678.1 27345.3 10680.2 27336 10682.7 27326.9 10685.5 27317.9 10688.7 27309.1 10692.3 27300.4 10696.2 27291.8 10700.5 27283.5 10705.1 27275.3 10710 27267.3 10715.3 27259.6 10720.9 27252 10726.7 27244.8 10732.9 27237.8 10739.4 27231 10746.2 27224.5 10753.2 27218.3 10760.4 27212.5 10768 27206.9 10775.7 27201.6 10783.7 27196.7 10791.9 27192.1 10800.2 27187.8 10808.8 27183.9 10817.5 27180.3 10826.3 27177.1 10835.3 27174.3 10844.4 27171.8 10853.7 27169.7 10863 27168 10872.4 27166.6 10881.8 27165.7 10891.3 27165.1 10900.9 27164.9 10910.4 27164.9 11503 27165.1 11512.5 27165.7 11522.1 27166.6 11531.6 27168 11541 27169.7 11550.4 27171.8 11559.7 27174.3 11569 27177.1 11578.1 27180.3 11587.1 27183.9 11595.9 27187.8 11604.6 27192.1 11613.2 27196.7 11621.5 27201.6 11629.7 27206.9 11637.7 27212.5 11645.4 27218.3 11653 27224.5 11660.2 27231 11667.2 27237.8 11674 27244.8 11680.5 27252 11686.7 27259.6 11692.5 27267.3 11698.1 27275.3 11703.4 27283.4 11708.3 27291.8 11712.9 27300.4 11717.2 27309.1 11721.1 27317.9 11724.7 27326.9 11727.9 27336 11730.7 27345.3 11733.2 27354.6 11735.3 27364 11737 27373.4 11738.4 27382.9 11739.3 27392.4 11739.9 27402 11740.1 27639.1 11740.1 M 28448.4 11740.1 28458.6 11739.9 28468.8 11739.3 28479 11738.3 28489.1 11737 28499.2 11735.2 28509.2 11733.1 28519.1 11730.6 28528.9 11727.7 28538.5 11724.4 28548.1 11720.8 28557.5 11716.8 28566.7 11712.4 28575.8 11707.7 28584.7 11702.6 28593.4 11697.3 28601.8 11691.5 28610.1 11685.5 28618.1 11679.2 28625.8 11672.5 28633.3 11665.6 28640.6 11658.3 28647.5 11650.8 28654.2 11643.1 28660.5 11635.1 28666.5 11626.8 28672.3 11618.4 28677.6 11609.7 28682.7 11600.8 28687.4 11591.7 28691.8 11582.5 28695.8 11573.1 28699.4 11563.5 28702.7 11553.9 28705.6 11544.1 28708.1 11534.2 28710.2 11524.2 28712 11514.1 28713.3 11504 28714.3 11493.8 28714.9 11483.6 28715.1 11473.4 M 28448.4 11740.1 28436.8 11739.9 28425.1 11739.3 28413.5 11738.3 28402 11736.9 28390.5 11735.2 28379 11733 28367.7 11730.4 28356.4 11727.5 28345.2 11724.2 28334.2 11720.5 28323.3 11716.4 28312.5 11712 28301.9 11707.2 28291.5 11702 28281.2 11696.5 28271.1 11690.7 28261.3 11684.5 28251.6 11678 28242.2 11671.1 28233 11663.9 28224.1 11656.5 28215.4 11648.7 28207 11640.6 28198.9 11632.3 28191.1 11623.7 28183.5 11614.8 28176.3 11605.7 28169.4 11596.3 28162.8 11586.7 28156.5 11576.9 28150.6 11566.9 28145 11556.7 28139.8 11546.3 28134.9 11535.7 28130.4 11525 28126.2 11514.1 28122.5 11503.1 M 28626.2 11265.9 28633.7 11273.3 28640.9 11281 28647.8 11289 28654.5 11297.2 28660.8 11305.6 28666.8 11314.3 28672.5 11323.1 28677.9 11332.2 28682.9 11341.5 28687.6 11350.9 28691.9 11360.5 28695.9 11370.3 28699.5 11380.2 28702.8 11390.2 28705.6 11400.4 28708.1 11410.6 28710.3 11421 28712 11431.4 28713.4 11441.8 28714.3 11452.3 28714.9 11462.9 28715.1 11473.4 M 28626.2 11266 28122.4 10673.3 28715.1 10673.3" fill="none" stroke-width="203.2"/><path d="M 26957 15271 30511.7 15271 30511.7 17749 26957 17749" fill="none" stroke-width="120"/><path d="M 27053.1 18547.6 27053.1 19614.4 27349.5 19614.4 27360.1 19614.2 27370.6 19613.6 27381.2 19612.7 27391.7 19611.4 27402.1 19609.7 27412.5 19607.6 27422.8 19605.2 27433 19602.4 27443.1 19599.2 27453 19595.7 27462.9 19591.8 27472.6 19587.6 27482.1 19583.1 27491.5 19578.2 27500.7 19572.9 27509.7 19567.4 27518.5 19561.5 27527.1 19555.3 27535.4 19548.8 27543.5 19542 27551.4 19535 27559 19527.6 27566.4 19520 27573.4 19512.1 27580.2 19504 27586.7 19495.7 27592.9 19487.1 27598.8 19478.3 27604.3 19469.3 27609.6 19460.1 27614.5 19450.7 27619 19441.2 27623.2 19431.5 27627.1 19421.6 27630.6 19411.7 27633.8 19401.6 27636.6 19391.4 27639 19381.1 27641.1 19370.7 27642.8 19360.3 27644.1 19349.8 27645 19339.2 27645.6 19328.7 27645.8 19318.1 27645.8 18843.9 27645.6 18833.3 27645 18822.8 27644.1 18812.2 27642.8 18801.7 27641.1 18791.3 27639 18780.9 27636.6 18770.6 27633.8 18760.4 27630.6 18750.3 27627.1 18740.4 27623.2 18730.5 27619 18720.8 27614.5 18711.3 27609.6 18701.9 27604.3 18692.7 27598.8 18683.7 27592.9 18674.9 27586.7 18666.3 27580.2 18658 27573.4 18649.9 27566.4 18642 27559 18634.4 27551.4 18627 27543.5 18620 27535.4 18613.2 27527.1 18606.7 27518.5 18600.5 27509.7 18594.6 27500.7 18589.1 27491.5 18583.8 27482.1 18578.9 27472.6 18574.4 27462.9 18570.2 27453 18566.3 27443.1 18562.8 27433 18559.6 27422.8 18556.8 27412.5 18554.4 27402.1 18552.3 27391.7 18550.6 27381.2 18549.3 27370.6 18548.4 27360.1 18547.8 27349.5 18547.6 27053.1 18547.6 M 28234.2 19377.3 28530.5 19614.4 28530.5 18547.6 M 28234.2 18547.6 28826.9 18547.6" fill="none" stroke-width="203.2"/><path d="M 32037 19081 35591.7 19081 35591.7 21559 32037 21559" fill="none" stroke-width="120"/><path d="M 32133.1 22357.6 32133.1 23424.4 32429.5 23424.4 32440.1 23424.2 32450.6 23423.6 32461.2 23422.7 32471.7 23421.4 32482.1 23419.7 32492.5 23417.6 32502.8 23415.2 32513 23412.4 32523.1 23409.2 32533 23405.7 32542.9 23401.8 32552.6 23397.6 32562.1 23393.1 32571.5 23388.2 32580.7 23382.9 32589.7 23377.4 32598.5 23371.5 32607.1 23365.3 32615.4 23358.8 32623.5 23352 32631.4 23345 32639 23337.6 32646.4 23330 32653.4 23322.1 32660.2 23314 32666.7 23305.7 32672.9 23297.1 32678.8 23288.3 32684.3 23279.3 32689.6 23270.1 32694.5 23260.7 32699 23251.2 32703.2 23241.5 32707.1 23231.6 32710.6 23221.7 32713.8 23211.6 32716.6 23201.4 32719 23191.1 32721.1 23180.7 32722.8 23170.3 32724.1 23159.8 32725 23149.2 32725.6 23138.7 32725.8 23128.1 32725.8 22653.9 32725.6 22643.3 32725 22632.8 32724.1 22622.2 32722.8 22611.7 32721.1 22601.3 32719 22590.9 32716.6 22580.6 32713.8 22570.4 32710.6 22560.3 32707.1 22550.4 32703.2 22540.5 32699 22530.8 32694.5 22521.3 32689.6 22511.9 32684.3 22502.7 32678.8 22493.7 32672.9 22484.9 32666.7 22476.3 32660.2 22468 32653.4 22459.9 32646.4 22452 32639 22444.4 32631.4 22437 32623.5 22430 32615.4 22423.2 32607.1 22416.7 32598.5 22410.5 32589.7 22404.6 32580.7 22399.1 32571.5 22393.8 32562.1 22388.9 32552.6 22384.4 32542.9 22380.2 32533 22376.3 32523.1 22372.8 32513 22369.6 32502.8 22366.8 32492.5 22364.4 32482.1 22362.3 32471.7 22360.6 32461.2 22359.3 32450.6 22358.4 32440.1 22357.8 32429.5 22357.6 32133.1 22357.6 M 33640.2 23424.4 33650.4 23424.2 33660.6 23423.6 33670.8 23422.6 33680.9 23421.3 33691 23419.5 33701 23417.4 33710.9 23414.9 33720.7 23412 33730.3 23408.7 33739.9 23405.1 33749.3 23401.1 33758.5 23396.7 33767.6 23392 33776.5 23386.9 33785.2 23381.6 33793.6 23375.8 33801.9 23369.8 33809.9 23363.5 33817.6 23356.8 33825.1 23349.9 33832.4 23342.6 33839.3 23335.1 33846 23327.4 33852.3 23319.4 33858.3 23311.1 33864.1 23302.7 33869.4 23294 33874.5 23285.1 33879.2 23276 33883.6 23266.8 33887.6 23257.4 33891.2 23247.8 33894.5 23238.2 33897.4 23228.4 33899.9 23218.5 33902 23208.5 33903.8 23198.4 33905.1 23188.3 33906.1 23178.1 33906.7 23167.9 33906.9 23157.7 M 33640.2 23424.4 33628.6 23424.2 33616.9 23423.6 33605.3 23422.6 33593.8 23421.2 33582.3 23419.5 33570.8 23417.3 33559.5 23414.7 33548.2 23411.8 33537 23408.5 33526 23404.8 33515.1 23400.7 33504.3 23396.3 33493.7 23391.5 33483.3 23386.3 33473 23380.8 33462.9 23375 33453.1 23368.8 33443.4 23362.3 33434 23355.4 33424.8 23348.2 33415.9 23340.8 33407.2 23333 33398.8 23324.9 33390.7 23316.6 33382.9 23308 33375.3 23299.1 33368.1 23290 33361.2 23280.6 33354.6 23271 33348.3 23261.2 33342.4 23251.2 33336.8 23241 33331.6 23230.6 33326.7 23220 33322.2 23209.3 33318 23198.4 33314.3 23187.4 M 33818 22950.2 33825.5 22957.6 33832.7 22965.3 33839.6 22973.3 33846.3 22981.5 33852.6 22989.9 33858.6 22998.6 33864.3 23007.4 33869.7 23016.5 33874.7 23025.8 33879.4 23035.2 33883.7 23044.8 33887.7 23054.6 33891.3 23064.5 33894.6 23074.5 33897.4 23084.7 33899.9 23094.9 33902.1 23105.3 33903.8 23115.7 33905.2 23126.1 33906.1 23136.6 33906.7 23147.2 33906.9 23157.7 M 33818 22950.3 33314.2 22357.6 33906.9 22357.6" fill="none" stroke-width="203.2"/><path d="M 6039 22891.7 6039 19337 M 6039 22891.7 3561 22891.7 3561 19337" fill="none" stroke-width="120"/><path d="M 6453.1 19755.6 6453.1 20822.4 6749.5 20822.4 6760.1 20822.2 6770.6 20821.6 6781.2 20820.7 6791.7 20819.4 6802.1 20817.7 6812.5 20815.6 6822.8 20813.2 6833 20810.4 6843.1 20807.2 6853 20803.7 6862.9 20799.8 6872.6 20795.6 6882.1 20791.1 6891.5 20786.2 6900.7 20780.9 6909.7 20775.4 6918.5 20769.5 6927.1 20763.3 6935.4 20756.8 6943.5 20750 6951.4 20743 6959 20735.6 6966.4 20728 6973.4 20720.1 6980.2 20712 6986.7 20703.7 6992.9 20695.1 6998.8 20686.3 7004.3 20677.3 7009.6 20668.1 7014.5 20658.7 7019 20649.2 7023.2 20639.5 7027.1 20629.6 7030.6 20619.7 7033.8 20609.6 7036.6 20599.4 7039 20589.1 7041.1 20578.7 7042.8 20568.3 7044.1 20557.8 7045 20547.2 7045.6 20536.7 7045.8 20526.1 7045.8 20051.9 7045.6 20041.3 7045 20030.8 7044.1 20020.2 7042.8 20009.7 7041.1 19999.3 7039 19988.9 7036.6 19978.6 7033.8 19968.4 7030.6 19958.3 7027.1 19948.4 7023.2 19938.5 7019 19928.8 7014.5 19919.3 7009.6 19909.9 7004.3 19900.7 6998.8 19891.7 6992.9 19882.9 6986.7 19874.3 6980.2 19866 6973.4 19857.9 6966.4 19850 6959 19842.4 6951.4 19835 6943.5 19828 6935.4 19821.2 6927.1 19814.7 6918.5 19808.5 6909.7 19802.6 6900.7 19797.1 6891.5 19791.8 6882.1 19786.9 6872.6 19782.4 6862.9 19778.2 6853 19774.3 6843.1 19770.8 6833 19767.6 6822.8 19764.8 6812.5 19762.4 6802.1 19760.3 6791.7 19758.6 6781.2 19757.3 6770.6 19756.4 6760.1 19755.8 6749.5 19755.6 6453.1 19755.6 M 7634.2 19755.6 7930.5 19755.6 7941.2 19755.8 7951.9 19756.4 7962.5 19757.3 7973.1 19758.7 7983.7 19760.4 7994.2 19762.5 8004.6 19765 8014.9 19767.9 8025.1 19771.1 8035.2 19774.7 8045.1 19778.7 8054.9 19783 8064.5 19787.7 8074 19792.7 8083.3 19798 8092.3 19803.7 8101.2 19809.7 8109.8 19816 8118.2 19822.6 8126.4 19829.6 8134.3 19836.8 8141.9 19844.3 8149.3 19852.1 8156.3 19860.1 8163.1 19868.4 8169.6 19876.9 8175.7 19885.6 8181.6 19894.6 8187.1 19903.8 8192.3 19913.1 8197.1 19922.7 8201.6 19932.4 8205.8 19942.2 8209.5 19952.2 8213 19962.4 8216 19972.6 8218.7 19983 8221 19993.4 8222.9 20004 8224.4 20014.6 8225.6 20025.2 8226.4 20035.9 8226.8 20046.6 8226.8 20057.2 8226.4 20067.9 8225.6 20078.6 8224.4 20089.2 8222.9 20099.8 8221 20110.4 8218.7 20120.8 8216 20131.2 8213 20141.4 8209.5 20151.6 8205.8 20161.6 8201.6 20171.4 8197.1 20181.1 8192.3 20190.7 8187.1 20200 8181.6 20209.2 8175.7 20218.2 8169.6 20226.9 8163.1 20235.4 8156.3 20243.7 8149.3 20251.7 8141.9 20259.5 8134.3 20267 8126.4 20274.2 8118.2 20281.2 8109.8 20287.8 8101.2 20294.1 8092.3 20300.1 8083.3 20305.8 8074 20311.1 8064.5 20316.1 8054.9 20320.8 8045.1 20325.1 8035.2 20329.1 8025.1 20332.7 8014.9 20335.9 8004.6 20338.8 7994.2 20341.3 7983.7 20343.4 7973.1 20345.1 7962.5 20346.5 7951.9 20347.4 7941.2 20348 7930.5 20348.2 M 7989.8 20822.4 7634.2 20822.4 M 7989.8 20822.4 7999.5 20822.2 8009.1 20821.6 8018.7 20820.6 8028.3 20819.2 8037.8 20817.5 8047.3 20815.3 8056.6 20812.8 8065.8 20809.9 8074.9 20806.6 8083.9 20802.9 8092.7 20798.9 8101.3 20794.5 8109.7 20789.8 8118 20784.8 8126 20779.4 8133.8 20773.6 8141.4 20767.6 8148.7 20761.3 8155.7 20754.7 8162.5 20747.7 8169 20740.6 8175.2 20733.1 8181 20725.4 8186.6 20717.5 8191.8 20709.4 8196.7 20701 8201.3 20692.5 8205.5 20683.8 8209.3 20674.9 8212.8 20665.9 8215.9 20656.7 8218.6 20647.4 8221 20638.1 8222.9 20628.6 8224.5 20619 8225.7 20609.4 8226.5 20599.8 8226.9 20590.1 8226.9 20580.5 8226.5 20570.8 8225.7 20561.2 8224.5 20551.6 8222.9 20542 8221 20532.5 8218.6 20523.2 8215.9 20513.9 8212.8 20504.7 8209.3 20495.7 8205.5 20486.8 8201.3 20478.1 8196.7 20469.6 8191.8 20461.2 8186.6 20453.1 8181 20445.2 8175.2 20437.5 8169 20430 8162.5 20422.9 8155.7 20415.9 8148.7 20409.3 8141.4 20403 8133.8 20397 8126 20391.2 8118 20385.8 8109.7 20380.8 8101.3 20376.1 8092.7 20371.7 8083.9 20367.7 8074.9 20364 8065.8 20360.7 8056.6 20357.8 8047.3 20355.3 8037.8 20353.1 8028.3 20351.4 8018.7 20350 8009.1 20349 7999.5 20348.4 7989.8 20348.2 M 7989.8 20348.3 7752.7 20348.3 M 6428.8 31851.6 6428.8 32918.4 6725.1 32918.4 6735.8 32918.2 6746.5 32917.6 6757.1 32916.7 6767.7 32915.3 6778.3 32913.6 6788.8 32911.5 6799.2 32909 6809.5 32906.1 6819.7 32902.9 6829.8 32899.3 6839.7 32895.3 6849.5 32891 6859.1 32886.3 6868.6 32881.3 6877.9 32876 6886.9 32870.3 6895.8 32864.3 6904.4 32858 6912.8 32851.4 6921 32844.4 6928.9 32837.2 6936.5 32829.7 6943.9 32821.9 6950.9 32813.9 6957.7 32805.6 6964.2 32797.1 6970.3 32788.4 6976.2 32779.4 6981.7 32770.3 6986.9 32760.9 6991.7 32751.3 6996.2 32741.6 7000.4 32731.8 7004.1 32721.8 7007.6 32711.6 7010.6 32701.4 7013.3 32691 7015.6 32680.6 7017.5 32670 7019 32659.4 7020.2 32648.8 7021 32638.1 7021.4 32627.4 7021.4 32616.8 7021 32606.1 7020.2 32595.4 7019 32584.8 7017.5 32574.2 7015.6 32563.6 7013.3 32553.2 7010.6 32542.8 7007.6 32532.6 7004.1 32522.4 7000.4 32512.4 6996.2 32502.6 6991.7 32492.9 6986.9 32483.3 6981.7 32474 6976.2 32464.8 6970.3 32455.8 6964.2 32447.1 6957.7 32438.6 6950.9 32430.3 6943.9 32422.3 6936.5 32414.5 6928.9 32407 6921 32399.8 6912.8 32392.8 6904.4 32386.2 6895.8 32379.9 6886.9 32373.9 6877.9 32368.2 6868.6 32362.9 6859.1 32357.9 6849.5 32353.2 6839.7 32348.9 6829.8 32344.9 6819.7 32341.3 6809.5 32338.1 6799.2 32335.2 6788.8 32332.7 6778.3 32330.6 6767.7 32328.9 6757.1 32327.5 6746.5 32326.6 6735.8 32326 6725.1 32325.8 M 6725.1 32325.7 6428.8 32325.7 M 6784.4 32325.7 7021.4 31851.6 M 7560.7 32444.3 7916.3 32444.3 7925.8 32444.1 7935.4 32443.5 7944.9 32442.6 7954.3 32441.2 7963.7 32439.5 7973 32437.4 7982.3 32434.9 7991.4 32432.1 8000.4 32428.9 8009.2 32425.3 8017.9 32421.4 8026.5 32417.1 8034.9 32412.5 8043 32407.6 8051 32402.3 8058.7 32396.7 8066.3 32390.9 8073.5 32384.7 8080.5 32378.2 8087.3 32371.4 8093.8 32364.4 8100 32357.2 8105.8 32349.6 8111.4 32341.9 8116.7 32333.9 8121.6 32325.8 8126.2 32317.4 8130.5 32308.8 8134.4 32300.1 8138 32291.3 8141.2 32282.3 8144 32273.2 8146.5 32263.9 8148.6 32254.6 8150.3 32245.2 8151.7 32235.8 8152.6 32226.3 8153.2 32216.7 8153.4 32207.2 8153.4 32147.9 8153.2 32137.2 8152.6 32126.5 8151.7 32115.9 8150.3 32105.3 8148.6 32094.7 8146.5 32084.2 8144 32073.8 8141.1 32063.5 8137.9 32053.3 8134.3 32043.2 8130.3 32033.3 8126 32023.5 8121.3 32013.9 8116.3 32004.4 8111 31995.1 8105.3 31986.1 8099.3 31977.2 8093 31968.6 8086.4 31960.2 8079.4 31952 8072.2 31944.1 8064.7 31936.5 8056.9 31929.1 8048.9 31922.1 8040.6 31915.3 8032.1 31908.8 8023.4 31902.7 8014.4 31896.8 8005.2 31891.3 7995.9 31886.1 7986.3 31881.3 7976.6 31876.8 7966.8 31872.6 7956.8 31868.9 7946.6 31865.4 7936.4 31862.4 7926 31859.7 7915.6 31857.4 7905 31855.5 7894.4 31854 7883.8 31852.8 7873.1 31852 7862.4 31851.6 7851.8 31851.6 7841.1 31852 7830.4 31852.8 7819.8 31854 7809.2 31855.5 7798.6 31857.4 7788.2 31859.7 7777.8 31862.4 7767.6 31865.4 7757.4 31868.9 7747.4 31872.6 7737.6 31876.8 7727.9 31881.3 7718.3 31886.1 7708.9 31891.3 7699.8 31896.8 7690.8 31902.7 7682.1 31908.8 7673.6 31915.3 7665.3 31922.1 7657.3 31929.1 7649.5 31936.5 7642 31944.1 7634.8 31952 7627.8 31960.2 7621.2 31968.6 7614.9 31977.2 7608.9 31986.1 7603.2 31995.1 7597.9 32004.4 7592.9 32013.9 7588.2 32023.5 7583.9 32033.3 7579.9 32043.2 7576.3 32053.3 7573.1 32063.5 7570.2 32073.8 7567.7 32084.2 7565.6 32094.7 7563.9 32105.3 7562.5 32115.9 7561.6 32126.5 7561 32137.2 7560.8 32147.9 M 7560.7 32147.9 7560.7 32444.3 M 7560.8 32444.3 7561 32457.8 7561.6 32471.4 7562.5 32484.9 7563.9 32498.3 7565.6 32511.8 7567.7 32525.1 7570.2 32538.5 7573.1 32551.7 7576.4 32564.8 7580 32577.9 7584 32590.8 7588.4 32603.6 7593.1 32616.3 7598.2 32628.9 7603.6 32641.2 7609.4 32653.5 7615.6 32665.5 7622.1 32677.4 7628.9 32689.1 7636.1 32700.6 7643.5 32711.9 7651.3 32723 7659.5 32733.8 7667.9 32744.4 7676.6 32754.8 7685.6 32764.9 7694.9 32774.7 7704.5 32784.3 7714.3 32793.6 7724.4 32802.6 7734.8 32811.3 7745.4 32819.7 7756.2 32827.9 7767.3 32835.7 7778.6 32843.1 7790.1 32850.3 7801.8 32857.1 7813.7 32863.6 7825.7 32869.8 7837.9 32875.6 7850.3 32881 7862.9 32886.1 7875.6 32890.8 7888.4 32895.2 7901.3 32899.2 7914.4 32902.8 7927.5 32906.1 7940.7 32909 7954.1 32911.5 7967.4 32913.6 7980.9 32915.3 7994.3 32916.7 8007.8 32917.6 8021.4 32918.2 8034.9 32918.4 M 6428.8 27838.4 6428.8 26771.6 M 6428.8 27838.4 6725.1 27838.4 6735.8 27838.2 6746.5 27837.6 6757.1 27836.7 6767.7 27835.3 6778.3 27833.6 6788.8 27831.5 6799.2 27829 6809.5 27826.1 6819.7 27822.9 6829.8 27819.3 6839.7 27815.3 6849.5 27811 6859.1 27806.3 6868.6 27801.3 6877.9 27796 6886.9 27790.3 6895.8 27784.3 6904.4 27778 6912.8 27771.4 6921 27764.4 6928.9 27757.2 6936.5 27749.7 6943.9 27741.9 6950.9 27733.9 6957.7 27725.6 6964.2 27717.1 6970.3 27708.4 6976.2 27699.4 6981.7 27690.3 6986.9 27680.9 6991.7 27671.3 6996.2 27661.6 7000.4 27651.8 7004.1 27641.8 7007.6 27631.6 7010.6 27621.4 7013.3 27611 7015.6 27600.6 7017.5 27590 7019 27579.4 7020.2 27568.8 7021 27558.1 7021.4 27547.4 7021.4 27536.8 7021 27526.1 7020.2 27515.4 7019 27504.8 7017.5 27494.2 7015.6 27483.6 7013.3 27473.2 7010.6 27462.8 7007.6 27452.6 7004.1 27442.4 7000.4 27432.4 6996.2 27422.6 6991.7 27412.9 6986.9 27403.3 6981.7 27394 6976.2 27384.8 6970.3 27375.8 6964.2 27367.1 6957.7 27358.6 6950.9 27350.3 6943.9 27342.3 6936.5 27334.5 6928.9 27327 6921 27319.8 6912.8 27312.8 6904.4 27306.2 6895.8 27299.9 6886.9 27293.9 6877.9 27288.2 6868.6 27282.9 6859.1 27277.9 6849.5 27273.2 6839.7 27268.9 6829.8 27264.9 6819.7 27261.3 6809.5 27258.1 6799.2 27255.2 6788.8 27252.7 6778.3 27250.6 6767.7 27248.9 6757.1 27247.5 6746.5 27246.6 6735.8 27246 6725.1 27245.8 M 6725.1 27245.7 6428.8 27245.7 M 6784.4 27245.7 7021.4 26771.6 M 7560.7 27719.9 7560.7 27838.4 8153.4 27838.4 7857.1 26771.6" fill="none" stroke-width="203.2"/><path d="M 5303.3 7450 5303.3 5250 M 7396.7 5250 7396.7 7450" fill="none" stroke-width="127"/><path d="M 6049.1 3191.6 5812 3191.6 5802.5 3191.8 5792.9 3192.4 5783.4 3193.3 5774 3194.7 5764.6 3196.4 5755.3 3198.5 5746 3201 5736.9 3203.8 5727.9 3207 5719.1 3210.6 5710.4 3214.5 5701.8 3218.8 5693.4 3223.4 5685.3 3228.3 5677.3 3233.6 5669.6 3239.2 5662 3245 5654.8 3251.2 5647.8 3257.7 5641 3264.5 5634.5 3271.5 5628.3 3278.7 5622.5 3286.3 5616.9 3294 5611.6 3302 5606.7 3310.2 5602.1 3318.5 5597.8 3327.1 5593.9 3335.8 5590.3 3344.6 5587.1 3353.6 5584.3 3362.7 5581.8 3372 5579.7 3381.3 5578 3390.7 5576.6 3400.1 5575.7 3409.6 5575.1 3419.2 5574.9 3428.7 5574.9 4021.3 5575.1 4030.8 5575.7 4040.4 5576.6 4049.9 5578 4059.3 5579.7 4068.7 5581.8 4078 5584.3 4087.3 5587.1 4096.4 5590.3 4105.4 5593.9 4114.2 5597.8 4122.9 5602.1 4131.5 5606.7 4139.8 5611.6 4148 5616.9 4156 5622.5 4163.7 5628.3 4171.3 5634.5 4178.5 5641 4185.5 5647.8 4192.3 5654.8 4198.8 5662 4205 5669.6 4210.8 5677.3 4216.4 5685.3 4221.7 5693.4 4226.6 5701.8 4231.2 5710.4 4235.5 5719.1 4239.4 5727.9 4243 5736.9 4246.2 5746 4249 5755.3 4251.5 5764.6 4253.6 5774 4255.3 5783.4 4256.7 5792.9 4257.6 5802.4 4258.2 5812 4258.4 6049.1 4258.4 M 6532.4 3191.6 6828.7 3191.6 6839.4 3191.8 6850.1 3192.4 6860.7 3193.3 6871.3 3194.7 6881.9 3196.4 6892.4 3198.5 6902.8 3201 6913.1 3203.9 6923.3 3207.1 6933.4 3210.7 6943.3 3214.7 6953.1 3219 6962.7 3223.7 6972.2 3228.7 6981.5 3234 6990.5 3239.7 6999.4 3245.7 7008 3252 7016.4 3258.6 7024.6 3265.6 7032.5 3272.8 7040.1 3280.3 7047.5 3288.1 7054.5 3296.1 7061.3 3304.4 7067.8 3312.9 7073.9 3321.6 7079.8 3330.6 7085.3 3339.7 7090.5 3349.1 7095.3 3358.7 7099.8 3368.4 7104 3378.2 7107.7 3388.2 7111.2 3398.4 7114.2 3408.6 7116.9 3419 7119.2 3429.4 7121.1 3440 7122.6 3450.6 7123.8 3461.2 7124.6 3471.9 7125 3482.6 7125 3493.2 7124.6 3503.9 7123.8 3514.6 7122.6 3525.2 7121.1 3535.8 7119.2 3546.4 7116.9 3556.8 7114.2 3567.2 7111.2 3577.4 7107.7 3587.6 7104 3597.6 7099.8 3607.4 7095.3 3617.1 7090.5 3626.7 7085.3 3636 7079.8 3645.2 7073.9 3654.2 7067.8 3662.9 7061.3 3671.4 7054.5 3679.7 7047.5 3687.7 7040.1 3695.5 7032.5 3703 7024.6 3710.2 7016.4 3717.2 7008 3723.8 6999.4 3730.1 6990.5 3736.1 6981.5 3741.8 6972.2 3747.1 6962.7 3752.1 6953.1 3756.8 6943.3 3761.1 6933.4 3765.1 6923.3 3768.7 6913.1 3771.9 6902.8 3774.8 6892.4 3777.3 6881.9 3779.4 6871.3 3781.1 6860.7 3782.5 6850.1 3783.4 6839.4 3784 6828.7 3784.2 M 6888 4258.4 6532.4 4258.4 M 6888 4258.4 6897.7 4258.2 6907.3 4257.6 6916.9 4256.6 6926.5 4255.2 6936 4253.5 6945.5 4251.3 6954.8 4248.8 6964 4245.9 6973.1 4242.6 6982.1 4238.9 6990.9 4234.9 6999.5 4230.5 7007.9 4225.8 7016.2 4220.8 7024.2 4215.4 7032 4209.6 7039.6 4203.6 7046.9 4197.3 7053.9 4190.7 7060.7 4183.7 7067.2 4176.6 7073.4 4169.1 7079.2 4161.4 7084.8 4153.5 7090 4145.4 7094.9 4137 7099.5 4128.5 7103.7 4119.8 7107.5 4110.9 7111 4101.9 7114.1 4092.7 7116.8 4083.4 7119.2 4074.1 7121.1 4064.6 7122.7 4055 7123.9 4045.4 7124.7 4035.8 7125.1 4026.1 7125.1 4016.5 7124.7 4006.8 7123.9 3997.2 7122.7 3987.6 7121.1 3978 7119.2 3968.5 7116.8 3959.2 7114.1 3949.9 7111 3940.7 7107.5 3931.7 7103.7 3922.8 7099.5 3914.1 7094.9 3905.6 7090 3897.2 7084.8 3889.1 7079.2 3881.2 7073.4 3873.5 7067.2 3866 7060.7 3858.9 7053.9 3851.9 7046.9 3845.3 7039.6 3839 7032 3833 7024.2 3827.2 7016.2 3821.8 7007.9 3816.8 6999.5 3812.1 6990.9 3807.7 6982.1 3803.7 6973.1 3800 6964 3796.7 6954.8 3793.8 6945.5 3791.3 6936 3789.1 6926.5 3787.4 6916.9 3786 6907.3 3785 6897.7 3784.4 6888 3784.2 M 6888 3784.3 6650.9 3784.3" fill="none" stroke-width="203.2"/><path d="M 3640 16732 1440 16732 M 1440 14638.6 3640 14638.6" fill="none" stroke-width="127"/><path d="M 4762 14928.6 4999.1 14928.6 M 4762 14928.6 4752.5 14928.8 4742.9 14929.4 4733.4 14930.3 4724 14931.7 4714.6 14933.4 4705.3 14935.5 4696 14938 4686.9 14940.8 4677.9 14944 4669.1 14947.6 4660.4 14951.5 4651.8 14955.8 4643.4 14960.4 4635.3 14965.3 4627.3 14970.6 4619.6 14976.2 4612 14982 4604.8 14988.2 4597.8 14994.7 4591 15001.5 4584.5 15008.5 4578.3 15015.7 4572.5 15023.3 4566.9 15031 4561.6 15039 4556.7 15047.2 4552.1 15055.5 4547.8 15064.1 4543.9 15072.8 4540.3 15081.6 4537.1 15090.6 4534.3 15099.7 4531.8 15109 4529.7 15118.3 4528 15127.7 4526.6 15137.1 4525.7 15146.6 4525.1 15156.2 4524.9 15165.7 4524.9 15758.3 4525.1 15767.8 4525.7 15777.4 4526.6 15786.9 4528 15796.3 4529.7 15805.7 4531.8 15815 4534.3 15824.3 4537.1 15833.4 4540.3 15842.4 4543.9 15851.2 4547.8 15859.9 4552.1 15868.5 4556.7 15876.8 4561.6 15885 4566.9 15893 4572.5 15900.7 4578.3 15908.3 4584.5 15915.5 4591 15922.5 4597.8 15929.3 4604.8 15935.8 4612 15942 4619.6 15947.8 4627.3 15953.4 4635.3 15958.7 4643.4 15963.6 4651.8 15968.2 4660.4 15972.5 4669.1 15976.4 4677.9 15980 4686.9 15983.2 4696 15986 4705.3 15988.5 4714.6 15990.6 4724 15992.3 4733.4 15993.7 4742.9 15994.6 4752.4 15995.2 4762 15995.4 4999.1 15995.4 M 5719.5 15995.4 5482.4 15165.7 6075.1 15165.7 M 5897.3 15402.7 5897.3 14928.6 M 654 6883.4 654 6112.9 M 654.1 6112.9 654.3 6102.2 654.9 6091.5 655.8 6080.9 657.2 6070.3 658.9 6059.7 661 6049.2 663.5 6038.8 666.4 6028.5 669.6 6018.3 673.2 6008.2 677.2 5998.3 681.5 5988.5 686.2 5978.9 691.2 5969.4 696.5 5960.1 702.2 5951.1 708.2 5942.2 714.5 5933.6 721.1 5925.2 728.1 5917 735.3 5909.1 742.8 5901.5 750.6 5894.1 758.6 5887.1 766.9 5880.3 775.4 5873.8 784.1 5867.7 793.1 5861.8 802.2 5856.3 811.6 5851.1 821.2 5846.3 830.9 5841.8 840.7 5837.6 850.7 5833.9 860.9 5830.4 871.1 5827.4 881.5 5824.7 891.9 5822.4 902.5 5820.5 913.1 5819 923.7 5817.8 934.4 5817 945.1 5816.6 955.7 5816.6 966.4 5817 977.1 5817.8 987.7 5819 998.3 5820.5 1008.9 5822.4 1019.3 5824.7 1029.7 5827.4 1039.9 5830.4 1050.1 5833.9 1060.1 5837.6 1069.9 5841.8 1079.6 5846.3 1089.2 5851.1 1098.5 5856.3 1107.7 5861.8 1116.7 5867.7 1125.4 5873.8 1133.9 5880.3 1142.2 5887.1 1150.2 5894.1 1158 5901.5 1165.5 5909.1 1172.7 5917 1179.7 5925.2 1186.3 5933.6 1192.6 5942.2 1198.6 5951.1 1204.3 5960.1 1209.6 5969.4 1214.6 5978.9 1219.3 5988.5 1223.6 5998.3 1227.6 6008.2 1231.2 6018.3 1234.4 6028.5 1237.3 6038.8 1239.8 6049.2 1241.9 6059.7 1243.6 6070.3 1245 6080.9 1245.9 6091.5 1246.5 6102.2 1246.7 6112.9 1246.7 6883.4 M 2055.3 6883.4 2055.3 5816.6 M 2055.3 6350 1907.1 6438.9 1900.2 6443.3 1893.4 6448 1886.9 6453.1 1880.6 6458.4 1874.6 6464 1868.8 6469.9 1863.3 6476.1 1858.2 6482.5 1853.3 6489.1 1848.7 6495.9 1844.5 6503 1840.5 6510.3 1837 6517.7 1833.7 6525.3 1830.9 6533 1828.4 6540.8 1826.2 6548.8 1824.5 6556.8 1823.1 6565 1822.1 6573.1 1821.4 6581.3 1821.2 6589.6 1821.3 6597.8 1821.9 6606 1822.8 6614.2 1824.1 6622.4 1825.7 6630.4 1827.8 6638.4 1830.2 6646.3 1832.9 6654.1 1836.1 6661.7 1839.5 6669.1 1843.4 6676.4 1847.5 6683.6 1852 6690.5 1856.8 6697.2 1861.9 6703.6 1867.3 6709.8 1873 6715.8 1878.9 6721.5 1885.2 6726.9 1891.6 6732 1898.3 6736.8 1905.2 6741.3 1912.3 6745.5 1919.6 6749.3 1927.1 6752.8 1934.7 6755.9 1942.5 6758.7 1950.3 6761.1 1958.3 6763.1 1966.4 6764.8 M 1966.4 6764.9 1979.8 6767.1 1993.2 6769 2006.6 6770.4 2020.1 6771.5 2033.7 6772.2 2047.2 6772.5 2060.8 6772.4 2074.3 6771.9 2087.8 6771 2101.3 6769.8 2114.7 6768.1 2128.1 6766.1 2141.4 6763.7 2154.7 6760.9 2167.8 6757.7 2180.9 6754.1 2193.9 6750.2 2206.7 6745.9 2219.4 6741.2 2232 6736.1 2244.4 6730.7 2256.7 6725 2268.7 6718.9 2280.6 6712.4 2292.4 6705.6 M 2055.3 6350 2203.4 6261.1 2210.3 6256.7 2217.1 6252 2223.6 6246.9 2229.9 6241.6 2235.9 6236 2241.7 6230.1 2247.2 6223.9 2252.3 6217.5 2257.2 6210.9 2261.8 6204.1 2266 6197 2270 6189.7 2273.5 6182.3 2276.8 6174.7 2279.6 6167 2282.1 6159.2 2284.3 6151.2 2286 6143.2 2287.4 6135 2288.4 6126.9 2289.1 6118.7 2289.3 6110.4 2289.2 6102.2 2288.6 6094 2287.7 6085.8 2286.4 6077.6 2284.8 6069.6 2282.7 6061.6 2280.3 6053.7 2277.6 6045.9 2274.4 6038.3 2271 6030.9 2267.1 6023.6 2263 6016.4 2258.5 6009.5 2253.7 6002.8 2248.6 5996.4 2243.2 5990.2 2237.5 5984.2 2231.6 5978.5 2225.3 5973.1 2218.9 5968 2212.2 5963.2 2205.3 5958.7 2198.2 5954.5 2190.9 5950.7 2183.4 5947.2 2175.8 5944.1 2168 5941.3 2160.2 5938.9 2152.2 5936.9 2144.1 5935.2 M 2144.2 5935.1 2130.8 5932.9 2117.4 5931 2104 5929.6 2090.5 5928.5 2076.9 5927.8 2063.4 5927.5 2049.8 5927.6 2036.3 5928.1 2022.8 5929 2009.3 5930.2 1995.9 5931.9 1982.5 5933.9 1969.2 5936.3 1955.9 5939.1 1942.7 5942.3 1929.7 5945.9 1916.7 5949.8 1903.9 5954.1 1891.2 5958.8 1878.6 5963.9 1866.2 5969.3 1853.9 5975 1841.9 5981.2 1829.9 5987.6 1818.2 5994.4 M 2825.7 6646.3 3122.1 6883.4 3122.1 5816.6 M 3418.4 5816.6 2825.7 5816.6" fill="none" stroke-width="203.2"/><path d="M 3640 14046.7 1440 14046.7 M 1440 11953.3 3640 11953.3" fill="none" stroke-width="127"/><path d="M 4762 12641.6 4999.1 12641.6 M 4762 12641.6 4752.5 12641.8 4742.9 12642.4 4733.4 12643.3 4724 12644.7 4714.6 12646.4 4705.3 12648.5 4696 12651 4686.9 12653.8 4677.9 12657 4669.1 12660.6 4660.4 12664.5 4651.8 12668.8 4643.4 12673.4 4635.3 12678.3 4627.3 12683.6 4619.6 12689.2 4612 12695 4604.8 12701.2 4597.8 12707.7 4591 12714.5 4584.5 12721.5 4578.3 12728.7 4572.5 12736.3 4566.9 12744 4561.6 12752 4556.7 12760.2 4552.1 12768.5 4547.8 12777.1 4543.9 12785.8 4540.3 12794.6 4537.1 12803.6 4534.3 12812.7 4531.8 12822 4529.7 12831.3 4528 12840.7 4526.6 12850.1 4525.7 12859.6 4525.1 12869.2 4524.9 12878.7 4524.9 13471.3 4525.1 13480.8 4525.7 13490.4 4526.6 13499.9 4528 13509.3 4529.7 13518.7 4531.8 13528 4534.3 13537.3 4537.1 13546.4 4540.3 13555.4 4543.9 13564.2 4547.8 13572.9 4552.1 13581.5 4556.7 13589.8 4561.6 13598 4566.9 13606 4572.5 13613.7 4578.3 13621.3 4584.5 13628.5 4591 13635.5 4597.8 13642.3 4604.8 13648.8 4612 13655 4619.6 13660.8 4627.3 13666.4 4635.3 13671.7 4643.4 13676.6 4651.8 13681.2 4660.4 13685.5 4669.1 13689.4 4677.9 13693 4686.9 13696.2 4696 13699 4705.3 13701.5 4714.6 13703.6 4724 13705.3 4733.4 13706.7 4742.9 13707.6 4752.4 13708.2 4762 13708.4 4999.1 13708.4 M 5482.4 12641.6 5838 12641.6 5847.5 12641.8 5857.1 12642.4 5866.6 12643.3 5876 12644.7 5885.4 12646.4 5894.7 12648.5 5904 12651 5913.1 12653.8 5922.1 12657 5930.9 12660.6 5939.6 12664.5 5948.2 12668.8 5956.6 12673.4 5964.7 12678.3 5972.7 12683.6 5980.4 12689.2 5988 12695 5995.2 12701.2 6002.2 12707.7 6009 12714.5 6015.5 12721.5 6021.7 12728.7 6027.5 12736.3 6033.1 12744 6038.4 12752 6043.3 12760.2 6047.9 12768.5 6052.2 12777.1 6056.1 12785.8 6059.7 12794.6 6062.9 12803.6 6065.7 12812.7 6068.2 12822 6070.3 12831.3 6072 12840.7 6073.4 12850.1 6074.3 12859.6 6074.9 12869.2 6075.1 12878.7 6075.1 12997.2 6074.9 13006.7 6074.3 13016.3 6073.4 13025.8 6072 13035.2 6070.3 13044.6 6068.2 13053.9 6065.7 13063.2 6062.9 13072.3 6059.7 13081.3 6056.1 13090.1 6052.2 13098.8 6047.9 13107.4 6043.3 13115.8 6038.4 13123.9 6033.1 13131.9 6027.5 13139.6 6021.7 13147.2 6015.5 13154.4 6009 13161.4 6002.2 13168.2 5995.2 13174.7 5988 13180.9 5980.4 13186.7 5972.7 13192.3 5964.7 13197.6 5956.6 13202.5 5948.2 13207.1 5939.6 13211.4 5930.9 13215.3 5922.1 13218.9 5913.1 13222.1 5904 13224.9 5894.7 13227.4 5885.4 13229.5 5876 13231.2 5866.6 13232.6 5857.1 13233.5 5847.5 13234.1 5838 13234.3 5482.4 13234.3 5482.4 13708.4 6075.1 13708.4 M 7698.8 1168.4 7698.8 101.6 M 7698.8 1168.4 7995.1 1168.4 8005.8 1168.2 8016.5 1167.6 8027.1 1166.7 8037.7 1165.3 8048.3 1163.6 8058.8 1161.5 8069.2 1159 8079.5 1156.1 8089.7 1152.9 8099.8 1149.3 8109.7 1145.3 8119.5 1141 8129.1 1136.3 8138.6 1131.3 8147.9 1126 8156.9 1120.3 8165.8 1114.3 8174.4 1108 8182.8 1101.4 8191 1094.4 8198.9 1087.2 8206.5 1079.7 8213.9 1071.9 8220.9 1063.9 8227.7 1055.6 8234.2 1047.1 8240.3 1038.4 8246.2 1029.4 8251.7 1020.2 8256.9 1010.9 8261.7 1001.3 8266.2 991.6 8270.4 981.8 8274.1 971.8 8277.6 961.6 8280.6 951.4 8283.3 941 8285.6 930.6 8287.5 920 8289 909.4 8290.2 898.8 8291 888.1 8291.4 877.4 8291.4 866.8 8291 856.1 8290.2 845.4 8289 834.8 8287.5 824.2 8285.6 813.6 8283.3 803.2 8280.6 792.8 8277.6 782.6 8274.1 772.4 8270.4 762.4 8266.2 752.6 8261.7 742.9 8256.9 733.3 8251.7 723.9 8246.2 714.8 8240.3 705.8 8234.2 697.1 8227.7 688.6 8220.9 680.3 8213.9 672.3 8206.5 664.5 8198.9 657 8191 649.8 8182.8 642.8 8174.4 636.2 8165.8 629.9 8156.9 623.9 8147.9 618.2 8138.6 612.9 8129.1 607.9 8119.5 603.2 8109.7 598.9 8099.8 594.9 8089.7 591.3 8079.5 588.1 8069.2 585.2 8058.8 582.7 8048.3 580.6 8037.7 578.9 8027.1 577.5 8016.5 576.6 8005.8 576 7995.1 575.8 M 7995.1 575.7 7698.8 575.7 M 8054.4 575.7 8291.4 101.6 M 8830.8 397.9 8831 408.6 8831.6 419.3 8832.5 429.9 8833.9 440.5 8835.6 451.1 8837.7 461.6 8840.2 472 8843.1 482.3 8846.3 492.5 8849.9 502.6 8853.9 512.5 8858.2 522.3 8862.9 531.9 8867.9 541.4 8873.2 550.7 8878.9 559.7 8884.9 568.6 8891.2 577.2 8897.8 585.6 8904.8 593.8 8912 601.7 8919.5 609.3 8927.3 616.7 8935.3 623.7 8943.6 630.5 8952.1 637 8960.8 643.1 8969.8 649 8979 654.5 8988.3 659.7 8997.9 664.5 9007.6 669 9017.4 673.2 9027.4 676.9 9037.6 680.4 9047.8 683.4 9058.2 686.1 9068.6 688.4 9079.2 690.3 9089.8 691.8 9100.4 693 9111.1 693.8 9121.8 694.2 9132.4 694.2 9143.1 693.8 9153.8 693 9164.4 691.8 9175 690.3 9185.6 688.4 9196 686.1 9206.4 683.4 9216.6 680.4 9226.8 676.9 9236.8 673.2 9246.6 669 9256.3 664.5 9265.9 659.7 9275.3 654.5 9284.4 649 9293.4 643.1 9302.1 637 9310.6 630.5 9318.9 623.7 9326.9 616.7 9334.7 609.3 9342.2 601.7 9349.4 593.8 9356.4 585.6 9363 577.2 9369.3 568.6 9375.3 559.7 9381 550.7 9386.3 541.4 9391.3 531.9 9396 522.3 9400.3 512.5 9404.3 502.6 9407.9 492.5 9411.1 482.3 9414 472 9416.5 461.6 9418.6 451.1 9420.3 440.5 9421.7 429.9 9422.6 419.3 9423.2 408.6 9423.4 397.9 9423.2 387.2 9422.6 376.5 9421.7 365.9 9420.3 355.3 9418.6 344.7 9416.5 334.2 9414 323.8 9411.1 313.5 9407.9 303.3 9404.3 293.2 9400.3 283.3 9396 273.5 9391.3 263.9 9386.3 254.4 9381 245.1 9375.3 236.1 9369.3 227.2 9363 218.6 9356.4 210.2 9349.4 202 9342.2 194.1 9334.7 186.5 9326.9 179.1 9318.9 172.1 9310.6 165.3 9302.1 158.8 9293.4 152.7 9284.4 146.8 9275.2 141.3 9265.9 136.1 9256.3 131.3 9246.6 126.8 9236.8 122.6 9226.8 118.9 9216.6 115.4 9206.4 112.4 9196 109.7 9185.6 107.4 9175 105.5 9164.4 104 9153.8 102.8 9143.1 102 9132.4 101.6 9121.8 101.6 9111.1 102 9100.4 102.8 9089.8 104 9079.2 105.5 9068.6 107.4 9058.2 109.7 9047.8 112.4 9037.6 115.4 9027.4 118.9 9017.4 122.6 9007.6 126.8 8997.9 131.3 8988.3 136.1 8978.9 141.3 8969.8 146.8 8960.8 152.7 8952.1 158.8 8943.6 165.3 8935.3 172.1 8927.3 179.1 8919.5 186.5 8912 194.1 8904.8 202 8897.8 210.2 8891.2 218.6 8884.9 227.2 8878.9 236.1 8873.2 245.1 8867.9 254.4 8862.9 263.9 8858.2 273.5 8853.9 283.3 8849.9 293.2 8846.3 303.3 8843.1 313.5 8840.2 323.8 8837.7 334.2 8835.6 344.7 8833.9 355.3 8832.5 365.9 8831.6 376.5 8831 387.2 8830.8 397.9 M 8890 931.3 8890.2 941 8890.8 950.6 8891.8 960.2 8893.2 969.8 8894.9 979.3 8897.1 988.8 8899.6 998.1 8902.5 1007.3 8905.8 1016.4 8909.5 1025.4 8913.5 1034.2 8917.9 1042.8 8922.6 1051.2 8927.6 1059.5 8933 1067.5 8938.8 1075.3 8944.8 1082.9 8951.1 1090.2 8957.7 1097.2 8964.7 1104 8971.8 1110.5 8979.3 1116.7 8987 1122.5 8994.9 1128.1 9003 1133.3 9011.4 1138.2 9019.9 1142.8 9028.6 1147 9037.5 1150.8 9046.5 1154.3 9055.7 1157.4 9065 1160.1 9074.3 1162.5 9083.8 1164.4 9093.4 1166 9103 1167.2 9112.6 1168 9122.3 1168.4 9131.9 1168.4 9141.6 1168 9151.2 1167.2 9160.8 1166 9170.4 1164.4 9179.9 1162.5 9189.2 1160.1 9198.5 1157.4 9207.7 1154.3 9216.7 1150.8 9225.6 1147 9234.3 1142.8 9242.8 1138.2 9251.2 1133.3 9259.3 1128.1 9267.2 1122.5 9274.9 1116.7 9282.4 1110.5 9289.5 1104 9296.5 1097.2 9303.1 1090.2 9309.4 1082.9 9315.4 1075.3 9321.2 1067.5 9326.6 1059.5 9331.6 1051.2 9336.3 1042.8 9340.7 1034.2 9344.7 1025.4 9348.4 1016.4 9351.7 1007.3 9354.6 998.1 9357.1 988.8 9359.3 979.3 9361 969.8 9362.4 960.2 9363.4 950.6 9364 941 9364.2 931.3 9364 921.6 9363.4 912 9362.4 902.4 9361 892.8 9359.3 883.3 9357.1 873.8 9354.6 864.5 9351.7 855.3 9348.4 846.2 9344.7 837.2 9340.7 828.4 9336.3 819.8 9331.6 811.4 9326.6 803.1 9321.2 795.1 9315.4 787.3 9309.4 779.7 9303.1 772.4 9296.5 765.4 9289.5 758.6 9282.4 752.1 9274.9 745.9 9267.2 740.1 9259.3 734.5 9251.2 729.3 9242.8 724.4 9234.3 719.8 9225.6 715.6 9216.7 711.8 9207.7 708.3 9198.5 705.2 9189.2 702.5 9179.9 700.1 9170.4 698.2 9160.8 696.6 9151.2 695.4 9141.6 694.6 9131.9 694.2 9122.3 694.2 9112.6 694.6 9103 695.4 9093.4 696.6 9083.8 698.2 9074.3 700.1 9065 702.5 9055.7 705.2 9046.5 708.3 9037.5 711.8 9028.6 715.6 9019.9 719.8 9011.4 724.4 9003 729.3 8994.9 734.5 8987 740.1 8979.3 745.9 8971.8 752.1 8964.7 758.6 8957.7 765.4 8951.1 772.4 8944.8 779.7 8938.8 787.3 8933 795.1 8927.6 803.1 8922.6 811.4 8917.9 819.8 8913.5 828.4 8909.5 837.2 8905.8 846.2 8902.5 855.3 8899.6 864.5 8897.1 873.8 8894.9 883.3 8893.2 892.8 8891.8 902.4 8890.8 912 8890.2 921.6 8890 931.3 M 8968.8 14071.6 8968.8 15138.4 9265.1 15138.4 9275.8 15138.2 9286.5 15137.6 9297.1 15136.7 9307.7 15135.3 9318.3 15133.6 9328.8 15131.5 9339.2 15129 9349.5 15126.1 9359.7 15122.9 9369.8 15119.3 9379.7 15115.3 9389.5 15111 9399.1 15106.3 9408.6 15101.3 9417.9 15096 9426.9 15090.3 9435.8 15084.3 9444.4 15078 9452.8 15071.4 9461 15064.4 9468.9 15057.2 9476.5 15049.7 9483.9 15041.9 9490.9 15033.9 9497.7 15025.6 9504.2 15017.1 9510.3 15008.4 9516.2 14999.4 9521.7 14990.2 9526.9 14980.9 9531.7 14971.3 9536.2 14961.6 9540.4 14951.8 9544.1 14941.8 9547.6 14931.6 9550.6 14921.4 9553.3 14911 9555.6 14900.6 9557.5 14890 9559 14879.4 9560.2 14868.8 9561 14858.1 9561.4 14847.4 9561.4 14836.8 9561 14826.1 9560.2 14815.4 9559 14804.8 9557.5 14794.2 9555.6 14783.6 9553.3 14773.2 9550.6 14762.8 9547.6 14752.6 9544.1 14742.4 9540.4 14732.4 9536.2 14722.6 9531.7 14712.9 9526.9 14703.3 9521.7 14694 9516.2 14684.8 9510.3 14675.8 9504.2 14667.1 9497.7 14658.6 9490.9 14650.3 9483.9 14642.3 9476.5 14634.5 9468.9 14627 9461 14619.8 9452.8 14612.8 9444.4 14606.2 9435.8 14599.9 9426.9 14593.9 9417.9 14588.2 9408.6 14582.9 9399.1 14577.9 9389.5 14573.2 9379.7 14568.9 9369.8 14564.9 9359.7 14561.3 9349.5 14558.1 9339.2 14555.2 9328.8 14552.7 9318.3 14550.6 9307.7 14548.9 9297.1 14547.5 9286.5 14546.6 9275.8 14546 9265.1 14545.8 M 9265.1 14545.7 8968.8 14545.7 M 9324.4 14545.7 9561.4 14071.6 M 10337.8 14545.7 10693.4 14545.7 M 10337.8 14545.7 10328.3 14545.9 10318.7 14546.5 10309.2 14547.4 10299.8 14548.8 10290.4 14550.5 10281.1 14552.6 10271.8 14555.1 10262.7 14557.9 10253.7 14561.1 10244.9 14564.7 10236.2 14568.6 10227.6 14572.9 10219.2 14577.5 10211.1 14582.4 10203.1 14587.7 10195.4 14593.3 10187.8 14599.1 10180.6 14605.3 10173.6 14611.8 10166.8 14618.6 10160.3 14625.6 10154.1 14632.8 10148.3 14640.4 10142.7 14648.1 10137.4 14656.1 10132.5 14664.3 10127.9 14672.6 10123.6 14681.2 10119.7 14689.9 10116.1 14698.7 10112.9 14707.7 10110.1 14716.8 10107.6 14726.1 10105.5 14735.4 10103.8 14744.8 10102.4 14754.2 10101.5 14763.7 10100.9 14773.3 10100.7 14782.8 10100.7 14842.1 M 10100.8 14842.1 10101 14852.8 10101.6 14863.5 10102.5 14874.1 10103.9 14884.7 10105.6 14895.3 10107.7 14905.8 10110.2 14916.2 10113.1 14926.5 10116.3 14936.7 10119.9 14946.8 10123.9 14956.7 10128.2 14966.5 10132.9 14976.1 10137.9 14985.6 10143.2 14994.9 10148.9 15003.9 10154.9 15012.8 10161.2 15021.4 10167.8 15029.8 10174.8 15038 10182 15045.9 10189.5 15053.5 10197.3 15060.9 10205.3 15067.9 10213.6 15074.7 10222.1 15081.2 10230.8 15087.3 10239.8 15093.2 10249 15098.7 10258.3 15103.9 10267.9 15108.7 10277.6 15113.2 10287.4 15117.4 10297.4 15121.1 10307.6 15124.6 10317.8 15127.6 10328.2 15130.3 10338.6 15132.6 10349.2 15134.5 10359.8 15136 10370.4 15137.2 10381.1 15138 10391.8 15138.4 10402.4 15138.4 10413.1 15138 10423.8 15137.2 10434.4 15136 10445 15134.5 10455.6 15132.6 10466 15130.3 10476.4 15127.6 10486.6 15124.6 10496.8 15121.1 10506.8 15117.4 10516.6 15113.2 10526.3 15108.7 10535.9 15103.9 10545.3 15098.7 10554.4 15093.2 10563.4 15087.3 10572.1 15081.2 10580.6 15074.7 10588.9 15067.9 10596.9 15060.9 10604.7 15053.5 10612.2 15045.9 10619.4 15038 10626.4 15029.8 10633 15021.4 10639.3 15012.8 10645.3 15003.9 10651 14994.9 10656.3 14985.6 10661.3 14976.1 10666 14966.5 10670.3 14956.7 10674.3 14946.8 10677.9 14936.7 10681.1 14926.5 10684 14916.2 10686.5 14905.8 10688.6 14895.3 10690.3 14884.7 10691.7 14874.1 10692.6 14863.5 10693.2 14852.8 10693.4 14842.1 10693.4 14545.7 10693.2 14532.2 10692.6 14518.6 10691.7 14505.1 10690.3 14491.7 10688.6 14478.2 10686.5 14464.9 10684 14451.5 10681.1 14438.3 10677.8 14425.2 10674.2 14412.1 10670.2 14399.2 10665.8 14386.4 10661.1 14373.7 10656 14361.1 10650.6 14348.8 10644.8 14336.5 10638.6 14324.5 10632.1 14312.6 10625.3 14300.9 10618.1 14289.4 10610.7 14278.1 10602.9 14267 10594.7 14256.2 10586.3 14245.6 10577.6 14235.2 10568.6 14225.1 10559.3 14215.3 10549.7 14205.7 10539.9 14196.4 10529.8 14187.4 10519.4 14178.7 10508.8 14170.3 10498 14162.1 10486.9 14154.3 10475.6 14146.9 10464.1 14139.7 10452.4 14132.9 10440.5 14126.4 10428.5 14120.2 10416.2 14114.4 10403.9 14109 10391.3 14103.9 10378.6 14099.2 10365.8 14094.8 10352.9 14090.8 10339.8 14087.2 10326.7 14083.9 10313.5 14081 10300.1 14078.5 10286.8 14076.4 10273.3 14074.7 10259.9 14073.3 10246.4 14072.4 10232.8 14071.8 10219.3 14071.6" fill="none" stroke-width="203.2"/><path d="M 11461 12413 11461 8858.3 13939 8858.3 13939 12413" fill="none" stroke-width="120"/><path d="M 14353.1 11994.4 14353.1 10927.6 M 14353.1 11994.4 14649.5 11994.4 14660.1 11994.2 14670.6 11993.6 14681.2 11992.7 14691.7 11991.4 14702.1 11989.7 14712.5 11987.6 14722.8 11985.2 14733 11982.4 14743.1 11979.2 14753 11975.7 14762.9 11971.8 14772.6 11967.6 14782.1 11963.1 14791.5 11958.2 14800.7 11952.9 14809.7 11947.4 14818.5 11941.5 14827.1 11935.3 14835.4 11928.8 14843.5 11922 14851.4 11915 14859 11907.6 14866.4 11900 14873.4 11892.1 14880.2 11884 14886.7 11875.7 14892.9 11867.1 14898.8 11858.3 14904.3 11849.3 14909.6 11840.1 14914.5 11830.7 14919 11821.2 14923.2 11811.5 14927.1 11801.6 14930.6 11791.7 14933.8 11781.6 14936.6 11771.4 14939 11761.1 14941.1 11750.7 14942.8 11740.3 14944.1 11729.8 14945 11719.2 14945.6 11708.7 14945.8 11698.1 14945.8 11223.9 14945.6 11213.3 14945 11202.8 14944.1 11192.2 14942.8 11181.7 14941.1 11171.3 14939 11160.9 14936.6 11150.6 14933.8 11140.4 14930.6 11130.3 14927.1 11120.4 14923.2 11110.5 14919 11100.8 14914.5 11091.3 14909.6 11081.9 14904.3 11072.7 14898.8 11063.7 14892.9 11054.9 14886.7 11046.3 14880.2 11038 14873.4 11029.9 14866.4 11022 14859 11014.4 14851.4 11007 14843.5 11000 14835.4 10993.2 14827.1 10986.7 14818.5 10980.5 14809.7 10974.6 14800.7 10969.1 14791.5 10963.8 14782.1 10958.9 14772.6 10954.4 14762.9 10950.2 14753 10946.3 14743.1 10942.8 14733 10939.6 14722.8 10936.8 14712.5 10934.4 14702.1 10932.3 14691.7 10930.6 14681.2 10929.3 14670.6 10928.4 14660.1 10927.8 14649.5 10927.6 14353.1 10927.6 M 15534.2 11164.7 15771.3 11994.4 M 15534.2 11164.7 16126.9 11164.7 M 15949.1 11401.7 15949.1 10927.6 M 9095.8 17881.6 9095.8 18948.4 9392.1 18948.4 9402.8 18948.2 9413.5 18947.6 9424.1 18946.7 9434.7 18945.3 9445.3 18943.6 9455.8 18941.5 9466.2 18939 9476.5 18936.1 9486.7 18932.9 9496.8 18929.3 9506.7 18925.3 9516.5 18921 9526.1 18916.3 9535.6 18911.3 9544.9 18906 9553.9 18900.3 9562.8 18894.3 9571.4 18888 9579.8 18881.4 9588 18874.4 9595.9 18867.2 9603.5 18859.7 9610.9 18851.9 9617.9 18843.9 9624.7 18835.6 9631.2 18827.1 9637.3 18818.4 9643.2 18809.4 9648.7 18800.2 9653.9 18790.9 9658.7 18781.3 9663.2 18771.6 9667.4 18761.8 9671.1 18751.8 9674.6 18741.6 9677.6 18731.4 9680.3 18721 9682.6 18710.6 9684.5 18700 9686 18689.4 9687.2 18678.8 9688 18668.1 9688.4 18657.4 9688.4 18646.8 9688 18636.1 9687.2 18625.4 9686 18614.8 9684.5 18604.2 9682.6 18593.6 9680.3 18583.2 9677.6 18572.8 9674.6 18562.6 9671.1 18552.4 9667.4 18542.4 9663.2 18532.6 9658.7 18522.9 9653.9 18513.3 9648.7 18504 9643.2 18494.8 9637.3 18485.8 9631.2 18477.1 9624.7 18468.6 9617.9 18460.3 9610.9 18452.3 9603.5 18444.5 9595.9 18437 9588 18429.8 9579.8 18422.8 9571.4 18416.2 9562.8 18409.9 9553.9 18403.9 9544.9 18398.2 9535.6 18392.9 9526.1 18387.9 9516.5 18383.2 9506.7 18378.9 9496.8 18374.9 9486.7 18371.3 9476.5 18368.1 9466.2 18365.2 9455.8 18362.7 9445.3 18360.6 9434.7 18358.9 9424.1 18357.5 9413.5 18356.6 9402.8 18356 9392.1 18355.8 M 9392.1 18355.7 9095.8 18355.7 M 9451.4 18355.7 9688.5 17881.6 M 10227.7 18711.3 10524.1 18948.4 10524.1 17881.6 M 10820.4 17881.6 10227.7 17881.6 M 11370.7 18415 11371 18436 11371.7 18457 11373 18477.9 11374.7 18498.8 11377 18519.7 11379.7 18540.5 11382.9 18561.2 11386.7 18581.9 11390.9 18602.4 11395.6 18622.9 11400.8 18643.2 11406.5 18663.4 11412.7 18683.5 11419.3 18703.4 11426.5 18723.1 11434.1 18742.7 11442.1 18762.1 11450.6 18781.3 11459.6 18800.2 M 11459.7 18800.2 11462.8 18808.7 11466.2 18817.1 11470 18825.3 11474.2 18833.4 11478.7 18841.3 11483.5 18849 11488.6 18856.5 11494 18863.7 11499.7 18870.8 11505.7 18877.6 11512 18884.1 11518.5 18890.4 11525.3 18896.4 11532.4 18902.1 11539.6 18907.5 11547.1 18912.7 11554.8 18917.5 11562.7 18922 11570.8 18926.1 11579 18929.9 11587.4 18933.4 11595.9 18936.5 11604.5 18939.3 11613.2 18941.7 11622.1 18943.7 11631 18945.4 11640 18946.7 11649 18947.7 11658 18948.2 11667.1 18948.4 11676.2 18948.2 11685.2 18947.7 11694.2 18946.7 11703.2 18945.4 11712.1 18943.7 11721 18941.7 11729.7 18939.3 11738.3 18936.5 11746.8 18933.4 11755.2 18929.9 11763.4 18926.1 11771.5 18922 11779.4 18917.5 11787.1 18912.7 11794.6 18907.6 11801.8 18902.1 11808.9 18896.4 11815.7 18890.4 11822.2 18884.1 11828.5 18877.6 11834.5 18870.8 11840.2 18863.7 11845.6 18856.5 11850.7 18849 11855.5 18841.3 11860 18833.4 11864.2 18825.3 11868 18817.1 11871.4 18808.7 11874.5 18800.2 11883.5 18781.3 11892 18762.1 11900 18742.7 11907.6 18723.1 11914.8 18703.4 11921.4 18683.5 11927.6 18663.4 11933.3 18643.2 11938.5 18622.9 11943.2 18602.4 11947.4 18581.9 11951.2 18561.2 11954.4 18540.5 11957.1 18519.7 11959.4 18498.8 11961.1 18477.9 11962.4 18457 11963.1 18436 11963.4 18415 M 11370.8 18415 11371.1 18394 11371.8 18373 11373.1 18352.1 11374.8 18331.2 11377.1 18310.3 11379.8 18289.5 11383 18268.8 11386.8 18248.1 11391 18227.6 11395.7 18207.1 11400.9 18186.8 11406.6 18166.6 11412.8 18146.5 11419.4 18126.6 11426.6 18106.9 11434.2 18087.3 11442.2 18067.9 11450.7 18048.8 11459.7 18029.8 11462.8 18021.3 11466.2 18012.9 11470 18004.7 11474.2 17996.6 11478.7 17988.7 11483.5 17981 11488.6 17973.5 11494 17966.3 11499.7 17959.2 11505.7 17952.4 11512 17945.9 11518.5 17939.6 11525.3 17933.6 11532.4 17927.9 11539.6 17922.4 11547.1 17917.3 11554.8 17912.5 11562.7 17908 11570.8 17903.9 11579 17900.1 11587.4 17896.6 11595.9 17893.5 11604.5 17890.7 11613.2 17888.3 11622.1 17886.3 11631 17884.6 11640 17883.3 11649 17882.3 11658 17881.8 11667.1 17881.6 M 11874.5 18029.8 11883.5 18048.8 11892 18067.9 11900 18087.3 11907.6 18106.9 11914.8 18126.6 11921.4 18146.5 11927.6 18166.6 11933.3 18186.8 11938.5 18207.1 11943.2 18227.6 11947.4 18248.1 11951.2 18268.8 11954.4 18289.5 11957.1 18310.3 11959.4 18331.2 11961.1 18352.1 11962.4 18373 11963.1 18394 11963.4 18415 M 11874.5 18029.8 11871.4 18021.3 11868 18012.9 11864.2 18004.7 11860 17996.6 11855.5 17988.7 11850.7 17981 11845.6 17973.5 11840.2 17966.3 11834.5 17959.2 11828.5 17952.4 11822.2 17945.9 11815.7 17939.6 11808.9 17933.6 11801.8 17927.9 11794.6 17922.4 11787.1 17917.3 11779.4 17912.5 11771.5 17908 11763.4 17903.9 11755.2 17900.1 11746.8 17896.6 11738.3 17893.5 11729.7 17890.7 11721 17888.3 11712.1 17886.3 11703.2 17884.6 11694.2 17883.3 11685.2 17882.3 11676.2 17881.8 11667.1 17881.6 M 11430 18118.7 11904.1 18711.3" fill="none" stroke-width="203.2"/><path d="M 0 0 40000 0 40000 40000 0 40000 0 0" fill="none" stroke-width="254"/></g></svg>