G04 EAGLE Gerber RS-274X export*
G75*
%MOMM*%
%FSLAX34Y34*%
%LPD*%
%INSilkscreen Bottom*%
%IPPOS*%
%AMOC8*
5,1,8,0,0,1.08239X$1,22.5*%
G01*
G04 Define Apertures*
%ADD10C,0.203200*%
%ADD11C,0.381000*%
%ADD12C,0.152400*%
%ADD13C,0.127000*%
%ADD14C,0.254000*%
D10*
X644144Y223266D02*
X644144Y233934D01*
X641181Y233934D01*
X641074Y233932D01*
X640967Y233926D01*
X640861Y233917D01*
X640755Y233903D01*
X640649Y233886D01*
X640544Y233865D01*
X640440Y233840D01*
X640337Y233811D01*
X640235Y233779D01*
X640134Y233743D01*
X640035Y233703D01*
X639937Y233660D01*
X639841Y233613D01*
X639746Y233563D01*
X639653Y233510D01*
X639563Y233453D01*
X639474Y233393D01*
X639388Y233330D01*
X639304Y233264D01*
X639222Y233194D01*
X639143Y233122D01*
X639067Y233047D01*
X638993Y232969D01*
X638923Y232889D01*
X638855Y232806D01*
X638790Y232721D01*
X638729Y232634D01*
X638670Y232544D01*
X638615Y232453D01*
X638563Y232359D01*
X638515Y232263D01*
X638470Y232166D01*
X638428Y232068D01*
X638391Y231968D01*
X638356Y231866D01*
X638326Y231764D01*
X638299Y231660D01*
X638276Y231556D01*
X638257Y231450D01*
X638242Y231344D01*
X638230Y231238D01*
X638222Y231131D01*
X638218Y231024D01*
X638218Y230918D01*
X638222Y230811D01*
X638230Y230704D01*
X638242Y230598D01*
X638257Y230492D01*
X638276Y230386D01*
X638299Y230282D01*
X638326Y230178D01*
X638356Y230076D01*
X638391Y229974D01*
X638428Y229874D01*
X638470Y229776D01*
X638515Y229679D01*
X638563Y229583D01*
X638615Y229490D01*
X638670Y229398D01*
X638729Y229308D01*
X638790Y229221D01*
X638855Y229136D01*
X638923Y229053D01*
X638993Y228973D01*
X639067Y228895D01*
X639143Y228820D01*
X639222Y228748D01*
X639304Y228678D01*
X639388Y228612D01*
X639474Y228549D01*
X639563Y228489D01*
X639653Y228432D01*
X639746Y228379D01*
X639841Y228329D01*
X639937Y228282D01*
X640035Y228239D01*
X640134Y228199D01*
X640235Y228163D01*
X640337Y228131D01*
X640440Y228102D01*
X640544Y228077D01*
X640649Y228056D01*
X640755Y228039D01*
X640861Y228025D01*
X640967Y228016D01*
X641074Y228010D01*
X641181Y228008D01*
X641181Y228007D02*
X644144Y228007D01*
X640588Y228007D02*
X638217Y223266D01*
X633417Y223266D02*
X626305Y233934D01*
X633417Y233934D02*
X626305Y223266D01*
X603504Y249936D02*
X603504Y260604D01*
X600541Y260604D01*
X600434Y260602D01*
X600327Y260596D01*
X600221Y260587D01*
X600115Y260573D01*
X600009Y260556D01*
X599904Y260535D01*
X599800Y260510D01*
X599697Y260481D01*
X599595Y260449D01*
X599494Y260413D01*
X599395Y260373D01*
X599297Y260330D01*
X599201Y260283D01*
X599106Y260233D01*
X599013Y260180D01*
X598923Y260123D01*
X598834Y260063D01*
X598748Y260000D01*
X598664Y259934D01*
X598582Y259864D01*
X598503Y259792D01*
X598427Y259717D01*
X598353Y259639D01*
X598283Y259559D01*
X598215Y259476D01*
X598150Y259391D01*
X598089Y259304D01*
X598030Y259214D01*
X597975Y259123D01*
X597923Y259029D01*
X597875Y258933D01*
X597830Y258836D01*
X597788Y258738D01*
X597751Y258638D01*
X597716Y258536D01*
X597686Y258434D01*
X597659Y258330D01*
X597636Y258226D01*
X597617Y258120D01*
X597602Y258014D01*
X597590Y257908D01*
X597582Y257801D01*
X597578Y257694D01*
X597578Y257588D01*
X597582Y257481D01*
X597590Y257374D01*
X597602Y257268D01*
X597617Y257162D01*
X597636Y257056D01*
X597659Y256952D01*
X597686Y256848D01*
X597716Y256746D01*
X597751Y256644D01*
X597788Y256544D01*
X597830Y256446D01*
X597875Y256349D01*
X597923Y256253D01*
X597975Y256160D01*
X598030Y256068D01*
X598089Y255978D01*
X598150Y255891D01*
X598215Y255806D01*
X598283Y255723D01*
X598353Y255643D01*
X598427Y255565D01*
X598503Y255490D01*
X598582Y255418D01*
X598664Y255348D01*
X598748Y255282D01*
X598834Y255219D01*
X598923Y255159D01*
X599013Y255102D01*
X599106Y255049D01*
X599201Y254999D01*
X599297Y254952D01*
X599395Y254909D01*
X599494Y254869D01*
X599595Y254833D01*
X599697Y254801D01*
X599800Y254772D01*
X599904Y254747D01*
X600009Y254726D01*
X600115Y254709D01*
X600221Y254695D01*
X600327Y254686D01*
X600434Y254680D01*
X600541Y254678D01*
X600541Y254677D02*
X603504Y254677D01*
X592218Y249936D02*
X592218Y260604D01*
X589254Y260604D01*
X589147Y260602D01*
X589040Y260596D01*
X588934Y260587D01*
X588828Y260573D01*
X588722Y260556D01*
X588617Y260535D01*
X588513Y260510D01*
X588410Y260481D01*
X588308Y260449D01*
X588207Y260413D01*
X588108Y260373D01*
X588010Y260330D01*
X587914Y260283D01*
X587819Y260233D01*
X587726Y260180D01*
X587636Y260123D01*
X587547Y260063D01*
X587461Y260000D01*
X587377Y259934D01*
X587295Y259864D01*
X587216Y259792D01*
X587140Y259717D01*
X587066Y259639D01*
X586996Y259559D01*
X586928Y259476D01*
X586863Y259391D01*
X586802Y259304D01*
X586743Y259214D01*
X586688Y259123D01*
X586636Y259029D01*
X586588Y258933D01*
X586543Y258836D01*
X586501Y258738D01*
X586464Y258638D01*
X586429Y258536D01*
X586399Y258434D01*
X586372Y258330D01*
X586349Y258226D01*
X586330Y258120D01*
X586315Y258014D01*
X586303Y257908D01*
X586295Y257801D01*
X586291Y257694D01*
X586291Y257588D01*
X586295Y257481D01*
X586303Y257374D01*
X586315Y257268D01*
X586330Y257162D01*
X586349Y257056D01*
X586372Y256952D01*
X586399Y256848D01*
X586429Y256746D01*
X586464Y256644D01*
X586501Y256544D01*
X586543Y256446D01*
X586588Y256349D01*
X586636Y256253D01*
X586688Y256160D01*
X586743Y256068D01*
X586802Y255978D01*
X586863Y255891D01*
X586928Y255806D01*
X586996Y255723D01*
X587066Y255643D01*
X587140Y255565D01*
X587216Y255490D01*
X587295Y255418D01*
X587377Y255348D01*
X587461Y255282D01*
X587547Y255219D01*
X587636Y255159D01*
X587726Y255102D01*
X587819Y255049D01*
X587914Y254999D01*
X588010Y254952D01*
X588108Y254909D01*
X588207Y254869D01*
X588308Y254833D01*
X588410Y254801D01*
X588513Y254772D01*
X588617Y254747D01*
X588722Y254726D01*
X588828Y254709D01*
X588934Y254695D01*
X589040Y254686D01*
X589147Y254680D01*
X589254Y254678D01*
X589254Y254677D02*
X592218Y254677D01*
X588662Y254677D02*
X586291Y249936D01*
X580898Y252899D02*
X580898Y257641D01*
X580896Y257748D01*
X580890Y257855D01*
X580881Y257961D01*
X580867Y258067D01*
X580850Y258173D01*
X580829Y258278D01*
X580804Y258382D01*
X580775Y258485D01*
X580743Y258587D01*
X580707Y258688D01*
X580667Y258787D01*
X580624Y258885D01*
X580577Y258981D01*
X580527Y259076D01*
X580474Y259169D01*
X580417Y259259D01*
X580357Y259348D01*
X580294Y259434D01*
X580228Y259518D01*
X580158Y259600D01*
X580086Y259679D01*
X580011Y259755D01*
X579933Y259829D01*
X579853Y259899D01*
X579770Y259967D01*
X579685Y260032D01*
X579598Y260093D01*
X579508Y260152D01*
X579417Y260207D01*
X579323Y260259D01*
X579227Y260307D01*
X579130Y260352D01*
X579032Y260394D01*
X578932Y260431D01*
X578830Y260466D01*
X578728Y260496D01*
X578624Y260523D01*
X578520Y260546D01*
X578414Y260565D01*
X578308Y260580D01*
X578202Y260592D01*
X578095Y260600D01*
X577988Y260604D01*
X577882Y260604D01*
X577775Y260600D01*
X577668Y260592D01*
X577562Y260580D01*
X577456Y260565D01*
X577350Y260546D01*
X577246Y260523D01*
X577142Y260496D01*
X577040Y260466D01*
X576938Y260431D01*
X576838Y260394D01*
X576740Y260352D01*
X576643Y260307D01*
X576547Y260259D01*
X576454Y260207D01*
X576362Y260152D01*
X576272Y260093D01*
X576185Y260032D01*
X576100Y259967D01*
X576017Y259899D01*
X575937Y259829D01*
X575859Y259755D01*
X575784Y259679D01*
X575712Y259600D01*
X575642Y259518D01*
X575576Y259434D01*
X575513Y259348D01*
X575453Y259259D01*
X575396Y259169D01*
X575343Y259076D01*
X575293Y258981D01*
X575246Y258885D01*
X575203Y258787D01*
X575163Y258688D01*
X575127Y258587D01*
X575095Y258485D01*
X575066Y258382D01*
X575041Y258278D01*
X575020Y258173D01*
X575003Y258067D01*
X574989Y257961D01*
X574980Y257855D01*
X574974Y257748D01*
X574972Y257641D01*
X574971Y257641D02*
X574971Y252899D01*
X574972Y252899D02*
X574974Y252792D01*
X574980Y252685D01*
X574989Y252579D01*
X575003Y252473D01*
X575020Y252367D01*
X575041Y252262D01*
X575066Y252158D01*
X575095Y252055D01*
X575127Y251953D01*
X575163Y251852D01*
X575203Y251753D01*
X575246Y251655D01*
X575293Y251559D01*
X575343Y251464D01*
X575396Y251371D01*
X575453Y251281D01*
X575513Y251192D01*
X575576Y251106D01*
X575642Y251022D01*
X575712Y250940D01*
X575784Y250861D01*
X575859Y250785D01*
X575937Y250711D01*
X576017Y250641D01*
X576100Y250573D01*
X576185Y250508D01*
X576272Y250447D01*
X576362Y250388D01*
X576454Y250333D01*
X576547Y250281D01*
X576643Y250233D01*
X576740Y250188D01*
X576838Y250146D01*
X576938Y250109D01*
X577040Y250074D01*
X577142Y250044D01*
X577246Y250017D01*
X577350Y249994D01*
X577456Y249975D01*
X577562Y249960D01*
X577668Y249948D01*
X577775Y249940D01*
X577882Y249936D01*
X577988Y249936D01*
X578095Y249940D01*
X578202Y249948D01*
X578308Y249960D01*
X578414Y249975D01*
X578520Y249994D01*
X578624Y250017D01*
X578728Y250044D01*
X578830Y250074D01*
X578932Y250109D01*
X579032Y250146D01*
X579130Y250188D01*
X579227Y250233D01*
X579323Y250281D01*
X579417Y250333D01*
X579508Y250388D01*
X579598Y250447D01*
X579685Y250508D01*
X579770Y250573D01*
X579853Y250641D01*
X579933Y250711D01*
X580011Y250785D01*
X580086Y250861D01*
X580158Y250940D01*
X580228Y251022D01*
X580294Y251106D01*
X580357Y251192D01*
X580417Y251281D01*
X580474Y251371D01*
X580527Y251464D01*
X580577Y251559D01*
X580624Y251655D01*
X580667Y251753D01*
X580707Y251852D01*
X580743Y251953D01*
X580775Y252055D01*
X580804Y252158D01*
X580829Y252262D01*
X580850Y252367D01*
X580867Y252473D01*
X580881Y252579D01*
X580890Y252685D01*
X580896Y252792D01*
X580898Y252899D01*
X564938Y255863D02*
X563160Y255863D01*
X563160Y249936D01*
X566716Y249936D01*
X566811Y249938D01*
X566907Y249944D01*
X567002Y249953D01*
X567096Y249967D01*
X567190Y249984D01*
X567283Y250005D01*
X567376Y250030D01*
X567467Y250058D01*
X567557Y250090D01*
X567645Y250126D01*
X567732Y250165D01*
X567818Y250208D01*
X567902Y250254D01*
X567983Y250303D01*
X568063Y250356D01*
X568140Y250412D01*
X568216Y250470D01*
X568288Y250532D01*
X568358Y250597D01*
X568426Y250665D01*
X568491Y250735D01*
X568553Y250807D01*
X568611Y250883D01*
X568667Y250960D01*
X568720Y251040D01*
X568769Y251122D01*
X568815Y251205D01*
X568858Y251291D01*
X568897Y251378D01*
X568933Y251466D01*
X568965Y251556D01*
X568993Y251647D01*
X569018Y251740D01*
X569039Y251833D01*
X569056Y251927D01*
X569070Y252021D01*
X569079Y252116D01*
X569085Y252212D01*
X569087Y252307D01*
X569087Y258233D01*
X569085Y258328D01*
X569079Y258424D01*
X569070Y258519D01*
X569056Y258613D01*
X569039Y258707D01*
X569018Y258800D01*
X568993Y258893D01*
X568965Y258984D01*
X568933Y259074D01*
X568897Y259162D01*
X568858Y259249D01*
X568815Y259335D01*
X568769Y259418D01*
X568720Y259500D01*
X568667Y259580D01*
X568611Y259657D01*
X568553Y259733D01*
X568491Y259805D01*
X568426Y259875D01*
X568358Y259943D01*
X568288Y260008D01*
X568216Y260070D01*
X568140Y260128D01*
X568063Y260184D01*
X567983Y260237D01*
X567902Y260286D01*
X567818Y260332D01*
X567732Y260375D01*
X567645Y260414D01*
X567557Y260450D01*
X567467Y260482D01*
X567376Y260510D01*
X567283Y260535D01*
X567190Y260556D01*
X567096Y260573D01*
X567002Y260587D01*
X566907Y260596D01*
X566812Y260602D01*
X566716Y260604D01*
X563160Y260604D01*
X644144Y208534D02*
X644144Y197866D01*
X644144Y208534D02*
X641181Y208534D01*
X641074Y208532D01*
X640967Y208526D01*
X640861Y208517D01*
X640755Y208503D01*
X640649Y208486D01*
X640544Y208465D01*
X640440Y208440D01*
X640337Y208411D01*
X640235Y208379D01*
X640134Y208343D01*
X640035Y208303D01*
X639937Y208260D01*
X639841Y208213D01*
X639746Y208163D01*
X639653Y208110D01*
X639563Y208053D01*
X639474Y207993D01*
X639388Y207930D01*
X639304Y207864D01*
X639222Y207794D01*
X639143Y207722D01*
X639067Y207647D01*
X638993Y207569D01*
X638923Y207489D01*
X638855Y207406D01*
X638790Y207321D01*
X638729Y207234D01*
X638670Y207144D01*
X638615Y207053D01*
X638563Y206959D01*
X638515Y206863D01*
X638470Y206766D01*
X638428Y206668D01*
X638391Y206568D01*
X638356Y206466D01*
X638326Y206364D01*
X638299Y206260D01*
X638276Y206156D01*
X638257Y206050D01*
X638242Y205944D01*
X638230Y205838D01*
X638222Y205731D01*
X638218Y205624D01*
X638218Y205518D01*
X638222Y205411D01*
X638230Y205304D01*
X638242Y205198D01*
X638257Y205092D01*
X638276Y204986D01*
X638299Y204882D01*
X638326Y204778D01*
X638356Y204676D01*
X638391Y204574D01*
X638428Y204474D01*
X638470Y204376D01*
X638515Y204279D01*
X638563Y204183D01*
X638615Y204090D01*
X638670Y203998D01*
X638729Y203908D01*
X638790Y203821D01*
X638855Y203736D01*
X638923Y203653D01*
X638993Y203573D01*
X639067Y203495D01*
X639143Y203420D01*
X639222Y203348D01*
X639304Y203278D01*
X639388Y203212D01*
X639474Y203149D01*
X639563Y203089D01*
X639653Y203032D01*
X639746Y202979D01*
X639841Y202929D01*
X639937Y202882D01*
X640035Y202839D01*
X640134Y202799D01*
X640235Y202763D01*
X640337Y202731D01*
X640440Y202702D01*
X640544Y202677D01*
X640649Y202656D01*
X640755Y202639D01*
X640861Y202625D01*
X640967Y202616D01*
X641074Y202610D01*
X641181Y202608D01*
X641181Y202607D02*
X644144Y202607D01*
X640588Y202607D02*
X638217Y197866D01*
X629649Y197866D02*
X629554Y197868D01*
X629458Y197874D01*
X629363Y197883D01*
X629269Y197897D01*
X629175Y197914D01*
X629082Y197935D01*
X628989Y197960D01*
X628898Y197988D01*
X628808Y198020D01*
X628720Y198056D01*
X628633Y198095D01*
X628547Y198138D01*
X628464Y198184D01*
X628382Y198233D01*
X628302Y198286D01*
X628225Y198342D01*
X628149Y198400D01*
X628077Y198462D01*
X628007Y198527D01*
X627939Y198595D01*
X627874Y198665D01*
X627812Y198737D01*
X627754Y198813D01*
X627698Y198890D01*
X627645Y198970D01*
X627596Y199052D01*
X627550Y199135D01*
X627507Y199221D01*
X627468Y199308D01*
X627432Y199396D01*
X627400Y199486D01*
X627372Y199577D01*
X627347Y199670D01*
X627326Y199763D01*
X627309Y199857D01*
X627295Y199951D01*
X627286Y200046D01*
X627280Y200142D01*
X627278Y200237D01*
X629649Y197866D02*
X629785Y197868D01*
X629922Y197873D01*
X630058Y197883D01*
X630193Y197896D01*
X630329Y197912D01*
X630463Y197933D01*
X630598Y197957D01*
X630731Y197984D01*
X630864Y198016D01*
X630996Y198050D01*
X631127Y198089D01*
X631256Y198131D01*
X631385Y198176D01*
X631512Y198225D01*
X631638Y198278D01*
X631762Y198334D01*
X631885Y198393D01*
X632006Y198455D01*
X632126Y198521D01*
X632243Y198590D01*
X632359Y198663D01*
X632473Y198738D01*
X632584Y198816D01*
X632693Y198898D01*
X632801Y198982D01*
X632905Y199069D01*
X633008Y199159D01*
X633108Y199252D01*
X633205Y199348D01*
X632909Y206163D02*
X632907Y206258D01*
X632901Y206354D01*
X632892Y206449D01*
X632878Y206543D01*
X632861Y206637D01*
X632840Y206730D01*
X632815Y206823D01*
X632787Y206914D01*
X632755Y207004D01*
X632719Y207092D01*
X632680Y207179D01*
X632637Y207265D01*
X632591Y207349D01*
X632542Y207430D01*
X632489Y207510D01*
X632433Y207587D01*
X632375Y207663D01*
X632313Y207735D01*
X632248Y207805D01*
X632180Y207873D01*
X632110Y207938D01*
X632038Y208000D01*
X631962Y208058D01*
X631885Y208114D01*
X631805Y208167D01*
X631724Y208216D01*
X631640Y208262D01*
X631554Y208305D01*
X631467Y208344D01*
X631379Y208380D01*
X631289Y208412D01*
X631198Y208440D01*
X631105Y208465D01*
X631012Y208486D01*
X630918Y208503D01*
X630824Y208517D01*
X630729Y208526D01*
X630633Y208532D01*
X630538Y208534D01*
X630408Y208532D01*
X630278Y208526D01*
X630148Y208517D01*
X630019Y208504D01*
X629890Y208487D01*
X629762Y208466D01*
X629634Y208441D01*
X629507Y208413D01*
X629381Y208381D01*
X629256Y208345D01*
X629132Y208306D01*
X629010Y208263D01*
X628888Y208217D01*
X628768Y208166D01*
X628650Y208113D01*
X628533Y208056D01*
X628418Y207996D01*
X628304Y207932D01*
X628193Y207865D01*
X628083Y207795D01*
X627976Y207721D01*
X627871Y207645D01*
X631724Y204088D02*
X631805Y204139D01*
X631885Y204193D01*
X631963Y204249D01*
X632038Y204309D01*
X632111Y204372D01*
X632181Y204438D01*
X632248Y204506D01*
X632313Y204577D01*
X632375Y204651D01*
X632434Y204727D01*
X632490Y204805D01*
X632542Y204886D01*
X632592Y204968D01*
X632638Y205053D01*
X632680Y205139D01*
X632720Y205227D01*
X632755Y205316D01*
X632787Y205407D01*
X632816Y205499D01*
X632840Y205592D01*
X632861Y205685D01*
X632878Y205780D01*
X632892Y205875D01*
X632901Y205971D01*
X632907Y206067D01*
X632909Y206163D01*
X628465Y202312D02*
X628383Y202261D01*
X628303Y202207D01*
X628225Y202151D01*
X628150Y202091D01*
X628077Y202028D01*
X628007Y201962D01*
X627940Y201894D01*
X627875Y201823D01*
X627813Y201749D01*
X627754Y201673D01*
X627698Y201595D01*
X627646Y201514D01*
X627596Y201432D01*
X627550Y201347D01*
X627508Y201261D01*
X627468Y201173D01*
X627433Y201084D01*
X627401Y200993D01*
X627372Y200901D01*
X627348Y200808D01*
X627327Y200715D01*
X627310Y200620D01*
X627296Y200525D01*
X627287Y200429D01*
X627281Y200333D01*
X627279Y200237D01*
X628464Y202311D02*
X631724Y204089D01*
X619955Y208534D02*
X619955Y197866D01*
X616992Y208534D02*
X622919Y208534D01*
X641181Y172466D02*
X644144Y172466D01*
X641181Y172466D02*
X641074Y172468D01*
X640967Y172474D01*
X640861Y172483D01*
X640755Y172497D01*
X640649Y172514D01*
X640544Y172535D01*
X640440Y172560D01*
X640337Y172589D01*
X640235Y172621D01*
X640134Y172657D01*
X640035Y172697D01*
X639937Y172740D01*
X639841Y172787D01*
X639746Y172837D01*
X639653Y172890D01*
X639563Y172947D01*
X639474Y173007D01*
X639388Y173070D01*
X639304Y173136D01*
X639222Y173206D01*
X639143Y173278D01*
X639067Y173353D01*
X638993Y173431D01*
X638923Y173511D01*
X638855Y173594D01*
X638790Y173679D01*
X638729Y173766D01*
X638670Y173856D01*
X638615Y173948D01*
X638563Y174041D01*
X638515Y174137D01*
X638470Y174234D01*
X638428Y174332D01*
X638391Y174432D01*
X638356Y174534D01*
X638326Y174636D01*
X638299Y174740D01*
X638276Y174844D01*
X638257Y174950D01*
X638242Y175056D01*
X638230Y175162D01*
X638222Y175269D01*
X638218Y175376D01*
X638218Y175482D01*
X638222Y175589D01*
X638230Y175696D01*
X638242Y175802D01*
X638257Y175908D01*
X638276Y176014D01*
X638299Y176118D01*
X638326Y176222D01*
X638356Y176324D01*
X638391Y176426D01*
X638428Y176526D01*
X638470Y176624D01*
X638515Y176721D01*
X638563Y176817D01*
X638615Y176911D01*
X638670Y177002D01*
X638729Y177092D01*
X638790Y177179D01*
X638855Y177264D01*
X638923Y177347D01*
X638993Y177427D01*
X639067Y177505D01*
X639143Y177580D01*
X639222Y177652D01*
X639304Y177722D01*
X639388Y177788D01*
X639474Y177851D01*
X639563Y177911D01*
X639653Y177968D01*
X639746Y178021D01*
X639841Y178071D01*
X639937Y178118D01*
X640035Y178161D01*
X640134Y178201D01*
X640235Y178237D01*
X640337Y178269D01*
X640440Y178298D01*
X640544Y178323D01*
X640649Y178344D01*
X640755Y178361D01*
X640861Y178375D01*
X640967Y178384D01*
X641074Y178390D01*
X641181Y178392D01*
X640588Y183134D02*
X644144Y183134D01*
X640588Y183134D02*
X640491Y183132D01*
X640395Y183126D01*
X640299Y183116D01*
X640203Y183102D01*
X640108Y183085D01*
X640013Y183063D01*
X639920Y183038D01*
X639828Y183009D01*
X639737Y182976D01*
X639647Y182939D01*
X639559Y182899D01*
X639473Y182855D01*
X639389Y182808D01*
X639306Y182758D01*
X639226Y182704D01*
X639148Y182646D01*
X639072Y182586D01*
X638999Y182523D01*
X638929Y182457D01*
X638861Y182387D01*
X638796Y182316D01*
X638734Y182241D01*
X638676Y182164D01*
X638620Y182085D01*
X638568Y182004D01*
X638519Y181920D01*
X638473Y181835D01*
X638431Y181748D01*
X638393Y181659D01*
X638358Y181569D01*
X638327Y181477D01*
X638300Y181384D01*
X638276Y181291D01*
X638257Y181196D01*
X638241Y181100D01*
X638229Y181004D01*
X638221Y180908D01*
X638217Y180811D01*
X638217Y180715D01*
X638221Y180618D01*
X638229Y180522D01*
X638241Y180426D01*
X638257Y180330D01*
X638276Y180235D01*
X638300Y180142D01*
X638327Y180049D01*
X638358Y179957D01*
X638393Y179867D01*
X638431Y179778D01*
X638473Y179691D01*
X638519Y179606D01*
X638568Y179522D01*
X638620Y179441D01*
X638676Y179362D01*
X638734Y179285D01*
X638796Y179210D01*
X638861Y179139D01*
X638929Y179069D01*
X638999Y179003D01*
X639072Y178940D01*
X639148Y178880D01*
X639226Y178822D01*
X639306Y178768D01*
X639389Y178718D01*
X639473Y178671D01*
X639559Y178627D01*
X639647Y178587D01*
X639737Y178550D01*
X639828Y178517D01*
X639920Y178488D01*
X640013Y178463D01*
X640108Y178441D01*
X640203Y178424D01*
X640299Y178410D01*
X640395Y178400D01*
X640491Y178394D01*
X640588Y178392D01*
X640588Y178393D02*
X642959Y178393D01*
X633307Y183134D02*
X629751Y172466D01*
X626195Y183134D01*
X621284Y172466D02*
X618321Y172466D01*
X618214Y172468D01*
X618107Y172474D01*
X618001Y172483D01*
X617895Y172497D01*
X617789Y172514D01*
X617684Y172535D01*
X617580Y172560D01*
X617477Y172589D01*
X617375Y172621D01*
X617274Y172657D01*
X617175Y172697D01*
X617077Y172740D01*
X616981Y172787D01*
X616886Y172837D01*
X616793Y172890D01*
X616703Y172947D01*
X616614Y173007D01*
X616528Y173070D01*
X616444Y173136D01*
X616362Y173206D01*
X616283Y173278D01*
X616207Y173353D01*
X616133Y173431D01*
X616063Y173511D01*
X615995Y173594D01*
X615930Y173679D01*
X615869Y173766D01*
X615810Y173856D01*
X615755Y173948D01*
X615703Y174041D01*
X615655Y174137D01*
X615610Y174234D01*
X615568Y174332D01*
X615531Y174432D01*
X615496Y174534D01*
X615466Y174636D01*
X615439Y174740D01*
X615416Y174844D01*
X615397Y174950D01*
X615382Y175056D01*
X615370Y175162D01*
X615362Y175269D01*
X615358Y175376D01*
X615358Y175482D01*
X615362Y175589D01*
X615370Y175696D01*
X615382Y175802D01*
X615397Y175908D01*
X615416Y176014D01*
X615439Y176118D01*
X615466Y176222D01*
X615496Y176324D01*
X615531Y176426D01*
X615568Y176526D01*
X615610Y176624D01*
X615655Y176721D01*
X615703Y176817D01*
X615755Y176911D01*
X615810Y177002D01*
X615869Y177092D01*
X615930Y177179D01*
X615995Y177264D01*
X616063Y177347D01*
X616133Y177427D01*
X616207Y177505D01*
X616283Y177580D01*
X616362Y177652D01*
X616444Y177722D01*
X616528Y177788D01*
X616614Y177851D01*
X616703Y177911D01*
X616793Y177968D01*
X616886Y178021D01*
X616981Y178071D01*
X617077Y178118D01*
X617175Y178161D01*
X617274Y178201D01*
X617375Y178237D01*
X617477Y178269D01*
X617580Y178298D01*
X617684Y178323D01*
X617789Y178344D01*
X617895Y178361D01*
X618001Y178375D01*
X618107Y178384D01*
X618214Y178390D01*
X618321Y178392D01*
X617728Y183134D02*
X621284Y183134D01*
X617728Y183134D02*
X617631Y183132D01*
X617535Y183126D01*
X617439Y183116D01*
X617343Y183102D01*
X617248Y183085D01*
X617153Y183063D01*
X617060Y183038D01*
X616968Y183009D01*
X616877Y182976D01*
X616787Y182939D01*
X616699Y182899D01*
X616613Y182855D01*
X616529Y182808D01*
X616446Y182758D01*
X616366Y182704D01*
X616288Y182646D01*
X616212Y182586D01*
X616139Y182523D01*
X616069Y182457D01*
X616001Y182387D01*
X615936Y182316D01*
X615874Y182241D01*
X615816Y182164D01*
X615760Y182085D01*
X615708Y182004D01*
X615659Y181920D01*
X615613Y181835D01*
X615571Y181748D01*
X615533Y181659D01*
X615498Y181569D01*
X615467Y181477D01*
X615440Y181384D01*
X615416Y181291D01*
X615397Y181196D01*
X615381Y181100D01*
X615369Y181004D01*
X615361Y180908D01*
X615357Y180811D01*
X615357Y180715D01*
X615361Y180618D01*
X615369Y180522D01*
X615381Y180426D01*
X615397Y180330D01*
X615416Y180235D01*
X615440Y180142D01*
X615467Y180049D01*
X615498Y179957D01*
X615533Y179867D01*
X615571Y179778D01*
X615613Y179691D01*
X615659Y179606D01*
X615708Y179522D01*
X615760Y179441D01*
X615816Y179362D01*
X615874Y179285D01*
X615936Y179210D01*
X616001Y179139D01*
X616069Y179069D01*
X616139Y179003D01*
X616212Y178940D01*
X616288Y178880D01*
X616366Y178822D01*
X616446Y178768D01*
X616529Y178718D01*
X616613Y178671D01*
X616699Y178627D01*
X616787Y178587D01*
X616877Y178550D01*
X616968Y178517D01*
X617060Y178488D01*
X617153Y178463D01*
X617248Y178441D01*
X617343Y178424D01*
X617439Y178410D01*
X617535Y178400D01*
X617631Y178394D01*
X617728Y178392D01*
X617728Y178393D02*
X620099Y178393D01*
X552281Y223266D02*
X552281Y233934D01*
X555244Y233934D02*
X549317Y233934D01*
X538057Y233934D02*
X545169Y223266D01*
X538057Y223266D02*
X545169Y233934D01*
X549317Y203793D02*
X551095Y203793D01*
X549317Y203793D02*
X549317Y197866D01*
X552873Y197866D01*
X552968Y197868D01*
X553064Y197874D01*
X553159Y197883D01*
X553253Y197897D01*
X553347Y197914D01*
X553440Y197935D01*
X553533Y197960D01*
X553624Y197988D01*
X553714Y198020D01*
X553802Y198056D01*
X553889Y198095D01*
X553975Y198138D01*
X554059Y198184D01*
X554140Y198233D01*
X554220Y198286D01*
X554297Y198342D01*
X554373Y198400D01*
X554445Y198462D01*
X554515Y198527D01*
X554583Y198595D01*
X554648Y198665D01*
X554710Y198737D01*
X554768Y198813D01*
X554824Y198890D01*
X554877Y198970D01*
X554926Y199052D01*
X554972Y199135D01*
X555015Y199221D01*
X555054Y199308D01*
X555090Y199396D01*
X555122Y199486D01*
X555150Y199577D01*
X555175Y199670D01*
X555196Y199763D01*
X555213Y199857D01*
X555227Y199951D01*
X555236Y200046D01*
X555242Y200142D01*
X555244Y200237D01*
X555244Y206163D01*
X555242Y206258D01*
X555236Y206354D01*
X555227Y206449D01*
X555213Y206543D01*
X555196Y206637D01*
X555175Y206730D01*
X555150Y206823D01*
X555122Y206914D01*
X555090Y207004D01*
X555054Y207092D01*
X555015Y207179D01*
X554972Y207265D01*
X554926Y207348D01*
X554877Y207430D01*
X554824Y207510D01*
X554768Y207587D01*
X554710Y207663D01*
X554648Y207735D01*
X554583Y207805D01*
X554515Y207873D01*
X554445Y207938D01*
X554373Y208000D01*
X554297Y208058D01*
X554220Y208114D01*
X554140Y208167D01*
X554059Y208216D01*
X553975Y208262D01*
X553889Y208305D01*
X553802Y208344D01*
X553714Y208380D01*
X553624Y208412D01*
X553533Y208440D01*
X553440Y208465D01*
X553347Y208486D01*
X553253Y208503D01*
X553159Y208517D01*
X553064Y208526D01*
X552969Y208532D01*
X552873Y208534D01*
X549317Y208534D01*
X542798Y208534D02*
X542798Y197866D01*
X542798Y208534D02*
X539835Y208534D01*
X539728Y208532D01*
X539621Y208526D01*
X539515Y208517D01*
X539409Y208503D01*
X539303Y208486D01*
X539198Y208465D01*
X539094Y208440D01*
X538991Y208411D01*
X538889Y208379D01*
X538788Y208343D01*
X538689Y208303D01*
X538591Y208260D01*
X538495Y208213D01*
X538400Y208163D01*
X538307Y208110D01*
X538217Y208053D01*
X538128Y207993D01*
X538042Y207930D01*
X537958Y207864D01*
X537876Y207794D01*
X537797Y207722D01*
X537721Y207647D01*
X537647Y207569D01*
X537577Y207489D01*
X537509Y207406D01*
X537444Y207321D01*
X537383Y207234D01*
X537324Y207144D01*
X537269Y207053D01*
X537217Y206959D01*
X537169Y206863D01*
X537124Y206766D01*
X537082Y206668D01*
X537045Y206568D01*
X537010Y206466D01*
X536980Y206364D01*
X536953Y206260D01*
X536930Y206156D01*
X536911Y206050D01*
X536896Y205944D01*
X536884Y205838D01*
X536876Y205731D01*
X536872Y205624D01*
X536872Y205518D01*
X536876Y205411D01*
X536884Y205304D01*
X536896Y205198D01*
X536911Y205092D01*
X536930Y204986D01*
X536953Y204882D01*
X536980Y204778D01*
X537010Y204676D01*
X537045Y204574D01*
X537082Y204474D01*
X537124Y204376D01*
X537169Y204279D01*
X537217Y204183D01*
X537269Y204090D01*
X537324Y203998D01*
X537383Y203908D01*
X537444Y203821D01*
X537509Y203736D01*
X537577Y203653D01*
X537647Y203573D01*
X537721Y203495D01*
X537797Y203420D01*
X537876Y203348D01*
X537958Y203278D01*
X538042Y203212D01*
X538128Y203149D01*
X538217Y203089D01*
X538307Y203032D01*
X538400Y202979D01*
X538495Y202929D01*
X538591Y202882D01*
X538689Y202839D01*
X538788Y202799D01*
X538889Y202763D01*
X538991Y202731D01*
X539094Y202702D01*
X539198Y202677D01*
X539303Y202656D01*
X539409Y202639D01*
X539515Y202625D01*
X539621Y202616D01*
X539728Y202610D01*
X539835Y202608D01*
X539835Y202607D02*
X542798Y202607D01*
X531326Y197866D02*
X531326Y208534D01*
X532511Y197866D02*
X530140Y197866D01*
X530140Y208534D02*
X532511Y208534D01*
X525145Y205571D02*
X525145Y200829D01*
X525145Y205571D02*
X525143Y205678D01*
X525137Y205785D01*
X525128Y205891D01*
X525114Y205997D01*
X525097Y206103D01*
X525076Y206208D01*
X525051Y206312D01*
X525022Y206415D01*
X524990Y206517D01*
X524954Y206618D01*
X524914Y206717D01*
X524871Y206815D01*
X524824Y206911D01*
X524774Y207006D01*
X524721Y207099D01*
X524664Y207189D01*
X524604Y207278D01*
X524541Y207364D01*
X524475Y207448D01*
X524405Y207530D01*
X524333Y207609D01*
X524258Y207685D01*
X524180Y207759D01*
X524100Y207829D01*
X524017Y207897D01*
X523932Y207962D01*
X523845Y208023D01*
X523755Y208082D01*
X523664Y208137D01*
X523570Y208189D01*
X523474Y208237D01*
X523377Y208282D01*
X523279Y208324D01*
X523179Y208361D01*
X523077Y208396D01*
X522975Y208426D01*
X522871Y208453D01*
X522767Y208476D01*
X522661Y208495D01*
X522555Y208510D01*
X522449Y208522D01*
X522342Y208530D01*
X522235Y208534D01*
X522129Y208534D01*
X522022Y208530D01*
X521915Y208522D01*
X521809Y208510D01*
X521703Y208495D01*
X521597Y208476D01*
X521493Y208453D01*
X521389Y208426D01*
X521287Y208396D01*
X521185Y208361D01*
X521085Y208324D01*
X520987Y208282D01*
X520890Y208237D01*
X520794Y208189D01*
X520701Y208137D01*
X520609Y208082D01*
X520519Y208023D01*
X520432Y207962D01*
X520347Y207897D01*
X520264Y207829D01*
X520184Y207759D01*
X520106Y207685D01*
X520031Y207609D01*
X519959Y207530D01*
X519889Y207448D01*
X519823Y207364D01*
X519760Y207278D01*
X519700Y207189D01*
X519643Y207099D01*
X519590Y207006D01*
X519540Y206911D01*
X519493Y206815D01*
X519450Y206717D01*
X519410Y206618D01*
X519374Y206517D01*
X519342Y206415D01*
X519313Y206312D01*
X519288Y206208D01*
X519267Y206103D01*
X519250Y205997D01*
X519236Y205891D01*
X519227Y205785D01*
X519221Y205678D01*
X519219Y205571D01*
X519218Y205571D02*
X519218Y200829D01*
X519219Y200829D02*
X519221Y200722D01*
X519227Y200615D01*
X519236Y200509D01*
X519250Y200403D01*
X519267Y200297D01*
X519288Y200192D01*
X519313Y200088D01*
X519342Y199985D01*
X519374Y199883D01*
X519410Y199782D01*
X519450Y199683D01*
X519493Y199585D01*
X519540Y199489D01*
X519590Y199394D01*
X519643Y199301D01*
X519700Y199211D01*
X519760Y199122D01*
X519823Y199036D01*
X519889Y198952D01*
X519959Y198870D01*
X520031Y198791D01*
X520106Y198715D01*
X520184Y198641D01*
X520264Y198571D01*
X520347Y198503D01*
X520432Y198438D01*
X520519Y198377D01*
X520609Y198318D01*
X520701Y198263D01*
X520794Y198211D01*
X520890Y198163D01*
X520987Y198118D01*
X521085Y198076D01*
X521185Y198039D01*
X521287Y198004D01*
X521389Y197974D01*
X521493Y197947D01*
X521597Y197924D01*
X521703Y197905D01*
X521809Y197890D01*
X521915Y197878D01*
X522022Y197870D01*
X522129Y197866D01*
X522235Y197866D01*
X522342Y197870D01*
X522449Y197878D01*
X522555Y197890D01*
X522661Y197905D01*
X522767Y197924D01*
X522871Y197947D01*
X522975Y197974D01*
X523077Y198004D01*
X523179Y198039D01*
X523279Y198076D01*
X523377Y198118D01*
X523474Y198163D01*
X523570Y198211D01*
X523664Y198263D01*
X523755Y198318D01*
X523845Y198377D01*
X523932Y198438D01*
X524017Y198503D01*
X524100Y198571D01*
X524180Y198641D01*
X524258Y198715D01*
X524333Y198791D01*
X524405Y198870D01*
X524475Y198952D01*
X524541Y199036D01*
X524604Y199122D01*
X524664Y199211D01*
X524721Y199301D01*
X524774Y199394D01*
X524824Y199489D01*
X524871Y199585D01*
X524914Y199683D01*
X524954Y199782D01*
X524990Y199883D01*
X525022Y199985D01*
X525051Y200088D01*
X525076Y200192D01*
X525097Y200297D01*
X525114Y200403D01*
X525128Y200509D01*
X525137Y200615D01*
X525143Y200722D01*
X525145Y200829D01*
X513715Y203200D02*
X513712Y203410D01*
X513705Y203620D01*
X513692Y203829D01*
X513675Y204038D01*
X513652Y204247D01*
X513625Y204455D01*
X513593Y204662D01*
X513555Y204869D01*
X513513Y205074D01*
X513466Y205279D01*
X513414Y205482D01*
X513357Y205684D01*
X513295Y205885D01*
X513229Y206084D01*
X513157Y206281D01*
X513081Y206477D01*
X513001Y206671D01*
X512916Y206863D01*
X512826Y207052D01*
X512795Y207137D01*
X512761Y207221D01*
X512723Y207303D01*
X512681Y207384D01*
X512636Y207463D01*
X512588Y207540D01*
X512537Y207615D01*
X512483Y207687D01*
X512426Y207758D01*
X512366Y207826D01*
X512303Y207891D01*
X512238Y207954D01*
X512170Y208014D01*
X512099Y208071D01*
X512027Y208125D01*
X511952Y208177D01*
X511875Y208225D01*
X511796Y208270D01*
X511715Y208311D01*
X511633Y208349D01*
X511549Y208384D01*
X511464Y208415D01*
X511378Y208443D01*
X511291Y208467D01*
X511202Y208487D01*
X511113Y208504D01*
X511023Y208517D01*
X510933Y208527D01*
X510843Y208532D01*
X510752Y208534D01*
X510661Y208532D01*
X510571Y208527D01*
X510481Y208517D01*
X510391Y208504D01*
X510302Y208487D01*
X510213Y208467D01*
X510126Y208443D01*
X510040Y208415D01*
X509955Y208384D01*
X509871Y208349D01*
X509789Y208311D01*
X509708Y208270D01*
X509629Y208225D01*
X509552Y208177D01*
X509477Y208126D01*
X509405Y208071D01*
X509334Y208014D01*
X509266Y207954D01*
X509201Y207891D01*
X509138Y207826D01*
X509078Y207758D01*
X509021Y207687D01*
X508967Y207615D01*
X508916Y207540D01*
X508868Y207463D01*
X508823Y207384D01*
X508781Y207303D01*
X508743Y207221D01*
X508709Y207137D01*
X508678Y207052D01*
X508588Y206863D01*
X508503Y206671D01*
X508423Y206477D01*
X508347Y206281D01*
X508275Y206084D01*
X508209Y205885D01*
X508147Y205684D01*
X508090Y205482D01*
X508038Y205279D01*
X507991Y205074D01*
X507949Y204869D01*
X507911Y204662D01*
X507879Y204455D01*
X507852Y204247D01*
X507829Y204038D01*
X507812Y203829D01*
X507799Y203620D01*
X507792Y203410D01*
X507789Y203200D01*
X513715Y203200D02*
X513712Y202990D01*
X513705Y202780D01*
X513692Y202571D01*
X513675Y202362D01*
X513652Y202153D01*
X513625Y201945D01*
X513593Y201738D01*
X513555Y201531D01*
X513513Y201326D01*
X513466Y201121D01*
X513414Y200918D01*
X513357Y200716D01*
X513295Y200515D01*
X513229Y200316D01*
X513157Y200119D01*
X513081Y199923D01*
X513001Y199729D01*
X512916Y199538D01*
X512826Y199348D01*
X512795Y199263D01*
X512761Y199179D01*
X512723Y199097D01*
X512681Y199016D01*
X512636Y198937D01*
X512588Y198860D01*
X512537Y198785D01*
X512483Y198713D01*
X512426Y198642D01*
X512366Y198574D01*
X512303Y198509D01*
X512238Y198446D01*
X512170Y198386D01*
X512099Y198329D01*
X512027Y198274D01*
X511952Y198223D01*
X511875Y198175D01*
X511796Y198130D01*
X511715Y198089D01*
X511633Y198051D01*
X511549Y198016D01*
X511464Y197985D01*
X511378Y197957D01*
X511291Y197933D01*
X511202Y197913D01*
X511113Y197896D01*
X511023Y197883D01*
X510933Y197873D01*
X510843Y197868D01*
X510752Y197866D01*
X508678Y199348D02*
X508588Y199538D01*
X508503Y199729D01*
X508423Y199923D01*
X508347Y200119D01*
X508275Y200316D01*
X508209Y200515D01*
X508147Y200716D01*
X508090Y200918D01*
X508038Y201121D01*
X507991Y201326D01*
X507949Y201531D01*
X507911Y201738D01*
X507879Y201945D01*
X507852Y202153D01*
X507829Y202362D01*
X507812Y202571D01*
X507799Y202780D01*
X507792Y202990D01*
X507789Y203200D01*
X508678Y199348D02*
X508709Y199263D01*
X508743Y199179D01*
X508782Y199097D01*
X508823Y199016D01*
X508868Y198937D01*
X508916Y198860D01*
X508967Y198785D01*
X509021Y198713D01*
X509078Y198642D01*
X509138Y198574D01*
X509201Y198509D01*
X509266Y198446D01*
X509334Y198386D01*
X509405Y198329D01*
X509477Y198274D01*
X509552Y198223D01*
X509629Y198175D01*
X509708Y198130D01*
X509789Y198089D01*
X509871Y198051D01*
X509955Y198016D01*
X510040Y197985D01*
X510126Y197957D01*
X510213Y197933D01*
X510302Y197913D01*
X510391Y197896D01*
X510481Y197883D01*
X510571Y197873D01*
X510661Y197868D01*
X510752Y197866D01*
X513122Y200237D02*
X508381Y206163D01*
X549317Y178393D02*
X551095Y178393D01*
X549317Y178393D02*
X549317Y172466D01*
X552873Y172466D01*
X552968Y172468D01*
X553064Y172474D01*
X553159Y172483D01*
X553253Y172497D01*
X553347Y172514D01*
X553440Y172535D01*
X553533Y172560D01*
X553624Y172588D01*
X553714Y172620D01*
X553802Y172656D01*
X553889Y172695D01*
X553975Y172738D01*
X554059Y172784D01*
X554140Y172833D01*
X554220Y172886D01*
X554297Y172942D01*
X554373Y173000D01*
X554445Y173062D01*
X554515Y173127D01*
X554583Y173195D01*
X554648Y173265D01*
X554710Y173337D01*
X554768Y173413D01*
X554824Y173490D01*
X554877Y173570D01*
X554926Y173652D01*
X554972Y173735D01*
X555015Y173821D01*
X555054Y173908D01*
X555090Y173996D01*
X555122Y174086D01*
X555150Y174177D01*
X555175Y174270D01*
X555196Y174363D01*
X555213Y174457D01*
X555227Y174551D01*
X555236Y174646D01*
X555242Y174742D01*
X555244Y174837D01*
X555244Y180763D01*
X555242Y180858D01*
X555236Y180954D01*
X555227Y181049D01*
X555213Y181143D01*
X555196Y181237D01*
X555175Y181330D01*
X555150Y181423D01*
X555122Y181514D01*
X555090Y181604D01*
X555054Y181692D01*
X555015Y181779D01*
X554972Y181865D01*
X554926Y181948D01*
X554877Y182030D01*
X554824Y182110D01*
X554768Y182187D01*
X554710Y182263D01*
X554648Y182335D01*
X554583Y182405D01*
X554515Y182473D01*
X554445Y182538D01*
X554373Y182600D01*
X554297Y182658D01*
X554220Y182714D01*
X554140Y182767D01*
X554059Y182816D01*
X553975Y182862D01*
X553889Y182905D01*
X553802Y182944D01*
X553714Y182980D01*
X553624Y183012D01*
X553533Y183040D01*
X553440Y183065D01*
X553347Y183086D01*
X553253Y183103D01*
X553159Y183117D01*
X553064Y183126D01*
X552969Y183132D01*
X552873Y183134D01*
X549317Y183134D01*
X543052Y183134D02*
X543052Y172466D01*
X537125Y172466D02*
X543052Y183134D01*
X537125Y183134D02*
X537125Y172466D01*
X530860Y172466D02*
X530860Y183134D01*
X527897Y183134D01*
X527789Y183132D01*
X527681Y183126D01*
X527573Y183116D01*
X527466Y183102D01*
X527359Y183085D01*
X527253Y183063D01*
X527148Y183038D01*
X527043Y183008D01*
X526940Y182975D01*
X526839Y182938D01*
X526738Y182898D01*
X526639Y182854D01*
X526542Y182806D01*
X526447Y182755D01*
X526353Y182700D01*
X526262Y182642D01*
X526173Y182581D01*
X526086Y182516D01*
X526002Y182449D01*
X525920Y182378D01*
X525840Y182304D01*
X525764Y182228D01*
X525690Y182148D01*
X525620Y182066D01*
X525552Y181982D01*
X525487Y181895D01*
X525426Y181806D01*
X525368Y181715D01*
X525313Y181621D01*
X525262Y181526D01*
X525214Y181429D01*
X525170Y181330D01*
X525130Y181229D01*
X525093Y181128D01*
X525060Y181025D01*
X525030Y180920D01*
X525005Y180815D01*
X524983Y180709D01*
X524966Y180602D01*
X524952Y180495D01*
X524942Y180387D01*
X524936Y180279D01*
X524934Y180171D01*
X524933Y180171D02*
X524933Y175429D01*
X524934Y175429D02*
X524936Y175323D01*
X524942Y175218D01*
X524951Y175112D01*
X524964Y175007D01*
X524981Y174903D01*
X525002Y174799D01*
X525026Y174696D01*
X525054Y174594D01*
X525086Y174493D01*
X525121Y174394D01*
X525160Y174295D01*
X525202Y174198D01*
X525247Y174103D01*
X525296Y174009D01*
X525349Y173917D01*
X525404Y173827D01*
X525463Y173739D01*
X525525Y173653D01*
X525590Y173570D01*
X525658Y173489D01*
X525728Y173410D01*
X525802Y173334D01*
X525878Y173260D01*
X525957Y173190D01*
X526038Y173122D01*
X526121Y173057D01*
X526207Y172995D01*
X526295Y172936D01*
X526385Y172881D01*
X526477Y172828D01*
X526571Y172779D01*
X526666Y172734D01*
X526763Y172692D01*
X526862Y172653D01*
X526961Y172618D01*
X527062Y172586D01*
X527164Y172558D01*
X527267Y172534D01*
X527371Y172513D01*
X527475Y172496D01*
X527580Y172483D01*
X527686Y172474D01*
X527791Y172468D01*
X527897Y172466D01*
X530860Y172466D01*
D11*
X434199Y140899D02*
X430601Y140899D01*
X430601Y128905D01*
X437797Y128905D01*
X437934Y128907D01*
X438071Y128913D01*
X438208Y128923D01*
X438344Y128936D01*
X438480Y128954D01*
X438615Y128975D01*
X438750Y129001D01*
X438884Y129030D01*
X439017Y129063D01*
X439149Y129099D01*
X439280Y129140D01*
X439409Y129184D01*
X439538Y129232D01*
X439665Y129283D01*
X439790Y129339D01*
X439914Y129397D01*
X440036Y129459D01*
X440156Y129525D01*
X440275Y129594D01*
X440391Y129667D01*
X440505Y129742D01*
X440617Y129821D01*
X440727Y129903D01*
X440834Y129989D01*
X440939Y130077D01*
X441041Y130168D01*
X441141Y130262D01*
X441238Y130359D01*
X441332Y130459D01*
X441423Y130561D01*
X441511Y130666D01*
X441597Y130773D01*
X441679Y130883D01*
X441758Y130995D01*
X441833Y131109D01*
X441906Y131225D01*
X441975Y131344D01*
X442041Y131464D01*
X442103Y131586D01*
X442161Y131710D01*
X442217Y131835D01*
X442268Y131962D01*
X442316Y132091D01*
X442360Y132220D01*
X442401Y132351D01*
X442437Y132483D01*
X442470Y132616D01*
X442499Y132750D01*
X442525Y132885D01*
X442546Y133020D01*
X442564Y133156D01*
X442577Y133292D01*
X442587Y133429D01*
X442593Y133566D01*
X442595Y133703D01*
X442595Y145697D01*
X442593Y145834D01*
X442587Y145971D01*
X442577Y146108D01*
X442564Y146244D01*
X442546Y146380D01*
X442525Y146515D01*
X442499Y146650D01*
X442470Y146784D01*
X442437Y146917D01*
X442401Y147049D01*
X442360Y147180D01*
X442316Y147309D01*
X442268Y147438D01*
X442217Y147565D01*
X442161Y147690D01*
X442103Y147814D01*
X442041Y147936D01*
X441975Y148056D01*
X441906Y148175D01*
X441833Y148291D01*
X441758Y148405D01*
X441679Y148517D01*
X441597Y148627D01*
X441511Y148734D01*
X441423Y148839D01*
X441332Y148941D01*
X441238Y149041D01*
X441141Y149138D01*
X441041Y149232D01*
X440939Y149323D01*
X440834Y149411D01*
X440727Y149497D01*
X440617Y149579D01*
X440505Y149658D01*
X440391Y149733D01*
X440275Y149806D01*
X440156Y149875D01*
X440036Y149941D01*
X439914Y150003D01*
X439790Y150061D01*
X439665Y150117D01*
X439538Y150168D01*
X439409Y150216D01*
X439280Y150260D01*
X439149Y150301D01*
X439017Y150337D01*
X438884Y150370D01*
X438750Y150399D01*
X438615Y150425D01*
X438480Y150446D01*
X438344Y150464D01*
X438208Y150477D01*
X438071Y150487D01*
X437934Y150493D01*
X437797Y150495D01*
X430601Y150495D01*
X417119Y137301D02*
X411722Y137301D01*
X417119Y137301D02*
X417247Y137299D01*
X417375Y137293D01*
X417503Y137283D01*
X417630Y137270D01*
X417757Y137252D01*
X417883Y137231D01*
X418009Y137206D01*
X418133Y137177D01*
X418257Y137144D01*
X418380Y137107D01*
X418501Y137067D01*
X418621Y137023D01*
X418740Y136975D01*
X418858Y136924D01*
X418973Y136869D01*
X419087Y136811D01*
X419199Y136749D01*
X419310Y136684D01*
X419418Y136616D01*
X419524Y136544D01*
X419628Y136469D01*
X419729Y136391D01*
X419828Y136310D01*
X419925Y136226D01*
X420019Y136139D01*
X420110Y136049D01*
X420198Y135956D01*
X420284Y135861D01*
X420367Y135763D01*
X420446Y135663D01*
X420523Y135560D01*
X420596Y135455D01*
X420666Y135348D01*
X420733Y135239D01*
X420797Y135128D01*
X420857Y135015D01*
X420913Y134900D01*
X420966Y134783D01*
X421016Y134665D01*
X421061Y134545D01*
X421104Y134425D01*
X421142Y134302D01*
X421177Y134179D01*
X421208Y134055D01*
X421235Y133930D01*
X421258Y133804D01*
X421278Y133677D01*
X421293Y133550D01*
X421305Y133423D01*
X421313Y133295D01*
X421317Y133167D01*
X421317Y133039D01*
X421313Y132911D01*
X421305Y132783D01*
X421293Y132656D01*
X421278Y132529D01*
X421258Y132402D01*
X421235Y132276D01*
X421208Y132151D01*
X421177Y132027D01*
X421142Y131904D01*
X421104Y131781D01*
X421061Y131661D01*
X421016Y131541D01*
X420966Y131423D01*
X420913Y131306D01*
X420857Y131191D01*
X420797Y131078D01*
X420733Y130967D01*
X420666Y130858D01*
X420596Y130751D01*
X420523Y130646D01*
X420446Y130543D01*
X420367Y130443D01*
X420284Y130345D01*
X420198Y130250D01*
X420110Y130157D01*
X420019Y130067D01*
X419925Y129980D01*
X419828Y129896D01*
X419729Y129815D01*
X419628Y129737D01*
X419524Y129662D01*
X419418Y129590D01*
X419310Y129522D01*
X419199Y129457D01*
X419087Y129395D01*
X418973Y129337D01*
X418858Y129282D01*
X418740Y129231D01*
X418621Y129183D01*
X418501Y129139D01*
X418380Y129099D01*
X418257Y129062D01*
X418133Y129029D01*
X418009Y129000D01*
X417883Y128975D01*
X417757Y128954D01*
X417630Y128936D01*
X417503Y128923D01*
X417375Y128913D01*
X417247Y128907D01*
X417119Y128905D01*
X411722Y128905D01*
X411722Y139700D01*
X411724Y139818D01*
X411730Y139935D01*
X411739Y140053D01*
X411753Y140170D01*
X411770Y140286D01*
X411791Y140402D01*
X411816Y140517D01*
X411845Y140631D01*
X411877Y140744D01*
X411913Y140857D01*
X411953Y140967D01*
X411996Y141077D01*
X412043Y141185D01*
X412093Y141291D01*
X412147Y141396D01*
X412204Y141499D01*
X412265Y141600D01*
X412328Y141699D01*
X412395Y141796D01*
X412466Y141890D01*
X412539Y141983D01*
X412615Y142072D01*
X412694Y142160D01*
X412776Y142244D01*
X412860Y142326D01*
X412948Y142405D01*
X413037Y142481D01*
X413130Y142554D01*
X413224Y142625D01*
X413321Y142692D01*
X413420Y142755D01*
X413521Y142816D01*
X413624Y142873D01*
X413729Y142927D01*
X413835Y142977D01*
X413943Y143024D01*
X414053Y143067D01*
X414163Y143107D01*
X414276Y143143D01*
X414389Y143175D01*
X414503Y143204D01*
X414618Y143229D01*
X414734Y143250D01*
X414850Y143267D01*
X414967Y143281D01*
X415085Y143290D01*
X415202Y143296D01*
X415320Y143298D01*
X420118Y143298D01*
X401595Y143298D02*
X401595Y128905D01*
X401595Y143298D02*
X394398Y143298D01*
X394398Y140899D01*
X383713Y137301D02*
X378316Y137301D01*
X383713Y137301D02*
X383841Y137299D01*
X383969Y137293D01*
X384097Y137283D01*
X384224Y137270D01*
X384351Y137252D01*
X384477Y137231D01*
X384603Y137206D01*
X384727Y137177D01*
X384851Y137144D01*
X384974Y137107D01*
X385095Y137067D01*
X385215Y137023D01*
X385334Y136975D01*
X385452Y136924D01*
X385567Y136869D01*
X385681Y136811D01*
X385793Y136749D01*
X385904Y136684D01*
X386012Y136616D01*
X386118Y136544D01*
X386222Y136469D01*
X386323Y136391D01*
X386422Y136310D01*
X386519Y136226D01*
X386613Y136139D01*
X386704Y136049D01*
X386792Y135956D01*
X386878Y135861D01*
X386961Y135763D01*
X387040Y135663D01*
X387117Y135560D01*
X387190Y135455D01*
X387260Y135348D01*
X387327Y135239D01*
X387391Y135128D01*
X387451Y135015D01*
X387507Y134900D01*
X387560Y134783D01*
X387610Y134665D01*
X387655Y134545D01*
X387698Y134425D01*
X387736Y134302D01*
X387771Y134179D01*
X387802Y134055D01*
X387829Y133930D01*
X387852Y133804D01*
X387872Y133677D01*
X387887Y133550D01*
X387899Y133423D01*
X387907Y133295D01*
X387911Y133167D01*
X387911Y133039D01*
X387907Y132911D01*
X387899Y132783D01*
X387887Y132656D01*
X387872Y132529D01*
X387852Y132402D01*
X387829Y132276D01*
X387802Y132151D01*
X387771Y132027D01*
X387736Y131904D01*
X387698Y131781D01*
X387655Y131661D01*
X387610Y131541D01*
X387560Y131423D01*
X387507Y131306D01*
X387451Y131191D01*
X387391Y131078D01*
X387327Y130967D01*
X387260Y130858D01*
X387190Y130751D01*
X387117Y130646D01*
X387040Y130543D01*
X386961Y130443D01*
X386878Y130345D01*
X386792Y130250D01*
X386704Y130157D01*
X386613Y130067D01*
X386519Y129980D01*
X386422Y129896D01*
X386323Y129815D01*
X386222Y129737D01*
X386118Y129662D01*
X386012Y129590D01*
X385904Y129522D01*
X385793Y129457D01*
X385681Y129395D01*
X385567Y129337D01*
X385452Y129282D01*
X385334Y129231D01*
X385215Y129183D01*
X385095Y129139D01*
X384974Y129099D01*
X384851Y129062D01*
X384727Y129029D01*
X384603Y129000D01*
X384477Y128975D01*
X384351Y128954D01*
X384224Y128936D01*
X384097Y128923D01*
X383969Y128913D01*
X383841Y128907D01*
X383713Y128905D01*
X378316Y128905D01*
X378316Y139700D01*
X378318Y139818D01*
X378324Y139935D01*
X378333Y140053D01*
X378347Y140170D01*
X378364Y140286D01*
X378385Y140402D01*
X378410Y140517D01*
X378439Y140631D01*
X378471Y140744D01*
X378507Y140857D01*
X378547Y140967D01*
X378590Y141077D01*
X378637Y141185D01*
X378687Y141291D01*
X378741Y141396D01*
X378798Y141499D01*
X378859Y141600D01*
X378922Y141699D01*
X378989Y141796D01*
X379060Y141890D01*
X379133Y141983D01*
X379209Y142072D01*
X379288Y142160D01*
X379370Y142244D01*
X379454Y142326D01*
X379542Y142405D01*
X379631Y142481D01*
X379724Y142554D01*
X379818Y142625D01*
X379915Y142692D01*
X380014Y142755D01*
X380115Y142816D01*
X380218Y142873D01*
X380323Y142927D01*
X380429Y142977D01*
X380537Y143024D01*
X380647Y143067D01*
X380757Y143107D01*
X380870Y143143D01*
X380983Y143175D01*
X381097Y143204D01*
X381212Y143229D01*
X381328Y143250D01*
X381444Y143267D01*
X381561Y143281D01*
X381679Y143290D01*
X381796Y143296D01*
X381914Y143298D01*
X386712Y143298D01*
X365522Y128905D02*
X359525Y128905D01*
X365522Y128905D02*
X365640Y128907D01*
X365757Y128913D01*
X365875Y128922D01*
X365992Y128936D01*
X366108Y128953D01*
X366224Y128974D01*
X366339Y128999D01*
X366453Y129028D01*
X366566Y129060D01*
X366679Y129096D01*
X366789Y129136D01*
X366899Y129179D01*
X367007Y129226D01*
X367113Y129276D01*
X367218Y129330D01*
X367321Y129387D01*
X367422Y129448D01*
X367521Y129511D01*
X367618Y129578D01*
X367712Y129649D01*
X367805Y129722D01*
X367894Y129798D01*
X367982Y129877D01*
X368066Y129959D01*
X368148Y130043D01*
X368227Y130131D01*
X368303Y130220D01*
X368376Y130313D01*
X368447Y130407D01*
X368514Y130504D01*
X368577Y130603D01*
X368638Y130704D01*
X368695Y130807D01*
X368749Y130912D01*
X368799Y131018D01*
X368846Y131126D01*
X368889Y131236D01*
X368929Y131346D01*
X368965Y131459D01*
X368997Y131572D01*
X369026Y131686D01*
X369051Y131801D01*
X369072Y131917D01*
X369089Y132033D01*
X369103Y132150D01*
X369112Y132268D01*
X369118Y132385D01*
X369120Y132503D01*
X369121Y132503D02*
X369121Y139700D01*
X369120Y139700D02*
X369118Y139818D01*
X369112Y139935D01*
X369103Y140053D01*
X369089Y140170D01*
X369072Y140286D01*
X369051Y140402D01*
X369026Y140517D01*
X368997Y140631D01*
X368965Y140744D01*
X368929Y140857D01*
X368889Y140967D01*
X368846Y141077D01*
X368799Y141185D01*
X368749Y141291D01*
X368695Y141396D01*
X368638Y141499D01*
X368577Y141600D01*
X368514Y141699D01*
X368447Y141796D01*
X368376Y141890D01*
X368303Y141983D01*
X368227Y142072D01*
X368148Y142160D01*
X368066Y142244D01*
X367982Y142326D01*
X367894Y142405D01*
X367805Y142481D01*
X367712Y142554D01*
X367618Y142625D01*
X367521Y142692D01*
X367422Y142755D01*
X367321Y142816D01*
X367218Y142873D01*
X367113Y142927D01*
X367007Y142977D01*
X366899Y143024D01*
X366789Y143067D01*
X366679Y143107D01*
X366566Y143143D01*
X366453Y143175D01*
X366339Y143204D01*
X366224Y143229D01*
X366108Y143250D01*
X365992Y143267D01*
X365875Y143281D01*
X365757Y143290D01*
X365640Y143296D01*
X365522Y143298D01*
X359525Y143298D01*
X359525Y125307D01*
X359527Y125189D01*
X359533Y125072D01*
X359542Y124954D01*
X359556Y124837D01*
X359573Y124721D01*
X359594Y124605D01*
X359619Y124490D01*
X359648Y124376D01*
X359680Y124263D01*
X359716Y124150D01*
X359756Y124040D01*
X359799Y123930D01*
X359846Y123822D01*
X359896Y123716D01*
X359950Y123611D01*
X360007Y123508D01*
X360068Y123407D01*
X360131Y123308D01*
X360198Y123211D01*
X360268Y123117D01*
X360342Y123024D01*
X360418Y122935D01*
X360497Y122847D01*
X360579Y122763D01*
X360663Y122681D01*
X360751Y122602D01*
X360840Y122526D01*
X360933Y122453D01*
X361027Y122382D01*
X361124Y122315D01*
X361223Y122252D01*
X361324Y122191D01*
X361427Y122134D01*
X361532Y122080D01*
X361638Y122030D01*
X361746Y121983D01*
X361856Y121940D01*
X361966Y121900D01*
X362079Y121864D01*
X362192Y121832D01*
X362306Y121803D01*
X362421Y121778D01*
X362537Y121757D01*
X362653Y121740D01*
X362770Y121726D01*
X362888Y121717D01*
X363005Y121711D01*
X363123Y121709D01*
X363123Y121708D02*
X367921Y121708D01*
X346627Y128905D02*
X340629Y128905D01*
X346627Y128905D02*
X346745Y128907D01*
X346862Y128913D01*
X346980Y128922D01*
X347097Y128936D01*
X347213Y128953D01*
X347329Y128974D01*
X347444Y128999D01*
X347558Y129028D01*
X347671Y129060D01*
X347784Y129096D01*
X347894Y129136D01*
X348004Y129179D01*
X348112Y129226D01*
X348218Y129276D01*
X348323Y129330D01*
X348426Y129387D01*
X348527Y129448D01*
X348626Y129511D01*
X348723Y129578D01*
X348817Y129649D01*
X348910Y129722D01*
X348999Y129798D01*
X349087Y129877D01*
X349171Y129959D01*
X349253Y130043D01*
X349332Y130131D01*
X349408Y130220D01*
X349481Y130313D01*
X349552Y130407D01*
X349619Y130504D01*
X349682Y130603D01*
X349743Y130704D01*
X349800Y130807D01*
X349854Y130912D01*
X349904Y131018D01*
X349951Y131126D01*
X349994Y131236D01*
X350034Y131346D01*
X350070Y131459D01*
X350102Y131572D01*
X350131Y131686D01*
X350156Y131801D01*
X350177Y131917D01*
X350194Y132033D01*
X350208Y132150D01*
X350217Y132268D01*
X350223Y132385D01*
X350225Y132503D01*
X350225Y138501D01*
X350223Y138639D01*
X350217Y138777D01*
X350207Y138915D01*
X350193Y139053D01*
X350175Y139190D01*
X350153Y139327D01*
X350128Y139462D01*
X350098Y139598D01*
X350064Y139732D01*
X350027Y139865D01*
X349986Y139997D01*
X349941Y140128D01*
X349892Y140257D01*
X349840Y140385D01*
X349784Y140511D01*
X349724Y140636D01*
X349660Y140759D01*
X349594Y140880D01*
X349523Y140999D01*
X349450Y141116D01*
X349373Y141231D01*
X349292Y141344D01*
X349209Y141454D01*
X349122Y141561D01*
X349032Y141667D01*
X348940Y141769D01*
X348844Y141869D01*
X348746Y141966D01*
X348644Y142060D01*
X348540Y142152D01*
X348434Y142240D01*
X348325Y142325D01*
X348214Y142407D01*
X348100Y142486D01*
X347984Y142561D01*
X347866Y142633D01*
X347746Y142702D01*
X347624Y142767D01*
X347500Y142828D01*
X347374Y142886D01*
X347247Y142940D01*
X347118Y142991D01*
X346988Y143038D01*
X346857Y143081D01*
X346724Y143120D01*
X346591Y143156D01*
X346456Y143187D01*
X346321Y143215D01*
X346184Y143239D01*
X346048Y143259D01*
X345910Y143275D01*
X345772Y143287D01*
X345634Y143295D01*
X345496Y143299D01*
X345358Y143299D01*
X345220Y143295D01*
X345082Y143287D01*
X344944Y143275D01*
X344806Y143259D01*
X344670Y143239D01*
X344533Y143215D01*
X344398Y143187D01*
X344263Y143156D01*
X344130Y143120D01*
X343997Y143081D01*
X343866Y143038D01*
X343736Y142991D01*
X343607Y142940D01*
X343480Y142886D01*
X343354Y142828D01*
X343230Y142767D01*
X343108Y142702D01*
X342988Y142633D01*
X342870Y142561D01*
X342754Y142486D01*
X342640Y142407D01*
X342529Y142325D01*
X342420Y142240D01*
X342314Y142152D01*
X342210Y142060D01*
X342108Y141966D01*
X342010Y141869D01*
X341914Y141769D01*
X341822Y141667D01*
X341732Y141561D01*
X341645Y141454D01*
X341562Y141344D01*
X341481Y141231D01*
X341404Y141116D01*
X341331Y140999D01*
X341260Y140880D01*
X341194Y140759D01*
X341130Y140636D01*
X341070Y140511D01*
X341014Y140385D01*
X340962Y140257D01*
X340913Y140128D01*
X340868Y139997D01*
X340827Y139865D01*
X340790Y139732D01*
X340756Y139598D01*
X340726Y139462D01*
X340701Y139327D01*
X340679Y139190D01*
X340661Y139053D01*
X340647Y138915D01*
X340637Y138777D01*
X340631Y138639D01*
X340629Y138501D01*
X340629Y136102D01*
X350225Y136102D01*
X332826Y126506D02*
X323231Y126506D01*
X314539Y128905D02*
X314539Y150495D01*
X308541Y150495D01*
X308389Y150493D01*
X308237Y150487D01*
X308086Y150478D01*
X307934Y150464D01*
X307783Y150447D01*
X307633Y150426D01*
X307483Y150401D01*
X307334Y150372D01*
X307185Y150340D01*
X307038Y150304D01*
X306891Y150264D01*
X306746Y150220D01*
X306601Y150173D01*
X306458Y150122D01*
X306316Y150067D01*
X306176Y150009D01*
X306037Y149947D01*
X305900Y149882D01*
X305764Y149814D01*
X305631Y149741D01*
X305499Y149666D01*
X305369Y149587D01*
X305241Y149505D01*
X305115Y149420D01*
X304992Y149332D01*
X304870Y149240D01*
X304751Y149146D01*
X304635Y149048D01*
X304521Y148948D01*
X304409Y148845D01*
X304300Y148739D01*
X304194Y148630D01*
X304091Y148518D01*
X303991Y148404D01*
X303893Y148288D01*
X303799Y148169D01*
X303707Y148047D01*
X303619Y147924D01*
X303534Y147798D01*
X303452Y147670D01*
X303373Y147540D01*
X303298Y147408D01*
X303225Y147275D01*
X303157Y147139D01*
X303092Y147002D01*
X303030Y146863D01*
X302972Y146723D01*
X302917Y146581D01*
X302866Y146438D01*
X302819Y146293D01*
X302775Y146148D01*
X302735Y146001D01*
X302699Y145854D01*
X302667Y145705D01*
X302638Y145556D01*
X302613Y145406D01*
X302592Y145256D01*
X302575Y145105D01*
X302561Y144953D01*
X302552Y144802D01*
X302546Y144650D01*
X302544Y144498D01*
X302544Y134902D01*
X302546Y134750D01*
X302552Y134598D01*
X302561Y134447D01*
X302575Y134295D01*
X302592Y134144D01*
X302613Y133994D01*
X302638Y133844D01*
X302667Y133695D01*
X302699Y133546D01*
X302735Y133399D01*
X302775Y133252D01*
X302819Y133107D01*
X302866Y132962D01*
X302917Y132819D01*
X302972Y132677D01*
X303030Y132537D01*
X303092Y132398D01*
X303157Y132261D01*
X303225Y132125D01*
X303298Y131992D01*
X303373Y131860D01*
X303452Y131730D01*
X303534Y131602D01*
X303619Y131476D01*
X303707Y131353D01*
X303799Y131231D01*
X303893Y131112D01*
X303991Y130996D01*
X304091Y130882D01*
X304194Y130770D01*
X304300Y130661D01*
X304409Y130555D01*
X304521Y130452D01*
X304635Y130352D01*
X304751Y130254D01*
X304870Y130160D01*
X304992Y130068D01*
X305115Y129980D01*
X305241Y129895D01*
X305369Y129813D01*
X305499Y129734D01*
X305631Y129659D01*
X305764Y129586D01*
X305900Y129518D01*
X306037Y129453D01*
X306176Y129391D01*
X306316Y129333D01*
X306458Y129278D01*
X306601Y129227D01*
X306746Y129180D01*
X306891Y129136D01*
X307038Y129096D01*
X307185Y129060D01*
X307334Y129028D01*
X307483Y128999D01*
X307633Y128974D01*
X307783Y128953D01*
X307934Y128936D01*
X308086Y128922D01*
X308237Y128913D01*
X308389Y128907D01*
X308541Y128905D01*
X314539Y128905D01*
X293156Y133703D02*
X293156Y138501D01*
X293157Y138501D02*
X293155Y138639D01*
X293149Y138777D01*
X293139Y138915D01*
X293125Y139053D01*
X293107Y139190D01*
X293085Y139327D01*
X293060Y139462D01*
X293030Y139598D01*
X292996Y139732D01*
X292959Y139865D01*
X292918Y139997D01*
X292873Y140128D01*
X292824Y140257D01*
X292772Y140385D01*
X292716Y140511D01*
X292656Y140636D01*
X292592Y140759D01*
X292526Y140880D01*
X292455Y140999D01*
X292382Y141116D01*
X292305Y141231D01*
X292224Y141344D01*
X292141Y141454D01*
X292054Y141561D01*
X291964Y141667D01*
X291872Y141769D01*
X291776Y141869D01*
X291678Y141966D01*
X291576Y142060D01*
X291472Y142152D01*
X291366Y142240D01*
X291257Y142325D01*
X291146Y142407D01*
X291032Y142486D01*
X290916Y142561D01*
X290798Y142633D01*
X290678Y142702D01*
X290556Y142767D01*
X290432Y142828D01*
X290306Y142886D01*
X290179Y142940D01*
X290050Y142991D01*
X289920Y143038D01*
X289789Y143081D01*
X289656Y143120D01*
X289523Y143156D01*
X289388Y143187D01*
X289253Y143215D01*
X289116Y143239D01*
X288980Y143259D01*
X288842Y143275D01*
X288704Y143287D01*
X288566Y143295D01*
X288428Y143299D01*
X288290Y143299D01*
X288152Y143295D01*
X288014Y143287D01*
X287876Y143275D01*
X287738Y143259D01*
X287602Y143239D01*
X287465Y143215D01*
X287330Y143187D01*
X287195Y143156D01*
X287062Y143120D01*
X286929Y143081D01*
X286798Y143038D01*
X286668Y142991D01*
X286539Y142940D01*
X286412Y142886D01*
X286286Y142828D01*
X286162Y142767D01*
X286040Y142702D01*
X285920Y142633D01*
X285802Y142561D01*
X285686Y142486D01*
X285572Y142407D01*
X285461Y142325D01*
X285352Y142240D01*
X285246Y142152D01*
X285142Y142060D01*
X285040Y141966D01*
X284942Y141869D01*
X284846Y141769D01*
X284754Y141667D01*
X284664Y141561D01*
X284577Y141454D01*
X284494Y141344D01*
X284413Y141231D01*
X284336Y141116D01*
X284263Y140999D01*
X284192Y140880D01*
X284126Y140759D01*
X284062Y140636D01*
X284002Y140511D01*
X283946Y140385D01*
X283894Y140257D01*
X283845Y140128D01*
X283800Y139997D01*
X283759Y139865D01*
X283722Y139732D01*
X283688Y139598D01*
X283658Y139462D01*
X283633Y139327D01*
X283611Y139190D01*
X283593Y139053D01*
X283579Y138915D01*
X283569Y138777D01*
X283563Y138639D01*
X283561Y138501D01*
X283561Y133703D01*
X283563Y133565D01*
X283569Y133427D01*
X283579Y133289D01*
X283593Y133151D01*
X283611Y133014D01*
X283633Y132877D01*
X283658Y132742D01*
X283688Y132606D01*
X283722Y132472D01*
X283759Y132339D01*
X283800Y132207D01*
X283845Y132076D01*
X283894Y131947D01*
X283946Y131819D01*
X284002Y131693D01*
X284062Y131568D01*
X284126Y131445D01*
X284192Y131324D01*
X284263Y131205D01*
X284336Y131088D01*
X284413Y130973D01*
X284494Y130860D01*
X284577Y130750D01*
X284664Y130643D01*
X284754Y130537D01*
X284846Y130435D01*
X284942Y130335D01*
X285040Y130238D01*
X285142Y130144D01*
X285246Y130052D01*
X285352Y129964D01*
X285461Y129879D01*
X285572Y129797D01*
X285686Y129718D01*
X285802Y129643D01*
X285920Y129571D01*
X286040Y129502D01*
X286162Y129437D01*
X286286Y129376D01*
X286412Y129318D01*
X286539Y129264D01*
X286668Y129213D01*
X286798Y129166D01*
X286929Y129123D01*
X287062Y129084D01*
X287195Y129048D01*
X287330Y129017D01*
X287465Y128989D01*
X287602Y128965D01*
X287738Y128945D01*
X287876Y128929D01*
X288014Y128917D01*
X288152Y128909D01*
X288290Y128905D01*
X288428Y128905D01*
X288566Y128909D01*
X288704Y128917D01*
X288842Y128929D01*
X288980Y128945D01*
X289116Y128965D01*
X289253Y128989D01*
X289388Y129017D01*
X289523Y129048D01*
X289656Y129084D01*
X289789Y129123D01*
X289920Y129166D01*
X290050Y129213D01*
X290179Y129264D01*
X290306Y129318D01*
X290432Y129376D01*
X290556Y129437D01*
X290678Y129502D01*
X290798Y129571D01*
X290916Y129643D01*
X291032Y129718D01*
X291146Y129797D01*
X291257Y129879D01*
X291366Y129964D01*
X291472Y130052D01*
X291576Y130144D01*
X291678Y130238D01*
X291776Y130335D01*
X291872Y130435D01*
X291964Y130537D01*
X292054Y130643D01*
X292141Y130750D01*
X292224Y130860D01*
X292305Y130973D01*
X292382Y131088D01*
X292455Y131205D01*
X292526Y131324D01*
X292592Y131445D01*
X292656Y131568D01*
X292716Y131693D01*
X292772Y131819D01*
X292824Y131947D01*
X292873Y132076D01*
X292918Y132207D01*
X292959Y132339D01*
X292996Y132472D01*
X293030Y132606D01*
X293060Y132742D01*
X293085Y132877D01*
X293107Y133014D01*
X293125Y133151D01*
X293139Y133289D01*
X293149Y133427D01*
X293155Y133565D01*
X293157Y133703D01*
X275062Y133703D02*
X275062Y138501D01*
X275060Y138639D01*
X275054Y138777D01*
X275044Y138915D01*
X275030Y139053D01*
X275012Y139190D01*
X274990Y139327D01*
X274965Y139462D01*
X274935Y139598D01*
X274901Y139732D01*
X274864Y139865D01*
X274823Y139997D01*
X274778Y140128D01*
X274729Y140257D01*
X274677Y140385D01*
X274621Y140511D01*
X274561Y140636D01*
X274497Y140759D01*
X274431Y140880D01*
X274360Y140999D01*
X274287Y141116D01*
X274210Y141231D01*
X274129Y141344D01*
X274046Y141454D01*
X273959Y141561D01*
X273869Y141667D01*
X273777Y141769D01*
X273681Y141869D01*
X273583Y141966D01*
X273481Y142060D01*
X273377Y142152D01*
X273271Y142240D01*
X273162Y142325D01*
X273051Y142407D01*
X272937Y142486D01*
X272821Y142561D01*
X272703Y142633D01*
X272583Y142702D01*
X272461Y142767D01*
X272337Y142828D01*
X272211Y142886D01*
X272084Y142940D01*
X271955Y142991D01*
X271825Y143038D01*
X271694Y143081D01*
X271561Y143120D01*
X271428Y143156D01*
X271293Y143187D01*
X271158Y143215D01*
X271021Y143239D01*
X270885Y143259D01*
X270747Y143275D01*
X270609Y143287D01*
X270471Y143295D01*
X270333Y143299D01*
X270195Y143299D01*
X270057Y143295D01*
X269919Y143287D01*
X269781Y143275D01*
X269643Y143259D01*
X269507Y143239D01*
X269370Y143215D01*
X269235Y143187D01*
X269100Y143156D01*
X268967Y143120D01*
X268834Y143081D01*
X268703Y143038D01*
X268573Y142991D01*
X268444Y142940D01*
X268317Y142886D01*
X268191Y142828D01*
X268067Y142767D01*
X267945Y142702D01*
X267825Y142633D01*
X267707Y142561D01*
X267591Y142486D01*
X267477Y142407D01*
X267366Y142325D01*
X267257Y142240D01*
X267151Y142152D01*
X267047Y142060D01*
X266945Y141966D01*
X266847Y141869D01*
X266751Y141769D01*
X266659Y141667D01*
X266569Y141561D01*
X266482Y141454D01*
X266399Y141344D01*
X266318Y141231D01*
X266241Y141116D01*
X266168Y140999D01*
X266097Y140880D01*
X266031Y140759D01*
X265967Y140636D01*
X265907Y140511D01*
X265851Y140385D01*
X265799Y140257D01*
X265750Y140128D01*
X265705Y139997D01*
X265664Y139865D01*
X265627Y139732D01*
X265593Y139598D01*
X265563Y139462D01*
X265538Y139327D01*
X265516Y139190D01*
X265498Y139053D01*
X265484Y138915D01*
X265474Y138777D01*
X265468Y138639D01*
X265466Y138501D01*
X265466Y133703D01*
X265468Y133565D01*
X265474Y133427D01*
X265484Y133289D01*
X265498Y133151D01*
X265516Y133014D01*
X265538Y132877D01*
X265563Y132742D01*
X265593Y132606D01*
X265627Y132472D01*
X265664Y132339D01*
X265705Y132207D01*
X265750Y132076D01*
X265799Y131947D01*
X265851Y131819D01*
X265907Y131693D01*
X265967Y131568D01*
X266031Y131445D01*
X266097Y131324D01*
X266168Y131205D01*
X266241Y131088D01*
X266318Y130973D01*
X266399Y130860D01*
X266482Y130750D01*
X266569Y130643D01*
X266659Y130537D01*
X266751Y130435D01*
X266847Y130335D01*
X266945Y130238D01*
X267047Y130144D01*
X267151Y130052D01*
X267257Y129964D01*
X267366Y129879D01*
X267477Y129797D01*
X267591Y129718D01*
X267707Y129643D01*
X267825Y129571D01*
X267945Y129502D01*
X268067Y129437D01*
X268191Y129376D01*
X268317Y129318D01*
X268444Y129264D01*
X268573Y129213D01*
X268703Y129166D01*
X268834Y129123D01*
X268967Y129084D01*
X269100Y129048D01*
X269235Y129017D01*
X269370Y128989D01*
X269507Y128965D01*
X269643Y128945D01*
X269781Y128929D01*
X269919Y128917D01*
X270057Y128909D01*
X270195Y128905D01*
X270333Y128905D01*
X270471Y128909D01*
X270609Y128917D01*
X270747Y128929D01*
X270885Y128945D01*
X271021Y128965D01*
X271158Y128989D01*
X271293Y129017D01*
X271428Y129048D01*
X271561Y129084D01*
X271694Y129123D01*
X271825Y129166D01*
X271955Y129213D01*
X272084Y129264D01*
X272211Y129318D01*
X272337Y129376D01*
X272461Y129437D01*
X272583Y129502D01*
X272703Y129571D01*
X272821Y129643D01*
X272937Y129718D01*
X273051Y129797D01*
X273162Y129879D01*
X273271Y129964D01*
X273377Y130052D01*
X273481Y130144D01*
X273583Y130238D01*
X273681Y130335D01*
X273777Y130435D01*
X273869Y130537D01*
X273959Y130643D01*
X274046Y130750D01*
X274129Y130860D01*
X274210Y130973D01*
X274287Y131088D01*
X274360Y131205D01*
X274431Y131324D01*
X274497Y131445D01*
X274561Y131568D01*
X274621Y131693D01*
X274677Y131819D01*
X274729Y131947D01*
X274778Y132076D01*
X274823Y132207D01*
X274864Y132339D01*
X274901Y132472D01*
X274935Y132606D01*
X274965Y132742D01*
X274990Y132877D01*
X275012Y133014D01*
X275030Y133151D01*
X275044Y133289D01*
X275054Y133427D01*
X275060Y133565D01*
X275062Y133703D01*
X256139Y128905D02*
X256139Y143298D01*
X248943Y143298D01*
X248943Y140899D01*
X243047Y126506D02*
X233452Y126506D01*
X218955Y128905D02*
X218818Y128907D01*
X218681Y128913D01*
X218544Y128923D01*
X218408Y128936D01*
X218272Y128954D01*
X218137Y128975D01*
X218002Y129001D01*
X217868Y129030D01*
X217735Y129063D01*
X217603Y129099D01*
X217472Y129140D01*
X217343Y129184D01*
X217214Y129232D01*
X217087Y129283D01*
X216962Y129339D01*
X216838Y129397D01*
X216716Y129459D01*
X216596Y129525D01*
X216477Y129594D01*
X216361Y129667D01*
X216247Y129742D01*
X216135Y129821D01*
X216025Y129903D01*
X215918Y129989D01*
X215813Y130077D01*
X215711Y130168D01*
X215611Y130262D01*
X215514Y130359D01*
X215420Y130459D01*
X215329Y130561D01*
X215241Y130666D01*
X215155Y130773D01*
X215073Y130883D01*
X214994Y130995D01*
X214919Y131109D01*
X214846Y131225D01*
X214777Y131344D01*
X214711Y131464D01*
X214649Y131586D01*
X214591Y131710D01*
X214535Y131835D01*
X214484Y131962D01*
X214436Y132091D01*
X214392Y132220D01*
X214351Y132351D01*
X214315Y132483D01*
X214282Y132616D01*
X214253Y132750D01*
X214227Y132885D01*
X214206Y133020D01*
X214188Y133156D01*
X214175Y133292D01*
X214165Y133429D01*
X214159Y133566D01*
X214157Y133703D01*
X218955Y128905D02*
X219198Y128908D01*
X219440Y128917D01*
X219682Y128931D01*
X219924Y128951D01*
X220165Y128977D01*
X220405Y129009D01*
X220645Y129047D01*
X220883Y129090D01*
X221121Y129139D01*
X221357Y129194D01*
X221592Y129254D01*
X221825Y129320D01*
X222057Y129391D01*
X222287Y129468D01*
X222515Y129551D01*
X222741Y129639D01*
X222965Y129732D01*
X223186Y129831D01*
X223405Y129934D01*
X223622Y130043D01*
X223836Y130158D01*
X224047Y130277D01*
X224255Y130401D01*
X224460Y130531D01*
X224662Y130665D01*
X224861Y130804D01*
X225056Y130947D01*
X225248Y131096D01*
X225437Y131248D01*
X225621Y131406D01*
X225802Y131567D01*
X225979Y131733D01*
X226151Y131903D01*
X225553Y145697D02*
X225551Y145834D01*
X225545Y145971D01*
X225535Y146108D01*
X225522Y146244D01*
X225504Y146380D01*
X225483Y146515D01*
X225457Y146650D01*
X225428Y146784D01*
X225395Y146917D01*
X225359Y147049D01*
X225318Y147180D01*
X225274Y147309D01*
X225226Y147438D01*
X225175Y147565D01*
X225119Y147690D01*
X225061Y147814D01*
X224999Y147936D01*
X224933Y148056D01*
X224864Y148175D01*
X224791Y148291D01*
X224716Y148405D01*
X224637Y148517D01*
X224555Y148627D01*
X224469Y148734D01*
X224381Y148839D01*
X224290Y148941D01*
X224196Y149041D01*
X224099Y149138D01*
X223999Y149232D01*
X223897Y149323D01*
X223792Y149411D01*
X223685Y149497D01*
X223575Y149579D01*
X223463Y149658D01*
X223349Y149733D01*
X223233Y149806D01*
X223114Y149875D01*
X222994Y149941D01*
X222872Y150003D01*
X222748Y150061D01*
X222623Y150117D01*
X222496Y150168D01*
X222367Y150216D01*
X222238Y150260D01*
X222107Y150301D01*
X221975Y150337D01*
X221842Y150370D01*
X221708Y150399D01*
X221573Y150425D01*
X221438Y150446D01*
X221302Y150464D01*
X221166Y150477D01*
X221029Y150487D01*
X220892Y150493D01*
X220755Y150495D01*
X220541Y150492D01*
X220326Y150485D01*
X220112Y150472D01*
X219899Y150454D01*
X219685Y150431D01*
X219473Y150403D01*
X219261Y150370D01*
X219050Y150332D01*
X218840Y150289D01*
X218631Y150241D01*
X218423Y150188D01*
X218217Y150130D01*
X218012Y150067D01*
X217809Y149999D01*
X217607Y149926D01*
X217407Y149849D01*
X217209Y149767D01*
X217013Y149680D01*
X216819Y149588D01*
X216627Y149492D01*
X216438Y149392D01*
X216251Y149286D01*
X216067Y149177D01*
X215885Y149063D01*
X215706Y148945D01*
X215530Y148822D01*
X215357Y148696D01*
X223154Y141499D02*
X223271Y141570D01*
X223386Y141644D01*
X223498Y141722D01*
X223609Y141802D01*
X223717Y141886D01*
X223823Y141973D01*
X223926Y142062D01*
X224027Y142155D01*
X224125Y142250D01*
X224220Y142348D01*
X224313Y142449D01*
X224402Y142552D01*
X224489Y142658D01*
X224573Y142766D01*
X224653Y142876D01*
X224731Y142989D01*
X224805Y143103D01*
X224877Y143220D01*
X224944Y143339D01*
X225009Y143460D01*
X225070Y143582D01*
X225128Y143706D01*
X225182Y143831D01*
X225232Y143958D01*
X225279Y144087D01*
X225323Y144217D01*
X225362Y144347D01*
X225398Y144479D01*
X225431Y144612D01*
X225459Y144746D01*
X225484Y144880D01*
X225505Y145016D01*
X225522Y145151D01*
X225536Y145287D01*
X225545Y145424D01*
X225551Y145560D01*
X225553Y145697D01*
X216556Y137901D02*
X216439Y137830D01*
X216324Y137756D01*
X216212Y137678D01*
X216101Y137598D01*
X215993Y137514D01*
X215887Y137427D01*
X215784Y137338D01*
X215684Y137245D01*
X215585Y137150D01*
X215490Y137052D01*
X215398Y136951D01*
X215308Y136848D01*
X215221Y136742D01*
X215137Y136634D01*
X215057Y136524D01*
X214979Y136411D01*
X214905Y136297D01*
X214833Y136180D01*
X214766Y136061D01*
X214701Y135941D01*
X214640Y135818D01*
X214582Y135694D01*
X214528Y135569D01*
X214478Y135442D01*
X214431Y135313D01*
X214387Y135183D01*
X214348Y135053D01*
X214312Y134921D01*
X214279Y134788D01*
X214251Y134654D01*
X214226Y134520D01*
X214205Y134384D01*
X214188Y134249D01*
X214174Y134113D01*
X214165Y133976D01*
X214159Y133840D01*
X214157Y133703D01*
X216557Y137901D02*
X223153Y141499D01*
X202563Y128905D02*
X196566Y128905D01*
X202563Y128905D02*
X202681Y128907D01*
X202798Y128913D01*
X202916Y128922D01*
X203033Y128936D01*
X203149Y128953D01*
X203265Y128974D01*
X203380Y128999D01*
X203494Y129028D01*
X203607Y129060D01*
X203720Y129096D01*
X203830Y129136D01*
X203940Y129179D01*
X204048Y129226D01*
X204154Y129276D01*
X204259Y129330D01*
X204362Y129387D01*
X204463Y129448D01*
X204562Y129511D01*
X204659Y129578D01*
X204753Y129649D01*
X204846Y129722D01*
X204935Y129798D01*
X205023Y129877D01*
X205107Y129959D01*
X205189Y130043D01*
X205268Y130131D01*
X205344Y130220D01*
X205417Y130313D01*
X205488Y130407D01*
X205555Y130504D01*
X205618Y130603D01*
X205679Y130704D01*
X205736Y130807D01*
X205790Y130912D01*
X205840Y131018D01*
X205887Y131126D01*
X205930Y131236D01*
X205970Y131346D01*
X206006Y131459D01*
X206038Y131572D01*
X206067Y131686D01*
X206092Y131801D01*
X206113Y131917D01*
X206130Y132033D01*
X206144Y132150D01*
X206153Y132268D01*
X206159Y132385D01*
X206161Y132503D01*
X206162Y132503D02*
X206162Y138501D01*
X206160Y138639D01*
X206154Y138777D01*
X206144Y138915D01*
X206130Y139053D01*
X206112Y139190D01*
X206090Y139327D01*
X206065Y139462D01*
X206035Y139598D01*
X206001Y139732D01*
X205964Y139865D01*
X205923Y139997D01*
X205878Y140128D01*
X205829Y140257D01*
X205777Y140385D01*
X205721Y140511D01*
X205661Y140636D01*
X205597Y140759D01*
X205531Y140880D01*
X205460Y140999D01*
X205387Y141116D01*
X205310Y141231D01*
X205229Y141344D01*
X205146Y141454D01*
X205059Y141561D01*
X204969Y141667D01*
X204877Y141769D01*
X204781Y141869D01*
X204683Y141966D01*
X204581Y142060D01*
X204477Y142152D01*
X204371Y142240D01*
X204262Y142325D01*
X204151Y142407D01*
X204037Y142486D01*
X203921Y142561D01*
X203803Y142633D01*
X203683Y142702D01*
X203561Y142767D01*
X203437Y142828D01*
X203311Y142886D01*
X203184Y142940D01*
X203055Y142991D01*
X202925Y143038D01*
X202794Y143081D01*
X202661Y143120D01*
X202528Y143156D01*
X202393Y143187D01*
X202258Y143215D01*
X202121Y143239D01*
X201985Y143259D01*
X201847Y143275D01*
X201709Y143287D01*
X201571Y143295D01*
X201433Y143299D01*
X201295Y143299D01*
X201157Y143295D01*
X201019Y143287D01*
X200881Y143275D01*
X200743Y143259D01*
X200607Y143239D01*
X200470Y143215D01*
X200335Y143187D01*
X200200Y143156D01*
X200067Y143120D01*
X199934Y143081D01*
X199803Y143038D01*
X199673Y142991D01*
X199544Y142940D01*
X199417Y142886D01*
X199291Y142828D01*
X199167Y142767D01*
X199045Y142702D01*
X198925Y142633D01*
X198807Y142561D01*
X198691Y142486D01*
X198577Y142407D01*
X198466Y142325D01*
X198357Y142240D01*
X198251Y142152D01*
X198147Y142060D01*
X198045Y141966D01*
X197947Y141869D01*
X197851Y141769D01*
X197759Y141667D01*
X197669Y141561D01*
X197582Y141454D01*
X197499Y141344D01*
X197418Y141231D01*
X197341Y141116D01*
X197268Y140999D01*
X197197Y140880D01*
X197131Y140759D01*
X197067Y140636D01*
X197007Y140511D01*
X196951Y140385D01*
X196899Y140257D01*
X196850Y140128D01*
X196805Y139997D01*
X196764Y139865D01*
X196727Y139732D01*
X196693Y139598D01*
X196663Y139462D01*
X196638Y139327D01*
X196616Y139190D01*
X196598Y139053D01*
X196584Y138915D01*
X196574Y138777D01*
X196568Y138639D01*
X196566Y138501D01*
X196566Y136102D01*
X206162Y136102D01*
X187371Y143298D02*
X187371Y128905D01*
X187371Y143298D02*
X181374Y143298D01*
X181256Y143296D01*
X181139Y143290D01*
X181021Y143281D01*
X180904Y143267D01*
X180788Y143250D01*
X180672Y143229D01*
X180557Y143204D01*
X180443Y143175D01*
X180330Y143143D01*
X180217Y143107D01*
X180107Y143067D01*
X179997Y143024D01*
X179889Y142977D01*
X179783Y142927D01*
X179678Y142873D01*
X179575Y142816D01*
X179474Y142755D01*
X179375Y142692D01*
X179278Y142625D01*
X179184Y142554D01*
X179091Y142481D01*
X179002Y142405D01*
X178914Y142326D01*
X178830Y142244D01*
X178748Y142160D01*
X178669Y142072D01*
X178593Y141983D01*
X178520Y141890D01*
X178449Y141796D01*
X178382Y141699D01*
X178319Y141600D01*
X178258Y141499D01*
X178201Y141396D01*
X178147Y141291D01*
X178097Y141185D01*
X178050Y141077D01*
X178007Y140967D01*
X177967Y140857D01*
X177931Y140744D01*
X177899Y140631D01*
X177870Y140517D01*
X177845Y140402D01*
X177824Y140286D01*
X177807Y140170D01*
X177793Y140053D01*
X177784Y139935D01*
X177778Y139818D01*
X177776Y139700D01*
X177775Y139700D02*
X177775Y128905D01*
X166781Y137301D02*
X160784Y134902D01*
X166781Y137301D02*
X166883Y137344D01*
X166983Y137391D01*
X167082Y137441D01*
X167179Y137494D01*
X167274Y137551D01*
X167367Y137612D01*
X167457Y137675D01*
X167545Y137742D01*
X167631Y137812D01*
X167715Y137885D01*
X167795Y137960D01*
X167873Y138039D01*
X167948Y138120D01*
X168020Y138204D01*
X168089Y138291D01*
X168155Y138379D01*
X168218Y138471D01*
X168278Y138564D01*
X168334Y138659D01*
X168386Y138757D01*
X168436Y138856D01*
X168481Y138956D01*
X168523Y139059D01*
X168562Y139163D01*
X168596Y139268D01*
X168627Y139374D01*
X168654Y139481D01*
X168678Y139589D01*
X168697Y139698D01*
X168713Y139808D01*
X168724Y139918D01*
X168732Y140028D01*
X168736Y140139D01*
X168735Y140250D01*
X168731Y140360D01*
X168723Y140471D01*
X168711Y140581D01*
X168695Y140690D01*
X168676Y140799D01*
X168652Y140907D01*
X168625Y141014D01*
X168593Y141120D01*
X168558Y141225D01*
X168520Y141329D01*
X168477Y141431D01*
X168431Y141532D01*
X168382Y141631D01*
X168329Y141728D01*
X168272Y141823D01*
X168212Y141916D01*
X168149Y142007D01*
X168083Y142096D01*
X168014Y142182D01*
X167941Y142266D01*
X167866Y142347D01*
X167788Y142425D01*
X167707Y142500D01*
X167623Y142573D01*
X167537Y142643D01*
X167449Y142709D01*
X167358Y142772D01*
X167265Y142832D01*
X167170Y142889D01*
X167073Y142942D01*
X166974Y142992D01*
X166873Y143038D01*
X166771Y143080D01*
X166668Y143119D01*
X166563Y143155D01*
X166457Y143186D01*
X166349Y143214D01*
X166241Y143237D01*
X166133Y143257D01*
X166023Y143274D01*
X165913Y143286D01*
X165803Y143294D01*
X165692Y143298D01*
X165582Y143299D01*
X165581Y143298D02*
X165254Y143289D01*
X164927Y143273D01*
X164600Y143248D01*
X164274Y143216D01*
X163949Y143176D01*
X163625Y143128D01*
X163303Y143073D01*
X162981Y143009D01*
X162662Y142938D01*
X162344Y142859D01*
X162028Y142773D01*
X161714Y142679D01*
X161403Y142578D01*
X161094Y142469D01*
X160788Y142353D01*
X160484Y142229D01*
X160184Y142098D01*
X160784Y134903D02*
X160682Y134860D01*
X160582Y134813D01*
X160483Y134763D01*
X160386Y134710D01*
X160291Y134653D01*
X160198Y134592D01*
X160108Y134529D01*
X160020Y134462D01*
X159934Y134392D01*
X159850Y134319D01*
X159770Y134244D01*
X159692Y134165D01*
X159617Y134084D01*
X159545Y134000D01*
X159476Y133913D01*
X159410Y133825D01*
X159347Y133733D01*
X159287Y133640D01*
X159231Y133545D01*
X159179Y133447D01*
X159129Y133348D01*
X159084Y133248D01*
X159042Y133145D01*
X159003Y133041D01*
X158969Y132936D01*
X158938Y132830D01*
X158911Y132723D01*
X158887Y132615D01*
X158868Y132506D01*
X158852Y132396D01*
X158841Y132286D01*
X158833Y132176D01*
X158829Y132065D01*
X158830Y131954D01*
X158834Y131844D01*
X158842Y131733D01*
X158854Y131623D01*
X158870Y131514D01*
X158889Y131405D01*
X158913Y131297D01*
X158940Y131190D01*
X158972Y131084D01*
X159007Y130979D01*
X159045Y130875D01*
X159088Y130773D01*
X159134Y130672D01*
X159183Y130573D01*
X159236Y130476D01*
X159293Y130381D01*
X159353Y130288D01*
X159416Y130197D01*
X159482Y130108D01*
X159551Y130022D01*
X159624Y129938D01*
X159699Y129857D01*
X159777Y129779D01*
X159858Y129704D01*
X159942Y129631D01*
X160028Y129562D01*
X160116Y129495D01*
X160207Y129432D01*
X160300Y129372D01*
X160395Y129315D01*
X160492Y129262D01*
X160591Y129212D01*
X160692Y129166D01*
X160794Y129124D01*
X160897Y129085D01*
X161002Y129049D01*
X161108Y129018D01*
X161215Y128990D01*
X161324Y128967D01*
X161432Y128947D01*
X161542Y128930D01*
X161652Y128918D01*
X161762Y128910D01*
X161873Y128906D01*
X161983Y128905D01*
X162464Y128918D01*
X162945Y128942D01*
X163425Y128977D01*
X163904Y129023D01*
X164381Y129081D01*
X164857Y129151D01*
X165332Y129231D01*
X165804Y129323D01*
X166274Y129426D01*
X166741Y129539D01*
X167206Y129664D01*
X167668Y129800D01*
X168126Y129947D01*
X168580Y130105D01*
X150485Y133703D02*
X150485Y138501D01*
X150483Y138639D01*
X150477Y138777D01*
X150467Y138915D01*
X150453Y139053D01*
X150435Y139190D01*
X150413Y139327D01*
X150388Y139462D01*
X150358Y139598D01*
X150324Y139732D01*
X150287Y139865D01*
X150246Y139997D01*
X150201Y140128D01*
X150152Y140257D01*
X150100Y140385D01*
X150044Y140511D01*
X149984Y140636D01*
X149920Y140759D01*
X149854Y140880D01*
X149783Y140999D01*
X149710Y141116D01*
X149633Y141231D01*
X149552Y141344D01*
X149469Y141454D01*
X149382Y141561D01*
X149292Y141667D01*
X149200Y141769D01*
X149104Y141869D01*
X149006Y141966D01*
X148904Y142060D01*
X148800Y142152D01*
X148694Y142240D01*
X148585Y142325D01*
X148474Y142407D01*
X148360Y142486D01*
X148244Y142561D01*
X148126Y142633D01*
X148006Y142702D01*
X147884Y142767D01*
X147760Y142828D01*
X147634Y142886D01*
X147507Y142940D01*
X147378Y142991D01*
X147248Y143038D01*
X147117Y143081D01*
X146984Y143120D01*
X146851Y143156D01*
X146716Y143187D01*
X146581Y143215D01*
X146444Y143239D01*
X146308Y143259D01*
X146170Y143275D01*
X146032Y143287D01*
X145894Y143295D01*
X145756Y143299D01*
X145618Y143299D01*
X145480Y143295D01*
X145342Y143287D01*
X145204Y143275D01*
X145066Y143259D01*
X144930Y143239D01*
X144793Y143215D01*
X144658Y143187D01*
X144523Y143156D01*
X144390Y143120D01*
X144257Y143081D01*
X144126Y143038D01*
X143996Y142991D01*
X143867Y142940D01*
X143740Y142886D01*
X143614Y142828D01*
X143490Y142767D01*
X143368Y142702D01*
X143248Y142633D01*
X143130Y142561D01*
X143014Y142486D01*
X142900Y142407D01*
X142789Y142325D01*
X142680Y142240D01*
X142574Y142152D01*
X142470Y142060D01*
X142368Y141966D01*
X142270Y141869D01*
X142174Y141769D01*
X142082Y141667D01*
X141992Y141561D01*
X141905Y141454D01*
X141822Y141344D01*
X141741Y141231D01*
X141664Y141116D01*
X141591Y140999D01*
X141520Y140880D01*
X141454Y140759D01*
X141390Y140636D01*
X141330Y140511D01*
X141274Y140385D01*
X141222Y140257D01*
X141173Y140128D01*
X141128Y139997D01*
X141087Y139865D01*
X141050Y139732D01*
X141016Y139598D01*
X140986Y139462D01*
X140961Y139327D01*
X140939Y139190D01*
X140921Y139053D01*
X140907Y138915D01*
X140897Y138777D01*
X140891Y138639D01*
X140889Y138501D01*
X140890Y138501D02*
X140890Y133703D01*
X140889Y133703D02*
X140891Y133565D01*
X140897Y133427D01*
X140907Y133289D01*
X140921Y133151D01*
X140939Y133014D01*
X140961Y132877D01*
X140986Y132742D01*
X141016Y132606D01*
X141050Y132472D01*
X141087Y132339D01*
X141128Y132207D01*
X141173Y132076D01*
X141222Y131947D01*
X141274Y131819D01*
X141330Y131693D01*
X141390Y131568D01*
X141454Y131445D01*
X141520Y131324D01*
X141591Y131205D01*
X141664Y131088D01*
X141741Y130973D01*
X141822Y130860D01*
X141905Y130750D01*
X141992Y130643D01*
X142082Y130537D01*
X142174Y130435D01*
X142270Y130335D01*
X142368Y130238D01*
X142470Y130144D01*
X142574Y130052D01*
X142680Y129964D01*
X142789Y129879D01*
X142900Y129797D01*
X143014Y129718D01*
X143130Y129643D01*
X143248Y129571D01*
X143368Y129502D01*
X143490Y129437D01*
X143614Y129376D01*
X143740Y129318D01*
X143867Y129264D01*
X143996Y129213D01*
X144126Y129166D01*
X144257Y129123D01*
X144390Y129084D01*
X144523Y129048D01*
X144658Y129017D01*
X144793Y128989D01*
X144930Y128965D01*
X145066Y128945D01*
X145204Y128929D01*
X145342Y128917D01*
X145480Y128909D01*
X145618Y128905D01*
X145756Y128905D01*
X145894Y128909D01*
X146032Y128917D01*
X146170Y128929D01*
X146308Y128945D01*
X146444Y128965D01*
X146581Y128989D01*
X146716Y129017D01*
X146851Y129048D01*
X146984Y129084D01*
X147117Y129123D01*
X147248Y129166D01*
X147378Y129213D01*
X147507Y129264D01*
X147634Y129318D01*
X147760Y129376D01*
X147884Y129437D01*
X148006Y129502D01*
X148126Y129571D01*
X148244Y129643D01*
X148360Y129718D01*
X148474Y129797D01*
X148585Y129879D01*
X148694Y129964D01*
X148800Y130052D01*
X148904Y130144D01*
X149006Y130238D01*
X149104Y130335D01*
X149200Y130435D01*
X149292Y130537D01*
X149382Y130643D01*
X149469Y130750D01*
X149552Y130860D01*
X149633Y130973D01*
X149710Y131088D01*
X149783Y131205D01*
X149854Y131324D01*
X149920Y131445D01*
X149984Y131568D01*
X150044Y131693D01*
X150100Y131819D01*
X150152Y131947D01*
X150201Y132076D01*
X150246Y132207D01*
X150287Y132339D01*
X150324Y132472D01*
X150358Y132606D01*
X150388Y132742D01*
X150413Y132877D01*
X150435Y133014D01*
X150453Y133151D01*
X150467Y133289D01*
X150477Y133427D01*
X150483Y133565D01*
X150485Y133703D01*
X131563Y128905D02*
X131563Y143298D01*
X124366Y143298D01*
X124366Y140899D01*
X440196Y112395D02*
X440196Y90805D01*
X442595Y90805D02*
X437797Y90805D01*
X437797Y112395D02*
X442595Y112395D01*
X428987Y105198D02*
X428987Y90805D01*
X428987Y105198D02*
X422990Y105198D01*
X422872Y105196D01*
X422755Y105190D01*
X422637Y105181D01*
X422520Y105167D01*
X422404Y105150D01*
X422288Y105129D01*
X422173Y105104D01*
X422059Y105075D01*
X421946Y105043D01*
X421833Y105007D01*
X421723Y104967D01*
X421613Y104924D01*
X421505Y104877D01*
X421399Y104827D01*
X421294Y104773D01*
X421191Y104716D01*
X421090Y104655D01*
X420991Y104592D01*
X420894Y104525D01*
X420800Y104454D01*
X420707Y104381D01*
X420618Y104305D01*
X420530Y104226D01*
X420446Y104144D01*
X420364Y104060D01*
X420285Y103972D01*
X420209Y103883D01*
X420136Y103790D01*
X420065Y103696D01*
X419998Y103599D01*
X419935Y103500D01*
X419874Y103399D01*
X419817Y103296D01*
X419763Y103191D01*
X419713Y103085D01*
X419666Y102977D01*
X419623Y102867D01*
X419583Y102757D01*
X419547Y102644D01*
X419515Y102531D01*
X419486Y102417D01*
X419461Y102302D01*
X419440Y102186D01*
X419423Y102070D01*
X419409Y101953D01*
X419400Y101835D01*
X419394Y101718D01*
X419392Y101600D01*
X419391Y101600D02*
X419391Y90805D01*
X400705Y90805D02*
X400705Y112395D01*
X400705Y90805D02*
X406702Y90805D01*
X406820Y90807D01*
X406937Y90813D01*
X407055Y90822D01*
X407172Y90836D01*
X407288Y90853D01*
X407404Y90874D01*
X407519Y90899D01*
X407633Y90928D01*
X407746Y90960D01*
X407859Y90996D01*
X407969Y91036D01*
X408079Y91079D01*
X408187Y91126D01*
X408293Y91176D01*
X408398Y91230D01*
X408501Y91287D01*
X408602Y91348D01*
X408701Y91411D01*
X408798Y91478D01*
X408892Y91549D01*
X408985Y91622D01*
X409074Y91698D01*
X409162Y91777D01*
X409246Y91859D01*
X409328Y91943D01*
X409407Y92031D01*
X409483Y92120D01*
X409556Y92213D01*
X409627Y92307D01*
X409694Y92404D01*
X409757Y92503D01*
X409818Y92604D01*
X409875Y92707D01*
X409929Y92812D01*
X409979Y92918D01*
X410026Y93026D01*
X410069Y93136D01*
X410109Y93246D01*
X410145Y93359D01*
X410177Y93472D01*
X410206Y93586D01*
X410231Y93701D01*
X410252Y93817D01*
X410269Y93933D01*
X410283Y94050D01*
X410292Y94168D01*
X410298Y94285D01*
X410300Y94403D01*
X410301Y94403D02*
X410301Y101600D01*
X410300Y101600D02*
X410298Y101718D01*
X410292Y101835D01*
X410283Y101953D01*
X410269Y102070D01*
X410252Y102186D01*
X410231Y102302D01*
X410206Y102417D01*
X410177Y102531D01*
X410145Y102644D01*
X410109Y102757D01*
X410069Y102867D01*
X410026Y102977D01*
X409979Y103085D01*
X409929Y103191D01*
X409875Y103296D01*
X409818Y103399D01*
X409757Y103500D01*
X409694Y103599D01*
X409627Y103696D01*
X409556Y103790D01*
X409483Y103883D01*
X409407Y103972D01*
X409328Y104060D01*
X409246Y104144D01*
X409162Y104226D01*
X409074Y104305D01*
X408985Y104381D01*
X408892Y104454D01*
X408798Y104525D01*
X408701Y104592D01*
X408602Y104655D01*
X408501Y104716D01*
X408398Y104773D01*
X408293Y104827D01*
X408187Y104877D01*
X408079Y104924D01*
X407969Y104967D01*
X407859Y105007D01*
X407746Y105043D01*
X407633Y105075D01*
X407519Y105104D01*
X407404Y105129D01*
X407288Y105150D01*
X407172Y105167D01*
X407055Y105181D01*
X406937Y105190D01*
X406820Y105196D01*
X406702Y105198D01*
X400705Y105198D01*
X391405Y100401D02*
X391405Y95603D01*
X391405Y100401D02*
X391403Y100539D01*
X391397Y100677D01*
X391387Y100815D01*
X391373Y100953D01*
X391355Y101090D01*
X391333Y101227D01*
X391308Y101362D01*
X391278Y101498D01*
X391244Y101632D01*
X391207Y101765D01*
X391166Y101897D01*
X391121Y102028D01*
X391072Y102157D01*
X391020Y102285D01*
X390964Y102411D01*
X390904Y102536D01*
X390840Y102659D01*
X390774Y102780D01*
X390703Y102899D01*
X390630Y103016D01*
X390553Y103131D01*
X390472Y103244D01*
X390389Y103354D01*
X390302Y103461D01*
X390212Y103567D01*
X390120Y103669D01*
X390024Y103769D01*
X389926Y103866D01*
X389824Y103960D01*
X389720Y104052D01*
X389614Y104140D01*
X389505Y104225D01*
X389394Y104307D01*
X389280Y104386D01*
X389164Y104461D01*
X389046Y104533D01*
X388926Y104602D01*
X388804Y104667D01*
X388680Y104728D01*
X388554Y104786D01*
X388427Y104840D01*
X388298Y104891D01*
X388168Y104938D01*
X388037Y104981D01*
X387904Y105020D01*
X387771Y105056D01*
X387636Y105087D01*
X387501Y105115D01*
X387364Y105139D01*
X387228Y105159D01*
X387090Y105175D01*
X386952Y105187D01*
X386814Y105195D01*
X386676Y105199D01*
X386538Y105199D01*
X386400Y105195D01*
X386262Y105187D01*
X386124Y105175D01*
X385986Y105159D01*
X385850Y105139D01*
X385713Y105115D01*
X385578Y105087D01*
X385443Y105056D01*
X385310Y105020D01*
X385177Y104981D01*
X385046Y104938D01*
X384916Y104891D01*
X384787Y104840D01*
X384660Y104786D01*
X384534Y104728D01*
X384410Y104667D01*
X384288Y104602D01*
X384168Y104533D01*
X384050Y104461D01*
X383934Y104386D01*
X383820Y104307D01*
X383709Y104225D01*
X383600Y104140D01*
X383494Y104052D01*
X383390Y103960D01*
X383288Y103866D01*
X383190Y103769D01*
X383094Y103669D01*
X383002Y103567D01*
X382912Y103461D01*
X382825Y103354D01*
X382742Y103244D01*
X382661Y103131D01*
X382584Y103016D01*
X382511Y102899D01*
X382440Y102780D01*
X382374Y102659D01*
X382310Y102536D01*
X382250Y102411D01*
X382194Y102285D01*
X382142Y102157D01*
X382093Y102028D01*
X382048Y101897D01*
X382007Y101765D01*
X381970Y101632D01*
X381936Y101498D01*
X381906Y101362D01*
X381881Y101227D01*
X381859Y101090D01*
X381841Y100953D01*
X381827Y100815D01*
X381817Y100677D01*
X381811Y100539D01*
X381809Y100401D01*
X381810Y100401D02*
X381810Y95603D01*
X381809Y95603D02*
X381811Y95465D01*
X381817Y95327D01*
X381827Y95189D01*
X381841Y95051D01*
X381859Y94914D01*
X381881Y94777D01*
X381906Y94642D01*
X381936Y94506D01*
X381970Y94372D01*
X382007Y94239D01*
X382048Y94107D01*
X382093Y93976D01*
X382142Y93847D01*
X382194Y93719D01*
X382250Y93593D01*
X382310Y93468D01*
X382374Y93345D01*
X382440Y93224D01*
X382511Y93105D01*
X382584Y92988D01*
X382661Y92873D01*
X382742Y92760D01*
X382825Y92650D01*
X382912Y92543D01*
X383002Y92437D01*
X383094Y92335D01*
X383190Y92235D01*
X383288Y92138D01*
X383390Y92044D01*
X383494Y91952D01*
X383600Y91864D01*
X383709Y91779D01*
X383820Y91697D01*
X383934Y91618D01*
X384050Y91543D01*
X384168Y91471D01*
X384288Y91402D01*
X384410Y91337D01*
X384534Y91276D01*
X384660Y91218D01*
X384787Y91164D01*
X384916Y91113D01*
X385046Y91066D01*
X385177Y91023D01*
X385310Y90984D01*
X385443Y90948D01*
X385578Y90917D01*
X385713Y90889D01*
X385850Y90865D01*
X385986Y90845D01*
X386124Y90829D01*
X386262Y90817D01*
X386400Y90809D01*
X386538Y90805D01*
X386676Y90805D01*
X386814Y90809D01*
X386952Y90817D01*
X387090Y90829D01*
X387228Y90845D01*
X387364Y90865D01*
X387501Y90889D01*
X387636Y90917D01*
X387771Y90948D01*
X387904Y90984D01*
X388037Y91023D01*
X388168Y91066D01*
X388298Y91113D01*
X388427Y91164D01*
X388554Y91218D01*
X388680Y91276D01*
X388804Y91337D01*
X388926Y91402D01*
X389046Y91471D01*
X389164Y91543D01*
X389280Y91618D01*
X389394Y91697D01*
X389505Y91779D01*
X389614Y91864D01*
X389720Y91952D01*
X389824Y92044D01*
X389926Y92138D01*
X390024Y92235D01*
X390120Y92335D01*
X390212Y92437D01*
X390302Y92543D01*
X390389Y92650D01*
X390472Y92760D01*
X390553Y92873D01*
X390630Y92988D01*
X390703Y93105D01*
X390774Y93224D01*
X390840Y93345D01*
X390904Y93468D01*
X390964Y93593D01*
X391020Y93719D01*
X391072Y93847D01*
X391121Y93976D01*
X391166Y94107D01*
X391207Y94239D01*
X391244Y94372D01*
X391278Y94506D01*
X391308Y94642D01*
X391333Y94777D01*
X391355Y94914D01*
X391373Y95051D01*
X391387Y95189D01*
X391397Y95327D01*
X391403Y95465D01*
X391405Y95603D01*
X373310Y95603D02*
X373310Y100401D01*
X373308Y100539D01*
X373302Y100677D01*
X373292Y100815D01*
X373278Y100953D01*
X373260Y101090D01*
X373238Y101227D01*
X373213Y101362D01*
X373183Y101498D01*
X373149Y101632D01*
X373112Y101765D01*
X373071Y101897D01*
X373026Y102028D01*
X372977Y102157D01*
X372925Y102285D01*
X372869Y102411D01*
X372809Y102536D01*
X372745Y102659D01*
X372679Y102780D01*
X372608Y102899D01*
X372535Y103016D01*
X372458Y103131D01*
X372377Y103244D01*
X372294Y103354D01*
X372207Y103461D01*
X372117Y103567D01*
X372025Y103669D01*
X371929Y103769D01*
X371831Y103866D01*
X371729Y103960D01*
X371625Y104052D01*
X371519Y104140D01*
X371410Y104225D01*
X371299Y104307D01*
X371185Y104386D01*
X371069Y104461D01*
X370951Y104533D01*
X370831Y104602D01*
X370709Y104667D01*
X370585Y104728D01*
X370459Y104786D01*
X370332Y104840D01*
X370203Y104891D01*
X370073Y104938D01*
X369942Y104981D01*
X369809Y105020D01*
X369676Y105056D01*
X369541Y105087D01*
X369406Y105115D01*
X369269Y105139D01*
X369133Y105159D01*
X368995Y105175D01*
X368857Y105187D01*
X368719Y105195D01*
X368581Y105199D01*
X368443Y105199D01*
X368305Y105195D01*
X368167Y105187D01*
X368029Y105175D01*
X367891Y105159D01*
X367755Y105139D01*
X367618Y105115D01*
X367483Y105087D01*
X367348Y105056D01*
X367215Y105020D01*
X367082Y104981D01*
X366951Y104938D01*
X366821Y104891D01*
X366692Y104840D01*
X366565Y104786D01*
X366439Y104728D01*
X366315Y104667D01*
X366193Y104602D01*
X366073Y104533D01*
X365955Y104461D01*
X365839Y104386D01*
X365725Y104307D01*
X365614Y104225D01*
X365505Y104140D01*
X365399Y104052D01*
X365295Y103960D01*
X365193Y103866D01*
X365095Y103769D01*
X364999Y103669D01*
X364907Y103567D01*
X364817Y103461D01*
X364730Y103354D01*
X364647Y103244D01*
X364566Y103131D01*
X364489Y103016D01*
X364416Y102899D01*
X364345Y102780D01*
X364279Y102659D01*
X364215Y102536D01*
X364155Y102411D01*
X364099Y102285D01*
X364047Y102157D01*
X363998Y102028D01*
X363953Y101897D01*
X363912Y101765D01*
X363875Y101632D01*
X363841Y101498D01*
X363811Y101362D01*
X363786Y101227D01*
X363764Y101090D01*
X363746Y100953D01*
X363732Y100815D01*
X363722Y100677D01*
X363716Y100539D01*
X363714Y100401D01*
X363715Y100401D02*
X363715Y95603D01*
X363714Y95603D02*
X363716Y95465D01*
X363722Y95327D01*
X363732Y95189D01*
X363746Y95051D01*
X363764Y94914D01*
X363786Y94777D01*
X363811Y94642D01*
X363841Y94506D01*
X363875Y94372D01*
X363912Y94239D01*
X363953Y94107D01*
X363998Y93976D01*
X364047Y93847D01*
X364099Y93719D01*
X364155Y93593D01*
X364215Y93468D01*
X364279Y93345D01*
X364345Y93224D01*
X364416Y93105D01*
X364489Y92988D01*
X364566Y92873D01*
X364647Y92760D01*
X364730Y92650D01*
X364817Y92543D01*
X364907Y92437D01*
X364999Y92335D01*
X365095Y92235D01*
X365193Y92138D01*
X365295Y92044D01*
X365399Y91952D01*
X365505Y91864D01*
X365614Y91779D01*
X365725Y91697D01*
X365839Y91618D01*
X365955Y91543D01*
X366073Y91471D01*
X366193Y91402D01*
X366315Y91337D01*
X366439Y91276D01*
X366565Y91218D01*
X366692Y91164D01*
X366821Y91113D01*
X366951Y91066D01*
X367082Y91023D01*
X367215Y90984D01*
X367348Y90948D01*
X367483Y90917D01*
X367618Y90889D01*
X367755Y90865D01*
X367891Y90845D01*
X368029Y90829D01*
X368167Y90817D01*
X368305Y90809D01*
X368443Y90805D01*
X368581Y90805D01*
X368719Y90809D01*
X368857Y90817D01*
X368995Y90829D01*
X369133Y90845D01*
X369269Y90865D01*
X369406Y90889D01*
X369541Y90917D01*
X369676Y90948D01*
X369809Y90984D01*
X369942Y91023D01*
X370073Y91066D01*
X370203Y91113D01*
X370332Y91164D01*
X370459Y91218D01*
X370585Y91276D01*
X370709Y91337D01*
X370831Y91402D01*
X370951Y91471D01*
X371069Y91543D01*
X371185Y91618D01*
X371299Y91697D01*
X371410Y91779D01*
X371519Y91864D01*
X371625Y91952D01*
X371729Y92044D01*
X371831Y92138D01*
X371929Y92235D01*
X372025Y92335D01*
X372117Y92437D01*
X372207Y92543D01*
X372294Y92650D01*
X372377Y92760D01*
X372458Y92873D01*
X372535Y92988D01*
X372608Y93105D01*
X372679Y93224D01*
X372745Y93345D01*
X372809Y93468D01*
X372869Y93593D01*
X372925Y93719D01*
X372977Y93847D01*
X373026Y93976D01*
X373071Y94107D01*
X373112Y94239D01*
X373149Y94372D01*
X373183Y94506D01*
X373213Y94642D01*
X373238Y94777D01*
X373260Y94914D01*
X373278Y95051D01*
X373292Y95189D01*
X373302Y95327D01*
X373308Y95465D01*
X373310Y95603D01*
X354388Y90805D02*
X354388Y105198D01*
X347191Y105198D01*
X347191Y102799D01*
X333907Y90805D02*
X333770Y90807D01*
X333633Y90813D01*
X333496Y90823D01*
X333360Y90836D01*
X333224Y90854D01*
X333089Y90875D01*
X332954Y90901D01*
X332820Y90930D01*
X332687Y90963D01*
X332555Y90999D01*
X332424Y91040D01*
X332295Y91084D01*
X332166Y91132D01*
X332039Y91183D01*
X331914Y91239D01*
X331790Y91297D01*
X331668Y91359D01*
X331548Y91425D01*
X331429Y91494D01*
X331313Y91567D01*
X331199Y91642D01*
X331087Y91721D01*
X330977Y91803D01*
X330870Y91889D01*
X330765Y91977D01*
X330663Y92068D01*
X330563Y92162D01*
X330466Y92259D01*
X330372Y92359D01*
X330281Y92461D01*
X330193Y92566D01*
X330107Y92673D01*
X330025Y92783D01*
X329946Y92895D01*
X329871Y93009D01*
X329798Y93125D01*
X329729Y93244D01*
X329663Y93364D01*
X329601Y93486D01*
X329543Y93610D01*
X329487Y93735D01*
X329436Y93862D01*
X329388Y93991D01*
X329344Y94120D01*
X329303Y94251D01*
X329267Y94383D01*
X329234Y94516D01*
X329205Y94650D01*
X329179Y94785D01*
X329158Y94920D01*
X329140Y95056D01*
X329127Y95192D01*
X329117Y95329D01*
X329111Y95466D01*
X329109Y95603D01*
X333907Y90805D02*
X334150Y90808D01*
X334392Y90817D01*
X334634Y90831D01*
X334876Y90851D01*
X335117Y90877D01*
X335357Y90909D01*
X335597Y90947D01*
X335835Y90990D01*
X336073Y91039D01*
X336309Y91094D01*
X336544Y91154D01*
X336777Y91220D01*
X337009Y91291D01*
X337239Y91368D01*
X337467Y91451D01*
X337693Y91539D01*
X337917Y91632D01*
X338138Y91731D01*
X338357Y91834D01*
X338574Y91943D01*
X338788Y92058D01*
X338999Y92177D01*
X339207Y92301D01*
X339412Y92431D01*
X339614Y92565D01*
X339813Y92704D01*
X340008Y92847D01*
X340200Y92996D01*
X340389Y93148D01*
X340573Y93306D01*
X340754Y93467D01*
X340931Y93633D01*
X341103Y93803D01*
X340504Y107597D02*
X340502Y107734D01*
X340496Y107871D01*
X340486Y108008D01*
X340473Y108144D01*
X340455Y108280D01*
X340434Y108415D01*
X340408Y108550D01*
X340379Y108684D01*
X340346Y108817D01*
X340310Y108949D01*
X340269Y109080D01*
X340225Y109209D01*
X340177Y109338D01*
X340126Y109465D01*
X340070Y109590D01*
X340012Y109714D01*
X339950Y109836D01*
X339884Y109956D01*
X339815Y110075D01*
X339742Y110191D01*
X339667Y110305D01*
X339588Y110417D01*
X339506Y110527D01*
X339420Y110634D01*
X339332Y110739D01*
X339241Y110841D01*
X339147Y110941D01*
X339050Y111038D01*
X338950Y111132D01*
X338848Y111223D01*
X338743Y111311D01*
X338636Y111397D01*
X338526Y111479D01*
X338414Y111558D01*
X338300Y111633D01*
X338184Y111706D01*
X338065Y111775D01*
X337945Y111841D01*
X337823Y111903D01*
X337699Y111961D01*
X337574Y112017D01*
X337447Y112068D01*
X337318Y112116D01*
X337189Y112160D01*
X337058Y112201D01*
X336926Y112237D01*
X336793Y112270D01*
X336659Y112299D01*
X336524Y112325D01*
X336389Y112346D01*
X336253Y112364D01*
X336117Y112377D01*
X335980Y112387D01*
X335843Y112393D01*
X335706Y112395D01*
X335492Y112392D01*
X335277Y112385D01*
X335063Y112372D01*
X334850Y112354D01*
X334636Y112331D01*
X334424Y112303D01*
X334212Y112270D01*
X334001Y112232D01*
X333791Y112189D01*
X333582Y112141D01*
X333374Y112088D01*
X333168Y112030D01*
X332963Y111967D01*
X332760Y111899D01*
X332558Y111826D01*
X332358Y111749D01*
X332160Y111667D01*
X331964Y111580D01*
X331770Y111488D01*
X331578Y111392D01*
X331389Y111292D01*
X331202Y111186D01*
X331018Y111077D01*
X330836Y110963D01*
X330657Y110845D01*
X330481Y110722D01*
X330308Y110596D01*
X338105Y103399D02*
X338222Y103470D01*
X338337Y103544D01*
X338449Y103622D01*
X338560Y103702D01*
X338668Y103786D01*
X338774Y103873D01*
X338877Y103962D01*
X338978Y104055D01*
X339076Y104150D01*
X339171Y104248D01*
X339264Y104349D01*
X339353Y104452D01*
X339440Y104558D01*
X339524Y104666D01*
X339604Y104776D01*
X339682Y104889D01*
X339756Y105003D01*
X339828Y105120D01*
X339895Y105239D01*
X339960Y105360D01*
X340021Y105482D01*
X340079Y105606D01*
X340133Y105731D01*
X340183Y105858D01*
X340230Y105987D01*
X340274Y106117D01*
X340313Y106247D01*
X340349Y106379D01*
X340382Y106512D01*
X340410Y106646D01*
X340435Y106780D01*
X340456Y106916D01*
X340473Y107051D01*
X340487Y107187D01*
X340496Y107324D01*
X340502Y107460D01*
X340504Y107597D01*
X331508Y99801D02*
X331391Y99730D01*
X331276Y99656D01*
X331164Y99578D01*
X331053Y99498D01*
X330945Y99414D01*
X330839Y99327D01*
X330736Y99238D01*
X330636Y99145D01*
X330537Y99050D01*
X330442Y98952D01*
X330350Y98851D01*
X330260Y98748D01*
X330173Y98642D01*
X330089Y98534D01*
X330009Y98424D01*
X329931Y98311D01*
X329857Y98197D01*
X329785Y98080D01*
X329718Y97961D01*
X329653Y97841D01*
X329592Y97718D01*
X329534Y97594D01*
X329480Y97469D01*
X329430Y97342D01*
X329383Y97213D01*
X329339Y97083D01*
X329300Y96953D01*
X329264Y96821D01*
X329231Y96688D01*
X329203Y96554D01*
X329178Y96420D01*
X329157Y96284D01*
X329140Y96149D01*
X329126Y96013D01*
X329117Y95876D01*
X329111Y95740D01*
X329109Y95603D01*
X331508Y99801D02*
X338105Y103399D01*
X322870Y105198D02*
X315673Y105198D01*
X320471Y112395D02*
X320471Y94403D01*
X320469Y94285D01*
X320463Y94168D01*
X320454Y94050D01*
X320440Y93933D01*
X320423Y93817D01*
X320402Y93701D01*
X320377Y93586D01*
X320348Y93472D01*
X320316Y93359D01*
X320280Y93246D01*
X320240Y93136D01*
X320197Y93026D01*
X320150Y92918D01*
X320100Y92812D01*
X320046Y92707D01*
X319989Y92604D01*
X319928Y92503D01*
X319865Y92404D01*
X319798Y92307D01*
X319727Y92213D01*
X319654Y92120D01*
X319578Y92031D01*
X319499Y91943D01*
X319417Y91859D01*
X319333Y91777D01*
X319245Y91698D01*
X319156Y91622D01*
X319063Y91549D01*
X318969Y91478D01*
X318872Y91411D01*
X318773Y91348D01*
X318672Y91287D01*
X318569Y91230D01*
X318464Y91176D01*
X318358Y91126D01*
X318250Y91079D01*
X318140Y91036D01*
X318030Y90996D01*
X317917Y90960D01*
X317804Y90928D01*
X317690Y90899D01*
X317575Y90874D01*
X317459Y90853D01*
X317343Y90836D01*
X317226Y90822D01*
X317108Y90813D01*
X316991Y90807D01*
X316873Y90805D01*
X315673Y90805D01*
X303797Y99201D02*
X298399Y99201D01*
X303797Y99201D02*
X303925Y99199D01*
X304053Y99193D01*
X304181Y99183D01*
X304308Y99170D01*
X304435Y99152D01*
X304561Y99131D01*
X304687Y99106D01*
X304811Y99077D01*
X304935Y99044D01*
X305058Y99007D01*
X305179Y98967D01*
X305299Y98923D01*
X305418Y98875D01*
X305536Y98824D01*
X305651Y98769D01*
X305765Y98711D01*
X305877Y98649D01*
X305988Y98584D01*
X306096Y98516D01*
X306202Y98444D01*
X306306Y98369D01*
X306407Y98291D01*
X306506Y98210D01*
X306603Y98126D01*
X306697Y98039D01*
X306788Y97949D01*
X306876Y97856D01*
X306962Y97761D01*
X307045Y97663D01*
X307124Y97563D01*
X307201Y97460D01*
X307274Y97355D01*
X307344Y97248D01*
X307411Y97139D01*
X307475Y97028D01*
X307535Y96915D01*
X307591Y96800D01*
X307644Y96683D01*
X307694Y96565D01*
X307739Y96445D01*
X307782Y96325D01*
X307820Y96202D01*
X307855Y96079D01*
X307886Y95955D01*
X307913Y95830D01*
X307936Y95704D01*
X307956Y95577D01*
X307971Y95450D01*
X307983Y95323D01*
X307991Y95195D01*
X307995Y95067D01*
X307995Y94939D01*
X307991Y94811D01*
X307983Y94683D01*
X307971Y94556D01*
X307956Y94429D01*
X307936Y94302D01*
X307913Y94176D01*
X307886Y94051D01*
X307855Y93927D01*
X307820Y93804D01*
X307782Y93681D01*
X307739Y93561D01*
X307694Y93441D01*
X307644Y93323D01*
X307591Y93206D01*
X307535Y93091D01*
X307475Y92978D01*
X307411Y92867D01*
X307344Y92758D01*
X307274Y92651D01*
X307201Y92546D01*
X307124Y92443D01*
X307045Y92343D01*
X306962Y92245D01*
X306876Y92150D01*
X306788Y92057D01*
X306697Y91967D01*
X306603Y91880D01*
X306506Y91796D01*
X306407Y91715D01*
X306306Y91637D01*
X306202Y91562D01*
X306096Y91490D01*
X305988Y91422D01*
X305877Y91357D01*
X305765Y91295D01*
X305651Y91237D01*
X305536Y91182D01*
X305418Y91131D01*
X305299Y91083D01*
X305179Y91039D01*
X305058Y90999D01*
X304935Y90962D01*
X304811Y90929D01*
X304687Y90900D01*
X304561Y90875D01*
X304435Y90854D01*
X304308Y90836D01*
X304181Y90823D01*
X304053Y90813D01*
X303925Y90807D01*
X303797Y90805D01*
X298399Y90805D01*
X298399Y101600D01*
X298400Y101600D02*
X298402Y101718D01*
X298408Y101835D01*
X298417Y101953D01*
X298431Y102070D01*
X298448Y102186D01*
X298469Y102302D01*
X298494Y102417D01*
X298523Y102531D01*
X298555Y102644D01*
X298591Y102757D01*
X298631Y102867D01*
X298674Y102977D01*
X298721Y103085D01*
X298771Y103191D01*
X298825Y103296D01*
X298882Y103399D01*
X298943Y103500D01*
X299006Y103599D01*
X299073Y103696D01*
X299144Y103790D01*
X299217Y103883D01*
X299293Y103972D01*
X299372Y104060D01*
X299454Y104144D01*
X299538Y104226D01*
X299626Y104305D01*
X299715Y104381D01*
X299808Y104454D01*
X299902Y104525D01*
X299999Y104592D01*
X300098Y104655D01*
X300199Y104716D01*
X300302Y104773D01*
X300407Y104827D01*
X300513Y104877D01*
X300621Y104924D01*
X300731Y104967D01*
X300841Y105007D01*
X300954Y105043D01*
X301067Y105075D01*
X301181Y105104D01*
X301296Y105129D01*
X301412Y105150D01*
X301528Y105167D01*
X301645Y105181D01*
X301763Y105190D01*
X301880Y105196D01*
X301998Y105198D01*
X306795Y105198D01*
X290856Y105198D02*
X283659Y105198D01*
X288457Y112395D02*
X288457Y94403D01*
X288455Y94285D01*
X288449Y94168D01*
X288440Y94050D01*
X288426Y93933D01*
X288409Y93817D01*
X288388Y93701D01*
X288363Y93586D01*
X288334Y93472D01*
X288302Y93359D01*
X288266Y93246D01*
X288226Y93136D01*
X288183Y93026D01*
X288136Y92918D01*
X288086Y92812D01*
X288032Y92707D01*
X287975Y92604D01*
X287914Y92503D01*
X287851Y92404D01*
X287784Y92307D01*
X287713Y92213D01*
X287640Y92120D01*
X287564Y92031D01*
X287485Y91943D01*
X287403Y91859D01*
X287319Y91777D01*
X287231Y91698D01*
X287142Y91622D01*
X287049Y91549D01*
X286955Y91478D01*
X286858Y91411D01*
X286759Y91348D01*
X286658Y91287D01*
X286555Y91230D01*
X286450Y91176D01*
X286344Y91126D01*
X286236Y91079D01*
X286126Y91036D01*
X286016Y90996D01*
X285903Y90960D01*
X285790Y90928D01*
X285676Y90899D01*
X285561Y90874D01*
X285445Y90853D01*
X285329Y90836D01*
X285212Y90822D01*
X285094Y90813D01*
X284977Y90807D01*
X284859Y90805D01*
X283659Y90805D01*
X275950Y90805D02*
X275950Y105198D01*
X276550Y111196D02*
X276550Y112395D01*
X275350Y112395D01*
X275350Y111196D01*
X276550Y111196D01*
X267525Y100401D02*
X267525Y95603D01*
X267525Y100401D02*
X267523Y100539D01*
X267517Y100677D01*
X267507Y100815D01*
X267493Y100953D01*
X267475Y101090D01*
X267453Y101227D01*
X267428Y101362D01*
X267398Y101498D01*
X267364Y101632D01*
X267327Y101765D01*
X267286Y101897D01*
X267241Y102028D01*
X267192Y102157D01*
X267140Y102285D01*
X267084Y102411D01*
X267024Y102536D01*
X266960Y102659D01*
X266894Y102780D01*
X266823Y102899D01*
X266750Y103016D01*
X266673Y103131D01*
X266592Y103244D01*
X266509Y103354D01*
X266422Y103461D01*
X266332Y103567D01*
X266240Y103669D01*
X266144Y103769D01*
X266046Y103866D01*
X265944Y103960D01*
X265840Y104052D01*
X265734Y104140D01*
X265625Y104225D01*
X265514Y104307D01*
X265400Y104386D01*
X265284Y104461D01*
X265166Y104533D01*
X265046Y104602D01*
X264924Y104667D01*
X264800Y104728D01*
X264674Y104786D01*
X264547Y104840D01*
X264418Y104891D01*
X264288Y104938D01*
X264157Y104981D01*
X264024Y105020D01*
X263891Y105056D01*
X263756Y105087D01*
X263621Y105115D01*
X263484Y105139D01*
X263348Y105159D01*
X263210Y105175D01*
X263072Y105187D01*
X262934Y105195D01*
X262796Y105199D01*
X262658Y105199D01*
X262520Y105195D01*
X262382Y105187D01*
X262244Y105175D01*
X262106Y105159D01*
X261970Y105139D01*
X261833Y105115D01*
X261698Y105087D01*
X261563Y105056D01*
X261430Y105020D01*
X261297Y104981D01*
X261166Y104938D01*
X261036Y104891D01*
X260907Y104840D01*
X260780Y104786D01*
X260654Y104728D01*
X260530Y104667D01*
X260408Y104602D01*
X260288Y104533D01*
X260170Y104461D01*
X260054Y104386D01*
X259940Y104307D01*
X259829Y104225D01*
X259720Y104140D01*
X259614Y104052D01*
X259510Y103960D01*
X259408Y103866D01*
X259310Y103769D01*
X259214Y103669D01*
X259122Y103567D01*
X259032Y103461D01*
X258945Y103354D01*
X258862Y103244D01*
X258781Y103131D01*
X258704Y103016D01*
X258631Y102899D01*
X258560Y102780D01*
X258494Y102659D01*
X258430Y102536D01*
X258370Y102411D01*
X258314Y102285D01*
X258262Y102157D01*
X258213Y102028D01*
X258168Y101897D01*
X258127Y101765D01*
X258090Y101632D01*
X258056Y101498D01*
X258026Y101362D01*
X258001Y101227D01*
X257979Y101090D01*
X257961Y100953D01*
X257947Y100815D01*
X257937Y100677D01*
X257931Y100539D01*
X257929Y100401D01*
X257929Y95603D01*
X257931Y95465D01*
X257937Y95327D01*
X257947Y95189D01*
X257961Y95051D01*
X257979Y94914D01*
X258001Y94777D01*
X258026Y94642D01*
X258056Y94506D01*
X258090Y94372D01*
X258127Y94239D01*
X258168Y94107D01*
X258213Y93976D01*
X258262Y93847D01*
X258314Y93719D01*
X258370Y93593D01*
X258430Y93468D01*
X258494Y93345D01*
X258560Y93224D01*
X258631Y93105D01*
X258704Y92988D01*
X258781Y92873D01*
X258862Y92760D01*
X258945Y92650D01*
X259032Y92543D01*
X259122Y92437D01*
X259214Y92335D01*
X259310Y92235D01*
X259408Y92138D01*
X259510Y92044D01*
X259614Y91952D01*
X259720Y91864D01*
X259829Y91779D01*
X259940Y91697D01*
X260054Y91618D01*
X260170Y91543D01*
X260288Y91471D01*
X260408Y91402D01*
X260530Y91337D01*
X260654Y91276D01*
X260780Y91218D01*
X260907Y91164D01*
X261036Y91113D01*
X261166Y91066D01*
X261297Y91023D01*
X261430Y90984D01*
X261563Y90948D01*
X261698Y90917D01*
X261833Y90889D01*
X261970Y90865D01*
X262106Y90845D01*
X262244Y90829D01*
X262382Y90817D01*
X262520Y90809D01*
X262658Y90805D01*
X262796Y90805D01*
X262934Y90809D01*
X263072Y90817D01*
X263210Y90829D01*
X263348Y90845D01*
X263484Y90865D01*
X263621Y90889D01*
X263756Y90917D01*
X263891Y90948D01*
X264024Y90984D01*
X264157Y91023D01*
X264288Y91066D01*
X264418Y91113D01*
X264547Y91164D01*
X264674Y91218D01*
X264800Y91276D01*
X264924Y91337D01*
X265046Y91402D01*
X265166Y91471D01*
X265284Y91543D01*
X265400Y91618D01*
X265514Y91697D01*
X265625Y91779D01*
X265734Y91864D01*
X265840Y91952D01*
X265944Y92044D01*
X266046Y92138D01*
X266144Y92235D01*
X266240Y92335D01*
X266332Y92437D01*
X266422Y92543D01*
X266509Y92650D01*
X266592Y92760D01*
X266673Y92873D01*
X266750Y92988D01*
X266823Y93105D01*
X266894Y93224D01*
X266960Y93345D01*
X267024Y93468D01*
X267084Y93593D01*
X267140Y93719D01*
X267192Y93847D01*
X267241Y93976D01*
X267286Y94107D01*
X267327Y94239D01*
X267364Y94372D01*
X267398Y94506D01*
X267428Y94642D01*
X267453Y94777D01*
X267475Y94914D01*
X267493Y95051D01*
X267507Y95189D01*
X267517Y95327D01*
X267523Y95465D01*
X267525Y95603D01*
X248734Y90805D02*
X248734Y105198D01*
X242737Y105198D01*
X242619Y105196D01*
X242502Y105190D01*
X242384Y105181D01*
X242267Y105167D01*
X242151Y105150D01*
X242035Y105129D01*
X241920Y105104D01*
X241806Y105075D01*
X241693Y105043D01*
X241580Y105007D01*
X241470Y104967D01*
X241360Y104924D01*
X241252Y104877D01*
X241146Y104827D01*
X241041Y104773D01*
X240938Y104716D01*
X240837Y104655D01*
X240738Y104592D01*
X240641Y104525D01*
X240547Y104454D01*
X240454Y104381D01*
X240365Y104305D01*
X240277Y104226D01*
X240193Y104144D01*
X240111Y104060D01*
X240032Y103972D01*
X239956Y103883D01*
X239883Y103790D01*
X239812Y103696D01*
X239745Y103599D01*
X239682Y103500D01*
X239621Y103399D01*
X239564Y103296D01*
X239510Y103191D01*
X239460Y103085D01*
X239413Y102977D01*
X239370Y102867D01*
X239330Y102757D01*
X239294Y102644D01*
X239262Y102531D01*
X239233Y102417D01*
X239208Y102302D01*
X239187Y102186D01*
X239170Y102070D01*
X239156Y101953D01*
X239147Y101835D01*
X239141Y101718D01*
X239139Y101600D01*
X239138Y101600D02*
X239138Y90805D01*
X217616Y90805D02*
X217616Y112395D01*
X211619Y112395D01*
X211466Y112393D01*
X211313Y112387D01*
X211160Y112377D01*
X211007Y112364D01*
X210855Y112346D01*
X210704Y112325D01*
X210553Y112299D01*
X210402Y112270D01*
X210253Y112237D01*
X210104Y112200D01*
X209956Y112160D01*
X209810Y112116D01*
X209664Y112067D01*
X209520Y112016D01*
X209377Y111960D01*
X209236Y111901D01*
X209096Y111839D01*
X208958Y111772D01*
X208822Y111703D01*
X208687Y111629D01*
X208554Y111553D01*
X208424Y111473D01*
X208295Y111390D01*
X208169Y111303D01*
X208045Y111213D01*
X207923Y111121D01*
X207803Y111025D01*
X207687Y110926D01*
X207572Y110824D01*
X207460Y110719D01*
X207351Y110611D01*
X207245Y110501D01*
X207142Y110388D01*
X207041Y110272D01*
X206944Y110154D01*
X206850Y110034D01*
X206758Y109911D01*
X206670Y109785D01*
X206585Y109658D01*
X206504Y109528D01*
X206425Y109396D01*
X206351Y109263D01*
X206279Y109127D01*
X206211Y108990D01*
X206147Y108851D01*
X206086Y108711D01*
X206029Y108569D01*
X205975Y108425D01*
X205925Y108280D01*
X205879Y108134D01*
X205836Y107987D01*
X205798Y107839D01*
X205763Y107690D01*
X205732Y107540D01*
X205704Y107389D01*
X205681Y107238D01*
X205662Y107086D01*
X205646Y106933D01*
X205634Y106781D01*
X205626Y106628D01*
X205622Y106475D01*
X205622Y106321D01*
X205626Y106168D01*
X205634Y106015D01*
X205646Y105863D01*
X205662Y105710D01*
X205681Y105558D01*
X205704Y105407D01*
X205732Y105256D01*
X205763Y105106D01*
X205798Y104957D01*
X205836Y104809D01*
X205879Y104662D01*
X205925Y104516D01*
X205975Y104371D01*
X206029Y104227D01*
X206086Y104085D01*
X206147Y103945D01*
X206211Y103806D01*
X206279Y103669D01*
X206351Y103533D01*
X206425Y103399D01*
X206504Y103268D01*
X206585Y103138D01*
X206670Y103011D01*
X206758Y102885D01*
X206850Y102762D01*
X206944Y102642D01*
X207041Y102524D01*
X207142Y102408D01*
X207245Y102295D01*
X207351Y102185D01*
X207460Y102077D01*
X207572Y101972D01*
X207687Y101870D01*
X207803Y101771D01*
X207923Y101675D01*
X208045Y101583D01*
X208169Y101493D01*
X208295Y101406D01*
X208424Y101323D01*
X208554Y101243D01*
X208687Y101167D01*
X208822Y101093D01*
X208958Y101024D01*
X209096Y100957D01*
X209236Y100895D01*
X209377Y100836D01*
X209520Y100780D01*
X209664Y100729D01*
X209810Y100680D01*
X209956Y100636D01*
X210104Y100596D01*
X210253Y100559D01*
X210402Y100526D01*
X210553Y100497D01*
X210704Y100471D01*
X210855Y100450D01*
X211007Y100432D01*
X211160Y100419D01*
X211313Y100409D01*
X211466Y100403D01*
X211619Y100401D01*
X217616Y100401D01*
X192987Y90805D02*
X188189Y90805D01*
X192987Y90805D02*
X193124Y90807D01*
X193261Y90813D01*
X193398Y90823D01*
X193534Y90836D01*
X193670Y90854D01*
X193805Y90875D01*
X193940Y90901D01*
X194074Y90930D01*
X194207Y90963D01*
X194339Y90999D01*
X194470Y91040D01*
X194599Y91084D01*
X194728Y91132D01*
X194855Y91183D01*
X194980Y91239D01*
X195104Y91297D01*
X195226Y91359D01*
X195346Y91425D01*
X195465Y91494D01*
X195581Y91567D01*
X195695Y91642D01*
X195807Y91721D01*
X195917Y91803D01*
X196024Y91889D01*
X196129Y91977D01*
X196231Y92068D01*
X196331Y92162D01*
X196428Y92259D01*
X196522Y92359D01*
X196613Y92461D01*
X196701Y92566D01*
X196787Y92673D01*
X196869Y92783D01*
X196948Y92895D01*
X197023Y93009D01*
X197096Y93125D01*
X197165Y93244D01*
X197231Y93364D01*
X197293Y93486D01*
X197351Y93610D01*
X197407Y93735D01*
X197458Y93862D01*
X197506Y93991D01*
X197550Y94120D01*
X197591Y94251D01*
X197627Y94383D01*
X197660Y94516D01*
X197689Y94650D01*
X197715Y94785D01*
X197736Y94920D01*
X197754Y95056D01*
X197767Y95192D01*
X197777Y95329D01*
X197783Y95466D01*
X197785Y95603D01*
X197785Y107597D01*
X197783Y107734D01*
X197777Y107871D01*
X197767Y108008D01*
X197754Y108144D01*
X197736Y108280D01*
X197715Y108415D01*
X197689Y108550D01*
X197660Y108684D01*
X197627Y108817D01*
X197591Y108949D01*
X197550Y109080D01*
X197506Y109209D01*
X197458Y109338D01*
X197407Y109465D01*
X197351Y109590D01*
X197293Y109714D01*
X197231Y109836D01*
X197165Y109956D01*
X197096Y110075D01*
X197023Y110191D01*
X196948Y110305D01*
X196869Y110417D01*
X196787Y110527D01*
X196701Y110634D01*
X196613Y110739D01*
X196522Y110841D01*
X196428Y110941D01*
X196331Y111038D01*
X196231Y111132D01*
X196129Y111223D01*
X196024Y111311D01*
X195917Y111397D01*
X195807Y111479D01*
X195695Y111558D01*
X195581Y111633D01*
X195465Y111706D01*
X195346Y111775D01*
X195226Y111841D01*
X195104Y111903D01*
X194980Y111961D01*
X194855Y112017D01*
X194728Y112068D01*
X194599Y112116D01*
X194470Y112160D01*
X194339Y112201D01*
X194207Y112237D01*
X194074Y112270D01*
X193940Y112299D01*
X193805Y112325D01*
X193670Y112346D01*
X193534Y112364D01*
X193398Y112377D01*
X193261Y112387D01*
X193124Y112393D01*
X192987Y112395D01*
X188189Y112395D01*
X179338Y102799D02*
X173341Y102799D01*
X173188Y102797D01*
X173035Y102791D01*
X172882Y102781D01*
X172729Y102768D01*
X172577Y102750D01*
X172426Y102729D01*
X172275Y102703D01*
X172124Y102674D01*
X171975Y102641D01*
X171826Y102604D01*
X171678Y102564D01*
X171532Y102520D01*
X171386Y102471D01*
X171242Y102420D01*
X171099Y102364D01*
X170958Y102305D01*
X170818Y102243D01*
X170680Y102176D01*
X170544Y102107D01*
X170409Y102033D01*
X170276Y101957D01*
X170146Y101877D01*
X170017Y101794D01*
X169891Y101707D01*
X169767Y101617D01*
X169645Y101525D01*
X169525Y101429D01*
X169409Y101330D01*
X169294Y101228D01*
X169182Y101123D01*
X169073Y101015D01*
X168967Y100905D01*
X168864Y100792D01*
X168763Y100676D01*
X168666Y100558D01*
X168572Y100438D01*
X168480Y100315D01*
X168392Y100189D01*
X168307Y100062D01*
X168226Y99932D01*
X168147Y99800D01*
X168073Y99667D01*
X168001Y99531D01*
X167933Y99394D01*
X167869Y99255D01*
X167808Y99115D01*
X167751Y98973D01*
X167697Y98829D01*
X167647Y98684D01*
X167601Y98538D01*
X167558Y98391D01*
X167520Y98243D01*
X167485Y98094D01*
X167454Y97944D01*
X167426Y97793D01*
X167403Y97642D01*
X167384Y97490D01*
X167368Y97337D01*
X167356Y97185D01*
X167348Y97032D01*
X167344Y96879D01*
X167344Y96725D01*
X167348Y96572D01*
X167356Y96419D01*
X167368Y96267D01*
X167384Y96114D01*
X167403Y95962D01*
X167426Y95811D01*
X167454Y95660D01*
X167485Y95510D01*
X167520Y95361D01*
X167558Y95213D01*
X167601Y95066D01*
X167647Y94920D01*
X167697Y94775D01*
X167751Y94631D01*
X167808Y94489D01*
X167869Y94349D01*
X167933Y94210D01*
X168001Y94073D01*
X168073Y93937D01*
X168147Y93803D01*
X168226Y93672D01*
X168307Y93542D01*
X168392Y93415D01*
X168480Y93289D01*
X168572Y93166D01*
X168666Y93046D01*
X168763Y92928D01*
X168864Y92812D01*
X168967Y92699D01*
X169073Y92589D01*
X169182Y92481D01*
X169294Y92376D01*
X169409Y92274D01*
X169525Y92175D01*
X169645Y92079D01*
X169767Y91987D01*
X169891Y91897D01*
X170017Y91810D01*
X170146Y91727D01*
X170276Y91647D01*
X170409Y91571D01*
X170544Y91497D01*
X170680Y91428D01*
X170818Y91361D01*
X170958Y91299D01*
X171099Y91240D01*
X171242Y91184D01*
X171386Y91133D01*
X171532Y91084D01*
X171678Y91040D01*
X171826Y91000D01*
X171975Y90963D01*
X172124Y90930D01*
X172275Y90901D01*
X172426Y90875D01*
X172577Y90854D01*
X172729Y90836D01*
X172882Y90823D01*
X173035Y90813D01*
X173188Y90807D01*
X173341Y90805D01*
X179338Y90805D01*
X179338Y112395D01*
X173341Y112395D01*
X173203Y112393D01*
X173065Y112387D01*
X172927Y112377D01*
X172789Y112363D01*
X172652Y112345D01*
X172515Y112323D01*
X172380Y112298D01*
X172244Y112268D01*
X172110Y112234D01*
X171977Y112197D01*
X171845Y112156D01*
X171714Y112111D01*
X171585Y112062D01*
X171457Y112010D01*
X171331Y111954D01*
X171206Y111894D01*
X171083Y111830D01*
X170962Y111764D01*
X170843Y111693D01*
X170726Y111620D01*
X170611Y111543D01*
X170498Y111462D01*
X170388Y111379D01*
X170281Y111292D01*
X170175Y111202D01*
X170073Y111110D01*
X169973Y111014D01*
X169876Y110916D01*
X169782Y110814D01*
X169690Y110710D01*
X169602Y110604D01*
X169517Y110495D01*
X169435Y110384D01*
X169356Y110270D01*
X169281Y110154D01*
X169209Y110036D01*
X169140Y109916D01*
X169075Y109794D01*
X169014Y109670D01*
X168956Y109544D01*
X168902Y109417D01*
X168851Y109288D01*
X168804Y109158D01*
X168761Y109027D01*
X168722Y108894D01*
X168686Y108761D01*
X168655Y108626D01*
X168627Y108491D01*
X168603Y108354D01*
X168583Y108218D01*
X168567Y108080D01*
X168555Y107942D01*
X168547Y107804D01*
X168543Y107666D01*
X168543Y107528D01*
X168547Y107390D01*
X168555Y107252D01*
X168567Y107114D01*
X168583Y106976D01*
X168603Y106840D01*
X168627Y106703D01*
X168655Y106568D01*
X168686Y106433D01*
X168722Y106300D01*
X168761Y106167D01*
X168804Y106036D01*
X168851Y105906D01*
X168902Y105777D01*
X168956Y105650D01*
X169014Y105524D01*
X169075Y105400D01*
X169140Y105278D01*
X169209Y105158D01*
X169281Y105040D01*
X169356Y104924D01*
X169435Y104810D01*
X169517Y104699D01*
X169602Y104590D01*
X169690Y104484D01*
X169782Y104380D01*
X169876Y104278D01*
X169973Y104180D01*
X170073Y104084D01*
X170175Y103992D01*
X170281Y103902D01*
X170388Y103815D01*
X170498Y103732D01*
X170611Y103651D01*
X170726Y103574D01*
X170843Y103501D01*
X170962Y103430D01*
X171083Y103364D01*
X171206Y103300D01*
X171331Y103240D01*
X171457Y103184D01*
X171585Y103132D01*
X171714Y103083D01*
X171845Y103038D01*
X171977Y102997D01*
X172110Y102960D01*
X172244Y102926D01*
X172380Y102896D01*
X172515Y102871D01*
X172652Y102849D01*
X172789Y102831D01*
X172927Y102817D01*
X173065Y102807D01*
X173203Y102801D01*
X173341Y102799D01*
X442595Y74295D02*
X442595Y52705D01*
X435398Y62301D02*
X442595Y74295D01*
X435398Y62301D02*
X428202Y74295D01*
X428202Y52705D01*
X418429Y69497D02*
X412432Y74295D01*
X412432Y52705D01*
X418429Y52705D02*
X406435Y52705D01*
D10*
X313944Y206916D02*
X313944Y217584D01*
X310981Y217584D01*
X310874Y217582D01*
X310767Y217576D01*
X310661Y217567D01*
X310555Y217553D01*
X310449Y217536D01*
X310344Y217515D01*
X310240Y217490D01*
X310137Y217461D01*
X310035Y217429D01*
X309934Y217393D01*
X309835Y217353D01*
X309737Y217310D01*
X309641Y217263D01*
X309546Y217213D01*
X309453Y217160D01*
X309363Y217103D01*
X309274Y217043D01*
X309188Y216980D01*
X309104Y216914D01*
X309022Y216844D01*
X308943Y216772D01*
X308867Y216697D01*
X308793Y216619D01*
X308723Y216539D01*
X308655Y216456D01*
X308590Y216371D01*
X308529Y216284D01*
X308470Y216194D01*
X308415Y216103D01*
X308363Y216009D01*
X308315Y215913D01*
X308270Y215816D01*
X308228Y215718D01*
X308191Y215618D01*
X308156Y215516D01*
X308126Y215414D01*
X308099Y215310D01*
X308076Y215206D01*
X308057Y215100D01*
X308042Y214994D01*
X308030Y214888D01*
X308022Y214781D01*
X308018Y214674D01*
X308018Y214568D01*
X308022Y214461D01*
X308030Y214354D01*
X308042Y214248D01*
X308057Y214142D01*
X308076Y214036D01*
X308099Y213932D01*
X308126Y213828D01*
X308156Y213726D01*
X308191Y213624D01*
X308228Y213524D01*
X308270Y213426D01*
X308315Y213329D01*
X308363Y213233D01*
X308415Y213140D01*
X308470Y213048D01*
X308529Y212958D01*
X308590Y212871D01*
X308655Y212786D01*
X308723Y212703D01*
X308793Y212623D01*
X308867Y212545D01*
X308943Y212470D01*
X309022Y212398D01*
X309104Y212328D01*
X309188Y212262D01*
X309274Y212199D01*
X309363Y212139D01*
X309453Y212082D01*
X309546Y212029D01*
X309641Y211979D01*
X309737Y211932D01*
X309835Y211889D01*
X309934Y211849D01*
X310035Y211813D01*
X310137Y211781D01*
X310240Y211752D01*
X310344Y211727D01*
X310449Y211706D01*
X310555Y211689D01*
X310661Y211675D01*
X310767Y211666D01*
X310874Y211660D01*
X310981Y211658D01*
X310981Y211657D02*
X313944Y211657D01*
X310388Y211657D02*
X308017Y206916D01*
X301016Y206916D02*
X298052Y206916D01*
X301016Y206916D02*
X301098Y206918D01*
X301180Y206924D01*
X301262Y206933D01*
X301343Y206946D01*
X301423Y206963D01*
X301503Y206984D01*
X301581Y207008D01*
X301658Y207036D01*
X301734Y207067D01*
X301809Y207102D01*
X301881Y207141D01*
X301952Y207182D01*
X302021Y207227D01*
X302087Y207275D01*
X302152Y207326D01*
X302214Y207380D01*
X302273Y207437D01*
X302330Y207496D01*
X302384Y207558D01*
X302435Y207623D01*
X302483Y207689D01*
X302528Y207758D01*
X302569Y207829D01*
X302608Y207901D01*
X302643Y207976D01*
X302674Y208052D01*
X302702Y208129D01*
X302726Y208207D01*
X302747Y208287D01*
X302764Y208367D01*
X302777Y208448D01*
X302786Y208530D01*
X302792Y208612D01*
X302794Y208694D01*
X302794Y211657D01*
X302792Y211754D01*
X302786Y211850D01*
X302776Y211946D01*
X302762Y212042D01*
X302745Y212137D01*
X302723Y212232D01*
X302698Y212325D01*
X302669Y212417D01*
X302636Y212508D01*
X302599Y212598D01*
X302559Y212686D01*
X302515Y212772D01*
X302468Y212856D01*
X302418Y212939D01*
X302364Y213019D01*
X302306Y213097D01*
X302246Y213173D01*
X302183Y213246D01*
X302117Y213316D01*
X302047Y213384D01*
X301976Y213449D01*
X301901Y213511D01*
X301824Y213569D01*
X301745Y213625D01*
X301664Y213677D01*
X301580Y213726D01*
X301495Y213772D01*
X301408Y213814D01*
X301319Y213852D01*
X301229Y213887D01*
X301137Y213918D01*
X301044Y213945D01*
X300951Y213969D01*
X300856Y213988D01*
X300760Y214004D01*
X300664Y214016D01*
X300568Y214024D01*
X300471Y214028D01*
X300375Y214028D01*
X300278Y214024D01*
X300182Y214016D01*
X300086Y214004D01*
X299990Y213988D01*
X299895Y213969D01*
X299802Y213945D01*
X299709Y213918D01*
X299617Y213887D01*
X299527Y213852D01*
X299438Y213814D01*
X299351Y213772D01*
X299266Y213726D01*
X299182Y213677D01*
X299101Y213625D01*
X299022Y213569D01*
X298945Y213511D01*
X298870Y213449D01*
X298799Y213384D01*
X298729Y213316D01*
X298663Y213246D01*
X298600Y213173D01*
X298540Y213097D01*
X298482Y213019D01*
X298428Y212939D01*
X298378Y212856D01*
X298331Y212772D01*
X298287Y212686D01*
X298247Y212598D01*
X298210Y212508D01*
X298177Y212417D01*
X298148Y212325D01*
X298123Y212232D01*
X298101Y212137D01*
X298084Y212042D01*
X298070Y211946D01*
X298060Y211850D01*
X298054Y211754D01*
X298052Y211657D01*
X298052Y210472D01*
X302794Y210472D01*
X291999Y211065D02*
X289035Y209879D01*
X291999Y211064D02*
X292070Y211095D01*
X292140Y211129D01*
X292208Y211166D01*
X292273Y211207D01*
X292337Y211252D01*
X292398Y211299D01*
X292457Y211350D01*
X292514Y211403D01*
X292567Y211459D01*
X292618Y211518D01*
X292665Y211579D01*
X292710Y211643D01*
X292751Y211708D01*
X292789Y211776D01*
X292823Y211846D01*
X292854Y211917D01*
X292881Y211989D01*
X292904Y212063D01*
X292924Y212138D01*
X292940Y212214D01*
X292952Y212291D01*
X292960Y212368D01*
X292964Y212445D01*
X292965Y212523D01*
X292961Y212600D01*
X292954Y212678D01*
X292942Y212754D01*
X292927Y212830D01*
X292908Y212906D01*
X292885Y212980D01*
X292859Y213053D01*
X292829Y213124D01*
X292795Y213194D01*
X292758Y213262D01*
X292717Y213328D01*
X292673Y213392D01*
X292626Y213454D01*
X292576Y213513D01*
X292523Y213569D01*
X292467Y213623D01*
X292409Y213674D01*
X292348Y213722D01*
X292285Y213767D01*
X292219Y213809D01*
X292152Y213847D01*
X292082Y213882D01*
X292011Y213913D01*
X291939Y213941D01*
X291865Y213964D01*
X291790Y213985D01*
X291715Y214001D01*
X291638Y214014D01*
X291561Y214022D01*
X291484Y214027D01*
X291406Y214028D01*
X291244Y214024D01*
X291082Y214016D01*
X290921Y214004D01*
X290760Y213988D01*
X290599Y213968D01*
X290439Y213945D01*
X290280Y213917D01*
X290121Y213886D01*
X289963Y213851D01*
X289806Y213812D01*
X289650Y213769D01*
X289495Y213723D01*
X289341Y213673D01*
X289188Y213619D01*
X289037Y213561D01*
X288887Y213500D01*
X288739Y213436D01*
X289035Y209880D02*
X288964Y209849D01*
X288894Y209815D01*
X288826Y209778D01*
X288761Y209737D01*
X288697Y209692D01*
X288636Y209645D01*
X288577Y209594D01*
X288520Y209541D01*
X288467Y209485D01*
X288416Y209426D01*
X288369Y209365D01*
X288324Y209301D01*
X288283Y209236D01*
X288245Y209168D01*
X288211Y209098D01*
X288180Y209027D01*
X288153Y208955D01*
X288130Y208881D01*
X288110Y208806D01*
X288094Y208730D01*
X288082Y208653D01*
X288074Y208576D01*
X288070Y208499D01*
X288069Y208421D01*
X288073Y208344D01*
X288080Y208266D01*
X288092Y208190D01*
X288107Y208114D01*
X288126Y208038D01*
X288149Y207964D01*
X288175Y207891D01*
X288205Y207820D01*
X288239Y207750D01*
X288276Y207682D01*
X288317Y207616D01*
X288361Y207552D01*
X288408Y207490D01*
X288458Y207431D01*
X288511Y207375D01*
X288567Y207321D01*
X288625Y207270D01*
X288686Y207222D01*
X288749Y207177D01*
X288815Y207135D01*
X288882Y207097D01*
X288952Y207062D01*
X289022Y207031D01*
X289095Y207003D01*
X289169Y206980D01*
X289244Y206959D01*
X289319Y206943D01*
X289396Y206930D01*
X289473Y206922D01*
X289550Y206917D01*
X289628Y206916D01*
X289629Y206916D02*
X289866Y206922D01*
X290104Y206934D01*
X290341Y206951D01*
X290577Y206975D01*
X290813Y207003D01*
X291049Y207037D01*
X291283Y207077D01*
X291516Y207122D01*
X291749Y207173D01*
X291980Y207229D01*
X292209Y207291D01*
X292437Y207358D01*
X292664Y207431D01*
X292888Y207509D01*
X281204Y206916D02*
X278240Y206916D01*
X281204Y206916D02*
X281286Y206918D01*
X281368Y206924D01*
X281450Y206933D01*
X281531Y206946D01*
X281611Y206963D01*
X281691Y206984D01*
X281769Y207008D01*
X281846Y207036D01*
X281922Y207067D01*
X281997Y207102D01*
X282069Y207141D01*
X282140Y207182D01*
X282209Y207227D01*
X282275Y207275D01*
X282340Y207326D01*
X282402Y207380D01*
X282461Y207437D01*
X282518Y207496D01*
X282572Y207558D01*
X282623Y207623D01*
X282671Y207689D01*
X282716Y207758D01*
X282757Y207829D01*
X282796Y207901D01*
X282831Y207976D01*
X282862Y208052D01*
X282890Y208129D01*
X282914Y208207D01*
X282935Y208287D01*
X282952Y208367D01*
X282965Y208448D01*
X282974Y208530D01*
X282980Y208612D01*
X282982Y208694D01*
X282982Y211657D01*
X282980Y211754D01*
X282974Y211850D01*
X282964Y211946D01*
X282950Y212042D01*
X282933Y212137D01*
X282911Y212232D01*
X282886Y212325D01*
X282857Y212417D01*
X282824Y212508D01*
X282787Y212598D01*
X282747Y212686D01*
X282703Y212772D01*
X282656Y212856D01*
X282606Y212939D01*
X282552Y213019D01*
X282494Y213097D01*
X282434Y213173D01*
X282371Y213246D01*
X282305Y213316D01*
X282235Y213384D01*
X282164Y213449D01*
X282089Y213511D01*
X282012Y213569D01*
X281933Y213625D01*
X281852Y213677D01*
X281768Y213726D01*
X281683Y213772D01*
X281596Y213814D01*
X281507Y213852D01*
X281417Y213887D01*
X281325Y213918D01*
X281232Y213945D01*
X281139Y213969D01*
X281044Y213988D01*
X280948Y214004D01*
X280852Y214016D01*
X280756Y214024D01*
X280659Y214028D01*
X280563Y214028D01*
X280466Y214024D01*
X280370Y214016D01*
X280274Y214004D01*
X280178Y213988D01*
X280083Y213969D01*
X279990Y213945D01*
X279897Y213918D01*
X279805Y213887D01*
X279715Y213852D01*
X279626Y213814D01*
X279539Y213772D01*
X279454Y213726D01*
X279370Y213677D01*
X279289Y213625D01*
X279210Y213569D01*
X279133Y213511D01*
X279058Y213449D01*
X278987Y213384D01*
X278917Y213316D01*
X278851Y213246D01*
X278788Y213173D01*
X278728Y213097D01*
X278670Y213019D01*
X278616Y212939D01*
X278566Y212856D01*
X278519Y212772D01*
X278475Y212686D01*
X278435Y212598D01*
X278398Y212508D01*
X278365Y212417D01*
X278336Y212325D01*
X278311Y212232D01*
X278289Y212137D01*
X278272Y212042D01*
X278258Y211946D01*
X278248Y211850D01*
X278242Y211754D01*
X278240Y211657D01*
X278240Y210472D01*
X282982Y210472D01*
X274146Y214028D02*
X270590Y214028D01*
X272960Y217584D02*
X272960Y208694D01*
X272958Y208612D01*
X272952Y208530D01*
X272943Y208448D01*
X272930Y208367D01*
X272913Y208287D01*
X272892Y208207D01*
X272868Y208129D01*
X272840Y208052D01*
X272809Y207976D01*
X272774Y207901D01*
X272735Y207829D01*
X272694Y207758D01*
X272649Y207689D01*
X272601Y207623D01*
X272550Y207558D01*
X272496Y207496D01*
X272439Y207437D01*
X272380Y207380D01*
X272318Y207326D01*
X272253Y207275D01*
X272187Y207227D01*
X272118Y207182D01*
X272047Y207141D01*
X271975Y207102D01*
X271900Y207067D01*
X271824Y207036D01*
X271747Y207008D01*
X271669Y206984D01*
X271589Y206963D01*
X271509Y206946D01*
X271428Y206933D01*
X271346Y206924D01*
X271264Y206918D01*
X271182Y206916D01*
X270590Y206916D01*
X542544Y91271D02*
X542544Y86529D01*
X542544Y91271D02*
X542542Y91378D01*
X542536Y91485D01*
X542527Y91591D01*
X542513Y91697D01*
X542496Y91803D01*
X542475Y91908D01*
X542450Y92012D01*
X542421Y92115D01*
X542389Y92217D01*
X542353Y92318D01*
X542313Y92417D01*
X542270Y92515D01*
X542223Y92611D01*
X542173Y92706D01*
X542120Y92799D01*
X542063Y92889D01*
X542003Y92978D01*
X541940Y93064D01*
X541874Y93148D01*
X541804Y93230D01*
X541732Y93309D01*
X541657Y93385D01*
X541579Y93459D01*
X541499Y93529D01*
X541416Y93597D01*
X541331Y93662D01*
X541244Y93723D01*
X541154Y93782D01*
X541063Y93837D01*
X540969Y93889D01*
X540873Y93937D01*
X540776Y93982D01*
X540678Y94024D01*
X540578Y94061D01*
X540476Y94096D01*
X540374Y94126D01*
X540270Y94153D01*
X540166Y94176D01*
X540060Y94195D01*
X539954Y94210D01*
X539848Y94222D01*
X539741Y94230D01*
X539634Y94234D01*
X539528Y94234D01*
X539421Y94230D01*
X539314Y94222D01*
X539208Y94210D01*
X539102Y94195D01*
X538996Y94176D01*
X538892Y94153D01*
X538788Y94126D01*
X538686Y94096D01*
X538584Y94061D01*
X538484Y94024D01*
X538386Y93982D01*
X538289Y93937D01*
X538193Y93889D01*
X538100Y93837D01*
X538008Y93782D01*
X537918Y93723D01*
X537831Y93662D01*
X537746Y93597D01*
X537663Y93529D01*
X537583Y93459D01*
X537505Y93385D01*
X537430Y93309D01*
X537358Y93230D01*
X537288Y93148D01*
X537222Y93064D01*
X537159Y92978D01*
X537099Y92889D01*
X537042Y92799D01*
X536989Y92706D01*
X536939Y92611D01*
X536892Y92515D01*
X536849Y92417D01*
X536809Y92318D01*
X536773Y92217D01*
X536741Y92115D01*
X536712Y92012D01*
X536687Y91908D01*
X536666Y91803D01*
X536649Y91697D01*
X536635Y91591D01*
X536626Y91485D01*
X536620Y91378D01*
X536618Y91271D01*
X536617Y91271D02*
X536617Y86529D01*
X536618Y86529D02*
X536620Y86422D01*
X536626Y86315D01*
X536635Y86209D01*
X536649Y86103D01*
X536666Y85997D01*
X536687Y85892D01*
X536712Y85788D01*
X536741Y85685D01*
X536773Y85583D01*
X536809Y85482D01*
X536849Y85383D01*
X536892Y85285D01*
X536939Y85189D01*
X536989Y85094D01*
X537042Y85001D01*
X537099Y84911D01*
X537159Y84822D01*
X537222Y84736D01*
X537288Y84652D01*
X537358Y84570D01*
X537430Y84491D01*
X537505Y84415D01*
X537583Y84341D01*
X537663Y84271D01*
X537746Y84203D01*
X537831Y84138D01*
X537918Y84077D01*
X538008Y84018D01*
X538100Y83963D01*
X538193Y83911D01*
X538289Y83863D01*
X538386Y83818D01*
X538484Y83776D01*
X538584Y83739D01*
X538686Y83704D01*
X538788Y83674D01*
X538892Y83647D01*
X538996Y83624D01*
X539102Y83605D01*
X539208Y83590D01*
X539314Y83578D01*
X539421Y83570D01*
X539528Y83566D01*
X539634Y83566D01*
X539741Y83570D01*
X539848Y83578D01*
X539954Y83590D01*
X540060Y83605D01*
X540166Y83624D01*
X540270Y83647D01*
X540374Y83674D01*
X540476Y83704D01*
X540578Y83739D01*
X540678Y83776D01*
X540776Y83818D01*
X540873Y83863D01*
X540969Y83911D01*
X541063Y83963D01*
X541154Y84018D01*
X541244Y84077D01*
X541331Y84138D01*
X541416Y84203D01*
X541499Y84271D01*
X541579Y84341D01*
X541657Y84415D01*
X541732Y84491D01*
X541804Y84570D01*
X541874Y84652D01*
X541940Y84736D01*
X542003Y84822D01*
X542063Y84911D01*
X542120Y85001D01*
X542173Y85094D01*
X542223Y85189D01*
X542270Y85285D01*
X542313Y85383D01*
X542353Y85482D01*
X542389Y85583D01*
X542421Y85685D01*
X542450Y85788D01*
X542475Y85892D01*
X542496Y85997D01*
X542513Y86103D01*
X542527Y86209D01*
X542536Y86315D01*
X542542Y86422D01*
X542544Y86529D01*
X530733Y83566D02*
X530733Y94234D01*
X524806Y83566D01*
X524806Y94234D01*
X542544Y111929D02*
X542544Y116671D01*
X542542Y116778D01*
X542536Y116885D01*
X542527Y116991D01*
X542513Y117097D01*
X542496Y117203D01*
X542475Y117308D01*
X542450Y117412D01*
X542421Y117515D01*
X542389Y117617D01*
X542353Y117718D01*
X542313Y117817D01*
X542270Y117915D01*
X542223Y118011D01*
X542173Y118106D01*
X542120Y118199D01*
X542063Y118289D01*
X542003Y118378D01*
X541940Y118464D01*
X541874Y118548D01*
X541804Y118630D01*
X541732Y118709D01*
X541657Y118785D01*
X541579Y118859D01*
X541499Y118929D01*
X541416Y118997D01*
X541331Y119062D01*
X541244Y119123D01*
X541154Y119182D01*
X541063Y119237D01*
X540969Y119289D01*
X540873Y119337D01*
X540776Y119382D01*
X540678Y119424D01*
X540578Y119461D01*
X540476Y119496D01*
X540374Y119526D01*
X540270Y119553D01*
X540166Y119576D01*
X540060Y119595D01*
X539954Y119610D01*
X539848Y119622D01*
X539741Y119630D01*
X539634Y119634D01*
X539528Y119634D01*
X539421Y119630D01*
X539314Y119622D01*
X539208Y119610D01*
X539102Y119595D01*
X538996Y119576D01*
X538892Y119553D01*
X538788Y119526D01*
X538686Y119496D01*
X538584Y119461D01*
X538484Y119424D01*
X538386Y119382D01*
X538289Y119337D01*
X538193Y119289D01*
X538100Y119237D01*
X538008Y119182D01*
X537918Y119123D01*
X537831Y119062D01*
X537746Y118997D01*
X537663Y118929D01*
X537583Y118859D01*
X537505Y118785D01*
X537430Y118709D01*
X537358Y118630D01*
X537288Y118548D01*
X537222Y118464D01*
X537159Y118378D01*
X537099Y118289D01*
X537042Y118199D01*
X536989Y118106D01*
X536939Y118011D01*
X536892Y117915D01*
X536849Y117817D01*
X536809Y117718D01*
X536773Y117617D01*
X536741Y117515D01*
X536712Y117412D01*
X536687Y117308D01*
X536666Y117203D01*
X536649Y117097D01*
X536635Y116991D01*
X536626Y116885D01*
X536620Y116778D01*
X536618Y116671D01*
X536617Y116671D02*
X536617Y111929D01*
X536618Y111929D02*
X536620Y111822D01*
X536626Y111715D01*
X536635Y111609D01*
X536649Y111503D01*
X536666Y111397D01*
X536687Y111292D01*
X536712Y111188D01*
X536741Y111085D01*
X536773Y110983D01*
X536809Y110882D01*
X536849Y110783D01*
X536892Y110685D01*
X536939Y110589D01*
X536989Y110494D01*
X537042Y110401D01*
X537099Y110311D01*
X537159Y110222D01*
X537222Y110136D01*
X537288Y110052D01*
X537358Y109970D01*
X537430Y109891D01*
X537505Y109815D01*
X537583Y109741D01*
X537663Y109671D01*
X537746Y109603D01*
X537831Y109538D01*
X537918Y109477D01*
X538008Y109418D01*
X538100Y109363D01*
X538193Y109311D01*
X538289Y109263D01*
X538386Y109218D01*
X538484Y109176D01*
X538584Y109139D01*
X538686Y109104D01*
X538788Y109074D01*
X538892Y109047D01*
X538996Y109024D01*
X539102Y109005D01*
X539208Y108990D01*
X539314Y108978D01*
X539421Y108970D01*
X539528Y108966D01*
X539634Y108966D01*
X539741Y108970D01*
X539848Y108978D01*
X539954Y108990D01*
X540060Y109005D01*
X540166Y109024D01*
X540270Y109047D01*
X540374Y109074D01*
X540476Y109104D01*
X540578Y109139D01*
X540678Y109176D01*
X540776Y109218D01*
X540873Y109263D01*
X540969Y109311D01*
X541063Y109363D01*
X541154Y109418D01*
X541244Y109477D01*
X541331Y109538D01*
X541416Y109603D01*
X541499Y109671D01*
X541579Y109741D01*
X541657Y109815D01*
X541732Y109891D01*
X541804Y109970D01*
X541874Y110052D01*
X541940Y110136D01*
X542003Y110222D01*
X542063Y110311D01*
X542120Y110401D01*
X542173Y110494D01*
X542223Y110589D01*
X542270Y110685D01*
X542313Y110783D01*
X542353Y110882D01*
X542389Y110983D01*
X542421Y111085D01*
X542450Y111188D01*
X542475Y111292D01*
X542496Y111397D01*
X542513Y111503D01*
X542527Y111609D01*
X542536Y111715D01*
X542542Y111822D01*
X542544Y111929D01*
X530699Y108966D02*
X530699Y119634D01*
X525958Y119634D01*
X525958Y114893D02*
X530699Y114893D01*
X520793Y119634D02*
X520793Y108966D01*
X520793Y119634D02*
X516052Y119634D01*
X516052Y114893D02*
X520793Y114893D01*
D12*
X565150Y165100D02*
X558800Y171450D01*
X558800Y184150D02*
X565150Y190500D01*
X558800Y196850D01*
X558800Y209550D02*
X565150Y215900D01*
X565150Y165100D02*
X603250Y165100D01*
X609600Y171450D01*
X609600Y184150D01*
X603250Y190500D01*
X609600Y196850D01*
X609600Y209550D01*
X603250Y215900D01*
X603250Y190500D02*
X565150Y190500D01*
X565150Y215900D02*
X603250Y215900D01*
X558800Y209550D02*
X558800Y196850D01*
X558800Y184150D02*
X558800Y171450D01*
X565150Y215900D02*
X558800Y222250D01*
X558800Y234950D02*
X565150Y241300D01*
X603250Y215900D02*
X609600Y222250D01*
X609600Y234950D01*
X603250Y241300D01*
X565150Y241300D01*
X558800Y234950D02*
X558800Y222250D01*
D10*
X592328Y276437D02*
X592328Y284734D01*
X592328Y276437D02*
X592330Y276342D01*
X592336Y276246D01*
X592345Y276151D01*
X592359Y276057D01*
X592376Y275963D01*
X592397Y275870D01*
X592422Y275777D01*
X592450Y275686D01*
X592482Y275596D01*
X592518Y275508D01*
X592557Y275421D01*
X592600Y275335D01*
X592646Y275252D01*
X592695Y275170D01*
X592748Y275090D01*
X592804Y275013D01*
X592862Y274937D01*
X592924Y274865D01*
X592989Y274795D01*
X593057Y274727D01*
X593127Y274662D01*
X593199Y274600D01*
X593275Y274542D01*
X593352Y274486D01*
X593432Y274433D01*
X593514Y274384D01*
X593597Y274338D01*
X593683Y274295D01*
X593770Y274256D01*
X593858Y274220D01*
X593948Y274188D01*
X594039Y274160D01*
X594132Y274135D01*
X594225Y274114D01*
X594319Y274097D01*
X594413Y274083D01*
X594508Y274074D01*
X594604Y274068D01*
X594699Y274066D01*
X595884Y274066D01*
X585878Y274066D02*
X585878Y284734D01*
X582915Y284734D01*
X582808Y284732D01*
X582701Y284726D01*
X582595Y284717D01*
X582489Y284703D01*
X582383Y284686D01*
X582278Y284665D01*
X582174Y284640D01*
X582071Y284611D01*
X581969Y284579D01*
X581868Y284543D01*
X581769Y284503D01*
X581671Y284460D01*
X581575Y284413D01*
X581480Y284363D01*
X581387Y284310D01*
X581297Y284253D01*
X581208Y284193D01*
X581122Y284130D01*
X581038Y284064D01*
X580956Y283994D01*
X580877Y283922D01*
X580801Y283847D01*
X580727Y283769D01*
X580657Y283689D01*
X580589Y283606D01*
X580524Y283521D01*
X580463Y283434D01*
X580404Y283344D01*
X580349Y283253D01*
X580297Y283159D01*
X580249Y283063D01*
X580204Y282966D01*
X580162Y282868D01*
X580125Y282768D01*
X580090Y282666D01*
X580060Y282564D01*
X580033Y282460D01*
X580010Y282356D01*
X579991Y282250D01*
X579976Y282144D01*
X579964Y282038D01*
X579956Y281931D01*
X579952Y281824D01*
X579952Y281718D01*
X579956Y281611D01*
X579964Y281504D01*
X579976Y281398D01*
X579991Y281292D01*
X580010Y281186D01*
X580033Y281082D01*
X580060Y280978D01*
X580090Y280876D01*
X580125Y280774D01*
X580162Y280674D01*
X580204Y280576D01*
X580249Y280479D01*
X580297Y280383D01*
X580349Y280290D01*
X580404Y280198D01*
X580463Y280108D01*
X580524Y280021D01*
X580589Y279936D01*
X580657Y279853D01*
X580727Y279773D01*
X580801Y279695D01*
X580877Y279620D01*
X580956Y279548D01*
X581038Y279478D01*
X581122Y279412D01*
X581208Y279349D01*
X581297Y279289D01*
X581387Y279232D01*
X581480Y279179D01*
X581575Y279129D01*
X581671Y279082D01*
X581769Y279039D01*
X581868Y278999D01*
X581969Y278963D01*
X582071Y278931D01*
X582174Y278902D01*
X582278Y278877D01*
X582383Y278856D01*
X582489Y278839D01*
X582595Y278825D01*
X582701Y278816D01*
X582808Y278810D01*
X582915Y278808D01*
X582915Y278807D02*
X585878Y278807D01*
X575083Y282363D02*
X572120Y284734D01*
X572120Y274066D01*
X575083Y274066D02*
X569157Y274066D01*
D12*
X582500Y142500D02*
X582500Y57500D01*
X582500Y142500D02*
X547500Y142500D01*
X547500Y57500D01*
X582500Y57500D01*
D10*
X578843Y39887D02*
X578845Y39792D01*
X578851Y39696D01*
X578860Y39601D01*
X578874Y39507D01*
X578891Y39413D01*
X578912Y39320D01*
X578937Y39227D01*
X578965Y39136D01*
X578997Y39046D01*
X579033Y38958D01*
X579072Y38871D01*
X579115Y38785D01*
X579161Y38702D01*
X579210Y38620D01*
X579263Y38540D01*
X579319Y38463D01*
X579377Y38387D01*
X579439Y38315D01*
X579504Y38245D01*
X579572Y38177D01*
X579642Y38112D01*
X579714Y38050D01*
X579790Y37992D01*
X579867Y37936D01*
X579947Y37883D01*
X580029Y37834D01*
X580112Y37788D01*
X580198Y37745D01*
X580285Y37706D01*
X580373Y37670D01*
X580463Y37638D01*
X580554Y37610D01*
X580647Y37585D01*
X580740Y37564D01*
X580834Y37547D01*
X580928Y37533D01*
X581023Y37524D01*
X581119Y37518D01*
X581214Y37516D01*
X581350Y37518D01*
X581487Y37523D01*
X581623Y37533D01*
X581758Y37546D01*
X581894Y37562D01*
X582028Y37583D01*
X582163Y37607D01*
X582296Y37634D01*
X582429Y37666D01*
X582561Y37700D01*
X582692Y37739D01*
X582821Y37781D01*
X582950Y37826D01*
X583077Y37875D01*
X583203Y37928D01*
X583327Y37984D01*
X583450Y38043D01*
X583571Y38105D01*
X583691Y38171D01*
X583808Y38240D01*
X583924Y38313D01*
X584038Y38388D01*
X584149Y38466D01*
X584258Y38548D01*
X584366Y38632D01*
X584470Y38719D01*
X584573Y38809D01*
X584673Y38902D01*
X584770Y38998D01*
X584474Y45813D02*
X584472Y45908D01*
X584466Y46004D01*
X584457Y46099D01*
X584443Y46193D01*
X584426Y46287D01*
X584405Y46380D01*
X584380Y46473D01*
X584352Y46564D01*
X584320Y46654D01*
X584284Y46742D01*
X584245Y46829D01*
X584202Y46915D01*
X584156Y46999D01*
X584107Y47080D01*
X584054Y47160D01*
X583998Y47237D01*
X583940Y47313D01*
X583878Y47385D01*
X583813Y47455D01*
X583745Y47523D01*
X583675Y47588D01*
X583603Y47650D01*
X583527Y47708D01*
X583450Y47764D01*
X583370Y47817D01*
X583289Y47866D01*
X583205Y47912D01*
X583119Y47955D01*
X583032Y47994D01*
X582944Y48030D01*
X582854Y48062D01*
X582763Y48090D01*
X582670Y48115D01*
X582577Y48136D01*
X582483Y48153D01*
X582389Y48167D01*
X582294Y48176D01*
X582198Y48182D01*
X582103Y48184D01*
X581973Y48182D01*
X581843Y48176D01*
X581713Y48167D01*
X581584Y48154D01*
X581455Y48137D01*
X581327Y48116D01*
X581199Y48091D01*
X581072Y48063D01*
X580946Y48031D01*
X580821Y47995D01*
X580697Y47956D01*
X580575Y47913D01*
X580453Y47867D01*
X580333Y47816D01*
X580215Y47763D01*
X580098Y47706D01*
X579983Y47646D01*
X579869Y47582D01*
X579758Y47515D01*
X579648Y47445D01*
X579541Y47371D01*
X579436Y47295D01*
X583289Y43738D02*
X583370Y43789D01*
X583450Y43843D01*
X583528Y43899D01*
X583603Y43959D01*
X583676Y44022D01*
X583746Y44088D01*
X583813Y44156D01*
X583878Y44227D01*
X583940Y44301D01*
X583999Y44377D01*
X584055Y44455D01*
X584107Y44536D01*
X584157Y44618D01*
X584203Y44703D01*
X584245Y44789D01*
X584285Y44877D01*
X584320Y44966D01*
X584352Y45057D01*
X584381Y45149D01*
X584405Y45242D01*
X584426Y45335D01*
X584443Y45430D01*
X584457Y45525D01*
X584466Y45621D01*
X584472Y45717D01*
X584474Y45813D01*
X580029Y41962D02*
X579947Y41911D01*
X579867Y41857D01*
X579789Y41801D01*
X579714Y41741D01*
X579641Y41678D01*
X579571Y41612D01*
X579504Y41544D01*
X579439Y41473D01*
X579377Y41399D01*
X579318Y41323D01*
X579262Y41245D01*
X579210Y41164D01*
X579160Y41082D01*
X579114Y40997D01*
X579072Y40911D01*
X579032Y40823D01*
X578997Y40734D01*
X578965Y40643D01*
X578936Y40551D01*
X578912Y40458D01*
X578891Y40365D01*
X578874Y40270D01*
X578860Y40175D01*
X578851Y40079D01*
X578845Y39983D01*
X578843Y39887D01*
X580028Y41961D02*
X583288Y43739D01*
X573975Y48184D02*
X571604Y37516D01*
X569233Y44628D01*
X566863Y37516D01*
X564492Y48184D01*
X559243Y45813D02*
X556279Y48184D01*
X556279Y37516D01*
X553316Y37516D02*
X559243Y37516D01*
D13*
X322100Y223000D02*
X262100Y223000D01*
X322100Y223000D02*
X322100Y285000D01*
X262100Y285000D01*
X262100Y223000D01*
D12*
X274320Y254000D02*
X274325Y254436D01*
X274341Y254872D01*
X274368Y255308D01*
X274406Y255743D01*
X274454Y256176D01*
X274512Y256609D01*
X274582Y257040D01*
X274662Y257469D01*
X274752Y257896D01*
X274853Y258320D01*
X274964Y258742D01*
X275086Y259161D01*
X275217Y259577D01*
X275359Y259990D01*
X275511Y260399D01*
X275673Y260804D01*
X275845Y261205D01*
X276027Y261602D01*
X276218Y261994D01*
X276419Y262381D01*
X276630Y262764D01*
X276850Y263141D01*
X277079Y263512D01*
X277316Y263878D01*
X277563Y264238D01*
X277819Y264592D01*
X278083Y264939D01*
X278356Y265280D01*
X278637Y265613D01*
X278926Y265940D01*
X279223Y266260D01*
X279528Y266572D01*
X279840Y266877D01*
X280160Y267174D01*
X280487Y267463D01*
X280820Y267744D01*
X281161Y268017D01*
X281508Y268281D01*
X281862Y268537D01*
X282222Y268784D01*
X282588Y269021D01*
X282959Y269250D01*
X283336Y269470D01*
X283719Y269681D01*
X284106Y269882D01*
X284498Y270073D01*
X284895Y270255D01*
X285296Y270427D01*
X285701Y270589D01*
X286110Y270741D01*
X286523Y270883D01*
X286939Y271014D01*
X287358Y271136D01*
X287780Y271247D01*
X288204Y271348D01*
X288631Y271438D01*
X289060Y271518D01*
X289491Y271588D01*
X289924Y271646D01*
X290357Y271694D01*
X290792Y271732D01*
X291228Y271759D01*
X291664Y271775D01*
X292100Y271780D01*
X292536Y271775D01*
X292972Y271759D01*
X293408Y271732D01*
X293843Y271694D01*
X294276Y271646D01*
X294709Y271588D01*
X295140Y271518D01*
X295569Y271438D01*
X295996Y271348D01*
X296420Y271247D01*
X296842Y271136D01*
X297261Y271014D01*
X297677Y270883D01*
X298090Y270741D01*
X298499Y270589D01*
X298904Y270427D01*
X299305Y270255D01*
X299702Y270073D01*
X300094Y269882D01*
X300481Y269681D01*
X300864Y269470D01*
X301241Y269250D01*
X301612Y269021D01*
X301978Y268784D01*
X302338Y268537D01*
X302692Y268281D01*
X303039Y268017D01*
X303380Y267744D01*
X303713Y267463D01*
X304040Y267174D01*
X304360Y266877D01*
X304672Y266572D01*
X304977Y266260D01*
X305274Y265940D01*
X305563Y265613D01*
X305844Y265280D01*
X306117Y264939D01*
X306381Y264592D01*
X306637Y264238D01*
X306884Y263878D01*
X307121Y263512D01*
X307350Y263141D01*
X307570Y262764D01*
X307781Y262381D01*
X307982Y261994D01*
X308173Y261602D01*
X308355Y261205D01*
X308527Y260804D01*
X308689Y260399D01*
X308841Y259990D01*
X308983Y259577D01*
X309114Y259161D01*
X309236Y258742D01*
X309347Y258320D01*
X309448Y257896D01*
X309538Y257469D01*
X309618Y257040D01*
X309688Y256609D01*
X309746Y256176D01*
X309794Y255743D01*
X309832Y255308D01*
X309859Y254872D01*
X309875Y254436D01*
X309880Y254000D01*
X309875Y253564D01*
X309859Y253128D01*
X309832Y252692D01*
X309794Y252257D01*
X309746Y251824D01*
X309688Y251391D01*
X309618Y250960D01*
X309538Y250531D01*
X309448Y250104D01*
X309347Y249680D01*
X309236Y249258D01*
X309114Y248839D01*
X308983Y248423D01*
X308841Y248010D01*
X308689Y247601D01*
X308527Y247196D01*
X308355Y246795D01*
X308173Y246398D01*
X307982Y246006D01*
X307781Y245619D01*
X307570Y245236D01*
X307350Y244859D01*
X307121Y244488D01*
X306884Y244122D01*
X306637Y243762D01*
X306381Y243408D01*
X306117Y243061D01*
X305844Y242720D01*
X305563Y242387D01*
X305274Y242060D01*
X304977Y241740D01*
X304672Y241428D01*
X304360Y241123D01*
X304040Y240826D01*
X303713Y240537D01*
X303380Y240256D01*
X303039Y239983D01*
X302692Y239719D01*
X302338Y239463D01*
X301978Y239216D01*
X301612Y238979D01*
X301241Y238750D01*
X300864Y238530D01*
X300481Y238319D01*
X300094Y238118D01*
X299702Y237927D01*
X299305Y237745D01*
X298904Y237573D01*
X298499Y237411D01*
X298090Y237259D01*
X297677Y237117D01*
X297261Y236986D01*
X296842Y236864D01*
X296420Y236753D01*
X295996Y236652D01*
X295569Y236562D01*
X295140Y236482D01*
X294709Y236412D01*
X294276Y236354D01*
X293843Y236306D01*
X293408Y236268D01*
X292972Y236241D01*
X292536Y236225D01*
X292100Y236220D01*
X291664Y236225D01*
X291228Y236241D01*
X290792Y236268D01*
X290357Y236306D01*
X289924Y236354D01*
X289491Y236412D01*
X289060Y236482D01*
X288631Y236562D01*
X288204Y236652D01*
X287780Y236753D01*
X287358Y236864D01*
X286939Y236986D01*
X286523Y237117D01*
X286110Y237259D01*
X285701Y237411D01*
X285296Y237573D01*
X284895Y237745D01*
X284498Y237927D01*
X284106Y238118D01*
X283719Y238319D01*
X283336Y238530D01*
X282959Y238750D01*
X282588Y238979D01*
X282222Y239216D01*
X281862Y239463D01*
X281508Y239719D01*
X281161Y239983D01*
X280820Y240256D01*
X280487Y240537D01*
X280160Y240826D01*
X279840Y241123D01*
X279528Y241428D01*
X279223Y241740D01*
X278926Y242060D01*
X278637Y242387D01*
X278356Y242720D01*
X278083Y243061D01*
X277819Y243408D01*
X277563Y243762D01*
X277316Y244122D01*
X277079Y244488D01*
X276850Y244859D01*
X276630Y245236D01*
X276419Y245619D01*
X276218Y246006D01*
X276027Y246398D01*
X275845Y246795D01*
X275673Y247196D01*
X275511Y247601D01*
X275359Y248010D01*
X275217Y248423D01*
X275086Y248839D01*
X274964Y249258D01*
X274853Y249680D01*
X274752Y250104D01*
X274662Y250531D01*
X274582Y250960D01*
X274512Y251391D01*
X274454Y251824D01*
X274406Y252257D01*
X274368Y252692D01*
X274341Y253128D01*
X274325Y253564D01*
X274320Y254000D01*
X289560Y254000D02*
X289562Y254100D01*
X289568Y254201D01*
X289578Y254300D01*
X289592Y254400D01*
X289609Y254499D01*
X289631Y254597D01*
X289657Y254694D01*
X289686Y254790D01*
X289719Y254884D01*
X289756Y254978D01*
X289796Y255070D01*
X289840Y255160D01*
X289888Y255248D01*
X289939Y255335D01*
X289993Y255419D01*
X290051Y255501D01*
X290112Y255581D01*
X290176Y255658D01*
X290243Y255733D01*
X290313Y255805D01*
X290386Y255874D01*
X290461Y255940D01*
X290539Y256004D01*
X290619Y256064D01*
X290702Y256121D01*
X290787Y256174D01*
X290874Y256224D01*
X290963Y256271D01*
X291053Y256314D01*
X291145Y256354D01*
X291239Y256390D01*
X291334Y256422D01*
X291430Y256450D01*
X291528Y256475D01*
X291626Y256495D01*
X291725Y256512D01*
X291825Y256525D01*
X291924Y256534D01*
X292025Y256539D01*
X292125Y256540D01*
X292225Y256537D01*
X292326Y256530D01*
X292425Y256519D01*
X292525Y256504D01*
X292623Y256486D01*
X292721Y256463D01*
X292818Y256436D01*
X292913Y256406D01*
X293008Y256372D01*
X293101Y256334D01*
X293192Y256293D01*
X293282Y256248D01*
X293370Y256200D01*
X293456Y256148D01*
X293540Y256093D01*
X293621Y256034D01*
X293700Y255972D01*
X293777Y255908D01*
X293851Y255840D01*
X293922Y255769D01*
X293991Y255696D01*
X294056Y255620D01*
X294119Y255541D01*
X294178Y255460D01*
X294234Y255377D01*
X294287Y255292D01*
X294336Y255204D01*
X294382Y255115D01*
X294424Y255024D01*
X294463Y254931D01*
X294498Y254837D01*
X294529Y254742D01*
X294557Y254645D01*
X294580Y254548D01*
X294600Y254449D01*
X294616Y254350D01*
X294628Y254251D01*
X294636Y254150D01*
X294640Y254050D01*
X294640Y253950D01*
X294636Y253850D01*
X294628Y253749D01*
X294616Y253650D01*
X294600Y253551D01*
X294580Y253452D01*
X294557Y253355D01*
X294529Y253258D01*
X294498Y253163D01*
X294463Y253069D01*
X294424Y252976D01*
X294382Y252885D01*
X294336Y252796D01*
X294287Y252708D01*
X294234Y252623D01*
X294178Y252540D01*
X294119Y252459D01*
X294056Y252380D01*
X293991Y252304D01*
X293922Y252231D01*
X293851Y252160D01*
X293777Y252092D01*
X293700Y252028D01*
X293621Y251966D01*
X293540Y251907D01*
X293456Y251852D01*
X293370Y251800D01*
X293282Y251752D01*
X293192Y251707D01*
X293101Y251666D01*
X293008Y251628D01*
X292913Y251594D01*
X292818Y251564D01*
X292721Y251537D01*
X292623Y251514D01*
X292525Y251496D01*
X292425Y251481D01*
X292326Y251470D01*
X292225Y251463D01*
X292125Y251460D01*
X292025Y251461D01*
X291924Y251466D01*
X291825Y251475D01*
X291725Y251488D01*
X291626Y251505D01*
X291528Y251525D01*
X291430Y251550D01*
X291334Y251578D01*
X291239Y251610D01*
X291145Y251646D01*
X291053Y251686D01*
X290963Y251729D01*
X290874Y251776D01*
X290787Y251826D01*
X290702Y251879D01*
X290619Y251936D01*
X290539Y251996D01*
X290461Y252060D01*
X290386Y252126D01*
X290313Y252195D01*
X290243Y252267D01*
X290176Y252342D01*
X290112Y252419D01*
X290051Y252499D01*
X289993Y252581D01*
X289939Y252665D01*
X289888Y252752D01*
X289840Y252840D01*
X289796Y252930D01*
X289756Y253022D01*
X289719Y253116D01*
X289686Y253210D01*
X289657Y253306D01*
X289631Y253403D01*
X289609Y253501D01*
X289592Y253600D01*
X289578Y253700D01*
X289568Y253799D01*
X289562Y253900D01*
X289560Y254000D01*
D10*
X292608Y291846D02*
X292513Y291848D01*
X292417Y291854D01*
X292322Y291863D01*
X292228Y291877D01*
X292134Y291894D01*
X292041Y291915D01*
X291948Y291940D01*
X291857Y291968D01*
X291767Y292000D01*
X291679Y292036D01*
X291592Y292075D01*
X291506Y292118D01*
X291423Y292164D01*
X291341Y292213D01*
X291261Y292266D01*
X291184Y292322D01*
X291108Y292380D01*
X291036Y292442D01*
X290966Y292507D01*
X290898Y292575D01*
X290833Y292645D01*
X290771Y292717D01*
X290713Y292793D01*
X290657Y292870D01*
X290604Y292950D01*
X290555Y293032D01*
X290509Y293115D01*
X290466Y293201D01*
X290427Y293288D01*
X290391Y293376D01*
X290359Y293466D01*
X290331Y293557D01*
X290306Y293650D01*
X290285Y293743D01*
X290268Y293837D01*
X290254Y293931D01*
X290245Y294026D01*
X290239Y294122D01*
X290237Y294217D01*
X292608Y291846D02*
X292744Y291848D01*
X292881Y291853D01*
X293017Y291863D01*
X293152Y291876D01*
X293288Y291892D01*
X293422Y291913D01*
X293557Y291937D01*
X293690Y291964D01*
X293823Y291996D01*
X293955Y292030D01*
X294086Y292069D01*
X294215Y292111D01*
X294344Y292156D01*
X294471Y292205D01*
X294597Y292258D01*
X294721Y292314D01*
X294844Y292373D01*
X294965Y292435D01*
X295085Y292501D01*
X295202Y292570D01*
X295318Y292643D01*
X295432Y292718D01*
X295543Y292796D01*
X295652Y292878D01*
X295760Y292962D01*
X295864Y293049D01*
X295967Y293139D01*
X296067Y293232D01*
X296164Y293328D01*
X295868Y300143D02*
X295866Y300238D01*
X295860Y300334D01*
X295851Y300429D01*
X295837Y300523D01*
X295820Y300617D01*
X295799Y300710D01*
X295774Y300803D01*
X295746Y300894D01*
X295714Y300984D01*
X295678Y301072D01*
X295639Y301159D01*
X295596Y301245D01*
X295550Y301329D01*
X295501Y301410D01*
X295448Y301490D01*
X295392Y301567D01*
X295334Y301643D01*
X295272Y301715D01*
X295207Y301785D01*
X295139Y301853D01*
X295069Y301918D01*
X294997Y301980D01*
X294921Y302038D01*
X294844Y302094D01*
X294764Y302147D01*
X294683Y302196D01*
X294599Y302242D01*
X294513Y302285D01*
X294426Y302324D01*
X294338Y302360D01*
X294248Y302392D01*
X294157Y302420D01*
X294064Y302445D01*
X293971Y302466D01*
X293877Y302483D01*
X293783Y302497D01*
X293688Y302506D01*
X293592Y302512D01*
X293497Y302514D01*
X293367Y302512D01*
X293237Y302506D01*
X293107Y302497D01*
X292978Y302484D01*
X292849Y302467D01*
X292721Y302446D01*
X292593Y302421D01*
X292466Y302393D01*
X292340Y302361D01*
X292215Y302325D01*
X292091Y302286D01*
X291969Y302243D01*
X291847Y302197D01*
X291727Y302146D01*
X291609Y302093D01*
X291492Y302036D01*
X291377Y301976D01*
X291263Y301912D01*
X291152Y301845D01*
X291042Y301775D01*
X290935Y301701D01*
X290830Y301625D01*
X294683Y298068D02*
X294764Y298119D01*
X294844Y298173D01*
X294922Y298229D01*
X294997Y298289D01*
X295070Y298352D01*
X295140Y298418D01*
X295207Y298486D01*
X295272Y298557D01*
X295334Y298631D01*
X295393Y298707D01*
X295449Y298785D01*
X295501Y298866D01*
X295551Y298948D01*
X295597Y299033D01*
X295639Y299119D01*
X295679Y299207D01*
X295714Y299296D01*
X295746Y299387D01*
X295775Y299479D01*
X295799Y299572D01*
X295820Y299665D01*
X295837Y299760D01*
X295851Y299855D01*
X295860Y299951D01*
X295866Y300047D01*
X295868Y300143D01*
X291423Y296292D02*
X291341Y296241D01*
X291261Y296187D01*
X291183Y296131D01*
X291108Y296071D01*
X291035Y296008D01*
X290965Y295942D01*
X290898Y295874D01*
X290833Y295803D01*
X290771Y295729D01*
X290712Y295653D01*
X290656Y295575D01*
X290604Y295494D01*
X290554Y295412D01*
X290508Y295327D01*
X290466Y295241D01*
X290426Y295153D01*
X290391Y295064D01*
X290359Y294973D01*
X290330Y294881D01*
X290306Y294788D01*
X290285Y294695D01*
X290268Y294600D01*
X290254Y294505D01*
X290245Y294409D01*
X290239Y294313D01*
X290237Y294217D01*
X291423Y296291D02*
X294682Y298069D01*
X285115Y291846D02*
X282152Y291846D01*
X282045Y291848D01*
X281938Y291854D01*
X281832Y291863D01*
X281726Y291877D01*
X281620Y291894D01*
X281515Y291915D01*
X281411Y291940D01*
X281308Y291969D01*
X281206Y292001D01*
X281105Y292037D01*
X281006Y292077D01*
X280908Y292120D01*
X280812Y292167D01*
X280717Y292217D01*
X280624Y292270D01*
X280534Y292327D01*
X280445Y292387D01*
X280359Y292450D01*
X280275Y292516D01*
X280193Y292586D01*
X280114Y292658D01*
X280038Y292733D01*
X279964Y292811D01*
X279894Y292891D01*
X279826Y292974D01*
X279761Y293059D01*
X279700Y293146D01*
X279641Y293236D01*
X279586Y293328D01*
X279534Y293421D01*
X279486Y293517D01*
X279441Y293614D01*
X279399Y293712D01*
X279362Y293812D01*
X279327Y293914D01*
X279297Y294016D01*
X279270Y294120D01*
X279247Y294224D01*
X279228Y294330D01*
X279213Y294436D01*
X279201Y294542D01*
X279193Y294649D01*
X279189Y294756D01*
X279189Y294862D01*
X279193Y294969D01*
X279201Y295076D01*
X279213Y295182D01*
X279228Y295288D01*
X279247Y295394D01*
X279270Y295498D01*
X279297Y295602D01*
X279327Y295704D01*
X279362Y295806D01*
X279399Y295906D01*
X279441Y296004D01*
X279486Y296101D01*
X279534Y296197D01*
X279586Y296291D01*
X279641Y296382D01*
X279700Y296472D01*
X279761Y296559D01*
X279826Y296644D01*
X279894Y296727D01*
X279964Y296807D01*
X280038Y296885D01*
X280114Y296960D01*
X280193Y297032D01*
X280275Y297102D01*
X280359Y297168D01*
X280445Y297231D01*
X280534Y297291D01*
X280624Y297348D01*
X280717Y297401D01*
X280812Y297451D01*
X280908Y297498D01*
X281006Y297541D01*
X281105Y297581D01*
X281206Y297617D01*
X281308Y297649D01*
X281411Y297678D01*
X281515Y297703D01*
X281620Y297724D01*
X281726Y297741D01*
X281832Y297755D01*
X281938Y297764D01*
X282045Y297770D01*
X282152Y297772D01*
X281559Y302514D02*
X285115Y302514D01*
X281559Y302514D02*
X281462Y302512D01*
X281366Y302506D01*
X281270Y302496D01*
X281174Y302482D01*
X281079Y302465D01*
X280984Y302443D01*
X280891Y302418D01*
X280799Y302389D01*
X280708Y302356D01*
X280618Y302319D01*
X280530Y302279D01*
X280444Y302235D01*
X280360Y302188D01*
X280277Y302138D01*
X280197Y302084D01*
X280119Y302026D01*
X280043Y301966D01*
X279970Y301903D01*
X279900Y301837D01*
X279832Y301767D01*
X279767Y301696D01*
X279705Y301621D01*
X279647Y301544D01*
X279591Y301465D01*
X279539Y301384D01*
X279490Y301300D01*
X279444Y301215D01*
X279402Y301128D01*
X279364Y301039D01*
X279329Y300949D01*
X279298Y300857D01*
X279271Y300764D01*
X279247Y300671D01*
X279228Y300576D01*
X279212Y300480D01*
X279200Y300384D01*
X279192Y300288D01*
X279188Y300191D01*
X279188Y300095D01*
X279192Y299998D01*
X279200Y299902D01*
X279212Y299806D01*
X279228Y299710D01*
X279247Y299615D01*
X279271Y299522D01*
X279298Y299429D01*
X279329Y299337D01*
X279364Y299247D01*
X279402Y299158D01*
X279444Y299071D01*
X279490Y298986D01*
X279539Y298902D01*
X279591Y298821D01*
X279647Y298742D01*
X279705Y298665D01*
X279767Y298590D01*
X279832Y298519D01*
X279900Y298449D01*
X279970Y298383D01*
X280043Y298320D01*
X280119Y298260D01*
X280197Y298202D01*
X280277Y298148D01*
X280360Y298098D01*
X280444Y298051D01*
X280530Y298007D01*
X280618Y297967D01*
X280708Y297930D01*
X280799Y297897D01*
X280891Y297868D01*
X280984Y297843D01*
X281079Y297821D01*
X281174Y297804D01*
X281270Y297790D01*
X281366Y297780D01*
X281462Y297774D01*
X281559Y297772D01*
X281559Y297773D02*
X283930Y297773D01*
D14*
X0Y0D02*
X650000Y0D01*
X650000Y320000D01*
X0Y320000D01*
X0Y0D01*
M02*
