G04 EAGLE Gerber RS-274X export*
G75*
%MOMM*%
%FSLAX34Y34*%
%LPD*%
%INSolderpaste Top*%
%IPPOS*%
%AMOC8*
5,1,8,0,0,1.08239X$1,22.5*%
G01*
G04 Define Apertures*
%ADD10R,2.000000X1.200000*%
%ADD11R,1.200000X2.000000*%
%ADD12R,0.897900X1.860300*%
%ADD13R,3.189100X1.860300*%
%ADD14R,1.500000X0.900000*%
%ADD15R,1.465300X1.164600*%
%ADD16R,4.000000X1.270000*%
D10*
X524500Y148540D03*
X524500Y168540D03*
X524500Y188540D03*
X524500Y208540D03*
X524500Y228540D03*
X524500Y248540D03*
X524500Y268540D03*
X524500Y288540D03*
X364500Y288540D03*
X364500Y248540D03*
X364500Y268540D03*
X364500Y228540D03*
X364500Y208540D03*
X364500Y188540D03*
X364500Y168540D03*
X364500Y148540D03*
D11*
X494500Y133740D03*
X474500Y133740D03*
X454500Y133740D03*
X434500Y133740D03*
X414500Y133740D03*
X394500Y133740D03*
D12*
X446900Y45450D03*
X469900Y45450D03*
X492900Y45450D03*
D13*
X469900Y106950D03*
D14*
X26300Y105400D03*
X26300Y72400D03*
X75300Y105400D03*
X75300Y72400D03*
X127900Y105400D03*
X127900Y72400D03*
X176900Y105400D03*
X176900Y72400D03*
X267600Y105400D03*
X267600Y72400D03*
X316600Y105400D03*
X316600Y72400D03*
D15*
X520700Y46854D03*
X520700Y29346D03*
X419100Y72254D03*
X419100Y54746D03*
X381000Y72254D03*
X381000Y54746D03*
D16*
X630000Y114700D03*
X630000Y89300D03*
M02*
