G04 EAGLE Gerber RS-274X export*
G75*
%MOMM*%
%FSLAX34Y34*%
%LPD*%
%INSilkscreen Top*%
%IPPOS*%
%AMOC8*
5,1,8,0,0,1.08239X$1,22.5*%
G01*
G04 Define Apertures*
%ADD10C,0.200000*%
%ADD11C,0.203200*%
%ADD12C,0.500000*%
%ADD13C,0.120000*%
%ADD14C,0.127000*%
%ADD15C,0.254000*%
D10*
X92800Y467640D02*
X262800Y467640D01*
X92800Y227640D02*
X92800Y217640D01*
X117800Y217640D01*
X237800Y217640D02*
X262800Y217640D01*
X262800Y227640D01*
X92800Y387640D02*
X92800Y467640D01*
X262800Y467640D02*
X262800Y387640D01*
D11*
X58111Y386163D02*
X58111Y378458D01*
X58113Y378351D01*
X58119Y378244D01*
X58128Y378138D01*
X58142Y378032D01*
X58159Y377926D01*
X58180Y377821D01*
X58205Y377717D01*
X58234Y377614D01*
X58266Y377512D01*
X58302Y377411D01*
X58342Y377312D01*
X58385Y377214D01*
X58432Y377118D01*
X58482Y377023D01*
X58535Y376930D01*
X58592Y376840D01*
X58652Y376751D01*
X58715Y376665D01*
X58781Y376581D01*
X58851Y376499D01*
X58923Y376420D01*
X58998Y376344D01*
X59076Y376270D01*
X59156Y376200D01*
X59239Y376132D01*
X59324Y376067D01*
X59411Y376006D01*
X59501Y375947D01*
X59592Y375892D01*
X59686Y375840D01*
X59782Y375792D01*
X59879Y375747D01*
X59977Y375705D01*
X60077Y375668D01*
X60179Y375633D01*
X60281Y375603D01*
X60385Y375576D01*
X60489Y375553D01*
X60595Y375534D01*
X60701Y375519D01*
X60807Y375507D01*
X60914Y375499D01*
X61021Y375495D01*
X61127Y375495D01*
X61234Y375499D01*
X61341Y375507D01*
X61447Y375519D01*
X61553Y375534D01*
X61659Y375553D01*
X61763Y375576D01*
X61867Y375603D01*
X61969Y375633D01*
X62071Y375668D01*
X62171Y375705D01*
X62269Y375747D01*
X62366Y375792D01*
X62462Y375840D01*
X62555Y375892D01*
X62647Y375947D01*
X62737Y376006D01*
X62824Y376067D01*
X62909Y376132D01*
X62992Y376200D01*
X63072Y376270D01*
X63150Y376344D01*
X63225Y376420D01*
X63297Y376499D01*
X63367Y376581D01*
X63433Y376665D01*
X63496Y376751D01*
X63556Y376840D01*
X63613Y376930D01*
X63666Y377023D01*
X63716Y377118D01*
X63763Y377214D01*
X63806Y377312D01*
X63846Y377411D01*
X63882Y377512D01*
X63914Y377614D01*
X63943Y377717D01*
X63968Y377821D01*
X63989Y377926D01*
X64006Y378032D01*
X64020Y378138D01*
X64029Y378244D01*
X64035Y378351D01*
X64037Y378458D01*
X64037Y386163D01*
X69922Y383792D02*
X72885Y386163D01*
X72885Y375495D01*
X69922Y375495D02*
X75848Y375495D01*
D12*
X360564Y126340D03*
D13*
X358664Y121300D02*
X358664Y107300D01*
X348564Y107300D01*
X327136Y107300D02*
X327136Y121300D01*
X327136Y107300D02*
X337236Y107300D01*
D11*
X361632Y106693D02*
X361632Y111435D01*
X361634Y111542D01*
X361640Y111649D01*
X361649Y111755D01*
X361663Y111861D01*
X361680Y111967D01*
X361701Y112072D01*
X361726Y112176D01*
X361755Y112279D01*
X361787Y112381D01*
X361823Y112482D01*
X361863Y112581D01*
X361906Y112679D01*
X361953Y112775D01*
X362003Y112870D01*
X362056Y112963D01*
X362113Y113053D01*
X362173Y113142D01*
X362236Y113228D01*
X362302Y113312D01*
X362372Y113394D01*
X362444Y113473D01*
X362519Y113549D01*
X362597Y113623D01*
X362677Y113693D01*
X362760Y113761D01*
X362845Y113826D01*
X362932Y113887D01*
X363022Y113946D01*
X363114Y114001D01*
X363207Y114053D01*
X363303Y114101D01*
X363400Y114146D01*
X363498Y114188D01*
X363598Y114225D01*
X363700Y114260D01*
X363802Y114290D01*
X363906Y114317D01*
X364010Y114340D01*
X364116Y114359D01*
X364222Y114374D01*
X364328Y114386D01*
X364435Y114394D01*
X364542Y114398D01*
X364648Y114398D01*
X364755Y114394D01*
X364862Y114386D01*
X364968Y114374D01*
X365074Y114359D01*
X365180Y114340D01*
X365284Y114317D01*
X365388Y114290D01*
X365490Y114260D01*
X365592Y114225D01*
X365692Y114188D01*
X365790Y114146D01*
X365887Y114101D01*
X365983Y114053D01*
X366077Y114001D01*
X366168Y113946D01*
X366258Y113887D01*
X366345Y113826D01*
X366430Y113761D01*
X366513Y113693D01*
X366593Y113623D01*
X366671Y113549D01*
X366746Y113473D01*
X366818Y113394D01*
X366888Y113312D01*
X366954Y113228D01*
X367017Y113142D01*
X367077Y113053D01*
X367134Y112963D01*
X367187Y112870D01*
X367237Y112775D01*
X367284Y112679D01*
X367327Y112581D01*
X367367Y112482D01*
X367403Y112381D01*
X367435Y112279D01*
X367464Y112176D01*
X367489Y112072D01*
X367510Y111967D01*
X367527Y111861D01*
X367541Y111755D01*
X367550Y111649D01*
X367556Y111542D01*
X367558Y111435D01*
X367558Y106693D01*
X367556Y106586D01*
X367550Y106479D01*
X367541Y106373D01*
X367527Y106267D01*
X367510Y106161D01*
X367489Y106056D01*
X367464Y105952D01*
X367435Y105849D01*
X367403Y105747D01*
X367367Y105646D01*
X367327Y105547D01*
X367284Y105449D01*
X367237Y105353D01*
X367187Y105258D01*
X367134Y105165D01*
X367077Y105075D01*
X367017Y104986D01*
X366954Y104900D01*
X366888Y104816D01*
X366818Y104734D01*
X366746Y104655D01*
X366671Y104579D01*
X366593Y104505D01*
X366513Y104435D01*
X366430Y104367D01*
X366345Y104302D01*
X366258Y104241D01*
X366168Y104182D01*
X366077Y104127D01*
X365983Y104075D01*
X365887Y104027D01*
X365790Y103982D01*
X365692Y103940D01*
X365592Y103903D01*
X365490Y103868D01*
X365388Y103838D01*
X365284Y103811D01*
X365180Y103788D01*
X365074Y103769D01*
X364968Y103754D01*
X364862Y103742D01*
X364755Y103734D01*
X364648Y103730D01*
X364542Y103730D01*
X364435Y103734D01*
X364328Y103742D01*
X364222Y103754D01*
X364116Y103769D01*
X364010Y103788D01*
X363906Y103811D01*
X363802Y103838D01*
X363700Y103868D01*
X363598Y103903D01*
X363498Y103940D01*
X363400Y103982D01*
X363303Y104027D01*
X363207Y104075D01*
X363114Y104127D01*
X363022Y104182D01*
X362932Y104241D01*
X362845Y104302D01*
X362760Y104367D01*
X362677Y104435D01*
X362597Y104505D01*
X362519Y104579D01*
X362444Y104655D01*
X362372Y104734D01*
X362302Y104816D01*
X362236Y104900D01*
X362173Y104986D01*
X362113Y105075D01*
X362056Y105165D01*
X362003Y105258D01*
X361953Y105353D01*
X361906Y105449D01*
X361863Y105547D01*
X361823Y105646D01*
X361787Y105747D01*
X361755Y105849D01*
X361726Y105952D01*
X361701Y106056D01*
X361680Y106161D01*
X361663Y106267D01*
X361649Y106373D01*
X361640Y106479D01*
X361634Y106586D01*
X361632Y106693D01*
X366373Y106101D02*
X368744Y103730D01*
X372442Y112027D02*
X375405Y114398D01*
X375405Y103730D01*
X372442Y103730D02*
X378369Y103730D01*
X121666Y97384D02*
X121666Y86716D01*
X121666Y97384D02*
X124629Y97384D01*
X124736Y97382D01*
X124843Y97376D01*
X124949Y97367D01*
X125055Y97353D01*
X125161Y97336D01*
X125266Y97315D01*
X125370Y97290D01*
X125473Y97261D01*
X125575Y97229D01*
X125676Y97193D01*
X125775Y97153D01*
X125873Y97110D01*
X125969Y97063D01*
X126064Y97013D01*
X126157Y96960D01*
X126247Y96903D01*
X126336Y96843D01*
X126422Y96780D01*
X126506Y96714D01*
X126588Y96644D01*
X126667Y96572D01*
X126743Y96497D01*
X126817Y96419D01*
X126887Y96339D01*
X126955Y96256D01*
X127020Y96171D01*
X127081Y96084D01*
X127140Y95994D01*
X127195Y95902D01*
X127247Y95809D01*
X127295Y95713D01*
X127340Y95616D01*
X127382Y95518D01*
X127419Y95418D01*
X127454Y95316D01*
X127484Y95214D01*
X127511Y95110D01*
X127534Y95006D01*
X127553Y94900D01*
X127568Y94794D01*
X127580Y94688D01*
X127588Y94581D01*
X127592Y94474D01*
X127592Y94368D01*
X127588Y94261D01*
X127580Y94154D01*
X127568Y94048D01*
X127553Y93942D01*
X127534Y93836D01*
X127511Y93732D01*
X127484Y93628D01*
X127454Y93526D01*
X127419Y93424D01*
X127382Y93324D01*
X127340Y93226D01*
X127295Y93129D01*
X127247Y93033D01*
X127195Y92939D01*
X127140Y92848D01*
X127081Y92758D01*
X127020Y92671D01*
X126955Y92586D01*
X126887Y92503D01*
X126817Y92423D01*
X126743Y92345D01*
X126667Y92270D01*
X126588Y92198D01*
X126506Y92128D01*
X126422Y92062D01*
X126336Y91999D01*
X126247Y91939D01*
X126157Y91882D01*
X126064Y91829D01*
X125969Y91779D01*
X125873Y91732D01*
X125775Y91689D01*
X125676Y91649D01*
X125575Y91613D01*
X125473Y91581D01*
X125370Y91552D01*
X125266Y91527D01*
X125161Y91506D01*
X125055Y91489D01*
X124949Y91475D01*
X124843Y91466D01*
X124736Y91460D01*
X124629Y91458D01*
X124629Y91457D02*
X121666Y91457D01*
X125222Y91457D02*
X127593Y86716D01*
X132986Y95013D02*
X135949Y97384D01*
X135949Y86716D01*
X132986Y86716D02*
X138912Y86716D01*
D14*
X188267Y61800D02*
X188267Y39800D01*
X167333Y39800D02*
X167333Y61800D01*
D11*
X172420Y74016D02*
X174791Y74016D01*
X172420Y74016D02*
X172325Y74018D01*
X172229Y74024D01*
X172134Y74033D01*
X172040Y74047D01*
X171946Y74064D01*
X171853Y74085D01*
X171760Y74110D01*
X171669Y74138D01*
X171579Y74170D01*
X171491Y74206D01*
X171404Y74245D01*
X171318Y74288D01*
X171235Y74334D01*
X171153Y74383D01*
X171073Y74436D01*
X170996Y74492D01*
X170920Y74550D01*
X170848Y74612D01*
X170778Y74677D01*
X170710Y74745D01*
X170645Y74815D01*
X170583Y74887D01*
X170525Y74963D01*
X170469Y75040D01*
X170416Y75120D01*
X170367Y75202D01*
X170321Y75285D01*
X170278Y75371D01*
X170239Y75458D01*
X170203Y75546D01*
X170171Y75636D01*
X170143Y75727D01*
X170118Y75820D01*
X170097Y75913D01*
X170080Y76007D01*
X170066Y76101D01*
X170057Y76196D01*
X170051Y76292D01*
X170049Y76387D01*
X170049Y82313D01*
X170051Y82408D01*
X170057Y82504D01*
X170066Y82599D01*
X170080Y82693D01*
X170097Y82787D01*
X170118Y82880D01*
X170143Y82973D01*
X170171Y83064D01*
X170203Y83154D01*
X170239Y83242D01*
X170278Y83329D01*
X170321Y83415D01*
X170367Y83498D01*
X170416Y83580D01*
X170469Y83660D01*
X170525Y83737D01*
X170583Y83813D01*
X170645Y83885D01*
X170710Y83955D01*
X170778Y84023D01*
X170848Y84088D01*
X170920Y84150D01*
X170996Y84208D01*
X171073Y84264D01*
X171153Y84317D01*
X171234Y84366D01*
X171318Y84412D01*
X171404Y84455D01*
X171491Y84494D01*
X171579Y84530D01*
X171669Y84562D01*
X171760Y84590D01*
X171853Y84615D01*
X171946Y84636D01*
X172040Y84653D01*
X172134Y84667D01*
X172229Y84676D01*
X172324Y84682D01*
X172420Y84684D01*
X174791Y84684D01*
X179624Y82313D02*
X182587Y84684D01*
X182587Y74016D01*
X179624Y74016D02*
X185551Y74016D01*
X362966Y65871D02*
X362966Y61129D01*
X362966Y65871D02*
X362968Y65978D01*
X362974Y66085D01*
X362983Y66191D01*
X362997Y66297D01*
X363014Y66403D01*
X363035Y66508D01*
X363060Y66612D01*
X363089Y66715D01*
X363121Y66817D01*
X363157Y66918D01*
X363197Y67017D01*
X363240Y67115D01*
X363287Y67211D01*
X363337Y67306D01*
X363390Y67399D01*
X363447Y67489D01*
X363507Y67578D01*
X363570Y67664D01*
X363636Y67748D01*
X363706Y67830D01*
X363778Y67909D01*
X363853Y67985D01*
X363931Y68059D01*
X364011Y68129D01*
X364094Y68197D01*
X364179Y68262D01*
X364266Y68323D01*
X364356Y68382D01*
X364448Y68437D01*
X364541Y68489D01*
X364637Y68537D01*
X364734Y68582D01*
X364832Y68624D01*
X364932Y68661D01*
X365034Y68696D01*
X365136Y68726D01*
X365240Y68753D01*
X365344Y68776D01*
X365450Y68795D01*
X365556Y68810D01*
X365662Y68822D01*
X365769Y68830D01*
X365876Y68834D01*
X365982Y68834D01*
X366089Y68830D01*
X366196Y68822D01*
X366302Y68810D01*
X366408Y68795D01*
X366514Y68776D01*
X366618Y68753D01*
X366722Y68726D01*
X366824Y68696D01*
X366926Y68661D01*
X367026Y68624D01*
X367124Y68582D01*
X367221Y68537D01*
X367317Y68489D01*
X367411Y68437D01*
X367502Y68382D01*
X367592Y68323D01*
X367679Y68262D01*
X367764Y68197D01*
X367847Y68129D01*
X367927Y68059D01*
X368005Y67985D01*
X368080Y67909D01*
X368152Y67830D01*
X368222Y67748D01*
X368288Y67664D01*
X368351Y67578D01*
X368411Y67489D01*
X368468Y67399D01*
X368521Y67306D01*
X368571Y67211D01*
X368618Y67115D01*
X368661Y67017D01*
X368701Y66918D01*
X368737Y66817D01*
X368769Y66715D01*
X368798Y66612D01*
X368823Y66508D01*
X368844Y66403D01*
X368861Y66297D01*
X368875Y66191D01*
X368884Y66085D01*
X368890Y65978D01*
X368892Y65871D01*
X368893Y65871D02*
X368893Y61129D01*
X368892Y61129D02*
X368890Y61022D01*
X368884Y60915D01*
X368875Y60809D01*
X368861Y60703D01*
X368844Y60597D01*
X368823Y60492D01*
X368798Y60388D01*
X368769Y60285D01*
X368737Y60183D01*
X368701Y60082D01*
X368661Y59983D01*
X368618Y59885D01*
X368571Y59789D01*
X368521Y59694D01*
X368468Y59601D01*
X368411Y59511D01*
X368351Y59422D01*
X368288Y59336D01*
X368222Y59252D01*
X368152Y59170D01*
X368080Y59091D01*
X368005Y59015D01*
X367927Y58941D01*
X367847Y58871D01*
X367764Y58803D01*
X367679Y58738D01*
X367592Y58677D01*
X367502Y58618D01*
X367411Y58563D01*
X367317Y58511D01*
X367221Y58463D01*
X367124Y58418D01*
X367026Y58376D01*
X366926Y58339D01*
X366824Y58304D01*
X366722Y58274D01*
X366618Y58247D01*
X366514Y58224D01*
X366408Y58205D01*
X366302Y58190D01*
X366196Y58178D01*
X366089Y58170D01*
X365982Y58166D01*
X365876Y58166D01*
X365769Y58170D01*
X365662Y58178D01*
X365556Y58190D01*
X365450Y58205D01*
X365344Y58224D01*
X365240Y58247D01*
X365136Y58274D01*
X365034Y58304D01*
X364932Y58339D01*
X364832Y58376D01*
X364734Y58418D01*
X364637Y58463D01*
X364541Y58511D01*
X364448Y58563D01*
X364356Y58618D01*
X364266Y58677D01*
X364179Y58738D01*
X364094Y58803D01*
X364011Y58871D01*
X363931Y58941D01*
X363853Y59015D01*
X363778Y59091D01*
X363706Y59170D01*
X363636Y59252D01*
X363570Y59336D01*
X363507Y59422D01*
X363447Y59511D01*
X363390Y59601D01*
X363337Y59694D01*
X363287Y59789D01*
X363240Y59885D01*
X363197Y59983D01*
X363157Y60082D01*
X363121Y60183D01*
X363089Y60285D01*
X363060Y60388D01*
X363035Y60492D01*
X363014Y60597D01*
X362997Y60703D01*
X362983Y60809D01*
X362974Y60915D01*
X362968Y61022D01*
X362966Y61129D01*
X367707Y60537D02*
X370078Y58166D01*
X379703Y66167D02*
X379701Y66269D01*
X379695Y66371D01*
X379685Y66473D01*
X379672Y66574D01*
X379654Y66675D01*
X379633Y66775D01*
X379608Y66874D01*
X379579Y66972D01*
X379546Y67068D01*
X379510Y67164D01*
X379470Y67258D01*
X379426Y67350D01*
X379379Y67441D01*
X379328Y67530D01*
X379275Y67617D01*
X379217Y67701D01*
X379157Y67784D01*
X379094Y67864D01*
X379027Y67941D01*
X378958Y68016D01*
X378885Y68089D01*
X378810Y68158D01*
X378733Y68225D01*
X378653Y68288D01*
X378570Y68348D01*
X378486Y68406D01*
X378399Y68459D01*
X378310Y68510D01*
X378219Y68557D01*
X378127Y68601D01*
X378033Y68641D01*
X377937Y68677D01*
X377841Y68710D01*
X377743Y68739D01*
X377644Y68764D01*
X377544Y68785D01*
X377443Y68803D01*
X377342Y68816D01*
X377240Y68826D01*
X377138Y68832D01*
X377036Y68834D01*
X376920Y68832D01*
X376803Y68826D01*
X376687Y68816D01*
X376572Y68802D01*
X376457Y68785D01*
X376342Y68763D01*
X376229Y68737D01*
X376116Y68708D01*
X376004Y68675D01*
X375894Y68638D01*
X375785Y68597D01*
X375677Y68553D01*
X375571Y68505D01*
X375467Y68453D01*
X375364Y68398D01*
X375263Y68340D01*
X375165Y68278D01*
X375068Y68213D01*
X374974Y68144D01*
X374882Y68072D01*
X374793Y67998D01*
X374706Y67920D01*
X374622Y67839D01*
X374541Y67756D01*
X374463Y67670D01*
X374387Y67581D01*
X374315Y67490D01*
X374246Y67396D01*
X374180Y67300D01*
X374117Y67202D01*
X374058Y67102D01*
X374002Y67000D01*
X373950Y66896D01*
X373901Y66790D01*
X373856Y66683D01*
X373814Y66574D01*
X373777Y66464D01*
X378815Y64092D02*
X378890Y64166D01*
X378962Y64243D01*
X379031Y64323D01*
X379098Y64405D01*
X379161Y64489D01*
X379221Y64576D01*
X379278Y64664D01*
X379332Y64755D01*
X379382Y64848D01*
X379429Y64942D01*
X379472Y65038D01*
X379512Y65136D01*
X379548Y65235D01*
X379581Y65335D01*
X379609Y65437D01*
X379634Y65539D01*
X379656Y65643D01*
X379673Y65747D01*
X379687Y65851D01*
X379696Y65956D01*
X379702Y66062D01*
X379704Y66167D01*
X378814Y64093D02*
X373776Y58166D01*
X379703Y58166D01*
D10*
X190800Y74000D02*
X190802Y74063D01*
X190808Y74125D01*
X190818Y74187D01*
X190831Y74249D01*
X190849Y74309D01*
X190870Y74368D01*
X190895Y74426D01*
X190924Y74482D01*
X190956Y74536D01*
X190991Y74588D01*
X191029Y74637D01*
X191071Y74685D01*
X191115Y74729D01*
X191163Y74771D01*
X191212Y74809D01*
X191264Y74844D01*
X191318Y74876D01*
X191374Y74905D01*
X191432Y74930D01*
X191491Y74951D01*
X191551Y74969D01*
X191613Y74982D01*
X191675Y74992D01*
X191737Y74998D01*
X191800Y75000D01*
X191863Y74998D01*
X191925Y74992D01*
X191987Y74982D01*
X192049Y74969D01*
X192109Y74951D01*
X192168Y74930D01*
X192226Y74905D01*
X192282Y74876D01*
X192336Y74844D01*
X192388Y74809D01*
X192437Y74771D01*
X192485Y74729D01*
X192529Y74685D01*
X192571Y74637D01*
X192609Y74588D01*
X192644Y74536D01*
X192676Y74482D01*
X192705Y74426D01*
X192730Y74368D01*
X192751Y74309D01*
X192769Y74249D01*
X192782Y74187D01*
X192792Y74125D01*
X192798Y74063D01*
X192800Y74000D01*
X192798Y73937D01*
X192792Y73875D01*
X192782Y73813D01*
X192769Y73751D01*
X192751Y73691D01*
X192730Y73632D01*
X192705Y73574D01*
X192676Y73518D01*
X192644Y73464D01*
X192609Y73412D01*
X192571Y73363D01*
X192529Y73315D01*
X192485Y73271D01*
X192437Y73229D01*
X192388Y73191D01*
X192336Y73156D01*
X192282Y73124D01*
X192226Y73095D01*
X192168Y73070D01*
X192109Y73049D01*
X192049Y73031D01*
X191987Y73018D01*
X191925Y73008D01*
X191863Y73002D01*
X191800Y73000D01*
X191737Y73002D01*
X191675Y73008D01*
X191613Y73018D01*
X191551Y73031D01*
X191491Y73049D01*
X191432Y73070D01*
X191374Y73095D01*
X191318Y73124D01*
X191264Y73156D01*
X191212Y73191D01*
X191163Y73229D01*
X191115Y73271D01*
X191071Y73315D01*
X191029Y73363D01*
X190991Y73412D01*
X190956Y73464D01*
X190924Y73518D01*
X190895Y73574D01*
X190870Y73632D01*
X190849Y73691D01*
X190831Y73751D01*
X190818Y73813D01*
X190808Y73875D01*
X190802Y73937D01*
X190800Y74000D01*
D14*
X212600Y78000D02*
X219200Y78000D01*
X223900Y66850D02*
X223900Y60150D01*
X219200Y49000D02*
X212600Y49000D01*
D11*
X203616Y44384D02*
X203616Y36679D01*
X203618Y36572D01*
X203624Y36465D01*
X203633Y36359D01*
X203647Y36253D01*
X203664Y36147D01*
X203685Y36042D01*
X203710Y35938D01*
X203739Y35835D01*
X203771Y35733D01*
X203807Y35632D01*
X203847Y35533D01*
X203890Y35435D01*
X203937Y35339D01*
X203987Y35244D01*
X204040Y35151D01*
X204097Y35061D01*
X204157Y34972D01*
X204220Y34886D01*
X204286Y34802D01*
X204356Y34720D01*
X204428Y34641D01*
X204503Y34565D01*
X204581Y34491D01*
X204661Y34421D01*
X204744Y34353D01*
X204829Y34288D01*
X204916Y34227D01*
X205006Y34168D01*
X205098Y34113D01*
X205191Y34061D01*
X205287Y34013D01*
X205384Y33968D01*
X205482Y33926D01*
X205582Y33889D01*
X205684Y33854D01*
X205786Y33824D01*
X205890Y33797D01*
X205994Y33774D01*
X206100Y33755D01*
X206206Y33740D01*
X206312Y33728D01*
X206419Y33720D01*
X206526Y33716D01*
X206632Y33716D01*
X206739Y33720D01*
X206846Y33728D01*
X206952Y33740D01*
X207058Y33755D01*
X207164Y33774D01*
X207268Y33797D01*
X207372Y33824D01*
X207474Y33854D01*
X207576Y33889D01*
X207676Y33926D01*
X207774Y33968D01*
X207871Y34013D01*
X207967Y34061D01*
X208060Y34113D01*
X208152Y34168D01*
X208242Y34227D01*
X208329Y34288D01*
X208414Y34353D01*
X208497Y34421D01*
X208577Y34491D01*
X208655Y34565D01*
X208730Y34641D01*
X208802Y34720D01*
X208872Y34802D01*
X208938Y34886D01*
X209001Y34972D01*
X209061Y35061D01*
X209118Y35151D01*
X209171Y35244D01*
X209221Y35339D01*
X209268Y35435D01*
X209311Y35533D01*
X209351Y35632D01*
X209387Y35733D01*
X209419Y35835D01*
X209448Y35938D01*
X209473Y36042D01*
X209494Y36147D01*
X209511Y36253D01*
X209525Y36359D01*
X209534Y36465D01*
X209540Y36572D01*
X209542Y36679D01*
X209543Y36679D02*
X209543Y44384D01*
X218687Y44384D02*
X218789Y44382D01*
X218891Y44376D01*
X218993Y44366D01*
X219094Y44353D01*
X219195Y44335D01*
X219295Y44314D01*
X219394Y44289D01*
X219492Y44260D01*
X219588Y44227D01*
X219684Y44191D01*
X219778Y44151D01*
X219870Y44107D01*
X219961Y44060D01*
X220050Y44009D01*
X220137Y43956D01*
X220221Y43898D01*
X220304Y43838D01*
X220384Y43775D01*
X220461Y43708D01*
X220536Y43639D01*
X220609Y43566D01*
X220678Y43491D01*
X220745Y43414D01*
X220808Y43334D01*
X220868Y43251D01*
X220926Y43167D01*
X220979Y43080D01*
X221030Y42991D01*
X221077Y42900D01*
X221121Y42808D01*
X221161Y42714D01*
X221197Y42618D01*
X221230Y42522D01*
X221259Y42424D01*
X221284Y42325D01*
X221305Y42225D01*
X221323Y42124D01*
X221336Y42023D01*
X221346Y41921D01*
X221352Y41819D01*
X221354Y41717D01*
X218687Y44384D02*
X218571Y44382D01*
X218454Y44376D01*
X218338Y44366D01*
X218223Y44352D01*
X218108Y44335D01*
X217993Y44313D01*
X217880Y44287D01*
X217767Y44258D01*
X217655Y44225D01*
X217545Y44188D01*
X217436Y44147D01*
X217328Y44103D01*
X217222Y44055D01*
X217118Y44003D01*
X217015Y43948D01*
X216914Y43890D01*
X216816Y43828D01*
X216719Y43763D01*
X216625Y43694D01*
X216533Y43622D01*
X216444Y43548D01*
X216357Y43470D01*
X216273Y43389D01*
X216192Y43306D01*
X216114Y43220D01*
X216038Y43131D01*
X215966Y43040D01*
X215897Y42946D01*
X215831Y42850D01*
X215768Y42752D01*
X215709Y42652D01*
X215653Y42550D01*
X215601Y42446D01*
X215552Y42340D01*
X215507Y42233D01*
X215465Y42124D01*
X215428Y42014D01*
X220465Y39642D02*
X220540Y39716D01*
X220612Y39793D01*
X220681Y39873D01*
X220748Y39955D01*
X220811Y40039D01*
X220871Y40126D01*
X220928Y40214D01*
X220982Y40305D01*
X221032Y40398D01*
X221079Y40492D01*
X221122Y40588D01*
X221162Y40686D01*
X221198Y40785D01*
X221231Y40885D01*
X221259Y40987D01*
X221284Y41089D01*
X221306Y41193D01*
X221323Y41297D01*
X221337Y41401D01*
X221346Y41506D01*
X221352Y41612D01*
X221354Y41717D01*
X220465Y39643D02*
X215427Y33716D01*
X221354Y33716D01*
X147066Y74016D02*
X147066Y84684D01*
X150029Y84684D01*
X150136Y84682D01*
X150243Y84676D01*
X150349Y84667D01*
X150455Y84653D01*
X150561Y84636D01*
X150666Y84615D01*
X150770Y84590D01*
X150873Y84561D01*
X150975Y84529D01*
X151076Y84493D01*
X151175Y84453D01*
X151273Y84410D01*
X151369Y84363D01*
X151464Y84313D01*
X151557Y84260D01*
X151647Y84203D01*
X151736Y84143D01*
X151822Y84080D01*
X151906Y84014D01*
X151988Y83944D01*
X152067Y83872D01*
X152143Y83797D01*
X152217Y83719D01*
X152287Y83639D01*
X152355Y83556D01*
X152420Y83471D01*
X152481Y83384D01*
X152540Y83294D01*
X152595Y83202D01*
X152647Y83109D01*
X152695Y83013D01*
X152740Y82916D01*
X152782Y82818D01*
X152819Y82718D01*
X152854Y82616D01*
X152884Y82514D01*
X152911Y82410D01*
X152934Y82306D01*
X152953Y82200D01*
X152968Y82094D01*
X152980Y81988D01*
X152988Y81881D01*
X152992Y81774D01*
X152992Y81668D01*
X152988Y81561D01*
X152980Y81454D01*
X152968Y81348D01*
X152953Y81242D01*
X152934Y81136D01*
X152911Y81032D01*
X152884Y80928D01*
X152854Y80826D01*
X152819Y80724D01*
X152782Y80624D01*
X152740Y80526D01*
X152695Y80429D01*
X152647Y80333D01*
X152595Y80239D01*
X152540Y80148D01*
X152481Y80058D01*
X152420Y79971D01*
X152355Y79886D01*
X152287Y79803D01*
X152217Y79723D01*
X152143Y79645D01*
X152067Y79570D01*
X151988Y79498D01*
X151906Y79428D01*
X151822Y79362D01*
X151736Y79299D01*
X151647Y79239D01*
X151557Y79182D01*
X151464Y79129D01*
X151369Y79079D01*
X151273Y79032D01*
X151175Y78989D01*
X151076Y78949D01*
X150975Y78913D01*
X150873Y78881D01*
X150770Y78852D01*
X150666Y78827D01*
X150561Y78806D01*
X150455Y78789D01*
X150349Y78775D01*
X150243Y78766D01*
X150136Y78760D01*
X150029Y78758D01*
X150029Y78757D02*
X147066Y78757D01*
X150622Y78757D02*
X152993Y74016D01*
X161645Y84684D02*
X161747Y84682D01*
X161849Y84676D01*
X161951Y84666D01*
X162052Y84653D01*
X162153Y84635D01*
X162253Y84614D01*
X162352Y84589D01*
X162450Y84560D01*
X162546Y84527D01*
X162642Y84491D01*
X162736Y84451D01*
X162828Y84407D01*
X162919Y84360D01*
X163008Y84309D01*
X163095Y84256D01*
X163179Y84198D01*
X163262Y84138D01*
X163342Y84075D01*
X163419Y84008D01*
X163494Y83939D01*
X163567Y83866D01*
X163636Y83791D01*
X163703Y83714D01*
X163766Y83634D01*
X163826Y83551D01*
X163884Y83467D01*
X163937Y83380D01*
X163988Y83291D01*
X164035Y83200D01*
X164079Y83108D01*
X164119Y83014D01*
X164155Y82918D01*
X164188Y82822D01*
X164217Y82724D01*
X164242Y82625D01*
X164263Y82525D01*
X164281Y82424D01*
X164294Y82323D01*
X164304Y82221D01*
X164310Y82119D01*
X164312Y82017D01*
X161645Y84684D02*
X161529Y84682D01*
X161412Y84676D01*
X161296Y84666D01*
X161181Y84652D01*
X161066Y84635D01*
X160951Y84613D01*
X160838Y84587D01*
X160725Y84558D01*
X160613Y84525D01*
X160503Y84488D01*
X160394Y84447D01*
X160286Y84403D01*
X160180Y84355D01*
X160076Y84303D01*
X159973Y84248D01*
X159872Y84190D01*
X159774Y84128D01*
X159677Y84063D01*
X159583Y83994D01*
X159491Y83922D01*
X159402Y83848D01*
X159315Y83770D01*
X159231Y83689D01*
X159150Y83606D01*
X159072Y83520D01*
X158996Y83431D01*
X158924Y83340D01*
X158855Y83246D01*
X158789Y83150D01*
X158726Y83052D01*
X158667Y82952D01*
X158611Y82850D01*
X158559Y82746D01*
X158510Y82640D01*
X158465Y82533D01*
X158423Y82424D01*
X158386Y82314D01*
X163424Y79942D02*
X163499Y80016D01*
X163571Y80093D01*
X163640Y80173D01*
X163707Y80255D01*
X163770Y80339D01*
X163830Y80426D01*
X163887Y80514D01*
X163941Y80605D01*
X163991Y80698D01*
X164038Y80792D01*
X164081Y80888D01*
X164121Y80986D01*
X164157Y81085D01*
X164190Y81185D01*
X164218Y81287D01*
X164243Y81389D01*
X164265Y81493D01*
X164282Y81597D01*
X164296Y81701D01*
X164305Y81806D01*
X164311Y81912D01*
X164313Y82017D01*
X163423Y79943D02*
X158386Y74016D01*
X164312Y74016D01*
X356388Y148316D02*
X356388Y158984D01*
X359351Y158984D01*
X359458Y158982D01*
X359565Y158976D01*
X359671Y158967D01*
X359777Y158953D01*
X359883Y158936D01*
X359988Y158915D01*
X360092Y158890D01*
X360195Y158861D01*
X360297Y158829D01*
X360398Y158793D01*
X360497Y158753D01*
X360595Y158710D01*
X360691Y158663D01*
X360786Y158613D01*
X360879Y158560D01*
X360969Y158503D01*
X361058Y158443D01*
X361144Y158380D01*
X361228Y158314D01*
X361310Y158244D01*
X361389Y158172D01*
X361465Y158097D01*
X361539Y158019D01*
X361609Y157939D01*
X361677Y157856D01*
X361742Y157771D01*
X361803Y157684D01*
X361862Y157594D01*
X361917Y157502D01*
X361969Y157409D01*
X362017Y157313D01*
X362062Y157216D01*
X362104Y157118D01*
X362141Y157018D01*
X362176Y156916D01*
X362206Y156814D01*
X362233Y156710D01*
X362256Y156606D01*
X362275Y156500D01*
X362290Y156394D01*
X362302Y156288D01*
X362310Y156181D01*
X362314Y156074D01*
X362314Y155968D01*
X362310Y155861D01*
X362302Y155754D01*
X362290Y155648D01*
X362275Y155542D01*
X362256Y155436D01*
X362233Y155332D01*
X362206Y155228D01*
X362176Y155126D01*
X362141Y155024D01*
X362104Y154924D01*
X362062Y154826D01*
X362017Y154729D01*
X361969Y154633D01*
X361917Y154540D01*
X361862Y154448D01*
X361803Y154358D01*
X361742Y154271D01*
X361677Y154186D01*
X361609Y154103D01*
X361539Y154023D01*
X361465Y153945D01*
X361389Y153870D01*
X361310Y153798D01*
X361228Y153728D01*
X361144Y153662D01*
X361058Y153599D01*
X360969Y153539D01*
X360879Y153482D01*
X360786Y153429D01*
X360691Y153379D01*
X360595Y153332D01*
X360497Y153289D01*
X360398Y153249D01*
X360297Y153213D01*
X360195Y153181D01*
X360092Y153152D01*
X359988Y153127D01*
X359883Y153106D01*
X359777Y153089D01*
X359671Y153075D01*
X359565Y153066D01*
X359458Y153060D01*
X359351Y153058D01*
X359351Y153057D02*
X356388Y153057D01*
X359944Y153057D02*
X362314Y148316D01*
X367707Y148316D02*
X370671Y148316D01*
X370778Y148318D01*
X370885Y148324D01*
X370991Y148333D01*
X371097Y148347D01*
X371203Y148364D01*
X371308Y148385D01*
X371412Y148410D01*
X371515Y148439D01*
X371617Y148471D01*
X371718Y148507D01*
X371817Y148547D01*
X371915Y148590D01*
X372011Y148637D01*
X372106Y148687D01*
X372199Y148740D01*
X372289Y148797D01*
X372378Y148857D01*
X372464Y148920D01*
X372548Y148986D01*
X372630Y149056D01*
X372709Y149128D01*
X372785Y149203D01*
X372859Y149281D01*
X372929Y149361D01*
X372997Y149444D01*
X373062Y149529D01*
X373123Y149616D01*
X373182Y149706D01*
X373237Y149798D01*
X373289Y149891D01*
X373337Y149987D01*
X373382Y150084D01*
X373424Y150182D01*
X373461Y150282D01*
X373496Y150384D01*
X373526Y150486D01*
X373553Y150590D01*
X373576Y150694D01*
X373595Y150800D01*
X373610Y150906D01*
X373622Y151012D01*
X373630Y151119D01*
X373634Y151226D01*
X373634Y151332D01*
X373630Y151439D01*
X373622Y151546D01*
X373610Y151652D01*
X373595Y151758D01*
X373576Y151864D01*
X373553Y151968D01*
X373526Y152072D01*
X373496Y152174D01*
X373461Y152276D01*
X373424Y152376D01*
X373382Y152474D01*
X373337Y152571D01*
X373289Y152667D01*
X373237Y152760D01*
X373182Y152852D01*
X373123Y152942D01*
X373062Y153029D01*
X372997Y153114D01*
X372929Y153197D01*
X372859Y153277D01*
X372785Y153355D01*
X372709Y153430D01*
X372630Y153502D01*
X372548Y153572D01*
X372464Y153638D01*
X372378Y153701D01*
X372289Y153761D01*
X372199Y153818D01*
X372106Y153871D01*
X372011Y153921D01*
X371915Y153968D01*
X371817Y154011D01*
X371718Y154051D01*
X371617Y154087D01*
X371515Y154119D01*
X371412Y154148D01*
X371308Y154173D01*
X371203Y154194D01*
X371097Y154211D01*
X370991Y154225D01*
X370885Y154234D01*
X370778Y154240D01*
X370671Y154242D01*
X371263Y158984D02*
X367707Y158984D01*
X371263Y158984D02*
X371360Y158982D01*
X371456Y158976D01*
X371552Y158966D01*
X371648Y158952D01*
X371743Y158935D01*
X371838Y158913D01*
X371931Y158888D01*
X372023Y158859D01*
X372114Y158826D01*
X372204Y158789D01*
X372292Y158749D01*
X372378Y158705D01*
X372462Y158658D01*
X372545Y158608D01*
X372625Y158554D01*
X372703Y158496D01*
X372779Y158436D01*
X372852Y158373D01*
X372922Y158307D01*
X372990Y158237D01*
X373055Y158166D01*
X373117Y158091D01*
X373175Y158014D01*
X373231Y157935D01*
X373283Y157854D01*
X373332Y157770D01*
X373378Y157685D01*
X373420Y157598D01*
X373458Y157509D01*
X373493Y157419D01*
X373524Y157327D01*
X373551Y157234D01*
X373575Y157141D01*
X373594Y157046D01*
X373610Y156950D01*
X373622Y156854D01*
X373630Y156758D01*
X373634Y156661D01*
X373634Y156565D01*
X373630Y156468D01*
X373622Y156372D01*
X373610Y156276D01*
X373594Y156180D01*
X373575Y156085D01*
X373551Y155992D01*
X373524Y155899D01*
X373493Y155807D01*
X373458Y155717D01*
X373420Y155628D01*
X373378Y155541D01*
X373332Y155456D01*
X373283Y155372D01*
X373231Y155291D01*
X373175Y155212D01*
X373117Y155135D01*
X373055Y155060D01*
X372990Y154989D01*
X372922Y154919D01*
X372852Y154853D01*
X372779Y154790D01*
X372703Y154730D01*
X372625Y154672D01*
X372545Y154618D01*
X372462Y154568D01*
X372378Y154521D01*
X372292Y154477D01*
X372204Y154437D01*
X372114Y154400D01*
X372023Y154367D01*
X371931Y154338D01*
X371838Y154313D01*
X371743Y154291D01*
X371648Y154274D01*
X371552Y154260D01*
X371456Y154250D01*
X371360Y154244D01*
X371263Y154242D01*
X371263Y154243D02*
X368893Y154243D01*
X312166Y175016D02*
X312166Y185684D01*
X315129Y185684D01*
X315236Y185682D01*
X315343Y185676D01*
X315449Y185667D01*
X315555Y185653D01*
X315661Y185636D01*
X315766Y185615D01*
X315870Y185590D01*
X315973Y185561D01*
X316075Y185529D01*
X316176Y185493D01*
X316275Y185453D01*
X316373Y185410D01*
X316469Y185363D01*
X316564Y185313D01*
X316657Y185260D01*
X316747Y185203D01*
X316836Y185143D01*
X316922Y185080D01*
X317006Y185014D01*
X317088Y184944D01*
X317167Y184872D01*
X317243Y184797D01*
X317317Y184719D01*
X317387Y184639D01*
X317455Y184556D01*
X317520Y184471D01*
X317581Y184384D01*
X317640Y184294D01*
X317695Y184202D01*
X317747Y184109D01*
X317795Y184013D01*
X317840Y183916D01*
X317882Y183818D01*
X317919Y183718D01*
X317954Y183616D01*
X317984Y183514D01*
X318011Y183410D01*
X318034Y183306D01*
X318053Y183200D01*
X318068Y183094D01*
X318080Y182988D01*
X318088Y182881D01*
X318092Y182774D01*
X318092Y182668D01*
X318088Y182561D01*
X318080Y182454D01*
X318068Y182348D01*
X318053Y182242D01*
X318034Y182136D01*
X318011Y182032D01*
X317984Y181928D01*
X317954Y181826D01*
X317919Y181724D01*
X317882Y181624D01*
X317840Y181526D01*
X317795Y181429D01*
X317747Y181333D01*
X317695Y181240D01*
X317640Y181148D01*
X317581Y181058D01*
X317520Y180971D01*
X317455Y180886D01*
X317387Y180803D01*
X317317Y180723D01*
X317243Y180645D01*
X317167Y180570D01*
X317088Y180498D01*
X317006Y180428D01*
X316922Y180362D01*
X316836Y180299D01*
X316747Y180239D01*
X316657Y180182D01*
X316564Y180129D01*
X316469Y180079D01*
X316373Y180032D01*
X316275Y179989D01*
X316176Y179949D01*
X316075Y179913D01*
X315973Y179881D01*
X315870Y179852D01*
X315766Y179827D01*
X315661Y179806D01*
X315555Y179789D01*
X315449Y179775D01*
X315343Y179766D01*
X315236Y179760D01*
X315129Y179758D01*
X315129Y179757D02*
X312166Y179757D01*
X315722Y179757D02*
X318093Y175016D01*
X323486Y177387D02*
X325856Y185684D01*
X323486Y177387D02*
X329412Y177387D01*
X327634Y179757D02*
X327634Y175016D01*
X274066Y87884D02*
X274066Y77216D01*
X274066Y87884D02*
X277029Y87884D01*
X277136Y87882D01*
X277243Y87876D01*
X277349Y87867D01*
X277455Y87853D01*
X277561Y87836D01*
X277666Y87815D01*
X277770Y87790D01*
X277873Y87761D01*
X277975Y87729D01*
X278076Y87693D01*
X278175Y87653D01*
X278273Y87610D01*
X278369Y87563D01*
X278464Y87513D01*
X278557Y87460D01*
X278647Y87403D01*
X278736Y87343D01*
X278822Y87280D01*
X278906Y87214D01*
X278988Y87144D01*
X279067Y87072D01*
X279143Y86997D01*
X279217Y86919D01*
X279287Y86839D01*
X279355Y86756D01*
X279420Y86671D01*
X279481Y86584D01*
X279540Y86494D01*
X279595Y86402D01*
X279647Y86309D01*
X279695Y86213D01*
X279740Y86116D01*
X279782Y86018D01*
X279819Y85918D01*
X279854Y85816D01*
X279884Y85714D01*
X279911Y85610D01*
X279934Y85506D01*
X279953Y85400D01*
X279968Y85294D01*
X279980Y85188D01*
X279988Y85081D01*
X279992Y84974D01*
X279992Y84868D01*
X279988Y84761D01*
X279980Y84654D01*
X279968Y84548D01*
X279953Y84442D01*
X279934Y84336D01*
X279911Y84232D01*
X279884Y84128D01*
X279854Y84026D01*
X279819Y83924D01*
X279782Y83824D01*
X279740Y83726D01*
X279695Y83629D01*
X279647Y83533D01*
X279595Y83439D01*
X279540Y83348D01*
X279481Y83258D01*
X279420Y83171D01*
X279355Y83086D01*
X279287Y83003D01*
X279217Y82923D01*
X279143Y82845D01*
X279067Y82770D01*
X278988Y82698D01*
X278906Y82628D01*
X278822Y82562D01*
X278736Y82499D01*
X278647Y82439D01*
X278557Y82382D01*
X278464Y82329D01*
X278369Y82279D01*
X278273Y82232D01*
X278175Y82189D01*
X278076Y82149D01*
X277975Y82113D01*
X277873Y82081D01*
X277770Y82052D01*
X277666Y82027D01*
X277561Y82006D01*
X277455Y81989D01*
X277349Y81975D01*
X277243Y81966D01*
X277136Y81960D01*
X277029Y81958D01*
X277029Y81957D02*
X274066Y81957D01*
X277622Y81957D02*
X279993Y77216D01*
X285386Y77216D02*
X288942Y77216D01*
X289037Y77218D01*
X289133Y77224D01*
X289228Y77233D01*
X289322Y77247D01*
X289416Y77264D01*
X289509Y77285D01*
X289602Y77310D01*
X289693Y77338D01*
X289783Y77370D01*
X289871Y77406D01*
X289958Y77445D01*
X290044Y77488D01*
X290128Y77534D01*
X290209Y77583D01*
X290289Y77636D01*
X290366Y77692D01*
X290442Y77750D01*
X290514Y77812D01*
X290584Y77877D01*
X290652Y77945D01*
X290717Y78015D01*
X290779Y78087D01*
X290837Y78163D01*
X290893Y78240D01*
X290946Y78320D01*
X290995Y78402D01*
X291041Y78485D01*
X291084Y78571D01*
X291123Y78658D01*
X291159Y78746D01*
X291191Y78836D01*
X291219Y78927D01*
X291244Y79020D01*
X291265Y79113D01*
X291282Y79207D01*
X291296Y79301D01*
X291305Y79396D01*
X291311Y79492D01*
X291313Y79587D01*
X291312Y79587D02*
X291312Y80772D01*
X291313Y80772D02*
X291311Y80867D01*
X291305Y80963D01*
X291296Y81058D01*
X291282Y81152D01*
X291265Y81246D01*
X291244Y81339D01*
X291219Y81432D01*
X291191Y81523D01*
X291159Y81613D01*
X291123Y81701D01*
X291084Y81788D01*
X291041Y81874D01*
X290995Y81958D01*
X290946Y82039D01*
X290893Y82119D01*
X290837Y82196D01*
X290779Y82272D01*
X290717Y82344D01*
X290652Y82414D01*
X290584Y82482D01*
X290514Y82547D01*
X290442Y82609D01*
X290366Y82667D01*
X290289Y82723D01*
X290209Y82776D01*
X290128Y82825D01*
X290044Y82871D01*
X289958Y82914D01*
X289871Y82953D01*
X289783Y82989D01*
X289693Y83021D01*
X289602Y83049D01*
X289509Y83074D01*
X289416Y83095D01*
X289322Y83112D01*
X289228Y83126D01*
X289133Y83135D01*
X289037Y83141D01*
X288942Y83143D01*
X285386Y83143D01*
X285386Y87884D01*
X291312Y87884D01*
D14*
X294333Y103300D02*
X294333Y125300D01*
X315267Y125300D02*
X315267Y103300D01*
D11*
X276391Y106733D02*
X274020Y106733D01*
X273925Y106735D01*
X273829Y106741D01*
X273734Y106750D01*
X273640Y106764D01*
X273546Y106781D01*
X273453Y106802D01*
X273360Y106827D01*
X273269Y106855D01*
X273179Y106887D01*
X273091Y106923D01*
X273004Y106962D01*
X272918Y107005D01*
X272835Y107051D01*
X272753Y107100D01*
X272673Y107153D01*
X272596Y107209D01*
X272520Y107267D01*
X272448Y107329D01*
X272378Y107394D01*
X272310Y107462D01*
X272245Y107532D01*
X272183Y107604D01*
X272125Y107680D01*
X272069Y107757D01*
X272016Y107837D01*
X271967Y107919D01*
X271921Y108002D01*
X271878Y108088D01*
X271839Y108175D01*
X271803Y108263D01*
X271771Y108353D01*
X271743Y108444D01*
X271718Y108537D01*
X271697Y108630D01*
X271680Y108724D01*
X271666Y108818D01*
X271657Y108913D01*
X271651Y109009D01*
X271649Y109104D01*
X271649Y115030D01*
X271651Y115125D01*
X271657Y115221D01*
X271666Y115316D01*
X271680Y115410D01*
X271697Y115504D01*
X271718Y115597D01*
X271743Y115690D01*
X271771Y115781D01*
X271803Y115871D01*
X271839Y115959D01*
X271878Y116046D01*
X271921Y116132D01*
X271967Y116215D01*
X272016Y116297D01*
X272069Y116377D01*
X272125Y116454D01*
X272183Y116530D01*
X272245Y116602D01*
X272310Y116672D01*
X272378Y116740D01*
X272448Y116805D01*
X272520Y116867D01*
X272596Y116925D01*
X272673Y116981D01*
X272753Y117034D01*
X272834Y117083D01*
X272918Y117129D01*
X273004Y117172D01*
X273091Y117211D01*
X273179Y117247D01*
X273269Y117279D01*
X273360Y117307D01*
X273453Y117332D01*
X273546Y117353D01*
X273640Y117370D01*
X273734Y117384D01*
X273829Y117393D01*
X273924Y117399D01*
X274020Y117401D01*
X276391Y117401D01*
X284484Y117401D02*
X284586Y117399D01*
X284688Y117393D01*
X284790Y117383D01*
X284891Y117370D01*
X284992Y117352D01*
X285092Y117331D01*
X285191Y117306D01*
X285289Y117277D01*
X285385Y117244D01*
X285481Y117208D01*
X285575Y117168D01*
X285667Y117124D01*
X285758Y117077D01*
X285847Y117026D01*
X285934Y116973D01*
X286018Y116915D01*
X286101Y116855D01*
X286181Y116792D01*
X286258Y116725D01*
X286333Y116656D01*
X286406Y116583D01*
X286475Y116508D01*
X286542Y116431D01*
X286605Y116351D01*
X286665Y116268D01*
X286723Y116184D01*
X286776Y116097D01*
X286827Y116008D01*
X286874Y115917D01*
X286918Y115825D01*
X286958Y115731D01*
X286994Y115635D01*
X287027Y115539D01*
X287056Y115441D01*
X287081Y115342D01*
X287102Y115242D01*
X287120Y115141D01*
X287133Y115040D01*
X287143Y114938D01*
X287149Y114836D01*
X287151Y114734D01*
X284484Y117401D02*
X284368Y117399D01*
X284251Y117393D01*
X284135Y117383D01*
X284020Y117369D01*
X283905Y117352D01*
X283790Y117330D01*
X283677Y117304D01*
X283564Y117275D01*
X283452Y117242D01*
X283342Y117205D01*
X283233Y117164D01*
X283125Y117120D01*
X283019Y117072D01*
X282915Y117020D01*
X282812Y116965D01*
X282711Y116907D01*
X282613Y116845D01*
X282516Y116780D01*
X282422Y116711D01*
X282330Y116639D01*
X282241Y116565D01*
X282154Y116487D01*
X282070Y116406D01*
X281989Y116323D01*
X281911Y116237D01*
X281835Y116148D01*
X281763Y116057D01*
X281694Y115963D01*
X281628Y115867D01*
X281565Y115769D01*
X281506Y115669D01*
X281450Y115567D01*
X281398Y115463D01*
X281349Y115357D01*
X281304Y115250D01*
X281262Y115141D01*
X281225Y115031D01*
X286262Y112659D02*
X286337Y112733D01*
X286409Y112810D01*
X286478Y112890D01*
X286545Y112972D01*
X286608Y113056D01*
X286668Y113143D01*
X286725Y113231D01*
X286779Y113322D01*
X286829Y113415D01*
X286876Y113509D01*
X286919Y113605D01*
X286959Y113703D01*
X286995Y113802D01*
X287028Y113902D01*
X287056Y114004D01*
X287081Y114106D01*
X287103Y114210D01*
X287120Y114314D01*
X287134Y114418D01*
X287143Y114523D01*
X287149Y114629D01*
X287151Y114734D01*
X286262Y112660D02*
X281224Y106733D01*
X287151Y106733D01*
D13*
X269570Y152710D02*
X305117Y152710D01*
X305117Y177490D01*
X269570Y177490D01*
D11*
X270531Y185476D02*
X270531Y196144D01*
X273495Y196144D01*
X273601Y196142D01*
X273706Y196136D01*
X273812Y196127D01*
X273917Y196114D01*
X274021Y196097D01*
X274125Y196076D01*
X274228Y196052D01*
X274330Y196024D01*
X274431Y195992D01*
X274530Y195957D01*
X274629Y195918D01*
X274726Y195876D01*
X274821Y195831D01*
X274915Y195782D01*
X275007Y195729D01*
X275097Y195674D01*
X275185Y195615D01*
X275271Y195553D01*
X275354Y195488D01*
X275435Y195420D01*
X275514Y195350D01*
X275590Y195276D01*
X275664Y195200D01*
X275734Y195121D01*
X275802Y195040D01*
X275867Y194957D01*
X275929Y194871D01*
X275988Y194783D01*
X276043Y194693D01*
X276096Y194601D01*
X276145Y194507D01*
X276190Y194412D01*
X276232Y194315D01*
X276271Y194216D01*
X276306Y194117D01*
X276338Y194016D01*
X276366Y193914D01*
X276390Y193811D01*
X276411Y193707D01*
X276428Y193603D01*
X276441Y193498D01*
X276450Y193392D01*
X276456Y193287D01*
X276458Y193181D01*
X276458Y188439D01*
X276456Y188333D01*
X276450Y188228D01*
X276441Y188122D01*
X276428Y188017D01*
X276411Y187913D01*
X276390Y187809D01*
X276366Y187706D01*
X276338Y187604D01*
X276306Y187503D01*
X276271Y187404D01*
X276232Y187305D01*
X276190Y187208D01*
X276145Y187113D01*
X276096Y187019D01*
X276043Y186927D01*
X275988Y186837D01*
X275929Y186749D01*
X275867Y186663D01*
X275802Y186580D01*
X275734Y186499D01*
X275664Y186420D01*
X275590Y186344D01*
X275514Y186270D01*
X275435Y186200D01*
X275354Y186132D01*
X275271Y186067D01*
X275185Y186005D01*
X275097Y185946D01*
X275007Y185891D01*
X274915Y185838D01*
X274821Y185789D01*
X274726Y185744D01*
X274629Y185702D01*
X274530Y185663D01*
X274431Y185628D01*
X274330Y185596D01*
X274228Y185568D01*
X274125Y185544D01*
X274021Y185523D01*
X273917Y185506D01*
X273812Y185493D01*
X273706Y185484D01*
X273601Y185478D01*
X273495Y185476D01*
X270531Y185476D01*
X282342Y193773D02*
X285305Y196144D01*
X285305Y185476D01*
X282342Y185476D02*
X288269Y185476D01*
D13*
X320370Y190810D02*
X355917Y190810D01*
X355917Y215590D01*
X320370Y215590D01*
D11*
X321331Y223576D02*
X321331Y234244D01*
X324295Y234244D01*
X324401Y234242D01*
X324506Y234236D01*
X324612Y234227D01*
X324717Y234214D01*
X324821Y234197D01*
X324925Y234176D01*
X325028Y234152D01*
X325130Y234124D01*
X325231Y234092D01*
X325330Y234057D01*
X325429Y234018D01*
X325526Y233976D01*
X325621Y233931D01*
X325715Y233882D01*
X325807Y233829D01*
X325897Y233774D01*
X325985Y233715D01*
X326071Y233653D01*
X326154Y233588D01*
X326235Y233520D01*
X326314Y233450D01*
X326390Y233376D01*
X326464Y233300D01*
X326534Y233221D01*
X326602Y233140D01*
X326667Y233057D01*
X326729Y232971D01*
X326788Y232883D01*
X326843Y232793D01*
X326896Y232701D01*
X326945Y232607D01*
X326990Y232512D01*
X327032Y232415D01*
X327071Y232316D01*
X327106Y232217D01*
X327138Y232116D01*
X327166Y232014D01*
X327190Y231911D01*
X327211Y231807D01*
X327228Y231703D01*
X327241Y231598D01*
X327250Y231492D01*
X327256Y231387D01*
X327258Y231281D01*
X327258Y226539D01*
X327256Y226433D01*
X327250Y226328D01*
X327241Y226222D01*
X327228Y226117D01*
X327211Y226013D01*
X327190Y225909D01*
X327166Y225806D01*
X327138Y225704D01*
X327106Y225603D01*
X327071Y225504D01*
X327032Y225405D01*
X326990Y225308D01*
X326945Y225213D01*
X326896Y225119D01*
X326843Y225027D01*
X326788Y224937D01*
X326729Y224849D01*
X326667Y224763D01*
X326602Y224680D01*
X326534Y224599D01*
X326464Y224520D01*
X326390Y224444D01*
X326314Y224370D01*
X326235Y224300D01*
X326154Y224232D01*
X326071Y224167D01*
X325985Y224105D01*
X325897Y224046D01*
X325807Y223991D01*
X325715Y223938D01*
X325621Y223889D01*
X325526Y223844D01*
X325429Y223802D01*
X325330Y223763D01*
X325231Y223728D01*
X325130Y223696D01*
X325028Y223668D01*
X324925Y223644D01*
X324821Y223623D01*
X324717Y223606D01*
X324612Y223593D01*
X324506Y223584D01*
X324401Y223578D01*
X324295Y223576D01*
X321331Y223576D01*
X336402Y234244D02*
X336504Y234242D01*
X336606Y234236D01*
X336708Y234226D01*
X336809Y234213D01*
X336910Y234195D01*
X337010Y234174D01*
X337109Y234149D01*
X337207Y234120D01*
X337303Y234087D01*
X337399Y234051D01*
X337493Y234011D01*
X337585Y233967D01*
X337676Y233920D01*
X337765Y233869D01*
X337852Y233816D01*
X337936Y233758D01*
X338019Y233698D01*
X338099Y233635D01*
X338176Y233568D01*
X338251Y233499D01*
X338324Y233426D01*
X338393Y233351D01*
X338460Y233274D01*
X338523Y233194D01*
X338583Y233111D01*
X338641Y233027D01*
X338694Y232940D01*
X338745Y232851D01*
X338792Y232760D01*
X338836Y232668D01*
X338876Y232574D01*
X338912Y232478D01*
X338945Y232382D01*
X338974Y232284D01*
X338999Y232185D01*
X339020Y232085D01*
X339038Y231984D01*
X339051Y231883D01*
X339061Y231781D01*
X339067Y231679D01*
X339069Y231577D01*
X336402Y234244D02*
X336286Y234242D01*
X336169Y234236D01*
X336053Y234226D01*
X335938Y234212D01*
X335823Y234195D01*
X335708Y234173D01*
X335595Y234147D01*
X335482Y234118D01*
X335370Y234085D01*
X335260Y234048D01*
X335151Y234007D01*
X335043Y233963D01*
X334937Y233915D01*
X334833Y233863D01*
X334730Y233808D01*
X334629Y233750D01*
X334531Y233688D01*
X334434Y233623D01*
X334340Y233554D01*
X334248Y233482D01*
X334159Y233408D01*
X334072Y233330D01*
X333988Y233249D01*
X333907Y233166D01*
X333829Y233080D01*
X333753Y232991D01*
X333681Y232900D01*
X333612Y232806D01*
X333546Y232710D01*
X333483Y232612D01*
X333424Y232512D01*
X333368Y232410D01*
X333316Y232306D01*
X333267Y232200D01*
X333222Y232093D01*
X333180Y231984D01*
X333143Y231874D01*
X338180Y229502D02*
X338255Y229576D01*
X338327Y229653D01*
X338396Y229733D01*
X338463Y229815D01*
X338526Y229899D01*
X338586Y229986D01*
X338643Y230074D01*
X338697Y230165D01*
X338747Y230258D01*
X338794Y230352D01*
X338837Y230448D01*
X338877Y230546D01*
X338913Y230645D01*
X338946Y230745D01*
X338974Y230847D01*
X338999Y230949D01*
X339021Y231053D01*
X339038Y231157D01*
X339052Y231261D01*
X339061Y231366D01*
X339067Y231472D01*
X339069Y231577D01*
X338180Y229503D02*
X333142Y223576D01*
X339069Y223576D01*
D13*
X60390Y228917D02*
X60390Y193370D01*
X60390Y228917D02*
X35610Y228917D01*
X35610Y193370D01*
D11*
X64531Y197556D02*
X64531Y208224D01*
X67495Y208224D01*
X67601Y208222D01*
X67706Y208216D01*
X67812Y208207D01*
X67917Y208194D01*
X68021Y208177D01*
X68125Y208156D01*
X68228Y208132D01*
X68330Y208104D01*
X68431Y208072D01*
X68530Y208037D01*
X68629Y207998D01*
X68726Y207956D01*
X68821Y207911D01*
X68915Y207862D01*
X69007Y207809D01*
X69097Y207754D01*
X69185Y207695D01*
X69271Y207633D01*
X69354Y207568D01*
X69435Y207500D01*
X69514Y207430D01*
X69590Y207356D01*
X69664Y207280D01*
X69734Y207201D01*
X69802Y207120D01*
X69867Y207037D01*
X69929Y206951D01*
X69988Y206863D01*
X70043Y206773D01*
X70096Y206681D01*
X70145Y206587D01*
X70190Y206492D01*
X70232Y206395D01*
X70271Y206296D01*
X70306Y206197D01*
X70338Y206096D01*
X70366Y205994D01*
X70390Y205891D01*
X70411Y205787D01*
X70428Y205683D01*
X70441Y205578D01*
X70450Y205472D01*
X70456Y205367D01*
X70458Y205261D01*
X70458Y200519D01*
X70456Y200413D01*
X70450Y200308D01*
X70441Y200202D01*
X70428Y200097D01*
X70411Y199993D01*
X70390Y199889D01*
X70366Y199786D01*
X70338Y199684D01*
X70306Y199583D01*
X70271Y199484D01*
X70232Y199385D01*
X70190Y199288D01*
X70145Y199193D01*
X70096Y199099D01*
X70043Y199007D01*
X69988Y198917D01*
X69929Y198829D01*
X69867Y198743D01*
X69802Y198660D01*
X69734Y198579D01*
X69664Y198500D01*
X69590Y198424D01*
X69514Y198350D01*
X69435Y198280D01*
X69354Y198212D01*
X69271Y198147D01*
X69185Y198085D01*
X69097Y198026D01*
X69007Y197971D01*
X68915Y197918D01*
X68821Y197869D01*
X68726Y197824D01*
X68629Y197782D01*
X68530Y197743D01*
X68431Y197708D01*
X68330Y197676D01*
X68228Y197648D01*
X68125Y197624D01*
X68021Y197603D01*
X67917Y197586D01*
X67812Y197573D01*
X67706Y197564D01*
X67601Y197558D01*
X67495Y197556D01*
X64531Y197556D01*
X76342Y197556D02*
X79305Y197556D01*
X79412Y197558D01*
X79519Y197564D01*
X79625Y197573D01*
X79731Y197587D01*
X79837Y197604D01*
X79942Y197625D01*
X80046Y197650D01*
X80149Y197679D01*
X80251Y197711D01*
X80352Y197747D01*
X80451Y197787D01*
X80549Y197830D01*
X80645Y197877D01*
X80740Y197927D01*
X80833Y197980D01*
X80923Y198037D01*
X81012Y198097D01*
X81098Y198160D01*
X81182Y198226D01*
X81264Y198296D01*
X81343Y198368D01*
X81419Y198443D01*
X81493Y198521D01*
X81563Y198601D01*
X81631Y198684D01*
X81696Y198769D01*
X81757Y198856D01*
X81816Y198946D01*
X81871Y199038D01*
X81923Y199131D01*
X81971Y199227D01*
X82016Y199324D01*
X82058Y199422D01*
X82095Y199522D01*
X82130Y199624D01*
X82160Y199726D01*
X82187Y199830D01*
X82210Y199934D01*
X82229Y200040D01*
X82244Y200146D01*
X82256Y200252D01*
X82264Y200359D01*
X82268Y200466D01*
X82268Y200572D01*
X82264Y200679D01*
X82256Y200786D01*
X82244Y200892D01*
X82229Y200998D01*
X82210Y201104D01*
X82187Y201208D01*
X82160Y201312D01*
X82130Y201414D01*
X82095Y201516D01*
X82058Y201616D01*
X82016Y201714D01*
X81971Y201811D01*
X81923Y201907D01*
X81871Y202000D01*
X81816Y202092D01*
X81757Y202182D01*
X81696Y202269D01*
X81631Y202354D01*
X81563Y202437D01*
X81493Y202517D01*
X81419Y202595D01*
X81343Y202670D01*
X81264Y202742D01*
X81182Y202812D01*
X81098Y202878D01*
X81012Y202941D01*
X80923Y203001D01*
X80833Y203058D01*
X80740Y203111D01*
X80645Y203161D01*
X80549Y203208D01*
X80451Y203251D01*
X80352Y203291D01*
X80251Y203327D01*
X80149Y203359D01*
X80046Y203388D01*
X79942Y203413D01*
X79837Y203434D01*
X79731Y203451D01*
X79625Y203465D01*
X79519Y203474D01*
X79412Y203480D01*
X79305Y203482D01*
X79898Y208224D02*
X76342Y208224D01*
X79898Y208224D02*
X79995Y208222D01*
X80091Y208216D01*
X80187Y208206D01*
X80283Y208192D01*
X80378Y208175D01*
X80473Y208153D01*
X80566Y208128D01*
X80658Y208099D01*
X80749Y208066D01*
X80839Y208029D01*
X80927Y207989D01*
X81013Y207945D01*
X81097Y207898D01*
X81180Y207848D01*
X81260Y207794D01*
X81338Y207736D01*
X81414Y207676D01*
X81487Y207613D01*
X81557Y207547D01*
X81625Y207477D01*
X81690Y207406D01*
X81752Y207331D01*
X81810Y207254D01*
X81866Y207175D01*
X81918Y207094D01*
X81967Y207010D01*
X82013Y206925D01*
X82055Y206838D01*
X82093Y206749D01*
X82128Y206659D01*
X82159Y206567D01*
X82186Y206474D01*
X82210Y206381D01*
X82229Y206286D01*
X82245Y206190D01*
X82257Y206094D01*
X82265Y205998D01*
X82269Y205901D01*
X82269Y205805D01*
X82265Y205708D01*
X82257Y205612D01*
X82245Y205516D01*
X82229Y205420D01*
X82210Y205325D01*
X82186Y205232D01*
X82159Y205139D01*
X82128Y205047D01*
X82093Y204957D01*
X82055Y204868D01*
X82013Y204781D01*
X81967Y204696D01*
X81918Y204612D01*
X81866Y204531D01*
X81810Y204452D01*
X81752Y204375D01*
X81690Y204300D01*
X81625Y204229D01*
X81557Y204159D01*
X81487Y204093D01*
X81414Y204030D01*
X81338Y203970D01*
X81260Y203912D01*
X81180Y203858D01*
X81097Y203808D01*
X81013Y203761D01*
X80927Y203717D01*
X80839Y203677D01*
X80749Y203640D01*
X80658Y203607D01*
X80566Y203578D01*
X80473Y203553D01*
X80378Y203531D01*
X80283Y203514D01*
X80187Y203500D01*
X80091Y203490D01*
X79995Y203484D01*
X79898Y203482D01*
X79898Y203483D02*
X77527Y203483D01*
X64288Y318516D02*
X64288Y329184D01*
X67251Y329184D01*
X67358Y329182D01*
X67465Y329176D01*
X67571Y329167D01*
X67677Y329153D01*
X67783Y329136D01*
X67888Y329115D01*
X67992Y329090D01*
X68095Y329061D01*
X68197Y329029D01*
X68298Y328993D01*
X68397Y328953D01*
X68495Y328910D01*
X68591Y328863D01*
X68686Y328813D01*
X68779Y328760D01*
X68869Y328703D01*
X68958Y328643D01*
X69044Y328580D01*
X69128Y328514D01*
X69210Y328444D01*
X69289Y328372D01*
X69365Y328297D01*
X69439Y328219D01*
X69509Y328139D01*
X69577Y328056D01*
X69642Y327971D01*
X69703Y327884D01*
X69762Y327794D01*
X69817Y327703D01*
X69869Y327609D01*
X69917Y327513D01*
X69962Y327416D01*
X70004Y327318D01*
X70041Y327218D01*
X70076Y327116D01*
X70106Y327014D01*
X70133Y326910D01*
X70156Y326806D01*
X70175Y326700D01*
X70190Y326594D01*
X70202Y326488D01*
X70210Y326381D01*
X70214Y326274D01*
X70214Y326168D01*
X70210Y326061D01*
X70202Y325954D01*
X70190Y325848D01*
X70175Y325742D01*
X70156Y325636D01*
X70133Y325532D01*
X70106Y325428D01*
X70076Y325326D01*
X70041Y325224D01*
X70004Y325124D01*
X69962Y325026D01*
X69917Y324929D01*
X69869Y324833D01*
X69817Y324740D01*
X69762Y324648D01*
X69703Y324558D01*
X69642Y324471D01*
X69577Y324386D01*
X69509Y324303D01*
X69439Y324223D01*
X69365Y324145D01*
X69289Y324070D01*
X69210Y323998D01*
X69128Y323928D01*
X69044Y323862D01*
X68958Y323799D01*
X68869Y323739D01*
X68779Y323682D01*
X68686Y323629D01*
X68591Y323579D01*
X68495Y323532D01*
X68397Y323489D01*
X68298Y323449D01*
X68197Y323413D01*
X68095Y323381D01*
X67992Y323352D01*
X67888Y323327D01*
X67783Y323306D01*
X67677Y323289D01*
X67571Y323275D01*
X67465Y323266D01*
X67358Y323260D01*
X67251Y323258D01*
X67251Y323257D02*
X64288Y323257D01*
X67844Y323257D02*
X70214Y318516D01*
X75607Y324443D02*
X79163Y324443D01*
X79258Y324441D01*
X79354Y324435D01*
X79449Y324426D01*
X79543Y324412D01*
X79637Y324395D01*
X79730Y324374D01*
X79823Y324349D01*
X79914Y324321D01*
X80004Y324289D01*
X80092Y324253D01*
X80179Y324214D01*
X80265Y324171D01*
X80349Y324125D01*
X80430Y324076D01*
X80510Y324023D01*
X80587Y323967D01*
X80663Y323909D01*
X80735Y323847D01*
X80805Y323782D01*
X80873Y323714D01*
X80938Y323644D01*
X81000Y323572D01*
X81058Y323496D01*
X81114Y323419D01*
X81167Y323339D01*
X81216Y323258D01*
X81262Y323174D01*
X81305Y323088D01*
X81344Y323001D01*
X81380Y322913D01*
X81412Y322823D01*
X81440Y322732D01*
X81465Y322639D01*
X81486Y322546D01*
X81503Y322452D01*
X81517Y322358D01*
X81526Y322263D01*
X81532Y322167D01*
X81534Y322072D01*
X81534Y321479D01*
X81532Y321372D01*
X81526Y321265D01*
X81517Y321159D01*
X81503Y321053D01*
X81486Y320947D01*
X81465Y320842D01*
X81440Y320738D01*
X81411Y320635D01*
X81379Y320533D01*
X81343Y320432D01*
X81303Y320333D01*
X81260Y320235D01*
X81213Y320139D01*
X81163Y320044D01*
X81110Y319951D01*
X81053Y319861D01*
X80993Y319772D01*
X80930Y319686D01*
X80864Y319602D01*
X80794Y319520D01*
X80722Y319441D01*
X80647Y319365D01*
X80569Y319291D01*
X80489Y319221D01*
X80406Y319153D01*
X80321Y319088D01*
X80234Y319027D01*
X80144Y318968D01*
X80052Y318913D01*
X79959Y318861D01*
X79863Y318813D01*
X79766Y318768D01*
X79668Y318726D01*
X79568Y318689D01*
X79466Y318654D01*
X79364Y318624D01*
X79260Y318597D01*
X79156Y318574D01*
X79050Y318555D01*
X78944Y318540D01*
X78838Y318528D01*
X78731Y318520D01*
X78624Y318516D01*
X78518Y318516D01*
X78411Y318520D01*
X78304Y318528D01*
X78198Y318540D01*
X78092Y318555D01*
X77986Y318574D01*
X77882Y318597D01*
X77778Y318624D01*
X77676Y318654D01*
X77574Y318689D01*
X77474Y318726D01*
X77376Y318768D01*
X77279Y318813D01*
X77183Y318861D01*
X77089Y318913D01*
X76998Y318968D01*
X76908Y319027D01*
X76821Y319088D01*
X76736Y319153D01*
X76653Y319221D01*
X76573Y319291D01*
X76495Y319365D01*
X76420Y319441D01*
X76348Y319520D01*
X76278Y319602D01*
X76212Y319686D01*
X76149Y319772D01*
X76089Y319861D01*
X76032Y319951D01*
X75979Y320044D01*
X75929Y320139D01*
X75882Y320235D01*
X75839Y320333D01*
X75799Y320432D01*
X75763Y320533D01*
X75731Y320635D01*
X75702Y320738D01*
X75677Y320842D01*
X75656Y320947D01*
X75639Y321053D01*
X75625Y321159D01*
X75616Y321265D01*
X75610Y321372D01*
X75608Y321479D01*
X75607Y321479D02*
X75607Y324443D01*
X75608Y324443D02*
X75610Y324578D01*
X75616Y324714D01*
X75625Y324849D01*
X75639Y324983D01*
X75656Y325118D01*
X75677Y325251D01*
X75702Y325385D01*
X75731Y325517D01*
X75764Y325648D01*
X75800Y325779D01*
X75840Y325908D01*
X75884Y326036D01*
X75931Y326163D01*
X75982Y326289D01*
X76036Y326412D01*
X76094Y326535D01*
X76156Y326655D01*
X76221Y326774D01*
X76289Y326891D01*
X76361Y327006D01*
X76435Y327119D01*
X76513Y327230D01*
X76595Y327338D01*
X76679Y327444D01*
X76766Y327548D01*
X76856Y327649D01*
X76949Y327747D01*
X77045Y327843D01*
X77143Y327936D01*
X77244Y328026D01*
X77348Y328113D01*
X77454Y328197D01*
X77562Y328279D01*
X77673Y328357D01*
X77786Y328431D01*
X77901Y328503D01*
X78018Y328571D01*
X78137Y328636D01*
X78257Y328698D01*
X78379Y328756D01*
X78503Y328810D01*
X78629Y328861D01*
X78756Y328908D01*
X78884Y328952D01*
X79013Y328992D01*
X79144Y329028D01*
X79275Y329061D01*
X79407Y329090D01*
X79541Y329115D01*
X79674Y329136D01*
X79809Y329153D01*
X79943Y329167D01*
X80078Y329176D01*
X80214Y329182D01*
X80349Y329184D01*
X64288Y278384D02*
X64288Y267716D01*
X64288Y278384D02*
X67251Y278384D01*
X67358Y278382D01*
X67465Y278376D01*
X67571Y278367D01*
X67677Y278353D01*
X67783Y278336D01*
X67888Y278315D01*
X67992Y278290D01*
X68095Y278261D01*
X68197Y278229D01*
X68298Y278193D01*
X68397Y278153D01*
X68495Y278110D01*
X68591Y278063D01*
X68686Y278013D01*
X68779Y277960D01*
X68869Y277903D01*
X68958Y277843D01*
X69044Y277780D01*
X69128Y277714D01*
X69210Y277644D01*
X69289Y277572D01*
X69365Y277497D01*
X69439Y277419D01*
X69509Y277339D01*
X69577Y277256D01*
X69642Y277171D01*
X69703Y277084D01*
X69762Y276994D01*
X69817Y276903D01*
X69869Y276809D01*
X69917Y276713D01*
X69962Y276616D01*
X70004Y276518D01*
X70041Y276418D01*
X70076Y276316D01*
X70106Y276214D01*
X70133Y276110D01*
X70156Y276006D01*
X70175Y275900D01*
X70190Y275794D01*
X70202Y275688D01*
X70210Y275581D01*
X70214Y275474D01*
X70214Y275368D01*
X70210Y275261D01*
X70202Y275154D01*
X70190Y275048D01*
X70175Y274942D01*
X70156Y274836D01*
X70133Y274732D01*
X70106Y274628D01*
X70076Y274526D01*
X70041Y274424D01*
X70004Y274324D01*
X69962Y274226D01*
X69917Y274129D01*
X69869Y274033D01*
X69817Y273940D01*
X69762Y273848D01*
X69703Y273758D01*
X69642Y273671D01*
X69577Y273586D01*
X69509Y273503D01*
X69439Y273423D01*
X69365Y273345D01*
X69289Y273270D01*
X69210Y273198D01*
X69128Y273128D01*
X69044Y273062D01*
X68958Y272999D01*
X68869Y272939D01*
X68779Y272882D01*
X68686Y272829D01*
X68591Y272779D01*
X68495Y272732D01*
X68397Y272689D01*
X68298Y272649D01*
X68197Y272613D01*
X68095Y272581D01*
X67992Y272552D01*
X67888Y272527D01*
X67783Y272506D01*
X67677Y272489D01*
X67571Y272475D01*
X67465Y272466D01*
X67358Y272460D01*
X67251Y272458D01*
X67251Y272457D02*
X64288Y272457D01*
X67844Y272457D02*
X70214Y267716D01*
X75607Y277199D02*
X75607Y278384D01*
X81534Y278384D01*
X78571Y267716D01*
D14*
X53033Y74500D02*
X53033Y52500D01*
X73967Y52500D02*
X73967Y74500D01*
D11*
X83520Y57316D02*
X85891Y57316D01*
X83520Y57316D02*
X83425Y57318D01*
X83329Y57324D01*
X83234Y57333D01*
X83140Y57347D01*
X83046Y57364D01*
X82953Y57385D01*
X82860Y57410D01*
X82769Y57438D01*
X82679Y57470D01*
X82591Y57506D01*
X82504Y57545D01*
X82418Y57588D01*
X82334Y57634D01*
X82253Y57683D01*
X82173Y57736D01*
X82096Y57792D01*
X82020Y57850D01*
X81948Y57912D01*
X81878Y57977D01*
X81810Y58045D01*
X81745Y58115D01*
X81683Y58187D01*
X81625Y58263D01*
X81569Y58340D01*
X81516Y58420D01*
X81467Y58502D01*
X81421Y58585D01*
X81378Y58671D01*
X81339Y58758D01*
X81303Y58846D01*
X81271Y58936D01*
X81243Y59027D01*
X81218Y59120D01*
X81197Y59213D01*
X81180Y59307D01*
X81166Y59401D01*
X81157Y59496D01*
X81151Y59592D01*
X81149Y59687D01*
X81149Y65613D01*
X81151Y65708D01*
X81157Y65804D01*
X81166Y65899D01*
X81180Y65993D01*
X81197Y66087D01*
X81218Y66180D01*
X81243Y66273D01*
X81271Y66364D01*
X81303Y66454D01*
X81339Y66542D01*
X81378Y66629D01*
X81421Y66715D01*
X81467Y66798D01*
X81516Y66880D01*
X81569Y66960D01*
X81625Y67037D01*
X81683Y67113D01*
X81745Y67185D01*
X81810Y67255D01*
X81878Y67323D01*
X81948Y67388D01*
X82020Y67450D01*
X82096Y67508D01*
X82173Y67564D01*
X82253Y67617D01*
X82334Y67666D01*
X82418Y67712D01*
X82504Y67755D01*
X82591Y67794D01*
X82679Y67830D01*
X82769Y67862D01*
X82860Y67890D01*
X82953Y67915D01*
X83046Y67936D01*
X83140Y67953D01*
X83234Y67967D01*
X83329Y67976D01*
X83424Y67982D01*
X83520Y67984D01*
X85891Y67984D01*
X90724Y57316D02*
X93687Y57316D01*
X93794Y57318D01*
X93901Y57324D01*
X94007Y57333D01*
X94113Y57347D01*
X94219Y57364D01*
X94324Y57385D01*
X94428Y57410D01*
X94531Y57439D01*
X94633Y57471D01*
X94734Y57507D01*
X94833Y57547D01*
X94931Y57590D01*
X95027Y57637D01*
X95122Y57687D01*
X95215Y57740D01*
X95305Y57797D01*
X95394Y57857D01*
X95480Y57920D01*
X95564Y57986D01*
X95646Y58056D01*
X95725Y58128D01*
X95801Y58203D01*
X95875Y58281D01*
X95945Y58361D01*
X96013Y58444D01*
X96078Y58529D01*
X96139Y58616D01*
X96198Y58706D01*
X96253Y58797D01*
X96305Y58891D01*
X96353Y58987D01*
X96398Y59084D01*
X96440Y59182D01*
X96477Y59282D01*
X96512Y59384D01*
X96542Y59486D01*
X96569Y59590D01*
X96592Y59694D01*
X96611Y59800D01*
X96626Y59906D01*
X96638Y60012D01*
X96646Y60119D01*
X96650Y60226D01*
X96650Y60332D01*
X96646Y60439D01*
X96638Y60546D01*
X96626Y60652D01*
X96611Y60758D01*
X96592Y60864D01*
X96569Y60968D01*
X96542Y61072D01*
X96512Y61174D01*
X96477Y61276D01*
X96440Y61376D01*
X96398Y61474D01*
X96353Y61571D01*
X96305Y61667D01*
X96253Y61760D01*
X96198Y61852D01*
X96139Y61942D01*
X96078Y62029D01*
X96013Y62114D01*
X95945Y62197D01*
X95875Y62277D01*
X95801Y62355D01*
X95725Y62430D01*
X95646Y62502D01*
X95564Y62572D01*
X95480Y62638D01*
X95394Y62701D01*
X95305Y62761D01*
X95215Y62818D01*
X95122Y62871D01*
X95027Y62921D01*
X94931Y62968D01*
X94833Y63011D01*
X94734Y63051D01*
X94633Y63087D01*
X94531Y63119D01*
X94428Y63148D01*
X94324Y63173D01*
X94219Y63194D01*
X94113Y63211D01*
X94007Y63225D01*
X93901Y63234D01*
X93794Y63240D01*
X93687Y63242D01*
X94280Y67984D02*
X90724Y67984D01*
X94280Y67984D02*
X94377Y67982D01*
X94473Y67976D01*
X94569Y67966D01*
X94665Y67952D01*
X94760Y67935D01*
X94855Y67913D01*
X94948Y67888D01*
X95040Y67859D01*
X95131Y67826D01*
X95221Y67789D01*
X95309Y67749D01*
X95395Y67705D01*
X95479Y67658D01*
X95562Y67608D01*
X95642Y67554D01*
X95720Y67496D01*
X95796Y67436D01*
X95869Y67373D01*
X95939Y67307D01*
X96007Y67237D01*
X96072Y67166D01*
X96134Y67091D01*
X96192Y67014D01*
X96248Y66935D01*
X96300Y66854D01*
X96349Y66770D01*
X96395Y66685D01*
X96437Y66598D01*
X96475Y66509D01*
X96510Y66419D01*
X96541Y66327D01*
X96568Y66234D01*
X96592Y66141D01*
X96611Y66046D01*
X96627Y65950D01*
X96639Y65854D01*
X96647Y65758D01*
X96651Y65661D01*
X96651Y65565D01*
X96647Y65468D01*
X96639Y65372D01*
X96627Y65276D01*
X96611Y65180D01*
X96592Y65085D01*
X96568Y64992D01*
X96541Y64899D01*
X96510Y64807D01*
X96475Y64717D01*
X96437Y64628D01*
X96395Y64541D01*
X96349Y64456D01*
X96300Y64372D01*
X96248Y64291D01*
X96192Y64212D01*
X96134Y64135D01*
X96072Y64060D01*
X96007Y63989D01*
X95939Y63919D01*
X95869Y63853D01*
X95796Y63790D01*
X95720Y63730D01*
X95642Y63672D01*
X95562Y63618D01*
X95479Y63568D01*
X95395Y63521D01*
X95309Y63477D01*
X95221Y63437D01*
X95131Y63400D01*
X95040Y63367D01*
X94948Y63338D01*
X94855Y63313D01*
X94760Y63291D01*
X94665Y63274D01*
X94569Y63260D01*
X94473Y63250D01*
X94377Y63244D01*
X94280Y63242D01*
X94280Y63243D02*
X91909Y63243D01*
D14*
X36400Y167320D02*
X14400Y167320D01*
X14400Y146386D02*
X36400Y146386D01*
D11*
X47620Y149286D02*
X49991Y149286D01*
X47620Y149286D02*
X47525Y149288D01*
X47429Y149294D01*
X47334Y149303D01*
X47240Y149317D01*
X47146Y149334D01*
X47053Y149355D01*
X46960Y149380D01*
X46869Y149408D01*
X46779Y149440D01*
X46691Y149476D01*
X46604Y149515D01*
X46518Y149558D01*
X46434Y149604D01*
X46353Y149653D01*
X46273Y149706D01*
X46196Y149762D01*
X46120Y149820D01*
X46048Y149882D01*
X45978Y149947D01*
X45910Y150015D01*
X45845Y150085D01*
X45783Y150157D01*
X45725Y150233D01*
X45669Y150310D01*
X45616Y150390D01*
X45567Y150472D01*
X45521Y150555D01*
X45478Y150641D01*
X45439Y150728D01*
X45403Y150816D01*
X45371Y150906D01*
X45343Y150997D01*
X45318Y151090D01*
X45297Y151183D01*
X45280Y151277D01*
X45266Y151371D01*
X45257Y151466D01*
X45251Y151562D01*
X45249Y151657D01*
X45249Y157583D01*
X45251Y157678D01*
X45257Y157774D01*
X45266Y157869D01*
X45280Y157963D01*
X45297Y158057D01*
X45318Y158150D01*
X45343Y158243D01*
X45371Y158334D01*
X45403Y158424D01*
X45439Y158512D01*
X45478Y158599D01*
X45521Y158685D01*
X45567Y158768D01*
X45616Y158850D01*
X45669Y158930D01*
X45725Y159007D01*
X45783Y159083D01*
X45845Y159155D01*
X45910Y159225D01*
X45978Y159293D01*
X46048Y159358D01*
X46120Y159420D01*
X46196Y159478D01*
X46273Y159534D01*
X46353Y159587D01*
X46434Y159636D01*
X46518Y159682D01*
X46604Y159725D01*
X46691Y159764D01*
X46779Y159800D01*
X46869Y159832D01*
X46960Y159860D01*
X47053Y159885D01*
X47146Y159906D01*
X47240Y159923D01*
X47334Y159937D01*
X47429Y159946D01*
X47524Y159952D01*
X47620Y159954D01*
X49991Y159954D01*
X57195Y159954D02*
X54824Y151657D01*
X60751Y151657D01*
X58973Y154027D02*
X58973Y149286D01*
X57340Y106934D02*
X57340Y99229D01*
X57341Y99229D02*
X57343Y99122D01*
X57349Y99015D01*
X57358Y98909D01*
X57372Y98803D01*
X57389Y98697D01*
X57410Y98592D01*
X57435Y98488D01*
X57464Y98385D01*
X57496Y98283D01*
X57532Y98182D01*
X57572Y98083D01*
X57615Y97985D01*
X57662Y97889D01*
X57712Y97794D01*
X57765Y97701D01*
X57822Y97611D01*
X57882Y97522D01*
X57945Y97436D01*
X58011Y97352D01*
X58081Y97270D01*
X58153Y97191D01*
X58228Y97115D01*
X58306Y97041D01*
X58386Y96971D01*
X58469Y96903D01*
X58554Y96838D01*
X58641Y96777D01*
X58731Y96718D01*
X58822Y96663D01*
X58916Y96611D01*
X59012Y96563D01*
X59109Y96518D01*
X59207Y96476D01*
X59307Y96439D01*
X59409Y96404D01*
X59511Y96374D01*
X59615Y96347D01*
X59719Y96324D01*
X59825Y96305D01*
X59931Y96290D01*
X60037Y96278D01*
X60144Y96270D01*
X60251Y96266D01*
X60357Y96266D01*
X60464Y96270D01*
X60571Y96278D01*
X60677Y96290D01*
X60783Y96305D01*
X60889Y96324D01*
X60993Y96347D01*
X61097Y96374D01*
X61199Y96404D01*
X61301Y96439D01*
X61401Y96476D01*
X61499Y96518D01*
X61596Y96563D01*
X61692Y96611D01*
X61785Y96663D01*
X61877Y96718D01*
X61967Y96777D01*
X62054Y96838D01*
X62139Y96903D01*
X62222Y96971D01*
X62302Y97041D01*
X62380Y97115D01*
X62455Y97191D01*
X62527Y97270D01*
X62597Y97352D01*
X62663Y97436D01*
X62726Y97522D01*
X62786Y97611D01*
X62843Y97701D01*
X62896Y97794D01*
X62946Y97889D01*
X62993Y97985D01*
X63036Y98083D01*
X63076Y98182D01*
X63112Y98283D01*
X63144Y98385D01*
X63173Y98488D01*
X63198Y98592D01*
X63219Y98697D01*
X63236Y98803D01*
X63250Y98909D01*
X63259Y99015D01*
X63265Y99122D01*
X63267Y99229D01*
X63267Y106934D01*
X71353Y106934D02*
X71353Y96266D01*
X71353Y101600D02*
X69871Y102489D01*
X69802Y102533D01*
X69734Y102580D01*
X69669Y102631D01*
X69606Y102684D01*
X69546Y102740D01*
X69488Y102799D01*
X69433Y102861D01*
X69382Y102925D01*
X69333Y102991D01*
X69287Y103059D01*
X69245Y103130D01*
X69205Y103203D01*
X69170Y103277D01*
X69137Y103353D01*
X69109Y103430D01*
X69084Y103508D01*
X69062Y103588D01*
X69045Y103668D01*
X69031Y103750D01*
X69021Y103831D01*
X69014Y103913D01*
X69012Y103996D01*
X69013Y104078D01*
X69019Y104160D01*
X69028Y104242D01*
X69041Y104324D01*
X69057Y104404D01*
X69078Y104484D01*
X69102Y104563D01*
X69129Y104641D01*
X69161Y104717D01*
X69195Y104791D01*
X69234Y104864D01*
X69275Y104936D01*
X69320Y105005D01*
X69368Y105072D01*
X69419Y105136D01*
X69473Y105198D01*
X69530Y105258D01*
X69589Y105315D01*
X69652Y105369D01*
X69716Y105420D01*
X69783Y105468D01*
X69852Y105513D01*
X69923Y105555D01*
X69996Y105593D01*
X70071Y105628D01*
X70147Y105659D01*
X70225Y105687D01*
X70303Y105711D01*
X70383Y105731D01*
X70464Y105748D01*
X70464Y105749D02*
X70598Y105771D01*
X70732Y105790D01*
X70866Y105804D01*
X71001Y105815D01*
X71137Y105822D01*
X71272Y105825D01*
X71408Y105824D01*
X71543Y105819D01*
X71678Y105810D01*
X71813Y105798D01*
X71947Y105781D01*
X72081Y105761D01*
X72214Y105737D01*
X72347Y105709D01*
X72478Y105677D01*
X72609Y105641D01*
X72739Y105602D01*
X72867Y105559D01*
X72994Y105512D01*
X73120Y105461D01*
X73244Y105407D01*
X73367Y105350D01*
X73487Y105289D01*
X73606Y105224D01*
X73724Y105156D01*
X71353Y101600D02*
X72834Y100711D01*
X72903Y100667D01*
X72971Y100620D01*
X73036Y100569D01*
X73099Y100516D01*
X73159Y100460D01*
X73217Y100401D01*
X73272Y100339D01*
X73323Y100275D01*
X73372Y100209D01*
X73418Y100141D01*
X73460Y100070D01*
X73500Y99997D01*
X73535Y99923D01*
X73568Y99847D01*
X73596Y99770D01*
X73621Y99692D01*
X73643Y99612D01*
X73660Y99532D01*
X73674Y99450D01*
X73684Y99369D01*
X73691Y99287D01*
X73693Y99204D01*
X73692Y99122D01*
X73686Y99040D01*
X73677Y98958D01*
X73664Y98876D01*
X73648Y98796D01*
X73627Y98716D01*
X73603Y98637D01*
X73576Y98559D01*
X73544Y98483D01*
X73510Y98409D01*
X73471Y98336D01*
X73430Y98264D01*
X73385Y98195D01*
X73337Y98128D01*
X73286Y98064D01*
X73232Y98002D01*
X73175Y97942D01*
X73116Y97885D01*
X73053Y97831D01*
X72989Y97780D01*
X72922Y97732D01*
X72853Y97687D01*
X72782Y97645D01*
X72709Y97607D01*
X72634Y97572D01*
X72558Y97541D01*
X72480Y97513D01*
X72402Y97489D01*
X72322Y97469D01*
X72241Y97452D01*
X72242Y97451D02*
X72108Y97429D01*
X71974Y97410D01*
X71840Y97396D01*
X71705Y97385D01*
X71569Y97378D01*
X71434Y97375D01*
X71298Y97376D01*
X71163Y97381D01*
X71028Y97390D01*
X70893Y97402D01*
X70759Y97419D01*
X70625Y97439D01*
X70492Y97463D01*
X70359Y97491D01*
X70227Y97523D01*
X70097Y97559D01*
X69967Y97598D01*
X69839Y97641D01*
X69712Y97688D01*
X69586Y97739D01*
X69462Y97793D01*
X69339Y97850D01*
X69219Y97912D01*
X69099Y97976D01*
X68982Y98044D01*
X79057Y104563D02*
X82021Y106934D01*
X82021Y96266D01*
X84984Y96266D02*
X79057Y96266D01*
D14*
X36400Y140467D02*
X14400Y140467D01*
X14400Y119533D02*
X36400Y119533D01*
D11*
X47620Y126416D02*
X49991Y126416D01*
X47620Y126416D02*
X47525Y126418D01*
X47429Y126424D01*
X47334Y126433D01*
X47240Y126447D01*
X47146Y126464D01*
X47053Y126485D01*
X46960Y126510D01*
X46869Y126538D01*
X46779Y126570D01*
X46691Y126606D01*
X46604Y126645D01*
X46518Y126688D01*
X46434Y126734D01*
X46353Y126783D01*
X46273Y126836D01*
X46196Y126892D01*
X46120Y126950D01*
X46048Y127012D01*
X45978Y127077D01*
X45910Y127145D01*
X45845Y127215D01*
X45783Y127287D01*
X45725Y127363D01*
X45669Y127440D01*
X45616Y127520D01*
X45567Y127602D01*
X45521Y127685D01*
X45478Y127771D01*
X45439Y127858D01*
X45403Y127946D01*
X45371Y128036D01*
X45343Y128127D01*
X45318Y128220D01*
X45297Y128313D01*
X45280Y128407D01*
X45266Y128501D01*
X45257Y128596D01*
X45251Y128692D01*
X45249Y128787D01*
X45249Y134713D01*
X45251Y134808D01*
X45257Y134904D01*
X45266Y134999D01*
X45280Y135093D01*
X45297Y135187D01*
X45318Y135280D01*
X45343Y135373D01*
X45371Y135464D01*
X45403Y135554D01*
X45439Y135642D01*
X45478Y135729D01*
X45521Y135815D01*
X45567Y135898D01*
X45616Y135980D01*
X45669Y136060D01*
X45725Y136137D01*
X45783Y136213D01*
X45845Y136285D01*
X45910Y136355D01*
X45978Y136423D01*
X46048Y136488D01*
X46120Y136550D01*
X46196Y136608D01*
X46273Y136664D01*
X46353Y136717D01*
X46434Y136766D01*
X46518Y136812D01*
X46604Y136855D01*
X46691Y136894D01*
X46779Y136930D01*
X46869Y136962D01*
X46960Y136990D01*
X47053Y137015D01*
X47146Y137036D01*
X47240Y137053D01*
X47334Y137067D01*
X47429Y137076D01*
X47524Y137082D01*
X47620Y137084D01*
X49991Y137084D01*
X54824Y126416D02*
X58380Y126416D01*
X58475Y126418D01*
X58571Y126424D01*
X58666Y126433D01*
X58760Y126447D01*
X58854Y126464D01*
X58947Y126485D01*
X59040Y126510D01*
X59131Y126538D01*
X59221Y126570D01*
X59309Y126606D01*
X59396Y126645D01*
X59482Y126688D01*
X59566Y126734D01*
X59647Y126783D01*
X59727Y126836D01*
X59804Y126892D01*
X59880Y126950D01*
X59952Y127012D01*
X60022Y127077D01*
X60090Y127145D01*
X60155Y127215D01*
X60217Y127287D01*
X60275Y127363D01*
X60331Y127440D01*
X60384Y127520D01*
X60433Y127602D01*
X60479Y127685D01*
X60522Y127771D01*
X60561Y127858D01*
X60597Y127946D01*
X60629Y128036D01*
X60657Y128127D01*
X60682Y128220D01*
X60703Y128313D01*
X60720Y128407D01*
X60734Y128501D01*
X60743Y128596D01*
X60749Y128692D01*
X60751Y128787D01*
X60751Y129972D01*
X60749Y130067D01*
X60743Y130163D01*
X60734Y130258D01*
X60720Y130352D01*
X60703Y130446D01*
X60682Y130539D01*
X60657Y130632D01*
X60629Y130723D01*
X60597Y130813D01*
X60561Y130901D01*
X60522Y130988D01*
X60479Y131074D01*
X60433Y131158D01*
X60384Y131239D01*
X60331Y131319D01*
X60275Y131396D01*
X60217Y131472D01*
X60155Y131544D01*
X60090Y131614D01*
X60022Y131682D01*
X59952Y131747D01*
X59880Y131809D01*
X59804Y131867D01*
X59727Y131923D01*
X59647Y131976D01*
X59566Y132025D01*
X59482Y132071D01*
X59396Y132114D01*
X59309Y132153D01*
X59221Y132189D01*
X59131Y132221D01*
X59040Y132249D01*
X58947Y132274D01*
X58854Y132295D01*
X58760Y132312D01*
X58666Y132326D01*
X58571Y132335D01*
X58475Y132341D01*
X58380Y132343D01*
X54824Y132343D01*
X54824Y137084D01*
X60751Y137084D01*
D15*
X0Y0D02*
X400000Y0D01*
X400000Y400000D01*
X0Y400000D01*
X0Y0D01*
M02*
