G04 EAGLE Gerber RS-274X export*
G75*
%MOMM*%
%FSLAX34Y34*%
%LPD*%
%INSoldermask Top*%
%IPPOS*%
%AMOC8*
5,1,8,0,0,1.08239X$1,22.5*%
G01*
G04 Define Apertures*
%ADD10C,3.203200*%
%ADD11R,2.203200X1.403200*%
%ADD12R,1.403200X2.203200*%
%ADD13R,0.828000X1.426700*%
%ADD14R,1.703200X1.503200*%
%ADD15R,1.668500X1.367800*%
%ADD16R,1.603200X1.203200*%
%ADD17C,0.499716*%
%ADD18R,1.477900X2.053200*%
%ADD19R,2.053200X1.477900*%
%ADD20P,2.40204X8X112.5*%
%ADD21C,2.219200*%
%ADD22R,1.367800X1.668500*%
%ADD23R,1.203200X1.603200*%
%ADD24C,1.803200*%
D10*
X30000Y30000D03*
X370000Y370000D03*
X370000Y30000D03*
X30000Y370000D03*
D11*
X257800Y237440D03*
X257800Y257440D03*
X257800Y277440D03*
X257800Y297440D03*
X257800Y317440D03*
X257800Y337440D03*
X257800Y357440D03*
X257800Y377440D03*
X97800Y377440D03*
X97800Y337440D03*
X97800Y357440D03*
X97800Y317440D03*
X97800Y297440D03*
X97800Y277440D03*
X97800Y257440D03*
X97800Y237440D03*
D12*
X227800Y222640D03*
X207800Y222640D03*
X187800Y222640D03*
X167800Y222640D03*
X147800Y222640D03*
X127800Y222640D03*
D13*
X352400Y124940D03*
X333400Y124940D03*
X342900Y103660D03*
D14*
X127000Y73000D03*
X127000Y54000D03*
D15*
X177800Y59554D03*
X177800Y42046D03*
D16*
X353900Y76200D03*
X331900Y66700D03*
X331900Y85700D03*
D17*
X207918Y71532D02*
X198782Y71532D01*
X198782Y74468D01*
X207918Y74468D01*
X207918Y71532D01*
X207918Y62032D02*
X198782Y62032D01*
X198782Y64968D01*
X207918Y64968D01*
X207918Y62032D01*
X207918Y52532D02*
X198782Y52532D01*
X198782Y55468D01*
X207918Y55468D01*
X207918Y52532D01*
X223882Y52532D02*
X233018Y52532D01*
X223882Y52532D02*
X223882Y55468D01*
X233018Y55468D01*
X233018Y52532D01*
X233018Y71532D02*
X223882Y71532D01*
X223882Y74468D01*
X233018Y74468D01*
X233018Y71532D01*
D14*
X152400Y41300D03*
X152400Y60300D03*
X342900Y161900D03*
X342900Y142900D03*
X317500Y142900D03*
X317500Y161900D03*
X304800Y85700D03*
X304800Y66700D03*
D15*
X304800Y105546D03*
X304800Y123054D03*
D18*
X295603Y165100D03*
X263197Y165100D03*
X346403Y203200D03*
X313997Y203200D03*
D19*
X48000Y219403D03*
X48000Y186997D03*
D14*
X50800Y308000D03*
X50800Y327000D03*
X50800Y257200D03*
X50800Y276200D03*
D20*
X304800Y266700D03*
X330200Y266700D03*
X304800Y292100D03*
X330200Y292100D03*
X304800Y317500D03*
X330200Y317500D03*
D21*
X203200Y170080D02*
X203200Y149920D01*
X228600Y149920D02*
X228600Y170080D01*
X127000Y170080D02*
X127000Y149920D01*
X152400Y149920D02*
X152400Y170080D01*
D15*
X63500Y54746D03*
X63500Y72254D03*
D22*
X16646Y156853D03*
X34154Y156853D03*
D21*
X269320Y50800D02*
X289480Y50800D01*
X289480Y25400D02*
X269320Y25400D01*
D23*
X38100Y77900D03*
X28600Y99900D03*
X47600Y99900D03*
D22*
X16646Y130000D03*
X34154Y130000D03*
D24*
X235400Y118000D02*
X235400Y102000D01*
X210000Y102000D02*
X210000Y118000D01*
X184600Y118000D02*
X184600Y102000D01*
M02*
